<?xml version="1.0" encoding="UTF-8"?>
<svg version="1.1" width="1024" height="172" viewBox="0 0 1024 171.96" xmlns="http://www.w3.org/2000/svg" xmlns:cc="http://creativecommons.org/ns#" xmlns:dc="http://purl.org/dc/elements/1.1/" xmlns:rdf="http://www.w3.org/1999/02/22-rdf-syntax-ns#">
<metadata>
<rdf:RDF>
<cc:Work rdf:about="">
<dc:format>image/svg+xml</dc:format>
<dc:type rdf:resource="http://purl.org/dc/dcmitype/StillImage"/>
</cc:Work>
</rdf:RDF>
</metadata>
<path d="m149.32 0.0021499c-22.253-0.12661-46.599 5.3433-63.56 15.374-12.223 7.2292-16.517 11.648-24.628 25.347-28.019 47.326-43.522 77.508-55.251 107.57-5.9533 15.258-6.3639 16.566-5.5954 17.802 0.92738 1.4914 6.7601 3.7226 12.609 4.8232 7.3983 1.392 26.459 0.90872 33.391-0.84684 9.9014-2.5075 12.745-4.7322 16.176-12.656 9.8164-22.668 18.133-32.188 31.023-35.512 7.8658-2.0282 10.173-2.2552 28.771-2.8329 19.896-0.61811 24.934-1.127 32.011-3.234 6.4176-1.9107 9.9036-5.7138 15.135-16.511 4.2415-8.7538 6.1808-14.289 5.5656-15.893-0.68285-1.7794-3.5552-2.2202-18.13-2.7838-14.937-0.57759-23.019-1.6194-29.076-3.748-9.5036-3.3403-10.339-9.3348-1.8985-13.612 7.4607-3.7807 21.109-5.873 38.524-5.9069 5.1897-0.0076 12.266-0.28611 15.726-0.61225l6.2909-0.59305 3.266-3.4707c4.6121-4.8996 12.445-16.941 13.93-21.416 0.68878-2.0758 1.4488-5.1106 1.6895-6.7431 0.39878-2.7063 0.26268-3.1882-1.5445-5.4697-4.0541-5.1186-12.886-10.651-22.542-14.12-9.1476-3.2857-20.229-4.887-31.885-4.9534zm598.83 0.77223c-3.1606 0.057449-6.4888 0.43979-9.6273 1.1861-6.751 1.6054-12.47 4.4137-14.544 7.1421-1.7617 2.3167-14.361 24.897-22.904 41.05l-5.6509 10.685 1.7749 1.0794c4.4003 2.676 4.4932 4.543 0.82772 16.703-8.5949 28.514-29.077 72.296-40.587 86.76-1.7685 2.2225-3.0805 4.1768-2.9161 4.3411 0.16441 0.16441 2.8181 0.69044 5.8962 1.169 6.7758 1.0535 27.733 1.247 36.824 0.34129 14.297-1.4244 29.267-4.8678 35.985-8.2769 6.9966-3.5502 15.575-15.101 26.077-35.119 10.44-19.902 19.925-44.362 22.151-57.128 0.58889-3.3761 0.54236-4.217-0.29632-5.4973-2.457-3.7499-10.068-5.6646-26.606-6.6962-9.4637-0.59032-12.108-0.94371-12.108-1.617 0-0.47384 2.9442-7.4215 6.5426-15.438 12.399-27.622 15.076-34.737 13.838-36.775-1.5744-2.5924-7.7235-4.0368-14.677-3.9102zm-252.77 0.011339c-9.9987 0.015118-17.821 2.6895-21.934 7.494-2.8619 3.3435-20.47 34.57-26.316 46.669l-1.4037 2.9054-9.5078 0.43733c-15.929 0.73327-26.873 2.5169-33.878 5.5208-2.7428 1.1761-2.943 1.4103-2.5151 2.9332 1.5626 5.5618-2.9214 22.082-10.037 36.986-2.8122 5.8903-7.5694 11.569-11.278 13.461-2.9574 1.5088-9.4454 3.0807-12.819 3.106-1.3839 0.0113-2.8416 0.2279-3.2404 0.48212-0.59267 0.37795-3.9934 7.2662-3.9934 8.0892 0 0.13001 0.93816 0.2347 2.0863 0.2347 3.1414 0 8.2467 1.7044 9.6059 3.2062 2.0452 2.26 1.6528 7.6547-0.91302 12.563-3.3701 6.4462-7.6388 12.497-11.88 16.842-2.1624 2.215-3.9316 4.1226-3.9316 4.2387 0 0.11604 2.1931 0.90324 4.8744 1.7493 4.1408 1.3065 8.7116 2.1736 19.973 3.7907 4.8022 0.68953 34.165-0.12246 39.345-1.0879 7.1796-1.3385 13.15-3.2313 15.669-4.9662 3.639-2.507 17.909-28.63 39.951-73.133 18.839-38.037 38.71-81.726 38.71-85.116 0-3.4736-7.6168-6.4184-16.569-6.404zm113.66 58.655c-14.298-0.06047-29.289 1.8406-36.854 4.9107l-3.3193 1.3482 0.36699 2.6687c1.2816 9.35-15.127 50.097-30.454 75.625-8.9319 14.877-14.267 21.027-20.716 23.879-1.9211 0.84956-3.3735 1.6652-3.2254 1.8132 0.14853 0.14816 1.8125 0.68383 3.6969 1.1903 4.6223 1.2425 15.084 1.2574 19.805 0.0265 2.2117-0.57607 4.4736-1.6693 5.5144-2.6666 2.4959-2.3912 8.0539-10.661 15.521-23.092 9.3893-15.63 13.06-19.934 16.031-18.794 3.1336 1.2024 2.5686 4.1786-3.7502 19.713-4.5106 11.089-6.4749 17.321-6.7389 21.381-0.1799 2.7676-0.15382 2.8059 2.3338 3.5668 3.7589 1.1496 21.157 1.0967 25.816-0.079 3.1867-0.8041 4.2475-1.4706 7.0653-4.4456 4.1436-4.3749 9.1376-11.79 15.858-23.544 7.9856-13.967 11.198-17.722 14.18-16.577 3.0194 1.1586 2.3853 4.5852-4.0233 21.746-5.0374 13.489-6.1189 16.869-6.485 20.285-0.18104 1.6876 0.0389 1.9348 2.3167 2.6239 3.1366 0.94877 12.549 1.0584 17.795 0.20674 5.4426-0.88317 10.511-2.8839 13.128-5.1816 9.5374-8.3739 35.189-62.268 43.063-90.474 2.273-8.1425 2.2072-9.8439-0.4458-11.387-7.9066-4.5994-32.041-6.096-53.476-3.3151-5.6386 0.73157-8.2839 0.81721-10.359 0.33676-1.5326-0.35452-7.3627-0.98506-12.957-1.4016-3.1259-0.23282-6.3896-0.35074-9.6891-0.3651zm215.66 0.64849c-3.6857-0.02646-7.3642 0.08013-10.89 0.34583-11.218 0.84472-19.124 2.1485-24.765 4.083l-4.1385 1.4186-0.48212 3.8931c-1.3524 10.904-10.132 34.455-20.573 55.187-10.585 21.017-19.464 34.07-26.275 38.626l-3.2958 2.2036 1.7983 1.1392c2.1241 1.3449 9.9209 3.3851 16.117 4.2174 2.4218 0.32542 11.339 0.50423 19.816 0.39666 12.181-0.15458 16.929-0.46866 22.646-1.4975 12.508-2.2507 18.745-4.5921 23.408-8.7868 11.562-10.401 35.118-56.471 42.334-82.797 1.8804-6.8602 2.0153-10.462 0.44372-11.884-4.0934-3.7044-20.172-6.4171-36.143-6.5447zm-464.53 0.01512c-3.7296-0.02268-7.4728 0.08504-11.093 0.34961-10.988 0.80406-14.895 1.391-22.269 3.3428-4.0472 1.0713-4.8341 1.479-4.4712 2.3209 2.0584 4.7753-1.2603 18.227-8.6225 34.938-2.6485 6.0117-4.0263 8.2675-6.9586 11.402-5.1221 5.4756-9.0772 7.0318-20.726 8.151l-4.1748 0.40128-1.6255 3.5732-1.6256 3.5753 2.6538 0.50128c8.8144 1.6626 9.5567 1.9006 11.268 3.6116 2.3403 2.3402 2.4113 6.4322 0.192 11.199-3.9354 8.4537-12.936 19.958-17.563 22.45-1.2372 0.66629-2.2484 1.3932-2.2484 1.6148 0 0.61417 6.7878 2.3861 13.002 3.394 8.5273 1.383 34.685 0.89352 44.241-0.82775 13.087-2.3574 18.934-4.645 24.007-9.3905 6.5021-6.0819 14.474-18.898 14.593-23.463 0.10658-4.0622-0.97932-4.5031-14.679-5.9709-12.915-1.3837-17.631-3.0816-17.631-6.3463 0-3.24 6.9136-5.3431 22.405-6.8157 15.454-1.469 17.684-2.1538 22.392-6.8626 4.6947-4.6947 11.218-19.018 14.617-32.101 1.9193-7.3869 2.0612-11.089 0.47997-12.52-4.1316-3.739-20.003-6.4139-36.165-6.5277zm-79.789 0.11301c-10.614 0.09335-21.427 1.1124-29.712 3.1934l-4.1427 1.041 0.92157 1.7855c1.3588 2.6276 1.1412 5.9558-0.91514 13.913-1.9589 7.5799-7.8218 22.859-10.57 27.549-2.589 4.4179-6.9256 8.6517-10.683 10.429-4.0355 1.9091-10.531 3.3963-14.965 3.4238-5.7821 0.0389-5.7868 0.0389-10.084 9.0641-6.2858 13.203-10.328 25.042-10.353 30.326-0.0227 5.0101 6.6824 8.3644 20.502 10.257 2.3844 0.32655 11.271 0.50638 19.747 0.39878 12.181-0.15459 16.929-0.4687 22.646-1.4975 8.0075-1.4409 14.739-3.3621 18.529-5.2904 8.2304-4.1875 21.616-23.522 20.197-29.174-0.58723-2.3396-3.305-3.1749-13.945-4.2857-9.8718-1.0305-15.532-2.3247-17.39-3.9784-1.5503-1.3799-1.3782-3.7188 0.35604-4.8552 2.5754-1.6875 11.065-3.4546 21.315-4.435 12.693-1.2141 15.467-1.8263 19.067-4.211 4.1537-2.7513 7.3503-7.3316 10.903-15.622 6.7992-15.866 9.7961-28.7 7.3383-31.416-3.9414-4.3552-21.075-6.7708-38.765-6.6151zm250.08 0.0189c-15.806-0.12699-32.366 1.7878-39.64 5.3159-1.2189 0.59123-4.1196 5.9382-12.895 23.766-13.474 27.373-25.206 49.976-33.545 64.63-3.3469 5.8814-6.1751 10.891-6.2845 11.133-0.34469 0.76241 5.9926 3.6263 10.169 4.595 2.2029 0.51088 5.9565 1.1945 8.3409 1.521 2.3845 0.32655 11.271 0.50638 19.747 0.39878 12.181-0.15459 16.927-0.4687 22.644-1.4975 8.2086-1.477 14.735-3.3655 18.873-5.4611 7.2571-3.6754 16.385-16.75 28.319-40.559 12.977-25.892 21.477-49.866 19.903-56.138-0.44425-1.7699-4.3866-3.778-10.165-5.1774-6.7716-1.64-15.983-2.4515-25.466-2.5278zm454.4 0.09373c-7.6621 0.05745-15.417 0.41862-19.82 1.0559-8.1611 1.1814-12.39 2.285-17.599 4.595-3.4749 1.541-3.5398 1.6182-4.3091 5.1368-4.8604 22.232-28.422 75.142-41.15 92.409-2.5621 3.4758-2.7642 3.9801-1.7983 4.4883 1.5498 0.81554 9.1768 2.5732 13.985 3.2233 2.2489 0.30388 11.023 0.46568 19.5 0.3583 12.182-0.15458 16.929-0.46866 22.646-1.4975 17.534-3.155 23.288-6.3749 31.194-17.454 3.7558-5.2632 7.8076-13.113 7.8076-15.127 0-4.1471-1.7002-4.8764-14.47-6.2141-13.92-1.4582-18.887-3.3149-18.028-6.7389 0.77737-3.0974 7.3975-4.9926 22.508-6.4402 5.3433-0.5119 11.195-1.2477 13.006-1.6362 4.2259-0.9063 8.5847-3.8516 11.588-7.8311 5.8617-7.7678 15.285-34.987 13.951-40.301-0.7315-2.9147-8.0063-5.5908-19.749-7.2637-4.0314-0.5743-11.601-0.82091-19.263-0.76365zm-778.44 0.30916c-1.3922 0.0076-2.807 0.03402-4.2387 0.07446-13.571 0.3806-21.667 1.4861-29.212 3.9869-5.911 1.9593-9.3329 4.3332-13.294 9.2241l-3.1657 3.9081 8.3452 0.35603c11.777 0.50132 13.831 1.824 12.804 8.2492-0.97565 6.1012-8.4266 20.906-13.077 25.981-5.4663 5.9656-11.982 8.1171-27.015 8.9254l-7.6434 0.41161-3.9187 8.2342c-8.4694 17.795-13.223 32.543-11.718 36.35 0.75451 1.9081 2.7592 3.4012 6.2354 4.6419 6.1762 2.2042 20.557 0.52335 28.459-3.3257 5.1164-2.4921 8.4539-6.3814 15.044-17.529 15.741-26.629 19.815-29.697 41.248-31.079 14.379-0.92731 19.19-2.5329 24.453-8.1596 6.8618-7.3359 17.629-36.894 15.489-42.522-1.8033-4.7431-17.912-7.8839-38.795-7.7286zm703.69 1.137c-5.3158 0.03401-10.32 0.36321-14.116 1.0154-4.4598 0.76611-6.8642 0.85992-10.333 0.40539-1.1676-0.15307-2.4284-0.22866-3.7225-0.25587-4.4233-0.1149-9.739 0.56013-13.683 1.8389-2.8546 0.92564-3.3766 1.2811-3.3363 2.4553-4.9e-4 0.07181 3e-3 0.1561 8e-3 0.23471 0.0265 0.34242 0.034 0.74744 0.0151 1.2074-0.0797 1.4082-0.47184 3.9836-1.0112 6.869-0.5263 2.4997-1.2213 5.2441-2.0479 7.9485-1.0814 3.5379-2.5117 7.5631-4.1833 11.865-4.5265 11.157-11.115 25.524-16.957 36.89-3.419 6.4982-6.8395 12.516-9.975 17.424-0.79955 1.2437-1.5635 2.3962-2.3018 3.4793-0.32806 0.47762-0.62509 0.89144-0.93645 1.3354-0.5862 0.8341-1.1698 1.661-1.7258 2.3999-0.10318 0.13947-0.20523 0.27629-0.30727 0.41159-3.3031 4.329-6.1514 7.0477-9.2561 8.9895-0.47467 0.28309-0.95289 0.5636-1.4634 0.83191-0.38759 0.20334-0.72514 0.39708-1.0773 0.59301-1.9011 0.99345-3.2775 1.9062-3.0953 2.0884 3e-3 3e-3 0.0227 0.0113 0.0265 0.0151v2e-3c0.085 0.085 0.49757 0.24227 1.0624 0.42452 0.0571 0.0151 0.0952 0.0302 0.15571 0.0533 0.0457 0.0113 0.12057 0.0302 0.16857 0.0469 0.64456 0.1988 1.4226 0.41616 2.2676 0.62075 2e-3 6e-4 4e-3 2e-3 8e-3 2e-3 0.13266 0.034 0.33222 0.0529 0.47781 0.0835 0.55566 0.1149 1.173 0.22186 1.8943 0.30917 2.8248 0.3462 6.6992 0.47497 10.385 0.39877 0.37606-8e-3 0.75878-4e-3 1.1285-0.0151 0.0302-1e-3 0.0624-3e-3 0.096-4e-3 2.0424-0.068 3.9544-0.20296 5.5037-0.40536 0.75292-0.0971 1.4081-0.2109 1.9732-0.3394 2e-3 -5.7e-4 4e-3 -2e-3 8e-3 -2e-3 0.0265-8e-3 0.0722-0.0113 0.10016-0.0151 2.0615-0.48326 3.1722-0.88086 4.499-1.9327 0.5356-0.38139 1.0611-0.818 1.6085-1.3418 0.85153-0.81494 1.9564-2.0584 3.1166-3.4516 1.2323-1.413 2.4264-2.9446 3.7054-4.7422 1.159-1.5781 2.1201-2.9892 2.6452-3.9294 0.39628-0.61598 0.8163-1.2816 1.2436-1.9668 0.1954-0.0465 0.28913-0.19238 0.24302-0.39255 0.47739-0.76924 0.98446-1.5957 1.5082-2.4617 0.42583-0.64989 0.80881-1.2958 1.1712-1.9796 1.1916-1.9969 2.3516-3.9364 3.8334-6.4914 5.0299-8.6731 8.4522-13.526 10.986-15.306 1.1648-0.77428 2.1664-0.94919 3.0121-0.5525 0.0835 0.0412 0.16857 0.0703 0.24983 0.12171 0.10167 0.0643 0.19578 0.15042 0.29253 0.23206 0.0639 0.0525 0.12964 0.0968 0.192 0.15572 1.4744 1.4866 1.2435 3.49-1.2587 10.892-0.71357 2.1112-0.93724 2.828-1.3887 4.2003-0.67434 1.8593-1.4697 3.9968-2.37 6.3784-0.0593 0.1338-0.10205 0.24227-0.16214 0.37795-1.4198 3.182-3.1004 7.9523-4.3219 11.989-1.5191 4.709-2.2185 7.9205-1.8624 8.8486 0.25625 0.66792 1.2724 1.1748 2.7604 1.5402 0.0525 0.0113 0.10092 0.0227 0.15799 0.0302 2.186 0.51081 5.3514 0.72326 8.8465 0.63788 3.2375 0.0601 6.1263-0.034 6.4488-0.35415 0.0465-0.0465 0.1508-0.0941 0.27061-0.14059 3.8762-0.47558 7.5876-1.2748 10.244-2.3806 1.7929-0.74649 3.7148-2.2677 5.8258-4.6356 0.26683-0.29367 0.54297-0.62748 0.8149-0.94926 0.14967-0.17915 0.29821-0.35452 0.45011-0.54184 1.3453-1.6499 2.7643-3.6108 4.3624-6.052 0.68228-1.0421 1.5457-2.4912 2.4874-4.1192 1.9912-3.3661 4.1715-7.3959 6.4957-11.903 3.3623-6.4254 6.4725-12.727 7.6455-15.649 1.0076-2.178 2.0069-4.3757 2.9929-6.5895 2.6113-5.6489 6.9014-15.774 9.8107-23.384 0.89148-2.3319 1.7069-4.5721 2.4554-6.6791 3.2236-8.8259 5.398-15.961 5.796-19.562 0.20448-1.1334 0.29519-1.9697 0.18331-2.1503-0.49557-0.80186-3.5695-2.3112-5.6829-2.7903-0.75194-0.17046-1.5577-0.32844-2.3913-0.48-1.1697-0.27553-2.3675-0.53212-3.5028-0.71463-4.1809-0.67196-10.834-0.98619-17.324-0.95992-0.61175-0.0038-1.2339-0.02268-1.8389-0.0189zm-182.14 30.26c1.2248 0.02268 1.8585 0.45052 3.1188 1.7108 1.5533 1.5533 1.914 2.4345 1.9028 4.6398-0.0227 5.251-4.3539 11.452-10.001 14.333-3.6719 1.8733-8.2055 1.7452-10.114-0.28535-1.8681-1.9886-1.9087-6.6437-0.0896-10.21 2.703-5.2983 8.4049-9.4939 13.715-10.092 0.58469-0.06614 1.0593-0.10394 1.4676-0.09638zm-303.45 0.02268c1.31-0.06236 2.5006 0.22299 3.7076 0.84692 2.1493 1.1114 2.5632 2.0641 2.5556 5.892-8e-3 5.1679-4.2014 10.956-10.118 13.975-3.4879 1.7795-7.7647 1.6407-9.7211-0.31559-4.4123-4.4122 0.83853-15.411 9.1494-19.165 1.6857-0.76146 3.1164-1.1708 4.4264-1.233zm-80.199 1.8133c3.2248 0 5.9497 2.79 5.941 6.084-0.0113 5.1744-5.5732 12.761-11.02 15.037-3.3365 1.3941-6.8522 1.1486-8.9105-0.62287-1.5003-1.2912-1.7581-1.978-1.7215-4.58 0.10545-7.5253 8.3892-15.918 15.711-15.918zm464.41 0c5.2729 0 7.6405 5.7404 4.7934 11.622-1.6379 3.3834-5.9712 7.7556-9.1281 9.2092-3.605 1.6598-7.3818 1.5408-9.5227-0.30085-1.4695-1.264-1.723-1.9544-1.6831-4.5971 0.11263-7.4684 8.3688-15.933 15.541-15.933zm-541.37 0.07446c2.1771 0.04498 3.9611 0.934 4.836 2.8542 2.4894 5.4637-2.4172 14.621-9.5782 17.872-3.8057 1.7279-7.6432 1.5958-9.5674-0.32844-2.0125-2.0125-2.1316-6.7912-0.26079-10.459 3.089-6.0548 9.7803-10.038 14.57-9.9387zm245.52 0c1.3011-0.02268 2.5377 0.25436 3.6798 0.84476 2.1324 1.1027 2.562 2.0679 2.562 5.7619 0 5.0933-4.7399 11.605-10.278 14.12-6.3171 2.8682-11.11 0.77545-11.11-4.8488 0-4.0432 1.921-7.7339 5.9346-11.402 3.1733-2.9003 6.3487-4.422 9.2113-4.4755zm458.07 0.0412c0.45709 0.01512 0.9092 0.06576 1.3546 0.14967 2.9127 0.54644 4.1339 2.417 4.1257 6.3229-8e-3 5.5158-4.3804 11.523-10.372 14.254-6.209 2.8304-11.01 0.69838-11.01-4.8894 0-4.0516 1.9238-7.7349 5.9667-11.43 3.2793-2.9971 6.7345-4.5211 9.9344-4.4072z" fill="#71a7cf" fill-opacity=".99608" fill-rule="evenodd" style="paint-order:normal"/>
</svg>
