<?xml version="1.0" encoding="UTF-8"?>
<svg version="1.1" width="1024" height="178" viewBox="0 0 1024 178.18" xmlns="http://www.w3.org/2000/svg" xmlns:cc="http://creativecommons.org/ns#" xmlns:dc="http://purl.org/dc/elements/1.1/" xmlns:rdf="http://www.w3.org/1999/02/22-rdf-syntax-ns#">
<metadata>
<rdf:RDF>
<cc:Work rdf:about="">
<dc:format>image/svg+xml</dc:format>
<dc:type rdf:resource="http://purl.org/dc/dcmitype/StillImage"/>
</cc:Work>
</rdf:RDF>
</metadata>
<path d="m70.838 0.0022262c-23.127-0.13115-45.343 5.5364-57.396 15.93-8.687 7.4905-10.705 12.069-11.57 26.263-2.988 49.036-2.4415 80.309 1.9478 111.46 2.2279 15.809 2.5225 17.165 3.9988 18.445 1.7816 1.5453 9.053 3.8572 15.72 4.9976 8.4317 1.4422 27.916 0.94144 34.132-0.87753 8.8794-2.5981 10.601-4.9033 9.796-13.114-2.3029-23.487 1.0753-33.351 12.602-36.795 7.034-2.1016 9.3-2.3367 28.252-2.9353 20.275-0.64045 25.215-1.1678 31.389-3.3509 5.5981-1.9797 7.1172-5.9203 6.5961-17.108-0.42259-9.0702-1.4594-14.806-2.979-16.467-1.6867-1.8437-4.9056-2.3005-20.318-2.8845-15.795-0.59849-24.743-1.6779-32.189-3.8836-11.685-3.461-15.85-9.6722-9.458-14.104 5.6499-3.9173 18.64-6.0853 36.666-6.1204 5.3727-0.0076 12.552-0.29669 15.958-0.63439l6.192-0.61448 1.474-3.5962c2.0826-5.0767 3.5724-17.553 2.6484-22.19-0.42868-2.1509-1.3111-5.2953-1.9602-6.9868-1.0761-2.8041-1.4824-3.3034-4.6102-5.6673-7.0174-5.3037-19.213-11.036-31.127-14.63-11.286-3.4045-23.649-5.0637-35.764-5.1324zm620.9 0.80016c-3.2432 0.059339-6.4814 0.45558-9.3225 1.2289-6.1116 1.6635-10.492 4.5732-11.14 7.4002-0.55034 2.4005-1.1789 25.797-1.1424 42.533l0.0227 11.072 2.433 1.1184c6.032 2.7727 7.1556 4.7072 10.05 17.307 6.7857 29.544 9.657 74.909 5.6911 89.896-0.60934 2.3028-0.89329 4.3277-0.6325 4.4981 0.2604 0.17008 3.2999 0.71539 6.7526 1.2112 7.6004 1.0916 29.421 1.2921 38.343 0.35377 14.03-1.4759 27.646-5.0437 32.731-8.5761 5.2958-3.6786 7.828-15.647 7.6927-36.389-0.13456-20.622-3.7677-45.965-8.4857-59.193-1.2478-3.4982-1.7587-4.3695-3.3323-5.696-4.6094-3.8854-13.549-5.8693-31.252-6.9382-10.131-0.61168-13.065-0.97788-13.436-1.6754-0.26079-0.49096-1.0336-7.6898-1.7167-15.996-2.3539-28.621-3.4949-35.992-5.899-38.104-3.0579-2.686-10.224-4.1826-17.359-4.0515zm-261.9 0.011339c-10.351 0.015118-16.985 2.7867-18.603 7.7649-1.1254 3.4644-2.1858 35.819-1.5846 48.355l0.14437 3.0105-9.6108 0.45313c-16.101 0.7598-26.459 2.6079-32.064 5.7204-2.1947 1.2186-2.2733 1.4612-0.99182 3.0392 4.6798 5.7629 9.125 22.88 9.954 38.323 0.32768 6.1032-1.4768 11.987-4.2786 13.947-2.2341 1.5633-8.0915 3.192-11.573 3.2182-1.4271 0.0113-2.8189 0.23622-3.0922 0.49954-0.40634 0.39152-0.13909 7.5289 0.3137 8.3816 0.0718 0.13492 1.1011 0.24302 2.2908 0.24302 3.2549 0 9.4826 1.766 11.717 3.3221 3.3628 2.3416 5.9249 7.9313 5.9673 13.017 0.0556 6.6791-1.0376 12.949-3.0412 17.451-1.0216 2.2952-1.805 4.2716-1.7411 4.392 0.0635 0.12019 2.7694 0.93589 6.0133 1.8125 5.0095 1.3538 10.223 2.2522 22.781 3.9278 5.3552 0.71444 35.333-0.12662 40.169-1.1273 6.7025-1.3869 11.847-3.348 13.502-5.1456 2.3909-2.5976 2.8008-29.664 1.1492-75.777-1.4115-39.412-4.8656-84.68-6.7312-88.192-1.9115-3.5991-11.424-6.6503-20.692-6.6354zm150.05 60.775c-14.848-0.06274-29.335 1.9071-35.483 5.0882l-2.6972 1.3969 1.8488 2.7651c6.4733 9.6879 11.895 51.908 10.062 78.358-1.0679 15.415-3.2113 21.788-8.3235 24.742-1.523 0.88025-2.579 1.7254-2.3441 1.8788 0.23546 0.15383 2.2543 0.70855 4.4855 1.2334 5.4731 1.2873 16.321 1.3028 20.537 0.0264 1.9746-0.59686 3.7166-1.7297 4.2463-2.7629 1.2703-2.4776 2.4782-11.046 3.3747-23.927 1.1271-16.195 2.5618-20.655 6.2683-19.473 3.9085 1.2459 4.9608 4.3296 6.9625 20.426 1.4289 11.49 2.8228 17.947 4.7839 22.154 1.3366 2.8675 1.3846 2.9073 4.3809 3.6957 4.5274 1.1912 22.526 1.1364 26.706-0.0816 2.8593-0.8332 3.5917-1.5238 4.8742-4.6064 1.8859-4.533 2.98-12.216 3.4749-24.395 0.58806-14.472 1.8503-18.362 5.5695-17.176 3.7661 1.2005 4.9948 4.7509 7.7983 22.532 2.2038 13.977 2.943 17.479 4.4435 21.018 0.74135 1.7487 1.1032 2.0048 3.8443 2.7187 3.7721 0.98302 13.585 1.0966 18.552 0.21392 5.1534-0.91509 9.3038-2.9881 10.751-5.3689 5.2738-8.6766 2.1948-64.518-5.1688-93.745-2.1256-8.4367-3.1302-10.2-6.7284-11.799-10.723-4.7656-36.554-6.3163-57.233-3.4348-5.4398 0.75798-8.1336 0.84669-10.548 0.34885-1.7832-0.36737-8.1708-1.0207-14.197-1.4522-3.367-0.24151-6.8136-0.36359-10.24-0.37826zm223.81 0.67196c-3.8349-0.02646-7.5864 0.08277-11.094 0.3583-11.158 0.87522-18.633 2.2261-23.413 4.2306l-3.5074 1.4699 1.6428 4.0338c4.5996 11.299 8.4628 35.7 9.0532 57.181 0.59841 21.776-1.4182 35.301-5.9684 40.023l-2.2023 2.2832 2.4902 1.1803c2.941 1.3935 12.142 3.5074 19.02 4.3699 2.6884 0.33713 12.026 0.52241 20.75 0.41099 12.536-0.16026 17.283-0.48564 22.641-1.5516 11.722-2.332 16.895-4.758 19.419-9.1044 6.2564-10.777 5.3108-58.512-1.6997-85.79-1.8268-7.1082-3.6692-10.84-6.0802-12.314-6.28-3.8383-24.432-6.6492-41.051-6.7813zm-481.31 0.01512c-3.878-0.02268-7.6961 0.08806-11.301 0.36208-10.942 0.83308-14.668 1.4412-21.234 3.4636-3.6039 1.11-4.195 1.5324-3.3556 2.4049 4.7606 4.9479 8.7244 18.885 10.292 36.201 0.56405 6.229 0.37795 8.5663-0.9354 11.814-2.294 5.6735-5.5357 7.2859-16.99 8.4457l-4.105 0.41533 0.28195 3.7023 0.28346 3.7045 3.0255 0.51942c10.048 1.7228 10.948 1.9693 13.662 3.7421 3.7127 2.4248 6.0381 6.6647 6.362 11.604 0.57445 8.7592-2.4203 20.68-5.8433 23.262-0.91518 0.69041-1.563 1.4436-1.441 1.6733 0.33789 0.63633 8.3463 2.4722 15.34 3.5166 9.5966 1.4331 36.431 0.92587 45.385-0.85765 12.263-2.4426 17.062-4.8128 19.707-9.7298 3.3901-6.3017 4.597-19.581 2.2088-24.311-2.1252-4.2091-3.4928-4.6659-18.495-6.1868-14.143-1.4337-19.964-3.193-21.761-6.5757-1.783-3.3571 4.2231-5.5362 19.464-7.062 15.204-1.5221 17.138-2.2317 19.425-7.1106 2.2809-4.8644 1.1574-19.705-2.5201-33.261-2.0764-7.654-3.9666-11.49-6.3925-12.972-6.3385-3.8742-24.256-6.6458-41.064-6.7636zm-82.611 0.11717c-10.946 0.09675-21.589 1.1526-29.028 3.3089l-3.7196 1.0786 1.9375 1.8501c2.8539 2.7225 4.46 6.1711 6.7081 14.416 2.1416 7.8539 4.4748 23.685 4.2079 28.544-0.25134 4.5775-2.4148 8.9644-5.33 10.806-3.1308 1.9781-9.0429 3.519-13.621 3.5476-5.9706 0.0401-5.9756 0.0401-5.4602 9.3917 0.75247 13.68 3.0802 25.947 5.9618 31.422 2.7315 5.1912 11.527 8.6668 26.888 10.627 2.6504 0.33827 11.957 0.52472 20.681 0.41318 12.536-0.16025 17.283-0.48567 22.641-1.5517 7.5041-1.4929 13.422-3.4836 16.288-5.4816 6.2235-4.3388 9.4531-24.372 4.8728-30.229-1.8959-2.4241-5.1715-3.2897-16.807-4.4406-10.796-1.0678-17.373-2.4088-20.208-4.1222-2.3659-1.4299-3.4746-3.8532-2.3028-5.0307 1.7399-1.7485 9.5642-3.5795 19.645-4.5953 12.484-1.2579 15.02-1.8923 17.439-4.3632 2.7898-2.8508 3.5812-7.5967 2.7003-16.186-1.686-16.439-5.6437-29.738-9.6849-32.552-6.4806-4.5126-25.563-7.0156-43.807-6.8542zm259.13 0.0189c-16.447-0.13153-32.552 1.8525-38.147 5.5081-0.93755 0.61258-1.0007 6.1528-0.28271 24.625 1.1024 28.362 1.3852 51.782 0.80912 66.966-0.23131 6.0939-0.40509 11.285-0.3851 11.536 0.0624 0.79 8.2048 3.7574 13.065 4.761 2.5637 0.52935 6.8292 1.2377 9.4794 1.576 2.6503 0.33827 11.957 0.52467 20.681 0.41319 12.536-0.16025 17.281-0.48572 22.639-1.5517 7.6924-1.5304 13.415-3.4871 16.55-5.6584 5.4969-3.8083 7.7602-17.355 7.0222-42.025-0.80243-26.827-5.1881-51.668-10.271-58.167-1.4342-1.8339-6.624-3.9145-13.381-5.3645-7.9188-1.6992-17.91-2.5401-27.778-2.6192zm470.87 0.09713c-7.9074 0.05972-15.744 0.43385-19.955 1.0941-7.806 1.2242-11.58 2.3676-15.707 4.7611-2.7526 1.5967-2.7774 1.6767-1.638 5.3225 7.198 23.035 11.902 77.858 8.2162 95.749-0.74196 3.6015-0.67378 4.124 0.60662 4.6505 2.0547 0.84503 10.925 2.6662 16.265 3.3398 2.4974 0.31483 11.678 0.48253 20.402 0.37153 12.537-0.16026 17.282-0.48567 22.641-1.5517 16.431-3.269 20.622-6.6053 22.717-18.085 0.9952-5.4535 0.8737-13.587-0.2343-15.673-2.2822-4.297-4.4452-5.0527-18.412-6.4387-15.226-1.5109-21.394-3.4347-22.388-6.9824-0.89896-3.2093 4.9174-5.1731 19.777-6.673 5.2547-0.53042 10.913-1.2929 12.576-1.6953 3.88-0.9391 6.7755-3.9908 7.6971-8.1142 1.7988-8.0485-3.4163-36.252-7.7223-41.758-2.3619-3.02-11.372-5.7928-24.461-7.5262-4.4931-0.59509-12.472-0.85062-20.38-0.79136zm-806.41 0.32013c-1.438 0.0076-2.8902 0.0378-4.3508 0.0771-13.852 0.39436-21.633 1.5398-28.074 4.1311-5.0465 2.03-7.2857 4.4897-8.6987 9.5575l-1.1295 4.0493 8.8428 0.36888c12.479 0.51946 15.335 1.8899 17.806 8.5473 2.3466 6.3218 2.7734 21.661 0.74797 26.92-2.381 6.1812-7.9478 8.4104-23.08 9.248l-7.6932 0.42644 0.47104 8.5319c1.0173 18.438 4.2072 33.719 7.8624 37.664 1.8318 1.977 4.7306 3.5242 9.0153 4.8097 7.6125 2.284 21.588 0.54229 27.658-3.4459 3.9299-2.5822 5.2478-6.6119 5.9412-18.162 1.6563-27.592 4.1893-30.77 25.636-32.202 14.389-0.96083 18.49-2.6245 20.847-8.4545 3.0729-7.601-2.0371-38.228-7.3507-44.059-4.4786-4.9145-22.898-8.1688-44.45-8.008zm729.75 1.1781c-5.4898 0.0378-10.493 0.37644-14.067 1.0521-4.1995 0.79381-6.6392 0.89102-10.484 0.42002-1.2941-0.15874-2.642-0.23698-3.9979-0.26532-4.6464-0.11868-9.7828 0.58031-13.165 1.9053-2.4484 0.95906-2.7937 1.3273-2.1058 2.544 0.0401 0.07446 0.0888 0.16176 0.13757 0.24302 0.21846 0.3549 0.44553 0.77446 0.68153 1.251 0.69241 1.4591 1.7034 4.1276 2.7323 7.1173 0.83033 2.5901 1.6205 5.4336 2.2522 8.2357 0.82644 3.6658 1.5596 7.8365 2.195 12.294 1.4496 11.56 2.5292 26.446 2.7309 38.223 0.0378 6.733-0.19919 12.968-0.74688 18.054-0.144 1.2886-0.30123 2.4828-0.47028 3.605-0.0771 0.49486-0.15685 0.92364-0.23547 1.3837-0.14853 0.86419-0.2982 1.7209-0.46745 2.4866-0.0265 0.14438-0.0612 0.28611-0.0918 0.4264-1.0402 4.4855-2.4953 7.3025-4.6436 9.3144-0.33563 0.2933-0.67718 0.58409-1.0585 0.86204-0.28989 0.2109-0.53272 0.41144-0.78984 0.61444-1.4231 1.0293-2.3469 1.9751-2.0579 2.164 4e-3 4e-3 0.0378 0.0113 0.0404 0.0151l1e-3 2e-3c0.13493 0.0881 0.64891 0.25096 1.3344 0.43989 0.068 0.0151 0.11716 0.034 0.19086 0.0552 0.0544 0.0113 0.14325 0.034 0.20032 0.0487 0.77726 0.20599 1.703 0.43117 2.6911 0.64316 3e-3 6.5e-4 4e-3 2e-3 8e-3 2e-3 0.15609 0.0378 0.37303 0.0548 0.54103 0.0866 0.6389 0.11867 1.3374 0.22979 2.1329 0.32012 3.1172 0.35868 7.2027 0.49217 10.979 0.41318 0.3851-8e-3 0.78399-4e-3 1.1602-0.0151 0.0378-1e-3 0.0631-3e-3 0.0975-4e-3 2.079-0.0699 3.9856-0.21052 5.4795-0.42006 0.72657-0.10091 1.3429-0.21845 1.8578-0.35187 2e-3 -5.7e-4 3e-3 -2e-3 8e-3 -2e-3 0.0227-8e-3 0.068-0.0113 0.0949-0.0151 1.8702-0.50063 2.8022-0.9126 3.598-2.0025 0.34545-0.39519 0.64937-0.8476 0.92822-1.3903 0.43389-0.84442 0.89442-2.1328 1.3299-3.5763 0.49917-1.4641 0.89379-3.0511 1.2298-4.9136 0.33222-1.6352 0.55173-3.0972 0.57838-4.0714 0.0711-0.63832 0.1406-1.328 0.20598-2.038 0.17689-0.048 0.19352-0.19918 0.0378-0.40675 0.0711-0.79703 0.14211-1.6534 0.20787-2.5507 0.0832-0.67336 0.12473-1.3426 0.12397-2.0512 0.13569-2.069 0.27062-4.0786 0.39999-6.726 0.4388-8.9866 1.3141-14.015 2.9602-15.859 0.78077-0.80225 1.7225-0.98344 2.8169-0.57245 0.10923 0.0427 0.21279 0.0729 0.32579 0.12586 0.1406 0.0665 0.28536 0.15571 0.43068 0.24113 0.0949 0.0544 0.18746 0.0998 0.2846 0.16139 2.3458 1.5403 3.209 3.6161 4.69 11.286 0.42213 2.1874 0.58511 2.9302 0.87254 4.3521 0.32428 1.9265 0.67661 4.1413 1.0543 6.609 0.0113 0.1387 0.0227 0.25096 0.0404 0.39152 0.27968 3.297 1.1638 8.2397 2.1193 12.422 1.0174 4.8793 2.0601 8.2068 2.9399 9.1684 0.63318 0.69211 1.9649 1.2173 3.7077 1.596 0.0612 0.0113 0.1183 0.0227 0.18142 0.0378 2.5462 0.52929 5.943 0.74944 9.5173 0.66089 3.3876 0.0624 6.3295-0.0378 6.4869-0.36699 0.0189-0.0484 0.10432-0.0975 0.20334-0.14552 3.7546-0.49281 7.1604-1.3209 9.3039-2.4667 1.4469-0.77344 2.6012-2.3497 3.4854-4.8031 0.11452-0.30426 0.21732-0.65012 0.32201-0.98359 0.0559-0.18557 0.11414-0.36699 0.16819-0.56141 0.4859-1.7095 0.87708-3.7413 1.1897-6.2707 0.13342-1.0798 0.23056-2.5813 0.31068-4.2681 0.2109-3.4878 0.25247-7.6632 0.17991-12.334-0.0522-6.6576-0.29783-13.187-0.69003-16.215-0.15458-2.2567-0.32844-4.5339-0.5252-6.8277-0.40294-5.853-1.5298-16.344-2.7033-24.23-0.35981-2.4162-0.74748-4.7374-1.1315-6.9206-1.5167-9.1449-3.1905-16.538-4.7594-20.269-0.41148-1.1743-0.77813-2.0409-0.99341-2.2281-0.95471-0.83078-4.9704-2.3947-7.4239-2.8911-0.87292-0.1765-1.7949-0.34054-2.7419-0.49735-1.3635-0.28535-2.7458-0.5514-4.0227-0.74048-4.7018-0.69623-11.768-1.0218-18.478-0.99462-0.63587-0.0038-1.2922-0.02268-1.9167-0.0189zm-172.07 31.354c1.2828 0.02268 2.1736 0.46688 4.173 1.7727 2.4642 1.6095 3.3228 2.5225 4.5248 4.8074 2.864 5.4409 1.7911 11.866-2.4744 14.851-2.7738 1.941-7.5417 1.8083-10.637-0.29669-3.03-2.0604-5.6339-6.8838-5.7112-10.579-0.11528-5.4898 3.4842-9.837 8.6564-10.457 0.5695-0.06841 1.0404-0.10772 1.4678-0.09978zm-314.4 0.02268c1.3231-0.06463 2.7136 0.23093 4.3076 0.87746 2.8386 1.1516 3.7918 2.1387 5.8904 6.105 2.8311 5.3547 1.6761 11.352-2.7932 14.48-2.6348 1.8437-7.1425 1.7-10.246-0.32731-6.9999-4.5718-7.6117-15.968-1.0665-19.858 1.3276-0.78898 2.5848-1.2131 3.9079-1.2775zm-82.1 1.8788c3.3414 0 7.7002 2.8909 9.5038 6.3039 2.8347 5.3614 1.248 13.222-3.1435 15.581-2.6899 1.4445-6.4678 1.1901-9.5753-0.64539-2.2651-1.3378-2.9102-2.0495-4.3042-4.7456-4.0317-7.7974-0.0676-16.494 7.5193-16.494zm481.2 0c5.4634 0 11.076 5.9479 11.362 12.042 0.16441 3.5057-1.919 8.0359-4.3902 9.542-2.8219 1.7198-6.8006 1.5965-10.032-0.31181-2.2183-1.3097-2.8608-2.025-4.2738-4.7632-3.9932-7.7384-0.0968-16.509 7.3342-16.509zm-560.9 0.0771c2.2806 0.04687 4.6183 0.96771 6.5816 2.9574 5.586 5.6612 5.5413 15.149-0.0892 18.518-2.9923 1.7905-7.0413 1.6535-10.094-0.34054-3.1928-2.0852-5.9458-7.0365-6.0257-10.837-0.13115-6.2737 4.6099-10.401 9.6272-10.298zm254.39 0c1.3346-0.02268 2.7694 0.26343 4.2777 0.87526 2.8162 1.1426 3.7926 2.1426 5.8253 5.9701 2.8029 5.2774 1.4754 12.025-2.8791 14.63-4.9669 2.972-11.085 0.80356-14.18-5.024-2.225-4.1894-2.2656-8.0134-0.1251-11.814 1.692-3.0051 4.1447-4.5818 7.0813-4.6373zm474.65 0.04271c0.48272 0.01512 0.97818 0.06803 1.4858 0.15496 3.3187 0.56621 5.6135 2.5044 7.7544 6.5515 3.0225 5.7152 1.8025 11.94-2.9025 14.769-4.8758 2.9326-11.023 0.7236-14.098-5.0661-2.2296-4.1981-2.2632-8.0144-0.10733-11.843 1.7484-3.1055 4.4899-4.6845 7.8681-4.5665z" fill="#71a7cf" fill-opacity=".99608" fill-rule="evenodd" style="paint-order:normal"/>
</svg>
