<?xml version="1.0" encoding="UTF-8"?>
<svg version="1.1" width="1024" height="123" viewBox="0 0 1024 122.68" xmlns="http://www.w3.org/2000/svg" xmlns:cc="http://creativecommons.org/ns#" xmlns:dc="http://purl.org/dc/elements/1.1/" xmlns:rdf="http://www.w3.org/1999/02/22-rdf-syntax-ns#">
<metadata>
<rdf:RDF>
<cc:Work rdf:about="">
<dc:format>image/svg+xml</dc:format>
<dc:type rdf:resource="http://purl.org/dc/dcmitype/StillImage"/>
</cc:Work>
</rdf:RDF>
</metadata>
<g transform="matrix(4.0174 0 -2.6611 4.0174 -1623.5 -919.71)" fill="#72a7cf" fill-opacity=".99608" fill-rule="evenodd">
<path d="m575.24 234.41c-1.0011 8.2313-1.6624 15.254-0.23926 23.58 0.75388 0.98092 4.1114 1.4752 6.8096 1.4773 2.6981 1e-3 5.3229-0.48741 5.7864-1.4766 0.36295-0.77468-1.0659-5.791 1.8536-7.0264 3.6506-1.4822 9.7658-0.10928 13.057-1.4826 0.9406-0.37483 1.1107-1.8645 1.0454-2.6962-0.0396-4.3818-0.66063-3.5353-6.3363-3.7902-9.2262-0.41448-8.8319-3.4483-1e-3 -3.5256 2.9524-0.0259 4.536-0.0784 5.2522-0.24114 0.6992-0.18821 1.2236-2.8628 1.285-3.6307 0.043-0.53603-0.23376-2.0804-0.90662-2.857-8.5665-5.9305-25.333-4.6077-27.605 1.6689z" style="paint-order:normal"/>
<path d="m614.31 239.5c-3.7538-0.0434-7.5074 0.41143-8.4124 1.4934-1.8099 2.1639-2.6496 14.998-0.36099 17.336 1.6242 1.6592 6.7449 1.3892 8.1288 0 1.2554-0.86993 0.58319-4.5312 1.6563-6.5327 1.3585-2.5338 5.7383-0.82509 8.0667-2.3136 0.45325-0.30467 0.9065-1.0642 0.88292-1.9904-0.0775-3.0479-0.79341-5.7406-1.549-6.499-0.90495-0.90843-4.6586-1.45-8.4124-1.4934z" style="paint-order:normal"/>
<path d="m634.86 239.44c-3.7538-0.0434-7.5074 0.41143-8.4123 1.4934-1.8099 2.1639-2.7291 14.633-0.36098 16.89 2.3681 2.2567 15.419 2.136 17.547 0 0.57262-0.57483 1.1039-1.9328 1.1351-3.6561 0.0149-0.79727-0.427-1.4233-0.83005-1.6942-0.50316-0.33823-1.3913-0.50035-3.4796-0.62244v-1e-3c-2.0882-0.12209-3.8007-0.49039-3.8022-0.9002-1e-3 -0.40979 1.712-0.77738 3.8015-0.90095 2.0894-0.12358 2.9772-0.28652 3.4803-0.62474 0.45323-0.30469 0.90649-1.0642 0.88293-1.9904-0.0776-3.0479-0.79342-5.7406-1.549-6.499-0.90493-0.90842-4.6585-1.45-8.4123-1.4934zm0.16018 6.3829c0.92994 2e-5 1.6838 0.75681 1.6838 1.6904-1e-5 0.93354-0.75389 1.6903-1.6838 1.6903-0.92995-2e-5 -1.6838-0.7568-1.6838-1.6903 1e-5 -0.93355 0.75389-1.6903 1.6838-1.6904z" style="paint-order:normal"/>
<path d="m655.41 239.44c-3.7537-0.0434-7.5074 0.41143-8.4123 1.4934-1.8099 2.1639-2.7291 14.633-0.36098 16.89 2.3681 2.2567 15.419 2.136 17.547 0 0.57261-0.57483 1.1039-1.9328 1.1351-3.6561 0.0149-0.79727-0.42699-1.4233-0.83004-1.6942-0.50317-0.33823-1.3913-0.50035-3.4796-0.62244v-1e-3c-2.0882-0.12209-3.8008-0.49039-3.8022-0.9002-1e-3 -0.40979 1.7121-0.77738 3.8015-0.90095 2.0894-0.12358 2.9772-0.28652 3.4803-0.62474 0.45322-0.30469 0.90647-1.0642 0.88291-1.9904-0.0775-3.0479-0.7934-5.7406-1.5489-6.499-0.90496-0.90842-4.6586-1.45-8.4123-1.4934zm0.16017 6.3829c0.92996 2e-5 1.6838 0.75681 1.6838 1.6904-2e-5 0.93354-0.75388 1.6903-1.6838 1.6903-0.92994-2e-5 -1.6838-0.7568-1.6838-1.6903 1e-5 -0.93355 0.75389-1.6903 1.6838-1.6904z" style="paint-order:normal"/>
<path d="m680.95 229.06c-1.8169-1e-3 -3.5844 0.49647-3.8965 1.5026-0.2444 0.78799-0.49261 4.3614-0.64301 8.5764-0.14991-3e-3 -0.29829-0.0105-0.44837-0.0119-3.7537-0.0434-7.5073 0.41143-8.4123 1.4934-1.8099 2.1639-2.7291 14.633-0.36098 16.89 2.3682 2.2567 16.259 2.7175 18.387 0.58146 0.67418-4.5761 0.9174-19.06-0.0409-27.529-0.50767-0.99778-2.7682-1.5005-4.5851-1.5026zm-4.8277 16.45c0.92994 2e-5 1.6838 0.75681 1.6838 1.6904 0 0.93356-0.75388 1.6903-1.6838 1.6904-0.92996-2e-5 -1.6838-0.7568-1.6838-1.6904 2e-5 -0.93355 0.75387-1.6903 1.6838-1.6904z" style="paint-order:normal"/>
<path d="m696.76 239.44c-3.7538-0.0434-7.5074 0.41143-8.4124 1.4934-1.8099 2.1639-2.7292 14.633-0.361 16.89 2.3682 2.2567 15.419 2.136 17.547 0 2.1278-2.136 1.4489-15.073-0.361-16.89-0.90494-0.90843-4.6586-1.45-8.4123-1.4934zm0.16018 6.3829a1.6839 1.6904 0 0 1 1.6838 1.6904 1.6839 1.6904 0 0 1 -1.6838 1.6903 1.6839 1.6904 0 0 1 -1.6838 -1.6903 1.6839 1.6904 0 0 1 1.6838 -1.6904z" style="paint-order:normal"/>
<path d="m717.27 239.32c-3.7538-0.0434-7.5074 0.41066-8.4123 1.4926-1.3212 2.6544-2.4623 15.525-0.72352 17.706 0.97756 1.1062 6.0069 1.2269 6.8825 0.38623 1.187-2.3 0.7129-7.4468 1.9628-7.4431 1.1691 3e-3 0.47443 4.471 1.6831 6.9576 0.0103 0.0322 0.0202 0.0685 0.0307 0.0993 0.0119 0.0119 0.0259 0.0224 0.0383 0.0338 0.0652 0.12269 0.13422 0.24141 0.21001 0.35238 0.38941 0.41529 1.9643 0.61099 3.5838 0.55474 1.6196 0.0563 3.1944-0.13861 3.5838-0.55396 0.0758-0.11092 0.14491-0.23044 0.21002-0.35316 0.0119-0.0119 0.0268-0.0223 0.0383-0.0338 0.0103-0.0306 0.0203-0.0671 0.0307-0.0993 1.2086-2.4866 0.51392-6.9548 1.6831-6.9576 1.2499-3e-3 0.77508 5.1438 1.9621 7.4438 0.87567 0.84066 5.9057 0.71914 6.8833-0.38701 1.7388-2.1814 0.59767-15.052-0.72351-17.706-0.90493-1.082-4.6586-1.5359-8.4123-1.4926-1.8685 0.0216-3.736 0.16723-5.2531 0.41931-1.5179-0.25253-3.3874-0.3977-5.2577-0.41931z" style="paint-order:normal"/>
<path d="m743.41 229.06c1.8169-1e-3 3.5844 0.49647 3.8965 1.5026 0.24442 0.78799 0.49262 4.3614 0.64303 8.5764 0.1499-3e-3 0.29829-0.0105 0.44837-0.0119 3.7537-0.0434 7.5073 0.41143 8.4123 1.4934 1.8099 2.1639 2.7291 14.633 0.36097 16.89-2.3682 2.2567-16.259 2.7175-18.387 0.58146-0.67417-4.5761-0.9174-19.06 0.041-27.529 0.50766-0.99778 2.7682-1.5005 4.5851-1.5026zm4.8277 16.45c-0.92996 2e-5 -1.6838 0.75681-1.6838 1.6904 0 0.93356 0.75389 1.6903 1.6838 1.6904 0.92993-2e-5 1.6838-0.7568 1.6838-1.6904-2e-5 -0.93355-0.75389-1.6903-1.6838-1.6904z" style="paint-order:normal"/>
<path d="m769.18 239.44c-3.7538-0.0434-7.5074 0.41143-8.4124 1.4934-1.8099 2.1639-2.7292 14.633-0.36099 16.89 2.3682 2.2567 15.419 2.136 17.547 0 2.1278-2.136 1.4489-15.073-0.36099-16.89-0.90494-0.90843-4.6586-1.45-8.4123-1.4934zm0.16018 6.3829a1.6839 1.6904 0 0 1 1.6838 1.6904 1.6839 1.6904 0 0 1 -1.6838 1.6903 1.6839 1.6904 0 0 1 -1.6838 -1.6903 1.6839 1.6904 0 0 1 1.6838 -1.6904z" style="paint-order:normal"/>
<path d="m786.92 240.13c2.7491-0.8502 10.12-0.39622 11.025 0.68574 1.3212 2.6544 2.4623 15.525 0.72352 17.706-0.97756 1.1062-6.0072 1.2271-6.8829 0.38648-1.187-2.3-0.71216-7.447-1.9621-7.4433-1.2499 3e-3 -0.3695 5.1108-1.9621 7.4433-0.77491 0.82639-6.2456 0.7855-7.4164-0.38648-1.1727-3.4356-1.072-15.579 0.67522-17.706 2.2318-1.1852 4.532-0.99093 5.8001-0.68574z" style="paint-order:normal"/>
<path d="m810.14 239.44c-3.7537-0.0434-7.5074 0.41143-8.4123 1.4934-1.8099 2.1639-2.7291 14.633-0.36098 16.89 2.3681 2.2567 15.419 2.136 17.547 0 0.57262-0.57483 1.1039-1.9328 1.1351-3.6561 0.0148-0.79727-0.42699-1.4233-0.83005-1.6942-0.50317-0.33823-1.3913-0.50035-3.4796-0.62244v-1e-3c-2.0882-0.12209-3.8007-0.49039-3.8022-0.9002-1e-3 -0.40979 1.712-0.77738 3.8014-0.90095 2.0894-0.12358 2.9772-0.28652 3.4804-0.62474 0.45323-0.30469 0.90647-1.0642 0.88292-1.9904-0.0776-3.0479-0.79342-5.7406-1.549-6.499-0.90494-0.90842-4.6585-1.45-8.4123-1.4934zm0.16018 6.3829c0.92996 2e-5 1.6838 0.75681 1.6838 1.6904-1e-5 0.93354-0.75388 1.6903-1.6838 1.6903-0.92994-2e-5 -1.6838-0.7568-1.6838-1.6903 1e-5 -0.93355 0.75388-1.6903 1.6838-1.6904z" style="paint-order:normal"/>
</g>
</svg>
