<?xml version="1.0" encoding="UTF-8"?>
<svg version="1.1" viewBox="0 0 256 256" xmlns="http://www.w3.org/2000/svg" xmlns:cc="http://creativecommons.org/ns#" xmlns:dc="http://purl.org/dc/elements/1.1/" xmlns:rdf="http://www.w3.org/1999/02/22-rdf-syntax-ns#">
<metadata>
<rdf:RDF>
<cc:Work rdf:about="">
<dc:format>image/svg+xml</dc:format>
<dc:type rdf:resource="http://purl.org/dc/dcmitype/StillImage"/>
</cc:Work>
</rdf:RDF>
</metadata>
<path d="m127.45 0.0012158c-13.628-0.059339-27.361 2.0525-31.581 6.5157-8.4384 8.926-5.1637 58.246 1.2854 66.805 2.6916 3.5721 12.474 5.3956 23.407 5.8071v16.835h-81.008c-0.72514 0-1.4249 0.06539-2.1043 0.1731-0.42123-0.10432-0.85259-0.1731-1.2953-0.1731-4.173 0-7.5315 4.865-7.5315 10.908v70.138c-10.653 0.64883-20.169 2.6906-23.551 6.2677-8.4385 8.926-5.1657 58.248 1.2835 66.807 6.4491 8.5592 53.505 7.1865 59.955 0 6.4492-7.1865 8.8656-58.358 1.2835-66.807-3.1314-3.4894-12.922-5.5967-23.907-6.2658v-66.815h76.876v48.799c-11.113 0.56712-21.19 2.6277-24.693 6.3327-8.4384 8.926-5.1637 58.248 1.2854 66.807 6.4491 8.5591 53.503 7.1863 59.953 0 6.4492-7.1866 8.8654-58.358 1.2835-66.807-3.2408-3.6113-13.603-5.7517-25.053-6.3386v-48.793h78.984v33.837c-10.653 0.64879-20.167 2.6912-23.549 6.2677-8.4385 8.9262-5.1657 58.248 1.2834 66.807 6.4491 8.5592 53.505 7.1865 59.955 0 6.4491-7.1858 8.8656-58.358 1.2835-66.807-3.1314-3.4887-12.922-5.5968-23.907-6.2657v-37.163c0-0.82549-0.0661-1.6274-0.1852-2.3997 0.12171-0.44992 0.1852-0.91291 0.1852-1.3898 0-2.1901-1.3753-4.1197-3.5019-5.4232-1.1651-1.0681-2.5429-1.6949-4.0296-1.6949-0.31975 0-0.63383 0.04082-0.94292 0.09449-0.43381-0.0412-0.86264-0.09449-1.313-0.09449h-84.262v-16.976c11.08-0.65276 21.048-2.6331 23.77-5.6654 6.4492-7.1865 8.8654-58.356 1.2835-66.805-3.791-4.2245-17.313-6.4561-30.941-6.5157zm0.1852 7.9843c10.828 0.047244 21.572 1.8217 24.585 5.1772 6.0242 6.7109 4.1024 47.355-1.0216 53.063-5.1241 5.708-42.51 6.7984-47.634 0-5.1241-6.7985-7.7264-45.973-1.0216-53.063 3.3523-3.5449 14.265-5.2246 25.092-5.1772zm-21.652 9.6142c-0.70767-0.03024-1.3682 0.18368-1.8523 0.65945-1.1065 1.087-0.86162 3.1189 0.5492 4.5551l16.823 17.126-17.205 17.516c-1.4108 1.4362-1.6558 3.4662-0.54921 4.5531 1.1066 1.087 3.1324 0.80636 4.5433-0.6299l17.968-18.291c0.40161-0.40876 0.70507-0.86695 0.91344-1.3366 4e-3 -3e-3 0.0151-0.01134 0.0189-0.01512 1.1065-1.0869 0.86155-3.1169-0.54924-4.5532l-17.968-18.293c-0.79358-0.80791-1.781-1.2503-2.6909-1.2893zm16.943 39.618c-2.0132 0-3.6348 1.2461-3.6358 2.7973-1e-3 1.5512 1.6186 2.8019 3.6319 2.8032l25.642 0.0189c2.0132 0 3.6348-1.2461 3.6358-2.7973 1e-3 -1.5511-1.6186-2.7998-3.6319-2.8012zm97.99 95.762c10.828 0.0472 21.571 1.8179 24.583 5.1733 6.0242 6.7109 4.1044 47.357-1.0197 53.065-5.1241 5.708-42.51 6.7984-47.634 0-5.1241-6.7985-7.7263-45.975-1.0216-53.065 3.3524-3.545 14.265-5.2206 25.092-5.1733zm-1.559 2.2185c-8.8775 0-16.024 7.1959-16.024 16.136v10.624h6.689v-9.0884c0-0.65367 0.0643-1.2919 0.18898-1.9075 0.12397-0.61557 0.30765-1.2106 0.5433-1.7756 0.23585-0.56512 0.52339-1.1003 0.8583-1.6024 0.33524-0.50196 0.71588-0.96911 1.1378-1.3957 0.42183-0.42656 0.88335-0.81305 1.3799-1.1516 0.49644-0.33865 1.0278-0.6299 1.5866-0.86812 0.55888-0.23849 1.147-0.42403 1.7559-0.54921 0.60885-0.12548 1.2393-0.19086 1.8858-0.19086 0.64648 0 1.277 0.0658 1.8858 0.19086 0.6088 0.12549 1.195 0.31106 1.7539 0.54921 0.55884 0.23849 1.0901 0.52947 1.5866 0.86812 0.49648 0.33864 0.95808 0.7251 1.3799 1.1516 0.42183 0.42656 0.80489 0.89371 1.1398 1.3957 0.33525 0.50207 0.62264 1.0372 0.8583 1.6024 0.23584 0.56496 0.41945 1.16 0.54327 1.7756 0.12396 0.61557 0.18708 1.2538 0.18708 1.9075v9.0884h6.689v-10.624c0-8.9399-7.1482-16.136-16.026-16.136zm-91.722 11.925c10.828 0.0472 21.572 1.8217 24.585 5.1772 6.0242 6.7108 4.1024 47.357-1.0216 53.065-5.1241 5.7081-42.51 6.7985-47.634 0-5.1241-6.7985-7.7264-45.975-1.0216-53.065 3.3523-3.5449 14.265-5.2245 25.092-5.1772zm4.1299 5.5551c-0.15837 0.0264-0.32051 0.4125-1.1161 2.4488-0.5379 1.3764-1.0569 2.6494-1.1516 2.8308l-0.17121 0.33071-2.4704 8e-3 -2.4705 8e-3 -1.1299-2.811c-0.62154-1.5465-1.1705-2.8061-1.2185-2.7992-0.0786 0.0113-6.1579 2.0005-6.2322 2.0394-0.0189 8e-3 0.29858 1.3112 0.70272 2.8938 0.40411 1.5826 0.73622 2.9406 0.73622 3.0177 0 0.0771-0.38332 0.38581-0.85036 0.68701-0.94212 0.60752-1.7732 1.2298-2.4764 1.8544-0.25588 0.22714-0.52116 0.41336-0.59055 0.41336-0.0696 0-1.2754-0.7217-2.6791-1.6043-1.4038-0.88263-2.5636-1.592-2.5768-1.5768-0.18104 0.20939-3.8317 5.3552-3.8307 5.3996 8.3e-4 0.034 1.0279 0.91113 2.2815 1.9488 1.671 1.3833 2.2776 1.9429 2.2776 2.0945 0 0.11376-0.17952 0.68432-0.39961 1.2677-0.22034 0.58337-0.52202 1.5408-0.66931 2.128-0.22299 0.88849-0.30501 1.085-0.49607 1.1752-0.12623 0.0597-1.4091 0.1818-2.8504 0.27175-1.4412 0.09-2.7462 0.18898-2.8996 0.21846l-0.27968 0.0533 0.071 3.315c0.0389 1.8225 0.0805 3.3214 0.0907 3.3326 0.0113 0.0113 1.3373 0.10545 2.9508 0.20863 1.802 0.11528 2.986 0.23055 3.0689 0.29934 0.0741 0.0616 0.18747 0.34054 0.2521 0.61814 0.18066 0.77598 0.66485 2.2695 0.98815 3.0531 0.18407 0.44629 0.2691 0.78652 0.23018 0.92323-0.034 0.12208-1.047 1.0372-2.3248 2.1043l-2.2598 1.8878 1.8386 2.5276c1.0115 1.39 1.9109 2.6025 1.998 2.693 0.14816 0.15382 0.31786 0.0608 2.6319-1.4272 1.3612-0.87542 2.5664-1.594 2.6772-1.5965 0.11074-2e-3 0.30765 0.10885 0.43702 0.24793 0.34848 0.37455 2.0246 1.6204 2.752 2.0453 0.34885 0.20371 0.66153 0.44832 0.6929 0.5433 0.0302 0.0949-0.25776 1.4634-0.64172 3.0394-0.38381 1.576-0.67355 2.8894-0.64369 2.9193 0.0302 0.0302 1.444 0.50317 3.1417 1.0532 1.6977 0.54996 3.1132 0.97251 3.1457 0.93698 0.034-0.034 0.52656-1.2663 1.0984-2.7342 0.57184-1.4679 1.0812-2.7119 1.1319-2.7638 0.13039-0.13342 4.9257-0.14098 5.0276-8e-3 0.0431 0.0559 0.55457 1.2987 1.1358 2.7598 0.58125 1.4611 1.1062 2.6753 1.1673 2.6988 0.12094 0.0465 6.0466-1.8805 6.187-2.0118 0.0488-0.0457-0.23169-1.3162-0.65159-2.9488-0.40589-1.578-0.71513-2.9287-0.68701-3.002 0.0265-0.0733 0.51772-0.44201 1.0886-0.81891 0.57086-0.37682 1.4042-0.99447 1.8504-1.3721 0.44618-0.37757 0.88286-0.68583 0.97047-0.68504 0.0877 8e-4 1.2936 0.71554 2.6792 1.5886 2.5008 1.5757 2.5192 1.5862 2.6772 1.3819 0.58084-0.75148 3.6831-5.1337 3.6831-5.2028 0-0.0469-1.006-0.91884-2.2362-1.939-1.2303-1.0201-2.2644-1.9264-2.2972-2.0118-0.034-0.0854 0.0189-0.35641 0.11225-0.60234 0.4368-1.1395 0.742-2.0765 0.96654-2.9626 0.13417-0.52989 0.30123-1.0167 0.37001-1.0807 0.0797-0.0745 1.0178-0.17349 2.5984-0.27553 1.3612-0.0881 2.706-0.1852 2.9862-0.21657l0.5079-0.0571v-6.6614l-0.5079-0.0533c-0.28006-0.0302-1.6443-0.12397-3.0315-0.20863-1.3872-0.0847-2.5711-0.1954-2.6299-0.24416-0.0586-0.0487-0.1629-0.34015-0.23017-0.64762-0.16706-0.76252-0.73444-2.5168-1.0335-3.1929-0.14211-0.32088-0.22185-0.63938-0.18897-0.7559 0.0302-0.11074 0.72544-0.75938 1.5433-1.441s1.8414-1.5365 2.2736-1.9016l0.78543-0.66535-1.9409-2.6575c-1.0678-1.4622-1.9937-2.6548-2.057-2.6496-0.0635 4e-3 -1.1495 0.67208-2.4134 1.4803-2.7194 1.739-2.7364 1.7463-2.9666 1.5492-1.0537-0.90225-1.6937-1.3894-2.6181-1.9921-0.70209-0.45782-1.0942-0.77288-1.0925-0.87995 1e-3 -0.0918 0.3239-1.4428 0.71652-3.004l0.71459-2.8386-2.9724-0.96257c-1.6351-0.52906-3.0663-0.99008-3.1811-1.0236-0.0227-8e-3 -0.0484-0.0113-0.071-8e-3zm-4.8307 9.8524c2.2348 9.5e-4 3.8705 0.31219 5.9192 1.128l1.1004 0.439 0.61614-0.26192c0.83018-0.35301 1.4573-0.30879 2.2283 0.1576 0.72 0.43555 1.6024 1.2256 1.6024 1.435 0 0.0911-0.20826 0.37153-0.46262 0.62208l-0.46257 0.45668 0.66927 0.70473c0.36813 0.38793 0.86748 0.9671 1.1103 1.2874 0.24264 0.32012 0.45426 0.59894 0.47044 0.62007 0.0151 0.0189 0.22639-0.14287 0.4665-0.36435 0.73176-0.67449 0.98831-0.53412 1.8504 1.006 0.66327 1.1848 0.66716 1.6957 0.0227 2.7677l-0.32277 0.53545 0.17726 0.57675c0.4879 1.6026 0.59644 2.4429 0.59644 4.563 0 1.7512-0.0302 2.1815-0.21845 3.0571-0.32051 1.4886-0.71411 2.6048-1.4193 4.0276-2.1018 4.2406-6.1772 7.3457-10.905 8.309-1.0948 0.22299-3.9401 0.32428-5.0138 0.17726-2.2342-0.30614-4.7973-1.2581-6.5236-2.4232l-0.44293-0.29934-0.64172 0.43899c-0.78274 0.5356-1.0549 0.63976-1.6496 0.63976-0.6796 0-1.3055-0.25096-1.8583-0.74804-0.93423-0.83997-1.4529-1.8921-1.4488-2.9311 3e-3 -0.65326 0.21808-1.1624 0.74215-1.748l0.38385-0.42912-0.49607-0.97833c-1.5051-2.9642-2.0257-6.4983-1.4508-9.8583 0.19351-1.1313 0.86268-3.2026 1.3405-4.1515 2.7553-5.4712 8.0204-8.7583 14.022-8.756zm75.937 0.0435c-3.6704 0-6.626 3.0002-6.626 6.7264v19.697c-1.3446 4.9009 42.797 4.9946 46.224 0v-19.697c0-3.7262-2.9554-6.7264-6.6259-6.7264zm-67.325 1.9231c-0.26041 8e-3 -0.53889 0.11036-0.92323 0.30311-2.2836 1.146-5.5285 4.0597-5.9783 5.3681-0.16214 0.47229-0.0265 0.92924 0.58465 1.9705 0.40513 0.69105 0.4416 0.80194 0.32467 0.96457-0.0726 0.10092-0.68497 0.62132-1.3622 1.1575-4.2591 3.3716-12.948 11.258-14.484 13.146-0.5119 0.62914-0.58129 1.2555-0.22261 2.0394 0.30614 0.66837 0.9665 1.397 1.4764 1.6299 0.48484 0.22148 0.93661 0.22904 1.3386 0.0227 1.4151-0.72991 8.3458-6.8901 13.713-12.189 1.5543-1.5346 2.6052-2.5 2.7205-2.5 0.10318 0 0.44848 0.1973 0.76769 0.43699 0.31937 0.24 0.77632 0.52838 1.0158 0.64173 0.50189 0.23773 0.74978 0.18671 1.6024-0.32466 2.0175-1.2104 5.5878-5.0213 5.5787-5.9547-2e-3 -0.22564-0.78977-1.7185-0.90357-1.7126-0.0446 2e-3 -0.93362 0.77836-1.9744 1.7244l-1.8918 1.7205-0.624-0.0491c-1.6553-0.13304-2.7903-1.3889-2.9174-3.2264l-0.0472-0.67915 1.9469-1.748c1.0711-0.96083 1.9486-1.7728 1.9488-1.8051 3.1e-4 -0.034-0.26343-0.24567-0.58662-0.47244-0.4617-0.3239-0.7677-0.47191-1.1024-0.46257zm-100.41 1.3346c10.828 0.0472 21.571 1.8178 24.583 5.1733 6.0241 6.7109 4.1025 47.357-1.0216 53.065-5.1242 5.7081-42.51 6.7985-47.634 0-5.1241-6.7985-7.7244-45.975-1.0197-53.065 3.3523-3.545 14.265-5.2207 25.092-5.1733zm0.9803 2.3288c-3.1901-0.0378-5.9368 1.3764-7.0374 3.6693l-0.46061 0.95863 0.45472 0.73622c0.80156 1.296 1.1292 2.4814 1.2166 4.4154 0.04762 1.0504 8.69e-4 2.2155-0.11225 2.8622l-0.19087 1.0906 0.68897 0.60238c0.91109 0.79691 2.7029 1.6676 3.7894 1.8425 1.2185 0.19616 1.3764 0.19616 2.5433 0.0113 2.2396-0.35717 3.9724-1.5939 4.9016-3.5 0.79521-1.6314 1.0526-2.8447 1.0571-4.998 0.0038-2.2798-0.35187-3.6421-1.3366-5.1063-1.0685-1.5885-2.6004-2.392-4.8701-2.5552-0.21619-0.0151-0.43102-0.0265-0.64369-0.0265zm-13.839 3.2559c-1.7124 0.0151-3.5956 0.47762-4.9035 1.2441-1.9443 1.1394-3.0196 3.3905-3.0059 6.2913 0.01134 2.1373 0.62578 3.8583 1.8622 5.2067 1.1702 1.2762 2.8625 2.1688 4.5846 2.4193 1.2005 0.17462 1.2067 0.17386 2.4409-4e-3 1.3308-0.19162 2.8226-0.85387 3.6969-1.6437 0.7866-0.71067 1.6633-2.3655 2.0177-3.8052 0.37266-1.5144 0.35339-3.8806-0.04346-5.1496-0.85187-2.7259-2.5654-4.127-5.5-4.496-0.36775-0.0461-0.75439-0.0661-1.1496-0.0631zm27.653 1.061c-1.8056 0.0113-4.1847 0.61576-5.3012 1.3996l-0.54724 0.38389-0.01512 1.9074c-0.01512 2.1429-0.36208 3.7083-1.1732 5.315l-0.46654 0.9272 0.60042 0.0964c1.3136 0.21014 2.1937 1.178 2.6496 2.9173 0.15534 0.59274 0.33713 1.1406 0.40354 1.2166 0.06652 0.076 0.57434 0.26684 1.1279 0.4252 1.9381 0.55397 4.4001 0.33524 6.1417-0.54724 2.3546-1.1932 3.8894-4.9087 3.4035-8.2422-0.5108-3.5048-2.5033-5.39-6.0905-5.7658-0.22904-0.0227-0.47633-0.034-0.73425-0.034zm-6.7913 11.348c-0.18709 0.0113-0.38098 0.19919-0.8838 0.68897-0.85618 0.83392-2.5671 1.7458-3.817 2.0354-2.4268 0.56232-4.5823 0.35528-7.0157-0.67321-0.21052-0.0892-0.18898 0.034 0.11414 0.65549 0.83157 1.7091 1.3783 5.8829 1.3819 10.543 0.0038 6.279-0.74491 8.6843-2.935 9.4173l-0.687 0.23018 0.01512 4.5964c0.01512 4.6298 0.23358 8.2177 0.61024 10.032 0.40055 1.9298 1.3533 3.0053 3.248 3.6673h2e-3c0.89212 0.31143 1.2931 0.35868 2.6417 0.30917 1.855-0.068 3.0051-0.44342 4.0118-1.3051 0.91801-0.7858 1.2862-1.6594 1.5532-3.6909 0.27704-2.1089 0.55332-8.2461 0.5551-12.331l2e-3 -2.9862 0.75394-0.31294c1.7615-0.72904 2.1042-1.198 2.5374-3.4882 0.39753-2.1013 0.39836-9.3661 2e-3 -12.167-0.48234-3.4092-0.90456-4.673-1.6969-5.0827-0.17235-0.0892-0.28158-0.14552-0.39368-0.13796zm-13.809 2.1201-0.73228 0.68107c-0.98835 0.9193-1.6144 1.2824-3.1161 1.8051-1.1365 0.39557-1.4918 0.44266-3.3386 0.44489-1.5453 2e-3 -2.3057-0.0707-3.0118-0.28535-1.3522-0.41163-2.9126-1.2358-3.7697-1.9921-0.84023-0.74139-1.0407-0.78187-1.6142-0.3307-1.9642 1.5451-2.7828 14.189-1.1496 17.756 0.36888 0.8061 0.46432 0.89106 1.5905 1.4114l1.1968 0.55317v3.2146c1e-3 5.6218 0.36548 10.795 0.88781 12.642 0.39201 1.3858 1.5185 2.4018 3.3248 2.998 1.0108 0.33373 3.9162 0.19502 5.0315-0.24 1.1102-0.43329 2.2466-1.4111 2.565-2.2067 0.5675-1.4184 0.90236-5.8224 0.90943-11.965 3e-3 -2.3173 0.05783-4.2931 0.12208-4.3898 0.06425-0.0968 0.40414-0.26721 0.75394-0.37799 1.0715-0.33902 1.689-0.80481 2-1.5078 1.2654-2.8608 1.1413-12.384-0.21468-16.429-0.2778-0.8287-0.47373-1.1397-0.89567-1.4213zm27.482 0.81691-0.76573 0.71456c-0.86797 0.81192-2.2658 1.5166-3.7697 1.8996-0.79661 0.20296-1.4898 0.2434-3.1004 0.18103-1.1408-0.0442-2.2362-0.13341-2.435-0.19691-0.35679-0.11414-0.35943-0.10242-0.23811 0.81891 0.20712 1.5719 0.14589 9.3724-0.08466 10.831-0.42762 2.7039-1.0819 3.8346-2.5965 4.4862l-0.77359 0.3326 2e-3 5.0434c2e-3 6.6597 0.29707 10.12 0.99016 11.602 0.50559 1.0815 1.6486 1.881 3.3405 2.3366 1.6187 0.43578 3.5908 0.25323 5.1949-0.4803 1.764-0.80674 2.31-1.677 2.6437-4.2166 0.24454-1.8621 0.54191-8.251 0.54527-11.715l2e-3 -2.1102 0.43899-0.1731c2.165-0.85792 2.3721-1.0986 2.8484-3.317 0.23584-1.0978 0.28913-2.0675 0.28724-5.1673-2e-3 -3.9177-0.16328-5.7473-0.72045-8.1536-0.38562-1.6648-0.64021-2.1502-1.2894-2.4646z" fill="#71a7cf" fill-opacity=".99608" fill-rule="evenodd" style="paint-order:normal"/>
</svg>
