<?xml version="1.0" encoding="UTF-8"?>
<svg version="1.1" width="256" height="99" viewBox="0 0 256 98.334" xmlns="http://www.w3.org/2000/svg" xmlns:cc="http://creativecommons.org/ns#" xmlns:dc="http://purl.org/dc/elements/1.1/" xmlns:rdf="http://www.w3.org/1999/02/22-rdf-syntax-ns#">
<metadata>
<rdf:RDF>
<cc:Work rdf:about="">
<dc:format>image/svg+xml</dc:format>
<dc:type rdf:resource="http://purl.org/dc/dcmitype/StillImage"/>
</cc:Work>
</rdf:RDF>
</metadata>
<path d="m63.418 0.0076064c-6.7427-0.093354-13.481 0.66561-20.184 2.6637-29.724 8.86-39.195 20.852-42.261 34.006-4.3623 18.716 6.3908 45.819 23.291 54.431 19.431 9.9014 46.913 9.9965 65.162-2.0106 11.99-7.8887 21.65-18.571 26.501-32.238 5.5722-10.918 19.5-11.65 24.147 0 4.851 13.666 14.511 24.349 26.501 32.238 18.249 12.007 45.73 11.912 65.162 2.0106 16.9-8.6115 27.653-35.714 23.291-54.431-3.066-13.154-12.537-25.146-42.261-34.006-26.813-7.9922-54.187 3.8591-80.158 10.639-3.3774 1.5713-6.0374 0.8327-9.2145 0-19.479-5.085-39.746-13.023-59.974-13.303zm0.3326 31.724c9.2115-0.12586 20.145 1.8944 33.696 7.0841-25.007 40.956-53.482 29.837-73.863 9.9426 11.27-8.7292 22.582-16.787 40.168-17.027zm128.5 0c17.586 0.24038 28.896 8.2975 40.166 17.027-20.382 19.894-48.856 31.013-73.863-9.9426 13.551-5.1897 24.486-7.2102 33.697-7.0841z" fill="#70a7cf" fill-opacity=".99608" fill-rule="evenodd" style="paint-order:normal"/>
</svg>
