<?xml version="1.0" encoding="UTF-8"?>
<svg version="1.1" viewBox="0 0 256 256" xmlns="http://www.w3.org/2000/svg" xmlns:cc="http://creativecommons.org/ns#" xmlns:dc="http://purl.org/dc/elements/1.1/" xmlns:rdf="http://www.w3.org/1999/02/22-rdf-syntax-ns#">
<metadata>
<rdf:RDF>
<cc:Work rdf:about="">
<dc:format>image/svg+xml</dc:format>
<dc:type rdf:resource="http://purl.org/dc/dcmitype/StillImage"/>
</cc:Work>
</rdf:RDF>
</metadata>
<path d="m39.676 0.0012106c-14.753-0.059-29.622 2.0235-34.19 6.4258-9.1352 8.8046-5.591 57.456 1.3907 65.898 6.9816 8.4427 57.921 7.0887 64.902 0 6.9817-7.0887 9.5988-57.564 1.3906-65.898-4.104-4.167-18.741-6.3669-33.494-6.4258zm88.865 0c-14.753-0.059-29.622 2.0235-34.189 6.4258-9.1353 8.8046-5.5911 57.456 1.3906 65.898 6.9816 8.4427 57.921 7.0887 64.902 0 6.9816-7.0887 9.6006-57.564 1.3925-65.898-4.104-4.167-18.743-6.3669-33.496-6.4258zm88.867 0c-14.753-0.059-29.624 2.0235-34.191 6.4258-9.1353 8.8046-5.5911 57.456 1.3906 65.898s57.923 7.0887 64.904 0 9.5988-57.564 1.3907-65.898c-4.1041-4.167-18.741-6.3669-33.494-6.4258zm-177.73 88.92c-14.753-0.059-29.622 2.0235-34.19 6.4258-9.1352 8.8046-5.591 57.456 1.3907 65.898 6.9816 8.4427 57.921 7.0886 64.902 0 6.9817-7.0887 9.5988-57.565 1.3906-65.898-4.104-4.1669-18.741-6.3669-33.494-6.4258zm88.865 0c-14.753-0.059-29.622 2.0235-34.189 6.4258-9.1353 8.8046-5.5911 57.456 1.3906 65.898 6.9816 8.4427 57.921 7.0886 64.902 0 6.9816-7.0887 9.6006-57.565 1.3925-65.898-4.104-4.1669-18.743-6.3669-33.496-6.4258zm88.867 0c-14.753-0.059-29.624 2.0235-34.191 6.4258-9.1353 8.8046-5.5911 57.456 1.3906 65.898 6.9817 8.4427 57.923 7.0886 64.904 0 6.9817-7.0887 9.5988-57.565 1.3907-65.898-4.1041-4.1669-18.741-6.3669-33.494-6.4258zm-177.73 88.918c-14.753-0.059-29.622 2.0254-34.19 6.4277-9.1352 8.8046-5.591 57.456 1.3907 65.898 6.9816 8.4426 57.921 7.0886 64.902 0 6.9817-7.0887 9.5988-57.565 1.3906-65.898-4.104-4.1669-18.741-6.3689-33.494-6.4277zm88.865 0c-14.753-0.059-29.622 2.0254-34.189 6.4277-9.1353 8.8046-5.5911 57.456 1.3906 65.898 6.9816 8.4426 57.921 7.0886 64.902 0 6.9816-7.0887 9.6006-57.565 1.3925-65.898-4.104-4.1669-18.743-6.3689-33.496-6.4277zm88.867 0c-14.753-0.059-29.624 2.0254-34.191 6.4277-9.1353 8.8046-5.5911 57.456 1.3906 65.898 6.9817 8.4426 57.923 7.0886 64.904 0 6.9817-7.0887 9.5988-57.565 1.3907-65.898-4.1041-4.1669-18.741-6.3689-33.494-6.4277z" fill="#72a7cf" fill-opacity=".99608" fill-rule="evenodd" style="paint-order:normal"/>
</svg>
