<?xml version="1.0" encoding="UTF-8"?>
<svg version="1.1" width="256" height="256" viewBox="0 0 255.95 255.96" xmlns="http://www.w3.org/2000/svg" xmlns:cc="http://creativecommons.org/ns#" xmlns:dc="http://purl.org/dc/elements/1.1/" xmlns:rdf="http://www.w3.org/1999/02/22-rdf-syntax-ns#">
<metadata>
<rdf:RDF>
<cc:Work rdf:about="">
<dc:format>image/svg+xml</dc:format>
<dc:type rdf:resource="http://purl.org/dc/dcmitype/StillImage"/>
</cc:Work>
</rdf:RDF>
</metadata>
<path d="m129.75 0.003971c-48.246-0.19276-96.87 6.6293-111.81 21.046-29.874 28.833-18.283 188.15 4.5487 215.8 22.831 27.647 189.41 23.213 212.24 0 22.832-23.213 31.39-188.51 4.5483-215.8-13.421-13.646-61.288-20.853-109.53-21.046zm-66.791 29.227c8.7859 0.1028 17.571 1.3826 19.689 3.5329 4.2361 4.3006 5.825 34.923 0.84435 39.979-4.9803 5.0561-35.524 5.3416-41.068 0-5.5427-5.3416-3.3936-34.857 0.84246-39.979 2.1177-2.5611 10.906-3.6356 19.691-3.5329zm69.035 0c8.7859 0.1028 17.572 1.3826 19.689 3.5329 4.2357 4.3006 5.8246 34.923 0.84435 39.979-4.9807 5.0561-35.525 5.3416-41.067 0-5.5434-5.3416-3.394-34.857 0.8417-39.979 2.1184-2.5611 10.906-3.6356 19.692-3.5329zm69.035 0c8.7863 0.1028 17.571 1.3826 19.69 3.5329 4.2361 4.3006 5.8242 34.923 0.84397 39.979-4.9799 5.0561-35.525 5.3416-41.068 0s-3.394-34.857 0.84283-39.979c2.1177-2.5611 10.905-3.6356 19.691-3.5329zm-138.07 73.093c8.7859 0.1028 17.571 1.3825 19.689 3.5328 4.2361 4.3006 5.825 34.923 0.84435 39.979-4.9803 5.0561-35.524 5.3416-41.068 0-5.5427-5.3416-3.3936-34.857 0.84246-39.979 2.1177-2.561 10.906-3.6355 19.691-3.5328zm69.035 0c8.7859 0.1028 17.572 1.3825 19.689 3.5328 4.2357 4.3006 5.8246 34.923 0.84435 39.979-4.9807 5.0561-35.525 5.3416-41.067 0-5.5434-5.3416-3.394-34.857 0.8417-39.979 2.1184-2.561 10.906-3.6355 19.692-3.5328zm69.035 0c8.7863 0.1028 17.571 1.3825 19.69 3.5328 4.2361 4.3006 5.8242 34.923 0.84397 39.979-4.9799 5.0561-35.525 5.3416-41.068 0-5.5427-5.3416-3.394-34.857 0.84283-39.979 2.1177-2.561 10.905-3.6355 19.691-3.5328zm-138.07 73.091c8.7859 0.1028 17.571 1.3826 19.689 3.5328 4.2361 4.3006 5.825 34.923 0.84435 39.979-4.9803 5.0561-35.524 5.3416-41.068 0-5.5427-5.3416-3.3936-34.857 0.84246-39.979 2.1177-2.561 10.906-3.6355 19.691-3.5328zm69.035 0c8.7859 0.1028 17.572 1.3826 19.689 3.5328 4.2357 4.3006 5.8246 34.923 0.84435 39.979-4.9807 5.0561-35.525 5.3416-41.067 0-5.5434-5.3416-3.394-34.857 0.8417-39.979 2.1184-2.561 10.906-3.6355 19.692-3.5328zm69.035 0c8.7863 0.1028 17.571 1.3826 19.69 3.5328 4.2361 4.3006 5.8242 34.923 0.84397 39.979-4.9799 5.0561-35.525 5.3416-41.068 0-5.5427-5.3416-3.394-34.857 0.84283-39.979 2.1177-2.561 10.905-3.6355 19.691-3.5328z" fill="#72a7cf" fill-opacity=".99608" fill-rule="evenodd" style="paint-order:normal"/>
</svg>
