<?xml version="1.0" encoding="UTF-8"?>
<svg version="1.1" width="256" height="256" viewBox="0 0 255.95 255.96" xmlns="http://www.w3.org/2000/svg" xmlns:cc="http://creativecommons.org/ns#" xmlns:dc="http://purl.org/dc/elements/1.1/" xmlns:rdf="http://www.w3.org/1999/02/22-rdf-syntax-ns#">
<metadata>
<rdf:RDF>
<cc:Work rdf:about="">
<dc:format>image/svg+xml</dc:format>
<dc:type rdf:resource="http://purl.org/dc/dcmitype/StillImage"/>
</cc:Work>
</rdf:RDF>
</metadata>
<path d="m129.75 0.003971c-48.246-0.19276-96.872 6.6293-111.81 21.046-29.874 28.832-18.283 188.15 4.5483 215.8 22.831 27.647 189.41 23.213 212.24 0 22.831-23.213 31.39-188.51 4.5483-215.8-13.421-13.646-61.286-20.853-109.53-21.046zm-0.0983 7.0263c45.597 0.18217 90.835 6.9938 103.52 19.89 25.369 25.793 17.28 182.01-4.2988 203.95-21.578 21.939-179.01 26.13-200.59 0-21.578-26.13-32.534-176.7-4.3003-203.95 14.117-13.625 60.074-20.072 105.67-19.89zm-66.695 22.201c-8.7859-0.1028-17.571 0.97179-19.689 3.5328-4.2365 5.1221-6.3874 34.638-0.84472 39.979 5.5431 5.3416 36.088 5.0561 41.068 0 4.9803-5.056 3.3917-35.679-0.84435-39.979-2.118-2.1503-10.903-3.4301-19.689-3.5328zm69.035 0c-8.7863-0.1028-17.571 0.97179-19.689 3.5328-4.2365 5.1221-6.387 34.638-0.84435 39.979 5.5431 5.3416 36.088 5.0561 41.068 0 4.9803-5.056 3.3921-35.679-0.84435-39.979-2.118-2.1503-10.904-3.4301-19.689-3.5328zm69.035 0c-8.7855-0.1028-17.571 0.97179-19.689 3.5328-4.2357 5.1221-6.387 34.638-0.84435 39.979 5.5431 5.3416 36.087 5.0561 41.068 0 4.9807-5.056 3.3921-35.679-0.84435-39.979-2.118-2.1503-10.904-3.4301-19.689-3.5328zm-138.07 73.091c-8.7859-0.1028-17.571 0.97376-19.689 3.5348-4.2365 5.1221-6.3874 34.638-0.84472 39.979 5.5431 5.3416 36.088 5.0561 41.068 0 4.9803-5.0561 3.3917-35.679-0.84435-39.979-2.118-2.1503-10.903-3.4321-19.689-3.5348zm69.035 0c-8.7863-0.1028-17.571 0.97376-19.689 3.5348-4.2365 5.1221-6.387 34.638-0.84435 39.979 5.5431 5.3416 36.088 5.0561 41.068 0 4.9803-5.0561 3.3921-35.679-0.84435-39.979-2.118-2.1503-10.904-3.4321-19.689-3.5348zm69.035 0c-8.7855-0.1028-17.571 0.97376-19.689 3.5348-4.2357 5.1221-6.387 34.638-0.84435 39.979 5.5431 5.3416 36.087 5.0561 41.068 0 4.9807-5.0561 3.3921-35.679-0.84435-39.979-2.118-2.1503-10.904-3.4321-19.689-3.5348zm-138.07 73.093c-8.7859-0.10281-17.571 0.97179-19.689 3.5328-4.2365 5.1221-6.3874 34.638-0.84472 39.979 5.5431 5.3416 36.088 5.0561 41.068 0 4.9803-5.0561 3.3917-35.679-0.84435-39.979-2.118-2.1503-10.903-3.4302-19.689-3.5328zm69.035 0c-8.7863-0.10281-17.571 0.97179-19.689 3.5328-4.2365 5.1221-6.387 34.638-0.84435 39.979 5.5431 5.3416 36.088 5.0561 41.068 0 4.9803-5.0561 3.3921-35.679-0.84435-39.979-2.118-2.1503-10.904-3.4302-19.689-3.5328zm69.035 0c-8.7855-0.10281-17.571 0.97179-19.689 3.5328-4.2357 5.1221-6.387 34.638-0.84435 39.979 5.5431 5.3416 36.087 5.0561 41.068 0 4.9807-5.0561 3.3921-35.679-0.84435-39.979-2.118-2.1503-10.904-3.4302-19.689-3.5328z" fill="#72a7cf" fill-opacity=".99608" fill-rule="evenodd" style="paint-order:normal"/>
</svg>
