<?xml version="1.0" encoding="UTF-8"?>
<svg version="1.1" viewBox="0 0 256.04 255.95" xmlns="http://www.w3.org/2000/svg" xmlns:cc="http://creativecommons.org/ns#" xmlns:dc="http://purl.org/dc/elements/1.1/" xmlns:rdf="http://www.w3.org/1999/02/22-rdf-syntax-ns#">
<metadata>
<rdf:RDF>
<cc:Work rdf:about="">
<dc:format>image/svg+xml</dc:format>
<dc:type rdf:resource="http://purl.org/dc/dcmitype/StillImage"/>
</cc:Work>
</rdf:RDF>
</metadata>
<path d="m118.27 0.007091c-45.863 0.23169-89.681 6.1407-100.77 19.1-23.658 27.648-24.469 186.96 4.5846 215.8 29.053 28.832 189.15 27.291 215.26 0 26.091-27.291 23.726-192.58 0.068-215.8-12.568-12.332-67.176-19.363-119.15-19.1zm13.018 28.46c30.258 0.04649 57.687 1.287 73.531 2.5885-13.746 32.329-7.852 164.29-3.3876 187.46-17.337 9.3865-128.07 10.643-143.24-3.1771-11.263-29.432-15.604-150.02 1.4823-184.28 22.837-1.94 48.082-2.625 71.616-2.5885zm-67.805 21.73v5.8366h125.67v-5.8366zm-1.338 13.226v5.8346h125.88v-5.8346zm-1.7363 13.224v5.8346h126.48v-5.8346zm-1.0311 13.224v5.8346h126.38v-5.8346zm-1.333 13.224v5.8346h126.58v-5.8346zm-0.42482 13.224v5.8346h125.87v-5.8346zm0 11.931v5.8365h125.87v-5.8365zm1.1297 13.224v5.8366h125.88v-5.8366zm1.132 13.224v5.8366h125.87v-5.8366zm1.132 13.226v5.8346h125.87v-5.8346zm1.0311 13.224v5.8346h125.98v-5.8346zm1.4385 13.224v5.8346h125.67v-5.8346z" fill="#72a7cf" fill-opacity=".99608" fill-rule="evenodd" style="paint-order:normal"/>
</svg>
