<?xml version="1.0" encoding="UTF-8"?>
<svg version="1.1" width="256" height="256" viewBox="0 0 256 256" xmlns="http://www.w3.org/2000/svg" xmlns:cc="http://creativecommons.org/ns#" xmlns:dc="http://purl.org/dc/elements/1.1/" xmlns:rdf="http://www.w3.org/1999/02/22-rdf-syntax-ns#">
<metadata>
<rdf:RDF>
<cc:Work rdf:about="">
<dc:format>image/svg+xml</dc:format>
<dc:type rdf:resource="http://purl.org/dc/dcmitype/StillImage"/>
</cc:Work>
</rdf:RDF>
</metadata>
<path d="m129.77 0.0039704c-48.254-0.19276-96.888 6.6303-111.83 21.049-29.879 28.837-18.286 188.18 4.5494 215.83 22.835 27.652 189.44 23.217 212.28 0 22.836-23.217 31.396-188.54 4.5494-215.83-13.423-13.648-61.296-20.856-109.55-21.049zm-0.0983 7.0275c45.605 0.18217 90.85 6.995 103.54 19.894 25.373 25.797 17.283 182.04-4.2988 203.98-21.582 21.942-179.04 26.134-200.62 0-21.582-26.134-32.54-176.73-4.3011-203.98 14.119-13.627 60.084-20.076 105.69-19.894zm3.0671 22.38c-23.534-0.03893-48.779 0.64857-71.616 2.5886-17.086 34.259-12.745 154.85-1.4823 184.28 15.166 13.82 125.9 12.564 143.24 3.1772-4.464-23.164-10.357-155.13 3.3884-187.46-15.844-1.3016-43.273-2.5416-73.531-2.5886zm-67.807 21.73h125.68v5.8365h-125.68zm-1.3364 13.226h125.87v5.8346h-125.87zm-1.7363 13.224h126.48v5.8346h-126.48zm-1.0311 13.224h126.38v5.8346h-126.38zm-1.333 13.224h126.58v5.8346h-126.58zm-0.42482 13.224h125.87v5.8346h-125.87zm0 11.931h125.87v5.8366h-125.87zm1.1297 13.224h125.88v5.8366h-125.88zm1.1323 13.224h125.87v5.8366h-125.87zm1.1316 13.226h125.87v5.8346h-125.87zm1.0314 13.224h125.98v5.8346h-125.98zm1.4366 13.224h125.68v5.8346h-125.68z" fill="#72a7cf" fill-opacity=".99608" fill-rule="evenodd" style="paint-order:normal"/>
</svg>
