<?xml version="1.0" encoding="UTF-8"?>
<svg version="1.1" width="256" height="246" viewBox="0 0 256 246.12" xmlns="http://www.w3.org/2000/svg" xmlns:cc="http://creativecommons.org/ns#" xmlns:dc="http://purl.org/dc/elements/1.1/" xmlns:rdf="http://www.w3.org/1999/02/22-rdf-syntax-ns#">
<metadata>
<rdf:RDF>
<cc:Work rdf:about="">
<dc:format>image/svg+xml</dc:format>
<dc:type rdf:resource="http://purl.org/dc/dcmitype/StillImage"/>
</cc:Work>
</rdf:RDF>
</metadata>
<path d="m23.828 0c-6.5068 23.236-9.0017 57.239 6.8081 80.475 0 0-30.636 41.63-30.636 70.981 0 29.351 8.1736 38.692 30.636 60.215 22.463 21.523 72.971 34.451 97.363 34.451 24.392 0 74.902-12.928 97.364-34.451 22.463-21.523 30.635-30.864 30.635-60.215 0-29.351-30.635-70.981-30.635-70.981 15.053-35.02 6.5484-59.092 6.8069-80.475-25.323 19.972-50.699 22.683-62.029 52.484-28.094-10.926-56.189-14.168-84.283 0-12.52-26.578-31.122-33.44-62.031-52.484zm59.648 100.12c14.865 1.1e-4 26.914 13.241 26.914 29.575 0 12.988-7.7356 24.447-19.038 28.248 1.474-5.3346 2.1468-11.461 2.1468-16.214 0-10.652-3.3513-28.235-11.624-28.235-8.2723 2.3e-4 -11.622 17.583-11.622 28.235 0 4.304 0.55937 9.7312 1.7571 14.681-9.4178-4.8732-15.433-15.277-15.448-26.715-3.78e-4 -16.333 12.05-29.575 26.914-29.575zm89.047 1.7474c14.864 1.2e-4 26.914 13.24 26.914 29.572-2e-3 13.246-8.0205 24.875-19.625 28.462 1.8871-5.7384 2.7337-12.827 2.7337-18.174 0-10.652-3.3517-28.235-11.624-28.235-8.2726 2.3e-4 -11.624 17.583-11.624 28.235 3.7e-4 4.9041 0.72189 11.265 2.2957 16.714-9.7134-4.743-15.976-15.323-15.984-27.003 3.8e-4 -16.332 12.05-29.572 26.914-29.572zm-90.649 27.737c4.8884-1.1e-4 6.87 10.39 6.87 16.685 0 3.8342-0.74079 9.1786-2.4208 12.778-0.94526 0.12208-1.8962 0.18898-2.8479 0.19994-2.1396-0.0113-4.2701-0.30274-6.3466-0.8685-1.4714-3.57-2.123-8.5069-2.1233-12.109 0-6.2943 1.9801-16.685 6.8685-16.685zm89.048 0c4.8881-1.1e-4 6.8682 10.39 6.8682 16.685 0 4.5846-1.0579 11.325-3.5172 14.658-0.58243 0.0431-1.166 0.0654-1.7499 0.0669-1.7854-5.6e-4 -3.5664-0.19615-5.3167-0.58446-2.202-3.4791-3.1529-9.7867-3.1529-14.141 0-6.2944 1.9801-16.685 6.8685-16.685zm-61.097 31.843c4.6242 0.16441 10.884 3.3685 15.393 3.3685 6.9948 0 18.206-7.7098 20.983 0.18066 2.0024 5.6891-6.805 9.1516-10.281 13.642-2.3369 3.0189-7.1078 4.6344-7.1078 4.6344l-0.21922 13.93 12.096 16.086 14.869 19.723-11.691 0.10091-3.1752-4.2096-15.476-19.465-15.473 19.465-3.1748 4.2096-11.694-0.10091 14.869-19.723 12.098-16.086-0.21921-13.93s-4.7713-1.6156-7.1078-4.6344c-3.476-4.4908-12.283-7.9532-10.281-13.642 0.86777-2.4658 2.5599-3.4086 4.6889-3.5388 0.29102-0.0151 0.59338-0.0227 0.90141-0.0113zm-54.018 21.344 27.499 9.3382 20.833 7.4604v4.5144l-20.833 7.4604-27.499 9.3381-0.13984-7.3426 5.8726-1.9955 18.918-6.7749h-24.791v-5.8855h24.79l-18.917-6.7748-5.8726-1.9934zm138.82 0 0.13984 7.3448-5.873 1.9934-18.917 6.7748h24.79v5.8855h-24.793l18.92 6.7749 5.873 1.9955-0.13984 7.3426-27.499-9.3381-20.833-7.4604v-4.5144l20.833-7.4604z" fill="#71a7cf" fill-opacity=".99608" fill-rule="evenodd" style="paint-order:normal"/>
</svg>
