<?xml version="1.0" encoding="UTF-8"?>
<svg version="1.1" width="256" height="246" viewBox="0 0 256 246.12" xmlns="http://www.w3.org/2000/svg" xmlns:cc="http://creativecommons.org/ns#" xmlns:dc="http://purl.org/dc/elements/1.1/" xmlns:rdf="http://www.w3.org/1999/02/22-rdf-syntax-ns#">
<metadata>
<rdf:RDF>
<cc:Work rdf:about="">
<dc:format>image/svg+xml</dc:format>
<dc:type rdf:resource="http://purl.org/dc/dcmitype/StillImage"/>
</cc:Work>
</rdf:RDF>
</metadata>
<path d="m23.828 0c-6.5068 23.236-9.0017 57.239 6.8084 80.475 0 0-30.636 41.63-30.636 70.981 0 29.351 10.327 38.692 32.79 60.215 22.462 21.523 70.818 34.451 95.21 34.451 24.392 0 74.901-12.928 97.363-34.451 22.463-21.523 30.636-30.864 30.636-60.215 0-29.351-30.636-70.981-30.636-70.981 15.053-35.021 6.548-59.092 6.8066-80.475-25.323 19.972-50.697 22.683-62.028 52.483-28.094-10.926-56.188-14.168-84.283 0-12.519-26.578-31.123-33.44-62.031-52.483zm52.254 97.91c16.623 0.20372 33.279 5.992 49.287 9.6998 2.6109 0.60722 4.7981 1.1458 7.5738 0 21.343-4.9437 43.838-13.587 65.874-7.759 24.428 6.4605 30.057 15.206 32.577 24.797 3.5853 13.647-8.459 32.339-22.348 38.618-19.977 8.9942-54.981-4.23-79.604-21.46-17.825 11.25-65.728 35.343-85.538 22.53-13.889-6.2792-22.726-26.041-19.141-39.688 2.5198-9.5915 10.303-18.337 34.73-24.797 5.5087-1.4569 11.047-2.0088 16.588-1.9408zm1.8017 26.713c-9.2001 0.27591-18.111 3.4744-29.204 10.49 14.448 12.513 34.633 19.506 52.36-6.2534-8.668-2.8986-15.999-4.4517-23.155-4.2369zm100.35 0.2521c-6.6988 0.0151-13.67 1.3168-20.956 3.9846 17.727 25.759 37.912 18.766 52.359 6.2534-9.8317-6.7242-20.239-10.265-31.404-10.238zm-66.25 32.268v2e-3c4.6242 0.16441 10.884 3.3685 15.392 3.3685 6.9944 0 18.206-7.7118 20.983 0.17877 2.0028 5.689-6.8039 9.1515-10.28 13.642-2.3369 3.0189-7.1093 8.9407-7.1093 8.9407l-0.21544 13.93 12.097 16.086 14.868 19.723-11.691 0.10091-3.1752-4.2096-15.476-19.465-15.474 19.465-3.1752 4.2096-11.693-0.10091 14.868-19.723 12.099-16.086-0.21921-13.93s-4.7724-5.9218-7.1093-8.9407c-3.476-4.4908-12.282-7.9531-10.28-13.642 0.86778-2.4659 2.5595-3.4086 4.6889-3.5389 0.29102-0.0151 0.59376-0.0227 0.90217-0.0113zm-54.019 25.651 27.499 9.3402 20.832 7.4604v4.5145l-20.832 7.4604-27.499 9.336-0.13984-7.3405 5.873-1.9955 18.918-6.777h-24.791v-5.8854h24.789l-18.916-6.7728-5.873-1.9934zm138.82 0 0.13985 7.3469-5.873 1.9934-18.918 6.7728h24.791v5.8854h-24.793l18.92 6.777 5.873 1.9955-0.13985 7.3405-27.499-9.336-20.834-7.4604v-4.5145l20.834-7.4604z" fill="#71a7cf" fill-opacity=".99608" fill-rule="evenodd" style="paint-order:normal"/>
</svg>
