<?xml version="1.0" encoding="UTF-8"?>
<svg version="1.1" width="256" height="256" viewBox="0 0 256 256" xmlns="http://www.w3.org/2000/svg" xmlns:cc="http://creativecommons.org/ns#" xmlns:dc="http://purl.org/dc/elements/1.1/" xmlns:rdf="http://www.w3.org/1999/02/22-rdf-syntax-ns#">
<metadata>
<rdf:RDF>
<cc:Work rdf:about="">
<dc:format>image/svg+xml</dc:format>
<dc:type rdf:resource="http://purl.org/dc/dcmitype/StillImage"/>
</cc:Work>
</rdf:RDF>
</metadata>
<path d="m128 0a128 128 0 0 0 -128 128 128 128 0 0 0 128 128 128 128 0 0 0 128 -128 128 128 0 0 0 -128 -128zm-5.149 12.688v55.67c-15.801-0.48952-31.553-2.6493-47.261-6.3517 3.6246-14.301 8.49-28.639 14.664-43.016a115.49 115.49 0 0 1 32.597 -6.3025zm13.975 0.25663a115.49 115.49 0 0 1 28.914 6.0365c6.2551 14.564 11.173 29.086 14.813 43.572-14.619 3.4331-29.194 5.332-43.727 5.7952zm46.062 13.464a115.49 115.49 0 0 1 31.703 25.38c-6.8935 2.752-13.778 5.1452-20.651 7.1993-2.9637-10.86-6.6433-21.719-11.052-32.579zm-109.83 0.12699c-4.317 10.647-7.9391 21.292-10.867 31.939-6.8969-2.0103-13.786-4.294-20.667-6.8776a115.49 115.49 0 0 1 31.533 -25.061zm-38.974 34.397c8.3859 3.5515 16.771 6.6556 25.157 9.2897-3.9089 17.175-6.0536 34.348-6.457 51.523h-39.97a115.49 115.49 0 0 1 21.27 -60.812zm187.77 0.01134a115.49 115.49 0 0 1 21.415 60.8h-40.062c-0.40176-17.084-2.5194-34.167-6.3889-51.251 8.3456-2.6731 16.69-5.8579 25.036-9.5496zm-149.04 13.14c16.679 4.2402 33.357 6.6234 50.035 7.097v40.563h-55.367c0.3103-15.843 2.0634-31.73 5.3314-47.66zm110.43 0.32428c3.2252 15.822 4.9581 31.6 5.2664 47.336h-51.69v-40.625c15.475-0.55884 30.949-2.7645 46.423-6.7105zm-170.47 61.314h40.062c0.4859 15.765 2.4322 31.531 5.7612 47.296-8.6964 2.7561-17.391 6.0178-26.088 9.7596a115.49 115.49 0 0 1 -19.736 -57.055zm54.804 0h55.268v36.129c-16.788 0.47694-33.575 2.885-50.363 7.1775-2.768-14.403-4.4235-28.837-4.9046-43.306zm69.242 0h51.591c-0.47751 14.363-2.1146 28.691-4.8458 42.988-15.582-3.9972-31.163-6.2341-46.745-6.797zm66.329 0h39.951a115.49 115.49 0 0 1 -19.559 57.123c-8.6982-3.9194-17.396-7.2844-26.094-10.097 3.2942-15.675 5.2195-31.351 5.7022-47.026zm-80.304 48.953v58.558a115.49 115.49 0 0 1 -33.457 -6.5311c-5.9408-15.152-10.724-30.337-14.306-45.558 15.874-3.7749 31.793-5.9748 47.762-6.4693zm13.975 0.0113c14.694 0.46791 29.433 2.4037 44.215 5.9095-3.5968 15.413-8.4313 30.787-14.448 46.13a115.49 115.49 0 0 1 -29.768 6.3982zm57.97 9.6111c7.2522 2.1972 14.518 4.7957 21.792 7.7714a115.49 115.49 0 0 1 -32.82 26.92c4.4114-11.564 8.0972-23.127 11.027-34.691zm-133.46 0.5105c2.9227 11.447 6.5766 22.894 10.95 34.341a115.49 115.49 0 0 1 -32.668 -26.975c7.2302-2.7699 14.47-5.2279 21.718-7.3661z" fill="#71a7cf" fill-opacity=".99608" fill-rule="evenodd" style="paint-order:normal"/>
</svg>
