<?xml version="1.0" encoding="UTF-8"?>
<svg version="1.1" viewBox="0 0 201.92 256" xmlns="http://www.w3.org/2000/svg" xmlns:cc="http://creativecommons.org/ns#" xmlns:dc="http://purl.org/dc/elements/1.1/" xmlns:rdf="http://www.w3.org/1999/02/22-rdf-syntax-ns#">
<metadata>
<rdf:RDF>
<cc:Work rdf:about="">
<dc:format>image/svg+xml</dc:format>
<dc:type rdf:resource="http://purl.org/dc/dcmitype/StillImage"/>
</cc:Work>
</rdf:RDF>
</metadata>
<path d="m53.472 7.4616e-4c-1.8136-0.011339-3.757 0.10847-6.0061 0.22828-6.224 0.47032-24.908 5.4176-28.516 8.66 0 0 3.8436-0.43922 6.2146-1.0545 7.3059-2.5651 22.091-6.3887 33.536-7.275-1.7312-0.40498-3.4154-0.54716-5.229-0.55869zm20.544 0.61183c-1.9478 0.003666-3.5693 0.034016-4.7588 0.098268l-10.167 0.55083 11.869 0.38755c33.045 1.0797 82.189 12.073 98.667 20.971 6.7072 3.622 10.198 6.7555 12.506 11.223 5.8577 11.341 9.7725 35.838 11.67 73.009 0.50434 9.8804 0.50751 43.074 4e-3 52.43-1.5118 28.089-4.129 47.206-8.1071 59.235-0.67396 2.0378-1.2256 3.7802-1.2256 3.8736 0 0.41254 1.2213-0.55256 2.8073-2.2191 2.0436-2.1473 3.542-4.7626 5.0244-8.7681 4.667-12.61 7.643-33.238 9.2363-64.029 0.51213-9.897 0.51005-44.085-4e-3 -54.131-2.2037-43.076-7.0723-68.975-14.188-75.478-8.0604-7.3668-30.31-12.914-60.873-15.176-9.2115-0.68156-38.825-2.0027-52.459-1.9771zm-22.856 2.8191c-0.80784 0.018898-0.55219 0.078614 0.63938 0.17915 30.208 2.5483 71.914 11.957 95.246 21.947 11.371 4.8686 20.41 11.086 23.456 16.134 6.5759 10.9 11.007 40.028 12.457 81.866 0.39908 11.521 0.20787 40.647-0.33033 50.264-1.4631 26.132-3.5888 41.711-7.6409 55.989-0.14476 0.51054 2e-3 0.45494 0.84397-0.31106 3.3871-3.0796 5.2686-6.7346 7.5543-14.676 3.2884-11.425 5.548-28.443 6.9818-52.601 0.52521-8.8486 0.72212-38.944 0.32467-49.646-1.4386-38.734-5.7759-67.272-11.865-78.065-3.3921-6.0132-14.256-11.915-31.317-17.013-23.622-7.059-63.451-13.52-90.607-14.011-3.064-0.055559-4.9346-0.074457-5.7425-0.055181zm-12.846 2.0951 27.137 4.0191c27.407 4.0593 59.079 17.879 77.849 29.236 9.2947 5.6239 14.11 9.9631 16.501 14.869 5.4035 11.082 8.9916 32.658 10.958 65.886 0.68039 11.499 0.78433 47.909 0.16744 58.77-1.6695 29.382-4.8499 50.399-9.3328 61.684-0.51636 1.2998-0.93838 2.4373-0.93838 2.5279 0 0.46564 4.0818-2.1037 5.6539-3.5588 3.2908-3.0457 5.8853-9.6213 8.0855-20.487 0.59762-2.9514 1.3659-7.3149 1.7076-9.6967 7.589-52.905 3.5849-140.92-7.4481-163.71-1.3275-2.7425-5.2737-6.7253-9.2363-9.3229-13.199-8.6523-39.743-17.605-67.456-22.75-9.1751-1.7033-23.14-4.4517-29.611-5.1916-6.1775-0.70632-16.234-1.7275-24.036-2.2761zm-1.0584 2.644c-11.53-0.034016-20.463 2.3824-24.506 8.2822h0.01134c-17.251 25.174-17.843 170.24 3.3424 196.49 21.185 26.253 118.34 59.078 137.37 34.229 19.025-24.85 17.3-175.35 0.04913-196.49-13.207-16.182-78.597-42.404-116.27-42.511zm-8.2921 28.435c0.59271-0.03817 1.2185 0.05442 1.8571 0.27137h0.0038c2.1894 0.74351 4.5527 2.9427 6.433 6.2835l42.582 75.646c3.3429 5.9391 3.8542 13.17 1.1489 16.212-0.01512 0.0151-0.03401 0.0264-0.05102 0.0412-0.51942 1.495-1.2663 2.8831-2.2486 4.0368l-43.953 51.641c-3.451 4.0537-8.3399 3.6769-10.964-0.84397-2.6235-4.521-1.9597-11.426 1.4912-15.48l42.088-49.445-39.865-70.82c-3.343-5.9392-3.8561-13.172-1.1509-16.214 0.73977-0.83569 1.6404-1.2643 2.6283-1.3279zm38.653 149.13c0.24227-0.0113 0.48941-0.0113 0.73969 0 0.57203 0.0302 1.1646 0.12511 1.7706 0.29329l61.741 17.19c4.8475 1.3495 8.7062 6.7794 8.6403 12.175-0.0605 5.3959-4.013 8.649-8.8606 7.3045l-61.741-17.19c-4.8474-1.3492-8.7043-6.7772-8.6383-12.174 0.04989-4.4262 2.7159-7.4119 6.3484-7.5996z" fill="#71a7cf" fill-opacity=".99608" fill-rule="evenodd" style="paint-order:normal"/>
</svg>
