<?xml version="1.0" encoding="UTF-8"?>
<svg version="1.1" viewBox="0 0 256 256" xmlns="http://www.w3.org/2000/svg" xmlns:cc="http://creativecommons.org/ns#" xmlns:dc="http://purl.org/dc/elements/1.1/" xmlns:rdf="http://www.w3.org/1999/02/22-rdf-syntax-ns#">
<metadata>
<rdf:RDF>
<cc:Work rdf:about="">
<dc:format>image/svg+xml</dc:format>
<dc:type rdf:resource="http://purl.org/dc/dcmitype/StillImage"/>
</cc:Work>
</rdf:RDF>
</metadata>
<path d="m128 0a128 128 0 0 0 -128 128 128 128 0 0 0 128 128 128 128 0 0 0 128 -128 128 128 0 0 0 -128 -128zm-5.1536 12.689v53.634c-14.953-0.46299-29.866-2.4197-44.75-5.7972 3.5421-13.558 8.0373-27.143 13.89-40.78a1.9048 1.9048 0 0 0 0.09071 -1.2322 115.49 115.49 0 0 1 30.77 -5.8248zm13.978 0.25965a115.49 115.49 0 0 1 27.075 5.5767 1.9048 1.9048 0 0 0 0.0983 1.2127c5.9302 13.816 10.472 27.58 14.031 41.315-13.776 3.0978-27.508 4.8076-41.205 5.252zm32.098 9.4823c4.2256 1.6118 8.4357 3.283 12.441 5.3878 4.2525 10.562 7.8537 21.117 10.734 31.671a1.9048 1.9048 0 0 0 2.3898 1.3248c6.4747-1.9349 12.946-4.2641 19.425-6.8071 1.6891 1.9623 3.2776 4.0057 4.8287 6.0787-7.5061 3.2343-15.01 6.192-22.506 8.5926a1.9048 1.9048 0 0 0 -1.2714 2.2401c8.4147 37.152 8.4348 74.268 0.624 111.43a1.9048 1.9048 0 0 0 1.2794 2.2106c7.8739 2.5461 15.754 5.6874 23.638 9.1516-1.4763 2.0779-2.9938 4.1263-4.6065 6.1004-6.8568-2.7591-13.709-5.27-20.557-7.3445a1.9048 1.9048 0 0 0 -2.3958 1.3543c-2.8531 11.259-6.4798 22.523-10.75 33.793-4.0273 2.1934-8.2686 3.9494-12.529 5.6398 5.3076-14.044 9.9264-28.115 13.22-42.23a1.9048 1.9048 0 0 0 -1.4134 -2.2834c-35.863-8.5051-71.491-7.8526-106.83 0.55117a1.9048 1.9048 0 0 0 -1.4134 2.2913c3.2796 13.937 7.8605 27.826 13.102 41.693-4.2446-1.649-8.4605-3.3725-12.478-5.5197-4.2275-11.147-7.8242-22.293-10.667-33.429a1.9048 1.9048 0 0 0 -2.3897 -1.3543c-6.8414 2.0183-13.667 4.3922-20.482 6.9646-1.6647-2.0265-3.2258-4.1351-4.7461-6.2717 7.8748-3.3104 15.741-6.346 23.606-8.8385a1.9048 1.9048 0 0 0 1.2874 -2.2106c-7.8866-37.347-7.8565-74.647 0.6398-111.98a1.9048 1.9048 0 0 0 -1.2874 -2.2402c-7.5245-2.3635-15.06-5.2339-22.595-8.3484 1.6016-2.1349 3.2441-4.2388 4.9922-6.2559 6.4698 2.3933 12.952 4.6164 19.449 6.5099a1.9048 1.9048 0 0 0 2.3661 -1.3248c2.8444-10.344 6.3932-20.695 10.557-31.047 4.0149-2.1366 8.2285-3.8347 12.468-5.4744-5.3724 13.051-10.023 26.083-13.317 39.081a1.9048 1.9048 0 0 0 1.4134 2.3229c35.013 8.2527 70.308 8.8841 105.83 0.5413a1.9048 1.9048 0 0 0 1.4134 -2.3208c-3.314-13.191-8.0195-26.411-13.474-39.655zm-98.579 5.7775c-3.6553 9.2855-6.7121 18.575-9.3386 27.866-5.9456-1.7789-11.887-3.7388-17.831-5.939a115.49 115.49 0 0 1 27.169 -21.927zm115.36 0.11641a115.49 115.49 0 0 1 27.396 21.968c-6.0064 2.3664-11.997 4.4243-17.977 6.2658-2.6419-9.4136-5.7226-18.826-9.4193-28.234zm37.118 34.244a115.49 115.49 0 0 1 20.451 59.179h-38.276c-0.38929-16.679-2.3754-33.359-6.0435-50.033 7.8928-2.5892 15.786-5.5561 23.667-9.0393a1.9048 1.9048 0 0 0 0.20031 -0.1062zm-189.62 0.03024a1.9048 1.9048 0 0 0 0.15534 0.07483c7.9115 3.3485 15.825 6.2403 23.748 8.7854-3.7031 16.759-5.7068 33.524-6.0985 50.287h-38.187a115.49 115.49 0 0 1 20.382 -59.148zm39.565 9.5827a1.9048 1.9048 0 0 0 -1.8149 1.5177c-7.2702 35.441-7.0638 70.678-0.33676 105.68a1.9048 1.9048 0 0 0 2.3445 1.4882c36.744-9.3959 73.42-9.7396 110.14-0.31861a1.9048 1.9048 0 0 0 2.3445 -1.4882c6.6462-34.793 6.8507-69.81-0.32882-105.03a1.9048 1.9048 0 0 0 -2.3346 -1.4646c-36.489 9.3045-72.931 8.9543-109.44-0.3205-0.0024-5.67e-4 -0.0038 6.42e-4 -0.0076 0a1.9048 1.9048 0 0 0 -0.04535 -0.0076 1.9048 1.9048 0 0 0 -0.51968 -0.05896zm1.6359 4.1437c16.14 3.9578 32.293 6.1873 48.449 6.6417v23.986l6.2559 6.2559 7.7224-7.7224v-22.571c14.95-0.53522 29.901-2.6051 44.844-6.2697 2.961 15.075 4.5392 30.106 4.8366 45.1h-39.008l-4.9291 4.9291 9.0472 9.0472h34.789c-0.4546 13.608-1.9414 27.189-4.439 40.746-15.043-3.7107-30.092-5.8072-45.142-6.3484v-22.25l-7.7224-7.7224-6.2559 6.2559v23.661c-16.262 0.45476-32.521 2.7083-48.768 6.7146-2.5319-13.66-4.0354-27.344-4.4902-41.057h36.994l9.0472-9.0472-4.9292-4.9291h-41.211c0.30312-15.101 1.9062-30.24 4.9075-45.421zm22.081 11.746c-1.868-0.05443-3.7178 0.60949-5.1082 2-2.781 2.781-2.6493 7.3882 0.29518 10.333l27.396 26.272-25.15 25.898c-2.9446 2.9445-3.0763 7.5555-0.29518 10.337 2.7811 2.7809 7.3919 2.6493 10.337-0.29518l25.15-25.896 26.646 25.522c2.9446 2.9448 7.5516 3.0764 10.333 0.29518 2.7811-2.7811 2.6493-7.3921-0.29519-10.337l-26.646-25.524 28.144-26.272c2.9446-2.9445 3.0763-7.5517 0.29518-10.333-2.7809-2.7811-7.388-2.6493-10.333 0.29518l-28.144 26.272-27.396-26.272c-1.4724-1.4725-3.3603-2.2419-5.2284-2.2953zm-83.701 47.652h38.276c0.46855 15.356 2.2737 30.71 5.4212 46.057-8.2422 2.6696-16.483 5.7164-24.715 9.2559a1.9048 1.9048 0 0 0 -0.15156 0.0748 115.49 115.49 0 0 1 -18.831 -55.388zm192.16 0h38.163a115.49 115.49 0 0 1 -18.704 55.433 1.9048 1.9048 0 0 0 -0.0756 -0.0393c-8.245-3.7122-16.5-6.8511-24.754-9.5827 3.1166-15.265 4.9054-30.538 5.3722-45.813zm-82.094 50.988v56.522a115.49 115.49 0 0 1 -31.618 -5.998 1.9048 1.9048 0 0 0 -0.05329 -1.2244c-5.6543-14.433-10.123-28.893-13.63-43.374 15.067-3.4548 30.164-5.4554 45.301-5.9252zm13.978 0.0151c13.877 0.44942 27.789 2.2008 41.748 5.376-3.5234 14.667-8.0284 29.316-13.756 43.933a1.9048 1.9048 0 0 0 -0.065 1.1673 115.49 115.49 0 0 1 -27.927 5.9213zm59.181 10.026c6.3152 1.9708 12.642 4.1788 18.984 6.7382a115.49 115.49 0 0 1 -28.547 23.754c3.7708-10.159 6.9098-20.324 9.5631-30.492zm-135.89 0.47641c2.6217 9.9807 5.7087 19.959 9.4036 29.931a115.49 115.49 0 0 1 -28.425 -23.484c6.3376-2.4004 12.679-4.5272 19.022-6.4469z" fill="#71a7cf" fill-rule="evenodd" style="paint-order:normal"/>
</svg>
