<?xml version="1.0" encoding="UTF-8"?>
<svg version="1.1" width="256" height="256" viewBox="0 0 256 256" xmlns="http://www.w3.org/2000/svg" xmlns:cc="http://creativecommons.org/ns#" xmlns:dc="http://purl.org/dc/elements/1.1/" xmlns:rdf="http://www.w3.org/1999/02/22-rdf-syntax-ns#">
<metadata>
<rdf:RDF>
<cc:Work rdf:about="">
<dc:format>image/svg+xml</dc:format>
<dc:type rdf:resource="http://purl.org/dc/dcmitype/StillImage"/>
</cc:Work>
</rdf:RDF>
</metadata>
<path d="m129.77 0.0039704c-48.254-0.19276-96.889 6.6303-111.83 21.049-29.879 28.837-18.286 188.18 4.5494 215.83 22.835 27.652 189.44 23.217 212.28 0 22.836-23.217 31.396-188.54 4.549-215.83-13.423-13.648-61.296-20.856-109.55-21.049zm-0.0983 7.0275c45.604 0.18217 90.85 6.995 103.54 19.894 25.373 25.797 17.283 182.04-4.2992 203.98-21.582 21.942-179.04 26.134-200.62 0-21.581-26.134-32.54-176.73-4.3011-203.98 14.12-13.627 60.084-20.076 105.69-19.894zm-8.0511 15.478c-0.83377-0.0038-1.6653 3e-3 -2.496 0.03402-22.099 0.78399-48.511 15.856-57.352 37.527-4.8605 11.915 3.7852 36.271 3.7852 36.271l26.736 2.3169s-10.726-19.24-4.9901-30.618c5.7967-11.498 19.659-16.067 31.821-15.984 15.971 0.10658 34.178 7.5648 42.438 21.571 5.2343 8.8741 5.6802 22.855 0 31.923-10.389 16.584-51.616 24.016-51.616 24.016l0.57449 23.464 0.28347 37.925 32.623 5.1633 0.93165-44.015s36.262-11.535 44.733-27.319c9.8544-18.359 8.202-44.537-1.7201-61.96-12.975-22.782-39.909-40.111-65.752-40.315zm-10.73 177.47 0.20409 30.116 31.541 3.3917 0.61228-28.923z" fill="#72a7cf" fill-opacity=".99608" fill-rule="evenodd" style="paint-order:normal"/>
</svg>
