<?xml version="1.0" encoding="UTF-8"?>
<svg version="1.1" width="256" height="256" viewBox="0 0 256 256" xmlns="http://www.w3.org/2000/svg" xmlns:cc="http://creativecommons.org/ns#" xmlns:dc="http://purl.org/dc/elements/1.1/" xmlns:rdf="http://www.w3.org/1999/02/22-rdf-syntax-ns#">
<metadata>
<rdf:RDF>
<cc:Work rdf:about="">
<dc:format>image/svg+xml</dc:format>
<dc:type rdf:resource="http://purl.org/dc/dcmitype/StillImage"/>
</cc:Work>
</rdf:RDF>
</metadata>
<path d="m118.25 0.0070906c-45.856 0.23169-89.669 6.143-100.76 19.105-23.653 27.652-24.462 187 4.5857 215.83 29.048 28.837 189.12 27.296 215.22 0 26.087-27.296 23.722-192.62 0.068-215.83-12.566-12.334-67.163-19.367-119.13-19.105zm3.2001 22.382c25.838 0.2041 52.768 17.529 65.74 40.308 9.9209 17.42 11.573 43.594 1.7201 61.95-8.4699 15.781-44.726 27.314-44.726 27.314l-0.9309 44.008-32.618-5.1624-0.27969-37.919-0.57486-23.46s41.22-7.4298 51.607-24.012c5.6787-9.0663 5.2331-23.045 0-31.918-8.2598-14.004-26.463-21.46-42.432-21.567-12.16-0.08277-26.019 4.485-31.815 15.981-5.7351 11.376 4.9894 30.613 4.9894 30.613l-26.731-2.3165s-8.6449-24.352-3.7852-36.265c8.8396-21.667 35.248-36.737 57.343-37.521 0.83075-0.03024 1.6622-0.04006 2.4956-0.03402zm-10.729 177.44 32.355 4.5838-0.61228 28.918-31.536-3.3911z" fill="#72a7cf" fill-opacity=".99608" fill-rule="evenodd" style="paint-order:normal"/>
</svg>
