<?xml version="1.0" encoding="UTF-8"?>
<svg version="1.1" viewBox="0 0 256 256" xmlns="http://www.w3.org/2000/svg" xmlns:cc="http://creativecommons.org/ns#" xmlns:dc="http://purl.org/dc/elements/1.1/" xmlns:rdf="http://www.w3.org/1999/02/22-rdf-syntax-ns#">
<metadata>
<rdf:RDF>
<cc:Work rdf:about="">
<dc:format>image/svg+xml</dc:format>
<dc:type rdf:resource="http://purl.org/dc/dcmitype/StillImage"/>
</cc:Work>
</rdf:RDF>
</metadata>
<path d="m118.24 0.0070207c-45.851 0.23282-89.656 6.1443-100.74 19.105-23.653 27.652-24.463 187 4.5857 215.83 29.048 28.837 189.12 27.296 215.22 0 26.087-27.296 23.723-192.62 0.068-215.83-12.564-12.333-67.152-19.366-119.12-19.105zm11.734 18.402c12.973 0.21392 24.484 13.239 23.62 27.202 0.54614 14.05-9.7368 26.518-23.069 27.037-12.232 1.3384-23.367-8.9969-25.378-21.565-3.3116-14.485 6.477-30.95 20.766-32.315 1.3606-0.26494 2.7186-0.38048 4.06-0.35868zm8.1759 59.003c0.58923-0.0076 1.1429 0.0025 1.6611 0.03024 24.146 2.1534 19.911 26.959 15.887 36.387-5.9543 13.864-15.781 46.413-13.203 68.464 2.5792 22.051 11.806 7.3855 28.206 23.098 16.4 15.713-39.884 34.639-58.059 31.943-23.096-3.6957-16.275-27.911-12.443-37.003 5.8753-13.887 15.494-46.847 12.62-68.427-2.8751-21.58-9.7799-6.8393-27.129-22.049-16.807-14.735 34.198-32.206 52.459-32.445z" fill="#72a7cf" fill-opacity=".99608" fill-rule="evenodd" style="paint-order:normal"/>
</svg>
