<?xml version="1.0" encoding="UTF-8"?>
<svg version="1.1" width="256" height="256" viewBox="0 0 255.95 255.96" xmlns="http://www.w3.org/2000/svg" xmlns:cc="http://creativecommons.org/ns#" xmlns:dc="http://purl.org/dc/elements/1.1/" xmlns:rdf="http://www.w3.org/1999/02/22-rdf-syntax-ns#">
<metadata>
<rdf:RDF>
<cc:Work rdf:about="">
<dc:format>image/svg+xml</dc:format>
<dc:type rdf:resource="http://purl.org/dc/dcmitype/StillImage"/>
</cc:Work>
</rdf:RDF>
</metadata>
<path d="m129.75 0.003971c-48.246-0.19276-96.872 6.6292-111.81 21.046-29.874 28.832-18.283 188.15 4.5479 215.8 22.832 27.648 189.41 23.213 212.24 0 22.831-23.213 31.39-188.51 4.5483-215.8-13.421-13.646-61.286-20.853-109.53-21.046zm-0.0983 7.0263c45.597 0.18217 90.835 6.9938 103.52 19.89 25.369 25.793 17.28 182.01-4.2985 203.95-21.578 21.939-179.01 26.13-200.59 0-21.578-26.13-32.534-176.7-4.3003-203.95 14.117-13.625 60.074-20.072 105.67-19.89zm0.2948 11.356c-1.3421-0.02268-2.6997 0.09071-4.0603 0.35603-14.289 1.3653-24.077 17.832-20.766 32.317 2.0103 12.568 13.147 22.902 25.379 21.563 13.332-0.51897 23.616-12.985 23.069-27.035 0.86362-13.963-10.649-26.988-23.622-27.202zm8.1755 59.001c-18.262 0.23962-69.264 17.712-52.457 32.447 17.349 15.21 24.252 0.46938 27.126 22.049 2.8743 21.58-6.7438 54.538-12.619 68.425-3.8324 9.092-10.654 33.308 12.442 37.003 18.175 2.6956 74.461-16.228 58.061-31.941-16.4-15.713-25.628-1.0492-28.208-23.1-2.578-22.051 7.2484-54.598 13.203-68.462 4.0237-9.4285 8.2617-34.236-15.885-36.389-0.5178-0.03024-1.0741-0.03931-1.6634-0.03024z" fill="#72a7cf" fill-opacity=".99608" fill-rule="evenodd" style="paint-order:normal"/>
</svg>
