<?xml version="1.0" encoding="UTF-8"?>
<svg version="1.1" width="256" height="243" viewBox="0 0 256 242.48" xmlns="http://www.w3.org/2000/svg" xmlns:cc="http://creativecommons.org/ns#" xmlns:dc="http://purl.org/dc/elements/1.1/" xmlns:rdf="http://www.w3.org/1999/02/22-rdf-syntax-ns#">
<metadata>
<rdf:RDF>
<cc:Work rdf:about="">
<dc:format>image/svg+xml</dc:format>
<dc:type rdf:resource="http://purl.org/dc/dcmitype/StillImage"/>
</cc:Work>
</rdf:RDF>
</metadata>
<g transform="matrix(4.0194 0 0 4.1324 -1524.5 -1570.2)">
<path transform="scale(.26458)" d="m1555.3 1436.1c-29.863 0.1319-57.856 3.0736-70.51 8.0469-5.3597 2.1065-7.7054 3.9831-10.477 8.3847-5.6351 8.9505-8.4942 28.147-7.2578 48.701 1.5436 25.659 7.5271 47.732 15.004 55.34 1.5649 1.5922 5.2203 3.4541 8.9141 4.539 10.522 3.0905 28.517 5.0995 50.672 5.6582 38.026 0.9589 78.445-2.8401 89.496-8.4101 2.4019-1.2107 3.4237-2.0642 4.9062-4.1075 5.781-7.9677 10.179-25.918 11.752-47.967 0.4057-5.6855 0.4-19.653-0.012-25.119-1.2542-16.752-4.9625-28.734-10.4-33.598-4.9117-4.3929-19.58-7.8718-41.471-9.836-13.082-1.1737-27.043-1.6928-40.617-1.6328zm2.0058 6.9453c19.662 0.061 63.235 1.1983 69.934 10.045 16.817 12.357 11.455 87.199-2.8496 97.709-14.304 10.51-118.67 12.518-132.98 0-14.304-12.518-21.566-84.654-2.8496-97.709 11.712-8.7104 33.486-8.7928 48.678-9.5859 7.3358-0.3545 14.666-0.5134 10.623-0.4062-1.0108 0.026 2.8873-0.073 9.4414-0.053zm78.978 1.9004c-0.1118 0.046 0.4806 0.2525 1 0.6426 6.1475 4.6156 9.6967 14.022 11.711 31.045 0.7292 6.162 0.7265 27.445 0 34.705-0.98 9.7389-2.1572 17.088-3.9121 24.42-2.5586 10.688-6.6408 19.389-10.375 22.113-0.6904 0.5038-1.6954 0.968-1.6954 1.0312 0.01 0.2249 1.3053-0.2918 2.5196-1 1.9503-1.1375 3.7376-2.5276 5.3379-5.0625 5.1289-8.1236 8.9567-23.972 10.67-44.182 0.662-7.8044 0.6581-22.872-0.01-29.658-1.2796-13.052-3.7035-22.304-7.2832-27.811-1.6221-2.4949-3.4305-3.8609-5.6816-5.2324-1.1764-0.7167-2.0933-1.0876-2.2793-1.0117zm-72.08 3.9922c-0.2295 0.04-0.4664 0.5997-1.6211 3.5664-0.7806 2.0053-1.5307 3.8628-1.668 4.127l-0.25 0.4804-3.5859 0.012-3.586 0.01-1.6387-4.0957c-0.9019-2.253-1.6979-4.0881-1.7675-4.0781-0.1142 0.015-8.9351 2.9141-9.043 2.9707-0.023 0.011 0.4352 1.9092 1.0215 4.2148 0.5864 2.3057 1.0664 4.2843 1.0664 4.3965 0 0.1123-0.5547 0.5632-1.2324 1.002-1.3671 0.8851-2.5754 1.7932-3.5957 2.7031-0.3712 0.3307-0.7567 0.6015-0.8575 0.6016-0.1009 0-1.8497-1.052-3.8867-2.3379s-3.7191-2.3191-3.7383-2.2969c-0.2626 0.3054-5.562 7.8025-5.5605 7.8672 0 0.049 1.4915 1.328 3.3105 2.8398 2.4248 2.0153 3.3067 2.8279 3.3067 3.0488 0 0.1656-0.2604 0.9978-0.5801 1.8477s-0.757 2.2442-0.9707 3.0996c-0.3231 1.2945-0.4435 1.5816-0.7207 1.7129-0.1833 0.087-2.0434 0.2654-4.1348 0.3965-2.0913 0.1311-3.9863 0.2733-4.209 0.3164l-0.4042 0.08 0.1035 4.8281c0.057 2.6552 0.1141 4.841 0.1289 4.8574 0.011 0.015 1.9418 0.1526 4.2832 0.3027 2.6147 0.1682 4.3329 0.3356 4.4531 0.4356 0.1077 0.09 0.2735 0.4959 0.3672 0.9004 0.2619 1.1305 0.9624 3.3076 1.4316 4.4492 0.2672 0.6502 0.3903 1.1446 0.334 1.3438-0.05 0.178-1.5169 1.5117-3.3711 3.0664l-3.2812 2.75 2.6679 3.6836c1.4677 2.025 2.772 3.7899 2.8985 3.9218 0.2147 0.2245 0.4647 0.088 3.8222-2.08 1.9752-1.2754 3.7221-2.3206 3.8829-2.3243 0.161 0 0.445 0.1584 0.6328 0.3614 0.5059 0.5458 2.9406 2.3614 3.9961 2.9804 0.5062 0.2967 0.9563 0.6527 1.0019 0.791 0.046 0.1384-0.3725 2.1298-0.9297 4.4258-0.5569 2.2961-0.9769 4.2104-0.9336 4.2539 0.043 0.043 2.0951 0.7358 4.5586 1.5371s4.5173 1.4131 4.5645 1.3614c0.047-0.052 0.7639-1.8438 1.5937-3.9825 0.8298-2.1383 1.5691-3.9498 1.6426-4.0253 0.1894-0.1939 7.147-0.2051 7.2949-0.012 0.062 0.082 0.8051 1.8909 1.6485 4.0196 0.8434 2.1286 1.6046 3.8974 1.6933 3.9316 0.1754 0.068 8.7768-2.7384 8.9805-2.9297 0.071-0.066-0.338-1.9187-0.9473-4.2968-0.5889-2.2989-1.0368-4.2663-0.9961-4.3731 0.041-0.107 0.7518-0.6443 1.5801-1.1934 0.8284-0.549 2.0362-1.448 2.6836-1.998 0.6474-0.5501 1.2811-0.999 1.4082-0.9981 0.1274 0 1.8761 1.0425 3.8867 2.3145 3.6289 2.2957 3.6576 2.3094 3.8867 2.0117 0.8428-1.0948 5.3438-7.4775 5.3438-7.5781 0-0.068-1.4608-1.34-3.2461-2.8262-1.7852-1.4862-3.2844-2.8051-3.332-2.9297-0.048-0.1243 0.026-0.5187 0.1621-0.8769 0.6338-1.6601 1.0784-3.0274 1.4043-4.3184 0.1946-0.7719 0.4354-1.479 0.5351-1.5722 0.1157-0.1085 1.478-0.2536 3.7715-0.4024 1.9752-0.1285 3.9257-0.2703 4.332-0.3164l0.7383-0.084v-9.7031l-0.7383-0.08c-0.4063-0.043-2.3874-0.1791-4.4003-0.3027-2.0129-0.1232-3.7292-0.2821-3.8145-0.3535-0.085-0.071-0.2341-0.4953-0.332-0.9434-0.2427-1.1109-1.0681-3.6672-1.502-4.6523-0.206-0.4677-0.321-0.9318-0.2734-1.1016 0.045-0.1618 1.0534-1.1066 2.2402-2.0996s2.6717-2.2396 3.2988-2.7715l1.1387-0.9668-2.8164-3.873c-1.5494-2.1302-2.8924-3.867-2.9844-3.8594-0.092 0.01-1.6679 0.9768-3.5019 2.1543-3.946 2.5334-3.9707 2.5469-4.3047 2.2598-1.5291-1.3145-2.4574-2.0242-3.7988-2.9024-1.0188-0.6669-1.5864-1.1272-1.584-1.2832 0-0.1338 0.4694-2.1045 1.039-4.3789l1.0352-4.1348-4.3145-1.4004c-2.3722-0.7707-4.4486-1.4413-4.6152-1.4902-0.038-0.011-0.069-0.016-0.1015-0.012zm-7.0118 14.354c3.243 0 5.6169 0.4559 8.5899 1.6445l1.5957 0.6387 0.8965-0.3828c1.2047-0.514 2.1135-0.4491 3.2324 0.2305 1.0447 0.6345 2.3262 1.7866 2.3262 2.0918 0 0.1326-0.3027 0.5411-0.6719 0.9062l-0.6719 0.6641 0.9707 1.0273c0.5341 0.5652 1.2591 1.4084 1.6113 1.875 0.3523 0.4666 0.6601 0.8735 0.6836 0.9043 0.023 0.03 0.3277-0.2068 0.6758-0.5293 1.0619-0.9827 1.4346-0.7807 2.6856 1.4629 0.9625 1.7262 0.9694 2.4714 0.031 4.0332l-0.4687 0.7793 0.2558 0.8399c0.708 2.3348 0.8672 3.5617 0.8672 6.6503 0 2.5513-0.045 3.1775-0.3183 4.4532-0.465 2.1686-1.0353 3.7943-2.0586 5.8672-3.0499 6.178-8.9631 10.702-15.824 12.105-1.5886 0.3247-5.7174 0.4705-7.2754 0.2559-3.2418-0.4458-6.962-1.8319-9.4667-3.5293l-0.6426-0.4375-0.9297 0.6406c-1.1358 0.7803-1.5315 0.9336-2.3945 0.9336-0.9862 0-1.8933-0.368-2.6954-1.0918-1.3557-1.2238-2.1114-2.7539-2.1054-4.2676 0-0.9517 0.3178-1.6937 1.0781-2.5468l0.5566-0.627-0.7187-1.4238c-2.184-4.3185-2.9378-9.4682-2.1035-14.363 0.2808-1.6482 1.2499-4.6645 1.9433-6.0469 3.9981-7.9709 11.638-12.761 20.346-12.758zm12.498 2.8633c-0.3771 0.012-0.781 0.1628-1.3379 0.4434-3.3136 1.6693-8.0231 5.914-8.6758 7.8203-0.2355 0.688-0.04 1.356 0.8477 2.873 0.5878 1.0068 0.6421 1.1655 0.4726 1.4024-0.105 0.1466-0.9957 0.9064-1.9785 1.6875-6.1802 4.912-18.789 16.402-21.018 19.152-0.7428 0.9166-0.8428 1.8287-0.3222 2.9707 0.444 0.9737 1.4027 2.0357 2.1425 2.375 0.7036 0.3228 1.3601 0.3346 1.9434 0.031 2.0534-1.063 12.109-10.04 19.896-17.76 2.2555-2.2358 3.7799-3.6406 3.9473-3.6406 0.1493 0 0.65 0.2856 1.1132 0.6347 0.4633 0.3493 1.1272 0.7704 1.4746 0.9356 0.7283 0.3458 1.089 0.2727 2.3262-0.4727 2.9276-1.7634 8.1089-7.3159 8.0957-8.6758 0-0.3288-1.1474-2.5027-1.3125-2.4941-0.064 0-1.353 1.1334-2.8633 2.5117l-2.7461 2.5078-0.9043-0.074c-2.4019-0.1935-4.0519-2.0242-4.2363-4.7012l-0.068-0.9882 2.8261-2.5469c1.5544-1.3998 2.8279-2.5819 2.8282-2.6289 4e-4 -0.047-0.3844-0.3573-0.8536-0.6875-0.669-0.4712-1.1108-0.6888-1.5957-0.6758zm-67.404 62.877v18.85h104.5v-18.85zm5.3281 2.4571h93.84v13.934h-93.84zm1.2285 0.5488v12.838h56.141v-12.838zm5.5391 36.127c-17.232 1.4861-30.755 4.139-35.572 8.1191-7.3852 2.0249-57.412 38.524-42.551 61.922 21.955 14.458 142.94 13.685 162.67 0 19.727-13.685 52.645-50.282 35.865-61.922-5.0861-3.5283-19.879-6.1906-38.494-7.8027zm-29.357 9.8007c0.6402-0.01 1.3086-0.01 1.9785 0 1.3397 0.022 2.6769 0.088 3.7773 0.1836 0.5503 0.048 1.04 0.1011 1.4532 0.168 0.4132 0.067 0.7234 0.1236 1.0605 0.2812 0.2881 0.1347 0.5651 0.3577 0.7012 0.6465 0.1357 0.2889 0.1171 0.5949 0.047 0.8398-0.1409 0.4901-0.455 0.8475-0.8281 1.2032-0.7455 0.7117-1.7689 1.3527-2.6347 1.7343-0.6856 0.3021-1.5091 0.3573-2.6426 0.4356-1.1336 0.079-2.4892 0.109-3.8555 0.098-1.3663-0.013-2.7374-0.069-3.8906-0.1718-1.1533-0.1026-2.0257-0.1955-2.7149-0.502a0.8417 0.74713 0.64408 0 1 -0.2636 -0.1894c-0.2493-0.2631-0.4007-0.6106-0.4082-0.9375-0.01-0.3273 0.1136-0.6158 0.2636-0.8633 0.3005-0.4948 0.7571-0.8732 1.2422-1.2149 0.4852-0.3415 1.0011-0.628 1.4512-0.8476 0.2251-0.1104 0.4354-0.2032 0.6172-0.2754 0.087-0.034 0.176-0.053 0.2539-0.076 0.3598-0.1893 0.6948-0.2385 1.1172-0.3027 0.4224-0.064 0.9148-0.1105 1.4687-0.1446 0.554-0.036 1.1664-0.056 1.8067-0.066zm18.109 0.2032c0.6403-0.01 1.3087-0.01 1.9786 0 1.3397 0.022 2.6846 0.088 3.7851 0.1836 0.5503 0.048 1.04 0.1011 1.4531 0.168 0.4132 0.067 0.7215 0.1236 1.0586 0.2812 0.2881 0.1348 0.5597 0.3597 0.6953 0.6485 0.1354 0.2889 0.1231 0.5929 0.053 0.8379-0.141 0.49-0.461 0.8474-0.834 1.2031-0.7455 0.7117-1.7689 1.3527-2.6348 1.7344-0.6855 0.3021-1.5031 0.3573-2.6367 0.4355-1.1335 0.079-2.495 0.109-3.8613 0.098-1.3664-0.013-2.7374-0.07-3.8906-0.1719-1.1534-0.1026-2.0199-0.1954-2.709-0.502a0.8417 0.74713 0.64408 0 1 -0.2696 -0.1894c-0.2498-0.263-0.3947-0.6106-0.4023-0.9375 0-0.3273 0.1078-0.6142 0.2578-0.8613 0.3006-0.4949 0.757-0.8732 1.2422-1.2149 0.4852-0.3415 1.0069-0.63 1.457-0.8496 0.2251-0.1104 0.4296-0.2032 0.6114-0.2754 0.089-0.035 0.1807-0.048 0.2597-0.074 0.3599-0.1894 0.6889-0.2389 1.1114-0.3027 0.4224-0.064 0.9148-0.1125 1.4687-0.1465 0.554-0.036 1.1664-0.056 1.8066-0.066zm18.115 0.2031c0.6402-0.01 1.3106-0.01 1.9804 0 1.3398 0.022 2.6769 0.086 3.7774 0.1816 0.5502 0.048 1.04 0.1011 1.4531 0.168 0.4132 0.067 0.7215 0.1256 1.0586 0.2832 0.2881 0.1347 0.56 0.3577 0.6953 0.6465 0.1353 0.2889 0.1231 0.593 0.053 0.8379-0.141 0.4901-0.461 0.8494-0.834 1.2051-0.7455 0.7117-1.7688 1.3527-2.6348 1.7343-0.6855 0.3022-1.5051 0.3573-2.6387 0.4356-1.1336 0.079-2.493 0.109-3.8593 0.098-1.3663-0.013-2.7374-0.071-3.8907-0.1738-1.1532-0.1025-2.0198-0.1954-2.709-0.5019a0.8417 0.74713 0.64408 0 1 -0.2636 -0.1875c-0.2492-0.2631-0.3987-0.6126-0.4063-0.9395-0.01-0.3273 0.1058-0.6138 0.2559-0.8613 0.3005-0.4948 0.757-0.8732 1.2422-1.2149 0.4852-0.3415 1.0069-0.63 1.457-0.8496 0.225-0.11 0.4295-0.2012 0.6113-0.2734 0.089-0.035 0.1808-0.05 0.2598-0.076 0.3598-0.1893 0.6888-0.2385 1.1113-0.3027 0.4225-0.064 0.9226-0.1105 1.4766-0.1446 0.554-0.036 1.1644-0.058 1.8047-0.068zm18.109 0.2051c0.6402-0.01 1.3105-0.01 1.9804 0 1.3398 0.022 2.6749 0.086 3.7754 0.1817 0.5502 0.048 1.0419 0.101 1.4551 0.1679 0.4132 0.067 0.7293 0.1256 1.0664 0.2832 0.2881 0.1347 0.5577 0.3578 0.6934 0.6465 0.1353 0.2889 0.1249 0.5946 0.055 0.8399-0.1409 0.49-0.4632 0.8474-0.8359 1.2031-0.7455 0.7117-1.7669 1.3527-2.6328 1.7344-0.6855 0.302-1.511 0.3573-2.6445 0.4355-1.1336 0.079-2.4891 0.109-3.8555 0.098-1.3663-0.013-2.7374-0.072-3.8906-0.1739-1.1533-0.1025-2.0199-0.1934-2.709-0.5a0.8417 0.74713 0.64408 0 1 -0.2696 -0.1894c-0.2492-0.263-0.3986-0.6106-0.4062-0.9375-0.01-0.3273 0.1117-0.6161 0.2617-0.8633 0.3006-0.4949 0.7551-0.8732 1.2403-1.2148s1.003-0.6281 1.4531-0.8477c0.2251-0.1104 0.4354-0.2032 0.6172-0.2754 0.1319-0.052 0.241-0.091 0.3711-0.125 0.3182-0.1455 0.621-0.1964 1-0.2539 0.4224-0.064 0.9167-0.1105 1.4707-0.1445 0.554-0.036 1.1644-0.056 1.8047-0.066zm-4.2754 0.4648c-0.036 0.015-0.071 0.026-0.1094 0.049l0.2656-0.086c-0.063 0.012-0.1064 0.022-0.1562 0.037zm22.389-0.2617c0.6419-0.01 1.3126-0.01 1.9825 0 1.3397 0.022 2.6749 0.086 3.7753 0.1816 0.5503 0.048 1.0419 0.1011 1.4551 0.168 0.4133 0.067 0.7234 0.1236 1.0606 0.2813 0.2881 0.1347 0.558 0.3577 0.6933 0.6464 0.1353 0.2889 0.125 0.595 0.055 0.8399-0.141 0.4901-0.4629 0.8475-0.8359 1.2031-0.7454 0.7118-1.767 1.3528-2.6328 1.7344-0.6855 0.3021-1.5052 0.3573-2.6387 0.4355-1.1336 0.079-2.495 0.109-3.8613 0.098-1.3664-0.013-2.7374-0.069-3.8907-0.1719-1.1532-0.1025-2.0197-0.1954-2.7089-0.5019a0.8417 0.74713 0.64408 0 1 -0.2696 -0.1895c-0.25-0.263-0.3928-0.6106-0.4004-0.9375-0.01-0.3272 0.1058-0.6138 0.2559-0.8613 0.3006-0.4948 0.757-0.8751 1.2422-1.2168 0.4852-0.3415 1.0088-0.6281 1.459-0.8477 0.225-0.11 0.4295-0.2032 0.6113-0.2754 0.089-0.035 0.1808-0.048 0.2598-0.074 0.3598-0.1893 0.6869-0.2385 1.1093-0.3027 0.4225-0.064 0.9168-0.1125 1.4707-0.1465 0.554-0.036 1.1667-0.056 1.8086-0.066zm18.113 0.2031c0.6396-0.01 1.3093-0.01 1.9785 0 1.3391 0.022 2.6735 0.086 3.7734 0.1817 0.5503 0.048 1.0419 0.101 1.4551 0.1679 0.4131 0.067 0.7234 0.1256 1.0605 0.2832 0.2882 0.1348 0.5597 0.3578 0.6954 0.6465 0.1353 0.2889 0.123 0.593 0.053 0.8379-0.141 0.4901-0.4629 0.8494-0.8359 1.2051-0.7455 0.7117-1.767 1.3527-2.6329 1.7344-0.6855 0.3021-1.505 0.3573-2.6386 0.4355-1.1335 0.079-2.4931 0.109-3.8594 0.098-1.3664-0.013-2.7316-0.071-3.8848-0.1739-1.1533-0.1025-2.0257-0.1954-2.7148-0.5019a0.8417 0.74713 0.64408 0 1 -0.2656 -0.1875c-0.2492-0.263-0.3987-0.6125-0.4063-0.9395-0.01-0.3272 0.1058-0.6141 0.2559-0.8613 0.3005-0.4948 0.7628-0.8732 1.248-1.2148s1.003-0.6301 1.4531-0.8496c0.2251-0.1104 0.4354-0.2013 0.6172-0.2735 0.087-0.034 0.1761-0.053 0.2539-0.076 0.3599-0.1893 0.6889-0.2388 1.1114-0.3027 0.4224-0.064 0.9225-0.1105 1.4765-0.1445 0.554-0.036 1.1645-0.059 1.8047-0.068zm18.109 0.2031c0.6396-0.01 1.3093-0.01 1.9785 0 1.339 0.022 2.6735 0.086 3.7734 0.1817 0.5503 0.048 1.0419 0.1011 1.4551 0.168 0.4132 0.067 0.7273 0.1256 1.0644 0.2832 0.2881 0.1347 0.5616 0.3577 0.6973 0.6464 0.1353 0.289 0.123 0.5946 0.053 0.8399-0.141 0.49-0.4629 0.8475-0.8359 1.2031-0.7455 0.7117-1.767 1.3528-2.6328 1.7344-0.6855 0.302-1.511 0.3573-2.6446 0.4355-1.1335 0.079-2.4871 0.109-3.8535 0.098-1.3663-0.013-2.7373-0.072-3.8906-0.1738-1.1532-0.1025-2.0198-0.1935-2.709-0.5a0.8417 0.74713 0.64408 0 1 -0.2715 -0.1895c-0.2492-0.263-0.3908-0.6106-0.3984-0.9375-0.01-0.3272 0.1058-0.6157 0.2559-0.8633 0.3005-0.4948 0.755-0.8731 1.2402-1.2148 0.4852-0.3416 1.0029-0.6281 1.4531-0.8477 0.225-0.1103 0.4354-0.2032 0.6172-0.2754 0.1315-0.052 0.2411-0.091 0.3711-0.125 0.3181-0.1455 0.6211-0.1964 1-0.2539 0.4224-0.064 0.9167-0.1105 1.4707-0.1445 0.554-0.036 1.1644-0.058 1.8047-0.068zm-4.2754 0.4668c-0.036 0.015-0.071 0.026-0.1094 0.049l0.2656-0.088c-0.063 0.012-0.1063 0.024-0.1562 0.039zm22.389-0.2617c0.6419-0.01 1.3125-0.01 1.9824 0 1.3398 0.022 2.6749 0.086 3.7754 0.1817 0.5502 0.048 1.0399 0.101 1.4531 0.1679 0.4132 0.067 0.7234 0.1237 1.0606 0.2813 0.2881 0.1347 0.5592 0.3577 0.6953 0.6465 0.1357 0.2888 0.125 0.5949 0.055 0.8398-0.141 0.4901-0.4649 0.8475-0.8379 1.2031-0.7455 0.7118-1.7669 1.3528-2.6328 1.7344-0.6855 0.3021-1.5032 0.3573-2.6368 0.4356-1.1336 0.079-2.4949 0.109-3.8613 0.098-1.3663-0.013-2.7373-0.069-3.8906-0.1719-1.1533-0.1025-2.0198-0.1954-2.709-0.5019a0.8417 0.74713 0.64408 0 1 -0.2695 -0.1895c-0.2497-0.2629-0.3929-0.6105-0.4004-0.9375 0-0.3272 0.1058-0.6157 0.2558-0.8632 0.3006-0.4948 0.755-0.8732 1.2403-1.2149 0.4851-0.3415 1.0108-0.6281 1.4609-0.8476 0.2251-0.11 0.4276-0.2032 0.6094-0.2754 0.089-0.035 0.1827-0.048 0.2617-0.074 0.3598-0.1893 0.6869-0.2384 1.1094-0.3027 0.4224-0.064 0.9167-0.1125 1.4707-0.1465 0.554-0.036 1.1666-0.056 1.8086-0.066zm-126.75 0.07c-0.6195 0.01-1.2055 0.029-1.7227 0.061-0.5171 0.031-0.9628 0.076-1.2988 0.1269-0.3361 0.051-0.5803 0.1438-0.541 0.1211a0.8417 0.74713 0.64408 0 1 -0.2715 0.088c0.088-0.015-0.033 0.01-0.1602 0.061-0.1272 0.05-0.2985 0.1265-0.4883 0.2187-0.379 0.185-0.8356 0.4447-1.2226 0.7168-0.3842 0.2704-0.6893 0.5674-0.8008 0.7481 0.3036 0.082 0.8828 0.2136 1.8008 0.2949 1.0823 0.096 2.4131 0.1566 3.7383 0.1679 1.3252 0.012 2.6453-0.021 3.709-0.094 1.0636-0.073 1.9561-0.2569 2.0234-0.2871 0.6392-0.2817 1.6068-0.8914 2.1543-1.4141 0.1973-0.1883 0.2506-0.2957 0.3144-0.4004-0.1009-0.027-0.1426-0.05-0.3535-0.084-0.3425-0.055-0.7954-0.1034-1.3144-0.1484-1.0383-0.09-2.3407-0.1531-3.6426-0.1758-0.651-0.011-1.3044-0.01-1.9238 0zm18.113 0.2032c-0.6181 0.01-1.2035 0.029-1.7207 0.061-0.5171 0.031-0.9667 0.076-1.3027 0.127-0.3361 0.051-0.5803 0.1437-0.541 0.1211a0.8417 0.74713 0.64408 0 1 -0.2734 0.088c0.088-0.015-0.033 0.01-0.1602 0.061-0.1274 0.05-0.2927 0.1265-0.4824 0.2187-0.379 0.185-0.8356 0.4443-1.2227 0.7168-0.3841 0.2704-0.6951 0.5674-0.8066 0.7481 0.3036 0.082 0.8828 0.2136 1.8008 0.2949 1.0823 0.096 2.413 0.1566 3.7382 0.168 1.3253 0.012 2.6532-0.021 3.7168-0.094 1.0637-0.073 1.9543-0.2569 2.0215-0.2871 0.6392-0.2817 1.601-0.8914 2.1485-1.414 0.1988-0.1898 0.2513-0.3004 0.3144-0.4043-0.1017-0.028-0.1452-0.044-0.3535-0.078-0.3425-0.055-0.7954-0.1031-1.3144-0.1484-1.0382-0.09-2.3408-0.1531-3.6426-0.1758-0.6509-0.011-1.3018-0.012-1.92 0zm18.109 0.2031c-0.6177 0.01-1.2036 0.031-1.7207 0.062-0.5172 0.031-0.9667 0.076-1.3027 0.1269-0.3358 0.051-0.5745 0.1438-0.5352 0.1211a0.8417 0.74713 0.64408 0 1 -0.2715 0.088c0.088-0.015-0.033 0.01-0.1601 0.061-0.1273 0.05-0.3005 0.1265-0.4902 0.2187-0.3791 0.185-0.8356 0.4424-1.2227 0.7149-0.3841 0.2703-0.6873 0.5693-0.7988 0.75 0.3054 0.082 0.8855 0.2136 1.8008 0.2949 1.0823 0.096 2.413 0.1547 3.7382 0.166 1.3253 0.012 2.6453-0.021 3.709-0.094s1.9542-0.2549 2.0215-0.2851c0.6393-0.2817 1.6088-0.8934 2.1563-1.416 0.1972-0.1883 0.2486-0.2957 0.3125-0.4004-0.101-0.027-0.147-0.048-0.3594-0.082-0.3425-0.055-0.7954-0.1031-1.3145-0.1485-1.0376-0.09-2.3414-0.1531-3.6426-0.1758-0.6503-0.011-1.3008-0.012-1.918 0zm18.115 0.2051c-0.6178 0.01-1.2016 0.029-1.7188 0.06-0.5171 0.031-0.9691 0.076-1.3047 0.127-0.336 0.051-0.5783 0.1437-0.539 0.1211a0.8417 0.74713 0.64408 0 1 -0.2735 0.088c0.088-0.015-0.033 0.01-0.1601 0.061-0.1273 0.05-0.3005 0.1265-0.4903 0.2187-0.379 0.185-0.8336 0.4443-1.2207 0.7168-0.384 0.2704-0.6893 0.5674-0.8008 0.7481 0.3037 0.082 0.8829 0.2136 1.8008 0.2949 1.0824 0.096 2.413 0.1547 3.7383 0.166 1.3253 0.012 2.6453-0.021 3.709-0.094s1.9601-0.2549 2.0273-0.2852c0.6392-0.2817 1.6029-0.8914 2.1504-1.414 0.1973-0.188 0.2487-0.2957 0.3125-0.4004-0.1009-0.027-0.1426-0.05-0.3535-0.084-0.3425-0.055-0.7953-0.1035-1.3144-0.1485-1.0382-0.09-2.3408-0.1531-3.6426-0.1757-0.6509-0.011-1.3022-0.01-1.9199 0zm18.109 0.2031c-0.6177 0.01-1.2016 0.031-1.7187 0.062s-0.9707 0.074-1.3067 0.125c-0.3358 0.051-0.5783 0.1457-0.539 0.123a0.8417 0.74713 0.64408 0 1 -0.2676 0.088c0.088-0.015-0.037 0.01-0.1641 0.061-0.1273 0.05-0.2926 0.1265-0.4824 0.2187-0.3791 0.1851-0.8375 0.4424-1.2246 0.7149-0.3842 0.2703-0.6873 0.5693-0.7988 0.75 0.3059 0.082 0.88 0.2136 1.7949 0.2949 1.0823 0.096 2.4189 0.1547 3.7441 0.166 1.3253 0.013 2.6473-0.021 3.711-0.094s1.9522-0.2568 2.0195-0.2871c0.6392-0.2816 1.6029-0.8914 2.1504-1.414 0.1992-0.1898 0.2513-0.3004 0.3145-0.4043-0.1017-0.028-0.1473-0.046-0.3555-0.08-0.3425-0.055-0.7953-0.1015-1.3145-0.1465-1.0382-0.09-2.3407-0.155-3.6425-0.1777-0.651-0.011-1.3022-0.012-1.92 0zm18.109 0.2031c-0.6177 0.01-1.2016 0.031-1.7187 0.062-0.5172 0.031-0.9687 0.074-1.3047 0.125-0.3357 0.051-0.5725 0.1457-0.5332 0.1231a0.8417 0.74713 0.64408 0 1 -0.2735 0.088c0.088-0.015-0.031 0.01-0.1582 0.061-0.1272 0.05-0.3005 0.1246-0.4902 0.2168-0.379 0.185-0.8356 0.4447-1.2227 0.7168-0.384 0.2703-0.6873 0.5693-0.7988 0.75 0.3055 0.082 0.8835 0.2136 1.7988 0.2949 1.0824 0.096 2.413 0.1547 3.7383 0.166 1.3253 0.012 2.6472-0.021 3.711-0.094 1.0636-0.073 1.9542-0.2549 2.0214-0.2852 0.6391-0.2817 1.6069-0.8933 2.1543-1.416 0.1973-0.1879 0.2506-0.2957 0.3145-0.4004-0.1009-0.027-0.1426-0.048-0.3535-0.082-0.3426-0.055-0.8032-0.1031-1.3223-0.1485-1.0382-0.09-2.3407-0.1531-3.6426-0.1757-0.6509-0.011-1.3021-0.012-1.9199 0zm18.117 0.2051c-0.6178 0.01-1.2016 0.029-1.7188 0.061-0.5171 0.031-0.971 0.076-1.3066 0.127-0.3359 0.051-0.5784 0.1438-0.5391 0.1211a0.8417 0.74713 0.64408 0 1 -0.2714 0.088c0.088-0.015-0.033 0.01-0.1602 0.061-0.1272 0.05-0.3005 0.1265-0.4902 0.2188-0.3791 0.185-0.8298 0.4446-1.2168 0.7168-0.3842 0.2704-0.6932 0.5674-0.8047 0.748 0.3036 0.082 0.8809 0.2137 1.7988 0.2949 1.0824 0.096 2.4131 0.1567 3.7383 0.168 1.3253 0.012 2.6531-0.021 3.7168-0.094 1.0636-0.073 1.9542-0.2569 2.0215-0.2872 0.6392-0.2816 1.6009-0.8913 2.1484-1.414 0.1984-0.1898 0.2513-0.3023 0.3145-0.4063-0.1013-0.028-0.1453-0.044-0.3535-0.078-0.3426-0.055-0.7953-0.1035-1.3145-0.1484-1.0382-0.09-2.3408-0.1531-3.6426-0.1758-0.6509-0.011-1.3021-0.01-1.9199 0zm18.109 0.2031c-0.6178 0.01-1.2016 0.029-1.7188 0.061-0.5171 0.031-0.971 0.076-1.3066 0.1269-0.3359 0.051-0.5784 0.1457-0.5391 0.1231a0.8417 0.74713 0.64408 0 1 -0.2676 0.086c0.088-0.015-0.031 0.01-0.1582 0.061-0.1273 0.05-0.3005 0.1266-0.4902 0.2188-0.379 0.185-0.8356 0.4443-1.2227 0.7168-0.384 0.2703-0.6873 0.5674-0.7988 0.748 0.3059 0.082 0.8782 0.2137 1.793 0.295 1.0823 0.096 2.4188 0.1566 3.7441 0.1679 1.3252 0.012 2.6453-0.021 3.709-0.094s1.9562-0.2569 2.0235-0.2871c0.6392-0.2817 1.6009-0.8914 2.1484-1.4141 0.1977-0.1886 0.2584-0.2961 0.3223-0.4004-0.101-0.027-0.149-0.05-0.3614-0.084-0.3425-0.055-0.7953-0.1011-1.3144-0.1465-1.0383-0.09-2.3407-0.155-3.6426-0.1777-0.6509-0.011-1.3022-0.012-1.9199 0zm-24.693 2.0606c0 0.01 0.01 0.014 0.01 0.016 0 0 0-0.01 0.01-0.01 0 0-0.01-0.01-0.01 0zm0.018 0s0-2e-4 0.01 0.01zm-99.19 3.2539c0.6403-0.01 1.3087-0.01 1.9786 0 1.3396 0.022 2.6768 0.08 3.7773 0.1758 0.5502 0.048 1.0399 0.101 1.4531 0.1679 0.4132 0.067 0.7234 0.1237 1.0606 0.2813 0.288 0.1347 0.56 0.3597 0.6953 0.6484 0.1353 0.289 0.123 0.593 0.053 0.8379-0.1409 0.4901-0.4629 0.8471-0.8359 1.2031-0.7455 0.7117-1.7669 1.3527-2.6328 1.7344-0.6856 0.3024-1.5032 0.3593-2.6368 0.4375-1.1335 0.078-2.4969 0.109-3.8632 0.098-1.3664-0.013-2.7354-0.072-3.8887-0.1739-1.1532-0.1025-2.0217-0.1915-2.7109-0.498a0.8417 0.74713 0.64408 0 1 -0.2618 -0.1875c-0.2493-0.263-0.4006-0.6106-0.4082-0.9375 0-0.3272 0.1078-0.62 0.2578-0.8672 0.3006-0.4949 0.757-0.8732 1.2422-1.2149 0.4852-0.3415 1.007-0.6296 1.4571-0.8496 0.225-0.1099 0.4295-0.2012 0.6113-0.2734 0.1573-0.062 0.2813-0.1087 0.457-0.1465-0.065 0.027-0.1307 0.042-0.1972 0.076l0.2734-0.094c-0.031 0.01-0.05 0.016-0.076 0.024 0.2875-0.1176 0.5698-0.1819 0.9141-0.2344 0.4225-0.064 0.9207-0.1105 1.4746-0.1445 0.554-0.033 1.1664-0.053 1.8066-0.062zm18.109 0.2031c0.6402-0.01 1.3087-0.01 1.9785 0 1.3398 0.021 2.6768 0.08 3.7774 0.1758 0.5502 0.048 1.0399 0.1011 1.4531 0.168 0.4131 0.067 0.7293 0.1255 1.0664 0.2832 0.2882 0.1347 0.56 0.3596 0.6953 0.6484 0.1353 0.2889 0.123 0.591 0.053 0.8359-0.141 0.4901-0.4629 0.8491-0.836 1.2051-0.7455 0.7117-1.7669 1.3528-2.6328 1.7344-0.6855 0.3023-1.509 0.3573-2.6426 0.4355-1.1335 0.077-2.4891 0.109-3.8554 0.098-1.3664-0.013-2.7374-0.071-3.8907-0.1738-1.1533-0.1025-2.0198-0.1896-2.709-0.4961a0.8417 0.74713 0.64408 0 1 -0.2695 -0.1875c-0.2493-0.263-0.4006-0.6126-0.4082-0.9395-0.01-0.3271 0.1136-0.6177 0.2637-0.8652 0.3005-0.4949 0.757-0.8751 1.2422-1.2168 0.4851-0.3415 1.001-0.63 1.4511-0.8496 0.2251-0.1104 0.4354-0.2013 0.6172-0.2735 0.1625-0.064 0.2824-0.1126 0.4668-0.1504-0.068 0.028-0.1367 0.042-0.207 0.08l0.2676-0.094c-0.022 0-0.038 0.01-0.061 0.016 0.2838-0.1141 0.5638-0.1787 0.9043-0.2305 0.4225-0.064 0.9167-0.1105 1.4707-0.1445 0.554-0.033 1.1645-0.053 1.8047-0.062zm18.113 0.2051c0.6419-0.01 1.3125-0.01 1.9824 0 1.3398 0.022 2.6769 0.08 3.7774 0.1758 0.5502 0.048 1.0399 0.1011 1.4531 0.168 0.4132 0.067 0.7234 0.1236 1.0605 0.2812 0.2881 0.1347 0.5577 0.3597 0.6934 0.6485 0.1353 0.2889 0.125 0.5926 0.055 0.8379-0.141 0.49-0.4629 0.847-0.836 1.2031-0.7454 0.7117-1.7669 1.3527-2.6328 1.7344-0.6855 0.3024-1.5031 0.3592-2.6367 0.4375-1.1336 0.077-2.497 0.107-3.8633 0.096-1.3663-0.013-2.7354-0.07-3.8886-0.1719-1.1533-0.1024-2.0218-0.1915-2.711-0.4981a0.8417 0.74713 0.64408 0 1 -0.2695 -0.1875c-0.2494-0.2629-0.3928-0.6105-0.4004-0.9375-0.01-0.3272 0.1058-0.6196 0.2559-0.8672 0.3005-0.4948 0.757-0.8751 1.2421-1.2167 0.4853-0.3416 1.007-0.6281 1.4571-0.8477 0.225-0.11 0.4295-0.2032 0.6113-0.2754 0.159-0.063 0.283-0.1067 0.4629-0.1445 0.2855-0.1153 0.5658-0.1783 0.9082-0.2305 0.4224-0.064 0.9167-0.1125 1.4707-0.1465 0.554-0.033 1.1667-0.051 1.8086-0.061zm-4.1875 0.4375c-0.067 0.027-0.1328 0.038-0.2012 0.076l0.2715-0.094c-0.029 0.01-0.044 0.01-0.07 0.018zm22.301-0.2344c0.6402-0.01 1.3086-0.01 1.9785 0 1.3397 0.022 2.6749 0.08 3.7754 0.1758 0.5502 0.048 1.0419 0.1011 1.4551 0.1679 0.4131 0.067 0.7234 0.1256 1.0605 0.2833 0.2881 0.1347 0.5577 0.3596 0.6934 0.6484 0.1353 0.2889 0.125 0.591 0.055 0.8359-0.141 0.4901-0.4633 0.8471-0.836 1.2032-0.7455 0.7117-1.7669 1.3546-2.6328 1.7363-0.6855 0.3024-1.505 0.3573-2.6387 0.4355-1.1335 0.077-2.495 0.109-3.8613 0.098-1.3663-0.013-2.7315-0.072-3.8848-0.1738-1.1532-0.1025-2.0256-0.1916-2.7148-0.4981a0.8417 0.74713 0.64408 0 1 -0.2637 -0.1875c-0.2491-0.2629-0.3987-0.6106-0.4062-0.9375-0.01-0.3272 0.1058-0.6177 0.2558-0.8652 0.3006-0.4948 0.7629-0.8752 1.2481-1.2168 0.4852-0.3415 1.003-0.6297 1.4531-0.8496 0.2251-0.1104 0.4354-0.2013 0.6172-0.2735 0.1575-0.062 0.2769-0.1087 0.4512-0.1465-0.066 0.027-0.1308 0.038-0.1973 0.076l0.2715-0.094c-0.031 0.01-0.05 0.014-0.076 0.022 0.2872-0.1176 0.5698-0.1799 0.9141-0.2325 0.4224-0.064 0.9226-0.1105 1.4765-0.1445 0.554-0.033 1.1664-0.053 1.8067-0.062zm18.109 0.2031c0.6403-0.01 1.3087-0.01 1.9786 0 1.3397 0.022 2.6768 0.08 3.7773 0.1758 0.5502 0.048 1.04 0.1011 1.4531 0.168 0.4133 0.066 0.7293 0.1256 1.0664 0.2832 0.2882 0.1347 0.5597 0.3597 0.6954 0.6484 0.1356 0.2889 0.123 0.593 0.053 0.8379-0.141 0.4901-0.4629 0.8471-0.8359 1.2031-0.7455 0.7118-1.767 1.3528-2.6329 1.7344-0.6854 0.302-1.511 0.3593-2.6445 0.4375-1.1336 0.077-2.4872 0.1071-3.8535 0.096-1.3664-0.013-2.7374-0.071-3.8906-0.1738-1.1533-0.1024-2.0198-0.1896-2.709-0.4961a0.8417 0.74713 0.64408 0 1 -0.2715 -0.1875c-0.2496-0.263-0.3928-0.6125-0.4004-0.9395-0.01-0.3271 0.1058-0.618 0.2559-0.8652 0.3006-0.4949 0.7569-0.8751 1.2422-1.2168 0.4851-0.3415 1.0029-0.63 1.4531-0.8496 0.225-0.1104 0.4354-0.2012 0.6172-0.2734 0.1632-0.065 0.2832-0.1126 0.4707-0.1504-0.07 0.028-0.1403 0.042-0.211 0.08l0.2657-0.094c-0.022 0-0.036 0.01-0.055 0.016 0.2827-0.1134 0.5613-0.1771 0.9004-0.2285 0.4224-0.064 0.9147-0.1125 1.4687-0.1465 0.554-0.033 1.1664-0.053 1.8066-0.062zm18.111 0.2032c0.6419-0.01 1.3145-0.01 1.9844 0.01v-0.01c1.3397 0.022 2.6749 0.08 3.7754 0.1757 0.5503 0.048 1.0419 0.1011 1.4551 0.168 0.4131 0.067 0.7234 0.1256 1.0605 0.2832 0.2882 0.1347 0.5596 0.3597 0.6953 0.6484 0.1353 0.289 0.1231 0.593 0.053 0.8379-0.141 0.4901-0.4633 0.8471-0.836 1.2032-0.7455 0.7117-1.767 1.3527-2.6328 1.7343-0.6855 0.3025-1.5051 0.3593-2.6387 0.4375-1.1335 0.077-2.493 0.1071-3.8593 0.096-1.3664-0.013-2.7394-0.072-3.8926-0.1738-1.1533-0.1025-2.0179-0.1896-2.707-0.4961a0.8417 0.74713 0.64408 0 1 -0.2715 -0.1875c-0.2497-0.263-0.3929-0.6106-0.4004-0.9375-0.01-0.3272 0.1058-0.6196 0.2558-0.8672 0.3006-0.4948 0.757-0.8751 1.2422-1.2168 0.4852-0.3415 1.0088-0.6277 1.459-0.8476 0.2251-0.11 0.4295-0.2032 0.6113-0.2754 0.1583-0.062 0.2818-0.1068 0.459-0.1446-0.066 0.027-0.1319 0.037-0.1992 0.074l0.2734-0.094c0.262-0.099 0.5237-0.1609 0.8379-0.209 0.4225-0.064 0.9147-0.1124 1.4688-0.1465 0.5539-0.033 1.1667-0.053 1.8086-0.062zm18.113 0.205c0.6402-0.01 1.3106-0.01 1.9804 0 1.3398 0.022 2.6749 0.08 3.7754 0.1758 0.5503 0.048 1.0419 0.1011 1.4551 0.168 0.4132 0.067 0.7215 0.1256 1.0586 0.2832 0.2881 0.1348 0.5592 0.3577 0.6953 0.6465 0.1353 0.2889 0.125 0.5929 0.055 0.8379-0.141 0.49-0.459 0.847-0.832 1.2031-0.7456 0.7117-1.767 1.3547-2.6329 1.7363-0.6854 0.302-1.5109 0.3573-2.6445 0.4356-1.1336 0.077-2.4872 0.109-3.8535 0.098-1.3663-0.013-2.7374-0.072-3.8906-0.1738-1.1533-0.1025-2.0257-0.1915-2.7149-0.4981a0.8417 0.74713 0.64408 0 1 -0.2636 -0.1875c-0.2491-0.2629-0.3987-0.6105-0.4063-0.9375-0.01-0.3272 0.1117-0.6196 0.2617-0.8671 0.3006-0.4949 0.757-0.8732 1.2422-1.2149 0.4853-0.3415 1.003-0.6296 1.4531-0.8496 0.2251-0.1104 0.4354-0.2013 0.6172-0.2734 0.1579-0.062 0.275-0.1087 0.4492-0.1465-0.065 0.027-0.1303 0.038-0.1972 0.076l0.2734-0.094c-0.031 0.01-0.05 0.014-0.076 0.022 0.2873-0.1176 0.5698-0.1799 0.9141-0.2324 0.4224-0.064 0.9226-0.1106 1.4766-0.1446 0.5539-0.033 1.1644-0.053 1.8047-0.062zm18.109 0.2032c0.6403-0.01 1.3106-0.01 1.9805 0 1.3397 0.022 2.6808 0.08 3.7813 0.1758 0.5502 0.048 1.0399 0.1011 1.4531 0.168 0.4132 0.067 0.7234 0.1256 1.0605 0.2832 0.2881 0.1347 0.56 0.3596 0.6953 0.6484 0.1353 0.2889 0.125 0.5926 0.055 0.8379-0.1409 0.49-0.4648 0.8471-0.8379 1.2031-0.7454 0.7117-1.7669 1.3528-2.6328 1.7344-0.6855 0.3025-1.503 0.3593-2.6367 0.4375-1.1335 0.078-2.495 0.107-3.8613 0.096-1.3663-0.013-2.7374-0.072-3.8907-0.1738-1.1532-0.1025-2.0198-0.1896-2.7089-0.4961a0.8417 0.74713 0.64408 0 1 -0.2696 -0.1875c-0.2493-0.263-0.3928-0.6106-0.4004-0.9375-0.01-0.3272 0.1059-0.6197 0.2559-0.8672 0.3006-0.4948 0.757-0.8751 1.2422-1.2168 0.4852-0.3416 1.0088-0.63 1.459-0.8496 0.225-0.11 0.4295-0.2013 0.6113-0.2735 0.159-0.063 0.281-0.1087 0.4609-0.1464-0.067 0.027-0.1327 0.038-0.2011 0.076l0.2715-0.094c-0.029 0.01-0.044 0.012-0.07 0.019 0.2856-0.1156 0.5658-0.1803 0.9082-0.2324 0.4225-0.064 0.9167-0.1105 1.4707-0.1445 0.554-0.033 1.1645-0.053 1.8047-0.062zm-126.75 0.07c-0.6181 0.01-1.2016 0.029-1.7187 0.061-0.5172 0.032-0.9687 0.074-1.3047 0.125-0.3357 0.051-0.5725 0.1418-0.5332 0.1192a0.8417 0.74713 0.64408 0 1 -0.2734 0.092c0.088-0.015-0.033 0.011-0.1602 0.06-0.1271 0.051-0.2985 0.1207-0.4883 0.2129-0.3791 0.1851-0.8356 0.4443-1.2226 0.7168-0.3841 0.2703-0.6893 0.5693-0.8008 0.75 0.3055 0.082 0.8854 0.2156 1.8008 0.2969 1.0823 0.096 2.413 0.1527 3.7382 0.164 1.3253 0.012 2.6473-0.021 3.711-0.094s1.9522-0.2549 2.0195-0.2852c0.6393-0.2817 1.6088-0.8895 2.1563-1.4121 0.1957-0.1866 0.2498-0.2914 0.3144-0.3965-0.1009-0.027-0.1469-0.05-0.3594-0.084-0.3425-0.055-0.7953-0.1089-1.3144-0.1543-1.0382-0.09-2.3407-0.1472-3.6426-0.1699-0.6509-0.011-1.3037-0.012-1.9219 0zm18.117 0.205c-0.6177 0.01-1.2035 0.029-1.7207 0.061-0.5171 0.031-0.9667 0.074-1.3027 0.125s-0.5803 0.1418-0.541 0.1191a0.8417 0.74713 0.64408 0 1 -0.2735 0.092c0.088-0.015-0.031 0.01-0.1582 0.059-0.1272 0.05-0.3005 0.1226-0.4902 0.2149-0.3791 0.185-0.8356 0.4446-1.2227 0.7168-0.3841 0.2703-0.6892 0.5673-0.8007 0.748 0.3036 0.082 0.8828 0.2156 1.8007 0.2969 1.0824 0.096 2.413 0.1547 3.7383 0.166 1.3253 0.013 2.6473-0.021 3.711-0.094s1.96-0.2568 2.0273-0.2871c0.6392-0.2817 1.601-0.8894 2.1484-1.4121 0.1977-0.1882 0.2506-0.2976 0.3145-0.4023-0.1017-0.027-0.143-0.042-0.3535-0.076-0.3425-0.055-0.7934-0.1113-1.3125-0.1562-1.0382-0.09-2.3427-0.1473-3.6446-0.17-0.6502-0.01-1.3027-0.01-1.9199 0zm18.109 0.2032c-0.6178 0.01-1.2016 0.029-1.7188 0.061-0.5171 0.031-0.969 0.074-1.3046 0.125-0.3361 0.051-0.5804 0.1418-0.5411 0.1192a0.8417 0.74713 0.64408 0 1 -0.2656 0.092c0.088-0.015-0.039 0.011-0.166 0.061-0.1273 0.05-0.2946 0.1207-0.4844 0.2129-0.3791 0.185-0.8356 0.4447-1.2226 0.7168-0.3841 0.2704-0.6874 0.5693-0.7989 0.75 0.3059 0.082 0.8782 0.2136 1.793 0.2949 1.0823 0.096 2.4208 0.1547 3.7461 0.166 1.3252 0.013 2.6453-0.021 3.709-0.094 1.0636-0.073 1.9542-0.2549 2.0215-0.2852 0.6392-0.2817 1.6009-0.8913 2.1484-1.414 0.1973-0.1879 0.2506-0.2977 0.3145-0.4024-0.1013-0.028-0.1433-0.042-0.3516-0.076-0.3425-0.055-0.7973-0.1093-1.3164-0.1543-1.0377-0.09-2.3414-0.1472-3.6426-0.1699-0.6503-0.011-1.3009-0.012-1.918 0zm18.109 0.2031c-0.6178 0.01-1.2036 0.031-1.7207 0.062-0.5172 0.031-0.9668 0.074-1.3028 0.125-0.3357 0.051-0.5744 0.1399-0.5351 0.1172a0.8417 0.74713 0.64408 0 1 -0.2715 0.094c0.088-0.015-0.033 0.01-0.1602 0.059-0.1271 0.05-0.3005 0.1207-0.4902 0.2129-0.3791 0.1851-0.8356 0.4443-1.2227 0.7168-0.3841 0.2704-0.6873 0.5694-0.7988 0.75 0.3055 0.082 0.8836 0.2156 1.7988 0.2969 1.0824 0.096 2.415 0.1527 3.7403 0.164 1.3253 0.013 2.6453-0.021 3.709-0.094 1.0636-0.073 1.9542-0.2549 2.0215-0.2852 0.6392-0.2817 1.6087-0.8894 2.1562-1.4121 0.1977-0.1882 0.2506-0.2976 0.3145-0.4023-0.1006-0.027-0.145-0.044-0.3555-0.078-0.3425-0.056-0.8012-0.109-1.3203-0.1543-1.0382-0.09-2.3408-0.1473-3.6426-0.17-0.6509-0.011-1.3022-0.012-1.9199 0zm18.115 0.2031c-0.6177 0.01-1.2016 0.029-1.7187 0.061-0.5172 0.032-0.9707 0.074-1.3067 0.125-0.3362 0.051-0.5784 0.1418-0.539 0.1191a0.8417 0.74713 0.64408 0 1 -0.2715 0.092c0.088-0.015-0.033 0.011-0.1602 0.061-0.1272 0.051-0.3005 0.1206-0.4902 0.2128-0.3791 0.185-0.8298 0.4447-1.2168 0.7168-0.3841 0.2704-0.6932 0.5694-0.8047 0.75 0.3037 0.082 0.8828 0.2157 1.8008 0.2969 1.0823 0.096 2.413 0.1527 3.7383 0.1641 1.3252 0.013 2.6531-0.019 3.7168-0.092s1.9522-0.2569 2.0195-0.2871c0.6391-0.2818 1.6029-0.8895 2.1504-1.4121 0.1976-0.1879 0.2506-0.2977 0.3144-0.4024-0.1013-0.027-0.1472-0.044-0.3554-0.078-0.3426-0.056-0.7955-0.1093-1.3145-0.1543-1.0382-0.09-2.3407-0.1473-3.6426-0.1699-0.6509-0.011-1.3021-0.012-1.9199 0zm18.109 0.2051c-0.6178 0.01-1.2016 0.029-1.7188 0.061-0.5172 0.031-0.969 0.074-1.3047 0.125-0.3358 0.051-0.5783 0.1419-0.539 0.1192a0.8417 0.74713 0.64408 0 1 -0.2676 0.092c0.088-0.015-0.031 0.011-0.1582 0.061s-0.3005 0.1207-0.4902 0.2129c-0.379 0.1851-0.8356 0.4443-1.2227 0.7168-0.3841 0.2704-0.6873 0.5674-0.7988 0.7481 0.3058 0.082 0.8782 0.2156 1.793 0.2968 1.0823 0.096 2.4208 0.1547 3.746 0.1661 1.3253 0.012 2.6434-0.021 3.7071-0.094 1.0636-0.073 1.9561-0.2549 2.0234-0.2852 0.6392-0.2817 1.6009-0.8913 2.1485-1.414 0.1961-0.1875 0.2502-0.2973 0.3144-0.4024-0.1013-0.027-0.1472-0.042-0.3555-0.076-0.3425-0.056-0.7953-0.1094-1.3144-0.1543-1.0381-0.09-2.3407-0.1473-3.6426-0.1699-0.6509-0.011-1.3022-0.012-1.9199 0zm18.109 0.2031c-0.6178 0.01-1.2017 0.029-1.7188 0.061-0.5171 0.031-0.9628 0.076-1.2988 0.1269-0.3358 0.051-0.5784 0.1399-0.5391 0.1172a0.8417 0.74713 0.64408 0 1 -0.2734 0.094c0.088-0.015-0.031 0.01-0.1582 0.059-0.1272 0.051-0.3005 0.1226-0.4903 0.2148-0.379 0.185-0.8356 0.4427-1.2226 0.7148-0.3842 0.2704-0.6873 0.5694-0.7988 0.75 0.3035 0.082 0.8808 0.2157 1.7988 0.2969 1.0824 0.096 2.4149 0.1547 3.7402 0.166 1.3252 0.012 2.6433-0.021 3.707-0.094s1.9562-0.2569 2.0235-0.2871c0.6392-0.2818 1.6068-0.8895 2.1543-1.4121 0.1973-0.1879 0.2506-0.2977 0.3144-0.4024-0.1009-0.028-0.143-0.044-0.3535-0.078-0.3425-0.056-0.7953-0.1093-1.3144-0.1543-1.0383-0.09-2.3486-0.1472-3.6504-0.1699-0.651-0.011-1.3022-0.012-1.9199 0zm18.117 0.2031c-0.6177 0.01-1.2016 0.029-1.7187 0.061-0.5172 0.031-0.9706 0.076-1.3066 0.1269-0.3359 0.051-0.5784 0.1399-0.5391 0.1172a0.8417 0.74713 0.64408 0 1 -0.2734 0.092c0.088-0.015-0.031 0.011-0.1583 0.061-0.1272 0.051-0.2926 0.1226-0.4824 0.2148-0.3791 0.1851-0.8376 0.4427-1.2246 0.7149-0.3841 0.2704-0.6932 0.5693-0.8047 0.75 0.3036 0.082 0.8809 0.2156 1.7989 0.2968 1.0823 0.096 2.4149 0.1547 3.7402 0.1661 1.3252 0.013 2.6512-0.021 3.7148-0.094 1.0637-0.073 1.9542-0.2569 2.0215-0.2871 0.6393-0.2817 1.6029-0.8894 2.1504-1.4121 0.1973-0.1883 0.2486-0.2977 0.3125-0.4024-0.1013-0.027-0.1453-0.044-0.3535-0.078-0.3425-0.055-0.7953-0.1093-1.3145-0.1543-1.0382-0.09-2.3406-0.1472-3.6425-0.1699-0.6509-0.011-1.3022-0.012-1.92 0zm-60.912 1.6524c2e-4 0.01 0 0.013 0 0.014 0 0 0.01-0.011 0.01-0.012 0-0.01-0.012-0.01-0.012-0.01zm-83.637 2.9746c0.6419-0.01 1.3145-0.01 1.9844 0 1.3398 0.021 2.6769 0.08 3.7774 0.1758 0.5502 0.048 1.04 0.1069 1.4531 0.1738 0.4132 0.067 0.7234 0.1197 1.0606 0.2774 0.2881 0.1347 0.5592 0.3596 0.6953 0.6484 0.1353 0.2889 0.123 0.593 0.053 0.8379-0.141 0.49-0.4629 0.8475-0.8359 1.2031-0.7455 0.7117-1.767 1.3527-2.6329 1.7344-0.6855 0.302-1.5051 0.3632-2.6386 0.4414-1.1336 0.077-2.493 0.1031-3.8594 0.092-1.3663-0.013-2.7373-0.072-3.8906-0.1738-1.1533-0.1024-2.0198-0.1896-2.709-0.4961a0.8417 0.74713 0.64408 0 1 -0.2695 -0.1875c-0.2494-0.263-0.3948-0.6106-0.4024-0.9375-0.01-0.3272 0.1058-0.6197 0.2559-0.8672 0.3006-0.4949 0.7589-0.8693 1.2441-1.211 0.4852-0.3415 1.0069-0.6358 1.4571-0.8554 0.2251-0.11 0.4295-0.2013 0.6113-0.2735 0.1582-0.062 0.2817-0.1067 0.459-0.1445-0.066 0.027-0.132 0.036-0.1993 0.074l0.2735-0.094c0.2619-0.099 0.5236-0.1629 0.8379-0.211 0.4224-0.064 0.9147-0.1066 1.4687-0.1406 0.554-0.035 1.1667-0.057 1.8086-0.066zm18.113 0.2031c0.6402-0.01 1.3106-0.01 1.9805 0 1.3397 0.022 2.6748 0.08 3.7754 0.1758 0.5502 0.048 1.0418 0.1069 1.455 0.1738 0.4133 0.067 0.7234 0.1178 1.0606 0.2754 0.2881 0.1347 0.5577 0.3597 0.6933 0.6484 0.1357 0.2888 0.125 0.593 0.055 0.8379-0.1409 0.4901-0.4629 0.8475-0.8359 1.2031-0.7455 0.7117-1.7669 1.3528-2.6328 1.7344-0.6855 0.302-1.5051 0.3632-2.6387 0.4414-1.1335 0.077-2.495 0.1031-3.8613 0.092-1.3664-0.013-2.7315-0.07-3.8848-0.1719-1.1532-0.1024-2.0257-0.1915-2.7148-0.498a0.8417 0.74713 0.64408 0 1 -0.2637 -0.1875c-0.2491-0.263-0.3987-0.6106-0.4063-0.9375-0.01-0.3272 0.1059-0.6196 0.2559-0.8672 0.3006-0.4948 0.757-0.8693 1.2422-1.2109s1.0069-0.634 1.457-0.8536c0.2251-0.1103 0.4374-0.2032 0.6192-0.2753 0.1578-0.062 0.2749-0.1068 0.4492-0.1446-0.066 0.027-0.1308 0.038-0.1973 0.076l0.2735-0.094c-0.031 0.01-0.05 0.014-0.076 0.022 0.2873-0.1175 0.5697-0.1799 0.914-0.2324 0.4225-0.064 0.9226-0.1086 1.4766-0.1426 0.554-0.035 1.1645-0.057 1.8047-0.066zm18.109 0.2051c0.6402-0.01 1.3105-0.01 1.9804 0 1.3398 0.022 2.6749 0.08 3.7754 0.1758 0.5503 0.048 1.0419 0.1069 1.4551 0.1738 0.4132 0.067 0.7273 0.1178 1.0645 0.2754 0.2881 0.1347 0.5615 0.3597 0.6972 0.6484 0.1353 0.289 0.1231 0.593 0.053 0.8379-0.141 0.4901-0.4629 0.8471-0.836 1.2032-0.7454 0.7117-1.7689 1.3527-2.6347 1.7343-0.6856 0.302-1.5091 0.3632-2.6426 0.4414-1.1336 0.077-2.4872 0.1032-3.8535 0.092-1.3664-0.013-2.7394-0.07-3.8926-0.1718-1.1533-0.1024-2.0178-0.1916-2.707-0.4981a0.8417 0.74713 0.64408 0 1 -0.2715 -0.1875c-0.2496-0.263-0.3929-0.6106-0.4004-0.9375-0.01-0.3272 0.1058-0.6196 0.2558-0.8672 0.3006-0.4948 0.7571-0.8673 1.2422-1.209 0.4852-0.3415 1.003-0.6355 1.4532-0.8554 0.2251-0.1104 0.4353-0.2032 0.6171-0.2754 0.1634-0.064 0.2825-0.1107 0.4688-0.1484-0.069 0.027-0.1385 0.042-0.209 0.08l0.2656-0.094c-0.021 0-0.037 0.011-0.055 0.014 0.2823-0.113 0.5598-0.1773 0.8985-0.2286 0.4224-0.064 0.9166-0.1066 1.4707-0.1406 0.5539-0.035 1.1644-0.057 1.8047-0.066zm18.113 0.2031c0.6419-0.01 1.3125-0.01 1.9824 0 1.3397 0.021 2.6749 0.08 3.7754 0.1758 0.5503 0.048 1.0418 0.1069 1.455 0.1738 0.4132 0.067 0.7235 0.1198 1.0606 0.2774 0.2881 0.1347 0.5577 0.3597 0.6933 0.6484 0.1354 0.2889 0.125 0.591 0.055 0.836-0.1409 0.49-0.4648 0.8494-0.8379 1.205-0.7454 0.7117-1.7669 1.3528-2.6328 1.7344-0.6854 0.3021-1.5031 0.3632-2.6367 0.4414-1.1335 0.077-2.495 0.1032-3.8613 0.092-1.3663-0.013-2.7374-0.072-3.8906-0.1738-1.1533-0.1024-2.0199-0.1896-2.709-0.4961a0.8417 0.74713 0.64408 0 1 -0.2696 -0.1875c-0.2496-0.263-0.3928-0.6125-0.4003-0.9395-0.01-0.3272 0.1058-0.6176 0.2558-0.8652 0.3005-0.4948 0.755-0.8693 1.2403-1.2109 0.4851-0.3416 1.0108-0.6359 1.4609-0.8555 0.2251-0.11 0.4295-0.2013 0.6113-0.2734 0.1579-0.062 0.2798-0.1068 0.457-0.1446-0.065 0.027-0.1299 0.036-0.1972 0.074l0.2715-0.094c0.2624-0.1 0.5229-0.1628 0.8379-0.2109 0.4224-0.064 0.9167-0.1066 1.4707-0.1407 0.554-0.035 1.1666-0.057 1.8086-0.066zm18.113 0.2032c0.6403-0.01 1.3087-0.01 1.9785 0 1.3397 0.022 2.6749 0.078 3.7754 0.1738 0.5502 0.048 1.0399 0.1089 1.4531 0.1758 0.4131 0.067 0.7215 0.1178 1.0586 0.2754 0.2881 0.1347 0.5616 0.3597 0.6973 0.6484 0.1353 0.289 0.123 0.593 0.053 0.8379-0.141 0.4901-0.457 0.8475-0.8301 1.2032-0.7454 0.7116-1.7669 1.3527-2.6328 1.7343-0.6855 0.302-1.511 0.3632-2.6445 0.4414-1.1335 0.077-2.493 0.1032-3.8594 0.092-1.3663-0.012-2.7314-0.07-3.8847-0.1718-1.1533-0.1024-2.0257-0.1916-2.7149-0.4981a0.8417 0.74713 0.64408 0 1 -0.2637 -0.1875c-0.2491-0.263-0.4006-0.6106-0.4082-0.9375-0.01-0.3272 0.1058-0.6196 0.2559-0.8672 0.3006-0.4948 0.7628-0.8692 1.248-1.2109 0.4852-0.3415 1.003-0.6339 1.4532-0.8535 0.225-0.1104 0.4354-0.2032 0.6171-0.2754 0.1573-0.062 0.277-0.1068 0.4512-0.1445-0.066 0.027-0.1307 0.038-0.1972 0.076l0.2734-0.094c-0.031 0.01-0.05 0.014-0.076 0.022 0.2873-0.1176 0.5698-0.1799 0.9141-0.2325 0.4224-0.064 0.9225-0.1066 1.4765-0.1406 0.554-0.036 1.1645-0.059 1.8047-0.068zm18.109 0.205c0.6402-0.01 1.3106-0.01 1.9805 0 1.3397 0.021 2.6748 0.08 3.7754 0.1758 0.5501 0.048 1.0458 0.1069 1.459 0.1738 0.4131 0.067 0.7234 0.1198 1.0605 0.2774 0.2882 0.1347 0.5596 0.3597 0.6953 0.6484 0.1357 0.2889 0.125 0.591 0.055 0.836-0.1409 0.49-0.4649 0.8474-0.8379 1.2031-0.7455 0.7116-1.7669 1.3527-2.6328 1.7344-0.6855 0.302-1.5032 0.3651-2.6367 0.4433-1.1335 0.077-2.495 0.1032-3.8613 0.092-1.3664-0.013-2.7374-0.072-3.8907-0.1738-1.1533-0.1024-2.0198-0.1915-2.709-0.4981a0.8417 0.74713 0.64408 0 1 -0.2695 -0.1875c-0.2494-0.2629-0.3948-0.6105-0.4023-0.9375 0-0.3272 0.1077-0.6176 0.2578-0.8652 0.3005-0.4948 0.755-0.8693 1.2402-1.2109 0.4852-0.3415 1.0108-0.6359 1.4609-0.8555 0.2251-0.11 0.4276-0.2012 0.6094-0.2734 0.1574-0.062 0.2817-0.1087 0.4571-0.1465-0.066 0.027-0.1308 0.042-0.1973 0.076l0.2734-0.094c-0.031 0.01-0.052 0.014-0.078 0.022 0.2875-0.1179 0.5717-0.1799 0.916-0.2324 0.4225-0.064 0.9168-0.1066 1.4707-0.1407 0.554-0.035 1.1645-0.057 1.8047-0.066zm18.113 0.2032c0.6419-0.01 1.3125-0.01 1.9824 0 1.3398 0.022 2.6749 0.08 3.7754 0.1757 0.5503 0.048 1.0399 0.107 1.4531 0.1739 0.4132 0.067 0.7234 0.1197 1.0606 0.2773 0.2881 0.1347 0.5596 0.3597 0.6953 0.6484 0.1353 0.289 0.125 0.5911 0.055 0.836-0.141 0.49-0.4649 0.8494-0.8379 1.2051-0.7455 0.7116-1.767 1.3527-2.6328 1.7343-0.6856 0.3021-1.5032 0.3632-2.6367 0.4414-1.1337 0.077-2.495 0.1032-3.8614 0.092-1.3663-0.013-2.7374-0.072-3.8906-0.1738-1.1533-0.1024-2.0198-0.1896-2.709-0.4961a0.8417 0.74713 0.64408 0 1 -0.2695 -0.1875c-0.2494-0.263-0.3948-0.6125-0.4024-0.9394 0-0.3273 0.1078-0.6177 0.2579-0.8653 0.3005-0.4948 0.755-0.8692 1.2402-1.2109 0.4852-0.3415 1.0107-0.6359 1.4609-0.8555 0.2251-0.11 0.4276-0.2012 0.6094-0.2734 0.1573-0.062 0.2817-0.1067 0.457-0.1445-0.065 0.027-0.1307 0.04-0.1972 0.074l0.2734-0.094c-0.031 0.01-0.05 0.016-0.076 0.024 0.2875-0.118 0.5698-0.1819 0.9141-0.2344 0.4225-0.064 0.9167-0.1066 1.4707-0.1406 0.554-0.035 1.1667-0.057 1.8086-0.066zm18.111 0.2031c0.6407-0.01 1.3106-0.01 1.9805 0 1.3398 0.022 2.6749 0.08 3.7754 0.1758 0.5502 0.048 1.0399 0.1069 1.4531 0.1738 0.4132 0.067 0.7234 0.1178 1.0605 0.2754 0.2882 0.1347 0.5671 0.3597 0.7032 0.6485 0.1353 0.2889 0.1171 0.5929 0.047 0.8379-0.1409 0.49-0.457 0.8474-0.83 1.2031-0.7455 0.7116-1.767 1.3527-2.6328 1.7344-0.6856 0.3019-1.511 0.3631-2.6446 0.4414-1.1335 0.077-2.4891 0.1031-3.8554 0.092-1.3664-0.013-2.7354-0.07-3.8887-0.1719-1.1533-0.1024-2.0257-0.1919-2.7149-0.4981a0.8417 0.74713 0.64408 0 1 -0.2656 -0.1875c-0.2491-0.2629-0.3987-0.6105-0.4062-0.9375-0.01-0.3272 0.1136-0.6196 0.2636-0.8671 0.3006-0.4949 0.7551-0.8693 1.2403-1.211 0.4852-0.3415 1.0029-0.6339 1.4531-0.8535 0.2251-0.1104 0.4334-0.2032 0.6152-0.2754 0.1577-0.062 0.2789-0.1067 0.4532-0.1445-0.066 0.027-0.1327 0.04-0.1993 0.074l0.2735-0.094c0.2645-0.1 0.5305-0.1629 0.8457-0.211 0.4225-0.064 0.9129-0.1066 1.4668-0.1406 0.554-0.035 1.166-0.057 1.8066-0.066zm-126.75 0.068c-0.6177 0.01-1.2016 0.031-1.7187 0.062-0.5172 0.032-0.9707 0.074-1.3067 0.125-0.3358 0.051-0.5783 0.1419-0.539 0.1192a0.8417 0.74713 0.64408 0 1 -0.2715 0.092c0.088-0.015-0.033 0.01-0.1602 0.059-0.1273 0.05-0.2927 0.1285-0.4824 0.2207-0.3791 0.1849-0.8376 0.4388-1.2246 0.7109-0.3841 0.2704-0.6932 0.5674-0.8047 0.7481 0.3035 0.082 0.8827 0.2214 1.8008 0.3027 1.0823 0.097 2.413 0.1488 3.7383 0.1602 1.3252 0.013 2.6532-0.015 3.7168-0.088 1.0637-0.073 1.9522-0.255 2.0195-0.2852 0.6392-0.2817 1.603-0.8973 2.1504-1.4199 0.1977-0.188 0.2506-0.2977 0.3144-0.4024-0.1016-0.027-0.1472-0.042-0.3554-0.076-0.3425-0.056-0.7954-0.1094-1.3145-0.1543-1.0382-0.09-2.3407-0.1473-3.6426-0.17-0.6509-0.011-1.3021-0.012-1.9199 0zm18.111 0.2051c-0.6177 0.01-1.2035 0.031-1.7207 0.062-0.5171 0.032-0.969 0.074-1.3046 0.125-0.3361 0.051-0.5726 0.1418-0.5332 0.1192a0.8417 0.74713 0.64408 0 1 -0.2735 0.092c0.088-0.015-0.031 0.01-0.1582 0.058-0.1273 0.05-0.3005 0.1285-0.4902 0.2208-0.3791 0.185-0.8356 0.4364-1.2227 0.7089-0.3841 0.2705-0.6873 0.569-0.7988 0.75 0.3055 0.082 0.8835 0.2196 1.7988 0.3008 1.0824 0.097 2.415 0.1508 3.7403 0.1621 1.3252 0.013 2.6452-0.015 3.7089-0.088s1.9542-0.2568 2.0215-0.2871c0.6393-0.2817 1.6069-0.8953 2.1543-1.4179 0.1973-0.1883 0.2506-0.2977 0.3145-0.4024-0.1009-0.027-0.1434-0.044-0.3535-0.078-0.3426-0.056-0.8013-0.1093-1.3204-0.1543-1.0377-0.09-2.3414-0.1472-3.6425-0.1699-0.6503-0.011-1.3008-0.012-1.918 0zm18.115 0.2031c-0.6178 0.01-1.2016 0.031-1.7188 0.062-0.5171 0.032-0.9706 0.074-1.3066 0.125-0.3359 0.051-0.5784 0.1399-0.5391 0.1172a0.8417 0.74713 0.64408 0 1 -0.2715 0.094c0.088-0.015-0.033 0.01-0.1601 0.059-0.1273 0.051-0.3005 0.1285-0.4902 0.2207-0.3791 0.185-0.8298 0.4368-1.2168 0.709-0.3842 0.2704-0.6932 0.5693-0.8047 0.75 0.3035 0.082 0.8808 0.2195 1.7988 0.3007 1.0823 0.097 2.415 0.1508 3.7402 0.1622 1.3253 0.013 2.6512-0.015 3.7149-0.088 1.0636-0.073 1.9542-0.255 2.0215-0.2852 0.6392-0.2817 1.6028-0.8973 2.1503-1.4199 0.1973-0.188 0.2487-0.2977 0.3126-0.4024-0.1013-0.027-0.1453-0.042-0.3536-0.076-0.3425-0.056-0.7953-0.1094-1.3144-0.1543-1.0382-0.09-2.3408-0.1492-3.6426-0.1719-0.6509-0.011-1.3022-0.012-1.9199 0zm18.109 0.2051c-0.6178 0.01-1.2016 0.029-1.7188 0.061-0.5171 0.031-0.9706 0.074-1.3066 0.125-0.3359 0.051-0.5784 0.1418-0.5391 0.1191a0.8417 0.74713 0.64408 0 1 -0.2656 0.092c0.088-0.015-0.039 0.01-0.166 0.061-0.1274 0.051-0.2927 0.1284-0.4825 0.2207-0.379 0.185-0.8375 0.4364-1.2246 0.7089-0.3841 0.2704-0.6873 0.5694-0.7988 0.75 0.3058 0.082 0.8799 0.2196 1.7949 0.3008 1.0824 0.097 2.4189 0.1488 3.7442 0.1602 1.3253 0.013 2.6453-0.015 3.709-0.088s1.9542-0.2549 2.0214-0.2852c0.6392-0.2817 1.6029-0.8973 2.1504-1.4199 0.1962-0.1875 0.2483-0.2973 0.3125-0.4023-0.1013-0.027-0.1452-0.042-0.3535-0.076-0.3425-0.056-0.7954-0.1093-1.3144-0.1543-1.0383-0.09-2.3408-0.1472-3.6426-0.1699-0.651-0.011-1.3022-0.012-1.9199 0zm18.109 0.2031c-0.6177 0.01-1.2015 0.031-1.7187 0.062s-0.9628 0.074-1.2988 0.125c-0.3359 0.051-0.5784 0.1399-0.5391 0.1172a0.8417 0.74713 0.64408 0 1 -0.2734 0.094c0.088-0.015-0.031 0.01-0.1582 0.059-0.1274 0.051-0.3006 0.1285-0.4903 0.2207-0.379 0.185-0.8375 0.4368-1.2246 0.709-0.384 0.2704-0.6854 0.5693-0.7969 0.75 0.3036 0.082 0.8808 0.2195 1.7989 0.3007 1.0823 0.097 2.4129 0.1508 3.7382 0.1622 1.3252 0.012 2.6454-0.015 3.709-0.088 1.0637-0.073 1.9542-0.2569 2.0215-0.2871 0.6392-0.2818 1.6088-0.8953 2.1563-1.418 0.1973-0.1879 0.2505-0.2977 0.3144-0.4024-0.1009-0.027-0.1434-0.044-0.3535-0.078-0.3425-0.055-0.7954-0.1093-1.3145-0.1543-1.0381-0.09-2.3485-0.1472-3.6503-0.1699-0.651-0.011-1.3022-0.012-1.92 0zm18.117 0.2032c-0.6177 0.01-1.2035 0.031-1.7207 0.062-0.5171 0.031-0.969 0.074-1.3047 0.125-0.3359 0.051-0.5783 0.1418-0.539 0.1191a0.8417 0.74713 0.64408 0 1 -0.2735 0.092c0.089-0.015-0.031 0.01-0.1582 0.059-0.1273 0.05-0.3005 0.1285-0.4902 0.2207-0.3791 0.185-0.8297 0.4365-1.2168 0.709-0.3841 0.2704-0.6932 0.5693-0.8047 0.75 0.3035 0.082 0.8808 0.2195 1.7988 0.3008 1.0823 0.097 2.4131 0.1507 3.7383 0.1621 1.3253 0.013 2.6512-0.015 3.7149-0.088 1.0636-0.073 1.9561-0.2549 2.0234-0.2852 0.6392-0.2817 1.601-0.8973 2.1484-1.4199 0.1973-0.1883 0.2506-0.2976 0.3145-0.4023-0.1013-0.028-0.1453-0.042-0.3535-0.076-0.3426-0.056-0.7954-0.1109-1.3145-0.1563-1.0381-0.09-2.3407-0.1472-3.6426-0.1699-0.6509-0.011-1.3021-0.012-1.9199 0zm18.109 0.2051c-0.6178 0.01-1.2016 0.029-1.7188 0.06-0.5171 0.032-0.9706 0.074-1.3066 0.125-0.3358 0.051-0.5784 0.1418-0.5391 0.1191a0.8417 0.74713 0.64408 0 1 -0.2675 0.092c0.088-0.015-0.031 0.01-0.1582 0.059-0.1273 0.051-0.2986 0.1285-0.4883 0.2207-0.3791 0.185-0.8376 0.4388-1.2246 0.711-0.3841 0.2704-0.6893 0.5674-0.8008 0.748 0.3055 0.082 0.8873 0.2215 1.8027 0.3027 1.0823 0.097 2.4111 0.1489 3.7364 0.1602 1.3253 0.013 2.6472-0.015 3.7109-0.088s1.9542-0.2549 2.0215-0.2851c0.6392-0.2818 1.6009-0.8973 2.1484-1.42 0.1962-0.1875 0.2502-0.2972 0.3145-0.4023-0.1013-0.028-0.1453-0.042-0.3536-0.076-0.3425-0.056-0.7953-0.1093-1.3144-0.1543-1.0382-0.09-2.3408-0.1472-3.6426-0.1699-0.6509-0.011-1.3021-0.01-1.9199 0zm18.113 0.2031c-0.6195 0.01-1.2055 0.029-1.7227 0.061-0.5171 0.031-0.9628 0.074-1.2988 0.125-0.3359 0.051-0.5784 0.1418-0.5391 0.1192a0.8417 0.74713 0.64408 0 1 -0.2754 0.092c0.088-0.015-0.031 0.01-0.1582 0.06-0.1272 0.051-0.2985 0.1285-0.4882 0.2207-0.3792 0.185-0.8376 0.4369-1.2247 0.709-0.3841 0.2704-0.6873 0.5693-0.7988 0.75 0.3035 0.082 0.8827 0.2195 1.8008 0.3008 1.0823 0.097 2.4111 0.1488 3.7363 0.1601 1.3252 0.012 2.6473-0.013 3.711-0.086 1.0636-0.073 1.9542-0.2569 2.0214-0.2871 0.6393-0.2817 1.6069-0.8954 2.1543-1.418 0.1977-0.1882 0.2526-0.2976 0.3164-0.4023-0.1009-0.027-0.1449-0.044-0.3554-0.078-0.3426-0.055-0.7954-0.1093-1.3145-0.1542-1.0382-0.09-2.3407-0.1473-3.6425-0.17-0.651-0.011-1.3025-0.012-1.9219 0zm40.357 0.4726c-0.103-0.05-0.9311 1.3208-1.9297 3.2071-5.8473 11.045-16.972 24.158-29.113 34.318-6.5817 5.5081-9.8483 7.2741-16.978 9.1797-15.169 4.054-40.798 6.3055-71.701 6.2969-19.422-0.01-32.446-0.6178-46.812-2.1953-18.614-2.0439-32.996-5.8895-34.908-9.334-0.3276-0.5903-0.6019-0.8866-0.6093-0.6582-0.034 0.9299 1.0766 8.9323 1.8711 9.8496 4.3306 5.0005 26.736 8.5846 61.92 9.9062 8.4301 0.3168 40.25 0.1323 48.201-0.2793 28.544-1.4777 46.554-4.2624 52.369-8.0976 2.5246-1.6652 5.9606-4.4442 9.5-7.5684 6.6569 4.7963 17.601 7.3813 29.297 6.92 19.722-0.7966 35.711-9.8638 35.711-20.252 3e-4 -9.8722-14.49-17.479-33.186-17.422-0.8405 0-1.6828 0.021-2.5254 0.055-1.5398 0.072-3.0769 0.1956-4.6016 0.3711 1.8097-4.4543 3.5078-13.22 3.5078-14.27 0-0.018 3e-4 -0.023-0.012-0.027zm-159.36 4.4414c0.6407-0.01 1.3106-0.01 1.9805 0 1.3398 0.022 2.6827 0.08 3.7832 0.1758 0.5503 0.048 1.0399 0.1069 1.4531 0.1738 0.4132 0.067 0.7215 0.1198 1.0586 0.2774 0.2882 0.1347 0.5616 0.3636 0.6973 0.6523 0.1349 0.2889 0.123 0.5872 0.053 0.8321-0.1409 0.4901-0.4629 0.849-0.8359 1.205-0.7455 0.7117-1.7689 1.3587-2.6348 1.7403-0.6856 0.3021-1.5031 0.3573-2.6367 0.4355-1.1336 0.077-2.495 0.1032-3.8613 0.092-1.3664-0.014-2.7374-0.066-3.8907-0.1679-1.1533-0.1026-2.0198-0.1974-2.7089-0.504a0.8417 0.74713 0.64408 0 1 -0.2696 -0.1875c-0.2494-0.2629-0.3948-0.6105-0.4023-0.9375 0-0.3271 0.1077-0.6196 0.2578-0.8671 0.3006-0.4949 0.757-0.8674 1.2422-1.209 0.4852-0.3415 1.0069-0.6359 1.457-0.8555 0.2251-0.11 0.4295-0.2012 0.6113-0.2734 0.1574-0.062 0.2817-0.1068 0.4571-0.1446-0.066 0.027-0.1308 0.04-0.1973 0.074l0.2734-0.094c-0.031 0.01-0.05 0.016-0.076 0.023 0.2874-0.1175 0.5697-0.1818 0.914-0.2343 0.4226-0.064 0.9148-0.1066 1.4688-0.1407 0.554-0.035 1.166-0.057 1.8066-0.066zm18.115 0.2032c0.6402-0.01 1.3086-0.01 1.9785 0 1.3398 0.022 2.6769 0.08 3.7774 0.1758 0.5502 0.048 1.038 0.1069 1.4511 0.1738 0.4133 0.067 0.7235 0.1178 1.0606 0.2754 0.2881 0.1347 0.5616 0.3636 0.6973 0.6524 0.1349 0.2889 0.121 0.589 0.051 0.8339-0.1409 0.4901-0.4629 0.8471-0.8359 1.2032-0.7455 0.7116-1.767 1.3586-2.6328 1.7402-0.6856 0.3021-1.5032 0.3573-2.6367 0.4355-1.1336 0.077-2.495 0.1032-3.8614 0.092-1.3663-0.014-2.7373-0.066-3.8906-0.1679-1.1532-0.1026-2.0198-0.1955-2.709-0.502a0.8417 0.74713 0.64408 0 1 -0.2695 -0.1875c-0.2494-0.2629-0.3948-0.6105-0.4023-0.9375-0.01-0.3272 0.1077-0.6216 0.2578-0.8691 0.3006-0.4948 0.757-0.8673 1.2422-1.209 0.4852-0.3415 1.0068-0.6339 1.457-0.8535 0.2251-0.11 0.4295-0.2032 0.6113-0.2754 0.157-0.062 0.2817-0.1067 0.4571-0.1445-0.065 0.027-0.1308 0.042-0.1973 0.076l0.2734-0.094c-0.031 0.01-0.05 0.014-0.076 0.021 0.2873-0.1176 0.5697-0.1799 0.914-0.2325 0.4225-0.064 0.9226-0.1066 1.4766-0.1406 0.554-0.036 1.1644-0.059 1.8047-0.068zm18.109 0.205c0.6403-0.01 1.3106-0.01 1.9805 0 1.3397 0.022 2.6748 0.08 3.7753 0.1758 0.5503 0.048 1.04 0.107 1.4532 0.1739 0.4132 0.067 0.7292 0.1177 1.0664 0.2753 0.2881 0.1347 0.558 0.3656 0.6933 0.6543 0.1357 0.289 0.125 0.5872 0.055 0.8321-0.1409 0.4901-0.4629 0.8471-0.8359 1.2031-0.7455 0.7117-1.7669 1.3587-2.6328 1.7402-0.6856 0.3021-1.511 0.3573-2.6446 0.4356-1.1336 0.077-2.4891 0.1031-3.8554 0.092-1.3663-0.014-2.7354-0.064-3.8887-0.166-1.1532-0.1026-2.0218-0.1974-2.7109-0.5039a0.8417 0.74713 0.64408 0 1 -0.2696 -0.1875c-0.2493-0.2631-0.4006-0.6106-0.4082-0.9375-0.01-0.3272 0.1137-0.6216 0.2637-0.8692 0.3006-0.4948 0.757-0.8673 1.2422-1.209 0.4852-0.3415 1.001-0.6339 1.4512-0.8535 0.225-0.1103 0.4354-0.2032 0.6172-0.2754 0.1629-0.064 0.2823-0.1106 0.4668-0.1484 0.2837-0.1142 0.5637-0.1767 0.9042-0.2285 0.4225-0.064 0.9168-0.1066 1.4708-0.1407 0.554-0.035 1.1644-0.057 1.8046-0.066zm-4.1796 0.4356c-0.069 0.028-0.1348 0.04-0.2051 0.078l0.2656-0.094c-0.023 0-0.038 0.01-0.06 0.016zm22.293-0.2324c0.6419-0.01 1.3126-0.01 1.9824 0 1.3398 0.022 2.6769 0.08 3.7774 0.1757 0.5502 0.048 1.0399 0.107 1.4531 0.1739 0.4132 0.067 0.7234 0.1197 1.0606 0.2773 0.2881 0.1347 0.5596 0.3636 0.6953 0.6524 0.1349 0.2889 0.123 0.5871 0.053 0.832-0.141 0.4901-0.4629 0.849-0.8359 1.2051-0.7455 0.7116-1.767 1.3586-2.6328 1.7402-0.6856 0.3021-1.5031 0.3573-2.6368 0.4356-1.1335 0.077-2.4969 0.1031-3.8632 0.092-1.3664-0.014-2.7355-0.065-3.8887-0.1679-1.1533-0.1026-2.0218-0.1974-2.711-0.5039a0.8417 0.74713 0.64408 0 1 -0.2675 -0.1856c-0.2494-0.263-0.3948-0.6125-0.4024-0.9394 0-0.3272 0.1078-0.6197 0.2578-0.8672 0.3006-0.4949 0.7551-0.8673 1.2403-1.209 0.4851-0.3415 1.0088-0.6359 1.459-0.8555 0.2251-0.1099 0.4295-0.2012 0.6113-0.2734 0.1568-0.062 0.2804-0.1087 0.4551-0.1465-0.065 0.026-0.1292 0.042-0.1954 0.076l0.2735-0.094c-0.032 0.01-0.048 0.016-0.078 0.024 0.2877-0.1179 0.5693-0.1819 0.914-0.2344 0.4225-0.064 0.9167-0.1066 1.4707-0.1406 0.554-0.035 1.1667-0.057 1.8086-0.066zm18.113 0.2031c0.6402-0.01 1.3087-0.01 1.9785 0 1.3397 0.022 2.6769 0.08 3.7774 0.1758 0.5502 0.048 1.0399 0.107 1.4531 0.1739 0.4131 0.067 0.7234 0.1197 1.0605 0.2773 0.2881 0.1347 0.56 0.3636 0.6953 0.6523 0.1354 0.2889 0.1231 0.5891 0.053 0.834-0.141 0.4901-0.4629 0.8475-0.836 1.2032-0.7454 0.7117-1.7668 1.3586-2.6328 1.7402-0.6855 0.3021-1.5031 0.3573-2.6367 0.4355-1.1336 0.077-2.495 0.1032-3.8613 0.092-1.3663-0.014-2.7315-0.066-3.8848-0.1679-1.1532-0.1026-2.0256-0.1955-2.7148-0.502a0.8417 0.74713 0.64408 0 1 -0.2637 -0.1875c-0.2493-0.263-0.4006-0.6106-0.4082-0.9375 0-0.3272 0.1078-0.622 0.2578-0.8691 0.3006-0.4949 0.7629-0.8673 1.2481-1.209 0.4852-0.3416 1.001-0.6359 1.4511-0.8555 0.2251-0.1103 0.4354-0.2012 0.6172-0.2734 0.1561-0.062 0.2761-0.1068 0.4473-0.1446-0.064 0.027-0.128 0.04-0.1934 0.074l0.2735-0.094c-0.033 0.01-0.05 0.016-0.08 0.024 0.2884-0.1187 0.5702-0.1838 0.916-0.2364 0.4224-0.064 0.9226-0.1066 1.4766-0.1406 0.554-0.035 1.1664-0.057 1.8066-0.066zm18.109 0.2051c0.6402-0.01 1.3086-0.01 1.9785 0 1.3398 0.022 2.6768 0.08 3.7773 0.1757 0.5503 0.048 1.0401 0.107 1.4532 0.1739 0.4132 0.067 0.7292 0.1178 1.0664 0.2754 0.2881 0.1347 0.5596 0.3655 0.6953 0.6543 0.1353 0.2888 0.123 0.5871 0.053 0.832-0.141 0.4901-0.4609 0.8471-0.834 1.2031-0.7454 0.7116-1.7688 1.3587-2.6347 1.7403-0.6856 0.302-1.509 0.3573-2.6426 0.4355-1.1335 0.077-2.4891 0.1031-3.8555 0.092-1.3663-0.014-2.7373-0.064-3.8906-0.166-1.1532-0.1026-2.0198-0.1974-2.709-0.5039a0.8417 0.74713 0.64408 0 1 -0.2695 -0.1875c-0.2499-0.263-0.3948-0.6106-0.4024-0.9375-0.01-0.3272 0.1058-0.62 0.2559-0.8672 0.3005-0.4949 0.759-0.8693 1.2441-1.2109 0.4852-0.3416 1.0011-0.634 1.4512-0.8536 0.2251-0.1103 0.4354-0.2032 0.6172-0.2754 0.1582-0.062 0.2817-0.1067 0.459-0.1445-0.066 0.027-0.132 0.038-0.1992 0.076l0.2734-0.094c-0.029 0.01-0.048 0.014-0.074 0.022 0.2868-0.1168 0.5685-0.1799 0.9121-0.2324 0.4225-0.064 0.9147-0.1066 1.4687-0.1406 0.554-0.036 1.1664-0.057 1.8067-0.066zm18.113 0.2031c0.6419-0.01 1.3125-0.01 1.9824 0 1.3398 0.021 2.6749 0.08 3.7754 0.1758 0.5502 0.048 1.0418 0.1069 1.455 0.1738 0.4132 0.067 0.7215 0.1178 1.0586 0.2754 0.2882 0.1347 0.5597 0.3655 0.6954 0.6543 0.1356 0.2889 0.123 0.5871 0.053 0.832-0.141 0.4901-0.461 0.8471-0.834 1.2031-0.7455 0.7117-1.7689 1.3587-2.6348 1.7403-0.6855 0.3021-1.5051 0.3573-2.6386 0.4355-1.1337 0.077-2.4931 0.1032-3.8594 0.092-1.3663-0.014-2.7374-0.064-3.8906-0.166-1.1533-0.1026-2.0199-0.1974-2.709-0.5039a0.8417 0.74713 0.64408 0 1 -0.2696 -0.1875c-0.2494-0.2629-0.3947-0.6106-0.4023-0.9375-0.01-0.3272 0.1058-0.6196 0.2559-0.8672 0.3006-0.4948 0.7589-0.8693 1.2441-1.2109s1.0069-0.6339 1.457-0.8535c0.2251-0.11 0.4296-0.2032 0.6114-0.2754 0.1579-0.062 0.2817-0.1068 0.4589-0.1446-0.065 0.027-0.1319 0.038-0.1992 0.076l0.2735-0.094c-0.029 0.01-0.048 0.014-0.074 0.021 0.2868-0.1167 0.5686-0.1798 0.9122-0.2324 0.4224-0.064 0.9167-0.1066 1.4707-0.1406 0.554-0.035 1.1666-0.057 1.8086-0.066zm18.111 0.2031c0.6402-0.01 1.3106-0.01 1.9805 0 1.3397 0.021 2.6768 0.08 3.7773 0.1758 0.5503 0.048 1.0399 0.1069 1.4531 0.1738 0.4132 0.067 0.7234 0.1198 1.0606 0.2774 0.2881 0.1347 0.5576 0.3636 0.6933 0.6523 0.1353 0.2889 0.125 0.5891 0.055 0.834-0.141 0.4901-0.459 0.8471-0.832 1.2031-0.7455 0.7116-1.7649 1.3587-2.6309 1.7403-0.6855 0.302-1.5109 0.3573-2.6445 0.4355-1.1336 0.077-2.4872 0.1031-3.8535 0.092-1.3664-0.014-2.7394-0.066-3.8926-0.168-1.1532-0.1026-2.0257-0.1954-2.7148-0.5019a0.8417 0.74713 0.64408 0 1 -0.2637 -0.1875c-0.2492-0.263-0.3987-0.6106-0.4063-0.9375-0.01-0.3272 0.1117-0.622 0.2618-0.8692 0.3005-0.4949 0.757-0.8673 1.2421-1.2089 0.4852-0.3416 1.0011-0.6359 1.4512-0.8555 0.2251-0.1104 0.4374-0.2013 0.6192-0.2734 0.1578-0.062 0.2749-0.1068 0.4492-0.1446-0.065 0.027-0.1304 0.036-0.1973 0.074l0.2734-0.094c0.2619-0.099 0.5236-0.163 0.8379-0.2109 0.4225-0.064 0.9226-0.1067 1.4766-0.1407 0.554-0.035 1.1644-0.057 1.8047-0.066zm-126.75 0.068c-0.6177 0.01-1.2015 0.031-1.7187 0.062s-0.9707 0.074-1.3067 0.125c-0.3358 0.051-0.5783 0.1418-0.539 0.1191a0.8417 0.74713 0.64408 0 1 -0.2735 0.092c0.088-0.015-0.031 0.01-0.1582 0.059-0.1271 0.051-0.2946 0.1285-0.4843 0.2207-0.3791 0.185-0.8357 0.4388-1.2227 0.711-0.3841 0.2703-0.6932 0.5673-0.8047 0.748 0.3036 0.082 0.8808 0.2215 1.7989 0.3027 1.0823 0.096 2.413 0.1528 3.7382 0.1641 1.3253 0.013 2.6532-0.017 3.7168-0.09 1.0637-0.073 1.9542-0.2569 2.0215-0.2872 0.6392-0.2817 1.601-0.8914 2.1485-1.414 0.198-0.189 0.2505-0.3039 0.3144-0.4082-0.1017-0.028-0.1453-0.042-0.3535-0.076-0.3425-0.056-0.7954-0.1093-1.3145-0.1543-1.0382-0.09-2.3407-0.1472-3.6425-0.1699-0.651-0.01-1.3022-0.012-1.92 0zm18.109 0.2051c-0.6182 0.01-1.2036 0.029-1.7207 0.061-0.5172 0.031-0.9691 0.074-1.3047 0.125-0.3357 0.051-0.5725 0.1418-0.5332 0.1191a0.8417 0.74713 0.64408 0 1 -0.2734 0.092c0.088-0.015-0.031 0.01-0.1582 0.059-0.1273 0.051-0.3005 0.1285-0.4903 0.2207-0.379 0.185-0.8356 0.4385-1.2226 0.711-0.3841 0.2703-0.6893 0.5693-0.8008 0.75 0.3055 0.082 0.8854 0.2195 1.8008 0.3008 1.0824 0.096 2.413 0.1546 3.7383 0.166 1.3252 0.013 2.6472-0.019 3.7109-0.092 1.0636-0.073 1.9542-0.2569 2.0215-0.2871 0.6392-0.2817 1.6068-0.8915 2.1543-1.4141 0.1961-0.1868 0.2498-0.2953 0.3144-0.4004-0.1009-0.027-0.1469-0.05-0.3593-0.084-0.3426-0.055-0.7953-0.1089-1.3145-0.1543-1.0382-0.09-2.3407-0.1472-3.6426-0.1699-0.6509-0.011-1.3017-0.01-1.9199 0zm18.115 0.2031c-0.6181 0.01-1.2035 0.031-1.7207 0.062-0.5171 0.031-0.9667 0.074-1.3027 0.125s-0.5803 0.1418-0.541 0.1191a0.8417 0.74713 0.64408 0 1 -0.2715 0.092c0.088-0.015-0.033 0.01-0.1601 0.059-0.1273 0.05-0.3005 0.1285-0.4903 0.2207-0.3791 0.185-0.8357 0.4369-1.2226 0.709-0.3842 0.2704-0.6874 0.5693-0.7989 0.75 0.3036 0.082 0.8828 0.2195 1.8008 0.3008 1.0823 0.096 2.4111 0.1547 3.7363 0.166 1.3253 0.013 2.6473-0.019 3.711-0.092 1.0636-0.074 1.96-0.2569 2.0273-0.2871 0.6393-0.2817 1.601-0.8914 2.1485-1.4141 0.1976-0.1893 0.2505-0.3019 0.3144-0.4062-0.1013-0.028-0.141-0.042-0.3515-0.076-0.3425-0.056-0.7954-0.1113-1.3145-0.1562-1.0377-0.09-2.3414-0.1473-3.6426-0.17-0.6503-0.01-1.3024-0.012-1.92 0zm18.109 0.2051c-0.6178 0.01-1.2016 0.029-1.7187 0.06-0.5172 0.031-0.9687 0.074-1.3047 0.125s-0.5803 0.1418-0.541 0.1191a0.8417 0.74713 0.64408 0 1 -0.2715 0.092c0.088-0.015-0.033 0.01-0.1602 0.059-0.1273 0.051-0.2946 0.1285-0.4843 0.2207-0.3791 0.185-0.8337 0.4385-1.2207 0.711-0.3842 0.2704-0.6893 0.5674-0.8008 0.748 0.3057 0.082 0.878 0.2215 1.7929 0.3028 1.0824 0.096 2.4209 0.1527 3.7461 0.164 1.3253 0.013 2.6453-0.019 3.709-0.092s1.9542-0.2549 2.0215-0.2851c0.6393-0.2818 1.6009-0.8915 2.1484-1.4141 0.1977-0.1889 0.2506-0.3039 0.3145-0.4082-0.1013-0.028-0.1433-0.042-0.3516-0.076-0.3424-0.056-0.7953-0.1089-1.3144-0.1543-1.0383-0.09-2.3427-0.1472-3.6446-0.1699-0.6509-0.01-1.3021-0.01-1.9199 0zm18.109 0.2031c-0.6182 0.01-1.2016 0.029-1.7188 0.061-0.5171 0.031-0.9686 0.074-1.3046 0.125-0.3358 0.051-0.5726 0.1418-0.5332 0.1192a0.8417 0.74713 0.64408 0 1 -0.2735 0.092c0.088-0.015-0.033 0.01-0.1601 0.059-0.1273 0.051-0.2986 0.1304-0.4883 0.2226-0.3791 0.185-0.8356 0.4369-1.2227 0.709-0.3841 0.2704-0.6893 0.5693-0.8008 0.75 0.3055 0.082 0.8854 0.2195 1.8008 0.3008 1.0824 0.096 2.4131 0.1547 3.7383 0.166 1.3253 0.013 2.6453-0.019 3.709-0.092 1.0636-0.073 1.9542-0.2569 2.0215-0.2871 0.6392-0.2817 1.6088-0.8914 2.1562-1.4141 0.1977-0.1893 0.2506-0.3019 0.3145-0.4062-0.1009-0.027-0.145-0.044-0.3555-0.078-0.3425-0.056-0.7993-0.1094-1.3183-0.1543-1.0382-0.09-2.3408-0.1473-3.6426-0.17-0.6509-0.01-1.3037-0.01-1.9219 0zm18.115 0.2031c-0.6177 0.01-1.2016 0.031-1.7187 0.062-0.5172 0.031-0.9671 0.074-1.3028 0.125-0.336 0.051-0.5803 0.1418-0.541 0.1191a0.8417 0.74713 0.64408 0 1 -0.2734 0.092c0.088-0.015-0.033 0.01-0.1602 0.059-0.1272 0.05-0.2985 0.1285-0.4882 0.2207-0.3791 0.185-0.8298 0.4369-1.2168 0.709-0.3842 0.2704-0.6952 0.5694-0.8067 0.75 0.3036 0.082 0.8828 0.2195 1.8008 0.3008 1.0823 0.096 2.413 0.1547 3.7383 0.166 1.3252 0.013 2.6531-0.019 3.7168-0.092s1.9542-0.2568 2.0215-0.2871c0.6392-0.2817 1.6009-0.8914 2.1484-1.414 0.1977-0.189 0.2506-0.302 0.3145-0.4063-0.1017-0.028-0.1453-0.044-0.3536-0.078-0.3425-0.056-0.7953-0.1093-1.3144-0.1543-1.0383-0.09-2.3427-0.1473-3.6445-0.1699-0.651-0.01-1.3022-0.012-1.92 0zm18.109 0.2031c-0.6178 0.01-1.2016 0.031-1.7187 0.062-0.5173 0.031-0.9687 0.074-1.3047 0.125-0.3362 0.051-0.5784 0.1419-0.5391 0.1192a0.8417 0.74713 0.64408 0 1 -0.2676 0.092c0.088-0.015-0.039 0.01-0.166 0.059-0.1274 0.051-0.2927 0.1284-0.4824 0.2207-0.3791 0.1849-0.8357 0.4388-1.2227 0.7109-0.384 0.2704-0.6873 0.5674-0.7988 0.7481 0.3058 0.082 0.8781 0.2195 1.793 0.3007 1.0823 0.096 2.4208 0.1547 3.7461 0.166 1.3252 0.013 2.6433-0.019 3.707-0.092s1.9562-0.255 2.0234-0.2852c0.6392-0.2817 1.601-0.8934 2.1485-1.416 0.1965-0.1875 0.256-0.2953 0.3203-0.4004-0.1009-0.027-0.147-0.048-0.3594-0.082-0.3425-0.056-0.7953-0.1094-1.3144-0.1543-1.0382-0.09-2.3427-0.1473-3.6446-0.17-0.6509-0.01-1.3021-0.012-1.9199 0zm18.111 0.2051c-0.6177 0.01-1.2035 0.031-1.7207 0.062-0.5171 0.031-0.9628 0.074-1.2988 0.125-0.3358 0.051-0.5784 0.1399-0.5391 0.1172a0.8417 0.74713 0.64408 0 1 -0.2734 0.094c0.088-0.015-0.031 0.01-0.1582 0.059-0.1273 0.05-0.3005 0.1285-0.4902 0.2207-0.3791 0.185-0.8356 0.4365-1.2227 0.709-0.3841 0.2704-0.6873 0.5694-0.7988 0.75 0.3035 0.082 0.8807 0.2196 1.7988 0.3008 1.0823 0.096 2.415 0.1547 3.7402 0.166 1.3253 0.013 2.6454-0.019 3.709-0.092 1.0637-0.073 1.9542-0.2568 2.0215-0.2871 0.6392-0.2817 1.6068-0.8914 2.1543-1.414 0.1984-0.189 0.2506-0.302 0.3145-0.4063-0.101-0.028-0.143-0.044-0.3536-0.078-0.3425-0.056-0.7953-0.109-1.3144-0.1543-1.0377-0.09-2.3472-0.1472-3.6484-0.1699-0.6502-0.01-1.3008-0.012-1.918 0zm-42.797 1.8555c1e-4 0.01 0 0.013 0 0.014l0.01-0.01c0 1e-4 0-0.01 0.012 0l-0.01-0.01h-0.012zm71.389 0.2812v4.1524c-0.1707 0.2516-0.3649 0.5125-0.539 0.7656-0.7771 0.09-1.5503 0.1938-2.3184 0.3105-7.0623 10.743-14.3 19.5-24.611 27.051 0.4653 0.5216 0.9789 1.0293 1.539 1.5215-1.5363 1.4203-3.1223 2.8473-4.7656 4.2793v-4.3906c17.415-13.857 24.19-24.481 30.695-33.69zm-149.91 2.7461c0.6419-0.01 1.3145-0.01 1.9844 0 1.3398 0.022 2.6749 0.086 3.7754 0.1816 0.5502 0.048 1.0399 0.1011 1.4531 0.168 0.4132 0.067 0.7234 0.1256 1.0606 0.2832 0.2881 0.1347 0.5592 0.3597 0.6953 0.6484 0.1353 0.2889 0.123 0.5926 0.053 0.8379-0.141 0.4901-0.4629 0.8471-0.8359 1.2031-0.7454 0.7117-1.767 1.3529-2.6328 1.7344-0.6855 0.3025-1.5052 0.3593-2.6387 0.4375-1.1336 0.077-2.4931 0.1071-3.8594 0.096-1.3664-0.013-2.7393-0.072-3.8926-0.1738-1.1532-0.1026-2.0178-0.1954-2.707-0.502a0.8417 0.74713 0.64408 0 1 -0.2715 -0.1875c-0.2492-0.2629-0.3928-0.6105-0.4004-0.9375-0.01-0.3272 0.1058-0.6161 0.2559-0.8632 0.3006-0.4949 0.757-0.8732 1.2422-1.2149 0.4852-0.3416 1.0088-0.63 1.459-0.8496 0.2251-0.1104 0.4295-0.2012 0.6113-0.2734 0.089-0.035 0.1808-0.05 0.2597-0.076 0.3599-0.189 0.6889-0.2389 1.1114-0.3027 0.4224-0.064 0.9148-0.1106 1.4687-0.1446 0.5541-0.036 1.1667-0.057 1.8086-0.066zm20.123 0.2285c0.6394-0.01 1.3085-0.01 1.9765 0a0.8417 0.74713 0.64408 0 1 0.01 0c1.1687 0.02 2.2835 0.079 3.2812 0.1563 2.0706-0.1296 4.8979-0.084 7.0723 0.078h0.016c0-4e-4 -0.01 0-0.014 0 1.4178-0.084 3.1384-0.073 4.8242-0.023h0.051c1.8457-0.043 3.9222 0.016 5.6191 0.1426 2.0733-0.1304 4.9031-0.082 7.0801 0.08 2.0732-0.1304 4.9053-0.082 7.082 0.08 2.0715-0.1301 4.9046-0.084 7.0801 0.078h0.018c0-4e-4 -0.01 0-0.018 0 1.6412-0.1058 3.7911-0.1021 5.7012-0.016 0.9762 0.044 1.8846 0.1083 2.6289 0.1934 0.7442 0.085 1.2539 0.133 1.7675 0.373 0.2882 0.1348 0.5612 0.3597 0.6973 0.6485 0.1357 0.2887 0.123 0.5926 0.053 0.8378-0.1406 0.4902-0.4574 0.8471-0.83 1.2032-0.745 0.712-1.7667 1.3527-2.6328 1.7343-0.5063 0.2234-1.0595 0.2928-1.8008 0.3692-0.7413 0.076-1.6259 0.1277-2.584 0.1504-1.8726 0.048-3.9898 0-5.7012-0.1426-2.1398 0.1247-4.9188 0.093-7.0801-0.08-2.1398 0.1247-4.9186 0.093-7.08-0.08-2.18 0.127-5.0375 0.1006-7.2149-0.082-1.5672 0.09-3.4458 0.1086-5.1953 0.039-1.7419 0.029-3.6074-0.03-5.1621-0.1543-2.1794 0.127-5.0384 0.099-7.2148-0.082-1.6843 0.093-3.7499 0.1015-5.5938 0.016-0.9438-0.044-1.8198-0.1102-2.5605-0.2032-0.7408-0.093-1.3106-0.1801-1.8106-0.4023a0.8417 0.74713 0.64408 0 1 -0.2715 -0.1875c-0.2496-0.263-0.3928-0.6106-0.4004-0.9375-0.01-0.3273 0.1058-0.622 0.2559-0.8691 0.3005-0.495 0.7569-0.8674 1.2422-1.209 0.4852-0.3417 1.0087-0.6355 1.459-0.8555 0.225-0.11 0.4295-0.2012 0.6113-0.2734 0.1579-0.062 0.2813-0.1068 0.459-0.1446-0.066 0.027-0.1335 0.037-0.2012 0.074l0.2734-0.094c0.2623-0.099 0.5253-0.1612 0.8399-0.209 0.4225-0.064 0.9146-0.1124 1.4687-0.1465 0.5524-0.034 1.1633-0.053 1.8028-0.062zm65.82 0.7364c0.6419-0.01 1.3126-0.01 1.9824 0 1.3397 0.022 2.6749 0.086 3.7754 0.1816 0.5503 0.048 1.0399 0.1011 1.4531 0.168 0.4132 0.067 0.7234 0.1256 1.0606 0.2832 0.2881 0.1347 0.5596 0.3577 0.6953 0.6465 0.1349 0.2889 0.123 0.5926 0.053 0.8379-0.141 0.4901-0.4629 0.8471-0.8359 1.2031-0.7455 0.7116-1.7669 1.3528-2.6328 1.7344-0.6856 0.3024-1.5032 0.3592-2.6368 0.4375-1.1336 0.077-2.497 0.109-3.8632 0.098-1.3664-0.013-2.7354-0.072-3.8887-0.1738-1.1533-0.1025-2.0198-0.1954-2.709-0.502a0.8417 0.74713 0.64408 0 1 -0.2715 -0.1894c-0.2497-0.263-0.3928-0.6106-0.4004-0.9375 0-0.3272 0.1078-0.6138 0.2578-0.8613 0.3006-0.4949 0.7551-0.8732 1.2403-1.2149 0.4852-0.3415 1.0088-0.63 1.459-0.8496 0.225-0.11 0.4275-0.2012 0.6093-0.2734 0.089-0.035 0.1828-0.05 0.2618-0.076 0.3598-0.189 0.6888-0.2389 1.1113-0.3027 0.4224-0.064 0.9167-0.1106 1.4707-0.1446 0.554-0.036 1.1667-0.058 1.8086-0.068zm-85.91 0.5273c-0.6177 0.01-1.2016 0.031-1.7187 0.062-0.5171 0.032-0.9707 0.076-1.3067 0.127-0.3359 0.051-0.5783 0.1457-0.539 0.123a0.8417 0.74713 0.64408 0 1 -0.2657 0.086c0.088-0.015-0.039 0.011-0.166 0.061-0.1273 0.05-0.2927 0.1265-0.4824 0.2187-0.3791 0.1851-0.8376 0.4428-1.2246 0.7149-0.3841 0.2704-0.6873 0.5693-0.7988 0.75 0.3058 0.082 0.8801 0.2156 1.7949 0.2969 1.0823 0.096 2.4189 0.1546 3.7441 0.166 1.3253 0.013 2.6454-0.021 3.709-0.094 1.0637-0.073 1.9542-0.2568 2.0215-0.2871 0.6392-0.2816 1.6029-0.8895 2.1504-1.4121 0.1977-0.1889 0.2564-0.298 0.3203-0.4023-0.1009-0.027-0.1493-0.044-0.3613-0.078-0.3426-0.055-0.7954-0.1089-1.3145-0.1543-1.0382-0.09-2.3407-0.1531-3.6426-0.1757-0.6509-0.01-1.3021-0.012-1.9199 0zm20.129 0.2168c-0.6179 0.01-1.2017 0.031-1.7187 0.062s-0.9687 0.074-1.3047 0.125-0.58 0.1399-0.541 0.1172a0.8417 0.74713 0.64408 0 1 -0.2715 0.094c0.088-0.015-0.033 0.01-0.1602 0.061-0.1273 0.05-0.2927 0.1226-0.4824 0.2148-0.379 0.185-0.8355 0.442-1.2226 0.7149-0.3871 0.2725-0.7033 0.5756-0.8125 0.7558v0.01c0.2203 0.06 0.4744 0.1318 0.9785 0.1953 0.6668 0.084 1.5053 0.1568 2.414 0.1972 1.8174 0.086 3.9167 0.079 5.5313-0.016a0.8417 0.74713 0.64408 0 1 0.1348 0c2.0526 0.1715 4.8823 0.1987 6.9472 0.078a0.8417 0.74713 0.64408 0 1 0.1328 0c1.4886 0.124 3.3782 0.1767 5.1055 0.1465a0.8417 0.74713 0.64408 0 1 0.057 0c1.7441 0.072 3.6683 0.059 5.1895-0.031a0.8417 0.74713 0.64408 0 1 0.1328 0c2.0525 0.1716 4.8812 0.1987 6.9473 0.078a0.8417 0.74713 0.64408 0 1 0.1328 0c2.0521 0.1716 4.8892 0.1987 6.9551 0.078a0.8417 0.74713 0.64408 0 1 0.1328 0c2.0523 0.1716 4.8811 0.1983 6.9472 0.078a0.8417 0.74713 0.64408 0 1 0.1329 0c1.6326 0.1365 3.7763 0.182 5.623 0.1347 0.9233-0.024 1.7716-0.072 2.4395-0.1406 0.668-0.069 1.1981-0.1941 1.248-0.2168 0.639-0.2816 1.6035-0.8973 2.1504-1.4199 0.1916-0.1833 0.2409-0.2832 0.3066-0.3887-0.1408-0.031-0.423-0.1115-0.9726-0.1738-0.6784-0.077-1.5532-0.1447-2.4981-0.1856-1.8897-0.085-4.072-0.089-5.6074 0.014a0.8417 0.74713 0.64408 0 1 -0.1328 0.01c-2.122-0.1602-5.0153-0.2159-6.9473-0.086a0.8417 0.74713 0.64408 0 1 -0.1386 0.01c-2.1221-0.1603-5.0095-0.2136-6.9414-0.084a0.8417 0.74713 0.64408 0 1 -0.1387 0.01c-2.1222-0.1603-5.0153-0.216-6.9473-0.086a0.8417 0.74713 0.64408 0 1 -0.1348 0.01c-1.644-0.1213-3.7061-0.1817-5.4902-0.1386a0.8417 0.74713 0.64408 0 1 -0.051 0c-1.719-0.05-3.4762-0.061-4.8105 0.027a0.8417 0.74713 0.64408 0 1 -0.1387 0c-2.1219-0.1602-5.0104-0.2159-6.9414-0.086a0.8417 0.74713 0.64408 0 1 -0.1406 0.01c-0.9678-0.075-2.0453-0.1335-3.1738-0.1524v-0.017c-0.6505-0.012-1.302-0.012-1.92 0zm65.814 0.7481c-0.6178 0.01-1.2016 0.031-1.7188 0.062-0.5171 0.031-0.971 0.076-1.3066 0.1269-0.3359 0.051-0.5784 0.1457-0.5391 0.1231a0.8417 0.74713 0.64408 0 1 -0.2734 0.086c0.088-0.015-0.031 0.011-0.1582 0.06-0.1272 0.05-0.2947 0.1266-0.4844 0.2188-0.379 0.185-0.8356 0.4447-1.2226 0.7168-0.3842 0.2704-0.6932 0.5674-0.8047 0.748 0.3036 0.082 0.8808 0.2153 1.7988 0.2969 1.0823 0.096 2.4111 0.1547 3.7363 0.166 1.3253 0.013 2.6532-0.021 3.7168-0.094 1.0637-0.073 1.9562-0.2549 2.0235-0.2852 0.6391-0.2816 1.599-0.8914 2.1464-1.414 0.1973-0.1879 0.2526-0.2977 0.3165-0.4024-0.1013-0.027-0.1449-0.042-0.3536-0.076-0.3425-0.055-0.7953-0.1093-1.3144-0.1543-1.0383-0.09-2.3407-0.1531-3.6426-0.1757-0.6509-0.01-1.3022-0.012-1.9199 0zm-49.865 5.0136c1.1905 0 2.396 0.01 3.6016 0.027 4.8225 0.087 9.651 0.363 13.602 0.7949 1.9752 0.2158 3.7283 0.4697 5.1679 0.7656 1.4397 0.2961 2.5484 0.6008 3.3614 1.0762 1.5069 0.8808 2.0363 2.4181 1.8047 3.8965-0.2318 1.4785-1.0713 3.0091-2.1973 4.5371-2.2519 3.056-5.6952 6.0601-8.4727 7.7285-1.7223 1.0348-4.7778 1.5138-8.791 1.8906-4.0132 0.3767-8.8957 0.5419-13.809 0.4981-4.9129-0.044-9.8477-0.2973-13.982-0.7598-4.1346-0.4624-7.4034-1.0604-9.2988-2.1152a1.0004 0.88804 0.64408 0 1 -0.2871 -0.2403c-1.3042-1.6467-1.298-3.6022-0.586-5.3769s2.0766-3.4636 3.6192-4.9746c1.5425-1.511 3.2705-2.841 4.7578-3.834 0.7436-0.4965 1.421-0.9073 2-1.2188 0.5052-0.2718 0.8879-0.4594 1.3047-0.5781 0.7847-0.5018 1.8148-0.8059 3.1308-1.0742 1.4235-0.2906 3.1613-0.5094 5.1211-0.6738 2.9397-0.2455 6.3818-0.3614 9.9531-0.3692zm-18.205 2.1172c-0.064 0.041-0.1388 0.075-0.1992 0.1192l0.3828-0.17c-0.063 0.014-0.1224 0.032-0.1836 0.051zm18.215-0.3437c-3.5259 0.01-6.9139 0.1246-9.7676 0.3632-1.9023 0.1592-3.5708 0.3714-4.8613 0.6348-1.2904 0.2634-2.2146 0.62-2.5215 0.8418a1.0004 0.88804 0.64408 0 1 -0.3828 0.1699c-0.01 0-0.4428 0.1626-0.9473 0.4336-0.5045 0.2712-1.1377 0.653-1.8359 1.1192-1.3964 0.9323-3.048 2.2023-4.4824 3.6074s-2.6416 2.9546-3.2129 4.3789c-0.5439 1.3561-0.4502 2.4954 0.3203 3.5762 1.3052 0.6602 4.3089 1.3589 8.207 1.7949 4.0271 0.4503 8.9126 0.701 13.762 0.7441 4.8492 0.043 9.6699-0.1216 13.574-0.4883 3.9043-0.3666 6.9794-1.0459 7.8847-1.5898 2.4781-1.4886 5.8564-4.4359 7.92-7.2363 1.0318-1.4003 1.7289-2.7731 1.8925-3.8164 0.1636-1.0434-0.047-1.6465-0.9257-2.1602-0.3797-0.222-1.3692-0.5533-2.7051-0.8281-1.3359-0.2747-3.0388-0.5258-4.9668-0.7363-3.856-0.4218-8.6307-0.6974-13.394-0.7813-1.191-0.022-2.3814-0.03-3.5567-0.027zm119.52 7.6914c3.4384 0.043 6.0565 1.461 6.0567 3.2812 8e-4 1.9575-3.0119 3.6664-6.7285 3.8164-3.7157 0.1503-6.7281-1.3144-6.7286-3.2715 0-1.9569 3.0135-3.6645 6.7286-3.8144 0.2243-0.01 0.4485-0.014 0.6718-0.012z" fill="#71a7cf" fill-opacity=".99608" fill-rule="evenodd" style="paint-order:normal"/>
</g>
</svg>
