<?xml version="1.0" encoding="UTF-8"?>
<svg version="1.1" viewBox="0 0 256 128.93" xmlns="http://www.w3.org/2000/svg" xmlns:cc="http://creativecommons.org/ns#" xmlns:dc="http://purl.org/dc/elements/1.1/" xmlns:rdf="http://www.w3.org/1999/02/22-rdf-syntax-ns#">
<metadata>
<rdf:RDF>
<cc:Work rdf:about="">
<dc:format>image/svg+xml</dc:format>
<dc:type rdf:resource="http://purl.org/dc/dcmitype/StillImage"/>
</cc:Work>
</rdf:RDF>
</metadata>
<path d="m1.7295e-8 64.465c3.7795e-4 -35.603 24.777-64.465 55.342-64.465 22.273 0 42.362 15.605 50.978 39.53h137.08l12.599 24.935-23.052 24.935-13.443-3.6492-13.445 7.2984-13.443-9.7313-13.445 6.0821-13.443-7.2984-13.445 7.2984-13.443-6.0821-14.524 5.4738-17.947 0.60835c-8.6222 23.946-28.736 39.529-51.028 39.532-30.565-4.9e-4 -55.343-28.864-55.342-64.467zm21.894 0c-3.78e-4 7.3897 6.534 13.381 14.595 13.381 8.0614-4.54e-4 14.596-5.9913 14.595-13.381-7.56e-4 -7.3887-6.5352-13.378-14.595-13.379-8.0602 4.54e-4 -14.594 5.9899-14.595 13.379zm106.16-8.3541v7.2966h121.71l-3.6-7.2966z" fill="#71a7cf" fill-rule="evenodd" style="paint-order:normal"/>
</svg>
