<?xml version="1.0" encoding="UTF-8"?>
<svg version="1.1" width="256" height="256" viewBox="0 0 256 256" xmlns="http://www.w3.org/2000/svg" xmlns:cc="http://creativecommons.org/ns#" xmlns:dc="http://purl.org/dc/elements/1.1/" xmlns:rdf="http://www.w3.org/1999/02/22-rdf-syntax-ns#">
<metadata>
<rdf:RDF>
<cc:Work rdf:about="">
<dc:format>image/svg+xml</dc:format>
<dc:type rdf:resource="http://purl.org/dc/dcmitype/StillImage"/>
</cc:Work>
</rdf:RDF>
</metadata>
<path d="m128 0a128 128 0 0 0 -128 128 128 128 0 0 0 128 128 128 128 0 0 0 128 -128 128 128 0 0 0 -128 -128zm-71.695 45.57c17.965 0.81789 48.921 14.437 50.691 53.367 0.30463 6.7015-3.7878 7.179-3.1641 11.084 2.7454 17.187 14.337 23.513 13.916 28.824-0.8228 6.0769-6.3378 4.3045-10.021 7.0801-1.337 2.6402 0.49262 8.2461 1.2636 11.896 7.5405 8.9093-16.841 10.897-18.654 13.102-0.29972 7.4225 26.626 2.3054 19.098 9.6484-6.1229 15.752 6.2686 21.601 2.0566 28.578-7.0429 11.666-25.518 5.5868-49.309 3.4395-26.24-20.722-41.588-52.426-41.635-86.01 0.046866-30.873 13.033-60.292 35.758-81.01zm144.45 10.422c2.7708 0.09298 5.4939 1.019 7.6406 2.8984 16.398 19.815 25.319 45.46 25.477 71.053-0.0575 10.925-1.6467 21.796-4.7344 32.311-3.3009 10.597-7.8468 20.863-14.07 30.129-3.8114 7.6508-12.085 15.503-21.186 10.527-9.1378-4.4987-7.5943-16.811-1.1504-22.973 19.193-26.578 20.646-64.101 4.6211-92.514-3.4702-7.2998-12.245-13.663-9.6446-22.568 1.397-5.3509 6.5745-8.5801 11.857-8.8515 0.39621-0.0189 0.79362-0.02646 1.1894-0.01134zm-41.014 30.738c2.3437-0.04838 4.6884 0.55612 6.7325 1.9746 11.037 10.642 16.094 26.4 16.311 41.434-8e-3 8.5737-1.8114 17.134-5.2129 25.016-3.6467 7.1071-7.2454 16.499-16.072 18.264-9.4856 2.0718-17.892-9.1361-13.738-17.613 7.4411-9.3276 11.355-21.738 8.6777-33.543-0.79812-8.3326-8.0309-13.956-9.6836-21.859-1.0736-7.5103 5.9553-13.527 12.986-13.672z" fill="#71a7cf" fill-rule="evenodd" style="paint-order:normal"/>
</svg>
