<?xml version="1.0" encoding="UTF-8"?>
<svg version="1.1" viewBox="0 0 256 256" xmlns="http://www.w3.org/2000/svg" xmlns:cc="http://creativecommons.org/ns#" xmlns:dc="http://purl.org/dc/elements/1.1/" xmlns:rdf="http://www.w3.org/1999/02/22-rdf-syntax-ns#">
<metadata>
<rdf:RDF>
<cc:Work rdf:about="">
<dc:format>image/svg+xml</dc:format>
<dc:type rdf:resource="http://purl.org/dc/dcmitype/StillImage"/>
</cc:Work>
</rdf:RDF>
</metadata>
<path d="m128 0a128 128 0 0 0 -128 128 128 128 0 0 0 128 128 128 128 0 0 0 128 -128 128 128 0 0 0 -128 -128zm1.4993 3.4566-2e-3 0.00193c18.76 0.16063 37.472 4.4691 54.285 13.164l0.0151 0.0076c43.586 21.354 71.812 69.783 68.469 118.3-2.1199 51.473-39.7 98.623-89.176 112.58l-0.0151 8e-3c-13.693 4.0471-28.051 5.5841-42.276 4.8477-48.753-2.2675-93.901-36-109.96-82.13-17.142-46.027-3.7365-101.31 33.009-134.04l0.0076-0.0076 0.02268-0.02268c22.959-21.709 54.358-32.97 85.621-32.703zm-0.0302 2.9455c-1.1835-0.011339-2.3568 0.20598-3.5403 0.2298 5.8279-0.087685 11.657 0.065386 17.437 0.74869-4.6098-0.58133-9.2479-0.94072-13.897-0.97863zm-14.796 0.96155c-4.8812 0.52766-9.6853 1.465-14.465 2.5787 4.7855-1.1081 9.5814-2.0382 14.465-2.5787zm11.81 1.7179c-1.9236 0.00121-3.8504 0.057071-5.777 0.17083v0.00189c-1.1588 0.068409-2.2624 0.50789-3.4186 0.60998 2.3665 0.45789 4.6005 1.5583 6.5219 3.3978 4.053-2.4684 9.9481-3.1558 15.349-2.3069 2.924 0.45955 5.6469 1.3298 7.7495 2.7232 1.7786 1.1786 3.1483 2.8738 3.4776 4.9066 4.0652 0.58318 7.8982 1.3387 11.43 2.2462-0.19011-0.38789-0.32655-0.79956-0.37814-1.2504-0.0828-0.72185 0.12926-1.5358 0.60997-2.1321 0.48042-0.59641 1.1449-0.97406 1.8965-1.2219 0.51799-0.17083 1.4877 0.0076 2.1264-0.05707-12.764-4.411-26.122-7.0968-39.588-7.0882zm26.717 0.14249c4.551 0.973 9.0369 2.2029 13.441 3.6961-4.4033-1.5024-8.8786-2.7489-13.441-3.6961zm13.441 3.6961c2.0126 0.6867 4.0117 1.4216 5.9936 2.2158-1.9784-0.79903-3.978-1.5324-5.9936-2.2158zm-56.829-1.7274c-7.3769 1.1278-14.576 2.6835-21.597 5.1936 0.53476 0.04951 1.0212-0.24605 1.5639-0.10847l-0.32315-0.04384c4.7173 0.11641 5.5073-0.30463 9.5093-0.34394a1.4596 1.4596 0 0 1 1.2219 0.63851c0.0918-0.08277 0.15609-0.13758 0.25096-0.22261 1.0625-0.94719 2.2426-2.0143 3.6771-2.5502 0.71732-0.26797 1.6279-0.40645 2.5009-0.0076 0.19124 0.08769 0.2177 0.35565 0.38003 0.48268 0.89253-1.1417 1.7696-2.3277 2.8163-3.0386zm5.3342 1.0984c-2.459 0.08239-4.8901 1.3971-6.9381 4.8325a1.4596 1.4596 0 0 1 -2.6509 -0.31559c-0.0726-0.23358-0.12889-0.34129-0.1595-0.38952-0.0401 0.0037-0.11981 0.0189-0.26419 0.07446-0.59777 0.22337-1.745 1.0922-2.7516 1.9897-0.50332 0.4487-0.98453 0.89639-1.4347 1.2846-0.45018 0.3882-0.77934 0.71418-1.4233 0.97678-0.32202 0.13115-0.94995 0.32239-1.6229-0.10091-0.67313-0.42323-0.77953-1.0977-0.79056-1.4784-0.0033-0.09865 0.06123-0.20107 0.06463-0.29443-2.3933 0.12284-3.8194 0.37758-7.7913 0.27931a1.4596 1.4596 0 0 1 -0.32504 -0.04195c-3.5234-0.89397-7.4636 1.1148-11.318 3.3465-1.9274 1.1158-3.7971 2.252-5.6591 2.974-1.862 0.72204-3.893 1.051-5.7105 0.08542a1.4596 1.4596 0 0 1 -0.6974 -1.7521c-7.0463 4.1955-13.816 8.8595-19.822 14.543a1.4596 1.4596 0 0 1 -0.03024 0.03024c-26.609 23.689-40.485 59.64-39.071 94.961 0.018898-0.14854 0.030236-0.31219 0.049134-0.45608 0.15987-1.0548 0.38396-1.9745 0.81906-2.7801 0.2177-0.40283 0.49474-0.79197 0.91971-1.106 0.42501-0.31445 1.0335-0.51122 1.6077-0.46749 1.1482 0.0877 1.9141 0.8047 2.6661 1.7388 0.72642 0.90237 1.4699 2.1778 2.2899 3.8634 2.9977 2.3218 4.4565 5.4869 5.8188 8.2892 1.4263 2.934 2.8009 5.396 5.8378 6.8887 0.98718-0.0986 1.9791-0.20976 2.7726 0.19389 1.0505 0.53424 1.7282 1.5198 2.0827 2.5484 0.7087 2.0572 0.52653 4.5142 0.25852 7.1604-0.26797 2.6462-0.6929 5.4583-0.79623 7.8521-0.10318 2.3938 0.21694 4.3028 0.81902 5.0986a1.4596 1.4596 0 0 1 0.1062 0.16554c6.5577 11.666 16.013 22.29 27.481 29.067a1.4596 1.4596 0 0 1 0.48076 0.47316c10.53 16.476 23.388 32.261 41.134 40.401a1.4596 1.4596 0 0 1 -0.9064 2.7574c-40.958-8.37-75.102-40.783-87.932-80.399 0.49818 1.5394 0.75428 3.1421 1.3207 4.6615a1.4596 1.4596 0 0 1 0.01512 0.0302c15.645 44.94 59.848 77.961 107.34 80.169a1.4596 1.4596 0 0 1 8e-3 0c13.923 0.72148 27.959-0.783 41.319-4.7337a1.4596 1.4596 0 0 1 0.0151 -8e-3c48.212-13.588 85.033-59.784 87.078-109.93a1.4596 1.4596 0 0 1 0 -0.0438c3.0606-44.426-21.368-88.695-59.564-111.16 2.24 1.6524 4.0538 3.1324 4.9997 4.6254 0.23887 0.3772 0.4537 0.77178 0.51697 1.3283 0.0189 0.1697-1e-3 0.36321-0.0401 0.56062 0.0642-0.21354 0.17084-0.43113 0.33638-0.60998 0.34394-0.37153 0.76365-0.48435 1.0414-0.51122 0.55521-0.05367 0.83187 0.07484 1.1856 0.20901 0.35527 0.13417 0.74683 0.32353 1.2219 0.58912a1.4596 1.4596 0 0 1 0.61757 1.8737c-0.20409 0.45948-0.64894 0.91234-1.1573 1.0984-0.50834 0.18709-0.97512 0.1372-1.3281 0.0378-0.7064-0.19805-1.124-0.53609-1.5014-0.98438-0.1886-0.22413-0.42365-0.42622-0.48843-1.0775-0.0151-0.1508 8.7e-4 -0.34847 0.0533-0.55302-0.0983 0.42724-0.31068 0.86687-0.64422 1.1421-1.0135 0.83679-1.949 0.64554-3.183 0.45989a1.4596 1.4596 0 0 1 -0.60997 -0.23773c-2.8389-1.9493-5.2644-2.2632-7.3618-1.7084-0.50597 0.1338-0.9961 0.32655-1.469 0.56632 2.3207 2.2623 3.603 4.7146 3.603 7.2801 0 3.569-2.4641 6.9235-6.7879 9.8437 1.6297 0.51643 2.8023 1.6386 3.2818 2.9645 0.61542 1.7009 0.33562 3.502-0.3001 5.0283-0.63587 1.5263-1.5959 2.9046-3.2115 3.4111-0.80807 0.25323-1.8321 0.15232-2.6149-0.36472-0.68009-0.44908-1.1263-1.2-1.5298-2.0409-1.2735-0.86196-2.3456-2.0266-3.3255-3.3389-0.32693-0.43771-0.63432-0.87024-0.94829-1.3074-2.7841 1.072-5.8756 2.0321-9.2299 2.8581-0.26494 0.8135-0.42107 1.6378-0.41427 2.3412 0.0113 1.1386 0.33865 1.7568 0.77533 1.9973 0.43661 0.24038 1.5224 0.36435 3.6258-0.71074a1.4596 1.4596 0 0 1 2.1055 1.5298c-0.0714 0.44587 0.0662 1.0294 0.52453 1.8319 0.4583 0.80251 1.2048 1.7468 2.0599 2.765 1.7102 2.0365 3.8698 4.3513 4.7774 7.2687a1.4596 1.4596 0 0 1 -2.1759 1.6647c-2.8865-1.8344-4.6129-1.6997-5.8606-0.91782-1.2477 0.78183-2.214 2.6045-2.5369 4.8192-0.32277 2.2147 0.0113 4.7206 0.89885 6.5276 0.88781 1.807 2.1089 2.8611 3.9926 2.8942a1.4596 1.4596 0 0 1 1.1782 2.2918c-0.2589 0.37304-0.52849 0.73962-0.79816 1.106 6.4339 0.36057 11.487 4.7477 11.487 10.157v22.487c0 5.6469-5.5031 10.191-12.339 10.191h-7.8065l20.398 16.409-34.099-14.045c3.5819 7.8718 8.8546 15.682 17.082 19.398 3.0333 1.1243 7.6385 0.19654 12.246-0.81146 2.311-0.50551 4.6158-0.9967 6.8012-1.1269 2.093-0.12472 4.1078 0.1663 5.8397 1.2124 2.605 0.32995 4.5666 1.0324 5.5888 2.4496 1.096 1.5194 1.0664 3.3145 0.8818 4.9788-0.36926 3.3287-1.3408 6.6065 0.43132 9.4294a1.4596 1.4596 0 0 1 0.10847 0.20145c3.2725 7.6208 1.2111 16.588-4.1883 22.308-2.9103 6.8682-2.7006 16.349-7.1319 24.571a1.4596 1.4596 0 0 1 -0.24302 0.33071c-1.7078 1.7386-2.605 3.1552-2.9018 4.0211-0.2967 0.8657-0.17651 0.90395 8e-3 1.0566 0.18444 0.15307 0.93796 0.41665 2.1683 0.29442 1.2264-0.1217 2.8499-0.57218 4.6539-1.3929 4e-3 0 4e-3 -8e-3 8e-3 -8e-3 4e-3 -1e-3 4e-3 1e-3 8e-3 0 10.832-5.1143 19.547-13.578 27.357-22.517a1.4596 1.4596 0 0 1 0.25323 -0.22979c1.42-1.0123 2.4196-1.694 3.1317-2.1341 0.35528-0.22035 0.62287-0.37985 0.92561-0.5093 0.15118-0.0646 0.30236-0.1285 0.58885-0.16554 0.28724-0.0378 0.99024-0.0265 1.4521 0.58912 0.46148 0.61508 0.30615 1.1441 0.23433 1.3853-0.068 0.24076-0.14362 0.37531-0.21543 0.50355-0.1474 0.25663-0.30236 0.46998-0.49587 0.72593-0.3874 0.51168-0.91276 1.138-1.5092 1.8662-1.1924 1.4563-2.6801 3.3071-3.7776 5.0567-1.0976 1.7496-1.6426 3.4379-1.5432 4.0306a1.4596 1.4596 0 0 1 -0.38778 1.2561c-21.034 21.706-50.449 34.87-80.629 36.176a1.4596 1.4596 0 0 1 -0.35339 -0.0302c-2.7531-0.4817-8.8751 0.25663-13.998 0.17273-2.5679-0.042-4.9289-0.2555-6.8089-1.2504-0.93993-0.49747-1.7788-1.256-2.2328-2.2842-0.25474-0.57751-0.0971-1.293-0.10091-1.9611-1.9887 0.22413-4.0055 0.36397-5.8682-0.64611-2.4233-1.3141-4.6969-3.5082-7.0103-6.3851-1.6661-1.9164-2.2158-4.152-2.1037-6.2615 0.11263-2.1189 0.77843-4.1516 1.4138-6.1342 0.63545-1.9826 1.245-3.9188 1.4005-5.7181 0.03931-0.45313 0.05329-0.89477 0.03401-1.3302l-10.826 5.929 9.4408-10.098a1.4596 1.4596 0 0 1 0.97867 -1.811c0.38438-0.11641 0.73882-0.25738 1.0908-0.40097l0.77155-0.82665c-14.878-2.8808-25.407-10.224-25.407-18.878 0-8.8191 10.934-16.278 26.262-19.039-2.5094-0.79877-5.1029-1.4886-7.6659-2.3127-5.4496-1.7522-10.82-4.294-14.171-10.292a1.4596 1.4596 0 0 1 -0.07219 -0.15761c-1.4487-3.4832-3.9608-4.2483-7.1471-5.07-3.1863-0.82167-7.0818-1.5128-9.3078-5.1423a1.4596 1.4596 0 0 1 0.08579 -1.6533c1.3403-1.7368 1.3927-2.5126 1.3074-2.8429-0.08579-0.33033-0.56288-0.81124-1.4727-1.5013-0.90988-0.69006-2.1464-1.5636-2.8942-3.0823-0.74619-1.5154-0.81615-3.5444 0.11603-6.0183 0.69823-1.8859 0.66066-3.2306 0.26419-4.3099-0.39647-1.0794-1.2075-1.9763-2.3621-2.7574-2.2453-1.5188-5.6914-2.3904-8.3652-2.9227-2.2501 0.42082-4.1359-0.0404-5.4957-0.98434-1.4335-0.99511-2.2989-2.361-3.0177-3.4833-0.7189-1.1223-1.3475-1.9586-1.716-2.1759-0.18406-0.10885-0.26986-0.14513-0.53212-0.10809-0.2623 0.0378-0.72654 0.19313-1.3796 0.63088a1.4596 1.4596 0 0 1 -1.9383 -0.28687c-1.7962-2.1845-3.5225-3.1638-5.2145-3.4966-1.692-0.33297-3.4444-8e-3 -5.2506 0.77533-3.6123 1.5663-7.2363 4.992-10.005 7.5481a1.4596 1.4596 0 0 1 -2.326 -0.49595c-1.7684-4.0923-1.3387-8.3998 0.01512-12.346 1.3539-3.9466 3.6172-7.6132 5.7238-10.722a1.4596 1.4596 0 0 1 2.4134 -0.0076c0.72771 1.0573 1.2053 1.1805 1.8661 1.1915 0.66089 0.01134 1.5718-0.3001 2.5369-0.6898s1.9399-0.97958 3.3388-0.72401c0.69948 0.12775 1.4276 0.63704 1.8243 1.2922 0.39674 0.65511 0.5712 1.3971 0.6613 2.3051a1.4596 1.4596 0 0 1 -0.20901 0.89885c-1.1549 1.9015-0.96469 3.1268-0.31559 4.2435 0.64925 1.1166 1.9979 2.0634 3.2325 2.4989 0.61724 0.21771 1.1994 0.3035 1.5583 0.28876 0.05745-2e-3 0.05669-0.0113 0.09713-0.0151-0.01512-0.034-0.0037-0.0151-0.02646-0.0624-0.17877-0.42429-0.69218-1.2048-1.6666-2.2063a1.4596 1.4596 0 0 1 -0.41046 -0.86842c-0.61002-5.932 2.3469-9.941 5.7029-13.044 3.356-3.1029 7.0884-5.6219 8.9505-8.9125a1.4596 1.4596 0 0 1 0.24302 -0.31559c2.9641-2.9295 7.2927-7.8612 13.323-8.3101 1.1732-2.0087 2.5559-3.5227 4.1598-4.2168 1.7869-0.77329 3.6228-0.85629 5.4083-0.88936 3.5034-0.06576 6.8094 0.07257 10.414-2.8087 0.44111-0.8157 0.7005-1.4204 0.80383-1.7882-0.33071 0.04989-0.7279 0.12888-1.1782 0.25852-0.53556 0.1542-1.0869 0.33562-1.6077 0.47316-0.26041 0.06879-0.51092 0.12472-0.79812 0.15761-0.28724 0.03402-0.62419 0.1183-1.2067-0.17877-0.2914-0.14854-0.62528-0.47002-0.77537-0.84756-0.15005-0.37758-0.12813-0.72242-0.07975-0.96918 0.09676-0.49338 0.27855-0.75617 0.48268-1.0566 0.40675-0.59879 1.0119-1.2749 1.9725-2.2595l-22.184 6.5528 33.596-16.919c-5.1635-2.1689-8.9748-4.7026-11.273-7.4227-0.38551 0.39209-0.79457 0.78357-1.2371 1.1801-3.1163 2.7925-7.3451 5.471-10.191 6.2064a1.4596 1.4596 0 0 1 -1.0623 -0.12926c-1.3222-0.72064-2.3099-1.5597-2.9303-2.5654-0.62105-1.0057-0.81449-2.1777-0.63281-3.2382 0.36321-2.1208 1.9071-3.7867 3.7265-5.1784 1.8194-1.3916 3.9987-2.4926 6.0564-3.1317 1.0093-0.31332 1.9867-0.55393 2.9189-0.59482 0.31937-0.01512 0.63058 0.0076 0.93876 0.04573 1.8136-10.68 25.67-19.132 54.849-19.132 5.8055 0 11.397 0.33751 16.651 0.95777-0.33562-0.74082-0.97954-1.4101-1.963-2.0618-1.5824-1.0486-3.9659-1.8562-6.5922-2.269-5.2525-0.82552-11.476 0.04422-14.287 2.1759a1.4596 1.4596 0 0 1 -1.9535 -0.17272c-2.2062-2.391-4.8591-3.6378-7.3182-3.5555zm-80.826 97.097c0.10318 0.26684 0.03931 0.19389 0.14627 0.0514 0.10091-0.13493 0.06463-0.0809-0.14627-0.0514zm14.133 13.863c0.1217-0.0227 0.24076-0.0378 0.36472-0.0646l-0.60435 0.0151c0.07484 0.0151 0.16328 0.0378 0.23924 0.051zm143.05 70.107c0.0302-0.0658 0.051-0.13607 0.0798-0.20145l-0.29442 0.43899c0.0744-0.0763 0.14173-0.15987 0.21467-0.23773zm-184.75-60.062c-0.5339 4.1625-0.00257 10.13 1.3606 13.967 0.018898 0.0465 0.030236 0.10243 0.045732 0.14816l-0.057071-0.20712c-3.402e-4 -2e-3 3.401e-4 -4e-3 0-8e-3 -0.72374-4.6027-1.1628-9.2467-1.3492-13.901zm1.3606 13.967c0.67827 4.3391 1.6232 8.6264 2.8049 12.84-1.1835-4.2274-2.1206-8.5055-2.8049-12.84zm97.287-130.84c0.0431-0.0076 0.0401-0.0015 2e-3 -0.0189-0.0378-0.0189-0.034-0.03024-2e-3 0.0189zm-18.95-2.4172c-1.7926 0.64173-3.559 1.3389-5.3133 2.0618 1.7594-0.71535 3.5283-1.408 5.3133-2.0618zm-5.3133 2.0618c-3.8188 1.5527-7.5712 3.2635-11.185 5.2848 3.6405-1.9646 7.3722-3.7134 11.185-5.2848zm91.694 2.153c1.0382 1.1354 1.7665 2.3352 1.6304 3.6923-0.10696 1.069-0.77329 2.0376-1.6742 2.6414 2.6406 1.1734 4.9261 2.4597 6.8127 3.8349 0.94863-0.62067 1.9864-1.1022 3.1071-1.3987 2.458-0.65023 5.2628-0.07786 8.0878 1.3872-0.80194-0.78977-1.391-1.4857-2.7803-2.5084-2.1555-1.587-4.756-3.2495-7.0958-4.538-2.3399-1.2884-4.5628-2.1768-5.3-2.2709a1.4596 1.4596 0 0 1 -0.4105 -0.11414c-0.75957-0.33751-1.6106-0.40551-2.3773-0.72593zm-6.2806 0.5853c-0.75829 0.01134-1.3413 0.08239-1.6913 0.19729-0.36321 0.11981-0.48355 0.2366-0.50929 0.2657 0.0189 0.11679 0.35188 0.81248 1.2637 1.5222 0.85115 0.66251 2.1864 1.329 3.7417 1.868 0.81203-0.1319 1.4967-0.32844 1.8034-0.53208 0.35679-0.23735 0.38816-0.34054 0.40286-0.50169 0.0302-0.29594-0.66524-1.4594-2.2633-2.6719-1.0555-0.11641-1.9896-0.16101-2.7479-0.14816zm-62.458 3.2762c-2.7832 0.01134-3.6426 0.15836-5.0188 0.87224-3.4157 1.7717-3.9683 2.7764-4.4448 8.0745-0.42327 4.7054-0.46137 17.439-0.05707 19.271 0.22828 1.0356 0.5393 1.3781 1.5639 1.7312 1.6339 0.56311 2.9006 0.58639 4.3593 0.07786l1.1611-0.40475v-2.7441c0-5.1272 1.095-6.207 6.6948-6.6055 5.0151-0.35717 4.7451-0.19351 4.7451-2.8961v-2.3374l-3.0443-0.25247c-1.6745-0.13909-3.624-0.53681-4.3327-0.88369-1.5335-0.75046-2.3343-2.1198-1.811-3.0975 0.72745-1.3593 2.1538-1.8976 5.6211-2.117l3.3826-0.21279 0.32089-1.8889c0.46737-2.7536-0.12246-3.7185-3.24-5.3057-2.3634-1.2032-2.7784-1.292-5.9005-1.2808zm93.693 7.8635c-0.0718 6.8e-4 -0.16252 0.01512-0.2759 0.05518-0.24567 0.08957-0.45732 0.34167-0.50344 0.44466l0.39534 1.1858c0.12473-0.06236 0.21922-0.03779 0.34394-0.17272 0.29858-0.32277 0.37795-0.79313 0.3515-1.0414-0.0454-0.44035-0.12851-0.43646-0.15874-0.4523-0.0378-0.0076-0.0831-0.0189-0.15496-0.0189zm-76.917 3.1222c-1.1722 2.64e-4 -2.2773 0.0548-3.1754 0.17461-1.7067 0.22828-3.474 0.61406-3.9279 0.85701-0.80463 0.43064-0.80603 0.44874-0.0877 0.71452 1.4615 0.5407 1.808 1.422 1.8129 4.6102 8e-3 3.4524-0.50896 4.4233-2.5484 4.8059l-1.1592 0.21657 0.24718 2.8733c0.29745 3.4606 0.71086 4.3313 2.2747 4.7831 0.65496 0.18936 1.4917 0.35981 1.8585 0.37818 1.0137 0.05065 3.9286-0.75016 4.1731-1.1459 0.11867-0.19238 0.36132-1.5 0.53779-2.9056 0.58718-4.6767 1.5859-5.6158 6.4307-6.0545 1.6237-0.14702 3.1593-0.43854 3.413-0.64611 1.095-0.89571 0.19503-6.6028-1.1839-7.5063-1.0193-0.66784-5.1489-1.1561-8.6655-1.1554zm19.167 0.11225c-2.7401-0.02268-5.6049 0.09298-6.368 0.25474-1.199 0.25398-1.3395 0.38547-1.0261 0.97104 0.74547 1.393 1.2233 5.9814 0.77722 7.4702-0.42179 1.408-1.8267 2.5198-3.1849 2.5198-0.53068 0-0.5808 0.288-0.36661 2.1208 0.41616 3.5639 0.81936 4.4233 2.3126 4.9161 0.72945 0.24076 2.1731 0.56092 3.2078 0.71267 3.8694 0.56734 9.6873 0.1988 12.075-0.76584 1.5462-0.62498 2.4223-3.443 1.3397-4.3099-0.25361-0.20334-1.6255-0.48348-3.0462-0.62139-1.4208-0.13795-3.1077-0.41469-3.7494-0.61568-1.1596-0.36321-1.7916-1.1976-1.3948-1.8395 0.11414-0.18444-0.19616-0.33638-0.68791-0.33638-0.49202 0-1.3313-0.34318-1.8661-0.76392-1.2405-0.97584-1.3642-3.2726-0.23585-4.4011 0.94829-0.94828 3.3387-1.0022 4.1579-0.09298 0.82809 0.91888 1.1407 2.4798 0.67079 3.3578-0.39156 0.7316-0.33298 0.74483 2.2747 0.53401 1.4724-0.11906 3.072-0.36246 3.5555-0.54161 0.83441-0.30841 0.87115-0.45101 0.70122-2.8258-0.36132-5.0526-1.3615-5.6802-9.1462-5.7428zm18.196 0.51311c-4.8598 0-7.651 0.5325-7.3201 1.3948 0.43344 1.1295 0.90085 5.4793 0.68409 6.3642-0.27552 1.1243-1.1697 2.1991-2.1492 2.5807-0.68882 0.26835-0.67155 0.31294 0.25474 0.6765 0.54583 0.21392 1.1681 0.7189 1.3834 1.1212 0.49867 0.9318 0.50664 3.7516 0.0151 5.0492-0.20863 0.54879-0.31483 1.063-0.23584 1.1421 0.079 0.07899 0.87288 0.29745 1.7635 0.48457 0.89065 0.18671 4.0274 0.29178 6.9704 0.23395 6.1996-0.1217 7.9403-0.60786 8.3234-2.3241 0.12775-0.57154 0.30463-1.3058 0.39149-1.6324 0.26305-0.98419-0.73059-1.4415-3.9204-1.8053-4.0511-0.46205-4.418-0.60877-4.671-1.8737-0.1765-0.88297-0.4029-1.0775-1.2504-1.0775-0.67771 0-1.2984-0.33562-1.7996-0.97296-1.5494-1.9697-0.59414-4.4056 1.8832-4.8021 1.1304-0.18104 1.5157-0.05972 2.307 0.73164 1.0153 1.0153 1.3021 3.0667 0.5359 3.8329-0.421 0.42096-0.0586 0.40399 4.6178-0.21279 1.0148-0.1338 1.9627-0.49036 2.1664-0.81335 0.49485-0.78482-0.34734-5.6614-1.144-6.6207-0.82961-0.99904-3.6757-1.4765-8.8041-1.4765zm-83.236 5.6155c-0.58825 0.0189-1.371 0.11641-2.2196 0.38003-1.697 0.52717-3.647 1.5091-5.1499 2.6586-1.5029 1.1495-2.4717 2.4798-2.6224 3.3598-0.07559 0.43998-0.03402 0.76868 0.23735 1.2067 0.19087 0.30916 0.76362 0.70367 1.2999 1.0851 1.853-0.6367 5.8481-2.8999 8.4545-5.2354 0.60382-0.54104 1.0976-1.0826 1.4956-1.5677-0.29065-0.61017-0.50744-1.2264-0.64804-1.8471-0.1765-0.03024-0.43941-0.05367-0.84756-0.03968zm117.29 5.1764c0.18482-0.01512 0.36812-0.01134 0.54731 0.0037 0.23849 0.02268 0.46961 0.06841 0.68221 0.13493 0.85016 0.26646 1.5519 0.77779 2.1549 1.4005 1.206 1.2455 2.1747 3.0525 1.5715 5.0055-0.30236 0.97644-1.0939 1.8475-2.1606 2.3355-1.0667 0.48786-2.3839 0.68122-4.0648 0.61761a1.4596 1.4596 0 0 1 -1.3796 -1.1934c-0.36548-1.978-0.45684-3.5071-0.30955-4.747 0.14703-1.24 0.5401-2.2789 1.372-2.9531 0.46798-0.37924 1.0321-0.56296 1.5868-0.60431zm0.24718 2.8866c-8e-3 0.0076-0.2177 0.23811-0.30955 1.0148-0.0612 0.51795 0.082 1.5806 0.17878 2.5141 0.50211-0.06765 1.2151-0.07937 1.4652-0.19389 0.46839-0.21392 0.53355-0.35792 0.58911-0.53779 0.11112-0.35943-0.20863-1.416-0.88361-2.1132-0.33751-0.34847-0.7231-0.58027-0.93309-0.64611-0.0854-0.02646-0.0971-0.03402-0.10621-0.0378zm-16.694 1.9079c-0.91615 0.4921-1.8836 0.96968-2.9094 1.429 0.16932 0.23509 0.34204 0.48215 0.51118 0.70885 1.0261 1.3741 2.0816 2.526 2.8219 2.9455a1.4596 1.4596 0 0 1 0.62525 0.70314c0.28762 0.68625 0.57698 0.97187 0.68221 1.0414 0.10356 0.06992 0.0265 0.048 0.12926 0.01512 0.20863-0.06539 0.97666-0.74725 1.393-1.7464 0.4162-0.99919 0.51515-2.1843 0.25096-2.9151-0.26457-0.73073-0.66486-1.2212-2.233-1.3359a1.4596 1.4596 0 0 1 -0.97678 -0.48076c-0.10583-0.11754-0.19464-0.24416-0.29442-0.36472zm-75.048 5.549-4.0401 1.1934a1.4596 1.4596 0 0 1 -0.12737 0.59667c-0.2914 0.65231-0.50336 1.9463-0.66701 3.3902-0.16365 1.4439-0.30803 3.0486-0.7677 4.5456-0.45978 1.4969-1.3382 3.0226-2.9893 3.7208-1.5847 0.67019-3.5818 0.39164-5.9974-0.55294-0.92281-0.15647-1.4282-0.80984-2.0257-1.372-0.19767 0.90686-0.61327 1.8796-1.3493 3.1602a1.4596 1.4596 0 0 1 -0.33827 0.3953c-4.4439 3.688-8.9931 3.5196-12.417 3.584-1.7118 0.03401-3.1448 0.14211-4.3099 0.64611-1.165 0.50408-2.187 1.3646-3.1887 3.3388a1.4596 1.4596 0 0 1 -1.3226 0.79812c-4.736-0.06009-8.6436 4.3794-11.94 7.6526-2.3556 4.0288-6.3376 6.6047-9.399 9.4351-3.0418 2.8123-5.1214 5.6245-4.7395 10.334 0.78229 0.87991 1.4883 1.7204 1.8167 2.5008 0.40879 0.97126 0.46224 2.1482-0.17877 3.0006-0.64086 0.85255-1.6027 1.0957-2.4647 1.1288-0.79865 0.034-1.6194-0.14287-2.4495-0.41617 1.2722 0.59324 2.5365 1.2112 3.7132 2.4191 0.5667-0.28763 1.1372-0.635 1.7027-0.71074 0.8685-0.11641 1.7314 0.0873 2.3982 0.48079 1.3336 0.78693 1.9921 2.0216 2.6947 3.1184 0.70254 1.0969 1.3963 2.0928 2.2196 2.6643 0.82322 0.57131 1.7608 0.87416 3.5555 0.46749a1.4596 1.4596 0 0 1 0.60238 -8e-3c2.7936 0.54527 6.6809 1.3884 9.6822 3.4187 1.5007 1.0151 2.8021 2.3754 3.4624 4.1731 0.66036 1.7977 0.6198 3.9534-0.25852 6.3262a1.4596 1.4596 0 0 1 -0.0076 8e-3c-0.75447 1.9946-0.59716 2.9828-0.23735 3.7133 0.35981 0.73043 1.1128 1.3384 2.0391 2.0409 0.92625 0.70247 2.1271 1.5201 2.535 3.0956 0.30463 1.1765-0.53571 2.5821-1.3568 4.0002 1.5554 2.1133 4.055 2.7337 7.1832 3.5403 3.2906 0.84862 7.1384 2.2222 9.0455 6.6511 2.8848 5.1481 7.3003 7.2457 12.508 8.9201 4.0868 1.3141 8.6043 2.2937 12.863 4.2681 2.2872-0.21015 4.6396-0.32504 7.0482-0.32504h28.436c21.831 0 39.405 9.0044 39.405 20.187 0 11.183-17.574 20.185-39.405 20.185h-28.436c-1.5035-4e-5 -2.9842-0.0457-4.4429-0.12888l-8.4963 4.652c0.28309 1.0009 0.44447 1.9952 0.36132 2.9607-0.19502 2.254-0.89571 4.3784-1.5298 6.3566-0.63402 1.9783-1.1947 3.8186-1.279 5.4007-0.08428 1.5822 0.2109 2.8574 1.3949 4.2092a1.4596 1.4596 0 0 1 0.04195 0.051c2.183 2.7193 4.2571 4.6374 6.1552 5.6668 1.8981 1.0293 3.5362 1.2388 5.3513 0.63847a1.4596 1.4596 0 0 1 1.8813 1.7236c-0.19843 0.82095-0.1304 1.301 0.0151 1.6304 0.14552 0.32957 0.40264 0.60605 0.92735 0.88369 1.0494 0.55544 3.105 0.87319 5.4938 0.91211 4.6734 0.076 10.36-0.7291 14.178-0.12888l-8e-3 -0.0151c29.207-1.2643 57.755-13.965 78.223-34.852 0.0378-1.5536 0.87647-3.0222 1.7522-4.4923-6.9184 7.3908-14.507 14.396-24.003 18.876a1.4596 1.4596 0 0 1 -0.0151 8e-3c-2.0409 0.93075-3.9314 1.4886-5.5945 1.6533-1.6632 0.16516-3.1764-3e-3 -4.3251-0.95584-1.1486-0.9529-1.43-2.6959-0.89696-4.2511 0.51519-1.5031 1.6288-3.0963 3.4054-4.9351 3.9038-7.3682 3.6613-16.673 7.0312-24.406a1.4596 1.4596 0 0 1 0.29442 -0.43706c4.712-4.8334 6.5943-12.773 3.8444-19.277-1.1636-1.9182-1.4176-3.8976-1.3816-5.7618-0.97414 0.48189-2.1195 0.86751-3.7645 1.1345a1.4596 1.4596 0 0 1 -1.5069 -0.72405c-0.84431-1.5086-1.3076-2.7499-1.4157-3.8862-0.1081-1.1362 0.24226-2.2708 1.0128-2.9588 0.7705-0.68806 1.7312-0.86562 2.5997-0.83988 0.86849 0.0265 1.7112 0.25285 2.4932 0.60238 0.41945 0.18746 0.74218 0.51817 1.1136 0.78293 0.065-1.0804 0.0525-2.0044-0.29443-2.4856-0.41246-0.57173-1.3924-1.1893-3.9014-1.4291a1.4596 1.4596 0 0 1 -0.65938 -0.22979c-1.0094-0.66448-2.467-0.9069-4.3251-0.7962-1.8582 0.11074-4.0509 0.5672-6.349 1.0699-4.5964 1.0054-9.6232 2.3118-13.933 0.68981a1.4596 1.4596 0 0 1 -0.0858 -0.0378c-9.8722-4.4341-15.718-13.861-19.442-22.623a1.4596 1.4596 0 0 1 -0.0684 -0.94065l-2.1645-0.89125h-54.188c-6.8357 0-12.339-4.5446-12.339-10.191v-22.486c0-5.6469 5.5031-10.193 12.339-10.193h78.422c0.33941-0.42372 0.69283-0.84389 1.0167-1.2713-1.7825-0.76604-3.3006-1.9799-4.1446-3.698-1.2142-2.4715-1.5676-5.4636-1.163-8.2398 0.40452-2.7762 1.5753-5.4349 3.871-6.8735 1.2684-0.79468 2.8507-0.96087 4.5684-0.70311-0.72911-0.99133-1.1619-1.9657-1.9896-2.9512-0.87746-1.0448-1.7275-2.0819-2.364-3.1963-0.34659-0.60639-0.31446-1.3534-0.4732-2.0409-1.7048 0.54229-3.442 1.1638-4.6539 0.49599-1.6569-0.9131-2.2695-2.7701-2.2842-4.5247-4e-3 -0.54293 0.0552-1.0943 0.14627-1.6457-8.0051 1.6925-17.256 2.6642-27.123 2.6642-10.582 0-20.94-1.1383-29.827-3.2742zm92.259 117.46c0.0265 0.0404 0.0431 0.0813 0.0684 0.1217l-0.099-0.20145c0.0113 0.0265 0.0189 0.0533 0.0302 0.0797zm-11.17 44.12c-0.0265 0.0476-0.0465 0.0971-0.0722 0.14438l0.24302-0.33071c-0.0631 0.0643-0.10961 0.12246-0.17121 0.18633zm29.677-5.9005c0 0.2691 3e-3 0.5404 0.0491 0.81521l0.38778-1.2561c-0.14362 0.14853-0.29102 0.29291-0.43729 0.44088zm-162.25-124.58c0.0378-0.06161 0.07483-0.12019 0.11036-0.18255l-0.24302 0.31559c0.04233-0.04195 0.09033-0.09071 0.13304-0.13304zm44.26-28.965-10.433 3.0823c0.36813 0.41333 0.6195 0.84268 0.85897 1.2866 0.48412 0.89684 0.91438 1.8554 1.3872 2.535 0.47286 0.6796 0.85179 0.98256 1.3074 1.0414a1.4596 1.4596 0 0 1 0.36472 0.09487c2.1817 0.89601 3.3978 0.84495 4.0078 0.58719 0.61005-0.25814 1.0046-0.81532 1.3359-1.8946 0.33146-1.0794 0.49474-2.5382 0.66134-4.0078 0.10583-0.93392 0.27099-1.8423 0.50929-2.725zm-12.424 5.3171c-0.16706 0.17121-0.39719 0.46035-0.6822 0.88365 0.24076-0.048 0.45993-0.12435 0.7107-0.15005 0.14136-0.01512 0.32277 0.11754 0.47509 0.11414-0.06047-0.11868-0.16554-0.30501-0.22261-0.41046-0.11679-0.21619-0.19049-0.30161-0.2812-0.43706zm137.02 6.8298c1.2174-0.06728 2.4994 0.54969 3.6393 1.7084 1.8524 0.66671 3.0985 1.1629 3.9182 1.6248 0.43729 0.24642 0.83603 0.37455 1.1992 1.1212 0.18142 0.37342 0.21922 1.0451 0 1.4937-0.23433 0.44837-0.53971 0.63662-0.76989 0.76199-0.91918 0.50147-1.6074 0.47116-2.6717 0.60242-1.056 0.13039-2.3358 0.26041-3.6903 0.46371-1.8066 0.43185-3.4904-0.0076-4.3744-1.1326-0.90558-1.1515-0.93695-2.5881-0.55295-3.8063 0.38363-1.2183 1.2854-2.4132 2.7572-2.7574 0.1852-0.04309 0.37039-0.06954 0.55861-0.07975zm1.6116 7.7762c0.0454-0.01134 0.0869-0.01512 0.1285-0.02646l-0.15874 0.03024c0-0.0016 0-0.0022 0.0378-0.0037zm2.0277-6.0678c-0.12094-0.04422-0.18897-0.0737-0.32126-0.11981l0.59641 0.40286c-0.0907-0.10091-0.18519-0.18935-0.27968-0.28309zm-3.3388 1.2029c-0.0869-0.0076-0.15118 4.54e-4 -0.19654 0.01134v0.0019c-0.18519 0.04384-0.48793 0.31143-0.63874 0.79049-0.15118 0.47887-0.0491 0.97391 0.0718 1.1269 0.12095 0.15269 0.29859 0.39039 1.4653 0.0858a1.4596 1.4596 0 0 1 0.15118 -0.03024c0.74683-0.11301 1.2971-0.17159 1.9533-0.25096-0.34772-0.13002-0.36284-0.16403-0.76951-0.30954a1.4596 1.4596 0 0 1 -0.5949 -0.40286c-0.72605-0.81196-1.1804-0.99938-1.4404-1.0243zm-31.715 1.4709c0.94632 0.01134 1.8441 0.36813 2.4704 0.91975 1.2527 1.1028 1.5723 2.5959 1.9117 3.8576 0.33941 1.2618 0.70927 2.3545 0.98434 2.6719 0.13796 0.15685 0.16404 0.17159 0.35944 0.19389 0.0393 0.0037 0.21203-0.06199 0.27174-0.06463-0.26381-1.0278-0.6229-2.1278-0.53026-2.9094 0.0378-0.29556 0.10393-0.61905 0.30765-0.95588 0.20334-0.33676 0.58454-0.66334 0.98434-0.80383 0.79948-0.28044 1.3525-0.03402 1.7958 0.16554 0.88648 0.39632 1.6811 1.0214 2.6434 1.7236 0.96226 0.70216 2.0273 1.4746 3.1166 2.1036a1.4596 1.4596 0 0 1 -0.96945 2.7022c-0.895-0.15383-1.3039-0.07937-1.5012-0.0378 0.0529 0.21581 0.30236 1.1029 0.79068 1.9611 0.27212 0.47486 0.54274 0.91498 0.76006 1.3074 0.1096 0.19654 0.20409 0.35263 0.30236 0.65371 0.0491 0.15042 0.13606 0.32655 0.0718 0.76774-0.0378 0.22072-0.1285 0.53654-0.37417 0.80572-0.0491 0.05367-0.11717 0.048-0.17386 0.09298 0.56202 0.5283 0.85417 0.59089 0.87609 0.58912 0.0378-0.0019 0.18898-0.04006 0.511-0.45989 0.64289-0.83977 1.3765-2.7968 2.1192-4.5608 0.37039-0.88195 0.74834-1.722 1.2767-2.4571 0.52876-0.73512 1.3848-1.5258 2.5712-1.486 1.1864 0.03969 2.0651 0.79703 2.8524 1.8243 0.74495 0.97172 1.5027 2.4025 2.3565 4.2871v0c1.053 1.5018 1.9465 2.047 2.7704 2.2633 0.82545 0.21657 1.7057 0.09562 2.708-0.18066 1.0027-0.27628 2.0568-0.71312 3.2534-0.89696 0.97814-0.15042 2.1986 0.0189 3.168 0.72212 2.4008-0.05405 4.3502 1.5708 5.2864 3.3579 0.51477 0.98204 0.80919 2.152 0.30236 3.3179-0.46904 1.08-1.7322 1.6235-3.0595 1.7312-1.4347 0.63821-2.9696 0.73145-4.4107 0.46556-1.5866-0.29254-3.1434-0.8318-4.5815-1.2276-1.4381-0.3959-2.742-0.62544-3.6998-0.49599-0.95811 0.12926-1.612 0.45116-2.3127 1.638a1.4596 1.4596 0 0 1 -2.2613 0.31559c0.24567 0.23698 0.0416 0.04006-0.31748-0.06463-0.35906-0.10469-0.8863-0.22413-1.5012-0.3515-1.2302-0.25512-2.8108-0.55026-4.3672-0.99764-1.5564-0.44746-3.1011-1.0203-4.3362-2.0333-0.86475-0.70915-1.0004-2.0024-1.2011-3.204-0.0378-0.03402-0.0794-0.01512-0.11339-0.04913l0.0869-0.03024c-0.0718-0.48839-0.59338-0.76982-0.48831-1.2922a1.4596 1.4596 0 0 1 0.38211 -0.73353c-0.20788-0.13002-0.41348-0.26835-0.67692-0.46556-0.50721-0.37962-1.3255-1.0436-2.2327-1.7882-4.9903 0.57479-10.589 0.30312-14.918 2.0315a1.4596 1.4596 0 0 1 -0.0798 0.03024l-2.7783 0.94069a1.4596 1.4596 0 0 1 -0.28913 0.06463l-1.5715 0.19389a1.4596 1.4596 0 0 1 -0.61191 -2.8447c0.0979-0.03024 0.79907-0.46643 1.5373-1.2276 0.73829-0.76116 1.5865-1.8102 2.4286-2.9949 1.6843-2.3695 3.3535-5.2894 4.3024-7.5557a1.4596 1.4596 0 0 1 0.73928 -0.76203c1.119-0.51216 2.1056-0.77873 3.0519-0.7677zm37.693 14.8c-0.23811 0.0037-0.47963 0.02268-0.72567 0.06085l1.3357 0.48839c-0.18519-0.21506-0.39307-0.39152-0.61001-0.5492zm-37.729-11.885c-0.2691-0.0037-0.83384 0.17386-1.4367 0.40286-1.0793 2.4122-2.5762 5.1176-4.2376 7.455-0.32845 0.46178-0.65424 0.79007-0.9845 1.2143 3.8213-1.2684 7.7443-1.5857 11.406-1.8034-0.57597-0.21657-1.1918-0.41261-1.5506-0.82662-1.0331-1.1914-1.2686-2.6078-1.5944-3.8196-0.32618-1.2119-0.72949-2.1657-1.0281-2.4286-0.14929-0.13115-0.23622-0.19011-0.57385-0.19389zm8.7624 3.736c0.10356 0.55098 0.0537 0.62963 0.33827 1.5716a1.4596 1.4596 0 0 1 0.0571 0.42372c0.14854-0.45139 0.53299-0.76641 0.91964-1.1136-0.17008-0.12435-0.4063-0.2623-0.56811-0.38007-0.34166-0.24945-0.45407-0.2982-0.74672-0.5017zm20.77 2.5332c0.34772 0.01512 0.65273 0.13682 0.87043 0.26797 0.58053 0.34961 0.82318 0.75651 1.1267 1.2846 0.30237 0.52811 0.60889 1.1932 0.94073 2.0828a1.4596 1.4596 0 0 1 -0.71811 1.8167c-0.59944 0.29896-1.3228 0.41416-1.9669 0.2298-0.64403-0.18444-1.1138-0.60503-1.4158-1.0261-0.60397-0.84227-0.75893-1.7179-0.72605-2.5578 0-0.41994 0.0378-0.84578 0.43918-1.4005 0.20788-0.27742 0.60095-0.59002 1.0908-0.67461 0.12094-0.02268 0.24189-0.03024 0.35905-0.02268zm-20.52 0.10847a1.4596 1.4596 0 0 1 -0.58915 0.61761c0.0113-0.0014 0.0265 0.0014 0.0378 0a1.4596 1.4596 0 0 1 0.76959 0.10847c-0.0446-0.26646-0.22753-0.43287-0.21657-0.72593zm11.622 0.40097c0-0.02268-0.0378 0.0037-0.11717 0.0019-0.0907-0.0037-0.068-0.0076 0.0491 0.08164 0-0.0189 0.0643-0.0771 0.068-0.08353zm-0.068 0.08353c-0.0378 0.03855-0.0642 0.06123-0.15496 0.192-0.26834 0.37568-0.61152 1.0755-0.95395 1.8889-0.68485 1.6269-1.3281 3.6678-2.5009 5.1993-0.49247 0.64354-1.2881 1.1071-2.1834 1.3435 0.7132 0.47282 1.6528 0.93838 2.8373 1.2789 1.3765 0.39572 2.8789 0.68232 4.1522 0.94636 0.63648 0.13191 1.217 0.26041 1.7314 0.41046 0.15874 0.04611 0.31748 0.18331 0.46526 0.2298 0.98796-0.99492 1.9963-2.0476 3.2118-2.212 1.677-0.22677 3.3109 0.14513 4.8684 0.57392 1.5579 0.42864 3.0561 0.93562 4.331 1.1706 1.2745 0.23509 2.2288 0.18633 2.9095-0.19389a1.4596 1.4596 0 0 1 0.68976 -0.18595c0.77783-0.01134 0.68183-0.12321 0.67465-0.10847 0 0.01512 0.0378-0.31257-0.21543-0.79623-0.50684-0.96695-1.8648-1.9525-2.959-1.7749a1.4596 1.4596 0 0 1 -1.3357 -0.48839c-0.35528-0.41261-0.4509-0.399-1.129-0.29442-0.67842 0.10432-1.7125 0.50105-2.9227 0.83422-1.2102 0.33373-2.6706 0.59554-4.23 0.18595-1.5598-0.40928-3.0867-1.501-4.4239-3.4111a1.4596 1.4596 0 0 1 -0.13606 -0.24529c-0.864-1.9429-1.6033-3.2254-2.1475-3.9356-0.26835-0.35036-0.46564-0.52233-0.57751-0.60809zm-100.82 10.254c-0.22337-0.01134-0.44984-0.01134-0.67842 0.0019-0.60964 0.03024-1.2296 0.14136-1.8053 0.34205-0.99549 0.34696-1.1355 0.58923-1.3417 2.3051-0.12699 1.0551-0.23169 3.1034-0.23395 4.5513-3e-3 2.2877 0.0892 2.657 0.70503 2.8182 0.98415 0.25739 1.4265 2.1183 1.9117 8.0403 0.28536 3.4836 0.29745 6.0605 0.0378 8.4868-0.20485 1.9166-0.29707 3.6104-0.20334 3.7626 0.43487 0.70598 4.0466 0.0661 4.3689-0.7734 0.12624-0.32844 0.39666-1.9262 0.60049-3.5517 0.3826-3.0513 1.0089-4.2548 2.2177-4.2548 1.043 0 1.7416 1.4308 2.1645 4.4391 0.53193 3.7848 0.60525 3.9426 1.9516 4.177 1.2328 0.21467 4.1587-0.20788 4.6159-0.66701 0.144-0.14476 0.26117-2.9486 0.26041-6.2293-1e-3 -6.2376-0.58711-10.578-1.5335-11.364-0.30841-0.25588-2.3528-0.53265-4.8497-0.65749l-4.3175-0.21657-0.26797-4.4278c-0.14778-2.4356-0.35528-4.7857-0.45985-5.2221-0.21619-0.90047-1.5804-1.4889-3.1431-1.5602zm-79.629 7.2687c-0.05783 0.0264-0.68598 0.14702-1.602 0.51688-0.98521 0.39776-2.2153 0.92663-3.6771 0.90456-0.82534-0.0151-1.5729-0.86873-2.3849-1.3853-1.8349 2.7859-3.7338 5.8142-4.8116 8.9562-0.9707 2.8295-1.0785 5.5957-0.45989 8.274 2.5245-2.3252 5.305-5.0665 8.8631-6.6093 2.0513-0.89068 4.2798-1.3623 6.5561-1.0148-0.93358-0.58284-1.7965-1.3101-2.3981-2.345-1.006-1.7302-1.0226-4.0852 0.1081-6.4497-0.06312-0.45771-0.14513-0.74714-0.19389-0.84756zm2.4837 9.6422c0.56368 0.35188 1.1463 0.66236 1.7313 0.92164-0.45762-0.16365-0.85799-0.76978-1.3208-0.86083-0.1372-0.0264-0.27364-0.0401-0.4105-0.0608zm129.47-5.9841 0.57388 1.1079c0.44277 0.85625 1.3217 4.7957 1.3397 6.005 2e-3 0.10281 0.73417 0.13002 1.6286 0.059 2.1221-0.16895 3.1716 0.77782 3.1716 2.8638 0 1.1262-0.21733 1.6195-0.97297 2.2139-0.5348 0.42066-1.2748 0.76581-1.6438 0.76581-1.1056 0-2.5207-0.80221-2.7631-1.5658-0.17121-0.53967-0.42316-0.65162-1.0224-0.45611-0.4371 0.14249-2.0204 0.43673-3.5194 0.65371l-2.7269 0.39337 0.22261 3.1318c0.12133 1.7216 0.39024 3.2977 0.59671 3.5042 0.20674 0.20675 1.0831 0.4918 1.9497 0.63281 3.4655 0.56383 7.3232 0.0612 8.5781-1.1174 0.92444-0.8685 1.975-0.9744 2.2614-0.2279 0.29972 0.78115 2.0857 1.3902 3.6885 1.258 1.3703-0.11301 1.4349-0.17991 1.7274-1.7788 0.42992-2.3499 0.0956-13.588-0.44659-15.011-0.62369-1.636-1.9232-2.0122-7.7172-2.2386zm-11.031 0.1576c-0.97875 9.1e-4 -1.9166 0.0378-2.7308 0.11414l-2.8467 0.26608 0.21467 1.3493c0.43998 2.769 0.66437 14.29 0.30766 15.814-0.19918 0.85262-0.26003 1.6535-0.13493 1.7787 0.27515 0.27515 2.4441-0.0737 3.8196-0.61376 0.82764-0.32504 1.0374-0.68504 1.2219-2.1075 0.77272-5.9541 1.3315-6.6086 6.176-7.2288 1.9-0.2434 3.6736-0.57759 3.9413-0.74302 0.3549-0.21921 0.44001-0.96862 0.31143-2.7631-0.23282-3.2558-0.87133-4.5194-2.5579-5.072-1.4778-0.48416-4.7867-0.79711-7.7229-0.79431zm-22.002 0.33411c-0.25549 8e-3 -0.54516 0.0265-0.87417 0.0491-1.1941 0.0865-2.2628 0.24831-2.3754 0.36132-0.11263 0.11263-0.0401 0.94061 0.16139 1.8395 0.93293 4.1629 1.2283 12.434 0.56057 15.691-0.12396 0.60476 0.0405 0.84869 0.66513 0.98438 1.1226 0.24378 5.3009-0.0722 7.0312-0.53208 0.77155-0.20523 1.4949-0.61456 1.6077-0.90838 0.3035-0.79109 1.1726-0.64973 2.4077 0.38956 1.2782 1.0755 3.9503 1.2813 4.8572 0.37455 0.3292-0.3292 0.65333-1.6844 0.81332-3.392 0.38653-4.1246-0.30123-13.626-1.0394-14.365-0.33448-0.33449-4.2243-0.62332-5.1784-0.38385-1.1294 0.28347-1.3141 0.75428-1.7654 4.4733-0.27402 2.2574-0.54127 3.1123-1.1269 3.605-0.9693 0.81528-1.2612 0.8101-2.1131-0.0419-0.45898-0.45903-0.8392-1.7173-1.1402-3.776-0.5619-3.8428-0.70178-4.4138-2.4913-4.3688zm-27.997 0.0113c-2.1713-0.0578-2.3715 0.55812-2.9436 4.3878-0.56428 3.7775-0.61346 3.9014-1.638 4.1694-1.4816 0.38744-2.2099-0.78595-2.8106-4.5266-0.30879-1.9242-0.75889-3.634-0.99953-3.8006-0.6669-0.46179-4.708-0.0302-5.3057 0.5701-0.92084 0.92084-1.4101 7.4727-0.93494 12.523 0.22866 2.4315 0.60404 4.6448 0.83233 4.9199 0.22828 0.27515 1.0235 0.57131 1.7692 0.65752 3.4706 0.40147 7.5077-0.31256 9.3534-1.6552 0.50706-0.36889 0.86695-0.27364 2.0485 0.54538 1.6889 1.1704 4.1353 1.36 4.9465 0.38385 1.0932-1.3154 0.74355-16.46-0.40668-17.61-0.17877-0.17877-1.4619-0.40785-2.8524-0.50737-0.39753-0.0302-0.74831-0.0487-1.0585-0.0571zm-75.287 12.006c0.38347 0.0227 0.76305 0.12094 1.0927 0.31559 0.879 0.51825 1.3969 1.356 1.8471 2.4647a1.4596 1.4596 0 0 1 0.07786 0.28687c0.1595 0.86593 0.37795 1.4154 0.53968 1.6875 0.16101 0.27364 0.20825 0.25058 0.18595 0.24303-0.04422-0.0151 0.35301-0.0454 0.94821-0.4941 0.59535-0.44882 1.2148-1.1127 1.6799-1.5886 0.11641-0.11906 0.22564-0.22413 0.3515-0.33638 0.12624-0.11263 0.09676-0.27212 0.77726-0.44659 0.08504-0.0227 0.18973-0.0457 0.31559-0.0491 0.12586-4e-3 0.43366 0.0484 0.43706 0.0491 0.0034 7.6e-4 0.49327 0.22791 0.49599 0.2298 0.0026 2e-3 0.36472 0.37893 0.36661 0.38196 0.0019 3e-3 0.14211 0.25511 0.17877 0.36472 0.0378 0.10961 0.05367 0.20863 0.06463 0.28876 0.02268 0.16025 0.01512 0.26948 0.0076 0.35943-0.03402 0.35868-0.10167 0.48008-0.17272 0.67461a1.4596 1.4596 0 0 1 -0.04195 0.10809c-0.0076 0.0189-2.65e-4 0.0151-0.0076 0.0302 0.15798-0.096 0.33298-0.33071 0.48079-0.39526 0.6438-0.28309 1.3476-0.44153 2.1911-0.35944 0.42172 0.0412 0.90244 0.14551 1.372 0.48839 0.46953 0.34281 0.84869 0.99028 0.90456 1.6172a1.4596 1.4596 0 0 1 -1.315 1.5868c-0.82492 0.0824-1.467 0.10393-1.9896 0.093-0.52263-0.0113-0.89197-0.0189-1.4005-0.23773-0.21846-0.0937-0.51129-0.32164-0.75254-0.6822-0.02268 0.25511-0.27477 0.90655-0.24529 1.0129 0.09222 0.33109 0.14438 0.39545 0.86846 0.53779 1.4478 0.2846 4.7068-0.29102 7.7514-0.83233a1.4596 1.4596 0 0 1 0.17877 -0.0227c3.9114-0.20826 8.6008-0.367 12.375 1.0128 1.8871 0.68999 3.5929 1.8306 4.6254 3.6202 0.99269 1.7202 1.2772 3.9324 0.80001 6.5656 0.38831 1.9171 0.70435 3.3193 0.85134 4.3878 0.07597 0.56137 0.12397 1.0433 0.0514 1.5734-0.07257 0.53016-0.37304 1.2222-0.95588 1.6077-0.58288 0.38453-1.1592 0.40377-1.6438 0.37455-0.48454-0.0302-0.94953-0.1285-1.4936-0.25096-1.0882-0.24529-2.4735-0.62026-4.346-0.99193a1.4596 1.4596 0 0 1 -0.0858 -0.0151c-3.7284-0.98336-7.0154-3.1173-9.6745-3.7551-1.3295-0.31899-2.4113-0.30841-3.4776 0.18596-1.046 0.4854-2.1924 1.5699-3.3826 3.6619-0.04762 0.37569-0.05594 0.76018-0.2298 1.1136-0.26684 0.54263-0.87553 1.0551-1.4728 1.1934-1.1944 0.27704-1.854-0.21052-2.4913-0.48839-0.63723-0.2778-1.2225-0.50793-1.5659-0.54728-0.34356-0.0393-0.3428-0.0892-0.62517 0.24529a1.4596 1.4596 0 0 1 -2.2557 -0.0227c-1.8463-2.2817-1.655-5.0324-1.4005-7.3333 0.23509-2.1254 0.34394-3.8674-0.15005-5.2202-1.9657-0.4532-3.5515-1.5583-4.2586-3.1242-0.86835-1.9224-0.89027-4.1088-0.53212-6.0411 0.3583-1.9323 0.9515-3.6396 2.4058-4.6615 0.45449-0.31937 1.1054-0.50086 1.7445-0.4656zm34.989 18.574c-0.0189-0.0971-0.03402-0.15837-0.05329-0.25852v0.57392c0.02268-0.10734 0.03402-0.20939 0.05329-0.31559zm-35.188-15.421c-0.24529 0.3001-0.83255 1.1858-1.0775 2.5066-0.27439 1.4796-0.18633 3.1814 0.32315 4.3099 0.50963 1.1285 1.1692 1.7775 2.9018 1.7958a1.4596 1.4596 0 0 1 1.2998 0.81713c1.2011 2.4691 0.68738 5.054 0.44466 7.2478-0.20183 1.8262 0.04687 3.1222 0.6404 4.3176 0.37965-0.0756 0.73194-0.46239 1.0699-0.4238 1.007 0.11527 1.7937 0.51205 2.3982 0.77533 0.22224 0.0964 0.0994 0.076 0.24529 0.11414a1.4596 1.4596 0 0 1 0.17877 -0.60998c1.407-2.5179 2.979-4.1362 4.7622-4.9636 1.7832-0.82745 3.6622-0.78626 5.3874-0.37266 3.4449 0.82628 6.6511 2.9503 9.7164 3.7626l0.01512 8e-3c1.9122 0.38351 3.3735 0.76887 4.3308 0.98438 0.24416 0.0552 0.34167 0.0635 0.51689 0.093-0.0076-0.076 0.0034-0.0688-0.0076-0.1576-0.12132-0.88241-0.44617-2.3636-0.86842-4.4676a1.4596 1.4596 0 0 1 0 -0.57581c0.46477-2.2985 0.19389-3.7907-0.41616-4.8477-0.6099-1.057-1.6417-1.7992-3.1033-2.3336-2.9052-1.0622-7.3257-1.0425-11.147-0.84189-2.9433 0.52875-6.1029 1.3107-8.7111 0.79816-1.3199-0.25928-2.7136-1.1409-3.1241-2.6149-0.1183-0.42607 0.25285-1.0296 0.26419-1.486-0.83698 0.55079-1.7738 1.1887-3.0082 0.78289-0.7423-0.24415-1.3679-0.81456-1.7882-1.5222-0.39008-0.65673-0.64834-1.4574-0.84374-2.4362-0.19465-0.45668-0.29669-0.53873-0.39908-0.65941zm0.39908 0.65942c0.01512 0.0302 0.0189 0.0302 0.03402 0.0646l-0.07975-0.28687c0.01512 0.0779 0.03402 0.14665 0.04762 0.22261zm17.211 6.4782c0.0378-8e-3 0.07295-0.0151 0.10847-0.0227l-0.18066 0.0227c0.02268-1e-3 0.04876-6.8e-4 0.07219-2e-3zm-10.934-6.959c0 4e-3 -0.0076 0.0491-0.02646 0.10092l0.0189-0.0457c0.0018-0.0113 0.0076-0.0567 0.0076-0.0552zm-0.0076 0.0552c-0.0031 0.0227-0.0037 0.0227-0.01134 0.0949-8.32e-4 0.0113 7.56e-4 0.034 0 0.0438 0.03402-0.0763-6.81e-4 -0.11603 0.0378-0.19389zm211.81 3.9184c0.4267 0.0412 0.79634 0.26003 0.96718 0.42191 0.45505 0.43211 0.44825 0.64773 0.53971 0.91211 0.0907 0.26457 0.17008 0.55242 0.24945 0.91979 0.16252 0.73447 0.34016 1.7606 0.53972 3.2096a1.4596 1.4596 0 0 1 -0.0718 0.69743c-0.12473 0.34205-0.24189 0.62264-0.4388 0.91975-0.20032 0.29707-0.53859 0.77658-1.3285 0.84756-0.78954 0.0711-1.3466-0.482-1.5507-0.79052-0.20409-0.30841-0.27968-0.54773-0.35149-0.79816-0.29103-1.0012-0.35528-2.2017-0.3515-3.2894 7.5e-4 -0.54387 0-1.0194 0.0945-1.4708 0.0378-0.22564 0.0378-0.42078 0.28724-0.83426 0.12473-0.20674 0.37909-0.58042 0.97701-0.71833 0.15118-0.034 0.29858-0.0404 0.4388-0.0265zm-230.6 7.3676c-0.15042 0.32882-0.33373 0.87088-0.4523 1.6514-0.52509 3.4619 0.06085 9.9735 1.2143 13.129a1.4596 1.4596 0 0 1 0.0703 0.28119c6.5523 42.259 38.525 79.24 78.956 92.249-13.333-9.0266-23.685-21.951-32.264-35.344-11.793-7.0747-21.404-17.868-28.104-29.734-1.4022-1.8686-1.5138-4.346-1.4005-6.9666 0.11376-2.6289 0.54607-5.4727 0.80383-8.0156 0.25776-2.5428 0.27364-4.8112-0.10847-5.9195-0.19087-0.55411-0.38649-0.75734-0.64611-0.88936-0.26003-0.13266-0.75182-0.23735-1.7008-0.0227a1.4596 1.4596 0 0 1 -0.95584 -0.1081c-3.9512-1.9055-5.774-5.2363-7.2535-8.2797-1.4795-3.0434-2.7002-5.8065-5.2734-7.5994a1.4596 1.4596 0 0 1 -0.48079 -0.56817c-0.79703-1.6571-1.4899-2.7852-2.0106-3.432-0.33827-0.41994-0.32088-0.37681-0.39526-0.43139zm236.23 4.0857c0.43351-2e-3 1.1981 0.36095 1.4574 0.88366 0.26079 0.52301 0.1852 0.88501 0.13607 1.163-0.0983 0.55575-0.30237 0.98019-0.6327 1.602a1.4596 1.4596 0 0 1 -0.56617 0.58151c-0.64365 0.36813-1.0938 0.60171-1.6021 0.7392-0.25323 0.0699-0.53254 0.15194-1.0129 0.0378-0.48037-0.11414-1.1297-0.77065-1.2144-1.2999-0.0831-0.52924 0.0529-0.80311 0.14362-1.0205 0.0945-0.2177 0.19276-0.37965 0.29859-0.53779 0.21543-0.31634 0.46979-0.60325 0.74116-0.87794 0.27213-0.27477 0.55597-0.52434 0.86854-0.74684 0.3137-0.22299 0.51288-0.52082 1.3795-0.52448zm-5.517 25.06h2e-3a1.4596 1.4596 0 0 1 1.2862 0.81903c0.20032 0.40766-0.10205 0.93354-0.0378 1.3568 0.18519 1.2273 0.30614 2.4219-0.0945 3.9356-0.53518 2.0357-1.423 4.3908-2.4627 6.8374-2.0583 4.8435-4.7168 9.9888-6.4706 13.266a1.4596 1.4596 0 0 1 0 0.0438c0 0.0189-0.0378 0.0537-0.0378 0.0722a1.4596 1.4596 0 0 1 0 0.0151c-7.5e-4 0 7.6e-4 8e-3 0 8e-3a1.4596 1.4596 0 0 1 -0.10205 0.1576l-0.68976 0.97104a1.4596 1.4596 0 0 1 -2.2636 0.13493c-1.7276-1.8794-2.1196-4.3682-1.7083-6.7727 0.41159-2.4046 1.536-4.8544 2.9152-7.2821 2.7587-4.8553 6.6319-9.7 8.3977-12.82a1.4596 1.4596 0 0 1 1.2918 -0.74113zm-52.352 1.3872c-0.38517-0.0113-0.55914 0.0952-0.57392 0.10621-0.0151 0.0113-0.0922-4e-3 -0.0438 0.50354 0.0302 0.31333 0.39776 1.0596 0.65374 1.6799 0.81377-0.20636 1.7574-0.40811 2.1188-0.60998 0.47686-0.26608 0.49829-0.37568 0.49224-0.36132-0.0113-0.0302-0.045-0.0979-0.16138-0.22791-0.20825-0.23244-0.62842-0.52856-1.1003-0.73927-0.4718-0.21052-1-0.34054-1.3854-0.3515zm49.672 6.7861c-1.6131 2.3174-3.0966 4.4087-4.4731 6.8316-1.293 2.2752-2.2583 4.4885-2.5735 6.3261-0.1096 0.64929 0.30614 0.98767 0.34772 1.5241 1.6721-3.1864 3.6964-7.0664 5.3877-11.047 0.56919-1.3395 0.8863-2.4281 1.313-3.6353zm-123.49 3.4187-0.23773 1.9782c-0.13039 1.0877-0.23735 2.7823-0.23924 3.7664-3e-3 1.5184-0.17537 1.9488-1.1345 2.8448l-1.1307 1.0566 1.3625 0.56818 1.3606 0.5701-0.15761 9.7601-0.1576 9.7619 0.94257 0.14626c3.821 0.59513 12.721-0.11678 14.701-1.1763 1.2297-0.65809 1.7103-2.7902 1.6723-7.4226-0.034-4.0645-0.42251-6.8027-1.2637-8.9125-0.45879-1.1508-2.3837-1.7652-5.7523-1.8338-1.1786-0.0265-2.6406-0.14967-3.2495-0.27931l-1.1079-0.23584-0.2812-4.7812c-0.15496-2.6293-0.44289-4.9409-0.6404-5.1384-0.1973-0.19729-1.3318-0.43076-2.5217-0.51689zm-15.212 0.45036c-3.3668 0-3.3214-0.0964-3.7208 7.7514-0.38774 7.6187-0.40993 16.022-0.05102 19.362 0.19956 1.8604 0.38075 2.2776 1.1592 2.67 1.1371 0.57309 3.5646 0.61066 5.0929 0.0779 1.5823-0.55159 1.6495-1.2599 1.4955-16.025l-0.13115-12.426-0.87035-0.70503c-0.6299-0.50993-1.4537-0.70503-2.974-0.70503zm8.1277 0.13304c-1.0232 0.034-1.9319 0.16063-2.1378 0.36662-0.0703 0.0703-0.0189 1.5556 0.11565 3.3008 0.21733 2.8266 0.32807 3.1907 1.0204 3.3408 1.0767 0.23358 3.3363-0.0503 4.4562-0.56062 0.87591-0.39904 0.93498-0.59531 0.93498-3.1203v-2.6946l-1.564-0.42191c-0.66406-0.17877-1.8025-0.24265-2.8258-0.2109zm49.053 10.853c-1.8698-3e-3 -3.4384 0.0643-3.9374 0.22412-0.74649 0.23925-0.76456 0.33978-0.32315 1.8091 0.25701 0.85591 0.57638 2.5524 0.7107 3.7702 0.34696 3.1471-0.43468 4.6064-2.86 5.3342l-1.7863 0.5359 0.25247 2.0466c0.13947 1.126 0.47565 2.5772 0.74495 3.2248 0.48457 1.1656 1.2991 1.5639 4.2358 2.0695 1.9234 0.33109 7.9656 0.24378 10.216-0.14815 3.0922-0.53851 3.9078-1.2211 3.9546-3.3103 0.0412-1.8396 0.27402-1.7257-5.1214-2.5122-2.587-0.3772-3.7465-1.1225-3.3503-2.155 0.11754-0.30652-0.14664-0.47123-0.75443-0.47123-1.3888 0-2.2368-0.58662-2.6775-1.8509-0.73561-2.1102 0.5907-4.0203 2.8067-4.042 2.0632-0.0189 3.6 2.3198 2.6681 4.061l-0.43896 0.81906 2.898-0.26986c1.5939-0.14854 3.1889-0.42486 3.5441-0.6138 0.84918-0.45173 0.84245-3.1554-0.0151-5.6686-0.6-1.7583-0.71789-1.868-2.4761-2.3242-1.2245-0.31786-5.1748-0.52267-8.2911-0.52826zm-17.304 0.15949c-2.1376 0.0189-3.9844 0.13531-4.6634 0.36473-1.6576 0.56065-1.6089 0.30311-0.97108 5.0853 0.55967 4.1963 0.51632 7.4174-0.14249 10.528-0.30085 1.4206-0.54727 2.6112-0.54727 2.6472 0 0.0378 0.29102 0.14248 0.64611 0.23584 1.3865 0.36208 3.864 0.22904 5.0624-0.27175 1.317-0.55022 1.3043-0.51738 1.8471-4.5874 0.4673-3.5038 2.0918-4.8515 5.8473-4.8515 1.0926 0 2.5285-0.1886 3.1926-0.41998l1.2086-0.42187-0.18067-2.6225c-0.22337-3.2379-0.78274-4.4876-2.2671-5.0605-1.1014-0.42519-5.4697-0.65862-9.0322-0.62524zm-29.411 0.28914c-0.37304-2e-3 -0.80352 8e-3 -1.2998 8e-3h-2.5522l-0.0378 5.4425c-0.0227 2.9938-0.15005 7.1033-0.28914 9.133-0.16441 2.402-0.11905 3.7942 0.12889 3.9869 0.5393 0.41813 4.9766 0.0537 5.4805-0.45041 0.57309-0.57312 0.9321-5.0058 0.96344-11.892 0.0264-5.8056 0.21807-6.214-2.3944-6.2254zm11.66 3.7265c0.67458 0.0113 1.361 0.25701 1.9668 0.73354 1.2805 1.0072 1.3641 3.2692 0.16328 4.3878-1.0186 0.94896-2.896 0.97341-4.0324 0.0533-0.65734-0.53231-0.86276-1.0692-0.86276-2.2538s0.20561-1.7215 0.86276-2.2538c0.56379-0.4566 1.2276-0.67854 1.9022-0.66701zm106.18 0.56251c0.13228-5.7e-4 0.29102 0.0151 0.48076 0.059 0.38173 0.0862 0.8708 0.45135 1.0568 0.83996 0.1852 0.38858 0.1663 0.68312 0.14362 0.89125-0.0869 0.8326-0.35527 1.1048-0.76195 1.7673a1.4596 1.4596 0 0 1 -0.34394 0.38767c-0.91842 0.7206-1.5658 1.1879-2.0621 1.5013-0.24945 0.15647-0.4456 0.27477-0.71055 0.38007-0.13228 0.0525-0.27968 0.11489-0.54727 0.13681-0.26835 0.0227-0.82507-8e-3 -1.2639-0.48079-0.43804-0.47165-0.42368-1.0297-0.37984-1.2941 0.0453-0.26457 0.11339-0.39848 0.17386-0.51689 0.11716-0.2366 0.22677-0.39368 0.35149-0.56062 0.25323-0.33411 0.56618-0.67706 0.912-1.0338 0.69128-0.71365 1.3043-1.3764 2.2046-1.8319 0.17008-0.0854 0.34772-0.2434 0.74684-0.24529z" fill="#71a7cf" fill-rule="evenodd" style="paint-order:normal"/>
</svg>
