<svg xmlns="http://www.w3.org/2000/svg" width="256" height="254">
<path d="M145.6 0C111.5 0.2 79.6 3.5 65.2 9 59 11.4 56.4 13.5 53.2 18.5c-6.4 10.1-9.7 31.6-8.3 54.7 1.8 28.8 8.6 53.6 17.1 62.2 1.8 1.8 6 3.9 10.2 5.1 12 3.5 32.5 5.7 57.8 6.4 43.4 1.1 89.5-3.2 102.1-9.4 2.7-1.4 3.9-2.3 5.6-4.6 6.6-8.9 11.6-29.1 13.4-53.9 0.5-6.4 0.5-22.1 0-28.2C249.7 31.8 245.5 18.3 239.3 12.9 233.7 8 217 4 192 1.8 177 0.5 161.1-0.1 145.6 0ZM125 8.3c8.4-0.4 16.7-0.6 12.1-0.5-4.6 0.1 80.4-2 90.6 11.2 19.2 13.9 13.1 97.9-3.3 109.7-16.3 11.8-135.4 14.1-151.7 0C56.4 114.8 48.1 33.8 69.5 19.1 82.8 9.3 107.7 9.2 125 8.3ZM238 9.9c-0.1 0.1 0.5 0.3 1.1 0.7 7 5.2 11.1 15.7 13.4 34.9 0.8 6.9 0.8 30.8 0 39-1.1 10.9-2.5 19.2-4.5 27.4-2.9 12-7.6 21.8-11.8 24.8-0.8 0.6-1.9 1.1-1.9 1.2 0 0.3 1.5-0.3 2.9-1.1 2.2-1.3 4.3-2.8 6.1-5.7 5.9-9.1 10.2-26.9 12.2-49.6 0.8-8.8 0.8-25.7 0-33.3-1.5-14.7-4.2-25.1-8.3-31.2-1.9-2.8-3.9-4.3-6.5-5.9-1.3-0.8-2.4-1.2-2.6-1.1zM97.5 147c-20.8 1.9-37.1 5.2-42.9 10.3-8.9 2.6-69.2 48.8-51.3 78.4 26.5 18.3 172.4 17.3 196.1 0 23.8-17.3 63.5-63.7 43.2-78.4-6.1-4.5-24-7.8-46.4-9.9zm-32.2 13.5c1.6 0 3.1 0.1 4.4 0.2 0.6 0.1 1.2 0.1 1.7 0.2 0.5 0.1 0.8 0.2 1.2 0.4 0.3 0.2 0.7 0.5 0.8 0.8 0.2 0.4 0.1 0.8 0.1 1.1-0.2 0.6-0.5 1.1-1 1.6-0.9 1-2.1 1.8-3.1 2.3-0.8 0.4-1.8 0.5-3.1 0.6-1.3 0.1-2.9 0.2-4.5 0.2-1.6 0-3.2-0.1-4.6-0.2-1.4-0.1-2.4-0.2-3.2-0.6-0.1-0.1-0.2-0.1-0.3-0.2-0.3-0.3-0.5-0.8-0.5-1.2 0-0.4 0.1-0.8 0.3-1.1 0.3-0.7 0.9-1.2 1.4-1.6 0.6-0.5 1.2-0.8 1.7-1.1 0.3-0.1 0.5-0.3 0.7-0.4 0.1 0 0.2-0.1 0.3-0.1 0.4-0.3 0.8-0.3 1.3-0.4 0.5-0.1 1.1-0.2 1.7-0.2 1.3-0.1 2.9-0.2 4.4-0.1zm21.2 0c1.6 0 3.1 0.1 4.4 0.2 0.6 0.1 1.2 0.1 1.7 0.2 0.5 0.1 0.8 0.2 1.2 0.4 0.3 0.2 0.7 0.5 0.8 0.8 0.2 0.4 0.2 0.8 0.1 1.1-0.2 0.6-0.5 1.1-1 1.6-0.9 1-2.1 1.8-3.1 2.3-0.8 0.4-1.8 0.5-3.1 0.6-1.3 0.1-2.9 0.2-4.5 0.2-1.6 0-3.2-0.1-4.6-0.2-1.4-0.1-2.4-0.2-3.2-0.6-0.1-0.1-0.2-0.1-0.3-0.2-0.3-0.3-0.5-0.8-0.5-1.2 0-0.4 0.1-0.8 0.3-1.1 0.3-0.7 0.9-1.2 1.4-1.6 0.6-0.5 1.2-0.8 1.7-1.1 0.3-0.1 0.5-0.3 0.7-0.4 0.1 0 0.2-0.1 0.3-0.1 0.4-0.3 0.8-0.3 1.3-0.4 0.5-0.1 1.1-0.2 1.7-0.2 1.3-0.1 2.9-0.2 4.4-0.1zm21.3 0c1.6 0 3.1 0.1 4.4 0.2 0.6 0.1 1.2 0.1 1.7 0.2 0.5 0.1 0.8 0.2 1.2 0.4 0.3 0.2 0.7 0.5 0.8 0.8 0.2 0.4 0.2 0.8 0.1 1.1-0.2 0.6-0.5 1.1-1 1.6-0.9 1-2.1 1.8-3.1 2.3-0.8 0.4-1.8 0.5-3.1 0.6-1.3 0.1-2.9 0.2-4.5 0.2-1.6 0-3.2-0.1-4.6-0.2-1.4-0.1-2.4-0.2-3.2-0.6-0.1-0.1-0.2-0.1-0.3-0.2-0.3-0.3-0.5-0.8-0.5-1.2 0-0.4 0.1-0.8 0.3-1.1 0.3-0.7 0.9-1.2 1.4-1.6 0.6-0.5 1.2-0.8 1.7-1.1 0.3-0.1 0.5-0.3 0.7-0.4 0.1 0 0.2-0.1 0.3-0.1 0.4-0.3 0.8-0.3 1.3-0.4 0.5-0.1 1.1-0.2 1.7-0.2 1.3-0.1 2.9-0.2 4.4-0.1zm21.2 0c1.6 0 3.1 0.1 4.4 0.2 0.6 0.1 1.2 0.1 1.7 0.2 0.5 0.1 0.9 0.2 1.3 0.4 0.3 0.2 0.7 0.5 0.8 0.8 0.2 0.4 0.2 0.8 0.1 1.1-0.2 0.6-0.5 1.1-1 1.6-0.9 1-2.1 1.8-3.1 2.3-0.8 0.4-1.8 0.5-3.1 0.6-1.3 0.1-2.9 0.2-4.5 0.2-1.6 0-3.2-0.1-4.6-0.2-1.4-0.1-2.4-0.2-3.2-0.6-0.1-0.1-0.2-0.1-0.3-0.2-0.3-0.3-0.5-0.8-0.5-1.2 0-0.4 0.1-0.8 0.3-1.1 0.3-0.7 0.9-1.2 1.4-1.6 0.6-0.5 1.2-0.8 1.7-1.1 0.3-0.1 0.5-0.3 0.7-0.4 0.2-0.1 0.3-0.1 0.4-0.2 0.4-0.2 0.7-0.3 1.2-0.3 0.5-0.1 1.1-0.2 1.7-0.2 1.3-0.1 2.9-0.2 4.4-0.1zm-7.3 0.7c0 0-0.1 0-0.1 0.1l0.3-0.1c-0.1 0-0.1 0-0.2 0.1zm28.6-0.7c1.6 0 3.1 0.1 4.4 0.2 0.6 0.1 1.2 0.1 1.7 0.2 0.5 0.1 0.8 0.2 1.2 0.4 0.3 0.2 0.7 0.5 0.8 0.8 0.2 0.4 0.2 0.8 0.1 1.1-0.2 0.6-0.5 1.1-1 1.6-0.9 1-2.1 1.8-3.1 2.3-0.8 0.4-1.8 0.5-3.1 0.6-1.3 0.1-2.9 0.2-4.5 0.2-1.6 0-3.2-0.1-4.6-0.2-1.4-0.1-2.4-0.2-3.2-0.6-0.1-0.1-0.2-0.1-0.3-0.2-0.3-0.3-0.5-0.8-0.5-1.2 0-0.4 0.1-0.8 0.3-1.1 0.3-0.7 0.9-1.2 1.4-1.6 0.6-0.5 1.2-0.8 1.7-1.1 0.3-0.1 0.5-0.3 0.7-0.4 0.1 0 0.2-0.1 0.3-0.1 0.4-0.3 0.8-0.3 1.3-0.4 0.5-0.1 1.1-0.2 1.7-0.2 1.3-0.1 2.9-0.2 4.4-0.1zm21.2 0c1.6 0 3.1 0.1 4.4 0.2 0.6 0.1 1.2 0.1 1.7 0.2 0.5 0.1 0.8 0.2 1.2 0.4 0.3 0.2 0.7 0.5 0.8 0.8 0.2 0.4 0.2 0.8 0.1 1.1-0.2 0.6-0.5 1.1-1 1.6-0.9 1-2.1 1.8-3.1 2.3-0.8 0.4-1.8 0.5-3.1 0.6-1.3 0.1-2.9 0.2-4.5 0.2-1.6 0-3.2-0.1-4.6-0.2-1.4-0.1-2.4-0.2-3.2-0.6-0.1-0.1-0.2-0.1-0.3-0.2-0.3-0.3-0.5-0.8-0.5-1.2 0-0.4 0.1-0.8 0.3-1.1 0.3-0.7 0.9-1.2 1.4-1.6 0.6-0.5 1.2-0.8 1.7-1.1 0.3-0.1 0.5-0.3 0.7-0.4 0.1 0 0.2-0.1 0.3-0.1 0.4-0.3 0.8-0.3 1.3-0.4 0.5-0.1 1.1-0.2 1.7-0.2 1.3-0.1 2.9-0.2 4.4-0.1zm21.2 0c1.6 0 3.1 0.1 4.4 0.2 0.6 0.1 1.2 0.1 1.7 0.2 0.5 0.1 0.9 0.2 1.3 0.4 0.3 0.2 0.7 0.5 0.8 0.8 0.2 0.4 0.2 0.8 0.1 1.1-0.2 0.6-0.5 1.1-1 1.6-0.9 1-2.1 1.8-3.1 2.3-0.8 0.4-1.8 0.5-3.1 0.6-1.3 0.1-2.9 0.2-4.5 0.2-1.6 0-3.2-0.1-4.6-0.2-1.4-0.1-2.4-0.2-3.2-0.6-0.1-0.1-0.2-0.1-0.3-0.2-0.3-0.3-0.5-0.8-0.5-1.2 0-0.4 0.1-0.8 0.3-1.1 0.3-0.7 0.9-1.2 1.4-1.6 0.6-0.5 1.2-0.8 1.7-1.1 0.3-0.1 0.5-0.3 0.7-0.4 0.2-0.1 0.3-0.1 0.4-0.2 0.4-0.2 0.7-0.3 1.2-0.3 0.5-0.1 1.1-0.2 1.7-0.2 1.3-0.1 2.9-0.2 4.4-0.1zm-7.3 0.7c0 0-0.1 0-0.1 0.1l0.3-0.1c-0.1 0-0.1 0-0.2 0.1zm28.6-0.7c1.6 0 3.1 0.1 4.4 0.2 0.6 0.1 1.2 0.1 1.7 0.2 0.5 0.1 0.8 0.2 1.2 0.4 0.3 0.2 0.7 0.5 0.8 0.8 0.2 0.4 0.2 0.8 0.1 1.1-0.2 0.6-0.5 1.1-1 1.6-0.9 1-2.1 1.8-3.1 2.3-0.8 0.4-1.8 0.5-3.1 0.6-1.3 0.1-2.9 0.2-4.5 0.2-1.6 0-3.2-0.1-4.6-0.2-1.4-0.1-2.4-0.2-3.2-0.6-0.1-0.1-0.2-0.1-0.3-0.2-0.3-0.3-0.5-0.8-0.5-1.2 0-0.4 0.1-0.8 0.3-1.1 0.3-0.7 0.9-1.2 1.4-1.6 0.6-0.5 1.2-0.8 1.7-1.1 0.3-0.1 0.5-0.3 0.7-0.4 0.1 0 0.2-0.1 0.3-0.1 0.4-0.3 0.8-0.3 1.3-0.4 0.5-0.1 1.1-0.2 1.7-0.2 1.3-0.1 2.9-0.2 4.4-0.1zm-148.8 2c-1.5 0-3.1 0-4.3 0.1-0.6 0-1.1 0.1-1.5 0.2-0.4 0.1-0.7 0.2-0.6 0.2-0.1 0.1-0.2 0.1-0.3 0.1 0.1 0 0 0-0.2 0.1-0.1 0.1-0.4 0.2-0.6 0.3-0.4 0.3-1 0.6-1.4 1-0.4 0.4-0.8 0.8-0.9 1 0.4 0.1 1 0.3 2.1 0.4 1.3 0.1 2.8 0.2 4.4 0.2 1.6 0 3.1-0.1 4.4-0.2 1.2-0.1 2.3-0.4 2.4-0.4 0.7-0.4 1.9-1.2 2.5-1.9 0.2-0.3 0.3-0.4 0.4-0.5-0.1 0-0.2-0.1-0.4-0.1-0.4-0.1-0.9-0.1-1.5-0.2-1.2-0.1-2.7-0.2-4.3-0.2zm21.2 0c-1.5 0-3.1 0-4.3 0.1-0.6 0-1.1 0.1-1.5 0.2-0.4 0.1-0.7 0.2-0.6 0.2-0.1 0.1-0.2 0.1-0.3 0.1 0.1 0 0 0-0.2 0.1-0.1 0.1-0.3 0.2-0.6 0.3-0.4 0.3-1 0.6-1.4 1-0.4 0.4-0.8 0.8-0.9 1 0.4 0.1 1 0.3 2.1 0.4 1.3 0.1 2.8 0.2 4.4 0.2 1.6 0 3.1-0.1 4.4-0.2 1.2-0.1 2.3-0.4 2.4-0.4 0.7-0.4 1.9-1.2 2.5-1.9 0.2-0.3 0.3-0.4 0.4-0.5-0.1 0-0.2-0.1-0.4-0.1-0.4-0.1-0.9-0.1-1.5-0.2-1.2-0.1-2.7-0.2-4.3-0.2zm21.2 0c-1.5 0-3.1 0-4.3 0.1-0.6 0-1.1 0.1-1.5 0.2-0.4 0.1-0.7 0.2-0.6 0.2-0.1 0.1-0.2 0.1-0.3 0.1 0.1 0 0 0-0.2 0.1-0.1 0.1-0.4 0.2-0.6 0.3-0.4 0.3-1 0.6-1.4 1-0.4 0.4-0.8 0.8-0.9 1 0.4 0.1 1 0.3 2.1 0.4 1.3 0.1 2.8 0.2 4.4 0.2 1.6 0 3.1-0.1 4.4-0.2 1.2-0.1 2.3-0.4 2.4-0.4 0.7-0.4 1.9-1.2 2.5-1.9 0.2-0.3 0.3-0.4 0.4-0.5-0.1 0-0.2-0.1-0.4-0.1-0.4-0.1-0.9-0.1-1.5-0.2-1.2-0.1-2.7-0.2-4.3-0.2zm21.3 0c-1.5 0-3.1 0-4.3 0.1-0.6 0-1.1 0.1-1.5 0.2-0.4 0.1-0.7 0.2-0.6 0.2-0.1 0.1-0.2 0.1-0.3 0.1 0.1 0 0 0-0.2 0.1-0.1 0.1-0.4 0.2-0.6 0.3-0.4 0.3-1 0.6-1.4 1-0.4 0.4-0.8 0.8-0.9 1 0.4 0.1 1 0.3 2.1 0.4 1.3 0.1 2.8 0.2 4.4 0.2 1.6 0 3.1-0.1 4.4-0.2 1.2-0.1 2.3-0.4 2.4-0.4 0.7-0.4 1.9-1.2 2.5-1.9 0.2-0.3 0.3-0.4 0.4-0.5-0.1 0-0.2-0.1-0.4-0.1-0.4-0.1-0.9-0.1-1.5-0.2-1.2-0.1-2.7-0.2-4.3-0.2zm21.2 0c-1.5 0-3.1 0-4.3 0.1-0.6 0-1.1 0.1-1.5 0.2-0.4 0.1-0.7 0.2-0.6 0.2-0.1 0.1-0.2 0.1-0.3 0.1 0.1 0 0 0-0.2 0.1-0.1 0.1-0.3 0.2-0.6 0.3-0.4 0.3-1 0.6-1.4 1-0.4 0.4-0.8 0.8-0.9 1 0.4 0.1 1 0.3 2.1 0.4 1.3 0.1 2.8 0.2 4.4 0.2 1.6 0 3.1-0.1 4.4-0.2 1.2-0.1 2.3-0.4 2.4-0.4 0.7-0.4 1.9-1.2 2.5-1.9 0.2-0.3 0.3-0.4 0.4-0.5-0.1 0-0.2-0.1-0.4-0.1-0.4-0.1-0.9-0.1-1.5-0.2-1.2-0.1-2.7-0.2-4.3-0.2zm21.2 0c-1.5 0-3.1 0-4.3 0.1-0.6 0-1.1 0.1-1.5 0.2-0.4 0.1-0.7 0.2-0.6 0.2-0.1 0.1-0.2 0.1-0.3 0.1 0.1 0 0 0-0.2 0.1-0.1 0.1-0.4 0.2-0.6 0.3-0.4 0.3-1 0.6-1.4 1-0.4 0.4-0.8 0.8-0.9 1 0.4 0.1 1 0.3 2.1 0.4 1.3 0.1 2.8 0.2 4.4 0.2 1.6 0 3.1-0.1 4.4-0.2 1.2-0.1 2.3-0.4 2.4-0.4 0.7-0.4 1.9-1.2 2.5-1.9 0.2-0.3 0.3-0.4 0.4-0.5-0.1 0-0.2-0.1-0.4-0.1-0.4-0.1-0.9-0.1-1.6-0.2-1.2-0.1-2.7-0.2-4.3-0.2zm21.3 0c-1.5 0-3.1 0-4.3 0.1-0.6 0-1.1 0.1-1.5 0.2-0.4 0.1-0.7 0.2-0.6 0.2-0.1 0.1-0.2 0.1-0.3 0.1 0.1 0 0 0-0.2 0.1-0.1 0.1-0.4 0.2-0.6 0.3-0.4 0.3-1 0.6-1.4 1-0.4 0.4-0.8 0.8-0.9 1 0.4 0.1 1 0.3 2.1 0.4 1.3 0.1 2.8 0.2 4.4 0.2 1.6 0 3.1-0.1 4.4-0.2 1.2-0.1 2.3-0.4 2.4-0.4 0.7-0.4 1.9-1.2 2.5-1.9 0.2-0.3 0.3-0.4 0.4-0.5-0.1 0-0.2-0.1-0.4-0.1-0.4-0.1-0.9-0.1-1.5-0.2-1.2-0.1-2.7-0.2-4.3-0.2zm21.2 0c-1.5 0-3.1 0-4.3 0.1-0.6 0-1.1 0.1-1.5 0.2-0.4 0.1-0.7 0.2-0.6 0.2-0.1 0.1-0.2 0.1-0.3 0.1 0.1 0 0 0-0.2 0.1-0.1 0.1-0.4 0.2-0.6 0.3-0.4 0.3-1 0.6-1.4 1-0.4 0.4-0.8 0.8-0.9 1 0.4 0.1 1 0.3 2.1 0.4 1.3 0.1 2.8 0.2 4.4 0.2 1.6 0 3.1-0.1 4.4-0.2 1.2-0.1 2.3-0.4 2.4-0.4 0.7-0.4 1.9-1.2 2.5-1.9 0.2-0.3 0.3-0.4 0.4-0.5-0.1 0-0.2-0.1-0.4-0.1-0.4-0.1-0.9-0.1-1.5-0.2-1.2-0.1-2.7-0.2-4.3-0.2zm-31.2 3.1c0 0 0 0 0 0 0 0 0 0 0 0 0 0 0 0 0 0l0 0h0c0 0 0 0 0 0zm-114 5.8c1.6 0 3.1 0.1 4.4 0.2 0.6 0.1 1.2 0.1 1.7 0.2 0.5 0.1 0.8 0.2 1.2 0.4 0.3 0.2 0.7 0.5 0.8 0.8 0.2 0.4 0.2 0.8 0.1 1.1-0.2 0.6-0.5 1.1-1 1.6-0.9 1-2.1 1.8-3.1 2.3-0.8 0.4-1.8 0.5-3.1 0.6-1.3 0.1-2.9 0.2-4.5 0.2-1.6 0-3.2-0.1-4.6-0.2-1.4-0.1-2.4-0.2-3.2-0.6-0.1-0.1-0.2-0.1-0.3-0.2-0.3-0.3-0.5-0.8-0.5-1.2 0-0.4 0.1-0.8 0.3-1.1 0.3-0.7 0.9-1.2 1.4-1.6 0.6-0.5 1.2-0.8 1.7-1.1 0.3-0.1 0.5-0.3 0.7-0.4 0.2-0.1 0.3-0.1 0.5-0.2 0.3-0.2 0.7-0.2 1.1-0.3 0.5-0.1 1.1-0.2 1.7-0.2 1.3-0.1 2.9-0.1 4.4-0.1zm-7.2 0.7c-0.1 0-0.2 0.1-0.2 0.1l0.3-0.1c0 0-0.1 0-0.1 0zm28.5-0.7c1.6 0 3.1 0.1 4.4 0.2 0.6 0.1 1.2 0.1 1.7 0.2 0.5 0.1 0.9 0.2 1.3 0.4 0.3 0.2 0.7 0.5 0.8 0.8 0.2 0.4 0.2 0.8 0.1 1.1-0.2 0.6-0.5 1.1-1 1.6-0.9 1-2.1 1.8-3.1 2.3-0.8 0.4-1.8 0.5-3.1 0.6-1.3 0.1-2.9 0.2-4.5 0.2-1.6 0-3.2-0.1-4.6-0.2-1.4-0.1-2.4-0.2-3.2-0.6-0.1-0.1-0.2-0.1-0.3-0.2-0.3-0.3-0.5-0.8-0.5-1.2 0-0.4 0.1-0.8 0.3-1.1 0.3-0.7 0.9-1.2 1.4-1.6 0.6-0.5 1.2-0.8 1.7-1.1 0.3-0.1 0.5-0.3 0.7-0.4 0.2-0.1 0.3-0.2 0.5-0.2 0.3-0.2 0.7-0.2 1.1-0.3 0.5-0.1 1.1-0.2 1.7-0.2 1.3-0.1 2.9-0.1 4.4-0.1zm-7.2 0.7c-0.1 0-0.2 0.1-0.2 0.1l0.3-0.1c0 0 0 0-0.1 0zm28.5-0.7c1.6 0 3.1 0.1 4.4 0.2 0.6 0.1 1.2 0.1 1.7 0.2 0.5 0.1 0.8 0.2 1.2 0.4 0.3 0.2 0.7 0.5 0.8 0.8 0.2 0.4 0.2 0.8 0.1 1.1-0.2 0.6-0.5 1.1-1 1.6-0.9 1-2.1 1.8-3.1 2.3-0.8 0.4-1.8 0.5-3.1 0.6-1.3 0.1-2.9 0.2-4.5 0.2-1.6 0-3.2-0.1-4.6-0.2-1.4-0.1-2.4-0.2-3.2-0.6-0.1-0.1-0.2-0.1-0.3-0.2-0.3-0.3-0.5-0.8-0.5-1.2 0-0.4 0.1-0.8 0.3-1.1 0.3-0.7 0.9-1.2 1.4-1.6 0.6-0.5 1.2-0.8 1.7-1.1 0.3-0.1 0.5-0.3 0.7-0.4 0.2-0.1 0.3-0.1 0.5-0.2 0.3-0.2 0.7-0.2 1.1-0.3 0.5-0.1 1.1-0.2 1.7-0.2 1.3-0.1 2.9-0.1 4.4-0.1zm-7.2 0.7c-0.1 0-0.2 0.1-0.2 0.1l0.3-0.1c0 0-0.1 0-0.1 0zm28.5-0.7c1.6 0 3.1 0.1 4.4 0.2 0.6 0.1 1.2 0.1 1.7 0.2 0.5 0.1 0.8 0.2 1.2 0.4 0.3 0.2 0.7 0.5 0.8 0.8 0.2 0.4 0.2 0.8 0.1 1.1-0.2 0.6-0.5 1.1-1 1.6-0.9 1-2.1 1.8-3.1 2.3-0.8 0.4-1.8 0.5-3.1 0.6-1.3 0.1-2.9 0.2-4.5 0.2-1.6 0-3.2-0.1-4.6-0.2-1.4-0.1-2.4-0.2-3.2-0.6-0.1-0.1-0.2-0.1-0.3-0.2-0.3-0.3-0.5-0.8-0.5-1.2 0-0.4 0.1-0.8 0.3-1.1 0.3-0.7 0.9-1.2 1.4-1.6 0.6-0.5 1.2-0.8 1.7-1.1 0.3-0.1 0.5-0.3 0.7-0.4 0.2-0.1 0.3-0.1 0.5-0.2 0.3-0.2 0.7-0.2 1.1-0.3 0.5-0.1 1.1-0.2 1.7-0.2 1.3-0.1 2.9-0.1 4.4-0.1zm-7.2 0.7c-0.1 0-0.2 0.1-0.2 0.1l0.3-0.1c0 0-0.1 0-0.1 0zm28.5-0.7c1.6 0 3.1 0.1 4.4 0.2 0.6 0.1 1.2 0.1 1.7 0.2 0.5 0.1 0.9 0.2 1.3 0.4 0.3 0.2 0.7 0.5 0.8 0.8 0.2 0.4 0.2 0.8 0.1 1.1-0.2 0.6-0.5 1.1-1 1.6-0.9 1-2.1 1.8-3.1 2.3-0.8 0.4-1.8 0.5-3.1 0.6-1.3 0.1-2.9 0.2-4.5 0.2-1.6 0-3.2-0.1-4.6-0.2-1.4-0.1-2.4-0.2-3.2-0.6-0.1-0.1-0.2-0.1-0.3-0.2-0.3-0.3-0.5-0.8-0.5-1.2 0-0.4 0.1-0.8 0.3-1.1 0.3-0.7 0.9-1.2 1.4-1.6 0.6-0.5 1.2-0.8 1.7-1.1 0.3-0.1 0.5-0.3 0.7-0.4 0.2-0.1 0.3-0.2 0.6-0.2 0.3-0.2 0.7-0.2 1.1-0.3 0.5-0.1 1.1-0.2 1.7-0.2 1.3-0.1 2.9-0.1 4.4-0.1zm-7.2 0.7c-0.1 0-0.2 0.1-0.2 0.1l0.3-0.1c0 0 0 0-0.1 0zm28.5-0.7c1.6 0 3.1 0.1 4.4 0.2 0.6 0.1 1.2 0.1 1.7 0.2 0.5 0.1 0.8 0.2 1.2 0.4 0.3 0.2 0.7 0.5 0.8 0.8 0.2 0.4 0.2 0.8 0.1 1.1-0.2 0.6-0.5 1.1-1 1.6-0.9 1-2.1 1.8-3.1 2.3-0.8 0.4-1.8 0.5-3.1 0.6-1.3 0.1-2.9 0.2-4.5 0.2-1.6 0-3.2-0.1-4.6-0.2-1.4-0.1-2.4-0.2-3.2-0.6-0.1-0.1-0.2-0.1-0.3-0.2-0.3-0.3-0.5-0.8-0.5-1.2 0-0.4 0.1-0.8 0.3-1.1 0.3-0.7 0.9-1.2 1.4-1.6 0.6-0.5 1.2-0.8 1.7-1.1 0.3-0.1 0.5-0.3 0.7-0.4 0.2-0.1 0.3-0.1 0.5-0.2 0.3-0.2 0.7-0.2 1.1-0.3 0.5-0.1 1.1-0.2 1.7-0.2 1.3-0.1 2.9-0.1 4.4-0.1zm-7.2 0.7c-0.1 0-0.2 0.1-0.2 0.1l0.3-0.1c0 0-0.1 0-0.1 0zm28.5-0.7c1.6 0 3.1 0.1 4.4 0.2 0.6 0.1 1.2 0.1 1.7 0.2 0.5 0.1 0.8 0.2 1.2 0.4 0.3 0.2 0.7 0.5 0.8 0.8 0.2 0.4 0.2 0.8 0.1 1.1-0.2 0.6-0.5 1.1-1 1.6-0.9 1-2.1 1.8-3.1 2.3-0.8 0.4-1.8 0.5-3.1 0.6-1.3 0.1-2.9 0.2-4.5 0.2-1.6 0-3.2-0.1-4.6-0.2-1.4-0.1-2.4-0.2-3.2-0.6-0.1-0.1-0.2-0.1-0.3-0.2-0.3-0.3-0.5-0.8-0.5-1.2 0-0.4 0.1-0.8 0.3-1.1 0.3-0.7 0.9-1.2 1.4-1.6 0.6-0.5 1.2-0.8 1.7-1.1 0.3-0.1 0.5-0.3 0.7-0.4 0.2-0.1 0.3-0.1 0.5-0.2 0.3-0.2 0.7-0.2 1.1-0.3 0.5-0.1 1.1-0.2 1.7-0.2 1.3-0.1 2.9-0.1 4.4-0.1zm-7.2 0.7c-0.1 0-0.2 0.1-0.2 0.1l0.3-0.1c0 0-0.1 0-0.1 0zm28.5-0.7c1.6 0 3.1 0.1 4.4 0.2 0.6 0.1 1.2 0.1 1.7 0.2 0.5 0.1 0.8 0.2 1.2 0.4 0.3 0.2 0.7 0.5 0.8 0.8 0.2 0.4 0.2 0.8 0.1 1.1-0.2 0.6-0.5 1.1-1 1.6-0.9 1-2.1 1.8-3.1 2.3-0.8 0.4-1.8 0.5-3.1 0.6-1.3 0.1-2.9 0.2-4.5 0.2-1.6 0-3.2-0.1-4.6-0.2-1.4-0.1-2.4-0.2-3.2-0.6-0.1-0.1-0.2-0.1-0.3-0.2-0.3-0.3-0.5-0.8-0.5-1.2 0-0.4 0.1-0.8 0.3-1.1 0.3-0.7 0.9-1.2 1.4-1.6 0.6-0.5 1.2-0.8 1.7-1.1 0.3-0.1 0.5-0.3 0.7-0.4 0.2-0.1 0.3-0.1 0.5-0.2 0.3-0.2 0.7-0.2 1.1-0.3 0.5-0.1 1.1-0.2 1.7-0.2 1.3-0.1 2.9-0.1 4.4-0.1zm-7.2 0.7c-0.1 0-0.2 0.1-0.2 0.1l0.3-0.1c0 0-0.1 0-0.1 0zm-141.5 1.3c-1.5 0-3.1 0-4.3 0.1-0.6 0-1.1 0.1-1.5 0.2-0.4 0.1-0.7 0.2-0.6 0.2-0.1 0.1-0.2 0.1-0.3 0.1 0.1 0 0 0-0.2 0.1-0.1 0.1-0.4 0.2-0.6 0.3-0.4 0.3-1 0.6-1.4 1-0.4 0.4-0.8 0.8-0.9 1 0.4 0.1 1 0.3 2.1 0.4 1.3 0.1 2.8 0.2 4.4 0.2 1.6 0 3.1-0.1 4.4-0.2 1.2-0.1 2.3-0.4 2.4-0.4 0.7-0.4 1.9-1.2 2.5-1.9 0.2-0.2 0.3-0.4 0.4-0.5-0.1 0-0.2-0.1-0.4-0.1-0.4-0.1-0.9-0.1-1.5-0.2-1.2-0.1-2.7-0.2-4.3-0.2zm21.3 0c-1.5 0-3.1 0-4.3 0.1-0.6 0-1.1 0.1-1.5 0.2-0.4 0.1-0.7 0.2-0.6 0.2-0.1 0.1-0.2 0.1-0.3 0.1 0.1 0 0 0-0.2 0.1-0.1 0.1-0.4 0.2-0.6 0.3-0.4 0.3-1 0.6-1.4 1-0.4 0.4-0.8 0.8-0.9 1 0.4 0.1 1 0.3 2.1 0.4 1.3 0.1 2.8 0.2 4.4 0.2 1.6 0 3.1-0.1 4.4-0.2 1.2-0.1 2.3-0.4 2.4-0.4 0.7-0.4 1.9-1.2 2.5-1.9 0.2-0.3 0.3-0.4 0.4-0.5-0.1 0-0.2-0.1-0.4-0.1-0.4-0.1-0.9-0.1-1.5-0.2-1.2-0.1-2.7-0.2-4.3-0.2zm21.2 0c-1.5 0-3.1 0-4.3 0.1-0.6 0-1.1 0.1-1.5 0.2-0.4 0.1-0.7 0.2-0.6 0.2-0.1 0.1-0.2 0.1-0.3 0.1 0.1 0 0 0-0.2 0.1-0.1 0.1-0.3 0.2-0.6 0.3-0.4 0.3-1 0.6-1.4 1-0.4 0.4-0.8 0.8-0.9 1 0.4 0.1 1 0.3 2.1 0.4 1.3 0.1 2.8 0.2 4.4 0.2 1.6 0 3.1-0.1 4.4-0.2 1.2-0.1 2.3-0.4 2.4-0.4 0.7-0.4 1.9-1.2 2.5-1.9 0.2-0.3 0.3-0.4 0.4-0.5-0.1 0-0.2-0.1-0.4-0.1-0.4-0.1-0.9-0.1-1.5-0.2-1.2-0.1-2.7-0.2-4.3-0.2zm21.2 0c-1.5 0-3.1 0-4.3 0.1-0.6 0-1.1 0.1-1.5 0.2-0.4 0.1-0.7 0.2-0.6 0.2-0.1 0.1-0.2 0.1-0.3 0.1 0.1 0 0 0-0.2 0.1-0.1 0.1-0.4 0.2-0.6 0.3-0.4 0.3-1 0.6-1.4 1-0.4 0.4-0.8 0.8-0.9 1 0.4 0.1 1 0.3 2.1 0.4 1.3 0.1 2.8 0.2 4.4 0.2 1.6 0 3.1-0.1 4.4-0.2 1.2-0.1 2.3-0.4 2.4-0.4 0.7-0.4 1.9-1.2 2.5-1.9 0.2-0.3 0.3-0.4 0.4-0.5-0.1 0-0.2-0.1-0.4-0.1-0.4-0.1-0.9-0.1-1.6-0.2-1.2-0.1-2.7-0.2-4.3-0.2zm21.3 0c-1.5 0-3.1 0-4.3 0.1-0.6 0-1.1 0.1-1.5 0.2-0.4 0.1-0.7 0.2-0.6 0.2-0.1 0.1-0.2 0.1-0.3 0.1 0.1 0 0 0-0.2 0.1-0.1 0.1-0.4 0.2-0.6 0.3-0.4 0.3-1 0.6-1.4 1-0.4 0.4-0.8 0.8-0.9 1 0.4 0.1 1 0.3 2.1 0.4 1.3 0.1 2.8 0.2 4.4 0.2 1.6 0 3.1-0.1 4.4-0.2 1.2-0.1 2.3-0.4 2.4-0.4 0.7-0.4 1.9-1.2 2.5-1.9 0.2-0.3 0.3-0.4 0.4-0.5-0.1 0-0.2-0.1-0.4-0.1-0.4-0.1-0.9-0.1-1.5-0.2-1.2-0.1-2.7-0.2-4.3-0.2zm21.2 0c-1.5 0-3.1 0-4.3 0.1-0.6 0-1.1 0.1-1.5 0.2-0.4 0.1-0.7 0.2-0.6 0.2-0.1 0.1-0.2 0.1-0.3 0.1 0.1 0 0 0-0.2 0.1-0.1 0.1-0.4 0.2-0.6 0.3-0.4 0.3-1 0.6-1.4 1-0.4 0.4-0.8 0.8-0.9 1 0.4 0.1 1 0.3 2.1 0.4 1.3 0.1 2.8 0.2 4.4 0.2 1.6 0 3.1-0.1 4.3-0.2 1.2-0.1 2.3-0.4 2.4-0.4 0.7-0.4 1.9-1.2 2.5-1.9 0.2-0.3 0.3-0.4 0.4-0.5-0.1 0-0.2-0.1-0.4-0.1-0.4-0.1-0.9-0.1-1.5-0.2-1.2-0.1-2.7-0.2-4.3-0.2zm21.2 0c-1.5 0-3.1 0-4.3 0.1-0.6 0-1.1 0.1-1.5 0.2-0.4 0.1-0.7 0.2-0.6 0.2-0.1 0.1-0.2 0.1-0.3 0.1 0.1 0 0 0-0.2 0.1-0.1 0.1-0.4 0.2-0.6 0.3-0.4 0.3-1 0.6-1.4 1-0.4 0.4-0.8 0.8-0.9 1 0.4 0.1 1 0.3 2.1 0.4 1.3 0.1 2.8 0.2 4.4 0.2 1.6 0 3.1-0.1 4.3-0.2 1.2-0.1 2.3-0.4 2.4-0.4 0.7-0.4 1.9-1.2 2.5-1.9 0.2-0.3 0.3-0.4 0.4-0.5-0.1 0-0.2-0.1-0.4-0.1-0.4-0.1-0.9-0.1-1.5-0.2-1.2-0.1-2.8-0.2-4.3-0.2zm21.3 0c-1.5 0-3.1 0-4.3 0.1-0.6 0-1.1 0.1-1.5 0.2-0.4 0.1-0.7 0.2-0.6 0.2-0.1 0.1-0.2 0.1-0.3 0.1 0.1 0 0 0-0.2 0.1-0.1 0.1-0.3 0.2-0.6 0.3-0.4 0.3-1 0.6-1.4 1-0.4 0.4-0.8 0.8-0.9 1 0.4 0.1 1 0.3 2.1 0.4 1.3 0.1 2.8 0.2 4.4 0.2 1.6 0 3.1-0.1 4.4-0.2 1.2-0.1 2.3-0.4 2.4-0.4 0.7-0.4 1.9-1.2 2.5-1.9 0.2-0.3 0.3-0.4 0.4-0.5-0.1 0-0.2-0.1-0.4-0.1-0.4-0.1-0.9-0.1-1.5-0.2-1.2-0.1-2.7-0.2-4.3-0.2zm-73.7 3.1c0 0 0 0 0 0 0 0 0 0 0 0 0 0 0 0 0 0zm-95.8 5.2c1.6 0 3.1 0.1 4.4 0.2 0.6 0.1 1.2 0.1 1.7 0.2 0.5 0.1 0.8 0.1 1.2 0.3 0.3 0.2 0.7 0.5 0.8 0.8 0.2 0.4 0.2 0.8 0.1 1.1-0.2 0.6-0.5 1.1-1 1.6-0.9 1-2.1 1.8-3.1 2.3-0.8 0.4-1.8 0.5-3.1 0.6-1.3 0.1-2.9 0.2-4.5 0.2-1.6 0-3.2-0.1-4.6-0.2-1.4-0.1-2.4-0.2-3.2-0.6-0.1-0.1-0.2-0.1-0.3-0.2-0.3-0.3-0.5-0.8-0.5-1.2 0-0.4 0.1-0.8 0.3-1.1 0.3-0.7 0.9-1.2 1.4-1.6 0.6-0.5 1.2-0.9 1.7-1.2 0.3-0.1 0.5-0.3 0.7-0.4 0.2-0.1 0.3-0.1 0.5-0.2 0.3-0.2 0.7-0.2 1.1-0.3 0.5-0.1 1.1-0.2 1.7-0.2 1.3-0.1 2.9-0.1 4.4-0.1zm-7.2 0.7c-0.1 0-0.2 0.1-0.2 0.1l0.3-0.1c0 0-0.1 0-0.1 0zm28.5-0.7c1.6 0 3.1 0.1 4.4 0.2 0.6 0.1 1.2 0.1 1.7 0.2 0.5 0.1 0.8 0.1 1.2 0.3 0.3 0.2 0.7 0.5 0.8 0.8 0.2 0.4 0.2 0.8 0.1 1.1-0.2 0.6-0.5 1.1-1 1.6-0.9 1-2.1 1.8-3.1 2.3-0.8 0.4-1.8 0.5-3.1 0.6-1.3 0.1-2.9 0.2-4.5 0.2-1.6 0-3.2-0.1-4.6-0.2-1.4-0.1-2.4-0.2-3.2-0.6-0.1-0.1-0.2-0.1-0.3-0.2-0.3-0.3-0.5-0.8-0.5-1.2 0-0.4 0.1-0.8 0.3-1.1 0.3-0.7 0.9-1.2 1.4-1.6 0.6-0.5 1.2-0.9 1.7-1.2 0.3-0.1 0.5-0.3 0.7-0.4 0.2-0.1 0.3-0.1 0.5-0.2 0.3-0.2 0.7-0.2 1.1-0.3 0.5-0.1 1.1-0.2 1.7-0.2 1.3-0.1 2.9-0.1 4.4-0.1zm-7.2 0.7c-0.1 0-0.2 0.1-0.2 0.1l0.3-0.1c0 0-0.1 0-0.1 0zm28.5-0.7c1.6 0 3.1 0.1 4.4 0.2 0.6 0.1 1.2 0.1 1.7 0.2 0.5 0.1 0.9 0.1 1.3 0.3 0.3 0.2 0.7 0.5 0.8 0.8 0.2 0.4 0.2 0.8 0.1 1.1-0.2 0.6-0.5 1.1-1 1.6-0.9 1-2.1 1.8-3.1 2.3-0.8 0.4-1.8 0.5-3.1 0.6-1.3 0.1-2.9 0.2-4.5 0.2-1.6 0-3.2-0.1-4.6-0.2-1.4-0.1-2.4-0.2-3.2-0.6-0.1-0.1-0.2-0.1-0.3-0.2-0.3-0.3-0.5-0.8-0.5-1.2 0-0.4 0.1-0.8 0.3-1.1 0.3-0.7 0.9-1.2 1.4-1.6 0.6-0.5 1.2-0.9 1.7-1.2 0.3-0.1 0.5-0.3 0.7-0.4 0.2-0.1 0.3-0.2 0.6-0.2 0.3-0.2 0.7-0.2 1.1-0.3 0.5-0.1 1.1-0.2 1.7-0.2 1.3-0.1 2.9-0.1 4.4-0.1zm-7.2 0.7c-0.1 0-0.2 0.1-0.2 0.1l0.3-0.1c0 0 0 0-0.1 0zm28.5-0.7c1.6 0 3.1 0.1 4.4 0.2 0.6 0.1 1.2 0.1 1.7 0.2 0.5 0.1 0.8 0.1 1.2 0.3 0.3 0.2 0.7 0.5 0.8 0.8 0.2 0.4 0.2 0.8 0.1 1.1-0.2 0.6-0.5 1.1-1 1.6-0.9 1-2.1 1.8-3.1 2.3-0.8 0.4-1.8 0.5-3.1 0.6-1.3 0.1-2.9 0.2-4.5 0.2-1.6 0-3.2-0.1-4.6-0.2-1.4-0.1-2.4-0.2-3.2-0.6-0.1-0.1-0.2-0.1-0.3-0.2-0.3-0.3-0.5-0.8-0.5-1.2 0-0.4 0.1-0.8 0.3-1.1 0.3-0.7 0.9-1.2 1.4-1.6 0.6-0.5 1.2-0.9 1.7-1.2 0.3-0.1 0.5-0.3 0.7-0.4 0.2-0.1 0.3-0.1 0.5-0.2 0.3-0.2 0.7-0.2 1.1-0.3 0.5-0.1 1.1-0.2 1.7-0.2 1.3-0.1 2.9-0.1 4.4-0.1zm-7.2 0.7c-0.1 0-0.2 0.1-0.2 0.1l0.3-0.1c0 0-0.1 0-0.1 0zm28.5-0.7c1.6 0 3.1 0.1 4.4 0.2 0.6 0.1 1.2 0.1 1.7 0.2 0.5 0.1 0.8 0.1 1.2 0.3 0.3 0.2 0.7 0.5 0.8 0.8 0.2 0.4 0.2 0.8 0.1 1.1-0.2 0.6-0.5 1.1-1 1.6-0.9 1-2.1 1.8-3.1 2.3-0.8 0.4-1.8 0.5-3.1 0.6-1.3 0.1-2.9 0.2-4.5 0.2-1.6 0-3.2-0.1-4.6-0.2-1.4-0.1-2.4-0.2-3.2-0.6-0.1-0.1-0.2-0.1-0.3-0.2-0.3-0.3-0.5-0.8-0.5-1.2 0-0.4 0.1-0.8 0.3-1.1 0.3-0.7 0.9-1.2 1.4-1.6 0.6-0.5 1.2-0.9 1.7-1.2 0.3-0.1 0.5-0.3 0.7-0.4 0.2-0.1 0.3-0.1 0.5-0.2 0.3-0.2 0.7-0.2 1.1-0.3 0.5-0.1 1.1-0.2 1.7-0.2 1.3-0.1 2.9-0.1 4.4-0.1zm-7.2 0.7c-0.1 0-0.2 0.1-0.2 0.1l0.3-0.1c0 0-0.1 0-0.1 0zm28.5-0.7c1.6 0 3.1 0.1 4.4 0.2 0.6 0.1 1.2 0.1 1.7 0.2 0.5 0.1 0.8 0.1 1.2 0.3 0.3 0.2 0.7 0.5 0.8 0.8 0.2 0.4 0.2 0.8 0.1 1.1-0.2 0.6-0.5 1.1-1 1.6-0.9 1-2.1 1.8-3.1 2.3-0.8 0.4-1.8 0.5-3.1 0.6-1.3 0.1-2.9 0.2-4.5 0.2-1.6 0-3.2-0.1-4.6-0.2-1.4-0.1-2.4-0.2-3.2-0.6-0.1-0.1-0.2-0.1-0.3-0.2-0.3-0.3-0.5-0.8-0.5-1.2 0-0.4 0.1-0.8 0.3-1.1 0.3-0.7 0.9-1.2 1.4-1.6 0.6-0.5 1.2-0.9 1.7-1.2 0.3-0.1 0.5-0.3 0.7-0.4 0.2-0.1 0.3-0.1 0.5-0.2 0.3-0.2 0.7-0.2 1.1-0.3 0.5-0.1 1.1-0.2 1.7-0.2 1.3-0.1 2.9-0.1 4.4-0.1zm-7.2 0.7c-0.1 0-0.2 0.1-0.2 0.1l0.3-0.1c0 0-0.1 0-0.1 0zm28.5-0.7c1.6 0 3.1 0.1 4.4 0.2 0.6 0.1 1.2 0.1 1.7 0.2 0.5 0.1 0.8 0.1 1.2 0.3 0.3 0.2 0.7 0.5 0.8 0.8 0.2 0.4 0.2 0.8 0.1 1.1-0.2 0.6-0.5 1.1-1 1.6-0.9 1-2.1 1.8-3.1 2.3-0.8 0.4-1.8 0.5-3.1 0.6-1.3 0.1-2.9 0.2-4.5 0.2-1.6 0-3.2-0.1-4.6-0.2-1.4-0.1-2.4-0.2-3.2-0.6-0.1-0.1-0.2-0.1-0.3-0.2-0.3-0.3-0.5-0.8-0.5-1.2 0-0.4 0.1-0.8 0.3-1.1 0.3-0.7 0.9-1.2 1.4-1.6 0.6-0.5 1.2-0.9 1.7-1.2 0.3-0.1 0.5-0.3 0.7-0.4 0.2-0.1 0.3-0.1 0.5-0.2 0.3-0.2 0.7-0.2 1.1-0.3 0.5-0.1 1.1-0.2 1.7-0.2 1.3-0.1 2.9-0.1 4.4-0.1zm-7.2 0.7c-0.1 0-0.2 0.1-0.2 0.1l0.3-0.1c0 0-0.1 0-0.1 0zm28.5-0.7c1.6 0 3.1 0.1 4.4 0.2 0.6 0.1 1.2 0.1 1.7 0.2 0.5 0.1 0.8 0.1 1.2 0.3 0.3 0.2 0.7 0.5 0.8 0.8 0.2 0.4 0.1 0.8 0.1 1.1-0.2 0.6-0.5 1.1-1 1.6-0.9 1-2.1 1.8-3.1 2.3-0.8 0.4-1.8 0.5-3.1 0.6-1.3 0.1-2.9 0.2-4.5 0.2-1.6 0-3.2-0.1-4.6-0.2-1.4-0.1-2.4-0.2-3.2-0.6-0.1-0.1-0.2-0.1-0.3-0.2-0.3-0.3-0.5-0.8-0.5-1.2 0-0.4 0.1-0.8 0.3-1.1 0.3-0.7 0.9-1.2 1.4-1.6 0.6-0.5 1.2-0.9 1.7-1.2 0.3-0.1 0.5-0.3 0.7-0.4 0.2-0.1 0.3-0.1 0.5-0.2 0.3-0.2 0.7-0.2 1.1-0.3 0.5-0.1 1.1-0.2 1.7-0.2 1.3-0.1 2.9-0.1 4.4-0.1zm-7.2 0.7c-0.1 0-0.2 0.1-0.2 0.1l0.3-0.1c0 0-0.1 0-0.1 0zm-141.5 1.3c-1.5 0-3.1 0-4.3 0.1-0.6 0-1.1 0.1-1.5 0.2-0.4 0.1-0.7 0.2-0.6 0.2-0.1 0.1-0.2 0.1-0.3 0.1 0.1 0 0 0-0.2 0.1-0.1 0.1-0.3 0.2-0.6 0.3-0.4 0.3-1 0.6-1.4 1-0.4 0.4-0.8 0.8-0.9 1 0.4 0.1 1 0.3 2.1 0.4 1.3 0.1 2.8 0.2 4.4 0.2 1.6 0 3.1-0.1 4.4-0.2 1.2-0.1 2.3-0.4 2.4-0.4 0.7-0.4 1.9-1.2 2.5-1.9 0.2-0.3 0.3-0.4 0.4-0.5-0.1 0-0.2-0.1-0.4-0.1-0.4-0.1-0.9-0.1-1.5-0.2-1.2-0.1-2.7-0.2-4.3-0.2zm21.2 0c-1.5 0-3.1 0-4.3 0.1-0.6 0-1.1 0.1-1.5 0.2-0.4 0.1-0.7 0.2-0.6 0.2-0.1 0.1-0.2 0.1-0.3 0.1 0.1 0 0 0-0.2 0.1-0.1 0.1-0.4 0.2-0.6 0.3-0.4 0.3-1 0.6-1.4 1-0.4 0.4-0.8 0.8-0.9 1 0.4 0.1 1 0.3 2.1 0.4 1.3 0.1 2.8 0.2 4.4 0.2 1.6 0 3.1-0.1 4.4-0.2 1.2-0.1 2.3-0.4 2.4-0.4 0.7-0.4 1.9-1.2 2.5-1.9 0.2-0.3 0.3-0.4 0.4-0.5-0.1 0-0.2-0.1-0.4-0.1-0.4-0.1-0.9-0.1-1.6-0.2-1.2-0.1-2.7-0.2-4.3-0.2zm21.3 0c-1.5 0-3.1 0-4.3 0.1-0.6 0-1.1 0.1-1.5 0.2-0.4 0.1-0.7 0.2-0.6 0.2-0.1 0.1-0.2 0.1-0.3 0.1 0.1 0 0 0-0.2 0.1-0.1 0.1-0.4 0.2-0.6 0.3-0.4 0.3-1 0.6-1.4 1-0.4 0.4-0.8 0.8-0.9 1 0.4 0.1 1 0.3 2.1 0.4 1.3 0.1 2.8 0.2 4.4 0.2 1.6 0 3.1-0.1 4.4-0.2 1.2-0.1 2.3-0.4 2.4-0.4 0.7-0.4 1.9-1.2 2.5-1.9 0.2-0.3 0.3-0.4 0.4-0.5-0.1 0-0.2-0.1-0.4-0.1-0.4-0.1-0.9-0.1-1.5-0.2-1.2-0.1-2.7-0.2-4.3-0.2zm21.2 0c-1.5 0-3.1 0-4.3 0.1-0.6 0-1.1 0.1-1.5 0.2-0.4 0.1-0.7 0.2-0.6 0.2-0.1 0.1-0.2 0.1-0.3 0.1 0.1 0 0 0-0.2 0.1-0.1 0.1-0.3 0.2-0.6 0.3-0.4 0.3-1 0.6-1.4 1-0.4 0.4-0.8 0.8-0.9 1 0.4 0.1 1 0.3 2.1 0.4 1.3 0.1 2.8 0.2 4.4 0.2 1.6 0 3.1-0.1 4.3-0.2 1.2-0.1 2.3-0.4 2.4-0.4 0.7-0.4 1.9-1.2 2.5-1.9 0.2-0.3 0.3-0.4 0.4-0.5-0.1 0-0.2-0.1-0.4-0.1-0.4-0.1-0.9-0.1-1.5-0.2-1.2-0.1-2.7-0.2-4.3-0.2zm21.2 0c-1.5 0-3.1 0-4.3 0.1-0.6 0-1.1 0.1-1.5 0.2-0.4 0.1-0.7 0.2-0.6 0.2-0.1 0.1-0.2 0.1-0.3 0.1 0.1 0 0 0-0.2 0.1-0.1 0.1-0.4 0.2-0.6 0.3-0.4 0.3-1 0.6-1.4 1-0.4 0.4-0.8 0.8-0.9 1 0.4 0.1 1 0.3 2.1 0.4 1.3 0.1 2.8 0.2 4.4 0.2 1.6 0 3.1-0.1 4.3-0.2 1.2-0.1 2.3-0.4 2.4-0.4 0.7-0.4 1.9-1.2 2.5-1.9 0.2-0.3 0.3-0.4 0.4-0.5-0.1 0-0.2-0.1-0.4-0.1-0.4-0.1-0.9-0.1-1.5-0.2-1.2-0.1-2.8-0.2-4.3-0.2zm21.3 0c-1.5 0-3.1 0-4.3 0.1-0.6 0-1.1 0.1-1.5 0.2-0.4 0.1-0.7 0.2-0.6 0.2-0.1 0.1-0.2 0.1-0.3 0.1 0.1 0 0 0-0.2 0.1-0.1 0.1-0.4 0.2-0.6 0.3-0.4 0.3-1 0.6-1.4 1-0.4 0.4-0.8 0.8-0.9 1 0.4 0.1 1 0.3 2.1 0.4 1.3 0.1 2.8 0.2 4.4 0.2 1.6 0 3.1-0.1 4.4-0.2 1.2-0.1 2.3-0.4 2.4-0.4 0.7-0.4 1.9-1.2 2.5-1.9 0.2-0.3 0.3-0.4 0.4-0.5-0.1 0-0.2-0.1-0.4-0.1-0.4-0.1-0.9-0.1-1.5-0.2-1.2-0.1-2.7-0.2-4.3-0.2zm21.2 0c-1.5 0-3.1 0-4.3 0.1-0.6 0-1.1 0.1-1.5 0.2-0.4 0.1-0.7 0.2-0.6 0.2-0.1 0.1-0.2 0.1-0.3 0.1 0.1 0 0 0-0.2 0.1-0.1 0.1-0.4 0.2-0.6 0.3-0.4 0.3-1 0.6-1.4 1-0.4 0.4-0.8 0.8-0.9 1 0.4 0.1 1 0.3 2.1 0.4 1.3 0.1 2.8 0.2 4.4 0.2 1.6 0 3.1-0.1 4.4-0.2 1.2-0.1 2.3-0.4 2.4-0.4 0.7-0.4 1.9-1.2 2.5-1.9 0.2-0.3 0.3-0.4 0.4-0.5-0.1 0-0.2-0.1-0.4-0.1-0.4-0.1-0.9-0.1-1.5-0.2-1.2-0.1-2.7-0.2-4.3-0.2zm21.3 0c-1.5 0-3.1 0-4.3 0.1-0.6 0-1.1 0.1-1.5 0.2-0.4 0.1-0.7 0.2-0.6 0.2-0.1 0.1-0.2 0.1-0.3 0.1 0.1 0 0 0-0.2 0.1-0.1 0.1-0.4 0.2-0.6 0.3-0.4 0.3-1 0.6-1.4 1-0.4 0.4-0.8 0.8-0.9 1 0.4 0.1 1 0.3 2.1 0.4 1.3 0.1 2.8 0.2 4.4 0.2 1.6 0 3.1-0.1 4.4-0.2 1.2-0.1 2.3-0.4 2.4-0.4 0.7-0.4 1.9-1.2 2.5-1.9 0.2-0.3 0.3-0.4 0.4-0.5-0.1 0-0.2-0.1-0.4-0.1-0.4-0.1-0.9-0.1-1.5-0.2-1.2-0.1-2.7-0.2-4.3-0.2zm48.9 0.1c-0.1-0.1-1.1 1.7-2.3 4.1-7.1 14-20.5 30.6-35.1 43.5-7.9 7-11.9 9.2-20.5 11.6-18.3 5.1-49.2 8-86.5 8-23.4 0-39.1-0.8-56.4-2.8-22.4-2.6-39.8-7.5-42.1-11.8-0.4-0.7-0.7-1.1-0.7-0.8 0 1.2 1.3 4.6 2.3 5.7 5.2 6.3 32.2 10.9 74.7 12.5 10.2 0.4 48.5 0.2 58.1-0.4 34.4-1.9 56.1-5.4 63.1-10.3 7.3-5.1 20.8-18 27.5-26.3 5.2-6.6 10.1-14 13.1-20.2 2.4-4.9 4.9-11.4 4.9-12.8 0 0 0 0 0 0zm-188.4 8.1c1.6 0 3.1 0.1 4.4 0.2 0.6 0.1 1.2 0.1 1.7 0.2 0.5 0.1 0.8 0.1 1.2 0.3 0.3 0.2 0.7 0.5 0.8 0.9 0.2 0.4 0.2 0.8 0.1 1.1-0.2 0.6-0.5 1.1-1 1.6-0.9 1-2.1 1.8-3.1 2.3-0.8 0.4-1.8 0.5-3.1 0.6-1.3 0.1-2.9 0.2-4.5 0.2-1.6 0-3.2 0-4.6-0.2-1.4-0.1-2.4-0.2-3.2-0.6-0.1-0.1-0.2-0.1-0.3-0.2-0.3-0.3-0.5-0.8-0.5-1.2 0-0.4 0.1-0.8 0.3-1.2 0.3-0.7 0.9-1.2 1.4-1.6 0.6-0.5 1.2-0.9 1.7-1.2 0.3-0.1 0.5-0.3 0.7-0.4 0.2-0.1 0.3-0.1 0.5-0.2 0.3-0.2 0.7-0.2 1.1-0.3 0.5-0.1 1.1-0.2 1.7-0.2 1.3-0.1 2.9-0.1 4.4-0.1zm-7.2 0.7c-0.1 0-0.2 0.1-0.2 0.1l0.3-0.1c0 0-0.1 0-0.1 0zm28.5-0.7h0c1.6 0 3.1 0.1 4.4 0.2 0.6 0.1 1.2 0.1 1.7 0.2 0.5 0.1 0.8 0.1 1.2 0.3 0.3 0.2 0.7 0.5 0.8 0.9 0.2 0.4 0.2 0.8 0.1 1.1-0.2 0.6-0.5 1.1-1 1.6-0.9 1-2.1 1.8-3.1 2.3-0.8 0.4-1.8 0.5-3.1 0.6-1.3 0.1-2.9 0.2-4.5 0.2-1.6 0-3.2 0-4.6-0.2-1.4-0.1-2.4-0.2-3.2-0.6-0.1-0.1-0.2-0.1-0.3-0.2-0.3-0.3-0.5-0.8-0.5-1.2 0-0.4 0.1-0.8 0.3-1.2 0.3-0.7 0.9-1.2 1.4-1.6 0.6-0.5 1.2-0.9 1.7-1.2 0.3-0.1 0.5-0.3 0.7-0.4 0.2-0.1 0.3-0.1 0.5-0.2 0.3-0.2 0.7-0.2 1.1-0.3 0.5-0.1 1.1-0.2 1.7-0.2 1.3-0.1 2.9-0.1 4.4-0.1zm-7.2 0.7c-0.1 0-0.2 0.1-0.2 0.1l0.3-0.1c0 0-0.1 0-0.1 0zm28.5-0.7h0c1.6 0 3.1 0.1 4.4 0.2 0.6 0.1 1.2 0.1 1.7 0.2 0.5 0.1 0.9 0.1 1.3 0.3 0.3 0.2 0.7 0.5 0.8 0.9 0.2 0.4 0.2 0.8 0.1 1.1-0.2 0.6-0.5 1.1-1 1.6-0.9 1-2.1 1.8-3.1 2.3-0.8 0.4-1.8 0.5-3.1 0.6-1.3 0.1-2.9 0.2-4.5 0.2-1.6 0-3.2 0-4.6-0.2-1.4-0.1-2.4-0.2-3.2-0.6-0.1-0.1-0.2-0.1-0.3-0.2-0.3-0.3-0.5-0.8-0.5-1.2 0-0.4 0.1-0.8 0.3-1.2 0.3-0.7 0.9-1.2 1.4-1.6 0.6-0.5 1.2-0.9 1.7-1.2 0.3-0.1 0.5-0.3 0.7-0.4 0.2-0.1 0.3-0.2 0.5-0.2 0.3-0.2 0.7-0.2 1.1-0.3 0.5-0.1 1.1-0.2 1.7-0.2 1.3-0.1 2.9-0.1 4.4-0.1zm-7.2 0.7c-0.1 0-0.2 0.1-0.2 0.1l0.3-0.1c0 0 0 0-0.1 0zm28.5-0.7c1.6 0 3.1 0.1 4.4 0.2 0.6 0.1 1.2 0.1 1.7 0.2 0.5 0.1 0.8 0.1 1.2 0.3 0.3 0.2 0.7 0.5 0.8 0.9 0.2 0.4 0.2 0.8 0.1 1.1-0.2 0.6-0.5 1.1-1 1.6-0.9 1-2.1 1.8-3.1 2.3-0.8 0.4-1.8 0.5-3.1 0.6-1.3 0.1-2.9 0.2-4.5 0.2-1.6 0-3.2 0-4.6-0.2-1.4-0.1-2.4-0.2-3.2-0.6-0.1-0.1-0.2-0.1-0.3-0.2-0.3-0.3-0.5-0.8-0.5-1.2 0-0.4 0.1-0.8 0.3-1.2 0.3-0.7 0.9-1.2 1.4-1.6 0.6-0.5 1.2-0.9 1.7-1.2 0.3-0.1 0.5-0.3 0.7-0.4 0.2-0.1 0.3-0.1 0.5-0.2 0.3-0.2 0.7-0.2 1.1-0.3 0.5-0.1 1.1-0.2 1.7-0.2 1.3-0.1 2.9-0.1 4.4-0.1zm-7.2 0.7c-0.1 0-0.2 0.1-0.2 0.1l0.3-0.1c0 0-0.1 0-0.1 0zm28.5-0.7c1.6 0 3.1 0.1 4.4 0.2 0.6 0.1 1.2 0.1 1.7 0.2 0.5 0.1 0.8 0.1 1.2 0.3 0.3 0.2 0.7 0.5 0.8 0.9 0.2 0.4 0.2 0.8 0.1 1.1-0.2 0.6-0.5 1.1-1 1.6-0.9 1-2.1 1.8-3.1 2.3-0.8 0.4-1.8 0.5-3.1 0.6-1.3 0.1-2.9 0.2-4.5 0.2-1.6 0-3.2 0-4.6-0.2-1.4-0.1-2.4-0.2-3.2-0.6-0.1-0.1-0.2-0.1-0.3-0.2-0.3-0.3-0.5-0.8-0.5-1.2 0-0.4 0.1-0.8 0.3-1.2 0.3-0.7 0.9-1.2 1.4-1.6 0.6-0.5 1.2-0.9 1.7-1.2 0.3-0.1 0.5-0.3 0.7-0.4 0.2-0.1 0.3-0.1 0.5-0.2 0.3-0.2 0.7-0.2 1.1-0.3 0.5-0.1 1.1-0.2 1.7-0.2 1.3-0.1 2.9-0.1 4.4-0.1zm-7.2 0.7c-0.1 0-0.1 0.1-0.2 0.1l0.3-0.1c0 0-0.1 0-0.1 0zm28.5-0.7c1.6 0 3.1 0.1 4.4 0.2 0.6 0.1 1.2 0.1 1.7 0.2 0.5 0.1 0.9 0.1 1.3 0.3 0.3 0.2 0.7 0.5 0.8 0.9 0.2 0.4 0.2 0.8 0.1 1.1-0.2 0.6-0.5 1.1-1 1.6-0.9 1-2.1 1.8-3.1 2.3-0.8 0.4-1.8 0.5-3.1 0.6-1.3 0.1-2.9 0.2-4.5 0.2-1.6 0-3.2 0-4.6-0.2-1.4-0.1-2.4-0.2-3.2-0.6-0.1-0.1-0.2-0.1-0.3-0.2-0.3-0.3-0.5-0.8-0.5-1.2 0-0.4 0.1-0.8 0.3-1.2 0.3-0.7 0.9-1.2 1.4-1.6 0.6-0.5 1.2-0.9 1.7-1.2 0.3-0.1 0.5-0.3 0.7-0.4 0.2-0.1 0.3-0.1 0.5-0.2 0.3-0.2 0.7-0.2 1.1-0.3 0.5-0.1 1.1-0.2 1.7-0.2 1.3-0.1 2.9-0.1 4.4-0.1zm-7.2 0.7c-0.1 0-0.2 0.1-0.2 0.1l0.3-0.1c0 0-0.1 0-0.1 0zm28.5-0.7c1.6 0 3.1 0.1 4.4 0.2 0.6 0.1 1.2 0.1 1.7 0.2 0.5 0.1 0.8 0.1 1.2 0.3 0.3 0.2 0.7 0.5 0.8 0.9 0.2 0.4 0.2 0.8 0.1 1.1-0.2 0.6-0.5 1.1-1 1.6-0.9 1-2.1 1.8-3.1 2.3-0.8 0.4-1.8 0.5-3.1 0.6-1.3 0.1-2.9 0.2-4.5 0.2-1.6 0-3.2 0-4.6-0.2-1.4-0.1-2.4-0.2-3.2-0.6-0.1-0.1-0.2-0.1-0.3-0.2-0.3-0.3-0.5-0.8-0.5-1.2 0-0.4 0.1-0.8 0.3-1.2 0.3-0.7 0.9-1.2 1.4-1.6 0.6-0.5 1.2-0.9 1.7-1.2 0.3-0.1 0.5-0.3 0.7-0.4 0.2-0.1 0.3-0.1 0.5-0.2 0.3-0.2 0.7-0.2 1.1-0.3 0.5-0.1 1.1-0.2 1.7-0.2 1.3-0.1 2.9-0.1 4.4-0.1zm-7.2 0.7c-0.1 0-0.2 0.1-0.2 0.1l0.3-0.1c0 0-0.1 0-0.1 0zm28.5-0.7c1.6 0 3.1 0.1 4.4 0.2 0.6 0.1 1.2 0.1 1.7 0.2 0.5 0.1 0.8 0.1 1.2 0.3 0.3 0.2 0.7 0.5 0.8 0.9 0.2 0.4 0.2 0.8 0.1 1.1-0.2 0.6-0.5 1.1-1 1.6-0.9 1-2.1 1.8-3.1 2.3-0.8 0.4-1.8 0.5-3.1 0.6-1.3 0.1-2.9 0.2-4.5 0.2-1.6 0-3.2 0-4.6-0.2-1.4-0.1-2.4-0.2-3.2-0.6-0.1-0.1-0.2-0.1-0.3-0.2-0.3-0.3-0.5-0.8-0.5-1.2 0-0.4 0.1-0.8 0.3-1.2 0.3-0.7 0.9-1.2 1.4-1.6 0.6-0.5 1.2-0.9 1.7-1.2 0.3-0.1 0.5-0.3 0.7-0.4 0.2-0.1 0.3-0.1 0.5-0.2 0.3-0.2 0.7-0.2 1.1-0.3 0.5-0.1 1.1-0.2 1.7-0.2 1.3-0.1 2.9-0.1 4.4-0.1zm-7.2 0.7c-0.1 0-0.2 0.1-0.2 0.1l0.3-0.1c0 0-0.1 0-0.1 0zm-141.5 1.3c-1.5 0-3.1 0-4.3 0.1-0.6 0-1.1 0.1-1.5 0.2-0.4 0.1-0.7 0.2-0.6 0.2-0.1 0.1-0.2 0.1-0.3 0.1 0.1 0 0 0-0.2 0.1-0.1 0.1-0.3 0.2-0.6 0.3-0.4 0.3-1 0.6-1.4 1-0.4 0.4-0.8 0.8-0.9 1 0.4 0.1 1 0.3 2.1 0.4 1.3 0.1 2.8 0.2 4.4 0.2 1.6 0 3.1-0.1 4.4-0.2 1.2-0.1 2.3-0.4 2.4-0.4 0.7-0.4 1.9-1.2 2.5-1.9 0.2-0.3 0.3-0.4 0.4-0.5-0.1 0-0.2-0.1-0.4-0.1-0.4-0.1-0.9-0.1-1.5-0.2-1.2-0.1-2.7-0.2-4.3-0.2zm21.2 0c-1.5 0-3.1 0-4.3 0.1-0.6 0-1.1 0.1-1.5 0.2-0.4 0.1-0.7 0.2-0.6 0.2-0.1 0.1-0.2 0.1-0.3 0.1 0.1 0 0 0-0.2 0.1-0.1 0.1-0.4 0.2-0.6 0.3-0.4 0.3-1 0.6-1.4 1-0.4 0.4-0.8 0.8-0.9 1 0.4 0.1 1 0.3 2.1 0.4 1.3 0.1 2.8 0.2 4.4 0.2 1.6 0 3.1-0.1 4.4-0.2 1.2-0.1 2.3-0.4 2.4-0.4 0.7-0.4 1.9-1.2 2.5-1.9 0.2-0.2 0.3-0.4 0.4-0.5-0.1 0-0.2-0.1-0.4-0.1-0.4-0.1-0.9-0.1-1.5-0.2-1.2-0.1-2.7-0.2-4.3-0.2zm21.3 0c-1.5 0-3.1 0-4.3 0.1-0.6 0-1.1 0.1-1.5 0.2-0.4 0.1-0.7 0.2-0.6 0.2-0.1 0.1-0.2 0.1-0.3 0.1 0.1 0 0 0-0.2 0.1-0.1 0.1-0.4 0.2-0.6 0.3-0.4 0.3-1 0.6-1.4 1-0.4 0.4-0.8 0.8-0.9 1 0.4 0.1 1 0.3 2.1 0.4 1.3 0.1 2.8 0.2 4.4 0.2 1.6 0 3.1-0.1 4.4-0.2 1.2-0.1 2.3-0.4 2.4-0.4 0.7-0.4 1.9-1.2 2.5-1.9 0.2-0.3 0.3-0.4 0.4-0.5-0.1 0-0.2-0.1-0.4-0.1-0.4-0.1-0.9-0.1-1.5-0.2-1.2-0.1-2.7-0.2-4.3-0.2zm21.2 0c-1.5 0-3.1 0-4.3 0.1-0.6 0-1.1 0.1-1.5 0.2-0.4 0.1-0.7 0.2-0.6 0.2-0.1 0.1-0.2 0.1-0.3 0.1 0.1 0 0 0-0.2 0.1-0.1 0.1-0.3 0.2-0.6 0.3-0.4 0.3-1 0.6-1.4 1-0.4 0.4-0.8 0.8-0.9 1 0.4 0.1 1 0.3 2.1 0.4 1.3 0.1 2.8 0.2 4.4 0.2 1.6 0 3.1-0.1 4.4-0.2 1.2-0.1 2.3-0.4 2.4-0.4 0.7-0.4 1.9-1.2 2.5-1.9 0.2-0.3 0.3-0.4 0.4-0.5-0.1 0-0.2-0.1-0.4-0.1-0.4-0.1-0.9-0.1-1.5-0.2-1.2-0.1-2.7-0.2-4.3-0.2zm21.3 0c-1.5 0-3.1 0-4.3 0.1-0.6 0-1.1 0.1-1.5 0.2-0.4 0.1-0.7 0.2-0.6 0.2-0.1 0.1-0.2 0.1-0.3 0.1 0.1 0 0 0-0.2 0.1-0.1 0.1-0.4 0.2-0.6 0.3-0.4 0.3-1 0.6-1.4 1-0.4 0.4-0.8 0.8-0.9 1 0.4 0.1 1 0.3 2.1 0.4 1.3 0.1 2.8 0.2 4.4 0.2 1.6 0 3.1-0.1 4.4-0.2 1.2-0.1 2.3-0.4 2.4-0.4 0.7-0.4 1.9-1.2 2.5-1.9 0.2-0.3 0.3-0.4 0.4-0.5-0.1 0-0.2-0.1-0.4-0.1-0.4-0.1-0.9-0.1-1.5-0.2-1.2-0.1-2.7-0.2-4.3-0.2zm21.3 0c-1.5 0-3.1 0-4.3 0.1-0.6 0-1.1 0.1-1.5 0.2-0.4 0.1-0.7 0.2-0.6 0.2-0.1 0.1-0.2 0.1-0.3 0.1 0.1 0 0 0-0.2 0.1-0.1 0.1-0.4 0.2-0.6 0.3-0.4 0.3-1 0.6-1.4 1-0.4 0.4-0.8 0.8-0.9 1 0.4 0.1 1 0.3 2.1 0.4 1.3 0.1 2.8 0.2 4.4 0.2 1.6 0 3.1-0.1 4.4-0.2 1.2-0.1 2.3-0.4 2.4-0.4 0.7-0.4 1.9-1.2 2.5-1.9 0.2-0.3 0.3-0.4 0.4-0.5-0.1 0-0.2-0.1-0.4-0.1-0.4-0.1-0.9-0.1-1.5-0.2-1.2-0.1-2.7-0.2-4.3-0.2zm21.2 0c-1.5 0-3.1 0-4.3 0.1-0.6 0-1.1 0.1-1.5 0.2-0.4 0.1-0.7 0.2-0.6 0.2-0.1 0.1-0.2 0.1-0.3 0.1 0.1 0 0 0-0.2 0.1-0.1 0.1-0.3 0.2-0.6 0.3-0.4 0.3-1 0.6-1.4 1-0.4 0.4-0.8 0.8-0.9 1 0.4 0.1 1 0.3 2.1 0.4 1.3 0.1 2.8 0.2 4.4 0.2 1.6 0 3.1-0.1 4.3-0.2 1.2-0.1 2.3-0.4 2.4-0.4 0.7-0.4 1.9-1.2 2.5-1.9 0.2-0.3 0.3-0.4 0.4-0.5-0.1 0-0.2-0.1-0.4-0.1-0.4-0.1-0.9-0.1-1.5-0.2-1.2-0.1-2.7-0.2-4.3-0.2zm21.2 0c-1.5 0-3.1 0-4.3 0.1-0.6 0-1.1 0.1-1.5 0.2-0.4 0.1-0.7 0.2-0.6 0.2-0.1 0.1-0.2 0.1-0.3 0.1 0.1 0 0 0-0.2 0.1-0.1 0.1-0.4 0.2-0.6 0.3-0.4 0.3-1 0.6-1.4 1-0.4 0.4-0.8 0.8-0.9 1 0.4 0.1 1 0.3 2.1 0.4 1.3 0.1 2.8 0.2 4.4 0.2 1.6 0 3.1-0.1 4.4-0.2 1.2-0.1 2.3-0.4 2.4-0.4 0.7-0.4 1.9-1.2 2.5-1.9 0.2-0.3 0.3-0.4 0.4-0.5-0.1 0-0.2-0.1-0.4-0.1-0.4-0.1-0.9-0.1-1.5-0.2-1.2-0.1-2.8-0.2-4.3-0.2zm-52.4 3.1c0 0 0 0 0 0 0 0 0 0 0 0 0 0 0 0 0 0zm0 0c0 0 0 0 0 0l0 0zm-89.8 5.1c1.6 0 3.1 0.1 4.4 0.2 0.6 0.1 1.2 0.1 1.7 0.2 0.5 0.1 0.8 0.2 1.2 0.4 0.3 0.2 0.7 0.5 0.8 0.8 0.2 0.4 0.2 0.8 0.1 1.1-0.2 0.6-0.5 1.1-1 1.6-0.9 1-2.1 1.8-3.1 2.3-0.8 0.4-1.8 0.5-3.1 0.6-1.3 0.1-2.9 0.2-4.5 0.2-1.6 0-3.2-0.1-4.6-0.2-1.4-0.1-2.4-0.2-3.2-0.6-0.1-0.1-0.2-0.1-0.3-0.2-0.3-0.3-0.5-0.8-0.5-1.2 0-0.4 0.1-0.8 0.3-1.1 0.3-0.7 0.9-1.2 1.4-1.6 0.6-0.5 1.2-0.8 1.7-1.1 0.3-0.1 0.5-0.3 0.7-0.4 0.1 0 0.2-0.1 0.3-0.1 0.4-0.3 0.8-0.3 1.3-0.4 0.5-0.1 1.1-0.2 1.7-0.2 1.3-0.1 2.9-0.2 4.4-0.1zm100.8 0c1.6 0 3.1 0.1 4.4 0.2 0.6 0.1 1.2 0.1 1.7 0.2 0.5 0.1 0.8 0.2 1.2 0.4 0.3 0.2 0.7 0.5 0.8 0.8 0.2 0.4 0.2 0.8 0.1 1.1-0.2 0.6-0.5 1.1-1 1.6-0.9 1-2.1 1.8-3.1 2.3-0.8 0.4-1.8 0.5-3.1 0.6-1.3 0.1-2.9 0.2-4.5 0.2-1.6 0-3.2-0.1-4.6-0.2-1.4-0.1-2.4-0.2-3.2-0.6-0.1-0.1-0.2-0.1-0.3-0.2-0.3-0.3-0.5-0.8-0.5-1.2 0-0.4 0.1-0.8 0.3-1.1 0.3-0.7 0.9-1.2 1.4-1.6 0.6-0.5 1.2-0.8 1.7-1.1 0.3-0.1 0.5-0.3 0.7-0.4 0.1 0 0.2-0.1 0.3-0.1 0.4-0.3 0.8-0.3 1.3-0.4 0.5-0.1 1.1-0.2 1.7-0.2 1.3-0.1 2.9-0.2 4.4-0.1zm-77.2 0c0 0 0 0 0 0 1.4 0 2.7 0.1 3.9 0.2 2.4-0.2 5.7-0.2 8.3 0 0 0-0.1 0-0.1 0l0.2 0c0 0 0 0 0 0 1.7-0.1 3.7-0.1 5.7-0.1h0.1c2.2-0.1 4.6 0 6.6 0.1 2.4-0.2 5.8-0.2 8.3 0 2.4-0.2 5.8-0.2 8.3 0 2.4-0.2 5.8-0.2 8.3 0 0 0-0.1 0-0.1 0l0.2 0c0 0 0 0 0 0 1.9-0.2 4.4-0.2 6.7-0.1 1.1 0 2.2 0.1 3.1 0.2 0.9 0.1 1.5 0.2 2.1 0.5 0.3 0.2 0.7 0.5 0.8 0.8 0.2 0.4 0.2 0.8 0.1 1.1-0.2 0.6-0.5 1.1-1 1.6-0.9 1-2.1 1.8-3.1 2.3-0.6 0.3-1.2 0.4-2.1 0.5-0.9 0.1-1.9 0.2-3 0.2-2.2 0.1-4.7 0.1-6.7-0.1-2.5 0.2-5.8 0.2-8.3 0-2.5 0.2-5.8 0.2-8.3 0-2.6 0.2-5.9 0.2-8.5 0-1.8 0.1-4 0.2-6.1 0.1-2 0.1-4.2 0-6.1-0.1-2.6 0.2-5.9 0.2-8.5 0-2 0.1-4.4 0.2-6.6 0.1-1.1 0-2.1-0.1-3-0.2-0.9-0.1-1.5-0.2-2.1-0.5-0.1-0.1-0.2-0.1-0.3-0.2-0.3-0.3-0.5-0.8-0.5-1.2 0-0.4 0.1-0.8 0.3-1.2 0.3-0.7 0.9-1.2 1.4-1.6 0.6-0.5 1.2-0.9 1.7-1.2 0.3-0.1 0.5-0.3 0.7-0.4 0.2-0.1 0.3-0.1 0.5-0.2 0.3-0.2 0.7-0.2 1.1-0.3 0.5-0.1 1.1-0.2 1.7-0.2 1.3-0.1 2.9-0.1 4.4-0.1zm-7.2 0.7c-0.1 0-0.2 0.1-0.2 0.1l0.3-0.1c0 0-0.1 0-0.1 0zm-16.4 1.3c-1.5 0-3.1 0-4.3 0.1-0.6 0-1.1 0.1-1.5 0.2-0.4 0.1-0.7 0.2-0.6 0.2-0.1 0.1-0.2 0.1-0.3 0.1 0.1 0 0 0-0.2 0.1-0.1 0.1-0.3 0.2-0.6 0.3-0.4 0.3-1 0.6-1.4 1-0.4 0.4-0.8 0.8-0.9 1 0.4 0.1 1 0.3 2.1 0.4 1.3 0.1 2.8 0.2 4.4 0.2 1.6 0 3.1-0.1 4.3-0.2 1.2-0.1 2.3-0.4 2.4-0.4 0.7-0.4 1.9-1.2 2.5-1.9 0.2-0.3 0.3-0.4 0.4-0.5-0.1 0-0.2-0.1-0.4-0.1-0.4-0.1-0.9-0.1-1.5-0.2-1.2-0.1-2.7-0.2-4.3-0.2zm100.8 0c-1.5 0-3.1 0-4.3 0.1-0.6 0-1.1 0.1-1.5 0.2-0.4 0.1-0.7 0.2-0.6 0.2-0.1 0.1-0.2 0.1-0.3 0.1 0.1 0 0 0-0.2 0.1-0.1 0.1-0.3 0.2-0.6 0.3-0.4 0.3-1 0.6-1.4 1-0.4 0.4-0.8 0.8-0.9 1 0.4 0.1 1 0.3 2.1 0.4 1.3 0.1 2.8 0.2 4.4 0.2 1.6 0 3.1-0.1 4.4-0.2 1.2-0.1 2.3-0.4 2.4-0.4 0.7-0.4 1.9-1.2 2.5-1.9 0.2-0.3 0.3-0.4 0.4-0.5-0.1 0-0.2-0.1-0.4-0.1-0.4-0.1-0.9-0.1-1.5-0.2-1.2-0.1-2.7-0.2-4.3-0.2zm-77.2 0c-1.5 0-3.1 0-4.3 0.1-0.6 0-1.1 0.1-1.5 0.2-0.4 0.1-0.7 0.2-0.6 0.2-0.1 0.1-0.2 0.1-0.3 0.1 0.1 0 0 0-0.2 0.1-0.1 0.1-0.3 0.2-0.6 0.3-0.4 0.3-1 0.6-1.4 1-0.5 0.4-0.8 0.8-0.9 1 0 0 0 0 0 0 0.3 0.1 0.6 0.2 1.1 0.2 0.8 0.1 1.8 0.2 2.8 0.2 2.1 0.1 4.6 0 6.5-0.1 0.1 0 0.1 0 0.2 0 2.4 0.2 5.7 0.2 8.2 0 0.1 0 0.1 0 0.2 0 1.7 0.1 4 0.2 6 0.1 0 0 0 0 0.1 0 2 0.1 4.3 0 6.1-0.1 0.1 0 0.1 0 0.2 0 2.4 0.2 5.7 0.2 8.2 0 0.1 0 0.1 0 0.2 0 2.4 0.2 5.7 0.2 8.2 0 0.1 0 0.1 0 0.2 0 2.4 0.2 5.7 0.2 8.2 0 0.1 0 0.1 0 0.2 0 1.9 0.2 4.4 0.2 6.6 0.1 1.1 0 2.1-0.1 2.9-0.2 0.8-0.1 1.4-0.3 1.5-0.3 0.7-0.4 1.9-1.2 2.5-1.9 0.2-0.2 0.3-0.4 0.4-0.5-0.2 0-0.5-0.1-1.1-0.2-0.8-0.1-1.8-0.2-2.9-0.2-2.2-0.1-4.8-0.1-6.6 0.1-0.1 0-0.1 0-0.2 0-2.5-0.2-5.9-0.2-8.2 0-0.1 0-0.1 0-0.2 0-2.5-0.2-5.9-0.2-8.1 0-0.1 0-0.1 0-0.2 0-2.5-0.2-5.9-0.2-8.2 0-0.1 0-0.1 0-0.2 0-1.9-0.1-4.4-0.2-6.4-0.1 0 0 0 0-0.1 0-2 0-4.1 0-5.6 0.1-0.1 0-0.1 0-0.2 0-2.5-0.2-5.9-0.2-8.1 0-0.1 0-0.1 0-0.2 0-1.1-0.1-2.4-0.1-3.7-0.2zm20.8 7.4c5.7 0 11.3 0.3 16 0.8 2.3 0.3 4.4 0.6 6.1 0.9 1.7 0.4 3 0.8 4 1.4 1.8 1.1 2.4 3.2 2.2 5.1-0.3 2-1.2 4-2.5 6-2.6 4.1-6.6 8.1-9.8 10.3-2 1.4-5.6 2.1-10.3 2.6-4.7 0.6-10.4 0.8-16.2 0.9-5.8 0-11.6-0.2-16.4-0.8-4.9-0.5-8.7-1.3-10.9-2.7-0.1-0.1-0.2-0.2-0.3-0.3-1.6-2.2-1.6-4.7-0.8-7.1 0.8-2.4 2.4-4.6 4.2-6.6 1.8-2 3.8-3.8 5.5-5.1 0.9-0.7 1.7-1.2 2.3-1.6 0.6-0.4 1-0.6 1.5-0.8 0.9-0.7 2.1-1.1 3.7-1.5 1.7-0.4 3.7-0.7 6-1 4.6-0.5 10.2-0.7 15.9-0.7zm-25.6 3.1c-0.1 0.1-0.2 0.1-0.2 0.2l0.4-0.2c-0.1 0-0.1 0-0.2 0.1zm25.5-0.7c-5.6 0-11.2 0.2-15.6 0.6-2.2 0.2-4.2 0.5-5.7 0.9-1.5 0.4-2.6 0.9-2.9 1.2-0.1 0.1-0.3 0.2-0.4 0.2 0 0-0.5 0.2-1.1 0.6-0.6 0.4-1.3 0.9-2.1 1.5-1.6 1.3-3.5 3-5.2 4.8-1.7 1.9-3.1 3.9-3.7 5.8-0.6 1.8-0.5 3.3 0.4 4.7 1.5 0.9 5.1 1.7 9.7 2.2 4.7 0.5 10.5 0.8 16.2 0.8 5.7 0 11.3-0.3 15.9-0.8 4.6-0.5 8.2-1.5 9.2-2.2 2.9-2 6.8-5.9 9.2-9.7 1.2-1.9 2-3.7 2.2-5.1 0.2-1.4-0.1-2.2-1.1-2.8-0.4-0.3-1.6-0.7-3.2-1.1-1.6-0.3-3.6-0.6-5.8-0.9-4.5-0.5-10.1-0.8-15.7-0.8z" style="fill:#71a7cf;paint-order:normal;stroke-linejoin:round;stroke-width:0.3;vector-effect:none"/>
</svg>
