<?xml version="1.0" encoding="UTF-8"?>
<svg version="1.1" width="256" height="254" width="256" height="254" viewBox="0 0 256 253.96" xmlns="http://www.w3.org/2000/svg" xmlns:cc="http://creativecommons.org/ns#" xmlns:dc="http://purl.org/dc/elements/1.1/" xmlns:rdf="http://www.w3.org/1999/02/22-rdf-syntax-ns#">
<metadata>
<rdf:RDF>
<cc:Work rdf:about="">
<dc:format>image/svg+xml</dc:format>
<dc:type rdf:resource="http://purl.org/dc/dcmitype/StillImage"/>
</cc:Work>
</rdf:RDF>
</metadata>
<path d="m145.62 0.0052134c-34.077 0.14854-66.019 3.4523-80.459 9.0379-6.116 2.3658-8.7925 4.4734-11.955 9.4169-6.4303 10.052-9.6944 31.612-8.2836 54.697 1.7613 28.818 8.5912 53.609 17.123 62.153 1.7856 1.7882 5.9562 3.879 10.171 5.0974 12.007 3.4709 32.54 5.7272 57.822 6.3546 43.391 1.0769 89.514-3.1887 102.13-9.4444 2.7409-1.3596 3.9067-2.3195 5.5984-4.6142 6.5968-8.9486 11.615-29.108 13.41-53.871 0.4631-6.3856 0.45679-22.072-0.0113-28.212-1.4312-18.814-5.6633-32.271-11.868-37.733-5.6048-4.9335-22.342-8.8414-47.322-11.047-14.928-1.3183-30.859-1.902-46.348-1.8347zm2.2884 7.8023c22.437 0.068409 72.159 1.3453 79.803 11.281 19.19 13.878 13.07 97.932-3.2529 109.74-16.323 11.804-135.42 14.059-151.74 0-16.323-14.059-24.609-95.075-3.251-109.74 13.364-9.7828 38.209-9.8757 55.545-10.766 8.3711-0.39821 16.738-0.576 12.124-0.4557-1.1535 0.030236 3.2934-0.081638 10.772-0.058961zm90.123 2.1332c-0.12737 0.051402 0.54849 0.28271 1.1413 0.72091 7.015 5.1838 11.065 15.748 13.363 34.867 0.8321 6.9205 0.8296 30.825-4e-3 38.978-1.1183 10.938-2.4622 19.192-4.4649 27.426-2.9196 12.004-7.5778 21.777-11.839 24.837-0.78781 0.56579-1.9349 1.086-1.9349 1.157 8e-3 0.25247 1.4902-0.32618 2.8758-1.1216 2.2255-1.2776 4.2652-2.84 6.0914-5.6867 5.8526-9.1238 10.22-26.923 12.175-49.621 0.75541-8.7652 0.75099-25.688-8e-3 -33.309-1.4602-14.659-4.2261-25.05-8.3111-31.235-1.8509-2.8021-3.9136-4.335-6.4822-5.8753-1.3425-0.805-2.3905-1.2226-2.6027-1.1373zm-91.345 0.96249c-56.318 0.0189-74.126 3.9842-81.25 18.097-2.0381 4.0376-4.0597 11.299-5.0129 18.003-0.82927 5.8327-0.82749 26.07 2e-3 34.894 1.675 17.82 8.1395 39.003 13.397 43.899 4.8383 4.5055 13.661 6.4383 42.412 9.2893 4.7369 0.46968 38.54 0.33675 53.928-0.21203 27.802-0.99145 47.465-4.3912 53.174-9.195 4.9157-4.1364 9.5915-18.523 12.269-37.754 1.1031-7.9254 1.1252-36.047 0.034-42.508-3.3717-19.951-8.2809-26.442-22.57-29.836-14.385-3.4164-32.427-4.6877-66.382-4.6771zm-49.183 136.15c-20.778 1.8827-37.085 5.2449-42.893 10.287-8.9048 2.5653-69.224 48.804-51.304 78.445 26.473 18.316 172.36 17.337 196.14 0 23.786-17.337 63.477-63.699 43.245-78.445-6.1328-4.4699-23.971-7.844-46.417-9.8864zm-32.195 13.515c1.572 8e-3 3.1412 0.0745 4.4335 0.18481 0.64619 0.0552 1.2214 0.11793 1.707 0.20032 0.48556 0.0824 0.84949 0.1542 1.2473 0.35754 0.33978 0.17386 0.66784 0.46485 0.83089 0.84465 0.16328 0.37981 0.14627 0.78301 0.0669 1.1079-0.15874 0.64982-0.52399 1.1271-0.9566 1.6029-0.86513 0.95169-2.0555 1.8144-3.0663 2.3316-0.80024 0.40947-1.767 0.49482-3.0958 0.61482-1.3288 0.12018-2.9188 0.1833-4.5219 0.1867-1.6031 3e-3 -3.2107-0.0525-4.5651-0.17083-1.3543-0.1183-2.3794-0.22791-3.192-0.62268-0.11981-0.0597-0.22602-0.14324-0.31257-0.24567-0.29632-0.34393-0.47966-0.80118-0.49107-1.2336-0.01134-0.43237 0.12586-0.81399 0.29896-1.1432 0.34583-0.65847 0.87519-1.1659 1.4398-1.6245 0.56474-0.4586 1.166-0.84616 1.6913-1.1432 0.26268-0.14853 0.50842-0.27364 0.72091-0.37115 0.10167-0.0469 0.20561-0.0684 0.29669-0.10431 0.4196-0.2555 0.81154-0.32542 1.3063-0.41647 0.49474-0.0911 1.0732-0.16101 1.7227-0.21392 1.2989-0.1062 2.8674-0.15043 4.4394-0.14135zm21.248 0c1.572 8e-3 3.149 0.0745 4.4413 0.18481 0.64618 0.0552 1.2214 0.11793 1.707 0.20032 0.48563 0.0824 0.84952 0.1542 1.2474 0.35754 0.33978 0.17386 0.65998 0.46485 0.82307 0.84465 0.16252 0.37981 0.15383 0.78301 0.07446 1.1079-0.15874 0.64982-0.53189 1.1271-0.9645 1.6029-0.86517 0.95169-2.0555 1.8144-3.0663 2.3316-0.80028 0.40947-1.7591 0.49482-3.0879 0.61482-1.3288 0.12018-2.9266 0.1833-4.5297 0.1867-1.6031 3e-3 -3.2108-0.0525-4.5651-0.17083-1.3544-0.1183-2.3735-0.22791-3.1861-0.62268-0.1217-0.0593-0.2298-0.14286-0.31824-0.24567-0.29632-0.34393-0.47184-0.80118-0.48321-1.2336-0.01134-0.43237 0.11603-0.81399 0.28876-1.1432 0.34583-0.65847 0.87712-1.1659 1.4418-1.6245 0.56474-0.4586 1.174-0.84616 1.6992-1.1432 0.26268-0.14853 0.50052-0.27364 0.71301-0.37115 0.10356-0.0476 0.21241-0.068 0.30463-0.10431 0.41964-0.2555 0.80364-0.32542 1.2984-0.41647 0.49478-0.0911 1.0733-0.16101 1.7227-0.21392 1.2989-0.1062 2.8674-0.15043 4.4394-0.14135zm21.256 0c1.572 8e-3 3.1411 0.0745 4.4334 0.18481 0.64615 0.0552 1.2214 0.11793 1.707 0.20032 0.48563 0.0824 0.84956 0.1542 1.2474 0.35754 0.33978 0.17386 0.65995 0.46488 0.82303 0.84465 0.16252 0.37977 0.15383 0.78301 0.0745 1.1079-0.15874 0.64982-0.53189 1.127-0.96446 1.6029-0.86517 0.95169-2.0554 1.8144-3.0663 2.3316-0.8002 0.40947-1.761 0.49482-3.0899 0.61482-1.3288 0.12018-2.9246 0.1833-4.5278 0.1867-1.603 3e-3 -3.2108-0.0525-4.5651-0.17083-1.3543-0.1183-2.3736-0.22791-3.1861-0.62268-0.11981-0.0597-0.22602-0.14324-0.31257-0.24567-0.29594-0.34393-0.4777-0.80118-0.48907-1.2336-0.01134-0.43237 0.11603-0.81399 0.28876-1.1432 0.34583-0.65847 0.87715-1.1659 1.4418-1.6245 0.56466-0.4586 1.174-0.84616 1.6992-1.1432 0.26268-0.14853 0.50056-0.27364 0.71301-0.37115 0.10356-0.0476 0.21241-0.068 0.30463-0.10431 0.41964-0.2555 0.80368-0.32542 1.2984-0.41647 0.49478-0.0911 1.0811-0.16101 1.7306-0.21392 1.2989-0.1062 2.8674-0.15043 4.4394-0.14135zm21.248 0c1.572 8e-3 3.1411 0.0745 4.4335 0.18481 0.64615 0.0552 1.2214 0.11793 1.707 0.20032 0.48559 0.0824 0.85738 0.1542 1.2552 0.35754 0.33978 0.17386 0.66002 0.46485 0.82307 0.84465 0.16252 0.37981 0.15382 0.78301 0.0744 1.1079-0.15874 0.64982-0.53193 1.1271-0.96449 1.6029-0.86521 0.95165-2.0555 1.8144-3.0663 2.3316-0.8002 0.40947-1.767 0.49482-3.0958 0.61482-1.3288 0.12018-2.9188 0.1833-4.5219 0.1867-1.6031 3e-3 -3.2128-0.0525-4.567-0.17083-1.3543-0.1183-2.3716-0.22791-3.1842-0.62268-0.12246-0.059-0.23168-0.14249-0.32013-0.24567-0.29631-0.34393-0.47773-0.80118-0.48914-1.2336-0.0113-0.43237 0.12359-0.81399 0.29669-1.1432 0.34583-0.65847 0.87511-1.1659 1.4398-1.6245 0.5647-0.4586 1.1681-0.84616 1.6933-1.1432 0.26268-0.14853 0.50842-0.27364 0.72091-0.37115 0.15307-0.0707 0.28006-0.12472 0.43215-0.17083 0.37152-0.19692 0.72691-0.26797 1.1707-0.34961 0.49474-0.0911 1.0732-0.16101 1.7227-0.2143 1.299-0.1062 2.8674-0.15042 4.4394-0.14135zm-7.3328 0.70518c-0.0427 0.0227-0.0843 0.0404-0.12775 0.0669l0.3103-0.11981c-0.0745 0.0151-0.12397 0.034-0.18255 0.0529zm28.589-0.70518c1.572 8e-3 3.1392 0.0745 4.4315 0.18481 0.64611 0.0552 1.2234 0.11793 1.709 0.20032 0.48567 0.0824 0.84952 0.1542 1.2474 0.35754 0.33978 0.17386 0.65995 0.46485 0.82303 0.84465 0.16252 0.37981 0.15383 0.78301 0.0745 1.1079-0.15874 0.64982-0.53193 1.1271-0.96453 1.6029-0.86514 0.95165-2.0556 1.8144-3.0663 2.3316-0.80024 0.40944-1.7611 0.49482-3.0898 0.61482-1.3289 0.12018-2.9247 0.1833-4.5278 0.1867-1.6031 3e-3 -3.2126-0.0525-4.567-0.17083-1.3543-0.1183-2.3716-0.22791-3.1842-0.62268-0.12246-0.059-0.23169-0.14249-0.32013-0.24567-0.29669-0.34393-0.46987-0.80118-0.48128-1.2336-0.0113-0.43237 0.11603-0.81399 0.28875-1.1432 0.34583-0.65847 0.87512-1.1659 1.4398-1.6245 0.5647-0.4586 1.1759-0.84616 1.7011-1.1432 0.26268-0.14853 0.50056-0.27364 0.71305-0.37115 0.10356-0.0476 0.21241-0.068 0.30463-0.10431 0.41952-0.2555 0.80368-0.32542 1.2984-0.41647 0.49474-0.0911 1.0732-0.16101 1.7227-0.21392 1.2989-0.1062 2.8752-0.15043 4.4472-0.14135zm21.248 0c1.5721 8e-3 3.1392 0.0745 4.4315 0.18481 0.64615 0.0552 1.2233 0.11793 1.709 0.20032 0.48559 0.0824 0.84952 0.1542 1.2473 0.35754 0.33978 0.17386 0.66002 0.46485 0.82306 0.84465 0.16252 0.37981 0.15383 0.78301 0.0745 1.1079-0.15874 0.64978-0.53189 1.1271-0.9645 1.6029-0.86517 0.95165-2.0555 1.8144-3.0663 2.3316-0.80024 0.40947-1.761 0.49482-3.0899 0.61482-1.3288 0.12018-2.9247 0.1833-4.5277 0.1867-1.6031 3e-3 -3.2049-0.0525-4.5592-0.17083-1.3543-0.1183-2.3795-0.22791-3.192-0.62268-0.11981-0.0597-0.2264-0.14324-0.31257-0.24567-0.29594-0.34393-0.47773-0.80118-0.48911-1.2336-0.0113-0.43237 0.11603-0.81399 0.28876-1.1432 0.34582-0.65847 0.88297-1.1659 1.4477-1.6245 0.56466-0.4586 1.1681-0.84616 1.6932-1.1432 0.26267-0.14853 0.50842-0.27364 0.7209-0.37115 0.10167-0.0469 0.20561-0.0684 0.29632-0.10431 0.41968-0.2555 0.80371-0.32542 1.2984-0.41647 0.49481-0.0911 1.081-0.16101 1.7305-0.21392 1.2989-0.1062 2.8674-0.15043 4.4394-0.14135zm21.248 0c1.572 8e-3 3.1392 0.0745 4.4315 0.18481 0.64618 0.0552 1.2234 0.11793 1.709 0.20032 0.48559 0.0824 0.85542 0.1542 1.2532 0.35754 0.33978 0.17386 0.66195 0.46485 0.82504 0.84465 0.16252 0.37981 0.15382 0.78301 0.0744 1.1079-0.15874 0.64978-0.53386 1.1271-0.96646 1.6029-0.86521 0.95165-2.0555 1.8144-3.0663 2.3316-0.80021 0.40944-1.767 0.49482-3.0958 0.61482-1.3289 0.12018-2.9168 0.1833-4.5199 0.1867-1.6031 3e-3 -3.2128-0.0525-4.5671-0.17083-1.3543-0.1183-2.3715-0.22791-3.1841-0.62268-0.12246-0.059-0.23169-0.14249-0.32013-0.24567-0.29556-0.34393-0.46983-0.80118-0.48125-1.2336-0.0113-0.43237 0.11604-0.81399 0.28876-1.1432 0.34583-0.65847 0.87515-1.1659 1.4398-1.6245 0.5647-0.4586 1.168-0.84616 1.6932-1.1432 0.26267-0.14853 0.50842-0.27364 0.7209-0.37115 0.15308-0.0707 0.28007-0.12472 0.43216-0.17083 0.37152-0.19692 0.72695-0.26797 1.1707-0.34961 0.49474-0.0911 1.0733-0.16101 1.7228-0.2143 1.2989-0.1062 2.8673-0.15042 4.4393-0.14135zm-7.3328 0.70518c-0.0427 0.0227-0.0843 0.0404-0.12775 0.0669l0.3103-0.11981c-0.0745 0.0151-0.12435 0.034-0.18293 0.0529zm28.589-0.70518c1.572 8e-3 3.1392 0.0745 4.4315 0.18481 0.64614 0.0552 1.2214 0.11793 1.707 0.20032 0.48563 0.0824 0.84953 0.1542 1.2473 0.35754 0.33978 0.17386 0.66199 0.46485 0.82504 0.84465 0.16289 0.37977 0.15382 0.78301 0.0745 1.1079-0.15874 0.64982-0.53389 1.127-0.96646 1.6029-0.86517 0.95169-2.0555 1.8144-3.0663 2.3316-0.80021 0.40944-1.7591 0.49482-3.0879 0.61482-1.3288 0.12018-2.9247 0.1833-4.5278 0.1867-1.6031 3e-3 -3.2128-0.0525-4.567-0.17083-1.3544-0.1183-2.3716-0.22791-3.1842-0.62268-0.12246-0.059-0.23169-0.14249-0.32013-0.24567-0.29631-0.34393-0.46983-0.80118-0.48121-1.2336-0.0113-0.43237 0.11603-0.81399 0.28876-1.1432 0.34583-0.65847 0.87515-1.1659 1.4398-1.6245 0.5647-0.4586 1.176-0.84616 1.7011-1.1432 0.26268-0.14853 0.50053-0.27364 0.71301-0.37115 0.10356-0.0476 0.21241-0.068 0.30463-0.10431 0.41961-0.2555 0.80364-0.32542 1.2984-0.41647 0.49478-0.0911 1.0733-0.16101 1.7227-0.21392 1.2989-0.1062 2.8752-0.15043 4.4472-0.14135zm-148.77 1.9742c-1.5276-8e-3 -3.0638 0.034-4.2763 0.13341-0.60624 0.0495-1.1289 0.11415-1.5223 0.18671-0.39352 0.0722-0.67854 0.19692-0.6325 0.16895-0.09827 0.0582-0.20598 0.0986-0.31824 0.11981 0.10318-0.0189-0.03817 0.0151-0.18671 0.0824-0.14854 0.0684-0.35036 0.17159-0.57162 0.29669-0.44232 0.25021-0.97372 0.59864-1.4242 0.96446-0.44704 0.36322-0.80066 0.76143-0.92912 1.0018 0.35716 0.10355 1.0376 0.2691 2.1156 0.36321 1.271 0.11112 2.8334 0.16819 4.3883 0.16516 1.5549-3e-3 3.1041-0.0661 4.351-0.17877 1.2469-0.11263 2.2907-0.3685 2.369-0.40856 0.74619-0.38177 1.8731-1.2026 2.5084-1.9015 0.22904-0.25171 0.28951-0.39522 0.36359-0.53427-0.11906-0.034-0.1663-0.062-0.41446-0.10394-0.4026-0.0684-0.93434-0.12472-1.5439-0.17688-1.2192-0.10393-2.7488-0.1697-4.2763-0.17877zm21.248 0c-1.5275-8e-3 -3.0578 0.034-4.2704 0.13341-0.60631 0.0495-1.1348 0.11415-1.5283 0.18671-0.39352 0.0722-0.6785 0.19692-0.63254 0.16895-0.09827 0.0582-0.20598 0.0986-0.31824 0.11981 0.10356-0.0189-0.0378 0.0151-0.18671 0.0824-0.14854 0.0684-0.34243 0.17159-0.56379 0.29669-0.4422 0.25021-0.97364 0.59864-1.4241 0.96446-0.44704 0.36322-0.80852 0.76143-0.93702 1.0018 0.35716 0.10355 1.0377 0.2691 2.1156 0.36321 1.2711 0.11112 2.8334 0.16819 4.3883 0.16516 1.5549-3e-3 3.112-0.0661 4.3588-0.17877 1.2469-0.11263 2.2887-0.3685 2.367-0.40856 0.74619-0.38177 1.8672-1.2026 2.5026-1.9015 0.23093-0.25398 0.29027-0.40183 0.36321-0.54017-0.11981-0.034-0.1697-0.0567-0.4145-0.0983-0.4026-0.0684-0.93434-0.12473-1.5439-0.17688-1.2192-0.10394-2.7488-0.16971-4.2763-0.17878zm21.246 0c-1.5275-8e-3 -3.0559 0.034-4.2684 0.13341-0.60631 0.0495-1.1348 0.11415-1.5282 0.18671-0.39326 0.0722-0.67064 0.19692-0.62464 0.16895-0.0983 0.0582-0.20599 0.0986-0.31824 0.11981 0.10318-0.0189-0.0382 0.0151-0.18671 0.0824-0.14853 0.0684-0.35036 0.17159-0.57161 0.29669-0.44228 0.25021-0.97569 0.59864-1.4261 0.96446-0.44708 0.36322-0.79869 0.76143-0.92716 1.0018 0.35943 0.10393 1.0407 0.26948 2.1156 0.36321 1.271 0.11112 2.8334 0.16819 4.3883 0.16516 1.5549-3e-3 3.1041-0.0661 4.351-0.17877 1.2469-0.11263 2.2887-0.3685 2.367-0.40856 0.74619-0.38177 1.875-1.2026 2.5104-1.9015 0.22903-0.25171 0.28951-0.39522 0.36359-0.53427-0.1183-0.034-0.17273-0.0616-0.42237-0.10394-0.40252-0.0684-0.9363-0.12472-1.5459-0.17688-1.2192-0.10393-2.7488-0.1697-4.2764-0.17877zm21.256 0c-1.5276-8e-3 -3.0559 0.034-4.2685 0.13341-0.60627 0.0495-1.1348 0.11415-1.5282 0.18671-0.39352 0.0722-0.67854 0.19692-0.63254 0.16895-0.0983 0.0582-0.20599 0.0986-0.31824 0.11981 0.10356-0.0189-0.0382 0.0151-0.18671 0.0824-0.14853 0.0684-0.35036 0.17159-0.57161 0.29669-0.44225 0.25021-0.97365 0.59864-1.4241 0.96446-0.447 0.36322-0.80065 0.76143-0.92912 1.0018 0.35717 0.10355 1.0376 0.2691 2.1156 0.36321 1.2711 0.11112 2.8334 0.16819 4.3883 0.16516 1.5549-3e-3 3.104-0.0661 4.351-0.17877 1.2469-0.11263 2.2966-0.3685 2.3749-0.40856 0.74611-0.38177 1.8672-1.2026 2.5025-1.9015 0.22903-0.25171 0.28951-0.39522 0.36321-0.53427-0.11906-0.034-0.16819-0.062-0.41647-0.10394-0.40256-0.0684-0.9343-0.12472-1.5439-0.17688-1.2192-0.10393-2.7488-0.1697-4.2763-0.17877zm21.248 0c-1.5275-8e-3 -3.0559 0.034-4.2685 0.13341-0.60627 0.0495-1.1368 0.11415-1.5302 0.18671-0.39348 0.0722-0.67653 0.19692-0.63057 0.16895-0.0964 0.0574-0.20221 0.0979-0.31257 0.11981 0.10318-0.0189-0.0438 0.0151-0.19238 0.0824-0.14853 0.0684-0.34242 0.17159-0.56375 0.29669-0.44221 0.25021-0.97565 0.59864-1.4261 0.96446-0.44708 0.36322-0.79865 0.76143-0.92716 1.0018 0.35981 0.10393 1.0334 0.26948 2.1077 0.36321 1.2711 0.11112 2.8413 0.16819 4.3962 0.16516 1.5549-3e-3 3.104-0.0661 4.351-0.17877 1.2469-0.11263 2.2888-0.3685 2.367-0.40856 0.74619-0.38177 1.8672-1.2026 2.5025-1.9015 0.23092-0.25398 0.29026-0.40183 0.36321-0.54017-0.11981-0.034-0.17159-0.0567-0.41647-0.0983-0.40256-0.0684-0.93437-0.12473-1.544-0.17688-1.2192-0.10394-2.7487-0.16971-4.2763-0.17878zm21.248 0c-1.5276-8e-3 -3.0559 0.034-4.2684 0.13341-0.60631 0.0495-1.1368 0.11415-1.5302 0.18671-0.39329 0.0722-0.66867 0.19692-0.62267 0.16895-0.099 0.0582-0.20712 0.0986-0.32013 0.11981 0.10318-0.0189-0.0382 0.0151-0.18482 0.0824-0.14853 0.0684-0.35036 0.17159-0.57161 0.29669-0.44225 0.25021-0.97569 0.59864-1.4261 0.96446-0.44701 0.36322-0.79869 0.76143-0.92716 1.0018 0.35943 0.10393 1.0407 0.26948 2.1156 0.36321 1.271 0.11112 2.8334 0.16819 4.3883 0.16516 1.5549-3e-3 3.1041-0.0661 4.351-0.17877 1.2469-0.11263 2.2887-0.3685 2.367-0.40856 0.74605-0.38177 1.875-1.2026 2.5104-1.9015 0.22904-0.25171 0.28951-0.39522 0.36321-0.53427-0.11906-0.034-0.16857-0.062-0.41643-0.10394-0.40256-0.0684-0.94223-0.12472-1.5518-0.17688-1.2192-0.10393-2.7488-0.1697-4.2763-0.17877zm21.256 0c-1.5276-8e-3 -3.0559 0.034-4.2685 0.13341-0.60627 0.0495-1.1368 0.11415-1.5302 0.18671-0.39345 0.0722-0.67654 0.19692-0.63054 0.16895-0.0983 0.0582-0.20599 0.0986-0.31824 0.11981 0.10318-0.0189-0.0382 0.0151-0.18671 0.0824-0.14853 0.0684-0.35036 0.17159-0.57161 0.29669-0.44225 0.25021-0.96771 0.59864-1.4182 0.96446-0.44705 0.36322-0.80663 0.76143-0.93506 1.0018 0.35717 0.10355 1.0376 0.2691 2.1156 0.36321 1.2711 0.11112 2.8334 0.16819 4.3883 0.16516 1.5549-3e-3 3.11-0.0661 4.3569-0.17877 1.2469-0.11263 2.2906-0.3685 2.3689-0.40856 0.74619-0.38177 1.8672-1.2026 2.5025-1.9015 0.23093-0.25398 0.29026-0.40183 0.36321-0.54017-0.11981-0.034-0.17197-0.0567-0.41639-0.0983-0.4026-0.0684-0.93434-0.12473-1.544-0.17688-1.2191-0.10394-2.7487-0.16971-4.2763-0.17878zm21.248 0c-1.5275-8e-3 -3.0559 0.034-4.2685 0.13341-0.60623 0.0495-1.1368 0.11415-1.5302 0.18671-0.3936 0.0722-0.67657 0.19692-0.63053 0.16895-0.0968 0.0574-0.20221 0.0979-0.31257 0.11981 0.10356-0.0189-0.0382 0.0151-0.18482 0.0824-0.14854 0.0684-0.35036 0.17159-0.57162 0.29669-0.4422 0.25021-0.97561 0.59864-1.4261 0.96446-0.447 0.36322-0.79865 0.76143-0.92715 1.0018 0.35981 0.10393 1.0334 0.26948 2.1077 0.36321 1.271 0.11112 2.8392 0.16819 4.3942 0.16516 1.5549-3e-3 3.1041-0.0661 4.351-0.17877 1.247-0.11263 2.2907-0.3685 2.369-0.40856 0.74616-0.38177 1.8672-1.2026 2.5026-1.9015 0.22904-0.25209 0.29745-0.39533 0.37153-0.53427-0.1183-0.034-0.17462-0.0616-0.42429-0.10394-0.4026-0.0684-0.93441-0.12472-1.544-0.17688-1.2192-0.10393-2.7488-0.1697-4.2763-0.17877zm-31.188 3.1213c4.5e-4 8e-3 8e-3 0.0189 8e-3 0.0227 0 1.9e-4 4e-3 -8e-3 8e-3 -0.0113 1e-3 -3e-4 2e-3 -4e-3 8e-3 2e-3l-8e-3 -4e-3h-2e-3c-4e-3 -3e-3 -0.0113-8e-3 -0.0113-8e-3zm-113.99 5.7515c1.572 8e-3 3.1412 0.0669 4.4335 0.17689 0.64619 0.0552 1.2213 0.11792 1.7069 0.20031 0.48563 0.0824 0.8496 0.15421 1.2474 0.35754 0.33978 0.17386 0.65994 0.46681 0.82303 0.84662 0.16252 0.37984 0.15383 0.78104 0.07446 1.1059-0.15874 0.64981-0.53186 1.127-0.9645 1.6029-0.86513 0.95169-2.0555 1.8144-3.0663 2.3316-0.80024 0.40948-1.7591 0.49675-3.0879 0.61682-1.3288 0.12019-2.9266 0.18142-4.5297 0.18482-1.6031 3e-3 -3.2107-0.0525-4.5651-0.17083-1.3543-0.1183-2.3735-0.22224-3.1861-0.61682-0.11906-0.0593-0.22413-0.14249-0.3103-0.24378-0.29594-0.34394-0.4797-0.80119-0.49107-1.2336-0.01134-0.43238 0.11792-0.8199 0.29065-1.1491 0.34583-0.65847 0.87511-1.1678 1.4398-1.6264 0.5647-0.45861 1.174-0.84616 1.6992-1.1432 0.26268-0.14853 0.50052-0.27363 0.71301-0.37115 0.18368-0.0847 0.32882-0.1474 0.53431-0.19842 0.33562-0.15987 0.66716-0.24794 1.0706-0.32202 0.49482-0.0911 1.0792-0.161 1.7286-0.21392 1.2989-0.10582 2.8673-0.14286 4.4394-0.13341zm-7.2385 0.66985c-0.07597 0.0378-0.15232 0.0548-0.23017 0.10205l0.32013-0.12775c-0.03817 8e-3 -0.05821 0.0189-0.09033 0.0265zm28.487-0.66985c1.572 8e-3 3.1411 0.0669 4.4334 0.17689 0.64622 0.0552 1.2214 0.11792 1.707 0.20031 0.48559 0.0824 0.85739 0.15421 1.2552 0.35754 0.33978 0.17386 0.65998 0.46681 0.82303 0.84662 0.16252 0.37984 0.15383 0.78104 0.07446 1.1059-0.15874 0.64977-0.53189 1.127-0.96446 1.6029-0.86521 0.95165-2.0555 1.8144-3.0663 2.3316-0.80013 0.40948-1.7669 0.49675-3.0957 0.61682-1.3288 0.12019-2.9188 0.18142-4.5219 0.18482-1.6031 3e-3 -3.2107-0.0525-4.5651-0.17083-1.3543-0.1183-2.3736-0.22224-3.1861-0.61682-0.1217-0.0586-0.23017-0.14136-0.31824-0.24378-0.29632-0.34394-0.4797-0.80119-0.49111-1.2336-0.01134-0.43238 0.12359-0.8199 0.29632-1.1491 0.34583-0.65847 0.87712-1.1678 1.4418-1.6264 0.5647-0.45861 1.1661-0.84616 1.6913-1.1432 0.26268-0.14853 0.50842-0.27363 0.72091-0.37115 0.18973-0.0873 0.32995-0.15269 0.54607-0.20409 0.33146-0.15572 0.65847-0.24302 1.0568-0.31635 0.49478-0.0911 1.0732-0.161 1.7227-0.21392 1.2989-0.10582 2.8673-0.14286 4.4394-0.13341zm-7.2189 0.66395c-0.08013 0.0378-0.1595 0.0582-0.24189 0.1081l0.31257-0.12775c-0.03024 4e-3 -0.04498 0.0151-0.07068 0.0227zm28.475-0.66395c1.572 8e-3 3.1411 0.0669 4.4335 0.17689 0.64614 0.0552 1.2214 0.11792 1.707 0.20031 0.4856 0.0824 0.84956 0.15421 1.2474 0.35754 0.33978 0.17386 0.65998 0.46681 0.82303 0.84662 0.16252 0.37984 0.15383 0.78104 0.0745 1.1059-0.15874 0.64981-0.53197 1.127-0.96454 1.6029-0.86513 0.95165-2.0555 1.8144-3.0662 2.3316-0.80028 0.40948-1.7591 0.49675-3.088 0.61682-1.3288 0.12019-2.9266 0.18142-4.5297 0.18482-1.6032 3e-3 -3.2108-0.0525-4.5651-0.17083-1.3543-0.1183-2.3736-0.22224-3.1862-0.61682-0.1217-0.0586-0.22979-0.14136-0.31823-0.24378-0.29632-0.34394-0.47184-0.80119-0.48325-1.2336-0.01134-0.43238 0.11603-0.8199 0.28876-1.1491 0.34583-0.65847 0.87712-1.1678 1.4418-1.6264 0.5647-0.45861 1.174-0.84616 1.6991-1.1432 0.26268-0.14853 0.5006-0.27363 0.71309-0.37115 0.18595-0.0858 0.33033-0.14929 0.54017-0.20031 0.33335-0.15761 0.66194-0.24643 1.0627-0.32013 0.49474-0.0911 1.0732-0.161 1.7227-0.21392 1.2989-0.10582 2.8752-0.14286 4.4472-0.13341zm-7.2326 0.66789c-0.0782 0.0378-0.15572 0.0556-0.23547 0.10393l0.31824-0.12775c-0.034 8e-3 -0.0529 0.0151-0.0824 0.0227zm28.481-0.66789c1.572 8e-3 3.1392 0.0669 4.4316 0.17689 0.64611 0.0552 1.2233 0.11792 1.7089 0.20031 0.48563 0.0824 0.84953 0.15421 1.2474 0.35754 0.33978 0.17386 0.65998 0.46681 0.82307 0.84662 0.16252 0.37984 0.15382 0.78104 0.0744 1.1059-0.15874 0.64981-0.53189 1.127-0.96449 1.6029-0.86518 0.95165-2.0555 1.8144-3.0663 2.3316-0.80024 0.40948-1.7611 0.49675-3.0899 0.61682-1.3288 0.12019-2.9247 0.18142-4.5278 0.18482-1.603 3e-3 -3.2048-0.0525-4.5591-0.17083-1.3543-0.1183-2.3795-0.22224-3.1921-0.61682-0.11981-0.0593-0.22564-0.14211-0.31257-0.24378-0.29593-0.34394-0.47773-0.80119-0.4891-1.2336-0.0113-0.43238 0.11603-0.8199 0.28875-1.1491 0.34621-0.65847 0.88297-1.1678 1.4477-1.6264 0.56474-0.45861 1.1681-0.84616 1.6933-1.1432 0.26268-0.14853 0.50842-0.27363 0.72091-0.37115 0.18406-0.0847 0.32239-0.1474 0.52645-0.19842 0.33562-0.1595 0.66546-0.24794 1.0686-0.32202 0.49478-0.0911 1.0811-0.161 1.7306-0.21392 1.2989-0.10582 2.8673-0.14286 4.4393-0.13341zm-7.2385 0.66985c-0.0764 0.0378-0.15194 0.0548-0.23017 0.10205l0.31823-0.12775c-0.034 8e-3 -0.0563 0.0189-0.0881 0.0265zm28.487-0.66985c1.572 8e-3 3.1411 0.0669 4.4335 0.17689 0.64614 0.0552 1.2214 0.11792 1.707 0.20031 0.48563 0.0824 0.85739 0.15421 1.2552 0.35754 0.33978 0.17386 0.66006 0.46685 0.82307 0.84662 0.1629 0.3798 0.15382 0.78104 0.0744 1.1059-0.15874 0.64981-0.53382 1.127-0.96638 1.6029-0.86514 0.95169-2.0536 1.8144-3.0644 2.3316-0.80024 0.40944-1.7688 0.49675-3.0977 0.61682-1.3288 0.12019-2.9168 0.18142-4.5199 0.18482-1.6031 3e-3 -3.2128-0.0525-4.5671-0.17083-1.3543-0.1183-2.3716-0.22224-3.1841-0.61682-0.12246-0.0586-0.23093-0.14136-0.32013-0.24378-0.29631-0.34394-0.46983-0.80119-0.48124-1.2336-0.0113-0.43238 0.11603-0.8199 0.28875-1.1491 0.34583-0.65847 0.87511-1.1678 1.4398-1.6264 0.5647-0.45861 1.168-0.84616 1.6932-1.1432 0.26268-0.14853 0.50842-0.27363 0.72091-0.37115 0.19124-0.0881 0.3307-0.15231 0.55003-0.20409 0.33033-0.15458 0.6559-0.2434 1.0529-0.31635 0.49474-0.0911 1.0733-0.161 1.7227-0.21392 1.299-0.10582 2.8673-0.14286 4.4394-0.13341zm-7.2149 0.66395c-0.0813 0.0382-0.16252 0.0575-0.24567 0.1081l0.31067-0.12775c-0.0265 4e-3 -0.0416 0.0151-0.065 0.0227zm28.471-0.66395c1.572 8e-3 3.1392 0.0669 4.4315 0.17689 0.64615 0.0552 1.2234 0.11792 1.709 0.20031 0.48559 0.0824 0.84949 0.15421 1.2473 0.35754 0.33978 0.17386 0.66002 0.46681 0.82307 0.84662 0.16252 0.37984 0.15383 0.78104 0.0745 1.1059-0.15874 0.64981-0.53193 1.127-0.96449 1.6029-0.86517 0.95165-2.0556 1.8144-3.0663 2.3316-0.80027 0.40948-1.7611 0.49675-3.0899 0.61682-1.3288 0.12019-2.9247 0.18142-4.5278 0.18482-1.6031 3e-3 -3.2128-0.0525-4.5671-0.17083-1.3543-0.1183-2.3716-0.22224-3.1841-0.61682-0.12246-0.0586-0.23093-0.14136-0.32013-0.24378-0.29669-0.34394-0.46987-0.80119-0.48128-1.2336-0.0113-0.43238 0.11603-0.8199 0.28876-1.1491 0.34582-0.65847 0.87515-1.1678 1.4398-1.6264 0.5647-0.45861 1.1759-0.84616 1.7011-1.1432 0.26268-0.14853 0.50056-0.27363 0.71301-0.37115 0.18482-0.085 0.32882-0.1474 0.53628-0.19842 0.33486-0.15912 0.66417-0.24832 1.0666-0.32202 0.49478-0.0911 1.0733-0.161 1.7227-0.21392 1.2989-0.10582 2.8752-0.14286 4.4472-0.13341zm-7.2366 0.66985c-0.0767 0.0378-0.15345 0.0544-0.23206 0.10205l0.31823-0.12775c-0.034 8e-3 -0.0556 0.0189-0.0862 0.0265zm28.485-0.66985c1.572 8e-3 3.1392 0.0669 4.4315 0.17689 0.64615 0.0552 1.2233 0.11792 1.709 0.20031 0.48555 0.0824 0.84949 0.15421 1.2473 0.35754 0.33978 0.17386 0.66002 0.46681 0.82303 0.84662 0.16252 0.37984 0.15383 0.78104 0.0745 1.1059-0.15875 0.64977-0.526 1.127-0.95861 1.6029-0.86517 0.95165-2.0556 1.8144-3.0663 2.3316-0.80024 0.40944-1.7669 0.49675-3.0958 0.61682-1.3288 0.12019-2.9168 0.18142-4.5199 0.18482-1.6031 3e-3 -3.2128-0.0525-4.5671-0.17083-1.3543-0.1183-2.3794-0.22224-3.192-0.61682-0.11981-0.0593-0.22564-0.14211-0.31257-0.24378-0.29593-0.34394-0.47769-0.80119-0.48907-1.2336-0.0113-0.43238 0.12359-0.8199 0.29632-1.1491 0.34582-0.65847 0.87515-1.1678 1.4398-1.6264 0.56473-0.45861 1.1681-0.84616 1.6933-1.1432 0.26268-0.14853 0.50842-0.27363 0.72087-0.37115 0.18407-0.0847 0.3224-0.1474 0.52649-0.19842 0.33562-0.1595 0.66539-0.24794 1.0686-0.32202 0.49478-0.0911 1.0811-0.161 1.7306-0.21392 1.2989-0.10582 2.8673-0.14286 4.4394-0.13341zm-7.2385 0.66985c-0.076 0.0378-0.15194 0.0548-0.23017 0.10205l0.31823-0.12775c-0.034 8e-3 -0.0567 0.0189-0.0884 0.0265zm28.487-0.66985c1.572 8e-3 3.147 0.0669 4.4394 0.17689 0.64615 0.0552 1.2214 0.11792 1.707 0.20031 0.48559 0.0824 0.84952 0.15421 1.2474 0.35754 0.33978 0.17386 0.66195 0.46681 0.825 0.84662 0.16252 0.37984 0.15383 0.78104 0.0745 1.1059-0.15874 0.64977-0.53386 1.127-0.96643 1.6029-0.86521 0.95165-2.0555 1.8144-3.0663 2.3316-0.80024 0.40948-1.7591 0.49675-3.0879 0.61682-1.3288 0.12019-2.9247 0.18142-4.5278 0.18482-1.6031 3e-3 -3.2128-0.0525-4.5671-0.17083-1.3543-0.1183-2.3716-0.22224-3.1841-0.61682-0.12246-0.0586-0.23093-0.14136-0.32013-0.24378-0.29556-0.34394-0.46987-0.80119-0.48128-1.2336-0.0113-0.43238 0.11603-0.8199 0.28875-1.1491 0.34583-0.65847 0.87515-1.1678 1.4398-1.6264 0.56474-0.45861 1.1759-0.84616 1.7011-1.1432 0.26268-0.14853 0.50056-0.27363 0.71305-0.37115 0.18595-0.0858 0.33033-0.14929 0.54017-0.20031 0.33335-0.15761 0.66195-0.24643 1.0627-0.32013 0.49474-0.0911 1.0732-0.161 1.7227-0.21392 1.2989-0.10582 2.8674-0.14286 4.4394-0.13341zm-7.2248 0.66789c-0.0782 0.0378-0.15572 0.0556-0.23584 0.10393l0.31823-0.12775c-0.034 8e-3 -0.0529 0.0151-0.0824 0.0227zm-141.54 1.3063c-1.5276-8e-3 -3.0578 0.034-4.2704 0.13341-0.60624 0.0495-1.1348 0.11225-1.5283 0.18444-0.3933 0.0722-0.67064 0.19314-0.62464 0.16517-0.09827 0.0601-0.20561 0.1028-0.31824 0.12586 0.10318-0.0227-0.03817 0.0113-0.18671 0.0805-0.14854 0.0684-0.35036 0.16554-0.57165 0.29065-0.4422 0.2502-0.97361 0.59864-1.4241 0.96446-0.44708 0.36321-0.80066 0.76142-0.92916 1.0018 0.35981 0.10394 1.0407 0.27137 2.1156 0.36548 1.271 0.11112 2.8334 0.1663 4.3883 0.1629 1.5549-3e-3 3.1041-0.0661 4.351-0.17878 1.2469-0.11263 2.2887-0.3685 2.367-0.40856 0.74627-0.38185 1.875-1.2006 2.5104-1.8995 0.22639-0.24945 0.28876-0.38865 0.36321-0.52838-0.1183-0.034-0.17272-0.0616-0.42232-0.10393-0.4026-0.0684-0.93441-0.13266-1.544-0.18482-1.2192-0.10394-2.7488-0.16176-4.2763-0.17084zm21.254 0c-1.5276-8e-3 -3.0559 0.034-4.2685 0.13341-0.60631 0.0495-1.1348 0.11225-1.5283 0.18444-0.39345 0.0722-0.6785 0.19314-0.6325 0.16517-0.09789 0.0601-0.20561 0.1028-0.31824 0.12586 0.10318-0.0227-0.03817 0.0113-0.18671 0.0805-0.14854 0.0684-0.35036 0.16554-0.57158 0.29065-0.44224 0.2502-0.97368 0.59864-1.4242 0.96446-0.44704 0.36321-0.80066 0.76142-0.92912 1.0018 0.35716 0.10356 1.0376 0.27099 2.1156 0.36548 1.271 0.11112 2.8334 0.1663 4.3883 0.1629 1.5549-3e-3 3.1041-0.0661 4.351-0.17878 1.2469-0.11263 2.2966-0.3685 2.3749-0.40856 0.74619-0.38185 1.8672-1.2006 2.5025-1.8995 0.22866-0.25171 0.28951-0.39719 0.36321-0.53624-0.11943-0.034-0.16743-0.0544-0.41446-0.0964-0.4026-0.0684-0.93438-0.13267-1.544-0.18482-1.2192-0.10394-2.7487-0.16177-4.2763-0.17084zm21.248 0c-1.5276-8e-3 -3.0559 0.034-4.2685 0.13341-0.60628 0.0495-1.1348 0.11225-1.5282 0.18444-0.39352 0.0722-0.67854 0.19314-0.63254 0.16517-0.0952 0.0593-0.20069 0.10167-0.3103 0.12586 0.10318-0.0227-0.0461 0.0113-0.19464 0.0805-0.14854 0.0684-0.34243 0.16554-0.56376 0.29065-0.44228 0.2502-0.97561 0.59864-1.4261 0.96446-0.447 0.36321-0.79865 0.76142-0.92716 1.0018 0.35982 0.10394 1.0334 0.27137 2.1077 0.36548 1.271 0.11112 2.8412 0.1663 4.3962 0.1629 1.5549-3e-3 3.104-0.0661 4.351-0.17878 1.2469-0.11263 2.2887-0.3685 2.367-0.40856 0.74623-0.38185 1.8672-1.2006 2.5026-1.8995 0.22866-0.25171 0.28951-0.39719 0.36321-0.53624-0.11981-0.034-0.16932-0.0548-0.41446-0.0964-0.4026-0.0684-0.93638-0.13267-1.5459-0.18482-1.2192-0.10394-2.7488-0.16177-4.2763-0.17084zm21.248 0c-1.5275-8e-3 -3.0559 0.034-4.2685 0.13341-0.60628 0.0495-1.1348 0.11225-1.5282 0.18444-0.39326 0.0722-0.6706 0.19314-0.62464 0.16517-0.0979 0.0601-0.20561 0.1028-0.31824 0.12586 0.10318-0.0227-0.0382 0.0113-0.1867 0.0805-0.14854 0.0684-0.35037 0.16554-0.57166 0.29065-0.4422 0.2502-0.97561 0.59864-1.4261 0.96446-0.447 0.36321-0.79865 0.76142-0.92712 1.0018 0.35944 0.10394 1.0407 0.27137 2.1156 0.36548 1.271 0.11112 2.8334 0.1663 4.3883 0.1629 1.5549-3e-3 3.1041-0.0661 4.351-0.17878 1.2469-0.11263 2.2887-0.3685 2.367-0.40856 0.74623-0.38185 1.875-1.2006 2.5104-1.8995 0.22904-0.25171 0.28951-0.39719 0.36321-0.53624-0.11905-0.034-0.1697-0.0544-0.41643-0.0964-0.40255-0.0684-0.94219-0.13267-1.5518-0.18482-1.2192-0.10394-2.7488-0.16177-4.2764-0.17084zm21.256 0c-1.5275-8e-3 -3.0559 0.034-4.2685 0.13341-0.60628 0.0495-1.1368 0.11225-1.5302 0.18444-0.39349 0.0722-0.67646 0.19314-0.63054 0.16517-0.0979 0.0601-0.20561 0.1028-0.31824 0.12586 0.10318-0.0227-0.0382 0.0113-0.1867 0.0805-0.14854 0.0684-0.35037 0.16554-0.57162 0.29065-0.44232 0.2502-0.96775 0.59864-1.4182 0.96446-0.44708 0.36321-0.80655 0.76142-0.93502 1.0018 0.35717 0.10356 1.0375 0.27099 2.1156 0.36548 1.2711 0.11112 2.8334 0.1663 4.3883 0.1629 1.5549-3e-3 3.1119-0.0661 4.3588-0.17878 1.2469-0.11263 2.2887-0.3685 2.367-0.40856 0.74616-0.38185 1.8672-1.2006 2.5025-1.8995 0.22904-0.25171 0.28951-0.39719 0.36321-0.53624-0.11981-0.034-0.17197-0.0548-0.41643-0.0964-0.40255-0.0684-0.93441-0.13267-1.544-0.18482-1.2191-0.10394-2.7487-0.16177-4.2763-0.17084zm21.248 0c-1.5276-8e-3 -3.0559 0.034-4.2685 0.13341-0.60628 0.0495-1.1368 0.11225-1.5302 0.18444-0.39353 0.0722-0.67654 0.19314-0.63054 0.16517-0.096 0.0593-0.20183 0.10205-0.31257 0.12586 0.10356-0.0227-0.0382 0.0113-0.18482 0.0805-0.14853 0.0684-0.35036 0.16554-0.57157 0.29065-0.44225 0.2502-0.97565 0.59864-1.4261 0.96446-0.44701 0.36321-0.79869 0.76142-0.9272 1.0018 0.35981 0.10394 1.0334 0.27137 2.1077 0.36548 1.2711 0.11112 2.8413 0.1663 4.3962 0.1629 1.5549-3e-3 3.1022-0.0661 4.349-0.17878 1.2469-0.11263 2.2906-0.3685 2.369-0.40856 0.7462-0.38185 1.8671-1.2006 2.5025-1.8995 0.22753-0.25058 0.28914-0.39685 0.36322-0.53624-0.11982-0.034-0.17197-0.0548-0.41639-0.0964-0.4026-0.0684-0.93438-0.13267-1.544-0.18482-1.2192-0.10394-2.7488-0.16177-4.2763-0.17084zm21.248 0c-1.5275-8e-3 -3.056 0.034-4.2685 0.13341-0.60632 0.0495-1.129 0.11225-1.5224 0.18444-0.39345 0.0722-0.67654 0.19314-0.63054 0.16517-0.0983 0.0605-0.20674 0.1028-0.32012 0.12586 0.10355-0.0227-0.0382 0.0113-0.18482 0.0805-0.14854 0.0684-0.35037 0.16554-0.57166 0.29065-0.44228 0.2502-0.97561 0.59864-1.4261 0.96446-0.44704 0.36321-0.79869 0.76142-0.92715 1.0018 0.35716 0.10356 1.0376 0.27099 2.1156 0.36548 1.271 0.11112 2.8334 0.1663 4.3882 0.1629 1.5549-3e-3 3.1021-0.0661 4.349-0.17878 1.2469-0.11263 2.2907-0.3685 2.3689-0.40856 0.7462-0.38185 1.875-1.2006 2.5104-1.8995 0.22904-0.25171 0.28951-0.39719 0.36359-0.53624-0.11943-0.034-0.1697-0.0544-0.41643-0.0964-0.40259-0.0684-0.93445-0.13267-1.544-0.18482-1.2192-0.10394-2.7566-0.16177-4.2842-0.17084zm21.256 0c-1.5276-8e-3 -3.0559 0.034-4.2685 0.13341-0.60628 0.0495-1.1368 0.11225-1.5302 0.18444-0.39353 0.0722-0.67658 0.19314-0.63058 0.16517-0.0983 0.0605-0.20674 0.1028-0.32012 0.12586 0.10355-0.0227-0.0382 0.0113-0.18482 0.0805-0.14854 0.0684-0.34243 0.16554-0.56376 0.29065-0.44228 0.2502-0.97564 0.59864-1.4261 0.96446-0.44708 0.36321-0.80655 0.76142-0.93502 1.0018 0.35717 0.10356 1.0376 0.27099 2.1156 0.36548 1.271 0.11112 2.8334 0.1663 4.3883 0.1629 1.5549-3e-3 3.11-0.0661 4.3568-0.17878 1.2469-0.11263 2.2907-0.3685 2.369-0.40856 0.74619-0.38185 1.8672-1.2006 2.5025-1.8995 0.22904-0.25171 0.28951-0.39719 0.36321-0.53624-0.11981-0.034-0.17159-0.0548-0.41643-0.0964-0.40255-0.0684-0.93441-0.13267-1.544-0.18482-1.2192-0.10394-2.7488-0.16177-4.2763-0.17084zm-73.69 3.1134c5.3e-4 8e-3 4e-3 0.0189 4e-3 0.0227 0 2.6e-4 8e-3 -0.0113 8e-3 -0.0151-4e-3 -3e-3 -0.0113-0.0113-0.0113-8e-3zm-95.753 5.1505c1.572 8e-3 3.1412 0.0669 4.4335 0.17689 0.64611 0.0552 1.2214 0.12585 1.707 0.20825 0.48563 0.0824 0.84949 0.14627 1.2473 0.3496 0.33978 0.17386 0.66002 0.46678 0.82307 0.84662 0.1629 0.3798 0.15383 0.781 0.07446 1.1059-0.15874 0.64981-0.53193 1.127-0.9645 1.6029-0.86513 0.95168-2.0555 1.8144-3.0663 2.3317-0.80028 0.4094-1.7611 0.50264-3.0899 0.62268-1.3288 0.12019-2.9246 0.17537-4.5278 0.17877-1.6031 3e-3 -3.2107-0.0525-4.5651-0.17083-1.3543-0.1183-2.3735-0.22224-3.1861-0.61678-0.1217-0.0586-0.23017-0.14136-0.31824-0.24378-0.29669-0.34394-0.4718-0.80123-0.48321-1.2336-0.01134-0.43242 0.11603-0.81993 0.28876-1.1491 0.34583-0.65851 0.87712-1.16 1.4418-1.6186 0.5647-0.45861 1.1739-0.85402 1.6991-1.1511 0.26268-0.14853 0.5006-0.27363 0.71308-0.37114 0.18482-0.085 0.32882-0.14741 0.53624-0.19843 0.33487-0.15912 0.66414-0.24794 1.0667-0.32202 0.49474-0.0911 1.0732-0.15533 1.7227-0.20825 1.2989-0.1062 2.8752-0.14853 4.4472-0.13946zm-7.2365 0.66981c-0.07672 0.0378-0.15345 0.0544-0.23168 0.10205l0.31824-0.12775c-0.03402 8e-3 -0.05518 0.0189-0.08617 0.0265zm28.485-0.66981c1.572 8e-3 3.1392 0.0669 4.4315 0.17689 0.64615 0.0552 1.2233 0.12585 1.709 0.20825 0.48563 0.0824 0.84952 0.14627 1.2473 0.3496 0.33978 0.17386 0.66002 0.46678 0.82311 0.84662 0.1629 0.3798 0.15383 0.781 0.07446 1.1059-0.15874 0.64981-0.53186 1.127-0.9645 1.6029-0.86513 0.95168-2.0555 1.8144-3.0663 2.3317-0.80016 0.4094-1.7611 0.50264-3.0898 0.62268-1.3289 0.12019-2.9247 0.17537-4.5278 0.17877-1.6031 3e-3 -3.2049-0.0525-4.5592-0.17083-1.3544-0.1183-2.3795-0.22224-3.192-0.61678-0.11981-0.0593-0.22564-0.14211-0.31257-0.24378-0.29594-0.34394-0.47769-0.80123-0.48911-1.2336-0.01134-0.43242 0.11603-0.81993 0.28876-1.1491 0.34583-0.65847 0.87704-1.16 1.4418-1.6186 0.56474-0.45861 1.174-0.85402 1.6992-1.1511 0.26268-0.14853 0.50838-0.27363 0.72087-0.37114 0.18406-0.0847 0.32239-0.14741 0.52649-0.19843 0.33562-0.1595 0.66546-0.24794 1.0686-0.32202 0.49478-0.0911 1.0812-0.15533 1.7306-0.20825 1.2989-0.1062 2.8673-0.14853 4.4393-0.13946zm-7.2385 0.66981c-0.07597 0.0378-0.15194 0.0548-0.2298 0.10205l0.31824-0.12775c-0.03817 8e-3 -0.05669 0.0189-0.08806 0.0265zm28.487-0.66981c1.572 8e-3 3.1392 0.0669 4.4315 0.17689 0.64615 0.0552 1.2234 0.12585 1.709 0.20825 0.48559 0.0824 0.85542 0.14627 1.2532 0.3496 0.33978 0.17386 0.66191 0.46678 0.825 0.84662 0.16252 0.3798 0.15383 0.781 0.07446 1.1059-0.15874 0.64981-0.53386 1.127-0.96642 1.6029-0.86521 0.95168-2.0555 1.8144-3.0663 2.3317-0.80024 0.4094-1.7669 0.50264-3.0958 0.62268-1.3288 0.12019-2.9168 0.17537-4.5199 0.17877-1.6031 3e-3 -3.2128-0.0525-4.5671-0.17083-1.3543-0.1183-2.3716-0.22224-3.1841-0.61678-0.12246-0.0586-0.23093-0.14136-0.32013-0.24378-0.29632-0.34394-0.46983-0.80123-0.48121-1.2336-0.01134-0.43242 0.11603-0.81993 0.28876-1.1491 0.34583-0.65851 0.87515-1.16 1.4399-1.6186 0.5647-0.45861 1.1681-0.85402 1.6932-1.1511 0.26268-0.14853 0.50842-0.27363 0.72091-0.37114 0.19124-0.0881 0.33071-0.15232 0.55004-0.20448 0.33033-0.15458 0.65582-0.2434 1.0528-0.31634 0.49478-0.0911 1.0732-0.15534 1.7227-0.20826 1.2989-0.1062 2.8674-0.14853 4.4394-0.13946zm-7.2149 0.66392c-0.08126 0.0382-0.1629 0.0575-0.24567 0.10809l0.31068-0.12775c-0.02646 4e-3 -0.04157 0.0151-0.06501 0.0227zm28.471-0.66392c1.5721 8e-3 3.1392 0.0669 4.4315 0.17689 0.64618 0.0552 1.2234 0.12585 1.709 0.20825 0.48559 0.0824 0.84956 0.14627 1.2474 0.3496 0.33978 0.17386 0.65998 0.46678 0.82303 0.84662 0.16252 0.3798 0.15382 0.781 0.0744 1.1059-0.15874 0.64981-0.53386 1.127-0.96646 1.6029-0.86517 0.95168-2.0556 1.8144-3.0663 2.3317-0.80016 0.4094-1.7591 0.50264-3.0879 0.62268-1.3288 0.12019-2.9247 0.17537-4.5278 0.17877-1.6031 3e-3 -3.2128-0.0525-4.5671-0.17083-1.3543-0.1183-2.3716-0.22224-3.1841-0.61678-0.12246-0.0586-0.23093-0.14136-0.32013-0.24378-0.29631-0.34394-0.46983-0.80123-0.48125-1.2336-0.0113-0.43242 0.11604-0.81993 0.28876-1.1491 0.34583-0.65847 0.87515-1.16 1.4398-1.6186 0.56466-0.45861 1.1759-0.85402 1.7011-1.1511 0.26268-0.14853 0.50056-0.27363 0.71304-0.37114 0.18482-0.085 0.32882-0.14741 0.53628-0.19843 0.33487-0.15912 0.66414-0.24794 1.0666-0.32202 0.49474-0.0911 1.0733-0.15533 1.7227-0.20825 1.299-0.1062 2.8752-0.14853 4.4472-0.13946zm-7.2366 0.66981c-0.0767 0.0378-0.15345 0.0544-0.23206 0.10205l0.31824-0.12775c-0.034 8e-3 -0.0556 0.0189-0.0862 0.0265zm28.485-0.66981c1.572 8e-3 3.1392 0.0669 4.4315 0.17689 0.64614 0.0552 1.2214 0.12585 1.707 0.20825 0.48567 0.0824 0.84949 0.14627 1.2473 0.3496 0.33978 0.17386 0.66195 0.46678 0.82503 0.84662 0.16252 0.3798 0.15383 0.781 0.0745 1.1059-0.15874 0.64981-0.526 1.127-0.9586 1.6029-0.86514 0.95168-2.0556 1.8144-3.0663 2.3317-0.80021 0.40936-1.767 0.50264-3.0958 0.62268-1.3288 0.12019-2.9247 0.17537-4.5278 0.17877-1.6031 3e-3 -3.2048-0.0525-4.5592-0.17083-1.3543-0.1183-2.3794-0.22224-3.192-0.61678-0.11944-0.0593-0.22564-0.14211-0.31257-0.24378-0.29594-0.34394-0.4777-0.80123-0.48911-1.2336-0.0113-0.43242 0.11603-0.81993 0.28876-1.1491 0.34582-0.65847 0.88305-1.16 1.4477-1.6186 0.56473-0.45861 1.168-0.85402 1.6933-1.1511 0.26268-0.14853 0.50646-0.27363 0.71891-0.37114 0.18406-0.0847 0.32428-0.14741 0.52841-0.19843 0.33562-0.1595 0.66546-0.24794 1.0686-0.32202 0.49481-0.0911 1.0811-0.15533 1.7306-0.20825 1.2989-0.1062 2.8673-0.14853 4.4394-0.13946zm-7.2385 0.66981c-0.076 0.0378-0.15194 0.0548-0.2298 0.10205l0.31824-0.12775c-0.0382 8e-3 -0.0563 0.0189-0.0884 0.0265zm28.487-0.66981c1.572 8e-3 3.1392 0.0669 4.4315 0.17689 0.64607 0.0552 1.2292 0.12585 1.7148 0.20825 0.4856 0.0824 0.84956 0.14627 1.2474 0.3496 0.33978 0.17386 0.66195 0.46678 0.825 0.84662 0.16289 0.3798 0.15382 0.781 0.0745 1.1059-0.15874 0.64981-0.53386 1.127-0.96642 1.6029-0.86521 0.95168-2.0555 1.8144-3.0663 2.3317-0.80017 0.4094-1.7591 0.50264-3.0879 0.62268-1.3288 0.12019-2.9248 0.17537-4.5278 0.17877-1.6031 3e-3 -3.2128-0.0525-4.567-0.17083-1.3543-0.1183-2.3716-0.22224-3.1842-0.61678-0.12246-0.0586-0.23093-0.14136-0.32013-0.24378-0.29631-0.34394-0.47183-0.80123-0.48321-1.2336-0.0113-0.43242 0.11792-0.81993 0.29064-1.1491 0.34583-0.65851 0.87508-1.16 1.4398-1.6186 0.56466-0.45861 1.1759-0.85402 1.7011-1.1511 0.26267-0.14853 0.49859-0.27363 0.71108-0.37114 0.18368-0.0847 0.32919-0.14741 0.53431-0.19843 0.33562-0.15987 0.6672-0.24794 1.0706-0.32202 0.49478-0.0911 1.0733-0.15533 1.7227-0.20825 1.299-0.1062 2.8674-0.14853 4.4394-0.13946zm-7.2327 0.66981c-0.076 0.0378-0.15231 0.0548-0.23017 0.10205l0.32013-0.12775c-0.0382 8e-3 -0.0582 0.0189-0.0903 0.0265zm28.489-0.66981c1.572 8e-3 3.1393 0.0669 4.4315 0.17689 0.64622 0.0552 1.2214 0.12585 1.707 0.20825 0.48563 0.0824 0.84953 0.14627 1.2474 0.3496 0.33978 0.17386 0.66195 0.46678 0.825 0.84662 0.16251 0.3798 0.15382 0.781 0.0744 1.1059-0.15874 0.64981-0.53389 1.127-0.96646 1.6029-0.86517 0.95168-2.0556 1.8144-3.0663 2.3317-0.8002 0.40936-1.759 0.50264-3.0879 0.62268-1.3288 0.12019-2.9247 0.17537-4.5278 0.17877-1.6031 3e-3 -3.2127-0.0525-4.567-0.17083-1.3543-0.1183-2.3716-0.22224-3.1842-0.61678-0.12246-0.0586-0.23093-0.14136-0.32013-0.24378-0.29669-0.34394-0.47179-0.80123-0.48325-1.2336-0.0113-0.43242 0.11792-0.81993 0.29065-1.1491 0.34583-0.65847 0.87515-1.16 1.4398-1.6186 0.56466-0.45861 1.1758-0.85402 1.701-1.1511 0.26268-0.14853 0.49863-0.27363 0.71112-0.37114 0.18368-0.0847 0.32919-0.14741 0.53427-0.19843 0.33562-0.15987 0.66724-0.24794 1.0706-0.32202 0.49474-0.0911 1.0732-0.15533 1.7227-0.20825 1.2989-0.1062 2.8751-0.14853 4.4472-0.13946zm-7.2405 0.66981c-0.076 0.0378-0.15231 0.0548-0.22979 0.10205l0.32012-0.12775c-0.0382 8e-3 -0.0582 0.0189-0.0903 0.0265zm28.489-0.66981c1.5721 8e-3 3.1392 0.0669 4.4315 0.17689 0.64615 0.0552 1.2213 0.12585 1.707 0.20825 0.4856 0.0824 0.84956 0.14627 1.2474 0.3496 0.33978 0.17386 0.66981 0.46678 0.83289 0.84662 0.1629 0.3798 0.14627 0.781 0.0669 1.1059-0.15874 0.64981-0.52603 1.127-0.95864 1.6029-0.86517 0.95168-2.0555 1.8144-3.0662 2.3317-0.80028 0.4094-1.7669 0.50264-3.0958 0.62268-1.3288 0.12019-2.9188 0.17537-4.5219 0.17877-1.6031 3e-3 -3.2108-0.0525-4.5651-0.17083-1.3543-0.1183-2.3794-0.22224-3.192-0.61678-0.11981-0.0593-0.22564-0.14211-0.31257-0.24378-0.29593-0.34394-0.47773-0.80123-0.48911-1.2336-0.0113-0.43242 0.12359-0.81993 0.29632-1.1491 0.34583-0.65851 0.87515-1.16 1.4398-1.6186 0.56474-0.45861 1.1681-0.85402 1.6933-1.1511 0.26268-0.14853 0.50646-0.27363 0.71895-0.37114 0.18406-0.0847 0.32428-0.14741 0.52841-0.19843 0.33714-0.15987 0.67317-0.24794 1.0764-0.32202 0.49478-0.0911 1.0714-0.15533 1.7208-0.20825 1.299-0.1062 2.8693-0.14853 4.4413-0.13946zm-7.2385 0.66981c-0.0767 0.0378-0.15383 0.0548-0.23207 0.10205l0.32013-0.12775c-0.0382 8e-3 -0.0563 0.0189-0.0884 0.0265zm-141.53 1.3043c-1.5276-8e-3 -3.0559 0.034-4.2685 0.13341-0.60627 0.0495-1.1368 0.11226-1.5302 0.18482-0.39345 0.0722-0.67654 0.19314-0.63054 0.16517-0.09789 0.0601-0.20561 0.1028-0.31824 0.12586 0.10356-0.0227-0.03817 0.0113-0.18671 0.0805-0.14854 0.0684-0.34242 0.17348-0.56375 0.29858-0.44232 0.25021-0.97565 0.59082-1.4261 0.95664-0.44704 0.36321-0.80655 0.76142-0.93502 1.0018 0.35716 0.10356 1.0375 0.27704 2.1156 0.37115 1.271 0.11112 2.8334 0.16025 4.3883 0.15723 1.5549-3e-3 3.1119-0.0582 4.3588-0.17084 1.2469-0.11263 2.2887-0.3685 2.367-0.40856 0.74623-0.38185 1.8672-1.2085 2.5025-1.9074 0.22904-0.25172 0.28951-0.39723 0.36359-0.53624-0.11981-0.034-0.17159-0.0548-0.41647-0.0964-0.40256-0.0684-0.93434-0.13266-1.5439-0.18481-1.2192-0.10394-2.7488-0.16177-4.2763-0.17084zm21.248 0c-1.5275-8e-3 -3.0559 0.034-4.2685 0.13341-0.60627 0.0495-1.1368 0.11226-1.5302 0.18482-0.39334 0.0722-0.66879 0.19314-0.62268 0.16517-0.09827 0.0605-0.20674 0.1028-0.32013 0.12586 0.10356-0.0227-0.03817 0.0113-0.18482 0.0805-0.14854 0.0684-0.35036 0.17348-0.57165 0.29858-0.44224 0.25021-0.97561 0.59082-1.4261 0.95664-0.44704 0.36321-0.79861 0.76139-0.92716 1.0018 0.35943 0.10394 1.0406 0.27742 2.1156 0.37115 1.2711 0.11112 2.8334 0.16025 4.3883 0.15723 1.5549-3e-3 3.1041-0.0582 4.351-0.17084 1.2469-0.11263 2.2888-0.3685 2.367-0.40856 0.74619-0.38185 1.875-1.2085 2.5104-1.9074 0.22866-0.25172 0.28951-0.39723 0.36359-0.53624-0.11943-0.034-0.1697-0.0544-0.41643-0.0964-0.4026-0.0684-0.94224-0.13266-1.5518-0.18481-1.2192-0.10394-2.7488-0.16177-4.2763-0.17084zm21.256 0c-1.5275-8e-3 -3.0559 0.034-4.2684 0.13341-0.60639 0.0495-1.1369 0.11226-1.5302 0.18482-0.39352 0.0722-0.6765 0.19314-0.63054 0.16517-0.09827 0.0601-0.20561 0.1028-0.31824 0.12586 0.10356-0.0227-0.03817 0.0113-0.18671 0.0805-0.14854 0.0684-0.35036 0.17348-0.57162 0.29858-0.44224 0.25021-0.96775 0.59082-1.4182 0.95664-0.44708 0.36321-0.80655 0.76142-0.93502 1.0018 0.35717 0.10356 1.0375 0.27704 2.1156 0.37115 1.271 0.11112 2.8334 0.16025 4.3883 0.15723 1.5549-3e-3 3.11-0.0582 4.3569-0.17084 1.2469-0.11263 2.2906-0.3685 2.3689-0.40856 0.74619-0.38185 1.8671-1.2085 2.5025-1.9074 0.22904-0.25172 0.28951-0.39723 0.36359-0.53624-0.11981-0.034-0.17197-0.0548-0.41643-0.0964-0.4026-0.0684-0.93438-0.13266-1.544-0.18481-1.2191-0.10394-2.7488-0.16177-4.2763-0.17084zm21.248 0c-1.5276-8e-3 -3.0559 0.034-4.2685 0.13341-0.60631 0.0495-1.1367 0.11226-1.5302 0.18482-0.39344 0.0722-0.67653 0.19314-0.63053 0.16517-0.096 0.0593-0.20183 0.10205-0.31257 0.12586 0.10318-0.0227-0.0438 0.0113-0.19238 0.0805-0.14853 0.0684-0.34242 0.17348-0.56375 0.29858-0.44225 0.25021-0.97565 0.59082-1.4261 0.95664-0.44697 0.36321-0.79865 0.76142-0.92716 1.0018 0.35981 0.10394 1.0334 0.27742 2.1077 0.37115 1.2711 0.11112 2.8412 0.16025 4.3962 0.15723 1.5549-3e-3 3.1021-0.0582 4.349-0.17084 1.2469-0.11263 2.2906-0.3685 2.369-0.40856 0.74615-0.38185 1.8672-1.2085 2.5025-1.9074 0.22752-0.25058 0.28913-0.39685 0.36321-0.53624-0.11981-0.034-0.17159-0.0548-0.41643-0.0964-0.40256-0.0684-0.93438-0.13266-1.5439-0.18481-1.2192-0.10394-2.7488-0.16177-4.2763-0.17084zm21.248 0c-1.5275-8e-3 -3.0559 0.034-4.2684 0.13341-0.6062 0.0495-1.1289 0.11226-1.5224 0.18482-0.39349 0.0722-0.67654 0.19314-0.63054 0.16517-0.0983 0.0605-0.20674 0.1028-0.32013 0.12586 0.10356-0.0227-0.0382 0.0113-0.18482 0.0805-0.14853 0.0684-0.35036 0.17348-0.57165 0.29858-0.44221 0.25021-0.97561 0.59082-1.4261 0.95664-0.44701 0.36321-0.79865 0.76142-0.92716 1.0018 0.35717 0.10356 1.0375 0.27704 2.1156 0.37115 1.271 0.11112 2.8334 0.16025 4.3883 0.15723 1.5549-3e-3 3.1021-0.0582 4.349-0.17084 1.2469-0.11263 2.2907-0.3685 2.369-0.40856 0.74615-0.38185 1.875-1.2085 2.5104-1.9074 0.22867-0.25172 0.28952-0.39723 0.36322-0.53624-0.11944-0.034-0.1697-0.0544-0.41647-0.0964-0.40256-0.0684-0.93434-0.13266-1.5439-0.18481-1.2191-0.10394-2.7567-0.16177-4.2842-0.17084zm21.256 0c-1.5276-8e-3 -3.0559 0.034-4.2685 0.13341-0.60631 0.0495-1.1368 0.11226-1.5302 0.18482-0.39349 0.0722-0.67654 0.19314-0.63054 0.16517-0.0983 0.0605-0.20674 0.1028-0.32013 0.12586 0.10318-0.0227-0.0382 0.0113-0.18482 0.0805-0.14853 0.0684-0.35036 0.17348-0.57161 0.29858-0.44225 0.25021-0.96775 0.59082-1.4182 0.95664-0.44701 0.36321-0.80655 0.76142-0.93502 1.0018 0.35716 0.10356 1.0375 0.27704 2.1156 0.37115 1.2709 0.11112 2.8334 0.16025 4.3883 0.15723 1.5549-3e-3 3.1099-0.0582 4.3568-0.17084 1.2469-0.11263 2.2906-0.3685 2.369-0.40856 0.74615-0.38185 1.8672-1.2085 2.5025-1.9074 0.22867-0.25172 0.28952-0.39723 0.36322-0.53624-0.11981-0.034-0.17197-0.0548-0.41647-0.0964-0.40256-0.0684-0.93437-0.13266-1.5439-0.18481-1.2192-0.10394-2.7488-0.16177-4.2763-0.17084zm21.248 0c-1.5276-8e-3 -3.0559 0.034-4.2685 0.13341-0.60627 0.0495-1.1368 0.11226-1.5302 0.18482-0.39345 0.0722-0.67654 0.19314-0.63054 0.16517-0.096 0.0593-0.20183 0.10205-0.31257 0.12586 0.10356-0.0227-0.0382 0.0113-0.18482 0.0805-0.14853 0.0684-0.35036 0.17348-0.57161 0.29858-0.44228 0.25021-0.97561 0.59082-1.4261 0.95664-0.44704 0.36321-0.80065 0.76142-0.92912 1.0018 0.35944 0.10394 1.0425 0.27742 2.1175 0.37115 1.2711 0.11112 2.8314 0.16025 4.3864 0.15723 1.5549-3e-3 3.1041-0.0582 4.351-0.17084 1.2469-0.11263 2.2907-0.3685 2.369-0.40856 0.7462-0.38185 1.8672-1.2085 2.5025-1.9074 0.22753-0.25058 0.28914-0.39685 0.36321-0.53624-0.11981-0.034-0.17196-0.0548-0.41646-0.0964-0.40256-0.0684-0.93422-0.13266-1.5439-0.18481-1.2191-0.10394-2.7488-0.16177-4.2764-0.17084zm21.256 0c-1.5275-8e-3 -3.0638 0.034-4.2764 0.13341-0.60627 0.0495-1.1289 0.11226-1.5223 0.18482-0.39352 0.0722-0.67653 0.19314-0.63053 0.16517-0.0983 0.0605-0.20674 0.1028-0.32013 0.12586 0.10356-0.0227-0.0378 0.0113-0.18482 0.0805-0.14853 0.0684-0.35036 0.17348-0.57165 0.29858-0.44224 0.25021-0.97565 0.59082-1.4261 0.95664-0.44705 0.36321-0.79866 0.76142-0.92712 1.0018 0.35716 0.10356 1.0374 0.27704 2.1156 0.37115 1.271 0.11112 2.8314 0.16025 4.3863 0.15723 1.5549-3e-3 3.104-0.0582 4.351-0.17084 1.2469-0.11263 2.2907-0.3685 2.369-0.40856 0.74623-0.38185 1.873-1.2085 2.5084-1.9074 0.22866-0.25172 0.2914-0.39723 0.36548-0.53624-0.11943-0.034-0.1697-0.0544-0.41647-0.0964-0.40259-0.0684-0.93441-0.13266-1.544-0.18481-1.2192-0.10394-2.7487-0.16177-4.2763-0.17084zm48.935 0.14324c-0.12057-0.0722-1.1227 1.6688-2.3297 4.0642-7.0505 13.992-20.463 30.604-35.102 43.476-7.9361 6.978-11.875 9.2166-20.472 11.631-18.29 5.1358-49.194 7.9861-86.456 7.9751-23.418-8e-3 -39.122-0.77904-56.445-2.7775-22.444-2.5893-39.788-7.4635-42.093-11.827-0.39507-0.7477-0.72559-1.1223-0.73466-0.83289-0.038173 1.178 1.2992 4.5758 2.257 5.7378 5.2217 6.3349 32.238 10.876 74.662 12.55 10.165 0.40116 48.533 0.16781 58.12-0.35338 34.417-1.8721 56.134-5.401 63.145-10.26 7.2909-5.0525 20.843-18.044 27.473-26.338 5.249-6.5665 10.068-13.98 13.126-20.189 2.401-4.875 4.8617-11.362 4.8617-12.819 0-0.0227-4e-3 -0.034-0.0113-0.0378zm-188.41 8.1205c1.572 8e-3 3.1471 0.0665 4.4393 0.17688 0.64619 0.0552 1.2214 0.12586 1.707 0.20825 0.48563 0.0824 0.8496 0.14627 1.2474 0.34961 0.33978 0.17385 0.66191 0.4727 0.825 0.85251 0.1629 0.3798 0.15194 0.77514 0.07257 1.1-0.15874 0.64981-0.53189 1.127-0.9645 1.6029-0.86521 0.95165-2.0555 1.8223-3.0663 2.3395-0.80028 0.40952-1.7591 0.49482-3.0879 0.61486-1.3288 0.12019-2.9266 0.17537-4.5297 0.17877-1.603 3e-3 -3.2108-0.0446-4.5651-0.1629-1.3543-0.1183-2.3735-0.23017-3.1861-0.62468-0.1217-0.0586-0.2298-0.14135-0.31824-0.2434-0.29632-0.34394-0.47184-0.80118-0.48318-1.2336-0.01134-0.43238 0.11792-0.82186 0.29065-1.1511 0.3462-0.65843 0.87511-1.158 1.4399-1.6166 0.5647-0.45861 1.174-0.85402 1.6991-1.1511 0.26268-0.14854 0.50052-0.27364 0.71301-0.37115 0.18368-0.0847 0.3292-0.1474 0.53431-0.19843 0.33562-0.15987 0.66716-0.24793 1.0706-0.32201 0.49478-0.0911 1.0713-0.15534 1.7207-0.20826 1.2989-0.1062 2.8693-0.14853 4.4414-0.13946zm-7.2327 0.66984c-0.07597 0.0378-0.15232 0.0548-0.23017 0.10205l0.32013-0.12775c-0.03817 8e-3 -0.0582 0.0189-0.09033 0.0265zm28.487-0.66984h0.0019c1.572 8e-3 3.1392 0.0665 4.4315 0.17688 0.64619 0.0552 1.2214 0.12586 1.707 0.20825 0.48559 0.0824 0.84956 0.14627 1.2474 0.34961 0.33978 0.17385 0.66195 0.4727 0.825 0.85251 0.1629 0.37984 0.15194 0.77514 0.07257 1.1-0.15874 0.64981-0.53189 1.127-0.96446 1.6029-0.86521 0.95165-2.0555 1.8223-3.0663 2.3395-0.80024 0.40952-1.7591 0.49482-3.0879 0.61486-1.3288 0.12019-2.9266 0.17537-4.5297 0.17877-1.6031 3e-3 -3.2108-0.0446-4.5651-0.1629-1.3543-0.1183-2.3716-0.23017-3.1842-0.62468-0.12246-0.0582-0.23093-0.14135-0.32013-0.2434-0.29594-0.34394-0.4718-0.80118-0.48321-1.2336-0.01134-0.43238 0.11792-0.82186 0.29065-1.1511 0.34583-0.65843 0.87515-1.158 1.4398-1.6166 0.56466-0.45861 1.174-0.85402 1.6992-1.1511 0.26268-0.14854 0.50056-0.27364 0.71305-0.37115 0.18368-0.0847 0.3292-0.1474 0.53427-0.19843 0.33562-0.15987 0.6672-0.24793 1.0706-0.32201 0.49474-0.0911 1.0791-0.15534 1.7286-0.20826 1.2989-0.1062 2.8674-0.14853 4.4394-0.13946zm-7.2386 0.66984c-0.07597 0.0378-0.15232 0.0548-0.2298 0.10205l0.32013-0.12775c-0.03817 8e-3 -0.0582 0.0189-0.09033 0.0265zm28.487-0.66984h0.0019c1.5721 8e-3 3.1392 0.0665 4.4315 0.17688 0.64619 0.0552 1.2214 0.12586 1.707 0.20825 0.48559 0.0824 0.85731 0.14627 1.2552 0.34961 0.33978 0.17385 0.66001 0.4727 0.82306 0.85251 0.16328 0.37984 0.15383 0.7751 0.0745 1.1-0.15874 0.64981-0.53193 1.127-0.9645 1.6029-0.86521 0.95165-2.0555 1.8223-3.0663 2.3395-0.80028 0.40952-1.767 0.49482-3.0958 0.61486-1.3288 0.12019-2.9188 0.17537-4.5219 0.17877-1.6031 3e-3 -3.2108-0.0446-4.5651-0.1629-1.3543-0.1183-2.3736-0.23017-3.1861-0.62468-0.1217-0.0586-0.2298-0.14135-0.31824-0.2434-0.29594-0.34394-0.47966-0.80118-0.49107-1.2336-0.01134-0.43238 0.12359-0.82186 0.29632-1.1511 0.34583-0.65847 0.87708-1.158 1.4418-1.6166 0.5647-0.45861 1.1661-0.85402 1.6913-1.1511 0.26268-0.14854 0.50842-0.27364 0.72091-0.37115 0.18973-0.0873 0.32995-0.1527 0.54607-0.2041 0.33146-0.15571 0.65851-0.24302 1.0568-0.31634 0.49474-0.0911 1.0733-0.15534 1.7227-0.20826 1.2989-0.1062 2.8673-0.14853 4.4394-0.13946zm-7.2189 0.66394c-0.08013 0.0378-0.1595 0.0582-0.24189 0.1081l0.31257-0.12775c-0.02646 8e-3 -0.04498 0.0151-0.07068 0.0189zm28.475-0.66394c1.5721 8e-3 3.1412 0.0665 4.4335 0.17688 0.64615 0.0552 1.2214 0.12586 1.707 0.20825 0.48564 0.0824 0.84953 0.14627 1.2473 0.34961 0.33978 0.17385 0.66195 0.4727 0.82504 0.85251 0.16289 0.37984 0.15193 0.77514 0.0726 1.1-0.15874 0.64981-0.53189 1.127-0.96449 1.6029-0.86521 0.95165-2.0555 1.8223-3.0663 2.3395-0.80024 0.40952-1.7591 0.49482-3.0879 0.61486-1.3288 0.12019-2.9266 0.17537-4.5297 0.17877-1.603 3e-3 -3.2108-0.0446-4.5651-0.1629-1.3543-0.1183-2.3735-0.23017-3.1861-0.62468-0.1217-0.0586-0.22979-0.14135-0.31823-0.2434-0.29632-0.34394-0.47184-0.80118-0.48322-1.2336-0.0113-0.43238 0.11792-0.82186 0.29065-1.1511 0.34583-0.65843 0.87515-1.158 1.4399-1.6166 0.56469-0.45861 1.1739-0.85402 1.6991-1.1511 0.26268-0.14854 0.50056-0.27364 0.71305-0.37115 0.1833-0.0843 0.32806-0.1474 0.53234-0.19843 0.336-0.16025 0.66679-0.24793 1.0706-0.32201 0.49474-0.0911 1.0732-0.15534 1.7227-0.20826 1.2989-0.1062 2.8752-0.14853 4.4472-0.13946zm-7.2404 0.66984c-0.0756 0.0378-0.15042 0.0552-0.22753 0.10205l0.32013-0.12775c-0.0382 8e-3 -0.0597 0.0189-0.0922 0.0265zm28.489-0.66984c1.572 8e-3 3.1412 0.0665 4.4335 0.17688 0.64619 0.0552 1.2214 0.12586 1.707 0.20825 0.48556 0.0824 0.84953 0.14627 1.2473 0.34961 0.33978 0.17385 0.66002 0.47274 0.82307 0.85251 0.16252 0.3798 0.15383 0.77514 0.0745 1.1-0.15874 0.64981-0.53193 1.127-0.9645 1.6029-0.86521 0.95165-2.0554 1.8223-3.0663 2.3395-0.80028 0.40952-1.7591 0.49482-3.0879 0.61486-1.3288 0.12019-2.9267 0.17537-4.5297 0.17877-1.6031 3e-3 -3.2049-0.0446-4.5592-0.1629s-2.3795-0.23017-3.192-0.62468c-0.11867-0.0593-0.2245-0.14249-0.3103-0.2434-0.29631-0.34394-0.47965-0.80118-0.49107-1.2336-0.0113-0.43238 0.11792-0.82186 0.29065-1.1511 0.34582-0.65843 0.88301-1.158 1.4477-1.6166s1.1661-0.85402 1.6913-1.1511c0.26268-0.14854 0.50842-0.27364 0.72091-0.37115 0.18217-0.0839 0.32163-0.14589 0.52252-0.19654 0.33675-0.16101 0.66784-0.24982 1.0725-0.32428 0.49482-0.0911 1.0811-0.15534 1.7305-0.20825 1.2989-0.10621 2.8674-0.14854 4.4394-0.13947zm-7.2424 0.67181c-0.0748 0.0378-0.1493 0.0537-0.22564 0.10015l0.32012-0.12774c-0.0386 8e-3 -0.0609 0.0189-0.0941 0.0264zm28.49-0.67181c1.572 8e-3 3.1412 0.0665 4.4335 0.17688 0.64615 0.0552 1.2214 0.12586 1.707 0.20825 0.4856 0.0824 0.85739 0.14627 1.2552 0.34961 0.33978 0.17385 0.65998 0.4727 0.82306 0.85251 0.16252 0.37984 0.15383 0.77514 0.0745 1.1-0.15874 0.64981-0.53189 1.127-0.9645 1.6029-0.86513 0.95165-2.0555 1.8223-3.0663 2.3395-0.80028 0.40952-1.767 0.49482-3.0958 0.61486-1.3288 0.12019-2.9187 0.17537-4.5219 0.17877-1.6031 3e-3 -3.2107-0.0446-4.5651-0.1629s-2.3735-0.23017-3.1861-0.62468c-0.12171-0.0586-0.2298-0.14135-0.31824-0.2434-0.29669-0.34394-0.4718-0.80118-0.48321-1.2336-0.0113-0.43238 0.11603-0.82186 0.28875-1.1511 0.34583-0.65843 0.87716-1.158 1.4418-1.6166 0.56473-0.45861 1.1661-0.85402 1.6913-1.1511 0.26268-0.14854 0.50842-0.27364 0.72091-0.37115 0.18482-0.085 0.32882-0.1474 0.53627-0.19843 0.33487-0.15912 0.66414-0.24793 1.0666-0.32201 0.49474-0.0911 1.0733-0.15534 1.7228-0.20826 1.2989-0.1062 2.8673-0.14853 4.4393-0.13946zm-7.2287 0.66984c-0.0767 0.0378-0.15345 0.0544-0.23206 0.10205l0.31824-0.12775c-0.034 8e-3 -0.0556 0.0189-0.0862 0.0265zm28.485-0.66984c1.5721 8e-3 3.1392 0.0665 4.4315 0.17688 0.64615 0.0552 1.2233 0.12586 1.709 0.20825 0.48559 0.0824 0.84956 0.14627 1.2474 0.34961 0.33978 0.17385 0.65998 0.4727 0.82303 0.85251 0.1629 0.37984 0.15383 0.77514 0.0745 1.1-0.15874 0.64977-0.53189 1.127-0.96446 1.6029-0.86521 0.95165-2.0556 1.8223-3.0663 2.3395-0.80028 0.40948-1.761 0.49482-3.0899 0.61486-1.3288 0.12019-2.9247 0.17537-4.5278 0.17877-1.6031 3e-3 -3.2128-0.0446-4.567-0.1629-1.3544-0.1183-2.3716-0.23017-3.1842-0.62468-0.12171-0.0586-0.2298-0.14135-0.31824-0.2434-0.29594-0.34394-0.4718-0.80118-0.48318-1.2336-0.0113-0.43238 0.11604-0.82186 0.28876-1.1511 0.34621-0.65843 0.87704-1.158 1.4418-1.6166 0.56466-0.45861 1.1739-0.85402 1.6991-1.1511 0.26267-0.14854 0.50052-0.27364 0.713-0.37115 0.18482-0.085 0.32882-0.1474 0.53628-0.19843 0.33487-0.15912 0.66414-0.24793 1.0666-0.32201 0.49478-0.0911 1.0733-0.15534 1.7227-0.20826 1.299-0.1062 2.8752-0.14853 4.4473-0.13946zm-7.2366 0.66984c-0.0767 0.0378-0.15345 0.0544-0.23206 0.10205l0.31824-0.12775c-0.034 8e-3 -0.0556 0.0189-0.0862 0.0265zm28.485-0.66984c1.572 8e-3 3.1411 0.0665 4.4335 0.17688 0.64615 0.0552 1.2214 0.12586 1.707 0.20825 0.48559 0.0824 0.84952 0.14627 1.2474 0.34961 0.33978 0.17385 0.65995 0.4727 0.82303 0.85251 0.1629 0.37984 0.15383 0.77514 0.0745 1.1-0.15874 0.64981-0.52596 1.127-0.95856 1.6029-0.86521 0.95165-2.0536 1.8223-3.0643 2.3395-0.80028 0.40952-1.7689 0.49482-3.0978 0.61486-1.3288 0.12019-2.9168 0.17537-4.5199 0.17877-1.6031 3e-3 -3.2128-0.0446-4.5671-0.1629-1.3543-0.1183-2.3795-0.23017-3.192-0.62468-0.11981-0.0593-0.22563-0.14211-0.31256-0.2434-0.29632-0.34394-0.47774-0.80118-0.48911-1.2336-0.0113-0.43238 0.12359-0.82186 0.29669-1.1511 0.34583-0.65843 0.87519-1.158 1.4398-1.6166s1.168-0.85402 1.6932-1.1511c0.26268-0.14854 0.50838-0.27364 0.7209-0.37115 0.18407-0.0847 0.3224-0.1474 0.52642-0.19843 0.33562-0.15949 0.6655-0.24793 1.0686-0.32201 0.49478-0.0911 1.0811-0.15534 1.7306-0.20826 1.299-0.1062 2.8674-0.14853 4.4394-0.13946zm-7.2386 0.66984c-0.0764 0.0378-0.15194 0.0548-0.2298 0.10205l0.31824-0.12775c-0.0382 8e-3 -0.0567 0.0189-0.0884 0.0265zm-141.53 1.3043c-1.5275-8e-3 -3.0559 0.034-4.2684 0.13341-0.60631 0.0495-1.1368 0.11226-1.5302 0.18482-0.39349 0.0722-0.67654 0.19314-0.63054 0.16517-0.09827 0.0605-0.20674 0.1028-0.32013 0.12586 0.10318-0.0227-0.03817 0.0113-0.18482 0.0805-0.14854 0.0684-0.34432 0.17348-0.56576 0.29858-0.4422 0.25021-0.97361 0.59082-1.4241 0.95664-0.44708 0.36321-0.80655 0.76138-0.93502 1.0018 0.35716 0.10356 1.0374 0.27704 2.1156 0.37115 1.271 0.11112 2.8314 0.1663 4.3863 0.1629 1.5549-3e-3 3.112-0.0643 4.3588-0.17688 1.2469-0.11263 2.2907-0.36851 2.369-0.40861 0.74616-0.38177 1.8652-1.2026 2.5006-1.9014 0.22942-0.25247 0.2914-0.40335 0.3651-0.54218-0.11981-0.034-0.17197-0.0548-0.41647-0.0964-0.4026-0.0684-0.93441-0.13266-1.5439-0.18482-1.2192-0.10394-2.7488-0.16177-4.2763-0.17084zm21.248 0c-1.5276-8e-3 -3.0579 0.034-4.2704 0.13341-0.60631 0.0495-1.1348 0.11226-1.5283 0.18482-0.39326 0.0722-0.67064 0.19314-0.62464 0.16517-0.09789 0.0601-0.20561 0.1028-0.31824 0.12586 0.10356-0.0227-0.03817 0.0113-0.18671 0.0805-0.14854 0.0684-0.35036 0.17348-0.57162 0.29858-0.44224 0.25021-0.97364 0.59082-1.4241 0.95664-0.44708 0.36321-0.80066 0.76138-0.92912 1.0018 0.35943 0.10394 1.0406 0.27742 2.1156 0.37115 1.2711 0.11112 2.8334 0.1663 4.3883 0.1629 1.5548-3e-3 3.1041-0.0643 4.351-0.17688 1.2469-0.11263 2.2907-0.36851 2.369-0.40861 0.74619-0.38177 1.873-1.2026 2.5084-1.9014 0.22753-0.24983 0.28876-0.39477 0.36321-0.53431-0.1183-0.034-0.17272-0.0616-0.42236-0.10394-0.40256-0.0684-0.93434-0.13266-1.5439-0.18482-1.2192-0.10394-2.7488-0.16176-4.2763-0.17083zm21.256 0c-1.5275-8e-3 -3.0579 0.034-4.2705 0.13341-0.60624 0.0495-1.1348 0.11226-1.5282 0.18482-0.39352 0.0722-0.67854 0.19314-0.63254 0.16517-0.09789 0.0601-0.20561 0.1028-0.31824 0.12586 0.10356-0.0227-0.03817 0.0113-0.18671 0.0805-0.14854 0.0684-0.35036 0.17348-0.57162 0.29858-0.44224 0.25021-0.97364 0.59082-1.4241 0.95664-0.447 0.36321-0.80066 0.76138-0.92912 1.0018 0.35716 0.10356 1.0395 0.27704 2.1175 0.37115 1.271 0.11112 2.8315 0.1663 4.3864 0.1629 1.5549-3e-3 3.1041-0.0643 4.351-0.17688 1.2469-0.11263 2.2966-0.36851 2.3749-0.40861 0.74623-0.38177 1.8672-1.2026 2.5026-1.9014 0.22904-0.25247 0.28951-0.40335 0.36321-0.54218-0.11943-0.034-0.16743-0.0544-0.41446-0.0964-0.40259-0.0684-0.93441-0.13266-1.544-0.18482-1.2192-0.10394-2.7487-0.16177-4.2763-0.17084zm21.246 0c-1.5275-8e-3 -3.0559 0.034-4.2685 0.13341-0.60627 0.0495-1.1348 0.11226-1.5282 0.18482-0.39349 0.0722-0.6785 0.19314-0.63251 0.16517-0.0979 0.0601-0.2056 0.1028-0.31823 0.12586 0.10356-0.0227-0.0382 0.0113-0.18671 0.0805-0.14854 0.0684-0.34243 0.17348-0.56376 0.29858-0.4422 0.25021-0.97368 0.59082-1.4241 0.95664-0.44705 0.36321-0.80066 0.76138-0.92913 1.0018 0.35982 0.10394 1.0333 0.27742 2.1077 0.37115 1.271 0.11112 2.8413 0.1663 4.3962 0.1629 1.5549-3e-3 3.104-0.0643 4.351-0.17688 1.2468-0.11263 2.2887-0.36851 2.367-0.40861 0.74623-0.38177 1.8672-1.2026 2.5025-1.9014 0.22942-0.25247 0.28951-0.40332 0.36321-0.54218-0.11981-0.034-0.1697-0.0548-0.4145-0.0964-0.40255-0.0684-0.93437-0.13266-1.544-0.18482-1.2192-0.10394-2.7487-0.16177-4.2763-0.17084zm21.25 0c-1.5276-8e-3 -3.0579 0.034-4.2704 0.13341-0.60631 0.0495-1.1348 0.11226-1.5282 0.18482-0.39326 0.0722-0.67064 0.19314-0.62465 0.16517-0.0979 0.0601-0.2056 0.1028-0.31823 0.12586 0.10356-0.0227-0.0382 0.0113-0.18671 0.0805-0.14854 0.0684-0.35036 0.17348-0.57162 0.29858-0.44224 0.25021-0.97364 0.59082-1.4241 0.95664-0.44704 0.36321-0.80066 0.76138-0.92912 1.0018 0.35905 0.10394 1.0406 0.27742 2.1156 0.37115 1.271 0.11112 2.8334 0.1663 4.3883 0.1629 1.5549-3e-3 3.1041-0.0643 4.351-0.17688 1.2469-0.11263 2.2887-0.36851 2.367-0.40861 0.74619-0.38177 1.8751-1.2026 2.5104-1.9014 0.22942-0.25247 0.28952-0.40335 0.3636-0.54218-0.11944-0.034-0.16971-0.0544-0.41643-0.0964-0.40256-0.0684-0.94024-0.13266-1.5498-0.18482-1.2192-0.10394-2.7488-0.16177-4.2763-0.17084zm21.254 0c-1.5275-8e-3 -3.0559 0.034-4.2685 0.13341-0.60627 0.0495-1.1348 0.11226-1.5282 0.18482-0.39349 0.0722-0.67854 0.19314-0.63255 0.16517-0.0979 0.0601-0.2056 0.1028-0.31823 0.12586 0.10356-0.0227-0.0382 0.0113-0.18671 0.0805-0.14854 0.0684-0.35036 0.17348-0.57162 0.29858-0.44228 0.25021-0.96771 0.59082-1.4182 0.95664-0.44704 0.36321-0.80662 0.76138-0.93505 1.0018 0.35716 0.10356 1.0375 0.27704 2.1156 0.37115 1.271 0.11112 2.8334 0.1663 4.3883 0.1629 1.5549-3e-3 3.1119-0.0643 4.3588-0.17688 1.2469-0.11263 2.2887-0.36851 2.367-0.40861 0.74619-0.38177 1.8672-1.2026 2.5026-1.9014 0.22904-0.25247 0.28951-0.40335 0.36322-0.54218-0.11982-0.034-0.16933-0.0548-0.41443-0.0964-0.40256-0.0684-0.9363-0.13266-1.5459-0.18482-1.2191-0.10394-2.7488-0.16177-4.2763-0.17084zm21.248 0c-1.5275-8e-3 -3.0559 0.034-4.2685 0.13341-0.60624 0.0495-1.1368 0.11226-1.5302 0.18482-0.39352 0.0722-0.67657 0.19314-0.63054 0.16517-0.096 0.0593-0.20182 0.10204-0.31256 0.12586 0.10318-0.0227-0.0438 0.0113-0.19238 0.0805-0.14854 0.0684-0.34243 0.17348-0.56376 0.29858-0.4422 0.25021-0.97561 0.59082-1.4261 0.95664-0.447 0.36321-0.79865 0.76138-0.92711 1.0018 0.35981 0.10394 1.0332 0.27742 2.1077 0.37115 1.271 0.11112 2.8413 0.1663 4.3962 0.1629 1.5549-3e-3 3.1021-0.0643 4.349-0.17688 1.2469-0.11263 2.2907-0.36851 2.369-0.40861 0.74616-0.38177 1.8672-1.2026 2.5026-1.9014 0.22753-0.25058 0.29745-0.39489 0.37153-0.53431-0.1183-0.034-0.17462-0.0616-0.42429-0.10394-0.4026-0.0684-0.93438-0.13266-1.544-0.18482-1.2192-0.10394-2.7488-0.16176-4.2763-0.17083zm21.248 0c-1.5275-8e-3 -3.0558 0.034-4.2684 0.13341-0.60631 0.0495-1.129 0.11226-1.5224 0.18482-0.39345 0.0722-0.67654 0.19314-0.63054 0.16517-0.0983 0.0605-0.20674 0.1028-0.32013 0.12586 0.10318-0.0227-0.0382 0.0113-0.18482 0.0805-0.14853 0.0684-0.35036 0.17348-0.57161 0.29858-0.44225 0.25021-0.97569 0.59082-1.4261 0.95664-0.44708 0.36321-0.79872 0.76138-0.92719 1.0018 0.35717 0.10356 1.0375 0.27704 2.1156 0.37115 1.271 0.11112 2.8334 0.1663 4.3883 0.1629 1.5549-3e-3 3.1041-0.0643 4.351-0.17688 1.2469-0.11263 2.2887-0.36851 2.367-0.40861 0.74615-0.38177 1.875-1.2026 2.5104-1.9014 0.22941-0.25247 0.28951-0.40332 0.36321-0.54218-0.11943-0.034-0.16895-0.0544-0.41643-0.0964-0.40256-0.0684-0.93437-0.13266-1.5439-0.18482-1.2192-0.10394-2.7566-0.16177-4.2842-0.17084zm-52.434 3.1154c8.4e-4 8e-3 4e-3 0.0189 4e-3 0.0189 0 1.9e-4 4e-3 -0.0113 8e-3 -0.0151-3e-3 -1e-3 -0.0113-8e-3 -0.0113-8e-3zm0.0151 2e-3 -4e-3 2e-3c3e-3 1e-3 -1.5e-4 -4e-3 0.0113 8e-3zm-89.768 5.1386c1.5721 8e-3 3.1392 0.0745 4.4315 0.18482 0.64619 0.0552 1.2233 0.11792 1.7089 0.20032 0.48563 0.0824 0.84956 0.1542 1.2474 0.35754 0.33978 0.17386 0.65998 0.46681 0.82307 0.84661 0.16252 0.37981 0.15383 0.78104 0.07446 1.1059-0.15874 0.64978-0.53186 1.1271-0.9645 1.6029-0.86517 0.95169-2.0555 1.8145-3.0663 2.3317-0.80024 0.40947-1.7611 0.49674-3.0899 0.61678-1.3288 0.12019-2.9247 0.18142-4.5278 0.18482-1.6031 3e-3 -3.2127-0.0525-4.5671-0.17084-1.3543-0.1183-2.3716-0.2279-3.1842-0.62267-0.12246-0.059-0.23168-0.14249-0.32013-0.24567-0.29632-0.34394-0.46983-0.80119-0.48125-1.2336-0.01134-0.43238 0.11603-0.814 0.28876-1.1432 0.34583-0.65844 0.87511-1.1659 1.4398-1.6245 0.56474-0.45861 1.1759-0.84616 1.7011-1.1432 0.26268-0.14854 0.50056-0.27364 0.71304-0.37115 0.10356-0.0476 0.21241-0.068 0.30463-0.10432 0.41964-0.25587 0.80364-0.32542 1.2984-0.41643 0.4947-0.0911 1.0732-0.16101 1.7227-0.21392 1.2989-0.1062 2.8752-0.15042 4.4472-0.14135zm100.84 0c1.572 8e-3 3.1391 0.0745 4.4315 0.18482 0.64619 0.0552 1.2214 0.11792 1.707 0.20032 0.48556 0.0824 0.84953 0.1542 1.2473 0.35754 0.33978 0.17386 0.66191 0.46681 0.825 0.84661 0.16252 0.37981 0.15193 0.78104 0.0726 1.1059-0.15874 0.64978-0.53189 1.1271-0.96446 1.6029-0.8652 0.95169-2.0556 1.8145-3.0663 2.3317-0.80027 0.40947-1.7591 0.49674-3.0879 0.61678-1.3289 0.12019-2.9266 0.18142-4.5297 0.18482-1.603 3e-3 -3.2108-0.0525-4.5651-0.17084-1.3543-0.1183-2.3716-0.2279-3.1842-0.62267-0.12246-0.059-0.23169-0.14249-0.32013-0.24567-0.29594-0.34394-0.47184-0.80119-0.48318-1.2336-0.0113-0.43238 0.11793-0.814 0.29065-1.1432 0.34583-0.65844 0.87511-1.1659 1.4399-1.6245 0.5647-0.45861 1.1739-0.84616 1.6991-1.1432 0.26268-0.14854 0.50052-0.27364 0.71301-0.37115 0.10356-0.0476 0.21241-0.068 0.30463-0.10432 0.41968-0.25587 0.80564-0.32542 1.3004-0.41643 0.49478-0.0911 1.0733-0.16101 1.7227-0.21392 1.2989-0.1062 2.8752-0.15042 4.4473-0.14135zm-77.235 8e-3h0.0076c1.3713 8e-3 2.6806 0.0699 3.852 0.15723 2.4274-0.20296 5.7442-0.18368 8.2973-2e-3 1.662-0.13645 3.6816-0.14325 5.6592-0.10205h0.059c2.1648-0.0839 4.6018-0.0382 6.5942 0.10431 2.4306-0.20334 5.7511-0.18255 8.3071 0 2.4305-0.20334 5.7532-0.18255 8.3091 0 2.4285-0.20296 5.7529-0.18368 8.3071-2e-3 -0.0427 4e-3 -0.0918 8e-3 -0.13342 0.0113l0.15496-8e-3c-8e-3 -4.6e-4 -0.0113-1e-3 -0.0189-2e-3 1.9239-0.16101 4.4453-0.18746 6.6866-0.10205 1.1459 0.0435 2.2137 0.11452 3.0879 0.21619 0.87428 0.10167 1.4725 0.15761 2.0783 0.46749 0.33978 0.17386 0.66195 0.46708 0.825 0.84666 0.1629 0.37957 0.15345 0.78092 0.0745 1.1059-0.15837 0.64992-0.5263 1.1269-0.95861 1.6029-0.86453 0.95207-2.0553 1.8143-3.0663 2.3317-0.59108 0.30274-1.2391 0.40044-2.1077 0.51265-0.86861 0.11226-1.9053 0.19125-3.029 0.23774-2.1962 0.0911-4.6809 0.0522-6.6905-0.10432-2.5087 0.19691-5.7694 0.19691-8.3071 0-2.5087 0.19691-5.7692 0.19691-8.3071 0-2.5558 0.20069-5.9075 0.20863-8.4642 0-1.8373 0.13947-4.042 0.19162-6.0953 0.12586-2.0431 0.0642-4.2323 0.0151-6.058-0.12586-2.5551 0.20069-5.9085 0.2075-8.4643 0-1.9746 0.14816-4.3985 0.19011-6.5628 0.10432-1.1079-0.0438-2.1371-0.11981-3.0073-0.23169-0.87031-0.11225-1.5398-0.21846-2.1293-0.50483-0.12246-0.0582-0.23093-0.14135-0.32013-0.2434-0.29632-0.34394-0.46987-0.80115-0.48121-1.2336-0.01134-0.43238 0.11792-0.82178 0.29064-1.1511 0.34583-0.65858 0.87504-1.1579 1.4398-1.6166 0.56478-0.45876 1.1758-0.85391 1.7011-1.1511 0.26268-0.14854 0.50056-0.27326 0.71308-0.37115 0.18482-0.085 0.32844-0.14741 0.53624-0.19843 0.33411-0.15836 0.66463-0.24794 1.0666-0.32202 0.49478-0.0911 1.073-0.161 1.7227-0.21392 1.2951-0.10545 2.8637-0.14778 4.4315-0.13568zm-7.2208 0.67181c-0.0771 0.0378-0.15496 0.0541-0.23395 0.10205l0.32013-0.12775c-0.03402 8e-3 -0.05556 0.0189-0.08617 0.0265zm19.378-0.51662c-0.04384 4e-3 -0.09184 8e-3 -0.13531 0.0113l0.15496-8e-3c-0.0076-4.5e-4 -0.01512-1e-3 -0.0189-2e-3zm-35.774 1.8131c-1.5276-8e-3 -3.0559 0.034-4.2685 0.13341-0.60627 0.0495-1.1368 0.11415-1.5302 0.18671-0.39345 0.0722-0.67654 0.19918-0.63054 0.17084-0.09638 0.0567-0.2022 0.0968-0.31257 0.11792 0.10318-0.0227-0.04347 0.0151-0.19238 0.0824-0.14854 0.0684-0.34242 0.17159-0.56379 0.2967-0.44224 0.2502-0.97561 0.59863-1.4261 0.96446-0.44704 0.36321-0.79869 0.76142-0.92716 1.0018 0.36019 0.10393 1.0334 0.27137 2.1077 0.36548 1.2711 0.11112 2.8412 0.1663 4.3962 0.16289 1.5549-3e-3 3.1021-0.0661 4.349-0.17877 1.2469-0.11263 2.2906-0.3685 2.369-0.40856 0.74612-0.38174 1.8672-1.2006 2.5026-1.8995 0.22904-0.25209 0.29745-0.39734 0.37153-0.53624-0.11868-0.034-0.17499-0.0541-0.42429-0.0964-0.4026-0.0684-0.93438-0.13266-1.544-0.18481-1.2192-0.10394-2.7488-0.16971-4.2763-0.17878zm100.84 0c-1.5275-8e-3 -3.0559 0.034-4.2684 0.13341-0.60628 0.0495-1.1368 0.11415-1.5302 0.18671-0.39349 0.0722-0.67654 0.19918-0.63054 0.17084-0.0994 0.0575-0.2075 0.0975-0.32013 0.11792 0.10356-0.0227-0.0382 0.0151-0.18482 0.0824-0.14853 0.0684-0.34431 0.17159-0.56571 0.2967-0.44221 0.2502-0.97365 0.59863-1.4241 0.96446-0.44708 0.36321-0.80655 0.76142-0.93502 1.0018 0.35717 0.10356 1.0376 0.27099 2.1156 0.36548 1.271 0.11112 2.8314 0.1663 4.3863 0.16289 1.5549-3e-3 3.1119-0.0661 4.3588-0.17877 1.2469-0.11263 2.2907-0.3685 2.369-0.40856 0.74612-0.38174 1.8652-1.2006 2.5006-1.8995 0.22866-0.25172 0.2914-0.39719 0.36548-0.53624-0.11981-0.034-0.17121-0.0548-0.41643-0.0964-0.40259-0.0684-0.93437-0.13266-1.544-0.18481-1.2192-0.10394-2.7488-0.16971-4.2764-0.17878zm-77.221 8e-3c-1.5257-0.0113-3.0548 0.034-4.2665 0.13341-0.60612 0.0495-1.1348 0.11226-1.5283 0.18482-0.39349 0.0726-0.67812 0.19087-0.6325 0.1629-0.09789 0.0608-0.20561 0.10394-0.31824 0.12775 0.10394-0.0189-0.03817 0.0113-0.18671 0.0805-0.14854 0.0684-0.34242 0.16555-0.56376 0.29065-0.44232 0.2502-0.97361 0.59849-1.4241 0.96446-0.45052 0.36586-0.81668 0.76974-0.94288 1.0097-2e-3 4e-3 2e-3 3e-3 0 8e-3 0.25928 0.0763 0.55695 0.16932 1.1491 0.24567 0.78346 0.10091 1.7699 0.17953 2.8365 0.22186 2.1332 0.0847 4.5951 0.0446 6.4881-0.10432 0.05253-4e-3 0.10469-4e-3 0.15685 0 2.4103 0.19578 5.7311 0.19011 8.1519 0 0.05178-4e-3 0.10356-4e-3 0.15496 0 1.7479 0.14249 3.9632 0.18142 5.9892 0.11792 0.0227-7.9e-4 0.0461-7.9e-4 0.0688 0 2.047 0.0677 4.3041 0.0227 6.0875-0.11792 0.0518-4e-3 0.10356-4e-3 0.15496 0 2.4102 0.19692 5.7297 0.19011 8.1519 0 0.0518-4e-3 0.10356-4e-3 0.15497 0 2.4098 0.19654 5.7377 0.19011 8.1598 0 0.0518-4e-3 0.10356-4e-3 0.15496 0 2.4099 0.19692 5.7296 0.19011 8.152 0 0.0518-4e-3 0.10319-4e-3 0.15496 0 1.9171 0.15647 4.4343 0.18595 6.6001 0.0964 1.0829-0.045 2.0754-0.12094 2.8581-0.22186 0.7827-0.10091 1.4056-0.27515 1.4634-0.30463 0.746-0.38177 1.8679-1.2104 2.5025-1.9093 0.22223-0.24529 0.27931-0.37795 0.35527-0.51859-0.16554-0.0401-0.49757-0.14098-1.1432-0.21619-0.79684-0.0926-1.8237-0.16592-2.9328-0.20825-2.218-0.0847-4.7785-0.0548-6.5785 0.10393-0.0514 8e-3 -0.10319 8e-3 -0.15496 8e-3 -2.4915-0.17877-5.8872-0.20749-8.152-8e-3 -0.054 8e-3 -0.10885 0.0113-0.16328 8e-3 -2.4916-0.17877-5.8793-0.20749-8.144-8e-3 -0.054 8e-3 -0.10885 0.0113-0.1629 8e-3 -2.4918-0.17877-5.8872-0.20749-8.1519-8e-3 -0.0522 8e-3 -0.10507 8e-3 -0.15685 8e-3 -1.9304-0.13795-4.3505-0.18784-6.4429-0.10393-0.0189 6e-4 -0.0408 6e-4 -0.0608 0-2.0173-0.0427-4.0774-0.034-5.6415 0.10393-0.05442 4e-3 -0.10885 4e-3 -0.1629 0-2.4915-0.17877-5.8805-0.20749-8.1441-8e-3 -0.0548 8e-3 -0.10998 0.0113-0.16479 8e-3 -1.1359-0.0847-2.4009-0.1474-3.7244-0.15533zm20.761 7.3642c5.6587 0.0435 11.328 0.33448 15.968 0.84661 2.3202 0.25587 4.3808 0.56519 6.0737 0.93502 1.6928 0.36964 2.9961 0.75689 3.9561 1.3731 1.7791 1.1419 2.421 3.1656 2.1686 5.123-0.25247 1.9574-1.2156 3.9923-2.5163 6.0285-2.6015 4.0724-6.6009 8.0958-9.8373 10.342-2.007 1.3932-5.586 2.0705-10.289 2.6282-4.7032 0.55775-10.43 0.84722-16.194 0.86234-5.7642 0.0151-11.557-0.24567-16.414-0.79555-4.8567-0.54977-8.6978-1.2917-10.935-2.6577-0.13342-0.0805-0.24983-0.18671-0.34167-0.31219-1.5517-2.157-1.5702-4.741-0.75825-7.0971 0.81188-2.3561 2.3904-4.6096 4.1801-6.6296 1.7897-2.0199 3.7998-3.8022 5.5315-5.1367 0.86589-0.66728 1.6565-1.2224 2.3317-1.6422 0.58919-0.36624 1.035-0.61894 1.5223-0.7818 0.914-0.67479 2.1191-1.0928 3.6595-1.4674 1.6662-0.40513 3.7021-0.71871 5.9991-0.96446 4.594-0.49153 10.237-0.69755 15.895-0.65412zm-25.554 3.0859c-0.07446 0.0552-0.16101 0.10016-0.23168 0.15912l0.44591-0.22979c-0.07332 0.0189-0.14287 0.0469-0.21392 0.0707zm25.538-0.74147c-5.5898-0.0427-11.169 0.16328-15.628 0.64041-2.2297 0.23848-4.1842 0.54417-5.6946 0.91143-1.5104 0.36737-2.5895 0.8536-2.9464 1.1511-0.13039 0.10772-0.28233 0.18633-0.44595 0.2298-0.01134 3e-3 -0.51761 0.22148-1.1059 0.58734-0.58836 0.36585-1.3262 0.88013-2.1391 1.5066-1.626 1.253-3.5471 2.9558-5.2114 4.8342-1.6643 1.8784-3.0609 3.9431-3.7126 5.834-0.62033 1.8003-0.49383 3.3053 0.42429 4.7222 1.5399 0.85316 5.0718 1.7308 9.6507 2.2492 4.7303 0.53549 10.465 0.79472 16.155 0.77983 5.6895-0.0151 11.343-0.30387 15.919-0.84661 4.5755-0.54259 8.1734-1.4874 9.2284-2.2197 2.8874-2.0042 6.813-5.9484 9.197-9.6802 1.192-1.8659 1.9903-3.6905 2.1686-5.0719 0.1784-1.3814-0.076-2.1765-1.1138-2.8424-0.44825-0.28762-1.6133-0.71168-3.1841-1.0549-1.5708-0.34318-3.5714-0.64777-5.836-0.89767-4.5292-0.49977-10.135-0.79-15.724-0.8329z" fill="#71a7cf" fill-opacity=".99608" fill-rule="evenodd" style="paint-order:normal"/>
</svg>
