<?xml version="1.0" encoding="UTF-8"?>
<svg version="1.1" width="256" height="147" viewBox="0 0 256 146.78" xmlns="http://www.w3.org/2000/svg" xmlns:cc="http://creativecommons.org/ns#" xmlns:dc="http://purl.org/dc/elements/1.1/" xmlns:rdf="http://www.w3.org/1999/02/22-rdf-syntax-ns#">
<metadata>
<rdf:RDF>
<cc:Work rdf:about="">
<dc:format>image/svg+xml</dc:format>
<dc:type rdf:resource="http://purl.org/dc/dcmitype/StillImage"/>
</cc:Work>
</rdf:RDF>
</metadata>
<path d="m140.85 0.011178c-46.01-0.13909-90.583 1.0296-134.32 2.9569-11.342 57.264-5.6239 99.013 0 140.85 77.755 3.4262 158.15 4.4528 244.57 0 4.9818-46.95 7.917-93.899 0-140.85-37.809-1.9481-74.462-2.8485-110.25-2.9569zm66.801 18.527c5.8885 0.06728 11.775 1.762 17.664 2.7751 0.0718-0.5178 0.14362-1.0354 0.20031-1.5533 0.3326 0.5831 0.62816 1.1611 0.92259 1.7378 0.84094 0.13077 1.6826 0.24945 2.5236 0.3394-0.63005 0.35792-1.2544 0.68538-1.8765 0.99987 4.7728 10.282 3.6756 19.648-1.0534 29.903 0.97625 0.15836 1.9533 0.30425 2.9299 0.40925-11.899 6.7638-22.38 5.6641-34.098 0 0.44259-0.26381 0.88404-0.47856 1.3262-0.70583-5.0585-9.9431-1.2435-19.888 0.35528-29.831-0.55824-0.25096-1.118-0.5029-1.6815-0.77533 0.64706-0.38593 1.2937-0.7203 1.9408-1.0293 0.0454-0.34923 0.0983-0.69861 0.13606-1.048 0.15119 0.26835 0.27969 0.53246 0.42558 0.79937 3.428-1.5251 6.8568-2.0603 10.285-2.0212zm-8.7931 5.0583c4.2108 9.613 3.3033 18.456-0.88744 28.027 8.9492-3.6754 17.898-0.67873 26.847 0.91703-4.9209-9.5629-1.6002-19.127 0.0983-28.69-8.9412 3.8525-17.225 3.2671-26.059-0.25398zm-103.4 29.553c19.936 0.08126 39.871 2.5379 59.807 3.2991-33.395 6.7638-62.805 5.6641-95.691 0 11.961-2.5415 23.923-3.3478 35.884-3.2991zm-4.9485 17.6c17.186 0.08126 34.37 2.5379 51.556 3.2991-28.789 6.7638-54.141 5.6641-82.492 0 10.312-2.5415 20.624-3.3478 30.935-3.2991zm4.9485 17.597c19.936 0.08126 39.871 2.5379 59.807 3.2991-33.395 6.7638-62.805 5.6641-95.691 0 11.961-2.5415 23.923-3.3478 35.884-3.2991zm-11.961 16.498c13.29 0.0813 26.582 2.538 39.873 3.2992-22.263 6.7638-41.871 5.6641-63.795 0 7.9744-2.5415 15.948-3.3478 23.923-3.2992z" fill="#71a7cf" fill-opacity=".99608" fill-rule="evenodd" style="paint-order:normal"/>
</svg>
