<?xml version="1.0" encoding="UTF-8"?>
<svg version="1.1" width="256" height="247" viewBox="0 0 256 248.76" xmlns="http://www.w3.org/2000/svg" xmlns:cc="http://creativecommons.org/ns#" xmlns:dc="http://purl.org/dc/elements/1.1/" xmlns:rdf="http://www.w3.org/1999/02/22-rdf-syntax-ns#">
<metadata>
<rdf:RDF>
<cc:Work rdf:about="">
<dc:format>image/svg+xml</dc:format>
<dc:type rdf:resource="http://purl.org/dc/dcmitype/StillImage"/>
</cc:Work>
</rdf:RDF>
</metadata>
<path d="m128 0c-31.07 24.482-82.47 68.247-114.84 104.67 41.615-1.7562 84.001-2.8139 127.69-2.6815 33.394 0.10129 67.558 0.90497 102.7 2.5933-27.381-37.886-78.1-74.777-115.55-104.58zm115.55 104.58c1.0432 1.4431 2.064 2.8854 3.0372 4.3311-16.083 23.493-45.875 50.381-72.768 71.648l65.531 61.266-76.417-52.73c-13.281 10.383-18.917 12.793-34.935 25.922-16.018-13.129-21.654-15.54-34.935-25.922l-76.417 52.73 65.531-61.266c-26.893-21.267-56.685-48.155-72.768-71.648 1.2004-1.3944 2.4903-2.8244 3.7512-4.2428-2.208 0.093-4.4239 0.17839-6.6278 0.27552-11.342 57.264-5.6243 99.013 0 140.85 77.755 3.4262 158.15 4.4528 244.57 0 4.9818-46.95 7.917-93.899 0-140.85-2.5262-0.13001-5.034-0.24264-7.55-0.36359zm-219.85 8.3574c22.56 31.164 66.551 62.329 102.29 93.493 38.694-30.538 81.764-60.202 106.69-93.493z" fill="#71a7cf" fill-opacity=".99608" fill-rule="evenodd" style="paint-order:normal"/>
</svg>
