<?xml version="1.0" encoding="UTF-8"?>
<svg version="1.1" viewBox="0 0 205.89 256" xmlns="http://www.w3.org/2000/svg" xmlns:cc="http://creativecommons.org/ns#" xmlns:dc="http://purl.org/dc/elements/1.1/" xmlns:rdf="http://www.w3.org/1999/02/22-rdf-syntax-ns#">
<metadata>
<rdf:RDF>
<cc:Work rdf:about="">
<dc:format>image/svg+xml</dc:format>
<dc:type rdf:resource="http://purl.org/dc/dcmitype/StillImage"/>
</cc:Work>
</rdf:RDF>
</metadata>
<path d="m103.01 7.5591e-5c-39.516 0-71.329 32.037-71.329 71.831v47.287h29.778v-0.18708-40.273c0-2.9097 0.28724-5.747 0.83906-8.4871 0.55181-2.7401 1.3678-5.3845 2.4166-7.8994 1.0488-2.5153 2.3323-4.9034 3.823-7.1381 1.4914-2.2344 3.1884-4.3161 5.0665-6.2148 1.8773-1.8987 3.9326-3.6136 6.1429-5.1207 2.2103-1.5069 4.5747-2.8022 7.062-3.8627 2.4877-1.0608 5.0997-1.8862 7.81-2.4437 2.7099-0.55854 5.5185-0.85036 8.3962-0.85036 2.8777 0 5.6859 0.2914 8.3962 0.85036 2.7103 0.55854 5.322 1.3838 7.8096 2.4437 2.4873 1.061 4.8495 2.3554 7.0594 3.8627 2.2099 1.5069 4.2682 3.2222 6.1459 5.1207 1.8777 1.8987 3.5758 3.9804 5.0665 6.2148 1.4914 2.2346 2.7742 4.6227 3.823 7.1381 1.0492 2.5149 1.8652 5.1593 2.4166 7.8994 0.55144 2.7401 0.83906 5.5774 0.83906 8.4871v40.46h29.768v-47.287c0-39.794-31.813-71.831-71.329-71.831zm-73.387 121.87c-16.338 0-29.491 13.354-29.491 29.941v87.676c-5.9853 21.815 190.5 22.232 205.76 0v-87.676c0-16.587-13.153-29.941-29.492-29.941z" fill="#71a7cf" fill-rule="evenodd" style="paint-order:normal"/>
</svg>
