<?xml version="1.0" encoding="UTF-8"?>
<svg version="1.1" viewBox="0 0 256 256" xmlns="http://www.w3.org/2000/svg" xmlns:cc="http://creativecommons.org/ns#" xmlns:dc="http://purl.org/dc/elements/1.1/" xmlns:rdf="http://www.w3.org/1999/02/22-rdf-syntax-ns#">
<metadata>
<rdf:RDF>
<cc:Work rdf:about="">
<dc:format>image/svg+xml</dc:format>
<dc:type rdf:resource="http://purl.org/dc/dcmitype/StillImage"/>
</cc:Work>
</rdf:RDF>
</metadata>
<path d="m129.77 0.0039692c-48.254-0.19276-96.887 6.6324-111.83 21.051-29.878 28.837-18.288 188.18 4.5479 215.83 22.835 27.652 189.45 23.217 212.28 0 22.835-23.217 31.395-188.54 4.5494-215.83-13.424-13.648-61.299-20.858-109.55-21.051zm-3.3974 23.742c21.803 0 39.356 17.677 39.356 39.634v26.09h-16.425v-22.325c0-1.6055-0.15874-3.1692-0.46224-4.6812-0.30236-1.5116-0.75401-2.9726-1.3327-4.3601-0.57902-1.3878-1.2873-2.704-2.1105-3.937-0.82204-1.2328-1.759-2.3815-2.795-3.4291-1.036-1.0476-2.1702-1.9934-3.3899-2.8249-1.2193-0.83153-2.5236-1.5464-3.8956-2.1318-1.3727-0.58473-2.8139-1.0402-4.309-1.3484-1.4956-0.30841-3.044-0.46847-4.6318-0.46847-1.5878 0-3.1385 0.16063-4.6341 0.46847-1.4948 0.30765-2.9363 0.76312-4.309 1.3484-1.372 0.58511-2.6759 1.3005-3.8956 2.1318-1.2193 0.83172-2.3535 1.7772-3.3895 2.8249-1.036 1.0476-1.9722 2.1962-2.7953 3.4291-0.82243 1.233-1.5315 2.5492-2.1105 3.937-0.57864 1.3875-1.028 2.8485-1.3323 4.3601-0.30236 1.512-0.46299 3.0757-0.46299 4.6812v22.222 0.1028h-16.431v-26.09c0-21.956 17.553-39.634 39.356-39.634zm-40.492 67.24h80.982c9.0149 0 16.273 7.3679 16.273 16.52v48.376c-3.481 5.0736-24.074 8.0037-46.789 8.8504l2.5319 6.7184 0.27968 8.3956c11.203 4.0336 18.494 13.445 18.496 23.874-3.8e-4 14.3-13.505 25.89-30.161 25.89-16.656-1.2e-4 -30.159-11.59-30.159-25.89 0-10.42 7.3009-19.819 18.494-23.85v-14.937c-25.342-0.44435-47.751-3.4804-46.222-9.0512v-48.376c0-9.1516 7.2567-16.52 16.272-16.52zm41.122 73.98c-1.1384 0.0113-2.2764 0.0151-3.4137 0.0189v4.7186h3.4137zm0.49399 40.746c-3.4564 3.1e-4 -6.2574 3.0557-6.2578 6.8267 3.7e-4 3.771 2.8014 6.8284 6.2578 6.8287 3.4575 3.4e-4 6.26-3.0574 6.26-6.8287 0-3.7714-2.8025-6.827-6.26-6.8267z" fill="#72a7cf" fill-opacity=".99608" fill-rule="evenodd" style="paint-order:normal"/>
</svg>
