<?xml version="1.0" encoding="UTF-8"?>
<svg version="1.1" viewBox="0 0 256 256" xmlns="http://www.w3.org/2000/svg" xmlns:cc="http://creativecommons.org/ns#" xmlns:dc="http://purl.org/dc/elements/1.1/" xmlns:rdf="http://www.w3.org/1999/02/22-rdf-syntax-ns#">
<metadata>
<rdf:RDF>
<cc:Work rdf:about="">
<dc:format>image/svg+xml</dc:format>
<dc:type rdf:resource="http://purl.org/dc/dcmitype/StillImage"/>
</cc:Work>
</rdf:RDF>
</metadata>
<path d="m129.77 0.0039704c-48.254-0.19276-96.886 6.6303-111.83 21.049-29.879 28.837-18.286 188.18 4.549 215.84 22.836 27.652 189.45 23.217 212.28 0 22.836-23.217 31.395-188.54 4.549-215.84-13.423-13.648-61.298-20.856-109.55-21.049zm-0.0983 7.0274c45.605 0.18217 90.852 6.9969 103.54 19.896 25.373 25.797 17.282 182.04-4.2992 203.98-21.582 21.942-179.04 26.134-200.63 0-21.581-26.134-32.538-176.73-4.2992-203.98 14.12-13.627 60.082-20.078 105.69-19.896zm-1.6358 15.051c-21.803 0-39.356 17.677-39.356 39.634v26.09h16.431v-0.10243-22.222c0-1.6055 0.15496-3.1692 0.46224-4.6812 0.30236-1.5117 0.75439-2.9726 1.333-4.3601 0.57864-1.3878 1.2873-2.704 2.1097-3.937 0.82356-1.2328 1.759-2.3815 2.795-3.4291 1.0367-1.0477 2.171-1.9933 3.3902-2.8249 1.2197-0.83131 2.5232-1.5468 3.8956-2.1318 1.3727-0.58526 2.8135-1.0408 4.3094-1.3484 1.4948-0.30803 3.0459-0.46847 4.6333-0.46847 1.5882 0 3.137 0.16025 4.6318 0.46847 1.4959 0.30803 2.9367 0.76362 4.3094 1.3484 1.3724 0.58537 2.6763 1.3003 3.8956 2.1318 1.2193 0.8315 2.3531 1.7773 3.3899 2.8249 1.036 1.0475 1.9725 2.1962 2.795 3.4291 0.82318 1.233 1.5315 2.5492 2.1101 3.937 0.57865 1.3875 1.0288 2.8484 1.3327 4.3601 0.30236 1.5119 0.46262 3.0756 0.46262 4.6812v22.325h16.425v-26.09c0-21.956-17.553-39.634-39.356-39.634zm-40.492 67.24c-9.0149 0-16.272 7.3679-16.272 16.52v48.376c-1.5281 5.5708 20.88 8.6068 46.222 9.0511v14.937c-11.193 4.0307-18.482 13.43-18.494 23.85 3.78e-4 14.299 13.504 25.889 30.16 25.89 16.656 4.2e-4 30.161-11.59 30.161-25.89-2e-3 -10.429-7.2934-19.84-18.496-23.874l-0.28346-8.3957-2.5312-6.7184c22.714-0.84669 43.307-3.7768 46.789-8.8504v-48.376c0-9.1516-7.2586-16.52-16.274-16.52zm41.122 73.982v4.7362h-3.4133v-4.7185c1.1369-4e-3 2.2745-8e-3 3.4133-0.0189zm0.49399 40.744c3.4571-3e-4 6.2593 3.0553 6.2596 6.8268-3.8e-4 3.7713-2.8025 6.8291-6.2596 6.8287-3.4568-3.4e-4 -6.2574-3.0578-6.2578-6.8287 3.8e-4 -3.7711 2.801-6.8265 6.2578-6.8268z" fill="#72a7cf" fill-opacity=".99608" fill-rule="evenodd" style="paint-order:normal"/>
</svg>
