<?xml version="1.0" encoding="UTF-8"?>
<svg version="1.1" width="214" height="256" viewBox="0 0 213.73 256" xmlns="http://www.w3.org/2000/svg" xmlns:cc="http://creativecommons.org/ns#" xmlns:dc="http://purl.org/dc/elements/1.1/" xmlns:rdf="http://www.w3.org/1999/02/22-rdf-syntax-ns#">
<metadata>
<rdf:RDF>
<cc:Work rdf:about="">
<dc:format>image/svg+xml</dc:format>
<dc:type rdf:resource="http://purl.org/dc/dcmitype/StillImage"/>
</cc:Work>
</rdf:RDF>
</metadata>
<path d="m107.85 0a11.204 12.222 0 0 0 -11.204 12.223 11.204 12.222 0 0 0 0.1852 2.176l-77.592 56.513a11.204 12.222 0 0 0 -8.0319 -3.7021 11.204 12.222 0 0 0 -11.204 12.223 11.204 12.222 0 0 0 9.0161 11.985v73.665a11.204 12.222 0 0 0 -9.0161 11.975 11.204 12.222 0 0 0 11.204 12.223 11.204 12.222 0 0 0 7.6505 -3.3056l77.941 55.894a11.204 12.222 0 0 0 -0.15118 1.9087 11.204 12.222 0 0 0 11.204 12.223 11.204 12.222 0 0 0 11.204 -12.223 11.204 12.222 0 0 0 -0.0378 -0.85931l76.867-56.031a11.204 12.222 0 0 0 6.6387 2.3938 11.204 12.222 0 0 0 11.204 -12.223 11.204 12.222 0 0 0 -6.8992 -11.281v-75.069a11.204 12.222 0 0 0 6.9067 -11.276 11.204 12.222 0 0 0 -11.204 -12.223 11.204 12.222 0 0 0 -7.067 2.7466l-76.463-56.607a11.204 12.222 0 0 0 0.0529 -1.1266 11.204 12.222 0 0 0 -11.204 -12.223zm9.9473 17.823 75.021 55.539a11.204 12.222 0 0 0 -1.307 3.9354h-41.302l-33.032-58.314a11.204 12.222 0 0 0 0.62098 -1.1604zm-19.471 0.82023a11.204 12.222 0 0 0 1.0862 1.5969l-32.852 57.057h-44.326a11.204 12.222 0 0 0 -0.74872 -2.6885zm15.794 3.6947 31.132 54.96h-34.386v-53.305a11.204 12.222 0 0 0 3.2538 -1.6545zm-11.373 0.75239a11.204 12.222 0 0 0 3.806 1.2641v52.943h-35.017zm-80.527 58.52h41.857l-9.9409 17.265-32.112-16.324a11.204 12.222 0 0 0 0.19654 -0.94065zm46.834 0h37.499v43.912l-48.568-24.689zm41.814 0h36.829l10.726 18.936-47.555 24.175zm41.784 0h38.861a11.204 12.222 0 0 0 0.46413 1.878l-29.707 15.101zm-132.33 4.9123 31.661 16.096-12.407 21.548-20.742-35.796a11.204 12.222 0 0 0 1.4876 -1.8483zm173.66 0.78493a11.204 12.222 0 0 0 2.4038 2.3307l-19.656 34.476-12.331-21.767zm-178.71 3.5148 21.823 37.658-21.495 37.334a11.204 12.222 0 0 0 -2.2673 -0.75243v-73.639a11.204 12.222 0 0 0 1.9397 -0.60045zm185.07 0.59301a11.204 12.222 0 0 0 2.1808 0.23811v73.183a11.204 12.222 0 0 0 -2.5308 0.33448l-20.783-36.689zm-39.784 12.887 13.692 24.172-13.905 24.389-47.656-24.226zm-104.72 0.27288 47.331 24.062-47.117 23.952-13.974-24.115zm50.722 27.176v43.911h-37.137l-11.205-19.336zm4.3143 0.80118 47.332 24.062-10.86 19.048h-36.472zm-71.28 0.2366 12.609 21.757-31.506 16.016a11.204 12.222 0 0 0 -1.5987 -2.1745zm137.13 0.0525 19.387 34.225a11.204 12.222 0 0 0 -2.5376 2.6885l-29.379-14.935zm-122.35 25.443 10.071 17.378h-42.111a11.204 12.222 0 0 0 -0.14362 -1.0173zm107.69 0.28611 29.725 15.111a11.204 12.222 0 0 0 -0.36661 1.9812h-39.105zm-139.98 21.405h44.861l32.385 55.885a11.204 12.222 0 0 0 -1.1112 1.7218l-76.941-55.178a11.204 12.222 0 0 0 0.80617 -2.4292zm49.845 0h34.637v51.676a11.204 12.222 0 0 0 -3.9266 1.3203zm38.95 0h34.013l-30.65 53.758a11.204 12.222 0 0 0 -3.3634 -1.7154zm38.977 0h41.821a11.204 12.222 0 0 0 1.4105 3.6296l-75.171 54.795a11.204 12.222 0 0 0 -0.65008 -1.2636z" color="#000000" color-rendering="auto" dominant-baseline="auto" fill="#6fa7cf" fill-opacity=".99608" fill-rule="evenodd" image-rendering="auto" shape-rendering="auto" solid-color="#000000" style="font-feature-settings:normal;font-variant-alternates:normal;font-variant-caps:normal;font-variant-ligatures:normal;font-variant-numeric:normal;font-variant-position:normal;isolation:auto;mix-blend-mode:normal;paint-order:normal;shape-padding:0;text-decoration-color:#000000;text-decoration-line:none;text-decoration-style:solid;text-indent:0;text-orientation:mixed;text-transform:none;white-space:normal"/>
</svg>
