<?xml version="1.0" encoding="UTF-8"?>
<svg version="1.1" width="223" height="256" viewBox="0 0 222.51 256" xmlns="http://www.w3.org/2000/svg" xmlns:cc="http://creativecommons.org/ns#" xmlns:dc="http://purl.org/dc/elements/1.1/" xmlns:rdf="http://www.w3.org/1999/02/22-rdf-syntax-ns#">
<metadata>
<rdf:RDF>
<cc:Work rdf:about="">
<dc:format>image/svg+xml</dc:format>
<dc:type rdf:resource="http://purl.org/dc/dcmitype/StillImage"/>
</cc:Work>
</rdf:RDF>
</metadata>
<path d="m108.02 0c-1.9931 0-3.5976 1.6046-3.5976 3.5977v18.663c0 1.9931 1.6045 3.5977 3.5976 3.5977h7.4203c1.9931 0 3.5976-1.6045 3.5976-3.5977v-18.663c0-1.9931-1.6045-3.5977-3.5976-3.5977zm1.7991 1.8177h3.8222c1.993 0 3.5979 1.1031 3.5979 2.4734v14.996c0 1.3702-1.6049 2.4734-3.5979 2.4734h-3.8222c-1.9932 0-3.5976-1.1032-3.5976-2.4734v-14.996c0-1.3703 1.6044-2.4734 3.5976-2.4734zm1.9113 20.539c0.74487 1.89e-4 1.3487 0.6042 1.3487 1.3492 0 0.74498-0.60385 1.349-1.3487 1.3491-0.7454 2.26e-4 -1.3496-0.60389-1.3496-1.3491 0-0.74528 0.60416-1.3494 1.3496-1.3492zm0.56383 6.9894c-0.034 0.0019-0.0661 0.0038-0.0994 0.0076-0.0227 0.0019-0.0472 0.0038-0.071 0.0076-0.0378 0.0038-0.0756 0.01134-0.11225 0.02268-0.0227 0.0038-0.0408 0.0076-0.0616 0.01134-0.0378 0.0076-0.0729 0.0189-0.10885 0.03024-0.0189 0.0076-0.0397 0.01134-0.0597 0.0189-0.034 0.01134-0.068 0.02646-0.10129 0.04044-0.0227 0.0076-0.0453 0.0189-0.068 0.03024-0.0265 0.01134-0.0522 0.02646-0.0767 0.04006-0.0302 0.01512-0.0559 0.03024-0.0832 0.04611-0.0227 0.01512-0.0491 0.03402-0.0726 0.04913-0.0151 0.01134-0.0302 0.0189-0.0472 0.03024l-0.0473 0.03402-79.776 58.104c-0.048 0.03402-0.0926 0.07143-0.13644 0.11036-0.04346 0.03893-0.08504 0.07975-0.12472 0.12283h-4.54e-4c-0.03969 0.04309-0.07672 0.08806-0.1115 0.13493-0.0076 0.01134-0.01512 0.0189-0.0189 0.03024-0.06236 0.0858-0.11603 0.17726-0.16176 0.27288-0.02646 0.05291-0.04838 0.10696-0.06728 0.16214-0.0189 0.05518-0.0378 0.1115-0.04989 0.16819-0.02646 0.11414-0.04535 0.23055-0.04989 0.34772-4.92e-4 0.02268-4.92e-4 0.04762 0 0.07106v80.5c0 0.034 0.0076 0.0688 0.0076 0.1028-1.89e-4 0.0151-1.89e-4 0.0302 0 0.0427 0 0.034 0.01134 0.0699 0.01512 0.10469 0.01134 0.0302 0.01134 0.0578 0.01512 0.0862 0.0076 0.0227 0.01134 0.0457 0.01512 0.0684 0.01134 0.034 0.01512 0.0654 0.02646 0.0979 0.0076 0.0302 0.0189 0.0578 0.03024 0.0862 0.0076 0.0265 0.0189 0.0525 0.02646 0.0782 0.01512 0.0302 0.02646 0.0608 0.04158 0.0907 0.01134 0.0227 0.02268 0.0454 0.03402 0.068 0.01512 0.0302 0.03402 0.0593 0.05027 0.0881 0.01134 0.0227 0.02646 0.042 0.03855 0.0627 0.0189 0.0264 0.0378 0.0529 0.05669 0.0786 0.01512 0.0227 0.03402 0.0442 0.05102 0.0658 0.0189 0.0227 0.03968 0.0461 0.05972 0.0684 0.0189 0.0189 0.0378 0.0408 0.05669 0.0605 0.02268 0.0227 0.048 0.0461 0.0737 0.0684 0.0189 0.0151 0.03779 0.034 0.0548 0.0488 0.03024 0.0227 0.05669 0.0457 0.0858 0.0677l79.79 57.22 0.034 0.0264c0.0189 0.0113 0.0378 0.0227 0.0548 0.034 0.0265 0.0189 0.0522 0.034 0.0786 0.0506 0.0264 0.0151 0.0491 0.0265 0.0737 0.0401 0.0265 0.0151 0.0522 0.0265 0.0794 0.0408 0.0302 0.0151 0.0635 0.0264 0.096 0.0401 0.0189 8e-3 0.0416 0.0151 0.0624 0.0227 0.034 0.0113 0.0699 0.0227 0.10545 0.0302 0.0227 8e-3 0.0453 0.0113 0.0688 0.0189 0.034 8e-3 0.0669 0.0151 0.10167 0.0189 0.0227 4e-3 0.0435 8e-3 0.065 0.0113 0.0397 4e-3 0.0786 8e-3 0.11868 0.0113 0.0189 3e-3 0.0397 4e-3 0.0593 8e-3 0.0416 9.5e-4 0.0831 9.5e-4 0.12435 0 0.0151 1.9e-4 0.0302 1.9e-4 0.0465 0 0.0435-3e-3 0.0869-8e-3 0.1304-0.0151 0.0151-2e-3 0.034-4e-3 0.0472-8e-3 0.0378-8e-3 0.0748-0.0151 0.1115-0.0227 0.0227-4e-3 0.0427-0.0113 0.065-0.0151 0.0378-0.0113 0.0737-0.0227 0.1096-0.034 0.0189-4e-3 0.034-0.0113 0.0529-0.0189 0.0427-0.0151 0.0839-0.034 0.12472-0.0541 0.0113-4e-3 0.0227-0.0113 0.034-0.0151 0.0389-0.0189 0.0767-0.0397 0.11338-0.062 0.0151-8e-3 0.0302-0.0189 0.0446-0.0265 0.034-0.0227 0.0669-0.0431 0.0994-0.0661l78.532-57.244c0-0.0151 0.0378-0.0265 0.0529-0.0423 0.0378-0.0151 0.0416-0.034 0.0642-0.0525 0.0378-0.0227 0.0529-0.0495 0.0794-0.0756 0-0.0113 0.0378-0.0265 0.0378-0.0382 0.0378-0.0302 0.0529-0.0605 0.0794-0.0922 0-0.0151 0.0378-0.0302 0.0378-0.0435 0.0378-0.034 0.0491-0.0665 0.0718-0.10091 0-0.0113 0-0.0265 0.0378-0.0389 0.0378-0.034 0.0416-0.0718 0.0643-0.10885 0-0.0151 0-0.034 0.0378-0.0507 0-0.0302 0.0378-0.0627 0.0416-0.0945 0-0.0227 0.0378-0.0469 0.0378-0.0707 0-0.034 0.0378-0.0699 0.0378-0.10545v-0.0567c0-0.0378 0-0.0745 0.0378-0.11226v-0.0605-0.12019-0.0529-0.1081-80.499c-3.8e-4 -0.55937-0.26457-1.0855-0.71547-1.4181l-78.531-58.139c-0.0189-0.01134-0.0378-0.02646-0.0548-0.0378-0.0227-0.01512-0.0423-0.03024-0.065-0.04346-0.0265-0.01512-0.0537-0.03024-0.0813-0.04649-0.0227-0.01512-0.048-0.02646-0.0737-0.03931-0.0265-0.01134-0.0548-0.02268-0.082-0.03402-0.0265-0.01134-0.0567-0.02268-0.085-0.03402-0.0227-0.0076-0.0491-0.01512-0.0745-0.02646-0.0302-0.01134-0.0597-0.0189-0.09-0.02646-0.0302-0.0076-0.0597-0.01512-0.0896-0.0189-0.0265-0.0076-0.0567-0.01134-0.0839-0.01512-0.0302-0.0038-0.0597-0.0076-0.0888-0.01134-0.0264-0.0038-0.054-0.0076-0.0813-0.0076-0.034-6.8e-4 -0.0669-6.8e-4 -0.10053 0-0.0265-5.66e-4 -0.0522-5.66e-4 -0.0775 0zm-5.592 8.0745-28.823 50.06h-39.908zm11.306 0.05405 67.547 50.006h-39.221zm-7.3984 0.23471v49.772h-28.657zm3.5294 0.09335 28.141 49.678h-28.141zm-104.8 22.203c-2.5868 0-4.6691 2.0827-4.6691 4.6695v22.179c0 2.5868 2.0823 4.6695 4.6691 4.6695h15.759c2.5868 0 4.6692-2.0826 4.6692-4.6695v-22.179c0-2.5868-2.0823-4.6695-4.6692-4.6695zm188.08 0c-2.5867 0-4.6692 2.0827-4.6692 4.6695v22.179c0 2.5868 2.0825 4.6695 4.6692 4.6695h15.759c2.5871 0 4.6692-2.0826 4.6692-4.6695v-22.179c0-2.5868-2.0821-4.6695-4.6692-4.6695zm-186.03 2.5656h11.673c2.5868 0 4.6695 2.0827 4.6695 4.6695v14.422c0 2.5868-2.0827 4.6691-4.6695 4.6691h-11.673c-2.5867 0-4.6694-2.0823-4.6694-4.6691v-14.422c0-2.5868 2.0827-4.6695 4.6694-4.6695zm188.08 0h11.673c2.5867 0 4.6696 2.0827 4.6696 4.6695v14.422c0 2.5868-2.0829 4.6691-4.6696 4.6691h-11.673c-2.5867 0-4.6692-2.0823-4.6692-4.6691v-14.422c0-2.5868 2.0825-4.6695 4.6692-4.6695zm-182.24 25.45c0.64471 7.6e-5 1.1673 0.52282 1.1672 1.1675-1.13e-4 0.6446-0.52263 1.1671-1.1672 1.1672-0.64467 1.13e-4 -1.1675-0.52248-1.1675-1.1672-1.89e-4 -0.64486 0.52263-1.1676 1.1675-1.1675zm188.08 0c0.64478 1.14e-4 1.1675 0.52286 1.1671 1.1675 0 0.64456-0.52234 1.167-1.1671 1.1672-0.64479 1.51e-4 -1.1675-0.52244-1.1675-1.1672 0-0.6449 0.52271-1.1677 1.1675-1.1675zm-165.38 2.9884h35.93l-8.1354 14.129zm40.004 0h30.689v35.936l-39.747-20.205zm34.218 0h30.139l8.7782 15.496-38.918 19.784zm34.194 0h35.206l-27.335 13.895zm38.123 2.4762-18.42 32.308-10.091-17.814zm-149.39 0.03402 28.879 14.682-10.153 17.635zm-2.7532 2.2886 19.447 33.558-19.447 33.776zm154.82 0.09411v67.146l-19.079-33.682zm-34.343 13.677 11.206 19.782-11.379 19.959-39.001-19.826zm-85.698 0.22337 38.735 19.691-38.559 19.601-11.436-19.735zm41.51 22.24v35.936h-30.392l-9.1696-15.825zm3.5294 0.65537 38.735 19.692-8.8876 15.589h-29.847zm-58.334 0.19351 10.318 17.806-29.082 14.784zm112.22 0.0435 18.455 32.581-28.71-14.595zm-153.18 19.821c-2.0833-8e-3 -4.2258 0.0695-6.2337 0.2468-3.3597 0.29669-5.6111 0.8222-6.3649 1.4857-0.83471 0.73463-1.4037 2.5445-1.5963 5.075-0.061606 0.82572-0.062362 2.9356 0 3.7944 0.24151 3.3306 0.91635 6.042 1.8036 7.2456 0.22753 0.30879 0.38457 0.43767 0.75326 0.62056 1.6961 0.84136 7.8995 1.4152 13.736 1.2703 3.4003-0.0843 6.1618-0.38778 7.7768-0.85462 0.56685-0.16404 1.1277-0.44516 1.3678-0.68565 1.1475-1.1492 2.0663-4.4834 2.3031-8.3593 0.18973-3.1048-0.24945-6.0045-1.114-7.3565-0.42539-0.6649-0.78539-0.94862-1.6079-1.2668-1.9421-0.75125-6.2384-1.1955-10.822-1.2154zm192.82 0c-4.5834 0.0189-8.88 0.46412-10.822 1.2154-0.82281 0.31824-1.1826 0.60189-1.6078 1.2668-0.86514 1.352-1.3039 4.2517-1.1142 7.3565 0.23811 3.876 1.1554 7.2102 2.3029 8.3593 0.23811 0.24037 0.80126 0.5218 1.3682 0.68564 1.615 0.46685 4.3763 0.77023 7.7768 0.85463 5.836 0.14475 12.039-0.42894 13.736-1.2703 0.3704-0.18293 0.52536-0.31181 0.75288-0.62056 0.88706-1.2036 1.5625-3.915 1.804-7.2456 0.0605-0.85886 0.0605-2.9687 0-3.7944-0.19275-2.5304-0.76195-4.3403-1.5968-5.075-0.75364-0.66354-3.0047-1.189-6.3643-1.4857-2.0081-0.17726-4.1507-0.25588-6.2343-0.24681zm-139.77 1.0003 8.2418 14.222h-36.219zm-53.358 0.0491c1.0059-4e-3 1.6043 0.0113 1.4492 8e-3 -0.6206-0.0151 0.50457 8e-3 1.6304 0.0616 2.3317 0.11981 5.6734 0.13228 7.471 1.4481 2.8726 1.972 1.7578 12.868-0.43756 14.759-2.1955 1.8909-18.213 1.5877-20.409 0-2.1955-1.5876-3.0185-12.893-0.43759-14.759 1.0281-1.3363 7.7155-1.5082 10.733-1.5174zm193.43 0c3.0176 8e-3 9.7051 0.18104 10.733 1.5174 2.581 1.8666 1.7579 13.171-0.43766 14.759-2.1952 1.5876-18.214 1.8909-20.409 0-2.1955-1.8909-3.3097-12.787-0.43729-14.759 1.7975-1.3158 5.1394-1.3283 7.471-1.4481 1.1259-0.0537 2.2507-0.0779 1.6301-0.0616-0.15496 4e-3 0.44296-0.0113 1.4491-8e-3zm-51.948 0.18558 27.516 13.988h-35.491zm-153.61 0.10132c-0.026457-0.0113-0.16932 0.045-0.34998 0.15307-0.34545 0.20712-0.62287 0.41333-0.87182 0.79018-0.54935 0.83176-0.92156 2.2293-1.1179 4.201-0.10091 1.0251-0.10167 3.3012 0 4.4801 0.26306 3.0528 0.8502 5.4465 1.6374 6.6737 0.24567 0.38287 0.52014 0.59301 0.81948 0.76486 0.18633 0.10697 0.38646 0.18482 0.38646 0.15119 0-0.0113-0.1542-0.0794-0.26003-0.15572-0.57317-0.41159-1.1997-1.7262-1.5924-3.3407-0.26948-1.1074-0.45003-2.2173-0.60045-3.6884-0.1115-1.0966-0.11187-4.3117 0-5.2425 0.30917-2.5713 0.85406-3.9923 1.7976-4.6895 0.07937-0.059 0.17121-0.0903 0.15345-0.0971zm217.68 0c0 8e-3 0.0718 0.0382 0.15496 0.0971 0.94337 0.69721 1.4884 2.1182 1.7975 4.6895 0.11339 0.93078 0.10961 4.1459 0 5.2425-0.15118 1.4711-0.3326 2.581-0.60057 3.6884-0.39269 1.6145-1.0193 2.9291-1.5927 3.3407-0.10583 0.076-0.26079 0.14589-0.26079 0.15572 0 0.034 0.20032-0.0442 0.38665-0.15119 0.29858-0.17196 0.57411-0.38199 0.8194-0.76486 0.78728-1.2271 1.3746-3.6209 1.6377-6.6737 0.10205-1.1789 0.10205-3.4551 0-4.4801-0.19654-1.9716-0.56844-3.3692-1.118-4.201-0.24945-0.37682-0.52649-0.58303-0.87194-0.79018-0.18142-0.1081-0.32126-0.16441-0.3515-0.15307zm-182.05 17.416h40.144l28.547 49.262zm44.224 0h28.346v48.916zm31.876 0h27.835l-27.835 48.822zm31.896 0h39.454l-67.512 49.212zm-124.72 1.025-13.285 0.054c-3.0188 0.27477-5.4183 0.72828-6.2431 1.3294-2.7211 1.9834 2.6174 8.219 5.8165 10.551 3.1992 2.3318 22.82 2.4635 26.38 0 2.4101-3.9866-5.7026-10.206-6.9004-10.551-0.78123-0.67816-2.9741-1.1301-5.7687-1.3833zm179.87 0c-6.3504 0.20447-14.68 7.9112-12.669 11.934 3.5603 2.4635 23.181 2.3318 26.38 0 3.199-2.3317 8.5372-8.5674 5.8159-10.551-0.82469-0.60117-3.2239-1.0548-6.2426-1.3294zm5.3408 1.9095c0.53404 0.0189 0.6308 0.62766 0 0.83985-0.62136 0.13039-1.3281 0.17348-1.9317-0.0302-0.0756-0.74438 0.82847-0.81717 1.4064-0.78667-0.0756-0.0522 0.35906 0.0544 0.28725 8e-3 0.0945-0.0227 0.17763-0.034 0.25322-0.0302zm7.8497 0c0.53442 0.0189 0.6308 0.62774 0 0.83985-0.62098 0.13039-1.3278 0.17348-1.9313-0.0302-0.0718-0.74578 0.82696-0.81661 1.4056-0.78667v3.4e-4c0.0869-0.0412 0.20032 0.0419 0.28725 4e-3 0.0945-0.0227 0.17764-0.034 0.25323-0.0302zm-16.453 0.0113c0.0794 7e-5 0.15118 4e-3 0.21543 0.0151 0.38438-9.4e-4 1.5016-0.0227 0.816 0.61459-0.60699 0.46466-1.491 0.31824-2.1952 0.19654-0.22677-0.60261 0.61229-0.82477 1.1641-0.82432zm2.6158 0c0.0794 3e-5 0.15118 4e-3 0.21543 0.0151 0.38363-9.4e-4 1.5031-0.0189 0.816 0.61459-0.60699 0.46477-1.491 0.31862-2.1952 0.19616-0.22677-0.60284 0.61267-0.82439 1.1641-0.82398zm2.6166 0c0.0794 3e-5 0.15118 4e-3 0.21543 0.0151 0.384 0.0113 1.505-0.0397 0.81487 0.61459-0.60624 0.4647-1.4903 0.31824-2.194 0.19654-0.22677-0.60371 0.61228-0.82473 1.1641-0.82432zm5.2331 0c0.0794 7e-5 0.15118 4e-3 0.21543 0.0151 0.38438-9.4e-4 1.502-0.0189 0.81525 0.61459-0.60699 0.4647-1.4914 0.31862-2.1955 0.19616-0.22677-0.60329 0.61342-0.82447 1.1652-0.82398zm2.6158 0c0.0794 3e-5 0.15118 4e-3 0.21544 0.0151 0.38135 0.0113 1.5046-0.0401 0.81411 0.61459-0.60662 0.46477-1.4903 0.31824-2.194 0.19654-0.22677-0.6034 0.61304-0.8247 1.1648-0.82432zm5.2328 0c0.0794 7e-5 0.15118 4e-3 0.21543 0.0151 0.38438-2e-3 1.5024-0.0189 0.81525 0.61459-0.60662 0.46473-1.491 0.31862-2.1952 0.19616-0.223-0.60329 0.61304-0.82447 1.1648-0.82398zm-206.49 0.3024c0.076724-3e-3 0.16139 8e-3 0.25474 0.0302 0.08693 0.0378 0.19956-0.0472 0.28611-4e-3v-3.7e-4c0.57872-0.0302 1.4799 0.0408 1.4059 0.7867-0.60348 0.20297-1.3104 0.15988-1.9314 0.0302-0.64622-0.21203-0.54954-0.82004-0.015118-0.83981zm7.8496 0c0.07672-3e-3 0.16176 8e-3 0.25474 0.0302-0.0737 0.0484 0.3617-0.0586 0.28573-4e-3 0.57796-0.0302 1.4815 0.0423 1.4066 0.78667-0.6037 0.20297-1.3106 0.15988-1.9317 0.0302-0.64622-0.21203-0.54954-0.82008-0.01512-0.83985zm-9.7103 0.0113c0.55181-4.6e-4 1.3897 0.22072 1.1648 0.82397-0.70405 0.12246-1.5878 0.26873-2.1947-0.19616-0.68712-0.63439 0.43068-0.61629 0.81487-0.61455 0.063496-8e-3 0.13644-0.0151 0.21506-0.0151zm5.2327 0c0.55189-3.8e-4 1.3903 0.22072 1.165 0.82435-0.70386 0.1217-1.5874 0.26835-2.1939-0.19654-0.69071-0.65465 0.43257-0.60465 0.81385-0.61455 0.0635-8e-3 0.13606-0.0151 0.21506-0.0151zm2.6159 0c0.55192-4.6e-4 1.3901 0.22072 1.1652 0.82397-0.70413 0.12246-1.5885 0.26873-2.1953-0.19616-0.68693-0.63462 0.43087-0.61621 0.81513-0.61455 0.0635-8e-3 0.13606-0.0151 0.21506-0.0151zm5.2331 0c0.55189-4.2e-4 1.39 0.22072 1.1644 0.82435-0.70394 0.12208-1.5874 0.26835-2.1939-0.19654-0.69014-0.65435 0.43056-0.60472 0.81449-0.61455 0.0635-8e-3 0.13606-0.0151 0.21506-0.0151zm2.6166 0c0.55155-4.2e-4 1.389 0.2211 1.164 0.82397-0.70405 0.12246-1.5881 0.26873-2.195-0.19616-0.68731-0.63511 0.43264-0.61614 0.81626-0.61455 0.0635-8e-3 0.13568-0.0151 0.21468-0.0151zm2.6159 0c0.55181-4.6e-4 1.3898 0.22185 1.1641 0.82435-0.70413 0.1217-1.5879 0.26835-2.1947-0.19654-0.68587-0.63549 0.43136-0.61576 0.81592-0.61455 0.0635-8e-3 0.13606-0.0151 0.21468-0.0151zm175.4 0.99858c0.57335-4e-3 0.85606 0.57419 0.11717 0.85286-0.62136 0.13152-1.3274 0.17234-1.9313-0.0265-0.0794-0.74298 0.81978-0.81702 1.406-0.78739v3.4e-4l0.14362 2e-3c0.0907-0.0265 0.18142-0.0393 0.26079-0.0397zm-2.4828 0.0113c0.53367 0.0189 0.62891 0.62861 0 0.83981-0.6206 0.13153-1.327 0.17235-1.9302-0.0302-0.0794-0.74453 0.82167-0.81596 1.4067-0.78667-0.0907-0.0302 0.3704 0.0302 0.28725 8e-3 0.0945-0.0227 0.17764-0.034 0.25323-0.0302zm7.8478 0c0.53367 0.0189 0.62929 0.62854 0 0.83981-0.62022 0.13153-1.327 0.17235-1.9302-0.0302-0.0794-0.74487 0.82167-0.81578 1.4071-0.78667-0.0983-0.0151 0.37418 0.0189 0.28347 8e-3 0.0945-0.0227 0.17763-0.034 0.25323-0.0302zm5.2335 0c0.53367 0.0189 0.62967 0.62846 0 0.83981-0.62135 0.13153-1.3278 0.17197-1.9317-0.0302-0.0756-0.74616 0.82016-0.81494 1.4075-0.78667-0.0756-0.0559 0.35906 0.0574 0.28724 8e-3 0.0945-0.0227 0.17764-0.034 0.25323-0.0302zm2.6147 0c0.53367 0.0189 0.63042 0.6285 0 0.83981-0.62098 0.13115-1.3278 0.17235-1.931-0.0302-0.0756-0.74487 0.82129-0.81589 1.4075-0.78667-0.0983-0.0113 0.3704 0.0151 0.28347 8e-3 0.0945-0.0227 0.17764-0.034 0.25323-0.0302zm-10.463 4.2e-4c0.53367 0.0189 0.62892 0.62865 0 0.83985-0.62135 0.13153-1.3274 0.17197-1.9313-0.0302-0.0756-0.74574 0.81978-0.81547 1.4075-0.78705v3.4e-4c-0.0869 0.045 0.36284-0.0408 0.28725 8e-3 0.0945-0.0227 0.17763-0.034 0.25322-0.0302zm13.081 0c0.53404 0.0189 0.62967 0.62843 0 0.83985-0.62098 0.13153-1.327 0.17197-1.9313-0.0302-0.0794-0.7454 0.81978-0.81547 1.4071-0.78705v3.4e-4c-0.0831 0.0514 0.36283-0.0472 0.28724 8e-3 0.0945-0.0227 0.17764-0.034 0.25323-0.0302zm-7.8478 3.4e-4c0.53404 0.0189 0.63042 0.62752 0 0.83951-0.62136 0.13115-1.3278 0.17273-1.9317-0.0265-0.0794-0.74412 0.81827-0.81638 1.4052-0.78743v-3.4e-4c0.0869 0.0419 0.20031-0.0378 0.28724 8e-3 0.0945-0.0227 0.17764-0.034 0.25323-0.0302zm-187.06 0.29972c0.08202 4.5e-4 0.16932 0.0113 0.26117 0.0397l0.14476-2e-3v-3.4e-4c0.58658-0.0302 1.4862 0.0446 1.4058 0.78738-0.60416 0.2007-1.3102 0.1595-1.9313 0.0265-0.73765-0.27855-0.45456-0.85621 0.11868-0.85285zm-13.214 0.0113c0.076724-3e-3 0.16139 8e-3 0.25436 0.0302-0.087685 8e-3 0.38222-0.0189 0.28422-4e-3 0.58602-0.0302 1.4856 0.0419 1.4079 0.78667-0.6034 0.20069-1.3102 0.15949-1.931 0.0265-0.64554-0.21127-0.54909-0.82027-0.015118-0.83951zm2.6146 0c0.07672-3e-3 0.16101 8e-3 0.25436 0.0302-0.07257 0.0514 0.36321-0.062 0.28535-4e-3 0.58726-0.0265 1.4849 0.0404 1.408 0.78667-0.60416 0.20069-1.3106 0.15949-1.9317 0.0265-0.64547-0.21127-0.54992-0.82019-0.01512-0.83951zm5.2336 0c0.07672-3e-3 0.16176 8e-3 0.25474 0.0302-0.08769 0.0113 0.38135-0.0227 0.2846-4e-3 0.58564-0.0302 1.4865 0.0416 1.4073 0.78667-0.60321 0.20069-1.3098 0.15949-1.9303 0.0265-0.64547-0.21127-0.55003-0.82019-0.01512-0.83951zm7.8483 0c0.07635-3e-3 0.16101 8e-3 0.25436 0.0302-0.0858 0.0264 0.3772-0.034 0.28498-4e-3 0.58545-0.0302 1.4876 0.0419 1.4069 0.78667-0.6031 0.20107-1.3098 0.15949-1.9303 0.0265-0.64547-0.21127-0.54985-0.82015-0.01512-0.83951zm-18.314 3.4e-4c0.076725-3e-3 0.16101 8e-3 0.25436 0.0302-0.076724-0.0533 0.36699 0.0453 0.28573-4e-3v-3.4e-4c0.58715-0.0302 1.4842 0.0416 1.4068 0.78704-0.60397 0.2007-1.3104 0.15988-1.9313 0.0302-0.64581-0.21128-0.54973-0.82057-0.015118-0.83985zm13.081 0c0.07672-3e-3 0.16139 8e-3 0.25474 0.0302-0.07937-0.0469 0.37039 0.0389 0.28535-4e-3v-3.4e-4c0.58753-0.0302 1.4851 0.0412 1.408 0.78704-0.60416 0.20032-1.3107 0.16026-1.9317 0.0302-0.64535-0.21128-0.54984-0.82053-0.01512-0.83985zm-5.2332 3.4e-4c0.07672-3e-3 0.16139 8e-3 0.25474 0.0302 0.08693-0.0431 0.20032 0.034 0.28649-8e-3v3.7e-4c0.58696-0.0302 1.485 0.0435 1.4058 0.78739-0.60416 0.2007-1.3106 0.1595-1.9317 0.0265-0.64592-0.21203-0.54954-0.82023-0.01512-0.83951zm181.53 0.94545c0.0832 8e-3 0.26456 0.0971 0.24944 0.0302 0.74571-0.19275 0.97588 0.56708 0.23811 0.80886-0.62059 0.13304-1.3274 0.17159-1.9317-0.0265-0.0756-0.74623 0.82053-0.81448 1.4075-0.78667v-3.7e-4c0-0.0227 0-0.0302 0.0378-0.0265zm3.1185 9.4e-4c0.53405 0.0189 0.6293 0.6279 0 0.83951-0.62022 0.13266-1.3274 0.17197-1.9302-0.0265-0.0832-0.74483 0.82129-0.81524 1.4064-0.7867v-3.4e-4c-0.0831-0.0446 0.36284 0.0465 0.28347 4e-3 0.0945-0.0227 0.17763-0.034 0.25322-0.0302zm5.2335 0c0.53366 0.0189 0.62891 0.6279 0 0.83951-0.6206 0.13304-1.327 0.17159-1.9313-0.0265-0.0756-0.7463 0.82053-0.81441 1.4079-0.7867v-3.4e-4c-0.0453-0.0839 0.32882 0.0847 0.28347 4e-3 0.0945-0.0227 0.17763-0.034 0.25322-0.0302zm2.6147 0c0.53367 0.0189 0.63005 0.6279 0 0.83951-0.62022 0.13266-1.3278 0.17197-1.931-0.0265-0.0794-0.74494 0.82167-0.81528 1.4075-0.7867v-3.4e-4c-0.0945-0.0227 0.37039 0.0264 0.28346 4e-3 0.0945-0.0227 0.17764-0.034 0.25323-0.0302zm2.6181 0c0.53405 0.0189 0.63005 0.62752 0 0.83951-0.6206 0.13304-1.3274 0.17159-1.9313-0.0265-0.0756-0.7457 0.81978-0.81475 1.4064-0.7867v-3.4e-4c0.0869-0.0401 0.20031 0.0423 0.28724 4e-3 0.0945-0.0227 0.17764-0.034 0.25323-0.0302zm2.6166 0c0.53367 0.0189 0.62929 0.6279 0 0.83951-0.6206 0.13304-1.3274 0.17159-1.9317-0.0265-0.0756-0.74604 0.82016-0.81475 1.4071-0.7867v-3.4e-4c0.0907-0.034 0.19654 0.034 0.28724 4e-3 0.0945-0.0227 0.17764-0.034 0.25323-0.0302zm2.615 0c0.53405 0.0189 0.62967 0.62748 0 0.83951-0.62059 0.13266-1.3277 0.17197-1.931-0.0265-0.0756-0.74517 0.81903-0.81509 1.4064-0.7867v-3.4e-4c-0.0454-0.0839 0.32881 0.0847 0.28724 4e-3 0.0945-0.0227 0.17764-0.034 0.25323-0.0302zm-13.08 6.8e-4c0.53443 0.0189 0.63081 0.62733 0 0.83951-0.62097 0.13266-1.3277 0.17159-1.9317-0.0264-0.0794-0.74408 0.81827-0.81582 1.4056-0.78739 0.0869 0.0416 0.20032-0.0378 0.28725 8e-3 0.0945-0.0227 0.17764-0.034 0.25323-0.0302zm-173.75 0.31068c0.02646-3e-3 0.04347 3e-3 0.0378 0.0265v3.4e-4c0.58734-0.0265 1.4841 0.0404 1.4077 0.78667-0.60416 0.19994-1.311 0.16101-1.9318 0.0265-0.73758-0.24189-0.50767-1.0016 0.23849-0.80885-0.01512 0.065 0.16706-0.0227 0.24869-0.0302zm-18.817 9.5e-4c0.076346-3e-3 0.16139 8e-3 0.25474 0.0302-0.041575 0.0786 0.33146-0.0903 0.28535-4e-3v3.4e-4c0.58734-0.0302 1.483 0.0416 1.4066 0.78671-0.60333 0.19994-1.3105 0.16063-1.931 0.0265-0.64554-0.21203-0.54966-0.8199-0.015118-0.83951zm2.6152 0c0.07635-3e-3 0.16139 8e-3 0.25436 0.0302 0.08995 0.0302 0.19691-0.0393 0.28649-4e-3v3.4e-4c0.58677-0.0264 1.4834 0.0408 1.4068 0.78671-0.60397 0.19994-1.3106 0.16101-1.9313 0.0265-0.64543-0.21166-0.55018-0.81974-0.01512-0.83951zm2.617 0c0.07672-3e-3 0.16139 8e-3 0.25474 0.0302 0.08693 0.034 0.19956-0.0465 0.28611-4e-3v3.4e-4c0.58651-0.0264 1.4823 0.0412 1.4058 0.78671-0.60404 0.19994-1.3106 0.16101-1.9313 0.0265-0.64618-0.21203-0.54962-0.82001-0.01512-0.83951zm2.6177 0c0.07672-3e-3 0.16139 8e-3 0.25436 0.0302-0.0858 0.0189 0.37878-0.0302 0.2846-4e-3v3.4e-4c0.58571-0.0302 1.4862 0.042 1.4073 0.78671-0.6034 0.20032-1.3105 0.16063-1.9311 0.0265-0.64543-0.21166-0.5486-0.8199-0.01512-0.83951zm2.615 0c0.07672-3e-3 0.16139 8e-3 0.25436 0.0302-0.04158 0.0786 0.33146-0.0903 0.28573-4e-3v3.4e-4c0.58715-0.0264 1.4842 0.0404 1.4076 0.78671-0.60404 0.19994-1.311 0.16101-1.9317 0.0265-0.64543-0.21166-0.55-0.81982-0.01512-0.83951zm5.2329 0c0.07672-3e-3 0.16176 8e-3 0.25474 0.0302-0.07937 0.0401 0.37039-0.051 0.28498-4e-3v3.4e-4c0.58515-0.0302 1.4879 0.042 1.4066 0.78671-0.60302 0.19994-1.31 0.16101-1.9302 0.0265-0.64554-0.21166-0.55003-0.81986-0.01512-0.83951zm-2.6177 6.8e-4c0.07672-3e-3 0.16138 8e-3 0.25474 0.0302 0.08693-0.0427 0.20069 0.034 0.28687-8e-3 0.58707-0.0302 1.4847 0.0435 1.4058 0.78739-0.60404 0.19994-1.3108 0.16101-1.9316 0.0265-0.6463-0.21203-0.55004-0.81993-0.01512-0.83951zm-20.957 0.11943v0.00472c0 0.19578 0.33109 1.0683 0.65393 1.724 0.41133 0.83505 1.0592 1.8324 1.7652 2.7156 0.8917 1.1155 2.7146 2.8625 3.6952 3.5421 0.94299 0.65344 3.8636 1.1283 8.4927 1.3801 1.2895 0.0703 6.4501 0.10129 7.8173 0.0476 5.706-0.22526 9.3395-0.8361 10.042-1.6881 0.12888-0.1561 0.3103-0.61312 0.3035-0.77155 0-0.0389-0.04536 0.0113-0.09902 0.11187-0.30992 0.58688-2.6426 1.2423-5.6614 1.5906-2.3299 0.26873-4.442 0.37304-7.5916 0.3738-5.0117 9.4e-4 -9.1679-0.38207-11.628-1.0729-1.1563-0.32466-1.6862-0.6257-2.7536-1.5642-1.9691-1.7313-3.7729-3.9656-4.7212-5.8475-0.16214-0.32202-0.29707-0.55639-0.31332-0.54664zm219.78 3.4e-4c0-0.0113-0.15118 0.2245-0.3137 0.54663-0.94828 1.8819-2.7519 4.1162-4.721 5.8475-1.0673 0.93853-1.5972 1.2396-2.7538 1.5642-2.4597 0.69078-6.6161 1.0743-11.628 1.0729-3.1498-6.9e-4 -5.2618-0.10508-7.5916-0.3738-3.0187-0.34809-5.3518-1.0037-5.6617-1.5906-0.0529-0.10054-0.0983-0.15081-0.0983-0.11188 0 0.15836 0.17385 0.61527 0.30236 0.77155 0.70223 0.85202 4.3359 1.463 10.042 1.6881 1.3671 0.0541 6.5276 0.0227 7.8172-0.0476 4.6292-0.25172 7.5496-0.72665 8.4926-1.3801 0.98079-0.67956 2.8036-2.4265 3.6952-3.542 0.70602-0.88316 1.3538-1.8805 1.765-2.7156 0.32504-0.65567 0.65424-1.5281 0.65424-1.724v-4e-3zm-20.945 0.81415c0.57297-3e-3 0.85379 0.57452 0.11716 0.85357-0.62135 0.13001-1.3277 0.17272-1.9313-0.0302-0.0756-0.74589 0.82016-0.81468 1.4075-0.78667l3.8e-4 -3.8e-4 0.14362 2e-3c0.0907-0.0265 0.17764-0.0389 0.26079-0.0393zm5.2324 0c0.57335-3e-3 0.85455 0.57456 0.11716 0.85357-0.62098 0.13001-1.3278 0.17272-1.9317-0.0302-0.0756-0.74582 0.82167-0.81487 1.4075-0.78667l3.8e-4 -3.8e-4 0.14362 2e-3c0.0907-0.0265 0.18142-0.0389 0.26079-0.0393zm-2.6162 6.8e-4c0.57335-3e-3 0.8553 0.57399 0.11716 0.85357-0.62135 0.13001-1.3281 0.17272-1.9317-0.0302-0.0794-0.74358 0.81978-0.81611 1.4067-0.78739l3.7e-4 3.8e-4 0.14363 2e-3c0.0907-0.0265 0.18141-0.0389 0.26078-0.0393zm-5.0978 0.0113c0.53405 0.0189 0.62854 0.62808 0 0.84056-0.62098 0.13002-1.3278 0.17273-1.9317-0.0302-0.0756-0.74555 0.82016-0.81483 1.4071-0.78667 0.0869-0.0397 0.20032 0.0416 0.28725 4e-3 0.0945-0.0227 0.17763-0.034 0.25322-0.0302zm13.081 0c0.53404 0.0189 0.63004 0.6277 0 0.84056-0.62136 0.13002-1.3281 0.17273-1.9317-0.0302-0.0756-0.74604 0.8194-0.81434 1.4064-0.78667-0.0491-0.0809 0.3326 0.0816 0.28725 4e-3 0.0945-0.0227 0.17763-0.034 0.25322-0.0302zm5.232 0c0.53367 0.0189 0.63004 0.62804 0 0.84056-0.62098 0.12964-1.3281 0.1731-1.9313-0.0302-0.0794-0.74555 0.81978-0.81495 1.4067-0.78667-0.0831-0.045 0.36283 0.0465 0.28724 4e-3 0.0945-0.0227 0.17764-0.034 0.25323-0.0302zm-2.6154 3.7e-4c0.53367 0.0189 0.62892 0.62786 0 0.84019-0.62097 0.13002-1.3277 0.17273-1.9317-0.0302-0.0756-0.7462 0.82053-0.81449 1.4079-0.78667l0.14362 2e-3 0.13985 4e-3c0.0945-0.0227 0.17763-0.034 0.25322-0.0302zm-5.2324 3.4e-4c0.53404 0.0189 0.62778 0.6285 0 0.84053-0.62022 0.13002-1.327 0.17273-1.9298-0.0302-0.0794-0.74468 0.82016-0.81566 1.406-0.78705v-3.4e-4c0.0718 0.0624 0.21166-0.0567 0.28725 8e-3 0.0945-0.0227 0.17764-0.034 0.25323-0.0302zm-189.48 0.29934c0.08202 4.2e-4 0.16932 0.0113 0.26117 0.0393l0.14476-2e-3 3.78e-4 3.8e-4c0.5859-0.0265 1.4854 0.0408 1.4076 0.78667-0.60386 0.20183-1.3106 0.15912-1.9317 0.0302-0.7367-0.27892-0.45513-0.85651 0.11792-0.85356zm5.2326 0c0.08239 4.2e-4 0.17008 0.0113 0.26154 0.0393l0.14438-2e-3 3.03e-4 3.8e-4c0.58715-0.0265 1.4831 0.0408 1.4076 0.78667-0.60378 0.20183-1.3102 0.15912-1.9313 0.0302-0.73652-0.27892-0.45543-0.85647 0.11754-0.85356zm-2.6159 6.8e-4c0.08202 4.2e-4 0.16932 0.0113 0.26117 0.0393l0.14476-2e-3 3.78e-4 -3.8e-4c0.58696-0.0302 1.4851 0.0438 1.4069 0.78743-0.60378 0.20183-1.3105 0.15912-1.9316 0.0302-0.7372-0.27968-0.45468-0.85651 0.11868-0.85356zm-13.215 0.0113c0.076346-3e-3 0.16176 8e-3 0.25474 0.0302-0.07937 0.0404 0.37002-0.0514 0.28498-4e-3v3.8e-4c0.58704-0.0265 1.4841 0.0412 1.4066 0.78667-0.60314 0.2022-1.3101 0.15874-1.931 0.0302-0.6449-0.21241-0.54909-0.82087-0.015118-0.84056zm2.6156 0c0.07635-3e-3 0.16138 8e-3 0.25474 0.0302l0.14098-4e-3 0.14476-2e-3 -3.78e-4 3.8e-4c0.58722-0.0265 1.4841 0.0404 1.4076 0.78667-0.60386 0.20182-1.3106 0.15912-1.9317 0.0302-0.64505-0.21241-0.55-0.82076-0.01512-0.84056zm2.6166 0c0.07635-3e-3 0.16139 8e-3 0.25474 0.0302-0.04724 0.0756 0.33676-0.0873 0.28573-4e-3v3.8e-4c0.58696-0.0265 1.4834 0.0404 1.4065 0.78667-0.60378 0.2022-1.3105 0.15911-1.9316 0.0302-0.64573-0.21278-0.54962-0.82083-0.01512-0.84056zm13.08 0c0.07672-3e-3 0.16139 8e-3 0.25474 0.0302 0.08693 0.034 0.19956-0.0461 0.28649-4e-3v3.8e-4c0.58688-0.0265 1.4824 0.0412 1.4069 0.78667-0.60386 0.20182-1.3106 0.15911-1.9317 0.0302-0.64505-0.21241-0.55049-0.82083-0.01512-0.84056zm-10.465 6.8e-4c0.07635-3e-3 0.16139 8e-3 0.25474 0.0302 0.0737-0.0635 0.21354 0.0556 0.28611-8e-3v3.8e-4c0.58609-0.0302 1.4859 0.0423 1.4062 0.78701-0.60276 0.2022-1.3094 0.15912-1.9299 0.0302-0.64479-0.21203-0.55106-0.82046-0.0189-0.84019zm181.82 0.95705c0.0794 8e-5 0.15118 4e-3 0.21543 0.0151 0.384-2e-3 1.502-0.0189 0.81524 0.61455-0.60699 0.46504-1.4914 0.31862-2.1955 0.19616-0.223-0.60329 0.61341-0.82447 1.1652-0.82397zm12.414 0c0.0794 8e-5 0.15118 4e-3 0.21543 0.0151 0.38363-2e-3 1.5016-0.0189 0.81411 0.61455-0.60661 0.46507-1.4906 0.31862-2.1948 0.19616-0.22299-0.60325 0.6138-0.82447 1.1656-0.82397zm-2.0939 8e-3c0.84964-0.0151 0.18898 1.0526-0.47697 0.90354-2.1324 0.0265-4.2641 9.4e-4 -6.3968 0.0113-0.54992-0.10507-1.3312 0.21128-1.7741-0.19388 0.11716-0.71279 0.83716-0.72106 1.4483-0.71558 0.5023 0.034 1.0042-0.0227 1.5073 0.0189 1.093-0.0227 2.3849-0.0189 3.5562 6.9e-4 0.69771-0.0189 1.2506-8e-3 1.9453-8e-3 0.0718-0.0113 0.13228-0.0189 0.18897-0.0189zm-194.14 0.30577c0.55189-4.6e-4 1.3899 0.22072 1.1658 0.82401-0.70405 0.12246-1.5883 0.2691-2.195-0.19616-0.68742-0.63462 0.43056-0.61633 0.81411-0.61455 0.0635-8e-3 0.13644-0.0113 0.21506-0.0151zm12.415 0c0.55192-4.6e-4 1.3897 0.22072 1.1648 0.82401-0.70413 0.12246-1.5882 0.2691-2.195-0.19616-0.68685-0.63454 0.43106-0.61636 0.81513-0.61455 0.0635-8e-3 0.13644-0.0113 0.21506-0.0151zm-10.32 8e-3c0.05669 6.8e-4 0.11981 8e-3 0.19049 0.0189 0.69456-6.8e-4 1.2477-0.0113 1.9451 8e-3 1.1715-0.0189 2.463-0.0227 3.5564-6.8e-4 0.50279-0.0423 1.0047 0.0151 1.5072-0.0189 0.61096-4e-3 1.3312 3e-3 1.4484 0.71558-0.44296 0.40539-1.2244 0.0888-1.7743 0.19389-2.1328-0.0113-4.2643 0.0151-6.3964-0.0113-0.6669 0.14892-1.3266-0.91857-0.4769-0.90353zm187.4 0.84442c0.9052 0.0151 1.8217 0.0446 2.7133 0.21921 1.1754 0.10469 0.69695 1.4758 0.10205 2.0039-0.51137 0.67665-1.2665 1.1429-2.1358 1.1348-1.6993 0.14589-3.4526 0.21128-5.1179-0.20636-0.6875-0.18595-0.45392-1.1508-0.0983-1.5498 0.31748-0.48276 1.0586-1.0769 1.3897-1.2221 0.97587-0.43763 2.0976-0.34167 3.1457-0.3798zm-182.76 0.31294c1.0481 0.0382 2.1703-0.0578 3.1461 0.37981 0.33109 0.14513 1.0738 0.73931 1.3893 1.2221 0.35716 0.39893 0.59063 1.3638-0.09676 1.5498-1.6656 0.41749-3.4191 0.35225-5.1182 0.20636-0.86903 8e-3 -1.6239-0.45815-2.1352-1.1348-0.59516-0.528-1.0735-1.8994 0.10167-2.0039 0.89197-0.17461 1.8081-0.20485 2.7131-0.21921zm87.335 49.094c-1.9931 0-3.5977 1.6045-3.5977 3.5976v18.663c0 1.9931 1.6045 3.5976 3.5977 3.5976h7.4202c1.9931 0 3.5977-1.6045 3.5977-3.5976v-18.663c0-1.9931-1.6046-3.5976-3.5977-3.5976zm1.7989 1.818h3.8222c1.993 0 3.598 1.1028 3.598 2.473v14.996c0 1.3703-1.605 2.4734-3.598 2.4734h-3.8222c-1.9931 0-3.5976-1.1031-3.5976-2.4734v-14.996c0-1.3703 1.6045-2.473 3.5976-2.473zm1.9109 20.539c0.74494 0 1.349 0.60386 1.3492 1.3488 0 0.7451-0.60408 1.3491-1.3492 1.3491-0.74513 4e-5 -1.3491-0.60401-1.3491-1.3491 1.9e-4 -0.74502 0.60408-1.3489 1.3491-1.3488z" color="#000000" color-rendering="auto" dominant-baseline="auto" fill="#6fa7cf" fill-opacity=".99608" fill-rule="evenodd" image-rendering="auto" shape-rendering="auto" solid-color="#000000" style="font-feature-settings:normal;font-variant-alternates:normal;font-variant-caps:normal;font-variant-ligatures:normal;font-variant-numeric:normal;font-variant-position:normal;isolation:auto;mix-blend-mode:normal;paint-order:normal;shape-padding:0;text-decoration-color:#000000;text-decoration-line:none;text-decoration-style:solid;text-indent:0;text-orientation:mixed;text-transform:none;white-space:normal"/>
</svg>
