<?xml version="1.0" encoding="UTF-8"?>
<svg version="1.1" width="208" height="256" viewBox="0 0 207.84 256" xmlns="http://www.w3.org/2000/svg" xmlns:cc="http://creativecommons.org/ns#" xmlns:dc="http://purl.org/dc/elements/1.1/" xmlns:rdf="http://www.w3.org/1999/02/22-rdf-syntax-ns#">
<metadata>
<rdf:RDF>
<cc:Work rdf:about="">
<dc:format>image/svg+xml</dc:format>
<dc:type rdf:resource="http://purl.org/dc/dcmitype/StillImage"/>
</cc:Work>
</rdf:RDF>
</metadata>
<path d="m207.84 76.899a2.2658 2.2658 0 0 0 -0.91805 -1.8209l-100.82-74.641a2.2658 2.2658 0 0 0 -0.0718 -0.046866 2.2658 2.2658 0 0 0 -0.0832 -0.055937 2.2658 2.2658 0 0 0 -0.10582 -0.058961 2.2658 2.2658 0 0 0 -0.0945 -0.050646 2.2658 2.2658 0 0 0 -0.10583 -0.046866 2.2658 2.2658 0 0 0 -0.10961 -0.044598 2.2658 2.2658 0 0 0 -0.0945 -0.030236 2.2658 2.2658 0 0 0 -0.11717 -0.034016 2.2658 2.2658 0 0 0 -0.11339 -0.026457 2.2658 2.2658 0 0 0 -0.1096 -0.018898 2.2658 2.2658 0 0 0 -0.11339 -0.011339 2.2658 2.2658 0 0 0 -0.10582 -0.011339 2.2658 2.2658 0 0 0 -0.12851 0 2.2658 2.2658 0 0 0 -0.0983 0 2.2658 2.2658 0 0 0 -0.1285 0.011339 2.2658 2.2658 0 0 0 -0.0907 0.011339 2.2658 2.2658 0 0 0 -0.14362 0.026457 2.2658 2.2658 0 0 0 -0.0794 0.015118 2.2658 2.2658 0 0 0 -0.13984 0.040063 2.2658 2.2658 0 0 0 -0.0756 0.026457 2.2658 2.2658 0 0 0 -0.12851 0.051402 2.2658 2.2658 0 0 0 -0.0869 0.037795 2.2658 2.2658 0 0 0 -0.0983 0.051402 2.2658 2.2658 0 0 0 -0.10583 0.058961 2.2658 2.2658 0 0 0 -0.0945 0.06274 2.2658 2.2658 0 0 0 -0.0605 0.038929l-0.0605 0.044598-102.42 74.596a2.2658 2.2658 0 0 0 -0.17764 0.14211 2.2658 2.2658 0 0 0 -0.15874 0.15761 2.2658 2.2658 0 0 0 -0.14362 0.1731 2.2658 2.2658 0 0 0 -0.037795 0.0378 2.2658 2.2658 0 0 0 -0.20787 0.34998 2.2658 2.2658 0 0 0 -0.086929 0.20787 2.2658 2.2658 0 0 0 -0.064252 0.21619 2.2658 2.2658 0 0 0 -0.064252 0.44632 2.2658 2.2658 0 0 0 0 0.09146v103.35a2.2658 2.2658 0 0 0 0 0.13191 2.2658 2.2658 0 0 0 0 0.0548 2.2658 2.2658 0 0 0 0 0.13418 2.2658 2.2658 0 0 0 0 0.11074 2.2658 2.2658 0 0 0 0.037795 0.0881 2.2658 2.2658 0 0 0 0.037795 0.12548 2.2658 2.2658 0 0 0 0.037795 0.11074 2.2658 2.2658 0 0 0 0.037795 0.10053 2.2658 2.2658 0 0 0 0.052913 0.11641 2.2658 2.2658 0 0 0 0.041575 0.0873 2.2658 2.2658 0 0 0 0.064252 0.11301 2.2658 2.2658 0 0 0 0.052913 0.0805 2.2658 2.2658 0 0 0 0.071811 0.10054 2.2658 2.2658 0 0 0 0.064252 0.085 2.2658 2.2658 0 0 0 0.07937 0.0873 2.2658 2.2658 0 0 0 0.071811 0.0782 2.2658 2.2658 0 0 0 0.094488 0.0873 2.2658 2.2658 0 0 0 0.068032 0.0627 2.2658 2.2658 0 0 0 0.10961 0.0862l102.44 73.461 0.0416 0.0302a2.2658 2.2658 0 0 0 0.0718 0.0446 2.2658 2.2658 0 0 0 0.10204 0.0654 2.2658 2.2658 0 0 0 0.0945 0.0514 2.2658 2.2658 0 0 0 0.10205 0.0529 2.2658 2.2658 0 0 0 0.12472 0.0514 2.2658 2.2658 0 0 0 0.0794 0.0302 2.2658 2.2658 0 0 0 0.13607 0.0412 2.2658 2.2658 0 0 0 0.0907 0.0265 2.2658 2.2658 0 0 0 0.13229 0.0265 2.2658 2.2658 0 0 0 0.0832 0.0151 2.2658 2.2658 0 0 0 0.15118 0.0151 2.2658 2.2658 0 0 0 0.0756 4e-3 2.2658 2.2658 0 0 0 0.15874 0 2.2658 2.2658 0 0 0 0.0567 0 2.2658 2.2658 0 0 0 0.1663 -0.0189 2.2658 2.2658 0 0 0 0.0605 -8e-3 2.2658 2.2658 0 0 0 0.14363 -0.0302 2.2658 2.2658 0 0 0 0.0832 -0.0189 2.2658 2.2658 0 0 0 0.13984 -0.0435 2.2658 2.2658 0 0 0 0.068 -0.0227 2.2658 2.2658 0 0 0 0.15874 -0.0692 2.2658 2.2658 0 0 0 0.0453 -0.0189 2.2658 2.2658 0 0 0 0.14363 -0.0794 2.2658 2.2658 0 0 0 0.0567 -0.034 2.2658 2.2658 0 0 0 0.1285 -0.085l100.82-73.493a2.2658 2.2658 0 0 0 0.068 -0.054 2.2658 2.2658 0 0 0 0.0831 -0.0673 2.2658 2.2658 0 0 0 0.10205 -0.0975 2.2658 2.2658 0 0 0 0.0529 -0.0491 2.2658 2.2658 0 0 0 0.10583 -0.11867 2.2658 2.2658 0 0 0 0.0491 -0.0563 2.2658 2.2658 0 0 0 0.0907 -0.12964 2.2658 2.2658 0 0 0 0.0378 -0.0506 2.2658 2.2658 0 0 0 0.0794 -0.13984 2.2658 2.2658 0 0 0 0.0378 -0.065 2.2658 2.2658 0 0 0 0.0529 -0.12208 2.2658 2.2658 0 0 0 0.0378 -0.0903 2.2658 2.2658 0 0 0 0.0454 -0.13531 2.2658 2.2658 0 0 0 0.0378 -0.0726 2.2658 2.2658 0 0 0 0.0378 -0.14437 2.2658 2.2658 0 0 0 0 -0.0782 2.2658 2.2658 0 0 0 0.0378 -0.15458 2.2658 2.2658 0 0 0 0 -0.068 2.2658 2.2658 0 0 0 0 -0.13871zm-4.5309 8.5477v86.205l-24.495-43.242zm-3.4129 89.373-36.859-18.737 13.165-23.091zm-0.0378-92.476-23.648 41.478-12.955-22.87zm-1.1577-7.7101h-50.353l-36.366-64.2zm-0.0831 107.88-86.674 63.179 36.021-63.179zm-2.504-103.35-35.093 17.84-10.105-17.84zm0 98.817h-45.564l10.239-17.958zm-22.513-49.579-14.609 25.624-50.07-25.454 50.293-25.567zm-16.622-29.343-49.964 25.399v-45.294h38.694zm-0.23433 58.909-11.41 20.014h-38.319v-45.294zm-13.603-83.335h-36.128v-63.778zm-0.39193 107.88-35.736 62.68v-62.68zm-40.267-171.78v63.899h-36.791zm0 68.43v46.137l-51.028-25.939 11.629-20.197zm0 52.681v46.136h-39.018l-11.772-20.316zm0 50.667v62.8l-36.392-62.8zm-3.563-53.939-49.504 25.165-14.682-25.336 14.457-25.109zm-1.4169 117.18-88.188-63.244h51.539zm-0.037796-235.39-37.004 64.269h-51.236zm-39.239 167.62h-46.5l35.918-18.259zm-0.37417-98.817-10.444 18.14-35.683-18.14zm-12.483 76.631-37.336 18.98 24.089-41.839zm-0.22677-54.558-13.035 22.64-24.041-41.489zm-15.645 27.172-24.966 43.363v-86.446z" color="#000000" color-rendering="auto" dominant-baseline="auto" fill="#6fa7cf" fill-opacity=".99608" fill-rule="evenodd" image-rendering="auto" shape-rendering="auto" solid-color="#000000" style="font-feature-settings:normal;font-variant-alternates:normal;font-variant-caps:normal;font-variant-ligatures:normal;font-variant-numeric:normal;font-variant-position:normal;isolation:auto;mix-blend-mode:normal;paint-order:normal;shape-padding:0;text-decoration-color:#000000;text-decoration-line:none;text-decoration-style:solid;text-indent:0;text-orientation:mixed;text-transform:none;white-space:normal"/>
</svg>
