<?xml version="1.0" encoding="UTF-8"?>
<svg version="1.1" viewBox="0 0 256 256" xmlns="http://www.w3.org/2000/svg" xmlns:cc="http://creativecommons.org/ns#" xmlns:dc="http://purl.org/dc/elements/1.1/" xmlns:rdf="http://www.w3.org/1999/02/22-rdf-syntax-ns#">
<metadata>
<rdf:RDF>
<cc:Work rdf:about="">
<dc:format>image/svg+xml</dc:format>
<dc:type rdf:resource="http://purl.org/dc/dcmitype/StillImage"/>
</cc:Work>
</rdf:RDF>
</metadata>
<path d="m127.45 0.0012167c-13.628-0.059339-27.361 2.051-31.581 6.5108-8.4384 8.9193-5.1637 58.202 1.2855 66.755 2.6916 3.5695 12.474 5.3915 23.407 5.8027v38.979h-81.008c-0.7251 0-1.425 0.0654-2.1044 0.17348-0.42123-0.10432-0.85259-0.17348-1.2952-0.17348-4.1731 0-7.5316 4.8613-7.5316 10.899v47.929c-10.653 0.6483-20.169 2.6885-23.551 6.263-8.4384 8.9193-5.1656 58.204 1.2836 66.757 6.449 8.5527 53.505 7.1811 59.955 0 6.4492-7.1811 8.8656-58.314 1.2835-66.757-3.1314-3.4869-12.922-5.5925-23.907-6.261v-44.608h76.876v44.734c-11.113 0.56662-21.19 2.6257-24.693 6.3279-8.4384 8.9193-5.1637 58.204 1.2855 66.757 6.4491 8.5527 53.503 7.181 59.953 0 6.4492-7.1811 8.8654-58.314 1.2835-66.757-3.2408-3.6086-13.603-5.7474-25.053-6.3338v-44.728h78.984v43.882c-10.653 0.6483-20.167 2.6891-23.549 6.263-8.4385 8.9195-5.1657 58.205 1.2834 66.757 6.4491 8.5528 53.505 7.1811 59.955 0 6.4492-7.1803 8.8656-58.314 1.2835-66.757-3.1314-3.486-12.922-5.5926-23.907-6.261v-47.207c0-0.82481-0.0661-1.6261-0.18519-2.3978 0.1217-0.44958 0.18519-0.91223 0.18519-1.3888 0-2.1885-1.3752-4.1166-3.502-5.4191-1.165-1.0673-2.5428-1.6936-4.0295-1.6936-0.31975 0-0.63379 0.0408-0.94288 0.0945-0.43385-0.0412-0.86275-0.0839-1.313-0.0945h-84.262v-39.12c11.08-0.65227 21.048-2.6311 23.77-5.6611 6.4492-7.1811 8.8654-58.313 1.2835-66.755-3.7911-4.2213-17.313-6.4512-30.941-6.5108zm0.1852 7.9782c10.828 0.047244 21.572 1.8203 24.585 5.1733 6.0242 6.7058 4.1024 47.319-1.0217 53.023-5.1241 5.7037-42.51 6.7932-47.634 0-5.1241-6.7934-7.7263-45.939-1.0216-53.023 3.3523-3.5422 14.265-5.2206 25.093-5.1733zm93.281 177.11c10.828 0.0472 21.571 1.8165 24.583 5.1694 6.0242 6.7058 4.1044 47.321-1.0197 53.025-5.1241 5.7037-42.51 6.7933-47.634 0-5.1241-6.7934-7.7263-45.941-1.0217-53.025 3.3523-3.5424 14.265-5.2166 25.092-5.1694zm-93.281 0.034c10.828 0.0473 21.572 1.8203 24.585 5.1733 6.0242 6.7058 4.1024 47.321-1.0217 53.025-5.1241 5.7037-42.51 6.7934-47.634 0-5.1241-6.7934-7.7263-45.94-1.0216-53.025 3.3523-3.5422 14.265-5.2206 25.093-5.1733zm-92.5 0.56652c10.828 0.0472 21.571 1.8163 24.583 5.1693 6.0241 6.7059 4.1025 47.321-1.0216 53.025-5.1242 5.7038-42.51 6.7934-47.634 0-5.1241-6.7934-7.7244-45.941-1.0197-53.025 3.3523-3.5423 14.265-5.2167 25.092-5.1693z" fill="#71a7cf" fill-opacity=".99608" fill-rule="evenodd" style="paint-order:normal"/>
</svg>
