<?xml version="1.0" encoding="UTF-8"?>
<svg version="1.1" width="256" height="230" viewBox="0 0 256 230.18" xmlns="http://www.w3.org/2000/svg" xmlns:cc="http://creativecommons.org/ns#" xmlns:dc="http://purl.org/dc/elements/1.1/" xmlns:rdf="http://www.w3.org/1999/02/22-rdf-syntax-ns#">
<metadata>
<rdf:RDF>
<cc:Work rdf:about="">
<dc:format>image/svg+xml</dc:format>
<dc:type rdf:resource="http://purl.org/dc/dcmitype/StillImage"/>
</cc:Work>
</rdf:RDF>
</metadata>
<path d="m128.21 6.9755e-4c-12.07-0.034016-24.234 1.1755-27.971 3.737-7.4741 5.1227-4.5739 33.429 1.1382 38.341 2.384 2.0501 11.047 3.0958 20.731 3.332l11.317-0.0805c9.8134-0.37455 18.641-1.5112 21.052-3.2514 5.7121-4.1244 7.8536-33.492 1.1382-38.341-3.3578-2.4245-15.335-3.7027-27.405-3.737zm-6.1018 45.41c-9.6842 0.12094-18.347 0.65575-20.731 1.7043-5.7122 2.5126-21.065 15.34-10.944 19.623 5.0605 2.1415 21.532 3.1542 37.877 3.1256 16.345-0.02646 32.563-1.0987 37.11-3.1256 9.0937-4.0538-5.2314-17.513-10.944-19.623-2.4104-0.89012-11.238-1.4714-21.052-1.6631zm11.765 26.428-12.092 0.1217v34.04h-76.672c-0.68644 0-1.3483 0.0574-1.9913 0.15156-0.39859-0.0911-0.80772-0.15156-1.2267-0.15156-3.9496 0-7.128 4.2454-7.128 9.5183v41.856l14.256-0.0472v-38.905h72.762v38.659l12.092-0.0393v-38.62h74.757v38.321l-7.6705 0.0767 21.93-0.0745v-41.227c0-0.7203-0.0643-1.4177-0.17688-2.0916 0.11528-0.39261 0.17688-0.79876 0.17688-1.2148 0-1.9112-1.3034-3.5942-3.3164-4.7317-1.1026-0.93207-2.4066-1.4802-3.8136-1.4802-0.30236 0-0.59996 0.034-0.89246 0.0824-0.41053-0.034-0.81623-0.0729-1.2424-0.0824h-79.752zm81.968 87.774c-12.07-0.034-24.234 1.1775-27.971 3.739-7.4741 5.1226-4.5739 33.426 1.1382 38.339 2.384 2.0501 11.049 3.0958 20.733 3.332l11.315-0.0805c9.8133-0.37455 18.643-1.5112 21.054-3.2514 5.712-4.1244 7.8516-33.49 1.1362-38.339-3.3578-2.4245-15.335-3.7047-27.405-3.739zm-6.0998 45.41c-9.6842 0.12056-18.349 0.65574-20.733 1.7043-5.7121 2.5126-21.065 14.031-10.944 18.314 5.0605 2.1415 21.534 4.463 37.879 4.4344 16.345-0.0302 32.561-1.0987 37.108-3.1256 9.0937-4.0538-5.2295-17.513-10.942-19.623-2.4104-0.89012-11.24-1.4714-21.054-1.6631zm-168.59-44.72c-12.071-0.034-24.234 1.1775-27.971 3.7389-7.4741 5.1227-4.574 33.429 1.1381 38.341 2.3841 2.0501 11.049 3.0958 20.733 3.332l11.315-0.0805c9.8133-0.37455 18.643-1.5112 21.054-3.2514 5.7121-4.1244 7.8517-33.492 1.1362-38.341-3.3577-2.4244-15.335-3.7047-27.405-3.7389zm-6.0999 45.412c-9.6842 0.12095-18.349 0.65575-20.733 1.7043-5.7121 2.5126-21.064 15.34-10.943 19.623 5.0605 2.1415 21.534 3.1542 37.879 3.1256 16.345-0.0265 32.561-1.0987 37.108-3.1256 9.0937-4.0538-5.2295-17.513-10.942-19.623-2.4104-0.89011-11.24-1.4714-21.054-1.6631zm93.102-45.398c-12.07-0.034-24.234 1.1775-27.971 3.7389-7.4741 5.1226-4.574 33.427 1.1381 38.339 2.384 2.0501 11.049 3.0958 20.733 3.332l11.315-0.0805c9.8133-0.37455 18.643-1.5112 21.054-3.2514 5.7121-4.1243 7.8517-33.49 1.1362-38.339-3.3578-2.4245-15.335-3.7047-27.405-3.739zm-6.0999 45.41c-9.6842 0.12095-18.349 0.65579-20.733 1.7044-5.7121 2.5126-21.064 15.34-10.944 19.623 5.0605 2.1415 21.532 3.1541 37.877 3.1256 16.345-0.0265 32.563-1.0987 37.11-3.1256 9.0937-4.0538-5.2295-17.513-10.942-19.623-2.4103-0.89012-11.24-1.4714-21.054-1.6631z" fill="#71a7cf" fill-opacity=".99608" fill-rule="evenodd" style="paint-order:normal"/>
</svg>
