<?xml version="1.0" encoding="UTF-8"?>
<svg version="1.1" viewBox="0 0 256 230.17" xmlns="http://www.w3.org/2000/svg" xmlns:cc="http://creativecommons.org/ns#" xmlns:dc="http://purl.org/dc/elements/1.1/" xmlns:rdf="http://www.w3.org/1999/02/22-rdf-syntax-ns#">
<metadata>
<rdf:RDF>
<cc:Work rdf:about="">
<dc:format>image/svg+xml</dc:format>
<dc:type rdf:resource="http://purl.org/dc/dcmitype/StillImage"/>
</cc:Work>
</rdf:RDF>
</metadata>
<path d="m128.21 6.9757e-4c-12.07-0.034016-24.234 1.1755-27.971 3.7369-7.474 5.1227-4.5739 33.429 1.1382 38.341 2.384 2.0501 11.047 3.0958 20.731 3.332l11.317-0.0805c9.8134-0.37455 18.641-1.5112 21.052-3.2514 5.7121-4.1244 7.8536-33.492 1.1382-38.341-3.3578-2.4245-15.335-3.7027-27.405-3.737zm-6.1018 45.41c-9.6842 0.12094-18.347 0.65575-20.731 1.7043-5.7122 2.5126-21.065 15.34-10.944 19.623 5.0605 2.1414 21.532 3.1541 37.877 3.1256 16.345-0.02646 32.563-1.0987 37.11-3.1256 9.0937-4.0538-5.2314-17.513-10.944-19.623-2.4103-0.89012-11.238-1.4714-21.052-1.663zm6.265-40.828c9.5905 0.026457 19.107 1.0446 21.775 2.9703 5.3357 3.8514 3.6343 27.176-0.90426 30.452-4.5385 3.2758-37.651 3.9016-42.19 0-4.5385-3.9017-6.8447-26.383-0.90626-30.452 2.9693-2.0344 12.635-2.9975 22.225-2.9703zm-0.22412 43.24c9.4129 0.04006 18.826 0.53828 21.095 1.3761 4.5386 1.6756 15.999 11.13 8.7733 14.35-3.6127 1.61-16.498 2.4604-29.485 2.4828-12.987 0.02268-26.076-0.78191-30.096-2.4828-8.0416-3.4018 4.0794-12.355 8.618-14.35 2.2692-0.99783 11.682-1.4161 21.095-1.3761zm5.7244 24.016-12.092 0.12208v34.04h-76.672c-0.68644 0-1.3483 0.0575-1.9913 0.15156-0.39859-0.0911-0.80772-0.15156-1.2267-0.15156-3.9496 0-7.128 4.2455-7.128 9.5184v41.856l14.256-0.0472v-38.905h72.762v38.659l12.092-0.0393v-38.62h74.757v38.321l-7.6705 0.0767 21.93-0.0748v-41.227c0-0.72034-0.0643-1.4177-0.17689-2.0916 0.11528-0.39262 0.17689-0.79873 0.17689-1.2149 0-1.9112-1.3034-3.5941-3.3164-4.7317-1.1026-0.93203-2.4066-1.4802-3.8135-1.4802-0.30236 0-0.59996 0.0378-0.89246 0.0824-0.41053-0.0378-0.81623-0.0733-1.2424-0.0824h-79.752zm81.968 87.774c-12.07-0.034-24.234 1.1775-27.971 3.7389-7.474 5.1227-4.5739 33.427 1.1382 38.339 2.384 2.0501 11.049 3.0958 20.733 3.332l11.315-0.0805c9.8133-0.37455 18.643-1.5112 21.054-3.2514 5.712-4.1243 7.8516-33.49 1.1362-38.339-3.3578-2.4244-15.335-3.7047-27.405-3.7389zm-6.0998 45.41c-9.6842 0.12094-18.349 0.65575-20.733 1.7043-5.7121 2.5126-21.065 15.34-10.944 19.623 5.0605 2.1415 21.534 3.1541 37.879 3.1256 16.345-0.0265 32.561-1.0987 37.108-3.1256 9.0937-4.0538-5.2295-17.513-10.942-19.623-2.4104-0.89012-11.24-1.4715-21.054-1.6631zm-168.59-44.72c-12.071-0.034-24.234 1.1775-27.971 3.7389-7.4741 5.1227-4.574 33.428 1.1381 38.341 2.3841 2.0501 11.049 3.0958 20.733 3.332l11.315-0.0805c9.8133-0.37455 18.643-1.5112 21.054-3.2514 5.7121-4.1244 7.8517-33.492 1.1362-38.341-3.3577-2.4244-15.335-3.7047-27.405-3.7389zm-6.0999 45.412c-9.6842 0.12095-18.349 0.65575-20.733 1.7043-5.7122 2.5126-21.064 15.34-10.943 19.623 5.0605 2.1415 21.534 3.1541 37.879 3.1256 16.345-0.0265 32.561-1.0987 37.108-3.1256 9.0937-4.0538-5.2295-17.513-10.942-19.623-2.4104-0.89011-11.24-1.4714-21.054-1.6631zm93.102-45.7c-12.07-0.034-24.234 1.1775-27.971 3.7389-7.474 5.1227-4.574 33.427 1.1381 38.339 2.384 2.0501 11.049 3.0958 20.733 3.332l11.315-0.0805c9.8133-0.37455 18.643-1.5112 21.054-3.2514 5.7122-4.1243 7.8517-33.49 1.1363-38.339-3.3578-2.4244-15.335-3.7047-27.405-3.7389zm-6.0999 45.41c-9.6842 0.12095-18.349 0.65579-20.733 1.7043-5.7121 2.5126-21.064 15.34-10.944 19.623 5.0605 2.1415 21.532 3.1541 37.877 3.1256 16.345-0.0302 32.563-1.0987 37.11-3.1256 9.0937-4.0538-5.2295-17.513-10.942-19.623-2.4103-0.89007-11.24-1.4714-21.054-1.663zm93.957-41.23c9.5905 0.0265 19.107 1.0446 21.775 2.9703 5.3357 3.8514 3.6342 27.176-0.90429 30.452-4.5385 3.2758-37.653 3.9016-42.192 0-4.5386-3.9017-6.8428-26.383-0.90426-30.452 2.9692-2.0344 12.635-2.9975 22.225-2.9703zm-174.69 0.68999c9.5905 0.0265 19.107 1.0466 21.775 2.9723 5.3356 3.8514 3.6343 27.176-0.90421 30.452-4.5386 3.2758-37.653 3.9016-42.192 0-4.5386-3.9017-6.8428-26.383-0.90433-30.452 2.9692-2.0344 12.635-2.9995 22.225-2.9723zm87.002-0.288c9.5904 0.0265 19.107 1.0446 21.775 2.9703 5.3357 3.8514 3.6323 27.176-0.90622 30.452-4.5385 3.2758-37.651 3.9016-42.19 0-4.5385-3.9017-6.8428-26.383-0.90433-30.452 2.9693-2.0344 12.635-2.9975 22.225-2.9703zm87.468 42.837c9.4129 0.0401 18.826 0.53828 21.095 1.376 4.5385 1.6756 15.999 11.13 8.7733 14.35-3.6127 1.61-16.498 2.4623-29.485 2.4848-12.987 0.0227-26.076-0.78387-30.096-2.4848-8.0416-3.4018 4.0775-12.355 8.616-14.35 2.2692-0.99779 11.684-1.4161 21.097-1.376zm-174.69 0.68999c9.4129 0.0401 18.826 0.53828 21.095 1.376 4.5385 1.6756 15.999 11.132 8.7733 14.352-3.6127 1.61-16.498 2.4604-29.485 2.4828-12.987 0.0227-26.076-0.78191-30.096-2.4828-8.0416-3.4018 4.0775-12.357 8.6161-14.352 2.2691-0.99779 11.684-1.4161 21.097-1.376zm87-0.288c9.4129 0.0401 18.826 0.53828 21.095 1.376 4.5385 1.6756 16.001 11.13 8.7754 14.35-3.6127 1.61-16.5 2.4623-29.487 2.4848-12.987 0.0227-26.074-0.78387-30.094-2.4848-8.0416-3.4018 4.0775-12.355 8.6161-14.35 2.2692-0.99779 11.682-1.4161 21.095-1.376z" fill="#71a7cf" fill-opacity=".99608" fill-rule="evenodd" style="paint-order:normal"/>
</svg>
