<?xml version="1.0" encoding="UTF-8"?>
<svg version="1.1" viewBox="0 0 256 243.8" xmlns="http://www.w3.org/2000/svg" xmlns:cc="http://creativecommons.org/ns#" xmlns:dc="http://purl.org/dc/elements/1.1/" xmlns:rdf="http://www.w3.org/1999/02/22-rdf-syntax-ns#">
<metadata>
<rdf:RDF>
<cc:Work rdf:about="">
<dc:format>image/svg+xml</dc:format>
<dc:type rdf:resource="http://purl.org/dc/dcmitype/StillImage"/>
</cc:Work>
</rdf:RDF>
</metadata>
<path d="m105.1 0-80.218 10.624 13.902 13.808c-2.3688 2.0454-4.7717 4.4108-7.1949 7.1467-19.967 22.89-31.548 52.603-31.592 84.103 0 70.757 57.307 128.12 128 128.12 70.693 0 128-57.36 128-128.12-0.03401-44.106-22.694-84.718-59.326-108.02 36.176 74.117 40.236 184.44-68.674 186.86-43.503 0-78.772-35.297-78.772-78.84 0.02646-20.758 8.2264-40.674 22.826-55.417 0.42724-0.51832 0.83709-1.0374 1.2342-1.5578l15.169 15.067z" fill="#71a7cf" fill-rule="evenodd" style="paint-order:normal"/>
</svg>
