<?xml version="1.0" encoding="UTF-8"?>
<svg version="1.1" viewBox="0 0 199.27 256" xmlns="http://www.w3.org/2000/svg" xmlns:cc="http://creativecommons.org/ns#" xmlns:dc="http://purl.org/dc/elements/1.1/" xmlns:rdf="http://www.w3.org/1999/02/22-rdf-syntax-ns#">
<metadata>
<rdf:RDF>
<cc:Work rdf:about="">
<dc:format>image/svg+xml</dc:format>
<dc:type rdf:resource="http://purl.org/dc/dcmitype/StillImage"/>
</cc:Work>
</rdf:RDF>
</metadata>
<path d="m103.81 0c-13.32 0-24.043 11.632-24.043 26.08v133.4c0 14.445 10.723 26.08 24.043 26.08 13.32 0 24.043-11.636 24.043-26.08v-133.4c0-14.448-10.723-26.08-24.043-26.08zm49.281 72.198c28.159 57.692 31.32 143.56-53.454 145.45-33.862 0-61.314-27.475-61.314-61.368 0.0189-16.158 6.402-31.659 17.767-43.134 20.581-24.981-3.9117-53.475-31.496-22.329-15.542 17.817-24.557 40.945-24.591 65.464 0 55.076 44.608 99.724 99.634 99.724 55.027 0 99.634-44.648 99.634-99.724-0.0265-34.332-17.666-65.943-46.18-84.078z" fill="#71a7cf" fill-rule="evenodd" style="paint-order:normal"/>
</svg>
