<?xml version="1.0" encoding="UTF-8"?>
<svg version="1.1" viewBox="0 0 211.63 256" xmlns="http://www.w3.org/2000/svg" xmlns:cc="http://creativecommons.org/ns#" xmlns:dc="http://purl.org/dc/elements/1.1/" xmlns:rdf="http://www.w3.org/1999/02/22-rdf-syntax-ns#">
<metadata>
<rdf:RDF>
<cc:Work rdf:about="">
<dc:format>image/svg+xml</dc:format>
<dc:type rdf:resource="http://purl.org/dc/dcmitype/StillImage"/>
</cc:Work>
</rdf:RDF>
</metadata>
<path d="m97.135 0.0029506c-19.609 0.048-38.753 0.65352-54.171 1.8892-8.81 0.70613-16.396 1.6121-22.213 2.7563-2.9087 0.57207-5.3754 1.2024-7.3668 1.9222-1.9891 0.71898-3.5243 1.4723-4.6184 2.6903-0.00129 0.00144-0.00756-0.00144-0.00756 0a1.8769 1.8769 0 0 0 -0.46167 1.0474c-0.75863 1.1579-1.3956 2.3751-1.9144 4.2459-0.64687 2.3322-1.2302 5.2737-1.7651 8.7808-1.0697 7.0142-1.9473 16.274-2.6476 27.06-1.4006 21.572-2.069 49.238-1.9571 76.931 0.11187 27.692 1.0052 55.399 2.7349 77.049 0.86483 10.825 1.9349 20.13 3.2392 27.212 0.65216 3.5406 1.3549 6.5232 2.1492 8.9011 0.79427 2.3779 1.5954 4.1572 2.9095 5.402 2.3921 2.2658 6.5499 3.5007 12.449 4.7289 5.8988 1.2282 13.475 2.221 22.198 3.0123 15.29 1.387 34.096 2.1336 53.31 2.2675 1.5577 0.0654 3.1298 0.10696 4.7095 0.10091 1.257-4e-3 2.5105-0.034 3.7513-0.0816 21.875-0.051 43.679-0.88826 60.863-2.4847 8.6342-0.80213 16.096-1.793 21.862-2.9909 5.7663-1.1979 9.7681-2.3169 12.038-4.5815 1.2486-1.2463 1.9264-2.9829 2.6321-5.336 0.70568-2.3531 1.3238-5.3262 1.897-8.8642 1.1464-7.076 2.0774-16.417 2.8086-27.301 1.4623-21.767 2.1278-49.673 2.0599-77.532-0.068-27.859-0.8688-55.656-2.3606-77.189-0.74589-10.766-1.6625-19.962-2.7563-26.86-0.54686-3.4492-1.139-6.318-1.7962-8.5694-0.6571-2.2514-1.2297-3.8765-2.5002-5.0664-1.1227-1.0515-2.6024-1.6608-4.5737-2.2869-1.9714-0.62612-4.4252-1.1884-7.3242-1.7147-5.7979-1.0526-13.38-1.9474-22.184-2.6845-17.608-1.4741-40.084-2.3146-62.57-2.4401-2.8108-0.015118-5.6208-0.018898-8.422-0.015118zm0.0076 3.7533c2.7913-0.00756 5.5921-0.00204 8.3929 0.015118 0.6466 0.00363 1.2912 0.011339 1.9377 0.018898-0.40256 0.19654-0.78633 0.41401-1.1366 0.67888a1.8769 1.8769 0 0 0 -0.74094 1.414c-0.30349 0.34734-0.58862 0.71433-0.86509 1.0901h-20.403v-0.98922h-3.7416v0.98922h-2.3315v-0.98922h-3.7416v0.98922h-2.3314v-0.98922h-3.7416v0.98922h-2.3295v-0.98922h-3.7435v0.98922h-2.3295v-0.98922h-3.7435v0.98922h-2.3295v-0.98922h-3.7416v64.069h-10.66v-24.742h-7.7062l0.07975 24.742h-10.534v-24.742h-7.7063l0.39375 122.6h0.57993v54.902h60.025c-0.09071 1.8559-0.14211 3.7487-0.12246 5.658 0.05027 4.7458 0.44156 9.4957 1.2317 13.512 0.79007 4.016 1.8076 7.3052 3.9511 9.3317 0.18746 0.17726 0.39662 0.33752 0.60325 0.49849-12.41-0.36133-24.184-0.99247-34.326-1.9125-8.6341-0.78327-16.099-1.7743-21.765-2.9542-5.6663-1.1798-9.5917-2.7767-10.639-3.7688-0.40558-0.38415-1.2219-1.7576-1.928-3.8716-0.70613-2.114-1.391-4.9609-2.0231-8.3929-1.2643-6.864-2.33-16.082-3.1888-26.831-1.7176-21.498-2.6078-49.142-2.7194-76.764-0.1115-27.622 0.55722-55.233 1.9494-76.675 0.69608-10.721 1.5768-19.906 2.6185-26.736 0.52089-3.4152 1.0815-6.2414 1.6642-8.3425 0.58277-2.101 1.2932-3.4968 1.5614-3.7959 0.30614-0.34129 1.3885-1.0399 3.0996-1.6584 1.7111-0.61852 4.0289-1.2185 6.8179-1.767 5.578-1.097 13.063-2.0046 21.788-2.7039 15.268-1.2237 34.337-1.8276 53.876-1.8756zm37.189 1.061c5.9448 0.043465 11.898 0.33902 16.671 0.84374 2.3867 0.25247 4.4833 0.56016 6.106 0.90195 1.6227 0.34167 2.8186 0.79204 3.117 0.98147 0.60692 0.38532 1.8045 2.3136 2.5216 5.1479 0.71709 2.8342 1.1242 6.467 1.1579 10.108 0.034 3.6405-0.3103 7.3075-1.0125 10.212-0.70182 2.9048-1.8771 4.9412-2.733 5.5203-0.86464 0.58484-4.508 1.6105-9.0834 2.1569-4.5754 0.54637-10.235 0.83448-15.909 0.84956-5.6742 0.01512-11.377-0.24454-16.041-0.78361-4.6638-0.53896-8.4121-1.5317-9.5218-2.2442-1.111-0.71327-2.3711-2.7367-3.1966-5.5862-0.82545-2.8495-1.2789-6.427-1.3345-9.9989-0.0556-3.572 0.28687-7.1533 0.96011-10.001 0.6734-2.8476 1.8079-4.8946 2.5662-5.4679 0.27553-0.20825 1.418-0.70515 3.0201-1.0707 1.6021-0.36548 3.6844-0.68251 6.0634-0.92326 4.758-0.48151 10.703-0.68939 16.648-0.64592zm29.553 1.0765c1.3166 0.099401 2.6613 0.19654 3.9278 0.30274 8.7308 0.73096 16.227 1.6216 21.825 2.6379 2.7988 0.50816 5.1314 1.0485 6.8625 1.5983 1.7312 0.54981 2.8666 1.185 3.1442 1.4451 0.13002 0.1217 0.88237 1.3779 1.4664 3.3789 0.58405 2.0009 1.1538 4.7558 1.6856 8.1097 1.0635 6.7078 1.9799 15.829 2.7214 26.531 1.4828 21.403 2.285 49.146 2.3528 76.939 0.0677 27.793-0.59909 55.647-2.0522 77.276-0.72653 10.814-1.6501 20.08-2.764 26.956-0.55695 3.4378-1.1661 6.2785-1.7962 8.3793-0.63001 2.1008-1.3914 3.4578-1.6875 3.7533-0.82088 0.8191-4.6094 2.4206-10.146 3.5709s-12.895 2.1309-21.443 2.925c-12.019 1.1166-26.408 1.8533-41.491 2.2131 0.25738-0.19805 0.50426-0.4043 0.73122-0.63039 2.0416-2.0326 2.854-5.3018 3.5205-9.3608 0.66644-4.059 0.96121-8.8883 0.93101-13.702-0.0113-2.0272-0.0971-4.0351-0.22488-5.9916h65.811v-4.9927h-0.5664l0.0113-180.05h-15.762l0.093 20.929h-20.933v-15.397c0.8112-0.30312 1.5399-0.65393 2.1646-1.0765 2.3342-1.579 3.4774-4.4237 4.2808-7.7489 0.80338-3.3252 1.1495-7.2347 1.1133-11.128-0.0378-3.8931-0.45593-7.7555-1.2744-10.99-0.58809-2.3243-1.3019-4.3707-2.5002-5.8811zm-109.92 4.3119h2.3295v2.3257h-2.3295zm6.0731 0h2.3295v2.3257h-2.3295zm6.0731 0h2.3295v2.3257h-2.3295zm6.0712 0h2.3314v2.3257h-2.3314zm6.0731 0h2.3315v2.3257h-2.3315zm6.0731 0h18.623c-0.21922 0.5766-0.40978 1.192-0.56636 1.8543-0.0378 0.1508-0.0593 0.31786-0.093 0.47134h-17.963zm-59.658 2.3101-0.77783 1.961c-0.48854-0.0514-0.9823-0.05102-1.4702 0.0076l-0.7914-1.9591-2.4091 0.78947 0.52955 2.0463c-0.42391 0.24491-0.82212 0.53465-1.1851 0.86317l-1.7962-1.1192-1.4818 2.0483 1.6274 1.3403c-0.19805 0.44882-0.34772 0.91808-0.4461 1.3985l-2.1123 0.14551 0.0189 2.5274 2.1142 0.13191c0.10243 0.47804 0.25701 0.94337 0.45967 1.3888l-1.6254 1.3578 1.4974 2.0386 1.7883-1.1328c0.06916 0.0601 0.13606 0.1251 0.20561 0.18633 0.30765 0.25361 0.63651 0.48004 0.9834 0.67691l-0.51205 2.0425 2.4129 0.77197 0.77783-1.961c0.48847 0.0514 0.98037 0.05102 1.4683-0.0076l0.79332 1.9571 2.4071-0.7875-0.52758-2.0464c0.42391-0.24491 0.8222-0.53564 1.1851-0.8651l1.7961 1.1211 1.4819-2.0483-1.6274-1.3423c0.19805-0.44878 0.34885-0.91612 0.4461-1.3965l2.1103-0.14551-0.0189-2.5274-2.1142-0.1319c-0.10242-0.47804-0.25512-0.94345-0.45778-1.3888l1.6235-1.3578-1.4974-2.0386-1.7884 1.1347c-0.06917-0.06009-0.1338-0.12699-0.20372-0.18822-0.30765-0.25361-0.63662-0.47811-0.98343-0.67502l0.51209-2.0425zm165.3 0-0.77975 1.961c-0.48855-0.0514-0.98038-0.05102-1.4684 0.0076l-0.79136-1.9591-2.4091 0.78947 0.52955 2.0463c-0.42395 0.24491-0.82216 0.53465-1.1852 0.86317l-1.7961-1.1192-1.4838 2.0483 1.6294 1.3403c-0.19805 0.44882-0.34809 0.91808-0.44613 1.3985l-2.1123 0.14551 0.0189 2.5274 2.1142 0.13191c0.10242 0.47804 0.25701 0.94337 0.45966 1.3888l-1.6254 1.3578 1.4974 2.0386 1.7884-1.1328c0.0692 0.0601 0.13568 0.1251 0.20561 0.18633 0.30765 0.25361 0.63651 0.48004 0.98339 0.67691l-0.51209 2.0425 2.413 0.77197 0.77778-1.961c0.48855 0.0514 0.98041 0.05102 1.4684-0.0076l0.79332 1.9571 2.4071-0.7875-0.52758-2.0464c0.42391-0.24491 0.82027-0.53564 1.1832-0.8651l1.7981 1.1211 1.4819-2.0483-1.6274-1.3423c0.19805-0.44878 0.34886-0.91612 0.44614-1.3965l2.1103-0.14551-0.0189-2.5274-2.1143-0.1319c-0.10242-0.47804-0.25701-0.94345-0.4597-1.3888l1.6255-1.3578-1.4994-2.0386-1.7884 1.1347c-0.0692-0.06009-0.13606-0.12699-0.2056-0.18822-0.30766-0.25361-0.6347-0.47811-0.98151-0.67502l0.51209-2.0425zm-167.27 3.666c1.3071-0.12246 2.6602 0.25134 3.7513 1.1522h0.0019c2.1823 1.8012 2.4858 5.0246 0.67888 7.2-1.8069 2.1753-5.0411 2.478-7.2233 0.67695-2.182-1.8011-2.4855-5.0247-0.67888-7.2 0.90338-1.0877 2.1629-1.7065 3.47-1.8291zm165.3 0c1.3071-0.12246 2.6601 0.25134 3.7513 1.1522 2.1823 1.8012 2.4877 5.0246 0.68077 7.2-1.8069 2.1753-5.0411 2.478-7.2233 0.67695-2.182-1.8011-2.4854-5.0247-0.67884-7.2 0.90334-1.0877 2.1629-1.7065 3.47-1.8291zm-134.04 0.08353h2.3295v2.5759h-2.3295zm6.0731 0h2.3295v2.5759h-2.3295zm6.0731 0h2.3295v2.5759h-2.3295zm6.0712 0h2.3314v2.5759h-2.3314zm6.0731 0h2.3315v2.5759h-2.3315zm6.0731 0h17.346c-0.10091 0.84363-0.17877 1.7014-0.23471 2.5759h-17.112zm-30.363 6.0595h2.3295v2.0774h-2.3295zm6.0731 0h2.3295v2.0774h-2.3295zm6.0731 0h2.3295v2.0774h-2.3295zm6.0712 0h2.3314v2.0774h-2.3314zm6.0731 0h2.3315v2.0774h-2.3315zm6.0731 0h17.001c6.4e-4 0.22035-0.0113 0.43876-8e-3 0.65949 8e-3 0.47395 0.0401 0.94496 0.0601 1.4179h-17.053zm-30.363 6.0615h2.3295v2.5739h-2.3295zm6.0731 0h2.3295v2.5739h-2.3295zm6.0731 0h2.3295v2.5739h-2.3295zm6.0712 0h2.3314v2.5739h-2.3314zm6.0731 0h2.3315v2.5739h-2.3315zm6.0731 0h17.37c0.10923 0.87666 0.24567 1.7334 0.40535 2.5739h-17.775zm-30.363 6.0595h2.3295v2.0755h-2.3295zm6.0731 0h2.3295v2.0755h-2.3295zm6.0731 0h2.3295v2.0755h-2.3295zm6.0712 0h2.3314v2.0755h-2.3314zm6.0731 0h2.3315v2.0755h-2.3315zm6.0731 0h18.625c0.22073 0.71871 0.46277 1.4138 0.73512 2.0755h-19.36zm-30.363 6.0595h2.3295v37.315h-16.733v-3.4546h14.404zm6.0731 0h2.3295v45.636h-22.807v-4.0035h16.733v0.08542h3.7435zm6.0731 0h2.3295v13.698c-1.0864 0.14891-1.8006 0.31446-2.0211 0.49655-0.1183 0.09751-0.20183 0.19502-0.30841 0.29291zm6.0712 0h2.3314v13.203c-0.83966 0.04611-1.6018 0.09562-2.3314 0.1474zm6.0731 0h2.3315v12.947c-0.78735 0.02646-1.5905 0.05065-2.3315 0.07937zm6.0731 0h21.848c0.42617 0.43635 0.88384 0.83528 1.3985 1.1657 2.4413 1.5675 6.2508 2.2515 11.122 2.8145 4.8712 0.56292 10.684 0.82227 16.479 0.80689 0.69036-0.0019 1.374-0.02268 2.0619-0.03024v51.509h-3.3809c-0.44965-0.7516-0.98306-1.4365-1.6351-2.0463-1.3302-1.244-2.9009-1.8535-4.8162-2.4478-0.24945-0.07748-0.52067-0.1474-0.78165-0.2211v-30.621c3.9154-0.20409 6.4873-0.46473 6.8645-0.77975 1.9907-1.6625 2.371-4.618 0-6.2806v0.0037c-1.5834-1.1101-29.813-1.5006-49.161-1.0319zm73.265 2.9444v53.321h-1.5634v-53.007c0.5424-0.09751 1.0661-0.20107 1.5634-0.31408zm-4.0714 0.69438v52.627h-1.5614v-52.417c0.54535-0.0669 1.0471-0.13909 1.5614-0.20939zm-4.0713 0.47716v52.15h-1.5614v-51.995c0.54051-0.04535 1.0382-0.10394 1.5614-0.15534zm-4.0694 0.32768v51.822h-1.5634v-51.715c0.53487-0.02646 1.039-0.07257 1.5634-0.10658zm-4.0714 0.2075v51.614h-1.5634v-51.552c0.52853-0.01512 1.0404-0.04233 1.5634-0.06198zm-75.2 15.215c0.10583 0.09298 0.19124 0.18784 0.30841 0.27931 0.61848 0.48416 5.5109 0.8253 12.329 1.0396v30.451c-1.6872 0.62351-3.1407 1.4686-4.3002 2.7602a2.8154 2.8154 0 0 0 -0.61682 1.1444c-0.16214 0.23358-0.30954 0.47966-0.45778 0.72544h-33.812v-6.3136h26.158v-0.37644h0.39182zm93.99 0.24832h20.944l8e-3 1.5595h-20.952zm-38.729 1.0261v29.277c-0.22148-0.0378-0.43348-0.07748-0.65949-0.11263-0.83119-0.12926-1.729-0.23471-2.6127-0.34545v-28.723c1.1418-0.03024 2.219-0.06274 3.2722-0.09713zm-37.371 0.17839c1.0698 0.02268 2.1522 0.04006 3.2722 0.05632v28.486c-0.37417 0.04951-0.75334 0.09713-1.1172 0.15118-0.75885 0.11301-1.4446 0.23622-2.155 0.3549zm28.847 0.02646v28.077c-1.0715-0.08239-2.1694-0.14173-3.2722-0.19994v-27.842c1.0933-0.01512 2.2141-0.0189 3.2722-0.03402zm-20.322 0.06992c1.0864 0.0076 2.1686 0.01512 3.2722 0.0189v27.718c-1.113 0.04951-2.1969 0.11565-3.2722 0.19389zm11.797 0.0076v27.615c-0.29027-0.0038-0.57683-0.0189-0.86702-0.02268-0.8047-0.0076-1.603 0.0076-2.4052 0.01134v-27.576c1.1127-0.0026 2.1677-0.0189 3.2722-0.02646zm55.779 2.7524h20.962l8e-3 1.5595h-20.97zm0 4.0636h20.979l8e-3 1.5575h-20.987zm0 4.0616h20.997l8e-3 1.5595h-21.005zm-138.7 1.5595h10.548l0.01134 3.4545h-10.56zm138.7 2.5022h21.014l8e-3 1.5595h-21.022zm0 4.0636h21.032l0.0699 15.839h-21.102zm-138.7 1.2065h10.573l0.27742 85.766h0.0189v43.041h43.995c-0.32202 1.2358-0.57967 2.5999-0.8166 4.0752-0.13039 0.81181-0.23622 1.6736-0.33751 2.5429h-55.846v-49.659h2.1317zm81.988 13.013c0.31219 0.0034 0.62094 0.0189 0.93294 0.02646v1.2065c-1.0944-0.0189-2.182-0.02268-3.2722-0.01134v-1.2084c0.78043-0.0038 1.556-0.0189 2.3393-0.01134zm-7.5919 0.14551v1.2239c-1.1235 0.06236-2.211 0.14627-3.2722 0.24454v-1.2629c1.069-0.08239 2.1506-0.15307 3.2722-0.20561zm13.777 0.0737c1.1102 0.06123 2.2027 0.12888 3.2722 0.21543v1.1851h-0.72352c-0.83652-0.06992-1.684-0.12813-2.5487-0.18028zm-22.302 0.68277v0.71766h-3.2722v-0.08731c0.91684-0.22639 1.913-0.43593 2.9832-0.59546 0.09071-0.01512 0.19729-0.02268 0.28913-0.03402zm30.827 0.09109c0.57887 0.0771 1.1926 0.14551 1.7399 0.23093 0.55037 0.08579 1.0181 0.18784 1.5323 0.2812v0.11452h-3.2722zm-78.541 5.8694h31.743c-0.25739 1.0122-0.47304 2.1131-0.67113 3.2644h-31.071zm37.641 0h1.5478v0.81656c-0.27024 0.72477-0.51749 1.5449-0.74094 2.4479h-1.6565c0.25323-1.2217 0.54958-2.3138 0.8496-3.2644zm50.689 0h1.8427c0.31143 0.93777 0.62154 2.0394 0.88448 3.2644h-1.6332c-0.32012-1.2784-0.68621-2.3792-1.094-3.2644zm7.8479 0h22.069v3.2644h-21.449c-0.19843-1.1491-0.39565-2.2436-0.62068-3.2644zm27.165 0h18.324l0.0151 3.2644h-18.339zm-123.34 8.5054h30.377c-0.10545 1.07-0.20107 2.1512-0.27175 3.2664h-30.105zm36.027 0h1.5013c-0.13191 1.0513-0.24265 2.1382-0.33184 3.2664h-1.4509c0.07484-1.1201 0.17084-2.2102 0.2812-3.2664zm54.34 0h1.4838c0.11868 1.0591 0.22678 2.1406 0.31219 3.2664h-1.4431c-0.0979-1.1286-0.21544-2.2171-0.35301-3.2664zm7.1418 0h20.739v3.2664h-20.444c-0.0805-1.1162-0.18256-2.197-0.29481-3.2664zm25.834 0h18.363l0.0151 3.2664h-18.376zm-123.34 8.5073h29.917c-0.01512 0.93989-0.03024 1.879-0.02268 2.8241 0.0016 0.1474 0.01134 0.29291 0.01512 0.44031h-29.91zm35.548 0h1.3926c-0.02268 1.0843-0.02646 2.1718-0.01134 3.2644h-1.3908c-0.0026-0.16932-0.01512-0.33676-0.01512-0.50627-0.01134-0.92281 0.0076-1.8408 0.02268-2.7582zm55.478 0h1.3927c0.0227 0.85005 0.0567 1.6972 0.062 2.5526 1e-3 0.23773-8e-3 0.47395-8e-3 0.71187h-1.3946c-7e-5 -1.0932-0.0189-2.1802-0.0522-3.2644zm7.0255 0h20.196v3.2644h-20.145c-1.1e-4 -0.24756 8e-3 -0.49334 8e-3 -0.74098-4e-3 -0.84517-0.0378-1.6829-0.0582-2.5235zm25.291 0h18.402l0.0151 3.2644h-18.415zm-123.34 8.5054h30.121c0.06954 1.1021 0.14778 2.1938 0.2521 3.2664h-30.373zm35.763 0h1.4043c0.08164 1.1151 0.18444 2.2015 0.30841 3.2664h-1.4392c-0.11036-1.0672-0.19918-2.1543-0.27364-3.2664zm55.176 0h1.4062c-0.0514 1.1121-0.11716 2.1983-0.20145 3.2664h-1.4392c0.0975-1.0648 0.17612-2.151 0.23471-3.2664zm7.0448 0h20.264v3.2664h-20.45c0.0801-1.0729 0.13833-2.1629 0.18633-3.2664zm25.359 0h18.438l0.0151 3.2664h-18.452zm-123.34 8.5073h31.04c0.10016 0.60385 0.20787 1.1961 0.32202 1.7768 0.0994 0.50661 0.2022 1.0002 0.30841 1.4877h-31.671zm36.759 0h1.5517c0.25512 1.1783 0.54289 2.2798 0.87096 3.2644h-1.6798c-0.22602-0.80413-0.43884-1.657-0.61875-2.572-0.04384-0.22412-0.08202-0.46276-0.12435-0.69248zm53.263 0h1.5382c-0.0382 0.25511-0.0661 0.5393-0.10659 0.7875-0.144 0.87802-0.31975 1.6984-0.50815 2.477h-1.6643c0.28195-0.98143 0.52622-2.0852 0.74097-3.2644zm7.2427 0h20.983v3.2644h-21.507c0.0926-0.51224 0.1818-1.0318 0.26948-1.5672 0.0907-0.55359 0.17499-1.1216 0.25399-1.6972zm26.079 0h18.477l0.0151 3.2644h-18.491zm-123.34 8.5074h33.213c0.7302 1.7894 1.6624 3.3347 2.958 4.5602 0.86895 0.8219 1.8888 1.4732 3.0181 2.025v2.1918h-17.653v1.6526h-0.0189v50.689h1.4431v-50.484h16.229v1.158h-15.358v1.8563h0.02646v47.508h-3.1694v-50.532h-0.0189v-1.6507h-20.671zm87.066 0h2.027c-0.1338 0.23471-0.25663 0.42577-0.35112 0.51984-0.21317 0.21241-0.80512 0.54644-1.6759 0.91937zm8.3561 0h22.826v23.724l-31.182 0.14929v-16.26c2.26-0.69718 4.1725-1.631 5.6502-3.1034 1.2311-1.227 2.0697-2.7504 2.7058-4.5097zm27.921 0h18.514l0.0582 13.079h-18.572zm-78.902 0.79718c0.95342 0.3772 2.0481 0.71486 3.2722 1.0086v1.4334c-1.1907-0.24189-2.2954-0.52124-3.2722-0.81857zm37.371 0.78365v1.4858c-0.48125 0.10582-0.97527 0.20863-1.4877 0.29858-0.56209 0.099-1.1885 0.17613-1.7845 0.26381v-1.3403c1.1771-0.20674 2.2679-0.44421 3.2722-0.70799zm-28.847 1.1405c1.0569 0.13493 2.1482 0.24831 3.2722 0.34129v1.2569c-1.1208-0.0813-2.2092-0.18444-3.2722-0.30047zm20.322 0.24227v1.2724c-1.0677 0.0881-2.165 0.1508-3.2722 0.2075v-1.2317c1.1159-0.0643 2.2037-0.14703 3.2722-0.24832zm-11.797 0.386c1.0872 0.0265 2.1786 0.045 3.2722 0.0389v1.2142c-0.0302 1.5e-4 -0.0593 2e-3 -0.0892 2e-3 -1.0638 4e-3 -2.1246-0.0227-3.183-0.0465zm-17.05 4.9869c1.0365 0.23471 2.1323 0.44145 3.2722 0.63813v48.963c-1.1738 0.19956-2.2838 0.42206-3.2722 0.70408zm37.371 0.48295v15.079l-3.2722 0.0151v-14.579c0.94427-0.12812 1.8723-0.26456 2.7601-0.42092 0.17537-0.0302 0.3394-0.0639 0.51209-0.0949zm-28.847 0.85152c1.0757 0.11074 2.1566 0.21619 3.2722 0.29292v47.083c-1.1193 0.0575-2.2058 0.13606-3.2722 0.22904zm20.322 0.22111v14.047l-3.2722 0.0151v-13.869c1.1008-0.0525 2.2001-0.11112 3.2722-0.19389zm-11.797 0.29669c1.0665 0.0227 2.1333 0.0488 3.2044 0.0446 0.0227-8e-5 0.045-2e-3 0.068-2e-3v13.748l-3.2722 0.0151zm-61.491 0.64396h19.247v50.325h-0.89998v-47.772h-0.21128v-1.3966h-18.136zm25.301 2.8164h13.888v1.158h-11.547v-0.0427h-1.4431v46.393h-0.89805zm-25.301 0.19767h16.906v47.31h-0.89805v-46.195h-1.4431v0.0408h-14.565zm27.642 2.8183h11.547v44.492h-11.547zm-27.642 0.19578h14.565v44.296h-17.255v-37.8h2.6903zm123.34 1.4586h18.596l0.0151 3.2664h-18.609zm0.44802 8.5073h18.186l0.0151 3.2645h-18.648v-0.11641h0.44806zm-62.3 3.1442h3.2722v26.965c-0.4343-8e-3 -0.86453-0.0264-1.2996-0.034-0.66002-8e-3 -1.3146 8e-3 -1.9726 0.0113zm8.5248 0h3.2722v27.448c-1.0684-0.10167-2.1546-0.19011-3.2722-0.26192zm8.5248 0h3.2722v28.744c-1.0066-0.23849-2.1088-0.44822-3.2722-0.63818zm8.5248 0 31.182 4e-3v31.058h5.0955v-0.18028h18.786l0.0525 11.832h-50.759c-0.11225-0.87893-0.23055-1.7491-0.37039-2.5642-0.67896-3.9513-1.3772-7.0283-3.4099-8.9283-0.18028-0.16819-0.37893-0.30879-0.57607-0.45196zm36.277 5.3612h18.671l0.0151 3.2664h-18.685zm0 8.5074h18.71l0.0151 3.2645h-18.724zm0 8.5073h18.747l0.0151 3.2644h-18.762zm-59.916 8.3095c5.0348 0.0541 10.079 0.42198 14.097 1.0474 2.0091 0.31257 3.7618 0.69388 5.0955 1.1075 1.3337 0.41367 2.2444 0.93151 2.4556 1.1289 0.43208 0.40388 1.6414 3.1524 2.2714 6.8179 0.62986 3.6655 0.98339 8.2899 1.0125 12.932 0.0302 4.6418-0.26117 9.319-0.87867 13.079-0.61746 3.7601-1.7844 6.6249-2.4634 7.3009-0.6864 0.68361-3.6157 1.8987-7.4561 2.5739-2.8648 0.50373-6.2561 0.83119-9.7856 0.97372-0.0669 1.5e-4 -0.13341 2e-3 -0.19956 2e-3 -2.6686 4e-3 -5.3376-3e-3 -7.9992-0.0227-3.2143-0.1372-6.3136-0.42131-8.9787-0.87477-3.9145-0.66607-6.9406-1.8565-7.8227-2.6904-0.88328-0.83505-2.1167-3.6356-2.8435-7.33-0.72684-3.6943-1.1175-8.2676-1.1658-12.829-0.048-4.5612 0.24227-9.1242 0.8341-12.808 0.59153-3.6834 1.6884-6.5334 2.3256-7.2427 0.45759-0.50941 3.4295-1.7652 7.4251-2.3606 3.9956-0.59539 9.0413-0.86109 14.076-0.80689zm-78.316 19.084-0.77783 1.961c-0.48858-0.0514-0.98234-0.051-1.4702 8e-3l-0.79143-1.9591-2.4091 0.78943 0.52955 2.0464c-0.42391 0.24491-0.82212 0.53461-1.1851 0.86313l-1.7961-1.1211-1.4819 2.0502 1.6274 1.3403c-0.19805 0.44882-0.34772 0.91809-0.4461 1.3985l-2.1123 0.14551 0.0189 2.5274 2.1142 0.13002c0.10242 0.478 0.25701 0.94526 0.4597 1.3907l-1.6255 1.3558 1.4974 2.0406 1.7884-1.1347c0.06917 0.0601 0.13568 0.12737 0.20561 0.18784 0.30765 0.2536 0.63651 0.47815 0.9834 0.67498l-0.51205 2.0425 2.4129 0.772 0.77783-1.961c0.4885 0.0514 0.98037 0.051 1.4683-8e-3l0.79328 1.959 2.4071-0.78943-0.52758-2.0464c0.42391-0.24491 0.8222-0.53367 1.1851-0.86313l1.7961 1.1211 1.4819-2.0502-1.6274-1.3403c0.19805-0.44878 0.34885-0.91608 0.4461-1.3965l2.1104-0.1474-0.0189-2.5254-2.1142-0.1319c-0.10243-0.47804-0.25512-0.94538-0.45778-1.3908l1.6235-1.3558-1.4974-2.0386-1.7884 1.1328c-0.06917-0.0601-0.13417-0.12548-0.20372-0.18633-0.30765-0.25361-0.63662-0.48008-0.9834-0.67695l0.51209-2.0425zm164.24 3.1927-0.77779 1.961c-0.48858-0.0514-0.98238-0.051-1.4703 8e-3l-0.7914-1.9591-2.4091 0.78947 0.52955 2.0463c-0.42391 0.24491-0.82216 0.53465-1.1852 0.86317l-1.7961-1.1211-1.4819 2.0502 1.6274 1.3403c-0.19805 0.44882-0.34809 0.91804-0.44614 1.3985l-2.1123 0.14513 0.0189 2.5274 2.1143 0.13001c0.10242 0.47808 0.25701 0.9453 0.4597 1.3908l-1.6255 1.3558 1.4974 2.0386 1.7884-1.1328c0.0692 0.0601 0.13606 0.12737 0.2056 0.18822 0.30728 0.2536 0.63651 0.47811 0.9834 0.67502l-0.51209 2.0425 2.413 0.77197 0.77779-1.961c0.48858 0.0514 0.98041 0.051 1.4684-8e-3l0.79332 1.9591 2.4071-0.78947-0.52759-2.0463c0.42392-0.24529 0.82028-0.53371 1.1832-0.86317l1.798 1.1211 1.4819-2.0502-1.6274-1.3403c0.19805-0.44881 0.34885-0.91804 0.44614-1.3985l2.1104-0.14551-0.0189-2.5274-2.1143-0.13001c-0.10243-0.47807-0.25701-0.94541-0.45967-1.3908l1.6254-1.3558-1.4974-2.0386-1.7903 1.1328c-0.0692-0.0601-0.13379-0.12511-0.20372-0.18596-0.30765-0.2536-0.63658-0.48003-0.98339-0.67695l0.51209-2.0424zm-166.21 0.47131c1.3071-0.12283 2.6601 0.25134 3.7513 1.1522h0.0019c2.1823 1.8012 2.4858 5.0245 0.67892 7.2-1.8069 2.1753-5.0411 2.4799-7.2233 0.67892-2.182-1.8012-2.4854-5.0247-0.67888-7.2 0.90338-1.0878 2.163-1.7084 3.4701-1.8311zm164.24 3.1927c1.3071-0.12283 2.6621 0.25134 3.7532 1.1521 2.1824 1.8012 2.4858 5.0246 0.67892 7.2-1.8069 2.1753-5.0411 2.4799-7.2233 0.67888-2.1821-1.8011-2.4854-5.0247-0.67884-7.2 0.90334-1.0878 2.1629-1.7085 3.4701-1.831z" color="#000000" color-rendering="auto" dominant-baseline="auto" fill="#71a7cf" fill-rule="evenodd" image-rendering="auto" shape-rendering="auto" solid-color="#000000" style="font-feature-settings:normal;font-variant-alternates:normal;font-variant-caps:normal;font-variant-ligatures:normal;font-variant-numeric:normal;font-variant-position:normal;isolation:auto;mix-blend-mode:normal;paint-order:normal;shape-padding:0;text-decoration-color:#000000;text-decoration-line:none;text-decoration-style:solid;text-indent:0;text-orientation:mixed;text-transform:none;white-space:normal"/>
</svg>
