<?xml version="1.0" encoding="UTF-8"?>
<svg version="1.1" width="256" height="254" viewBox="0 0 256 253.81" xmlns="http://www.w3.org/2000/svg" xmlns:cc="http://creativecommons.org/ns#" xmlns:dc="http://purl.org/dc/elements/1.1/" xmlns:rdf="http://www.w3.org/1999/02/22-rdf-syntax-ns#">
<metadata>
<rdf:RDF>
<cc:Work rdf:about="">
<dc:format>image/svg+xml</dc:format>
<dc:type rdf:resource="http://purl.org/dc/dcmitype/StillImage"/>
</cc:Work>
</rdf:RDF>
</metadata>
<path d="m152.02 0.011872c-0.78776 0.13228-1.5988 2.0507-5.5574 12.18-2.6758 6.847-5.2506 13.186-5.7213 14.087l-0.85557 1.6412-12.29 0.03402-12.292 0.03402-5.6214-13.987c-3.0918-7.6929-5.8164-13.959-6.0552-13.925-0.39099 0.055559-30.634 9.95-31.003 10.143-0.08504 0.0446 1.4882 6.5228 3.4983 14.395 2.0102 7.8725 3.6563 14.628 3.6563 15.011 0 0.38294-1.9006 1.9221-4.224 3.4204-4.6865 3.0221-8.8264 6.1212-12.324 9.2277-1.2721 1.1298-2.5953 2.055-2.9406 2.055-0.34545 0-6.3427-3.5936-13.326-7.9843-6.983-4.3906-12.748-7.92-12.814-7.8443-0.9013 1.042-19.064 26.647-19.059 26.867 0.0038 0.16819 5.1109 4.5295 11.347 9.6914 8.3126 6.881 11.337 9.6607 11.337 10.415 0 0.56587-0.89537 3.4029-1.9911 6.305-1.0957 2.9021-2.5919 7.6662-3.3244 10.587-1.1085 4.42-1.5225 5.4008-2.4728 5.8493-0.62804 0.29631-7.0079 0.90572-14.177 1.3533-7.1695 0.44765-13.66 0.93407-14.423 1.0815l-1.3874 0.26797 0.35187 16.484c0.19389 9.0662 0.39371 16.53 0.44379 16.586 0.04989 0.0559 6.6585 0.52169 14.685 1.0355 8.9639 0.57377 14.853 1.1492 15.265 1.4913 0.36888 0.30652 0.93396 1.6876 1.2554 3.0686 0.89847 3.8602 3.3013 11.297 4.9097 15.195 0.91608 2.2201 1.3366 3.9059 1.1435 4.5858-0.17272 0.60759-5.2002 5.1626-11.557 10.471l-11.249 9.3936 9.1477 12.572c5.0315 6.9146 9.5038 12.942 9.9374 13.392 0.73689 0.76528 1.5896 0.30312 13.1-7.0987 6.7712-4.3545 12.761-7.9279 13.312-7.9403 0.55117-0.0113 1.5292 0.54369 2.173 1.2354 1.7345 1.8638 10.077 8.0617 13.696 10.175 1.7353 1.0136 3.2823 2.2303 3.4384 2.7027 0.15609 0.47244-1.2773 7.2732-3.1865 15.113-1.9093 7.8396-3.351 14.375-3.2025 14.523 0.14854 0.14853 7.1795 2.5096 15.625 5.2455 8.4452 2.7359 15.487 4.8285 15.649 4.6518 0.16177-0.17688 2.6228-6.2954 5.4674-13.598 2.8446-7.3022 5.3771-13.488 5.6293-13.746 0.64804-0.66274 24.503-0.69898 25.01-0.0386 0.21354 0.27855 2.7539 6.4532 5.6454 13.722 2.8914 7.2684 5.505 13.311 5.8093 13.428 0.60109 0.23055 30.085-9.3523 30.784-10.005 0.24189-0.22677-1.1554-6.55-3.2444-14.671-2.0194-7.8495-3.5565-14.568-3.4167-14.933 0.13984-0.36434 2.578-2.1973 5.4176-4.0721 2.8396-1.8748 6.9782-4.9466 9.1979-6.8248 2.2193-1.8782 4.3918-3.4105 4.8276-3.4064 0.43578 4e-3 6.4331 3.5592 13.326 7.9023 12.44 7.8386 12.538 7.8892 13.324 6.8728 2.8894-3.7383 18.319-25.536 18.319-25.88 0-0.2332-5.0067-4.5769-11.127-9.6515-6.1202-5.0746-11.261-9.5742-11.425-9.9994-0.16252-0.42512 0.0869-1.7735 0.55559-2.9966 2.1729-5.6682 3.6971-10.333 4.814-14.741 0.66784-2.636 1.4933-5.0532 1.835-5.3715 0.39685-0.36964 5.0695-0.86676 12.932-1.3754 6.771-0.43801 13.453-0.92478 14.847-1.0815l2.5346-0.28384v-33.132l-2.5346-0.26986c-1.3943-0.14891-8.1804-0.61667-15.081-1.0375-6.9003-0.42085-12.785-0.96276-13.078-1.2054-0.29103-0.24265-0.8058-1.6925-1.1414-3.2225-0.83187-3.7932-3.6601-12.519-5.1477-15.883-0.70601-1.5968-1.1014-3.1825-0.93732-3.7623 0.15496-0.55113 3.6117-3.776 7.6804-7.1666 4.0683-3.3905 9.1567-7.6495 11.306-9.4655l3.9084-3.3025-9.6574-13.224c-5.3118-7.2736-9.9141-13.204-10.229-13.178-0.3137 0.02646-5.7192 3.336-12.006 7.3565-13.527 8.6504-13.612 8.6948-14.757 7.7144-5.2418-4.4882-8.4272-6.911-13.026-9.9094-3.4927-2.2773-5.4376-3.8474-5.4293-4.3799 0-0.45649 1.6097-7.183 3.5622-14.949l3.5501-14.119-14.787-4.7858c-8.1336-2.6317-15.256-4.9207-15.827-5.0876-0.12057-0.034016-0.2332-0.052913-0.34583-0.034016zm-24.037 49.013c11.117 0.0038 19.255 1.5547 29.446 5.6134l5.4734 2.181 3.0705-1.3054c4.1298-1.7552 7.2453-1.5346 11.081 0.78565 3.5819 2.1667 7.9725 6.1008 7.9725 7.1426 0 0.45343-1.0352 1.8438-2.301 3.0906l-2.3029 2.267 3.3302 3.5083c1.8312 1.9297 4.3158 4.8117 5.5234 6.4049 1.2079 1.5932 2.2624 2.9834 2.3429 3.0886 0.0794 0.10507 1.1225-0.71017 2.3172-1.8111 3.6401-3.3553 4.9168-2.6612 9.2054 4.9997 3.2995 5.8941 3.3192 8.4349 0.10961 13.768l-1.6033 2.6628 0.87572 2.8707c2.4272 7.9722 2.9745 12.155 2.9745 22.701 0 8.7114-0.15496 10.853-1.0915 15.209-1.5942 7.4047-3.5505 12.957-7.0586 20.035-10.455 21.095-30.729 36.542-54.25 41.335-5.4461 1.1096-19.595 1.6052-24.936 0.87356-11.114-1.5223-23.867-6.2586-32.455-12.054l-2.2049-1.4893-3.1885 2.183c-3.8936 2.6643-5.2457 3.1905-8.2041 3.1905-3.3809 0-6.496-1.2561-9.2457-3.7283-4.6475-4.1784-7.2329-9.4046-7.2126-14.573 0.01134-3.2496 1.0901-5.7847 3.6963-8.6979l1.9091-2.137-2.4689-4.8637c-7.4871-14.745-10.073-32.327-7.2126-49.041 0.96299-5.6278 4.2858-15.928 6.6629-20.648 13.706-27.216 39.894-43.572 69.747-43.56zm42.848 9.7774c-1.2948 0.03402-2.6799 0.54977-4.5919 1.5093-11.359 5.7009-27.5 20.195-29.738 26.703-0.80769 2.3495-0.13191 4.6278 2.9046 9.8074 2.0153 3.4376 2.1984 3.9827 1.6173 4.7917-0.36057 0.50188-3.4118 3.0943-6.7808 5.7613-21.187 16.772-64.413 56.004-72.052 65.393-2.5464 3.1297-2.8846 6.2461-1.0995 10.145 1.5222 3.3248 4.8042 6.9516 7.3406 8.1102 2.4119 1.1017 4.6635 1.1372 6.6629 0.10582 7.0393-3.6308 41.515-34.276 68.212-60.636 7.732-7.6341 12.954-12.434 13.528-12.434 0.51387 0 2.2323 0.97606 3.8202 2.169 1.588 1.1929 3.8626 2.6307 5.0536 3.1945 2.4965 1.1819 3.7311 0.93113 7.9723-1.6132 10.036-6.0209 27.798-24.979 27.753-29.622 0-1.122-3.9318-8.5473-4.498-8.518-0.22299 0.01134-4.6401 3.8717-9.8173 8.578l-9.4137 8.5579-3.1004-0.24982c-8.2342-0.66097-13.887-6.91-14.519-16.05l-0.23395-3.3784 9.6895-8.6919c5.3284-4.7796 9.6883-8.8212 9.6895-8.9818 2e-3 -0.16063-1.3126-1.2151-2.9208-2.3429-2.2965-1.611-3.8124-2.3554-5.4772-2.3089z" fill="#71a7cf" fill-opacity=".99608" fill-rule="evenodd" style="paint-order:normal"/>
</svg>
