<?xml version="1.0" encoding="UTF-8"?>
<svg version="1.1" viewBox="0 0 256 242.4" xmlns="http://www.w3.org/2000/svg" xmlns:cc="http://creativecommons.org/ns#" xmlns:dc="http://purl.org/dc/elements/1.1/" xmlns:rdf="http://www.w3.org/1999/02/22-rdf-syntax-ns#">
<metadata>
<rdf:RDF>
<cc:Work rdf:about="">
<dc:format>image/svg+xml</dc:format>
<dc:type rdf:resource="http://purl.org/dc/dcmitype/StillImage"/>
</cc:Work>
</rdf:RDF>
</metadata>
<path d="m151.69 0c-0.56206 0.098268-1.1426 1.4691-3.9715 8.7372-1.9123 4.9127-3.75 9.4633-4.0863 10.11l-0.61205 1.1769-8.785 0.03024-8.7851 0.03024-4.0147-10.034c-2.2094-5.5194-4.1595-10.015-4.33-9.9907-0.27968 0.038173-21.89 7.1391-22.154 7.2777-0.05556 0.030236 1.0662 4.6774 2.5026 10.326 1.4366 5.6487 2.6125 10.496 2.6125 10.771 0 0.27515-1.359 1.3798-3.0192 2.4547-3.3493 2.1685-6.3094 4.3931-8.809 6.6223-0.90928 0.81018-1.8538 1.4738-2.1007 1.4738-0.24718 0-4.5315-2.5772-9.5218-5.7275-4.9904-3.1503-9.1112-5.6814-9.1583-5.6271-0.64346 0.74816-13.626 19.115-13.622 19.274 0.0027 0.12019 3.654 3.2535 8.1102 6.9571 5.9404 4.9372 8.101 6.9279 8.101 7.4691 0 0.40596-0.63798 2.4445-1.4211 4.5266-0.78338 2.0821-1.8545 5.498-2.378 7.5936-0.7917 3.1713-1.0866 3.8746-1.7657 4.1963-0.44923 0.21279-5.006 0.65004-10.13 0.97145-5.1233 0.32126-9.7659 0.66943-10.311 0.77499l-0.99024 0.19654 0.25398 11.828c0.13833 6.5049 0.27931 11.86 0.31559 11.9 0.02646 0.034 4.7571 0.37266 10.493 0.74169 6.4056 0.41185 10.615 0.8222 10.909 1.0671 0.26419 0.21959 0.67037 1.2149 0.90002 2.2058 0.64165 2.7696 2.3577 8.1032 3.5072 10.9 0.65465 1.5929 0.95611 2.8041 0.81853 3.292-0.12321 0.43593-3.7163 3.7036-8.2587 7.5122l-8.0385 6.7372 6.536 9.0243c3.5957 4.9608 6.791 9.2846 7.1009 9.6078 0.52596 0.54999 1.1384 0.21467 9.3639-5.0956 4.8389-3.1246 9.1186-5.6852 9.5125-5.6942 0.39447-4e-3 1.0902 0.38767 1.5502 0.88513 1.2395 1.3371 7.2041 5.785 9.7899 7.3015 1.2401 0.72687 2.3428 1.599 2.4545 1.9378 0.11225 0.33902-0.91207 5.2177-2.2776 10.843-1.3644 5.6251-2.3933 10.315-2.2873 10.421 0.10658 0.10659 5.1328 1.8026 11.168 3.7657 6.0352 1.9631 11.067 3.4618 11.182 3.3352 0.11565-0.12775 1.8715-4.5171 3.9044-9.7566 2.0329-5.2393 3.8441-9.6764 4.0242-9.8614 0.46413-0.47478 17.509-0.50294 17.871-0.0265 0.15269 0.19994 1.9724 4.6325 4.0386 9.8474 2.0662 5.2147 3.9311 9.5481 4.1483 9.6319 0.42985 0.16554 21.502-6.7087 22.001-7.1774 0.17272-0.16252-0.8278-4.6998-2.3208-10.527-1.4427-5.632-2.54-10.452-2.4402-10.713 0.0998-0.26193 1.8417-1.5785 3.871-2.9237 2.0294-1.3449 4.9883-3.5473 6.5744-4.8948 1.586-1.3476 3.1385-2.448 3.4499-2.4452 0.31219 3e-3 4.5962 2.554 9.5218 5.6702 8.8903 5.6242 8.9606 5.6577 9.5218 4.9284 2.0648-2.682 13.092-18.319 13.092-18.565 0-0.16743-3.5787-3.2829-7.9524-6.9238-4.3736-3.6409-8.0464-6.872-8.1629-7.1773-0.11679-0.30463 0.065-1.2707 0.397-2.1482 1.5528-4.067 2.642-7.4167 3.4404-10.579 0.4769-1.891 1.0666-3.6234 1.3109-3.8517 0.28385-0.26532 3.6209-0.62124 9.2396-0.98577 4.839-0.31446 9.6167-0.66206 10.613-0.77503l1.8087-0.20561v-23.771l-1.8087-0.19654c-0.9961-0.10658-5.8489-0.43907-10.78-0.74173-4.9313-0.30198-9.136-0.69071-9.3449-0.8657-0.20787-0.17272-0.5732-1.2133-0.81301-2.3111-0.59441-2.7216-2.6166-8.9841-3.6797-11.398-0.50453-1.1458-0.78607-2.2827-0.6694-2.6987 0.11074-0.39617 2.5806-2.711 5.4881-5.1437 2.9074-2.4327 6.5452-5.4867 8.0815-6.7898l2.7897-2.3686-6.8998-9.4882c-3.7957-5.2187-7.086-9.4736-7.3113-9.4551-0.22526 0.02268-4.0861 2.3931-8.5791 5.2778-9.6672 6.2064-9.7277 6.2395-10.546 5.5361-3.7461-3.2203-6.0202-4.959-9.3066-7.1104-2.4958-1.6339-3.8863-2.7614-3.8805-3.1436 4e-3 -0.32768 1.15-5.1557 2.5455-10.728l2.536-10.13-10.57-3.4308c-5.8124-1.8881-10.898-3.5311-11.307-3.6508-0.0926-0.030236-0.16819-0.038173-0.24794-0.030236zm-17.178 35.164c7.9449 0.0026 13.761 1.1168 21.044 4.0287l3.9091 1.5647 2.1964-0.93774c2.9513-1.2593 5.1778-1.1003 7.9189 0.56481 2.5594 1.5543 5.6988 4.3769 5.6988 5.1245 0 0.32466-0.74165 1.3257-1.646 2.2201l-1.6461 1.6269 2.378 2.5166c1.3084 1.3848 3.0847 3.4504 3.9474 4.5936 0.86302 1.143 1.6172 2.1399 1.6747 2.2153 0.0556 0.07446 0.80281-0.50657 1.6557-1.2967 2.6015-2.4075 3.5146-1.9126 6.5793 3.5838 2.358 4.229 2.3745 6.0546 0.0745 9.8807l-1.1483 1.9092 0.62683 2.0576c1.7345 5.7199 2.1245 8.7256 2.1245 16.292 0 6.2504-0.10998 7.7845-0.77967 10.91-1.1392 5.3127-2.5364 9.2954-5.0433 14.374-7.4718 15.135-21.958 26.218-38.767 29.656-3.8919 0.79536-14.007 1.1526-17.824 0.62683-7.942-1.0921-17.055-4.4879-23.192-8.6462l-1.5742-1.0718-2.2777 1.5694c-2.7825 1.9116-3.752 2.2872-5.8662 2.2872-2.416 0-4.6383-0.90183-6.6033-2.6747-3.3212-2.9982-5.1726-6.7467-5.1578-10.455 0.0038-2.3314 0.77866-4.1493 2.6411-6.2392l1.3637-1.5361-1.7607-3.488c-5.3506-10.58-7.1973-23.196-5.1534-35.188 0.68799-4.0379 3.0621-11.427 4.7608-14.814 9.7948-19.528 28.51-31.263 49.844-31.255zm30.619 7.0147c-0.92409 0.02646-1.9134 0.39912-3.2776 1.0862-8.1179 4.0903-19.655 14.488-21.255 19.159-0.57683 1.6856-0.0971 3.3221 2.0768 7.0384 1.44 2.4665 1.573 2.8553 1.1577 3.4357-0.25739 0.35943-2.4392 2.2205-4.847 4.1342-15.14 12.034-46.03 40.183-51.49 46.92-1.8198 2.2455-2.0648 4.48-0.78985 7.2777 1.0877 2.3854 3.4364 4.9872 5.2489 5.8184 1.7237 0.79075 3.332 0.81948 4.761 0.0745 5.0306-2.605 29.665-24.597 48.743-43.509 5.5257-5.4773 9.2603-8.9189 9.6703-8.9189 0.36699 0 1.5925 0.69997 2.7273 1.5549 1.135 0.85553 2.7614 1.8874 3.6125 2.2921 1.7842 0.84722 2.6678 0.66856 5.6988-1.158 7.1722-4.3201 19.866-17.923 19.833-21.254-4e-3 -0.80557-2.811-6.1313-3.2154-6.1102-0.1576 0.0038-3.3146 2.7767-7.0147 6.1533l-6.7275 6.1438-2.2154-0.1818c-5.8843-0.47429-9.9266-4.959-10.378-11.517l-0.16781-2.4209 6.9235-6.2395c3.8081-3.4294 6.928-6.3253 6.9287-6.4405 9.5e-4 -0.11565-0.94178-0.87496-2.0912-1.6842-1.639-1.1543-2.7213-1.6874-3.9093-1.6556zm-165.13 154.04v46.179h256v-46.179zm13.053 6.0195h229.89v34.135h-229.89zm3.0096 1.3445v31.451h137.54v-31.451z" fill="#71a7cf" fill-opacity=".99608" fill-rule="evenodd" style="paint-order:normal"/>
</svg>
