<?xml version="1.0" encoding="UTF-8"?>
<svg version="1.1" width="256" height="248" viewBox="0 0 256 247.98" xmlns="http://www.w3.org/2000/svg" xmlns:cc="http://creativecommons.org/ns#" xmlns:dc="http://purl.org/dc/elements/1.1/" xmlns:rdf="http://www.w3.org/1999/02/22-rdf-syntax-ns#">
<metadata>
<rdf:RDF>
<cc:Work rdf:about="">
<dc:format>image/svg+xml</dc:format>
<dc:type rdf:resource="http://purl.org/dc/dcmitype/StillImage"/>
</cc:Work>
</rdf:RDF>
</metadata>
<path d="m129.4 7.3719e-5c-7.252-0.015118-14.632 2.296-18.703 6.0573-7.6614 7.0801-9.1856 24.394 0.72396 33.492 9.9097 9.0982 26.729 7.8131 33.783 0 7.0543-7.8133 8.8974-24.479 0.72401-33.492-3.8313-4.2248-10.13-6.0454-16.529-6.0573zm-6.9356 16.756c1.9898 4.53e-4 3.6029 2.1126 3.6031 4.7181 2.3e-4 2.6059-1.6128 4.7188-3.6031 4.7193-1.9907 4.16e-4 -3.6045-2.1127-3.6043-4.7193 2.7e-4 -2.6061 1.6139-4.7185 3.6043-4.7181zm12.518 0c1.9898 4.53e-4 3.6029 2.1126 3.6031 4.7181 2.7e-4 2.6059-1.6128 4.7188-3.6031 4.7193-1.9906 3.4e-4 -3.6045-2.1128-3.6043-4.7193 2.2e-4 -2.6061 1.614-4.7184 3.6043-4.7181zm-5.6907 13.592c3.098-0.05216 6.1958 0.65057 9.2938 2.2628-4.2267 6.127-11.598 6.4549-18.588 0 3.098-1.4047 6.1959-2.2109 9.2938-2.2628zm-22.029 9.8614c-2.3605 0.69918-4.1262 1.5836-5.0059 2.6702h1e-3c-5.5332 6.8363-8.3416 42.039-1.1025 44.893 1.2737 0.50226 3.5736 0.90845 6.5095 1.2271-0.22828 7.8969 0.513 5.941 2.7807 8.3709 4.7169 5.0541 30.711 4.7839 34.949 0 2.0205-2.2808 2.7593-0.38736 2.6003-8.3449 3.1566-0.32542 5.5718-0.7437 6.7979-1.253 6.504-2.7022 4.4314-39.154-1.1013-44.893-0.85043-0.88226-2.5308-1.6544-4.7745-2.3053-0.37267 0.49414-0.75655 0.97092-1.1595 1.4172-8.0944 8.9634-27.395 10.438-38.765 0-0.61689-0.56629-1.1884-1.1638-1.7292-1.7821zm2.5695 61.629-23.843 27.926-9.46-5.0252-14.311 45.003 23.771-35.957 8.5152 5.0252zm41.094 2.5463 13.286 41.628 8.7822-4.6484 22.134 25.832-14.23-34.199-7.904 4.6484zm-118.34 43.025c-7.252-0.0151-14.633 2.296-18.703 6.0573-7.6615 7.0801-9.1856 24.394 0.72393 33.492 9.9097 9.0982 26.729 7.8132 33.783 0 7.0542-7.8133 8.8973-24.479 0.72393-33.492-3.8313-4.2249-10.13-6.0454-16.529-6.0573zm190.82 0.58223c-6.3988 0.0113-12.697 1.8325-16.528 6.0573-8.1735 9.0128-6.3303 25.679 0.72385 33.492 7.0542 7.8132 23.874 9.0982 33.783 0 9.9096-9.0982 8.3855-26.412 0.72397-33.492-4.0702-3.7613-11.451-6.0711-18.703-6.0573zm-174.99 10.217c2.0383 1.2e-4 3.6902 2.0879 3.6897 4.6626-7.6e-5 2.5742-1.6518 4.6614-3.6897 4.6614-2.0379-7e-5 -3.6896-2.0872-3.6898-4.6614-4.16e-4 -2.5746 1.6515-4.6625 3.6898-4.6626zm-11.532 1.7774c2.0379 8e-5 3.6908 2.0861 3.691 4.6602-1.51e-4 2.5742-1.6531 4.6614-3.691 4.6614-2.0378-1.2e-4 -3.6897-2.0872-3.6898-4.6614 1.13e-4 -2.5741 1.652-4.6601 3.6898-4.6602zm170.04 1.8258c1.6763 1.5e-4 3.0351 1.7752 3.0347 3.9646-1.5e-4 2.1889-1.3587 3.9633-3.0347 3.9634-1.6759-7e-5 -3.0345-1.7745-3.0346-3.9634-3.8e-4 -2.1894 1.3584-3.9646 3.0346-3.9646zm9.4837 1.5105c1.6759 8e-5 3.0345 1.7745 3.0346 3.9635-1.2e-4 2.1889-1.3587 3.9633-3.0346 3.9634-1.676-8e-5 -3.0346-1.7745-3.0346-3.9634 0-2.189 1.3587-3.9634 3.0346-3.9635zm-165.15 12.434c-3.3888 11.251-12.726 11.409-18.38 2.6324 4.9447-0.43926 12.922-2.7366 18.38-2.6324zm153.33 0.9767c4.4889-0.0888 11.049 1.8644 15.115 2.238-4.6497 7.4634-12.328 7.3294-15.115-2.238zm-81.592 5.011 3.5105 8.9213-55.225 1.2436 63.911 10.309-3.1284-9.6488 52.304-5.0995zm-112.54 5.8755c-2.3606 0.6991-4.1263 1.5836-5.0059 2.6703h0.00215c-5.5332 6.8363-8.3429 40.891-1.1037 42.475 1.2738 0.27893 3.5736 1.7128 6.5096 1.8896-0.22866 4.3815 0.51292 8.7564 2.7806 10.105 3.864 3.8828 30.712 4.6876 34.95 0 2.0204-1.2655 2.7592-5.6754 2.6002-10.091 3.1565-0.18028 5.5718-1.6212 6.798-1.9038 6.5038-1.4992 4.429-36.735-1.1037-42.475-0.85039-0.88225-2.5296-1.6544-4.7733-2.3054-0.37266 0.49421-0.75647 0.97096-1.1594 1.4172-8.0943 8.9634-27.394 10.438-38.764 0-0.6169-0.56629-1.1896-1.1638-1.7303-1.7821zm235.09 0.58223c-0.5407 0.61834-1.1134 1.2158-1.7303 1.7821-11.371 10.438-30.67 8.9634-38.764 0-0.40297-0.44625-0.78682-0.923-1.1594-1.4172-2.2437 0.65095-3.9229 1.4231-4.7733 2.3054-5.5328 5.7399-7.6076 34.517-1.1037 41.265 1.2261 1.272 3.6415 2.3177 6.798 3.1297-0.15912 2.8967-0.63542 0.60812 1.385 6.3041 2.8681 7.1777 30.567 8.336 36.165 0 2.2678-6.0682 2.7806-6.3679 2.7806-6.3679 2.9359-0.79571 5.2357-1.8115 6.5096-3.0659 7.2392-7.1292 4.4294-34.429-1.1038-41.265h4e-3c-0.87965-1.0867-2.6454-1.9712-5.0059-2.6703z" fill="#72a7cf" fill-opacity=".99608" fill-rule="evenodd" style="paint-order:normal"/>
</svg>
