<?xml version="1.0" encoding="UTF-8"?>
<svg version="1.1" width="237" height="256" viewBox="0 0 236.61 256" xmlns="http://www.w3.org/2000/svg" xmlns:cc="http://creativecommons.org/ns#" xmlns:dc="http://purl.org/dc/elements/1.1/" xmlns:rdf="http://www.w3.org/1999/02/22-rdf-syntax-ns#">
<metadata>
<rdf:RDF>
<cc:Work rdf:about="">
<dc:format>image/svg+xml</dc:format>
<dc:type rdf:resource="http://purl.org/dc/dcmitype/StillImage"/>
</cc:Work>
</rdf:RDF>
</metadata>
<path d="m199.71 0.0062046c-6.4116 0.096378-13.307 1.325-20.197 3.4086-17.849 5.3959-35.689 16.551-45.183 28.767-10.134 13.039-14.942 32.62-12.536 49.823 16.509-1.1682 33.109-3.214 46.889-7.9612-6.8799 9.8827-21.07 21.799-36.804 31.833 2.4983 2.8989 5.4437 5.4148 8.8921 7.399 25.654 14.758 66.869-0.96775 83.142-25.293 16.274-24.326 18.492-66.328-2.8766-82.177-5.6345-4.1794-13.082-5.9234-21.326-5.7988zm-162.81 1.8923c-8.2439-0.12435-15.696 1.6156-21.33 5.7953-21.369 15.849-19.15 57.851-2.8766 82.177 16.274 24.326 57.489 40.051 83.142 25.293 3.4488-1.9841 6.3938-4.4964 8.8925-7.395-15.734-10.034-29.924-21.954-36.804-31.837 13.78 4.7471 30.38 6.793 46.89 7.9612 2.4049-17.203-2.403-36.784-12.537-49.823-9.4934-12.216-27.334-23.371-45.183-28.767-6.8905-2.0836-13.782-3.308-20.194-3.4049zm122.67 38.989a8.4908 14.176 20.106 0 1 5.9395 13.441 8.4908 14.176 20.106 0 1 -11.803 13.813 8.4908 14.176 20.106 0 1 -5.9399 -13.441 8.4908 14.176 20.106 0 1 10.253 -13.582v0.0038a8.4908 14.176 20.106 0 1 1.5504 -0.23509zm-82.546 1.8926a14.176 8.4908 69.894 0 1 1.5504 0.23168v-0.0038a14.176 8.4908 69.894 0 1 10.253 13.582 14.176 8.4908 69.894 0 1 -5.9395 13.445 14.176 8.4908 69.894 0 1 -11.803 -13.813 14.176 8.4908 69.894 0 1 5.9395 -13.441zm82.519 81.333c-9.3097-0.14551-17.545 1.7045-23.196 5.6089-10.723 7.4092-16.565 25.224-15.162 45.137 16.34 9.3623 32.818 17.847 46.669 21.634-7.338 6.1304-21.996 9.7362-38.07 10.34 2.2998 4.7003 5.0612 9.2773 8.349 13.612 24.457 32.242 65.972 41.94 83.382 26.426 17.41-15.515 21.958-58.936 1.7858-89.591-9.4556-14.37-25.002-24.198-40.794-29.234-7.8304-2.498-15.723-3.8197-22.964-3.9332zm-82.492 1.8923c-7.2412 0.11338-15.13 1.4316-22.96 3.9295-15.793 5.0357-31.342 14.864-40.798 29.234-20.172 30.654-15.624 74.076 1.7862 89.591 17.41 15.514 58.924 5.8165 83.382-26.426 3.2878-4.3346 6.0491-8.9116 8.3486-13.612-16.073-0.6037-30.732-4.2096-38.069-10.34 13.85-3.7868 30.33-12.268 46.669-21.63 1.403-19.913-4.4394-37.732-15.162-45.141-5.6504-3.9044-13.886-5.7509-23.196-5.6052zm80.273 28.106a13.811 9.4875 88.93 0 1 1.8811 0.38392 13.811 9.4875 88.93 0 1 1.5432 0.74869 13.811 9.4875 88.93 0 1 5.0959 18.172 13.811 9.4875 88.93 0 1 -12.411 7.1594 13.811 9.4875 88.93 0 1 -5.0997 -18.168 13.811 9.4875 88.93 0 1 8.9907 -8.2954zm-78.054 1.8923a9.4875 13.811 1.0703 0 1 8.9911 8.2918 9.4875 13.811 1.0703 0 1 -5.0997 18.172 9.4875 13.811 1.0703 0 1 -12.411 -7.1633 9.4875 13.811 1.0703 0 1 5.0997 -18.168 9.4875 13.811 1.0703 0 1 1.539 -0.7485 9.4875 13.811 1.0703 0 1 1.8811 -0.38392z" fill="#72a7cf" fill-opacity=".99608" fill-rule="evenodd" style="paint-order:normal"/>
</svg>
