<?xml version="1.0" encoding="UTF-8"?>
<svg version="1.1" width="256" height="248" viewBox="0 0 256 247.98" xmlns="http://www.w3.org/2000/svg" xmlns:cc="http://creativecommons.org/ns#" xmlns:dc="http://purl.org/dc/elements/1.1/" xmlns:rdf="http://www.w3.org/1999/02/22-rdf-syntax-ns#">
<metadata>
<rdf:RDF>
<cc:Work rdf:about="">
<dc:format>image/svg+xml</dc:format>
<dc:type rdf:resource="http://purl.org/dc/dcmitype/StillImage"/>
</cc:Work>
</rdf:RDF>
</metadata>
<path d="m129.4 7.369e-5c-7.2519-0.015118-14.632 2.2969-18.702 6.0582-7.6614 7.0801-9.1863 24.393 0.72329 33.491 9.9096 9.0982 26.728 7.8132 33.783 0 7.0543-7.8133 8.8984-24.478 0.72518-33.491-3.8313-4.2248-10.13-6.0463-16.529-6.0582zm-6.9368 16.757c1.9898 0 3.6044 2.1118 3.6047 4.7173 1.8e-4 2.6059-1.6144 4.7187-3.6047 4.7193-1.9906 3.41e-4 -3.6029-2.1127-3.6026-4.7193 1.9e-4 -2.6061 1.6122-4.7177 3.6026-4.7173zm12.519 0c1.9899 0 3.6025 2.1118 3.6028 4.7173 3.1e-4 2.606-1.6125 4.7187-3.6028 4.7193-1.9906 3.41e-4 -3.6048-2.1127-3.6046-4.7193 3.1e-4 -2.6061 1.6144-4.7176 3.6046-4.7173zm-5.6898 13.592c3.098-0.05178 6.1946 0.64955 9.2926 2.2617-4.2267 6.127-11.597 6.4549-18.587 0 3.0979-1.4047 6.1966-2.2099 9.2945-2.2617zm-22.031 9.8605c-2.3606 0.6991-4.1255 1.5837-5.0051 2.6704-5.5333 6.8363-8.3403 42.039-1.1012 44.894 1.2737 0.5023 3.5731 0.90916 6.509 1.2278-0.22829 7.8969 0.51201 5.94 2.7797 8.3699 4.717 5.0541 30.711 4.7839 34.949 0 2.0205-2.2809 2.7605-0.38736 2.6014-8.345 3.1565-0.32504 5.5706-0.74332 6.7968-1.2527 6.5039-2.7022 4.4315-39.154-1.1012-44.894-0.85035-0.88226-2.5311-1.6531-4.7748-2.304-0.37266 0.49417-0.75579 0.96952-1.1587 1.4158-8.0944 8.9634-27.394 10.438-38.765 0-0.61694-0.56629-1.1896-1.1639-1.7304-1.7822zm-18.05 73.967c-2.768 3.1573-5.4525 6.3743-8.0725 9.6379-3.3685 4.1961-6.6316 8.4687-9.8336 12.784-0.83044 10.121-0.41186 16.217 0 22.336 5.6925-6.5852 11.579-13.793 17.906-22.422 0.36472-7.9022 0.5797-15.616 0-22.336zm71.318 0.20145c-0.90033 6.9652-0.44648 13.254 0 19.548 6.172 7.2131 12.554 14.322 19.414 21.192 0.39541-6.0848 0.62842-12.346 0-19.548-3.0011-3.5466-5.911-6.8482-8.7516-9.964-3.6521-4.0061-7.1907-7.7059-10.662-11.228zm-73.192 4.8055c0.02268 0.0624 0.04762 0.12737 0.06916 0.192 0.06161-0.0567 0.12246-0.11565 0.18406-0.17839-0.04611 0.11452-0.09222 0.22488-0.13795 0.33184 0.34923 1.1929 0.26948 2.7783-0.07672 4.8381 0.07181-0.0643 0.14324-0.13039 0.21506-0.20334-0.8711 2.1636-1.6398 2.949-2.4976 3.1251 0.03402-0.0824 0.06501-0.15722 0.09751-0.23395-0.37002-1.113-0.09033-3.0382 0.02646-4.7614-0.04082 0.0113-0.08315 0.0227-0.12472 0.0302 0.04762-0.12057 0.09562-0.2332 0.14362-0.34129 3e-3 -0.0601 0.01134-0.12133 0.01134-0.1784 0.01134 0.0265 0.02268 0.059 0.03401 0.0881 0.25096-0.55612 0.50105-0.95615 0.75201-1.2642h-0.0022c0.43117-0.52913 0.86188-0.79869 1.293-1.1779 0.0076-0.0892 0.01134-0.1799 0.01512-0.26683zm-0.04044 0.70402c-0.65465 1.4307-1.2601 2.0966-1.9069 2.3481h-0.0038c0.30803 1.1384 0.24113 2.6234-0.06539 4.5255 0.65522-1.4033 1.3112-1.7481 1.9663-2.3155-0.36057-1.0653-0.1183-2.887 0.01134-4.56zm77.443 6.5091c0.94953 0.68372 1.8994 1.608 2.8488 2.6512 1.5824 1.7387 3.1636 3.8069 4.746 5.64-2.6508-1.9549-4.9844-4.6555-7.5948-8.2913zm0 2.444c0.81857 0.54078 1.6371 1.3212 2.4556 2.2215 1.3642 1.5005 2.7276 3.3315 4.0918 4.9264-2.2851-1.5558-4.297-3.9052-6.5474-7.1479zm0 2.4421c0.94953 0.68371 1.8994 1.608 2.8488 2.6512 1.5824 1.7387 3.1636 3.807 4.746 5.64-2.6508-1.9549-4.9844-4.6555-7.5948-8.2912zm-82.546 0.16101c-2.4449 4.1343-4.5982 6.656-7.0059 8.7727 0.87572-1.4996 1.7524-2.7248 2.6282-3.8137 1.4595-1.8149 2.9181-3.2521 4.3777-4.959zm93.446 1.763c0.0113 0.0506 0.0227 0.0979 0.034 0.14778 0.27213 0.0854 0.54327 0.30955 0.81536 0.61198h4e-3c0.46741 0.51954 0.93494 1.2637 1.4022 1.9145 8e-3 -0.065 0.0113-0.13001 0.0151-0.19767 0.0264 0.10999 0.0495 0.21695 0.0726 0.3224 0.0669 0.0911 0.13267 0.17915 0.19956 0.26457-0.0503-4e-3 -0.10015-0.0113-0.14967-0.0227 0.37883 1.8407 0.2933 3.0458-0.0824 4.0593 0.0775 0.10658 0.15458 0.21165 0.23206 0.31067-0.9445-0.0922-1.7767-1.1547-2.7068-2.9562 0.034 0 0.0703 0.0113 0.10545 0.0189-0.40154-1.8184-0.0979-2.8674 0.0265-4.1092-0.0442-0.0832-0.09-0.16668-0.13455-0.25323 0.0514 4e-3 0.10393 0.0113 0.15496 0.0265 8e-3 -0.0435 8e-3 -0.0884 0.0113-0.13418zm-10.9 0.36435c0.63303 0.33827 1.2662 0.91756 1.8992 1.6153 1.055 1.1629 2.1103 2.6562 3.1654 3.9135-1.7674-0.99031-3.3243-2.8429-5.0646-5.5288zm11.056 0.33562c0.33411 1.6992 0.26192 2.8468-0.0711 3.8118 0.71047 0.26533 1.421 1.4566 2.1313 2.4536-0.39054-1.7538-0.12661-2.7935 8e-3 -3.973-0.70964-0.24-1.3669-1.0383-2.068-2.2925zm-94.566 1.5366c-2.1077 3.712-3.9655 5.8633-6.041 7.5642 0.75488-1.3484 1.5107-2.4234 2.2656-3.361 1.2583-1.5627 2.5171-2.7483 3.7754-4.2032zm0.96491 1.5808c-2.4449 4.1343-4.5982 6.656-7.0059 8.7727 0.87572-1.4996 1.7524-2.7229 2.6282-3.8118 1.4595-1.8149 2.9181-3.2539 4.3777-4.9609zm-2.3347 5.5403c-1.6299 3.1137-3.0661 4.7373-4.6712 5.8491 0.58379-1.1341 1.1676-1.9931 1.7515-2.7165 0.97296-1.2056 1.9467-2.0349 2.9197-3.1327zm-47.273 4.8458c-7.252-0.0151-14.632 2.2969-18.702 6.0582-7.6614 7.0801-9.1863 24.393 0.72325 33.491 9.9097 9.0982 26.729 7.8132 33.783 0 7.0543-7.8133 8.8987-24.478 0.72522-33.491-3.8313-4.2248-10.13-6.0463-16.529-6.0582zm190.82 0.58318c-6.3988 0.0113-12.696 1.8314-16.527 6.0564-8.1735 9.0127-6.331 25.68 0.72329 33.493 7.0541 7.8132 23.873 9.0982 33.783 0 9.9095-9.0982 8.3867-26.413 0.72518-33.493-4.0702-3.7614-11.452-6.0701-18.704-6.0564zm-174.99 10.217c2.0383 1.1e-4 3.6895 2.0869 3.689 4.6617-7.5e-5 2.5742-1.6512 4.6616-3.689 4.6617-2.038-1.1e-4 -3.689-2.0875-3.689-4.6617-4.54e-4 -2.5747 1.6508-4.6616 3.689-4.6617zm-11.531 1.7764c2.0379 1.1e-4 3.6909 2.0856 3.691 4.6598-1.14e-4 2.5742-1.6531 4.6616-3.691 4.6616-2.0378-1.2e-4 -3.6908-2.0875-3.6909-4.6616 1.14e-4 -2.5742 1.6532-4.6596 3.6909-4.6598zm170.04 1.8263c1.6763 1.5e-4 3.0353 1.774 3.0349 3.9634-1.5e-4 2.1889-1.3589 3.9633-3.0349 3.9634-1.6759-8e-5 -3.0348-1.7744-3.0349-3.9634-4.1e-4 -2.1894 1.3586-3.9633 3.0349-3.9634zm9.4845 1.5098c1.6759 8e-5 3.0328 1.7744 3.033 3.9634-1.1e-4 2.1889-1.357 3.9633-3.033 3.9634-1.676-4e-5 -3.0349-1.7744-3.0349-3.9634 0-2.189 1.3589-3.9633 3.0349-3.9634zm-165.15 12.433c-3.3887 11.251-12.726 11.411-18.38 2.6339 4.9446-0.43926 12.922-2.7381 18.38-2.6339zm153.33 0.97837c4.4889-0.0884 11.048 1.8633 15.115 2.2368-4.6497 7.4634-12.328 7.3305-15.115-2.2368zm-194.13 10.885c-2.3607 0.69914-4.1255 1.5837-5.005 2.6704h0.0017c-5.5332 6.8363-8.3422 40.891-1.103 42.475 1.2737 0.27893 3.5731 1.7128 6.509 1.8896-0.22866 4.3815 0.51197 8.7578 2.7797 10.106 3.864 3.8829 30.713 4.6876 34.951 0 2.0204-1.2655 2.7583-5.6756 2.5994-10.091 3.1565-0.18029 5.5725-1.6223 6.7987-1.9049 6.5039-1.4993 4.4298-36.735-1.1031-42.475-0.85036-0.88222-2.5311-1.6531-4.7748-2.304-0.37266 0.49422-0.75572 0.96949-1.1587 1.4157-8.0943 8.9634-27.394 10.438-38.765 0-0.61693-0.56625-1.1896-1.1639-1.7303-1.7822zm235.09 0.58322c-0.5407 0.61833-1.1135 1.2159-1.7304 1.7822-11.371 10.438-30.67 8.9634-38.765 0-0.40305-0.44625-0.78611-0.92345-1.1587-1.4177-2.2437 0.65091-3.9226 1.4237-4.7729 2.3059-5.5327 5.7399-7.6089 34.516-1.105 41.264 1.2261 1.272 3.6422 2.3188 6.7987 3.1308-0.15874 2.8968-0.63527 0.60779 1.385 6.3038 2.8681 7.1777 30.567 8.336 36.165 0 2.2679-6.0683 2.7798-6.3671 2.7798-6.3671 2.936-0.79578 5.2372-1.8131 6.511-3.0675 7.2392-7.1293 4.4283-34.428-1.105-41.264-0.87965-1.0866-2.6445-1.9713-5.0051-2.6704zm-118.9 3.1078c-6.6309-0.0265-13.055 0.17991-19.358 0.51606-1.6346 9.9918-0.81055 17.277 0 24.576 11.206 0.59785 22.792 0.77696 35.246 0 0.71788-8.1922 1.141-16.384 0-24.576-5.449-0.33978-10.731-0.49712-15.888-0.51606zm9.6264 3.2325c0.84862 0.0113 1.6971 0.30841 2.5457 0.48533 0.0113-0.0903 0.0227-0.18028 0.0302-0.27061 0.048 0.10167 0.0903 0.20258 0.13266 0.30312 0.12133 0.0227 0.24303 0.0438 0.36473 0.0593-0.0911 0.0624-0.18066 0.11793-0.27062 0.17273 0.68788 1.794 0.52812 3.4286-0.15382 5.218 0.14059 0.0265 0.28308 0.0548 0.42402 0.0729-1.7149 1.1802-3.226 0.98831-4.9149 0 0.0639-0.0461 0.12813-0.085 0.192-0.12472-0.72903-1.7349-0.18066-3.4696 0.0499-5.2046-0.0805-0.0438-0.16025-0.0866-0.24151-0.13417 0.0934-0.0673 0.18671-0.12662 0.28006-0.18029 8e-3 -0.0608 0.0151-0.12132 0.0189-0.18217 0.0227 0.0469 0.0404 0.0915 0.0612 0.13833 0.49406-0.26608 0.98887-0.35981 1.483-0.35301zm-1.2662 0.88437c0.60696 1.6774 0.47566 3.22-0.1285 4.89 1.2897-0.64131 2.5796-0.11906 3.8694 0.15912-0.70931-1.6686-0.23018-3.3365 0.0151-5.0051-1.2886 0.67219-2.483 0.57025-3.7562-0.0442zm-14.902 5.1566c2.8732 0.0151 5.7462 0.44266 8.6193 0.57551-4.8128 1.1802-9.0517 0.98827-13.791 0 1.7239-0.44349 3.4481-0.58401 5.172-0.57551zm-0.71358 3.0694c2.4768 0.0151 4.953 0.44269 7.4299 0.5755-4.149 1.1802-7.8024 0.98835-11.888 0 1.4861-0.44345 2.9723-0.58397 4.4584-0.5755zm0.71358 3.0713c2.8732 0.0151 5.7462 0.44274 8.6193 0.57551-4.8128 1.1803-9.0517 0.98835-13.791 0 1.7239-0.44341 3.4481-0.58401 5.172-0.57551zm-1.7245 2.8795c1.9154 0.0151 3.8321 0.4427 5.7474 0.57551-3.2085 1.1802-6.0351 0.98835-9.1948 0 1.1493-0.44345 2.2981-0.58397 3.4474-0.57551z" fill="#72a7cf" fill-opacity=".99608" fill-rule="evenodd" style="paint-order:normal"/>
</svg>
