<?xml version="1.0" encoding="UTF-8"?>
<svg version="1.1" width="256" height="256" viewBox="0 0 255.95 255.96" xmlns="http://www.w3.org/2000/svg" xmlns:cc="http://creativecommons.org/ns#" xmlns:dc="http://purl.org/dc/elements/1.1/" xmlns:rdf="http://www.w3.org/1999/02/22-rdf-syntax-ns#">
<metadata>
<rdf:RDF>
<cc:Work rdf:about="">
<dc:format>image/svg+xml</dc:format>
<dc:type rdf:resource="http://purl.org/dc/dcmitype/StillImage"/>
</cc:Work>
</rdf:RDF>
</metadata>
<path d="m129.75 0.0039721c-48.246-0.19276-96.87 6.6273-111.81 21.044-29.875 28.832-18.283 188.15 4.5483 215.8 22.831 27.647 189.41 23.213 212.24 0 22.832-23.213 31.39-188.51 4.5487-215.8-13.421-13.646-61.288-20.851-109.53-21.044zm-0.0983 7.0244c45.597 0.18217 90.837 6.9958 103.52 19.892 25.369 25.793 17.28 182.01-4.2981 203.95-21.578 21.939-179.02 26.13-200.59 0-21.578-26.13-32.533-176.7-4.2985-203.95 14.117-13.625 60.071-20.074 105.67-19.892zm-0.0454 3.4424c-44.299-0.17688-88.944 6.0884-102.66 19.325-27.43 26.474-16.788 172.76 4.1768 198.14 20.963 25.386 173.92 21.314 194.88 0 20.963-21.314 28.82-173.08 4.1741-198.14-12.323-12.529-56.274-19.148-100.57-19.325zm-1.5916 12.639c20.016 0 36.131 16.229 36.131 36.385v23.952h-15.08v-20.494c0-1.4739-0.14362-2.9105-0.42293-4.2985-0.27969-1.388-0.69317-2.7274-1.2242-4.0012-0.53178-1.2741-1.1819-2.4836-1.937-3.6155-0.75515-1.1317-1.6154-2.1873-2.5667-3.1491-0.95056-0.96159-1.9918-1.8288-3.1113-2.592-1.1195-0.7635-2.3161-1.421-3.5766-1.9583-1.2597-0.53684-2.5829-0.95505-3.956-1.238-1.3727-0.28271-2.7953-0.42905-4.2527-0.42905-1.4578 0-2.8808 0.14627-4.2531 0.42905-1.3731 0.28195-2.6963 0.70065-3.956 1.238-1.2601 0.53715-2.4571 1.195-3.5766 1.9583-1.1195 0.76339-2.1608 1.6303-3.1113 2.592-0.95131 0.96174-1.8112 2.0173-2.5663 3.1491-0.75553 1.1319-1.4052 2.3415-1.937 3.6155-0.53102 1.2739-0.94488 2.6133-1.2242 4.0012-0.28346 1.388-0.42482 2.8246-0.42482 4.2985v20.4 0.09449h-15.084v-23.952c0-20.157 16.114-36.385 36.13-36.385zm-37.173 61.729h74.346c8.276 0 14.938 6.7631 14.938 15.165v44.411c-7.7272 11.261-107.25 11.05-104.22 0v-44.411c0-8.4016 6.6618-15.165 14.938-15.165zm61.95 16.702c-2.4253-2e-3 -4.7849 0.67242-5.2018 2.0351-0.54048 1.7673-1.1002 15.353-1.0235 25.393-0.0378 1.6548 0 3.2977 0.0983 4.8338 0.11716 3.0661 0.3326 5.3124 0.69278 5.9163 0.0378 0.0616 0.0869 0.11906 0.12851 0.17726 0.0378 0.11452 0.068 0.2298 0.10205 0.3326 0.38437 0.38155 1.1184 0.67223 2.019 0.8778 1.0295 0.28346 2.2677 0.4032 3.4995 0.37568 2.0137 0.0302 3.894-0.22677 4.3812-0.74199 2.126-3.0865 0.94904-9.8447 2.6173-9.8487 1.669-3e-3 1.0356 6.8052 2.6196 9.8487 1.1694 1.1124 7.8848 0.95202 9.1895-0.51171 2.3214-2.8865 0.79786-19.917-0.96643-23.429-0.94299-1.1173-7.1331-1.7235-11.555-1.4033-0.1663-5.8953-0.51023-10.821-1.0114-11.821-0.67767-1.3513-3.1699-2.0322-5.5952-2.0351zm-56.734 13.439c-5.0109-0.0575-10.022 0.54429-11.23 1.976-1.0288 1.2198-1.8924 4.9144-1.8557 7.6522 0.0378 2.7378 0.39005 3.9702 1.0688 4.4225 0.67162 0.44758 1.8569 0.66119 4.6447 0.82269v2e-3c2.7878 0.16176 5.0759 0.65045 5.0778 1.1927 0.0023 0.54225-2.2862 1.0292-5.0759 1.1927-2.7893 0.16327-3.9749 0.37682-4.6466 0.82465-0.6017 0.40071-1.2253 1.3961-1.1751 2.6117 0.07181 1.6945 0.7869 2.9744 1.4801 3.6293 3.1612 2.9861 20.582 2.8264 23.423 0 1.1932-1.1873 1.8728-4.9048 1.756-8.9847-0.0378-1.2056-0.57411-2.1901-1.1713-2.5881-0.67162-0.44757-1.8592-0.66111-4.6469-0.82269v-2e-3c-2.7874-0.16177-5.0736-0.64846-5.0755-1.1907-0.0019-0.54229 2.2862-1.0292 5.0755-1.1927 2.7893-0.16365 3.9753-0.37882 4.6469-0.82666 0.27969-0.18859 0.51477-0.51515 0.7045-0.92893-0.3908-2.8003-1.0023-5.0509-1.7696-5.814-1.2076-1.202-6.2192-1.9186-11.23-1.976zm31.813 0c-5.0113-0.0575-10.022 0.54429-11.23 1.976-1.0288 1.2198-1.8924 4.9144-1.8558 7.6522 0.0378 2.7378 0.39194 3.9702 1.0707 4.4225 0.67162 0.44758 1.8569 0.66119 4.6447 0.82269v2e-3c2.7878 0.16176 5.074 0.65045 5.0759 1.1927 2e-3 0.54225-2.2847 1.0292-5.074 1.1927-2.7893 0.16327-3.9749 0.37682-4.6466 0.82465-0.6017 0.40071-1.2257 1.3961-1.175 2.6117 0.068 1.6945 0.78689 2.9744 1.4801 3.6293 3.1612 2.9861 20.582 2.8264 23.423 0 1.1932-1.1873 1.8728-4.9048 1.756-8.9847-0.0378-1.2056-0.57411-2.1901-1.1713-2.5881-0.67162-0.44757-1.8592-0.66111-4.6469-0.82269v-2e-3c-2.7874-0.16177-5.0736-0.64846-5.0755-1.1907-2e-3 -0.54229 2.2862-1.0292 5.0755-1.1927 2.7893-0.16365 3.9753-0.37882 4.6469-0.82666 0.27968-0.18859 0.51477-0.51515 0.7045-0.92893-0.3908-2.8003-1.0023-5.0509-1.7696-5.814-1.2079-1.202-6.2211-1.9186-11.232-1.976zm-71.259 55.539h0.0019c0.85115 0.0389 1.7768 0.45108 2.5191 1.2065l16.834 17.129c1.3217 1.3448 1.5504 3.2473 0.51364 4.265v0.0151c-0.19276 0.43978-0.48 0.86898-0.85644 1.2517l-16.833 17.127c-1.3225 1.3448-3.2186 1.6082-4.2557 0.59043-1.0367-1.0178-0.80806-2.9202 0.51402-4.265l16.119-16.401-15.761-16.035c-1.3213-1.3448-1.5504-3.2472-0.51326-4.265 0.45241-0.44414 1.0681-0.64509 1.7299-0.61803zm15.877 37.096 24.023 0.0151c1.8864 1e-3 3.4038 1.1712 3.4027 2.6236-7.56e-4 1.4524-1.5205 2.6196-3.4065 2.6196l-24.023-0.0151c-1.886-1e-3 -3.4023-1.1711-3.4012-2.6236 0.0011-1.4524 1.5194-2.6196 3.4054-2.6196z" fill="#72a7cf" fill-opacity=".99608" fill-rule="evenodd" style="paint-order:normal"/>
</svg>
