<?xml version="1.0" encoding="UTF-8"?>
<svg version="1.1" viewBox="0 0 256 256" xmlns="http://www.w3.org/2000/svg" xmlns:cc="http://creativecommons.org/ns#" xmlns:dc="http://purl.org/dc/elements/1.1/" xmlns:rdf="http://www.w3.org/1999/02/22-rdf-syntax-ns#">
<metadata>
<rdf:RDF>
<cc:Work rdf:about="">
<dc:format>image/svg+xml</dc:format>
<dc:type rdf:resource="http://purl.org/dc/dcmitype/StillImage"/>
</cc:Work>
</rdf:RDF>
</metadata>
<path d="m129.77 0.0039706c-48.254-0.19276-96.889 6.6299-111.83 21.049-29.879 28.838-18.287 188.18 4.549 215.84 22.835 27.652 189.45 23.217 212.28 0 22.836-23.217 31.396-188.54 4.5487-215.84-13.423-13.648-61.297-20.856-109.55-21.049zm-0.09827 7.0264c45.605 0.18217 90.853 6.9956 103.54 19.894 25.373 25.797 17.282 182.04-4.3 203.98-21.582 21.943-179.05 26.134-200.63 0-21.582-26.134-32.537-176.73-4.2981-203.98 14.12-13.627 60.081-20.077 105.69-19.894zm-0.0454 3.3141c-44.355-0.17726-89.059 6.0968-102.79 19.351-14.001 13.513-18.081 58.196-15.95 102.13h31.01l34.199-97.674 29.06 136.41 29.873-85.888 21.418 47.148h88.853c1.6577-44.289-2.4877-89.438-14.97-102.13-12.339-12.545-56.347-19.173-100.7-19.351zm-54.752 47.389-30.098 83.351h-33.348c2.6649 38.917 10.052 75.456 19.588 87.004 20.99 25.418 174.14 21.341 195.13 0 9.6306-9.7917 16.485-47.088 18.715-87.004h-91.298l-18.537-35.36-31.315 93.452z" fill="#70a7cf" fill-opacity=".99608" fill-rule="evenodd" style="paint-order:normal"/>
</svg>
