<?xml version="1.0" encoding="UTF-8"?>
<svg version="1.1" width="79" height="256" viewBox="0 0 78.789 256" xmlns="http://www.w3.org/2000/svg" xmlns:cc="http://creativecommons.org/ns#" xmlns:dc="http://purl.org/dc/elements/1.1/" xmlns:rdf="http://www.w3.org/1999/02/22-rdf-syntax-ns#">
<metadata>
<rdf:RDF>
<cc:Work rdf:about="">
<dc:format>image/svg+xml</dc:format>
<dc:type rdf:resource="http://purl.org/dc/dcmitype/StillImage"/>
</cc:Work>
</rdf:RDF>
</metadata>
<path d="m11.177 0v75.205h56.437v-75.205zm17.435 17.179h7.189v22.543h-7.189zm14.378 0h7.189v22.543h-7.189zm-42.99 60.925v155.75c0 12.268 7.2795 22.144 16.321 22.144h46.15c9.0413 0 16.319-9.8754 16.319-22.144v-155.75zm38.994 6.4843 23.228 13.679v12.272l-23.228-12.272-22.427 12.272v-12.272zm0.13606 24.728 11.138 5.561 0.28346 61.083c10.679 3.7894 17.661 12.707 17.718 22.632 0.06274 13.619-12.744 24.72-28.608 24.793-15.864 0.0737-28.777-10.906-28.841-24.526-0.04422-9.933 6.8578-18.93 17.51-22.821l0.23433-7.9961 2.4094-6.4842-2.7382-5.9764 3.2224-6.0059-3.2795-5.9744 2.683-6.0039-4.3641-5.9685 3.2244-6.0079-1.6535-5.9823zm0.48624 2.7775 0.25172 54.232 3.25-0.0151-0.24416-52.626zm-0.06085 88.53c-3.2927 0.0151-5.9495 2.9374-5.933 6.5295 0.01512 3.592 2.7014 6.4921 5.9941 6.4764 3.2923-0.0151 5.9475-2.9399 5.9311-6.5315-0.01512-3.5916-2.6998-6.4894-5.9922-6.4744z" fill="#71a7cf" fill-rule="evenodd" style="paint-order:normal"/>
</svg>
