<?xml version="1.0" encoding="UTF-8"?>
<svg version="1.1" width="256" height="216" viewBox="0 0 256 216.12" xmlns="http://www.w3.org/2000/svg" xmlns:cc="http://creativecommons.org/ns#" xmlns:dc="http://purl.org/dc/elements/1.1/" xmlns:rdf="http://www.w3.org/1999/02/22-rdf-syntax-ns#">
<metadata>
<rdf:RDF>
<cc:Work rdf:about="">
<dc:format>image/svg+xml</dc:format>
<dc:type rdf:resource="http://purl.org/dc/dcmitype/StillImage"/>
</cc:Work>
</rdf:RDF>
</metadata>
<path d="m212.88 4.9824e-4c-0.25928-0.073701-10.337 8.0386-22.393 18.026l-21.921 18.158 1.4425 0.75772c0.79351 0.41616 10.589 5.6624 21.767 11.66l20.323 10.906 1.9516-1.5668c6.6515-5.334 41.093-34.068 41.084-34.276-0.01134-0.25285-41.364-23.414-42.254-23.666zm-0.87613 17.535c0.55268-0.05858 1.4298 0.34545 3.4809 1.4879 1.799 1.0021 3.2716 1.9415 3.2717 2.0877 7e-5 0.14627-4.2225 3.7586-9.385 8.0273s-9.546 7.7592-9.7401 7.7491c-0.83963-0.03024-6.126-3.2495-6.1291-3.7334-3e-3 -0.40275 12.401-11.01 18.026-15.415 0.14362-0.11225 0.2914-0.18369 0.47558-0.20296zm0.33524 1.332-8.349 6.9104c-4.5926 3.8004-8.351 7.0867-8.351 7.3031 0 0.96525 1.3833 0.0189 8.278-5.6653 4.0417-3.3323 7.5675-6.2278 7.8359-6.4349 0.30236-0.2332 1.0869-0.02268 2.0641 0.55449 1.3837 0.81645 1.6543 0.85372 2.2041 0.30387 0.54981-0.54981 0.36321-0.77083-1.5273-1.7997zm11.084 4.9095c1.0919 0.17046 6.1472 2.9651 6.3461 3.5618 0.076 0.22791-4.0934 3.9181-9.2646 8.199-5.1712 4.281-9.4619 7.7828-9.535 7.7727-0.57846-0.04422-6.3402-3.5685-6.3402-3.8775 0-0.40675 17.739-15.312 18.63-15.654 0.034-0.01134 0.0907-0.01134 0.16366 0zm0.29405 1.5628c-0.67306 0-16.945 13.786-16.714 14.16 0.13493 0.21808 0.34621 0.39473 0.46965 0.39473 0.12321 0 3.436-2.6485 7.3604-5.8863 3.9243-3.2378 7.4805-6.1586 7.903-6.4901 0.67182-0.52717 0.97316-0.48563 2.4094 0.32164 1.4015 0.78765 1.7164 0.83259 2.1469 0.3137 0.41121-0.49557 0.15685-0.81177-1.3773-1.7109-1.0352-0.60658-2.0246-1.1031-2.1983-1.1031zm31.91 0.24302c-0.0393-0.01512-0.0813-0.01134-0.12851 0.0189-0.52312 0.32353-40.35 33.248-41.409 34.233-0.50555 0.47006-0.28535 0.71289 1.3912 1.5274l1.991 0.96692v2.2949c0 2.1345 0.0533 2.2531 0.77552 1.7325 0.42656-0.30765 9.0962-7.4634 19.265-15.903l18.49-15.344v-4.9096c0-3.1982-0.099-4.4961-0.37493-4.6156zm-96.567 7.609c-1.1677 0.44806-149.99 128.48-153.33 131.91-3.702 3.8007-5.2914 6.4589-5.6239 9.4087-0.2555 2.2644 0.77061 4.6001 2.6284 5.9869 2.3664 1.7663 36.799 20.079 38.789 20.629 5.5538 1.5358 12.716-0.67106 20.122-6.2021 2.9704-2.2185 153.4-131.36 153.58-131.84 0.17008-0.47384-55.544-30.128-56.16-29.891zm56.912 31.535c-0.11829 0-32.915 28.09-72.883 62.423-39.968 34.333-74.619 64.048-77.002 66.034-9.1697 7.6427-16.679 10.683-23.498 9.5152-2.3684-0.40566-5.4645-1.9089-20.566-9.9869-9.7769-5.2299-18.512-10.186-19.581-10.723-0.78588-0.39496-1.5718-0.89265-2.3577-2.3252v5.2693c-0.3772 5.2488 0.5396 7.9877 2.63 9.8231 1.3108 1.1508 6.0237 3.7512 29.341 16.195 4.3294 2.3104 8.7606 4.4513 9.8467 4.7575 5.0889 1.4346 12.618-0.93203 19.579-6.1547 1.2065-0.90524 36.507-31.117 78.446-67.137l76.254-65.489 4e-3 -6.1014c2e-3 -3.3552-0.0945-6.0994-0.21316-6.0994zm-60.639 5.8094c1.5146-0.02646 2.7828 0.26419 4.0117 0.88592 2.6319 1.3319 2.8487 5.0747 0.51897 8.9548-1.8556 3.0907-3.0501 4.3865-6.3914 6.9243-3.4548 2.6239-8.1029 4.7845-11.563 5.3772-2.4584 0.42112-3.0471 0.70964-4.3116 2.1095-1.9739 2.1848-1.8924 3.4022 0.54856 8.1635 4.2712 8.3313 2.7909 12.324-8.0944 21.824-4.575 3.993-5.3842 4.8966-6.0442 6.7546-2.2333 6.288-13.568 12.098-17.521 8.9804-3.2917-2.5966 0.63734-9.1831 7.5498-12.657 1.621-0.81464 3.2637-1.482 3.6505-1.482 0.38691 0 3.1479-2.1421 6.135-4.7616 7.1462-6.2667 7.1403-6.2511 4.2169-12.191l-2.1943-4.4576-10.174 8.8857c-27.287 23.829-32.622 28.535-32.622 28.782 0 0.14702 0.86838 0.68897 1.9279 1.2037 1.0596 0.51477 1.9165 1.1787 1.9062 1.4761-0.01134 0.29744-5.847 3.3821-12.972 6.8551-12.173 5.9313-14.407 6.8544-14.407 5.9416 0-0.47482 11.057-19.771 11.761-20.524 0.43064-0.46092 0.95603-0.34999 2.9126 0.60975l2.3857 1.1701 1.4287-1.251c0.78626-0.68772 7.9516-6.9342 15.922-13.88l14.492-12.629-2.9382-0.25096c-1.6165-0.13871-4.8599-0.49107-7.2084-0.78338-7.0619-0.87889-9.2118-0.26117-14.312 4.1144-2.9931 2.5676-3.2991 2.9607-2.5751 3.3013 0.45196 0.21278 0.82284 0.64059 0.82284 0.95115 0 0.66769-14.924 13.858-15.68 13.858-0.84212 0-10.487-5.1976-10.348-5.5766 0.27515-0.75096 15.417-13.687 16.021-13.687 0.35414 0 1.0078 0.19426 1.4524 0.43215 0.67559 0.3617 1.3563-0.0473 4.1459-2.4923 5.563-4.8747 9.1381-6.9894 14.654-8.6647 2.9588-0.89869 3.5746-0.93535 9.6218-0.59792 3.5533 0.19805 8.483 0.36964 10.956 0.38283 5.563 0.0265 5.6666-0.0265 14.336-7.611 4.4995-3.9364 6.2054-5.6826 6.0205-6.1644-0.45407-1.1833 0.99266-5.0908 2.7606-7.4551 3.5316-4.7226 10.54-9.2499 16.163-10.441 1.1306-0.23924 2.1281-0.36775 3.0369-0.38279z" fill="#71a7cf" fill-rule="evenodd" style="paint-order:normal"/>
</svg>
