<?xml version="1.0" encoding="UTF-8"?>
<svg version="1.1" width="79" height="256" viewBox="0 0 78.789 256" xmlns="http://www.w3.org/2000/svg" xmlns:cc="http://creativecommons.org/ns#" xmlns:dc="http://purl.org/dc/elements/1.1/" xmlns:rdf="http://www.w3.org/1999/02/22-rdf-syntax-ns#">
<metadata>
<rdf:RDF>
<cc:Work rdf:about="">
<dc:format>image/svg+xml</dc:format>
<dc:type rdf:resource="http://purl.org/dc/dcmitype/StillImage"/>
</cc:Work>
</rdf:RDF>
</metadata>
<path d="m11.177 0v75.205h56.437v-75.205zm17.435 17.179h7.189v22.543h-7.189zm14.378 0h7.189v22.543h-7.189zm-42.99 60.925v155.75c0 12.268 7.2794 22.144 16.321 22.144h46.15c9.0414 0 16.319-9.8754 16.319-22.144v-155.75zm37.868 37.888c0.99666 0.0113 1.9771 0.19049 2.9511 0.53352 2.9167 1.0272 5.28 3.5647 6.2302 6.6889 1.0311 3.3909 0.42368 7.036-1.6377 9.8209-0.32882 0.44141-1.1679 1.3342-1.5889 1.687-0.70942 0.59493-1.7862 1.2614-2.5138 1.5551l-0.25323 0.10242-0.0378 0.6457c-0.03779 0.35527-0.03779 3.0968 0 6.0925 0.0378 6.031 0 5.8358 0.384 6.6673 0.3515 0.79763 1.2563 1.5626 2.8089 2.374 1.7337 0.9058 3.6257 1.5385 8.6498 2.8957 4.4795 1.2102 6.4581 1.9708 8.5689 3.2933 2.6249 1.6448 4.6152 4.3749 5.3601 7.3544 0.32126 1.2902 0.31748 1.2326 0.3515 5.7795l0.0378 2.4626 1.6297 0.0151 1.6301 0.0151v14.022h-13.044v-14.024h3.2402v-2.3898c-0.0378-4.513 0-4.3674-0.34772-5.1299-0.42293-0.96287-1.8319-1.9938-3.9783-2.9095-1.4638-0.6246-2.99-1.1101-6.5473-2.0846-2.4242-0.65317-3.6174-0.26267-8.685-3.0728-0.22677 9.1461 0.08315 20.965-0.04536 31.348 2.4745 0 4.2255-0.0189 6.5216 0.034l-9.7674 17.451c-3.371-5.7552-6.4709-11.695-9.7916-17.484h6.5159v-41.488l-0.52573 0.28157c-1.3002 0.69793-2.7742 1.2508-5.9683 2.2382-4.7346 1.4634-6.5707 2.2261-8.0001 3.3209-1.2132 0.92897-1.646 1.6752-1.7794 3.0748-0.03779 0.36359-0.05669 2.2504-0.05669 4.7835v4.1811l0.34016 0.24c1.4423 1.0218 2.4314 2.5821 2.8029 4.4213 0.1474 0.7341 0.15496 2.0146 0 2.7205-0.29858 1.5068-0.91464 2.7066-1.9249 3.7441-0.53518 0.54943-0.9188 0.83875-1.5829 1.1968-1.0012 0.54002-1.9933 0.77046-3.126 0.72246-1.0212-0.0431-1.8512-0.26457-2.6831-0.71456-1.8463-0.99953-3.1627-2.8857-3.5157-5.0374-0.10961-0.66694-0.10961-1.8804 0-2.4921 0.18142-1.0161 0.60019-2.0501 1.1633-2.8622 0.38249-0.55117 1.1112-1.3021 1.6086-1.6575l0.38173-0.27363v-4.2697c0-2.5792 0.0378-4.5191 0.05669-4.9016 0.35906-3.9705 2.358-7.3801 5.5238-9.4232 1.7866-1.1532 3.614-1.9315 6.923-2.9508 5.1753-1.5942 6.8183-2.2538 8.3388-3.3465 1.5458-1.1109 1.9404-1.8765 1.9941-3.8603l0.0378-0.98422-0.50381-0.2264c-1.8089-0.80659-3.3574-2.1944-4.4508-3.9882-1.728-2.834-2.0447-6.4615-0.84057-9.6339 1.3746-3.6227 4.5683-6.1671 8.177-6.5138h0.0038c0.33638-0.0302 0.66973-0.0476 1.002-0.0435z" fill="#71a7cf" fill-rule="evenodd" style="paint-order:normal"/>
</svg>
