<?xml version="1.0" encoding="UTF-8"?>
<svg version="1.1" width="79" height="256" viewBox="0 0 78.79 256" xmlns="http://www.w3.org/2000/svg" xmlns:cc="http://creativecommons.org/ns#" xmlns:dc="http://purl.org/dc/elements/1.1/" xmlns:rdf="http://www.w3.org/1999/02/22-rdf-syntax-ns#">
<metadata>
<rdf:RDF>
<cc:Work rdf:about="">
<dc:format>image/svg+xml</dc:format>
<dc:type rdf:resource="http://purl.org/dc/dcmitype/StillImage"/>
</cc:Work>
</rdf:RDF>
</metadata>
<path d="m11.175 0v75.205h56.437v-75.205zm17.435 17.179h7.189v22.543h-7.189zm14.378 0h7.1909v22.543h-7.1909zm-42.988 60.925v155.75c0 12.268 7.2775 22.146 16.319 22.146h46.15c9.0414 0 16.321-9.8774 16.321-22.146v-155.75zm37.864 28.411c0.99666 0.0113 1.9771 0.1886 2.9511 0.53148 2.9167 1.0272 5.2819 3.5667 6.2321 6.6909 1.0314 3.3909 0.4218 7.036-1.6396 9.8209-0.32882 0.44145-1.166 1.3342-1.5866 1.687-0.70942 0.59497-1.7885 1.2615-2.516 1.5552l-0.24945 0.10016-0.0378 0.64569c-0.03779 0.35528-0.03779 3.0987 0 6.0944 0.0378 6.031 0 5.8359 0.38211 6.6674 0.3515 0.79766 1.2563 1.5606 2.8089 2.3721 1.7333 0.90577 3.628 1.5405 8.6517 2.8976 4.4795 1.2102 6.4581 1.9708 8.5689 3.2933 2.6249 1.6448 4.6133 4.3729 5.3582 7.3523 0.32126 1.2903 0.32126 1.2327 0.3515 5.7795l0.0378 2.4626 1.6297 0.0151 1.632 0.0151v14.02h-13.043v-14.022h3.2379v-2.3898c-0.0378-4.513 0-4.3693-0.34772-5.1319-0.42293-0.96287-1.8319-1.9919-3.9783-2.9075-1.4638-0.62461-2.9919-1.112-6.5492-2.0866-2.4242-0.65314-3.6178-0.26078-8.685-3.0709-0.22677 9.146 0.08315 20.963-0.04535 31.346 2.4745 0 4.2255-0.0151 6.5216 0.034l-9.7697 17.449c-3.3706-5.7552-6.469-11.695-9.7894-17.484h6.5159v-41.486l-0.52573 0.28158c-1.3002 0.69789-2.7742 1.2509-5.9686 2.2382-4.7346 1.4634-6.5722 2.2261-8.0016 3.3208-1.2132 0.92897-1.6445 1.6772-1.7779 3.0768-0.0378 0.36359-0.05669 2.2485-0.05669 4.7815v4.183l0.33638 0.23811c1.4426 1.0218 2.4314 2.5821 2.8033 4.4213 0.1474 0.73406 0.15496 2.0146 0 2.7205-0.29858 1.5068-0.91464 2.7065-1.9253 3.7441-0.5348 0.54939-0.91842 0.84072-1.5825 1.1988-1.0012 0.54006-1.9937 0.76845-3.126 0.72049-1.0212-0.0431-1.8512-0.26419-2.6831-0.71456-1.8463-0.9996-3.1631-2.8838-3.5157-5.0354-0.10961-0.66694-0.10961-1.8824 0-2.4941 0.18142-1.0161 0.60019-2.0481 1.1633-2.8602 0.38211-0.55116 1.1112-1.3021 1.6082-1.6575l0.38211-0.27363v-4.2697c0-2.5792 0.0378-4.5191 0.05669-4.9016 0.35906-3.9705 2.358-7.3801 5.5234-9.4232 1.787-1.1532 3.614-1.9334 6.9233-2.9528 5.1753-1.5942 6.8183-2.2518 8.3384-3.3445 1.5462-1.1109 1.9404-1.8765 1.9945-3.8603l0.0378-0.98623-0.50419-0.2245c-1.8085-0.80659-3.3592-2.1944-4.4527-3.9882-1.7276-2.834-2.0443-6.4635-0.84057-9.6358 1.3746-3.6227 4.5702-6.1671 8.1793-6.5138 0.33638-0.0302 0.66973-0.0457 1.002-0.0416zm-21.756 94.955 22.427 12.272 23.229-12.272v12.272l-23.229 13.679-22.427-13.679z" fill="#71a7cf" fill-rule="evenodd" style="paint-order:normal"/>
</svg>
