<?xml version="1.0" encoding="UTF-8"?>
<svg version="1.1" width="512" height="512" viewBox="0 0 256 215.71" xmlns="http://www.w3.org/2000/svg" xmlns:cc="http://creativecommons.org/ns#" xmlns:dc="http://purl.org/dc/elements/1.1/" xmlns:rdf="http://www.w3.org/1999/02/22-rdf-syntax-ns#">
<metadata>
<rdf:RDF>
<cc:Work rdf:about="">
<dc:format>image/svg+xml</dc:format>
<dc:type rdf:resource="http://purl.org/dc/dcmitype/StillImage"/>
</cc:Work>
</rdf:RDF>
</metadata>
<path d="m207.54 5.5918e-4c-0.29103-0.082772-11.616 9.0341-25.166 20.258l-24.636 20.407 1.621 0.85156c0.89159 0.46768 11.901 6.3636 24.463 13.104l22.84 12.257 2.1933-1.7608c7.4752-5.9945 46.182-38.287 46.171-38.521 0-0.28422-46.487-26.313-47.487-26.596zm-0.98457 19.706c0.62098-0.06576 1.607 0.38838 3.9118 1.6721 2.022 1.1262 3.6767 2.182 3.6771 2.3463 0 0.16441-4.7456 4.224-10.547 9.0214-5.802 4.7973-10.728 8.7201-10.946 8.7087-0.94375-0.03401-6.8848-3.6519-6.8882-4.1958-3e-3 -0.45264 13.937-12.374 20.258-17.324 0.16252-0.12624 0.32882-0.20636 0.53443-0.22828zm0.37795 1.497-9.383 7.7662c-5.1613 4.2711-9.385 7.9643-9.385 8.2075 0 1.0848 1.5545 0.02268 9.3029-6.3669 4.5422-3.7449 8.5047-6.999 8.8063-7.2317 0.34016-0.2623 1.2215-0.02646 2.3199 0.62313 1.5549 0.91756 1.8592 0.95943 2.4771 0.34167 0.61795-0.61788 0.40819-0.86631-1.7167-2.0225zm12.457 5.5174c1.2272 0.19124 6.9086 3.3323 7.132 4.0029 0.0869 0.25625-4.6001 4.4034-10.412 9.2145-5.8118 4.8111-10.634 8.7467-10.716 8.7353-0.65008-0.04989-7.1252-4.0105-7.1252-4.3577 0-0.45713 19.936-17.208 20.937-17.593 0.0378-0.01134 0.10204-0.01134 0.18519 0zm0.32882 1.7564c-0.75629 0-19.044 15.493-18.784 15.914 0.15118 0.24491 0.38929 0.4436 0.52762 0.4436 0.13985 0 3.8616-2.9765 8.2719-6.6153 4.4103-3.6387 8.4072-6.9213 8.8819-7.2938 0.75477-0.59244 1.0938-0.54576 2.7076 0.36132 1.5749 0.8852 1.9291 0.9357 2.4128 0.35263 0.46224-0.55695 0.17764-0.9123-1.5477-1.9228-1.1637-0.68171-2.2753-1.2397-2.4707-1.2397zm35.862 0.27288c-0.0454-0.0189-0.0907-0.01134-0.14363 0.02268-0.58809 0.36359-45.347 37.365-46.537 38.472-0.56844 0.52823-0.32126 0.80118 1.5632 1.7166l2.2379 1.0866v2.5792c0 2.3988 0.0605 2.5321 0.87156 1.947 0.47925-0.34583 10.222-8.3876 21.651-17.872l20.779-17.245v-5.5176c0-3.5942-0.1096-5.0529-0.42142-5.1871zm-108.53 8.5513c-1.3122 0.50355-136.86 117.22-140.62 121.07-4.1605 4.2714-5.9467 7.2587-6.3205 10.574-0.28724 2.5449 0.86627 5.1698 2.9541 6.7283 2.6593 1.9851 41.357 22.565 43.592 23.183 6.2419 1.726 14.291-0.75417 22.614-6.9701 3.3381-2.4932 140.7-120.46 140.89-121 0.19276-0.53254-62.422-33.859-63.114-33.593zm63.959 35.44c-0.13229 0-36.991 31.569-81.909 70.153-44.918 38.585-52.156 44.806-54.835 47.038-10.305 8.5892-18.744 12.006-26.408 10.694-2.6619-0.45589-6.1414-2.1453-23.113-11.224-10.987-5.8776-20.804-11.447-22.006-12.051-0.8829-0.44383-1.7662-1.0032-2.6494-2.6131v5.9219c-0.42406 5.8987 0.60624 8.9768 2.9556 11.04 1.4733 1.2934 6.7695 4.2158 32.974 18.2 4.8654 2.5965 9.8453 5.0025 11.066 5.3467 5.7188 1.6122 14.18-1.0474 22.004-6.9169 1.3557-1.0174 9.3252-7.7968 56.458-48.277l85.697-73.6v-6.8571c2e-3 -3.7706-0.10582-6.8548-0.23811-6.8548z" fill="#71a7cf" fill-rule="evenodd" style="paint-order:normal"/>
</svg>
