<?xml version="1.0" encoding="UTF-8"?>
<svg version="1.1" width="79" height="256" viewBox="0 0 78.789 256" xmlns="http://www.w3.org/2000/svg" xmlns:cc="http://creativecommons.org/ns#" xmlns:dc="http://purl.org/dc/elements/1.1/" xmlns:rdf="http://www.w3.org/1999/02/22-rdf-syntax-ns#">
<metadata>
<rdf:RDF>
<cc:Work rdf:about="">
<dc:format>image/svg+xml</dc:format>
<dc:type rdf:resource="http://purl.org/dc/dcmitype/StillImage"/>
</cc:Work>
</rdf:RDF>
</metadata>
<path d="m11.177 0v75.205h56.437v-75.205zm17.435 17.179h7.189v22.543h-7.189zm14.378 0h7.189v22.543h-7.189zm-42.99 60.925v155.75c0 12.268 7.2796 22.144 16.321 22.144h46.15c9.0413 0 16.319-9.8754 16.319-22.144v-155.75zm39.394 31.234c15.865-4.2e-4 28.726 11.04 28.726 24.659-2e-3 9.9331-6.9461 18.896-17.616 22.738l-0.27175 7.9961-2.439 6.4724 2.7106 5.9902-3.2519 5.9901 3.2519 5.9901-2.7106 5.9902 4.3366 5.9901-3.252 5.9921 1.626 5.9902-11.11 10.272-11.11-5.6142v-61.083c-10.661-3.8389-17.603-12.79-17.614-22.715 3.41e-4 -13.619 12.86-24.659 28.724-24.659zm0 9.7559c-3.2924 2.6e-4 -5.9624 2.9123-5.9626 6.5039 1.89e-4 3.5917 2.6702 6.5017 5.9626 6.502 3.2927 3.8e-4 5.9624-2.9099 5.9626-6.502-2.26e-4 -3.592-2.6699-6.5043-5.9626-6.5039zm-3.7225 47.301v52.628l3.25 1.6043v-54.232zm-19.104 56.693 22.427 12.272 23.228-12.272v12.272l-23.228 13.679-22.427-13.679z" fill="#71a7cf" fill-rule="evenodd" style="paint-order:normal"/>
</svg>
