<?xml version="1.0" encoding="UTF-8"?>
<svg version="1.1" width="79" height="256" viewBox="0 0 78.789 256" xmlns="http://www.w3.org/2000/svg" xmlns:cc="http://creativecommons.org/ns#" xmlns:dc="http://purl.org/dc/elements/1.1/" xmlns:rdf="http://www.w3.org/1999/02/22-rdf-syntax-ns#">
<metadata>
<rdf:RDF>
<cc:Work rdf:about="">
<dc:format>image/svg+xml</dc:format>
<dc:type rdf:resource="http://purl.org/dc/dcmitype/StillImage"/>
</cc:Work>
</rdf:RDF>
</metadata>
<path d="m11.175 0v75.205h56.437v-75.205zm17.435 17.179h7.189v22.543h-7.189zm14.378 0h7.189v22.543h-7.189zm-42.988 60.925v155.75c0 12.268 7.2775 22.146 16.319 22.146h46.15c9.0414 0 16.321-9.8774 16.321-22.146v-155.75zm37.744 38.783 9.7678 17.451c-2.2964 0.0514-4.0452 0.034-6.5197 0.034 0.1285 10.384-0.18142 22.2 0.04536 31.346 5.0672-2.8099 6.2608-2.4177 8.685-3.0709 3.5573-0.97451 5.0854-1.46 6.5492-2.0846 2.1464-0.91559 3.5554-1.9465 3.9783-2.9094 0.33638-0.7626 0.32504-0.61697 0.34772-5.1299l0.0378-2.3918h-3.2379v-14.022h13.043v14.02l-1.632 0.0151-1.6297 0.0151-0.0378 2.4626c-0.03779 4.5469-0.03779 4.4893-0.3515 5.7795-0.74494 2.9794-2.7352 5.7075-5.3605 7.3524-2.1105 1.3225-4.0891 2.0831-8.5686 3.2933-5.0241 1.3572-6.9165 1.9918-8.6498 2.8976-1.5526 0.81142-2.4567 1.5744-2.8089 2.372-0.36661 0.83149-0.35528 0.63832-0.384 6.6693 0 2.9957-0.0038 5.7371 0 6.0925l0.0378 0.64569 0.25323 0.10054c0.72756 0.29367 1.8066 0.96011 2.516 1.5551 0.42066 0.35263 1.2597 1.2456 1.5863 1.687 2.0617 2.7849 2.6691 6.43 1.638 9.8208-0.95017 3.1242-3.3135 5.6638-6.2306 6.691-1.2983 0.45724-2.6075 0.61923-3.9526 0.49013h-0.0038c-3.6087-0.34621-6.8024-2.8911-8.177-6.5138-1.2042-3.1724-0.88743-6.8018 0.84057-9.6358 1.0934-1.7938 2.6423-3.1816 4.4508-3.9882l0.5057-0.2245-0.03779-0.98623c-0.05291-1.9838-0.45014-2.7474-1.996-3.8582-1.5205-1.0926-3.1635-1.7523-8.3384-3.3465-3.3094-1.0194-5.1368-1.7996-6.9233-2.9528-3.1657-2.0431-5.1643-5.4508-5.5238-9.4213-0.03779-0.38238-0.05669-2.3243-0.05669-4.9035v-4.2697l-0.38173-0.27363c-0.49739-0.35528-1.2261-1.1064-1.6082-1.6575-0.56353-0.81214-0.98306-1.8441-1.1637-2.8602-0.10961-0.61176-0.10583-1.8272 0.00227-2.4941 0.3515-2.1516 1.6671-4.0358 3.5138-5.0354 0.8315-0.45026 1.6615-0.6714 2.6827-0.7146 1.1327-0.048 2.1249 0.18067 3.126 0.7205 0.66444 0.35792 1.05 0.64936 1.5848 1.1988 1.0103 1.0376 1.6256 2.2373 1.9234 3.7441 0.13984 0.70579 0.13228 1.9864 0 2.7205-0.37039 1.8392-1.361 3.3994-2.8033 4.4212l-0.33638 0.23811v4.1831c0 2.533 0.0378 4.42 0.05669 4.7834 0.13228 1.3996 0.56466 2.1459 1.7775 3.0748 1.4294 1.0947 3.2655 1.8574 8.0001 3.3208 3.1941 0.98733 4.6704 1.5403 5.9705 2.2382l0.52535 0.28157v-41.488h-6.5174c3.3203-5.7893 6.4207-11.729 9.7912-17.484z" fill="#71a7cf" fill-rule="evenodd" style="paint-order:normal"/>
</svg>
