<?xml version="1.0" encoding="UTF-8"?>
<svg version="1.1" width="256" height="216" viewBox="0 0 256 216.12" xmlns="http://www.w3.org/2000/svg" xmlns:cc="http://creativecommons.org/ns#" xmlns:dc="http://purl.org/dc/elements/1.1/" xmlns:rdf="http://www.w3.org/1999/02/22-rdf-syntax-ns#">
<metadata>
<rdf:RDF>
<cc:Work rdf:about="">
<dc:format>image/svg+xml</dc:format>
<dc:type rdf:resource="http://purl.org/dc/dcmitype/StillImage"/>
</cc:Work>
</rdf:RDF>
</metadata>
<path d="m212.88 4.9824e-4c-0.25928-0.073701-10.337 8.0386-22.393 18.026l-21.921 18.158 1.4425 0.75768c0.79351 0.41616 10.589 5.6624 21.767 11.66l20.323 10.906 1.9516-1.5668c6.6515-5.334 41.093-34.068 41.084-34.276-0.01134-0.25285-41.364-23.414-42.254-23.666zm-0.87613 17.535c0.55268-0.05858 1.4298 0.34545 3.4809 1.4879 1.799 1.0021 3.2716 1.9415 3.2717 2.0877 7e-5 0.14627-4.2225 3.7586-9.385 8.0273s-9.546 7.7592-9.7401 7.7491c-0.83963-0.03024-6.126-3.2495-6.1291-3.7334-3e-3 -0.40275 12.401-11.01 18.026-15.415 0.14362-0.11225 0.2914-0.18369 0.47558-0.20296zm0.33524 1.332-8.349 6.9104c-4.5926 3.8004-8.351 7.0867-8.351 7.3031 0 0.96525 1.3833 0.0189 8.278-5.6653 4.0417-3.3323 7.5675-6.2278 7.8359-6.4349 0.30236-0.2332 1.0869-0.02268 2.0641 0.5545 1.3837 0.81645 1.6543 0.85372 2.2041 0.30387 0.54981-0.54977 0.36321-0.77084-1.5273-1.7997zm11.084 4.9095c1.0919 0.17046 6.1472 2.9651 6.3461 3.5618 0.076 0.2279-4.0934 3.9181-9.2646 8.1991-5.1712 4.281-9.4619 7.7829-9.535 7.7727-0.57846-0.04422-6.3402-3.5686-6.3402-3.8775 0-0.40675 17.739-15.312 18.63-15.654 0.034-0.01134 0.0907-0.01134 0.16366 0zm0.29405 1.5629c-0.67306 0-16.945 13.786-16.714 14.16 0.13493 0.21808 0.34621 0.3947 0.46965 0.3947 0.12321 0 3.436-2.6485 7.3604-5.8863 3.9243-3.2378 7.4805-6.1586 7.903-6.4901 0.67182-0.52721 0.97316-0.48567 2.4094 0.32164 1.4015 0.78762 1.7164 0.83259 2.1469 0.3137 0.41121-0.49557 0.15685-0.81177-1.3773-1.7109-1.0352-0.60658-2.0246-1.1031-2.1983-1.1031zm31.91 0.24302c-0.0393-0.01512-0.0813-0.01134-0.12851 0.0189-0.52312 0.32353-40.35 33.248-41.409 34.233-0.50555 0.47002-0.28535 0.71289 1.3912 1.5274l1.991 0.96688v2.2949c0 2.1345 0.0533 2.2531 0.77552 1.7325 0.42656-0.30765 9.0962-7.4634 19.265-15.903l18.49-15.344v-4.9096c0-3.1982-0.099-4.4961-0.37493-4.6155zm-96.567 7.609c-1.1677 0.44806-149.99 128.48-153.33 131.91-3.702 3.8007-5.2914 6.4589-5.6239 9.4087-0.2555 2.2644 0.77061 4.6001 2.6284 5.9869 2.3664 1.7664 36.799 20.079 38.789 20.629 5.5538 1.5358 12.716-0.6711 20.122-6.2021 2.9704-2.2185 153.4-131.36 153.58-131.84 0.17008-0.47384-55.544-30.128-56.16-29.891zm56.912 31.535c-0.11829 0-32.915 28.09-72.883 62.423-39.968 34.333-74.619 64.048-77.002 66.034-9.1697 7.6427-16.679 10.683-23.498 9.5152-2.3684-0.40562-5.4645-1.9089-20.566-9.9868-9.7769-5.2299-18.512-10.186-19.581-10.723-0.78588-0.39496-1.5718-0.89261-2.3577-2.3252v5.2693c-0.3772 5.2488 0.5396 7.9876 2.63 9.8231 1.3108 1.1508 6.0237 3.7512 29.341 16.195 4.3294 2.3104 8.7606 4.4513 9.8467 4.7575 5.0889 1.4346 12.618-0.93204 19.579-6.1547 1.2065-0.90528 36.507-31.117 78.446-67.137l76.254-65.489 4e-3 -6.1015c2e-3 -3.3552-0.0945-6.0994-0.21316-6.0994zm-155.76 92.855c-1.5148 0.0113-2.7797-0.2948-4.0017-0.93014-2.617-1.3609-2.7925-5.1058-0.42017-8.96 1.8896-3.07 3.0983-4.3526 6.4675-6.8534 3.4836-2.5856 8.1551-4.6948 11.622-5.2493 2.4629-0.39398 3.0547-0.67601 4.3346-2.0618 1.9979-2.1629 1.9298-3.3812-0.45849-8.1691-4.1791-8.3779-2.6548-12.354 8.3347-21.734 4.6188-3.9423 5.4379-4.837 6.1183-6.6876 2.3025-6.263 13.701-11.948 17.619-8.7866 3.2629 2.6328-0.7386 9.1755-7.689 12.573-1.6298 0.79677-3.2798 1.4459-3.6667 1.4416-0.38683-4e-3 -3.1713 2.1072-6.1871 4.6936-7.2149 6.1875-7.2093 6.1722-4.3511 12.144l2.145 4.4815 10.272-8.7729c27.549-23.527 32.935-28.174 32.938-28.421 2e-3 -0.14702-0.86071-0.69846-1.9145-1.2249-1.0538-0.52641-1.9034-1.1998-1.8898-1.497 0.0151-0.29745 5.8839-3.3175 13.047-6.7116 12.238-5.7967 14.482-6.6951 14.472-5.7823-4e-3 0.47482-11.274 19.648-11.986 20.393-0.43567 0.45615-0.95981 0.33902-2.9057-0.6418l-2.3726-1.1964-1.4424 1.2351c-0.79381 0.67903-8.0276 6.846-16.075 13.704l-14.63 12.468 2.9353 0.28347c1.6149 0.15572 4.8542 0.54467 7.1993 0.86287 7.0518 0.95671 9.2083 0.36283 14.357-3.9562 3.0212-2.5345 3.3316-2.9242 2.6114-3.2727-0.44954-0.2177-0.8157-0.64962-0.8123-0.96015 8e-3 -0.66769 15.076-13.693 15.832-13.685 0.84212 0.0076 10.429 5.3129 10.286 5.6903-0.28385 0.74793-15.567 13.516-16.171 13.509-0.35376-4e-3 -1.0055-0.20523-1.4475-0.44814-0.67155-0.36888-1.3568 0.0302-4.1731 2.4464-5.6164 4.813-9.2147 6.8882-14.748 8.5026-2.9686 0.866-3.5847 0.89586-9.6278 0.49176-3.5509-0.23736-8.4784-0.46319-10.951-0.50363-5.5623-0.0881-5.6666-0.034-14.419 7.4524-4.5426 3.8865-6.2677 5.6138-6.0881 6.0977 0.441 1.1882-1.0488 5.0795-2.8427 7.4242-3.5834 4.6834-10.641 9.1331-16.277 10.262-1.1332 0.22677-2.132 0.34394-3.0409 0.34923z" fill="#71a7cf" fill-rule="evenodd" style="paint-order:normal"/>
</svg>
