<?xml version="1.0" encoding="UTF-8"?>
<svg version="1.1" width="256" height="216" viewBox="0 0 256 216.12" xmlns="http://www.w3.org/2000/svg" xmlns:cc="http://creativecommons.org/ns#" xmlns:dc="http://purl.org/dc/elements/1.1/" xmlns:rdf="http://www.w3.org/1999/02/22-rdf-syntax-ns#">
<metadata>
<rdf:RDF>
<cc:Work rdf:about="">
<dc:format>image/svg+xml</dc:format>
<dc:type rdf:resource="http://purl.org/dc/dcmitype/StillImage"/>
</cc:Work>
</rdf:RDF>
</metadata>
<path d="m212.88 4.9824e-4c-0.26079-0.073701-10.337 8.0386-22.393 18.026l-21.921 18.158 1.4426 0.75768c0.7937 0.41616 10.589 5.6624 21.767 11.66l20.323 10.906 1.9514-1.5668c6.6516-5.3339 41.093-34.068 41.084-34.276 0-0.25285-41.365-23.414-42.254-23.666zm-0.87609 17.535c0.55256-0.05858 1.4298 0.34545 3.4809 1.4879 1.7991 1.0021 3.2716 1.9415 3.2716 2.0878 3.8e-4 0.14627-4.2225 3.7586-9.3849 8.0273-5.1625 4.2687-9.546 7.7592-9.7398 7.7491-0.83981-0.03024-6.1262-3.2495-6.1293-3.7335-3e-3 -0.40275 12.401-11.01 18.026-15.415 0.14362-0.11225 0.29103-0.18369 0.47547-0.20296zm0.33638 1.332-8.349 6.9104c-4.5925 3.8004-8.3509 7.0867-8.3509 7.3031 0 0.96522 1.3833 0.0189 8.2779-5.6653 4.0418-3.3323 7.5674-6.2278 7.8357-6.4349 0.30236-0.2332 1.087-0.02268 2.0644 0.5545 1.3837 0.81645 1.6543 0.85372 2.2038 0.30387 0.54992-0.54977 0.36284-0.77084-1.5273-1.7997zm11.084 4.9095c1.0919 0.17046 6.1474 2.9651 6.3462 3.5618 0.0756 0.2279-4.0932 3.9181-9.2644 8.1991-5.1715 4.281-9.462 7.7828-9.535 7.7727-0.57864-0.04422-6.3402-3.5686-6.3402-3.8775 0-0.40675 17.739-15.312 18.63-15.654 0.0378-0.01134 0.0907-0.01134 0.16252 0zm0.2948 1.5629c-0.67276 0-16.945 13.786-16.713 14.16 0.13606 0.21808 0.34772 0.39473 0.46942 0.39473 0.12472 0 3.436-2.6485 7.3606-5.8864 3.9243-3.2378 7.4804-6.1586 7.903-6.4901 0.67162-0.52721 0.97285-0.48567 2.4094 0.32164 1.4014 0.78765 1.7163 0.83259 2.1468 0.3137 0.41121-0.49553 0.15496-0.81177-1.3773-1.7109-1.0352-0.60658-2.0247-1.1031-2.1986-1.1031zm31.91 0.24302c-0.0378-0.01512-0.0832-0.01134-0.1285 0.0189-0.52309 0.32353-40.35 33.248-41.409 34.233-0.5057 0.47002-0.28346 0.71289 1.3909 1.5274l1.991 0.96688v2.295c0 2.1345 0.0529 2.2531 0.77556 1.7325 0.42671-0.30765 9.0962-7.4634 19.265-15.903l18.49-15.344v-4.9096c0-3.1982-0.0983-4.4962-0.37417-4.6156zm-96.567 7.609c-1.1677 0.4481-149.99 128.48-153.33 131.91-3.702 3.8007-5.2914 6.4589-5.6239 9.4087-0.2555 2.2644 0.77061 4.6001 2.6284 5.9869 2.3664 1.7664 36.799 20.079 38.789 20.629 5.5538 1.5358 12.716-0.67105 20.122-6.2021 2.9704-2.2184 153.41-131.36 153.58-131.84 0.17008-0.47384-55.544-30.128-56.16-29.891zm56.912 31.535c-0.11716 0-32.915 28.09-72.883 62.423-39.968 34.333-74.619 64.048-77.002 66.034-9.1697 7.6427-16.679 10.683-23.498 9.5153-2.3684-0.40565-5.4645-1.909-20.566-9.9869-9.7769-5.2299-18.512-10.186-19.581-10.723-0.78588-0.39496-1.5718-0.89261-2.3577-2.3252v5.2693c-0.3772 5.2487 0.5396 7.9876 2.63 9.8231 1.3108 1.1509 6.0237 3.7512 29.341 16.195 4.3294 2.3104 8.7606 4.4513 9.8467 4.7576 5.0889 1.4345 12.618-0.93203 19.579-6.1547 1.2065-0.90527 36.507-31.117 78.446-67.137l76.254-65.489 4e-3 -6.1015c2e-3 -3.3552-0.0945-6.0994-0.21165-6.0994z" fill="#71a7cf" fill-rule="evenodd" style="paint-order:normal"/>
</svg>
