<?xml version="1.0" encoding="UTF-8"?>
<svg version="1.1" width="79" height="256" viewBox="0 0 78.791 256" xmlns="http://www.w3.org/2000/svg" xmlns:cc="http://creativecommons.org/ns#" xmlns:dc="http://purl.org/dc/elements/1.1/" xmlns:rdf="http://www.w3.org/1999/02/22-rdf-syntax-ns#">
<metadata>
<rdf:RDF>
<cc:Work rdf:about="">
<dc:format>image/svg+xml</dc:format>
<dc:type rdf:resource="http://purl.org/dc/dcmitype/StillImage"/>
</cc:Work>
</rdf:RDF>
</metadata>
<path d="m11.177 0v75.205h56.437v-75.205zm17.435 17.179h7.189v22.543h-7.189zm14.378 0h7.189v22.543h-7.189zm-42.99 60.925v155.75c0 12.268 7.2797 22.146 16.321 22.146h46.15c9.0412 0 16.321-9.8774 16.321-22.146v-155.75zm38.538 30.258 23.228 13.679 0.80126 12.272-24.029-12.272-22.427 12.272v-12.272zm-0.79143 26.321 9.7678 17.451c-2.2964 0.0514-4.0475 0.034-6.522 0.034 0.1285 10.384-0.17764 22.202 0.04913 31.348 5.0676-2.8099 6.2612-2.4197 8.6854-3.0729 3.5573-0.97459 5.0831-1.46 6.5472-2.0846 2.146-0.91563 3.555-1.9466 3.9783-2.9095 0.33638-0.76252 0.32504-0.61693 0.34772-5.1299l0.0378-2.3898h-3.2402v-14.024h13.043v14.022l-1.6297 0.0151-1.6301 0.0151-0.0378 2.4626c-0.0378 4.5469-0.0378 4.4893-0.3515 5.7795-0.74494 2.9794-2.7349 5.7096-5.3603 7.3544-2.1109 1.3224-4.0894 2.0831-8.5688 3.2933-5.0237 1.3572-6.9162 1.9899-8.6494 2.8957-1.5526 0.81143-2.4571 1.5764-2.8093 2.374-0.36661 0.8315-0.35528 0.63632-0.38362 6.6673v6.0925l0.0378 0.64565 0.25323 0.10243c0.72756 0.29367 1.8043 0.96015 2.5138 1.5551 0.42066 0.35263 1.2616 1.2456 1.5885 1.687 2.0617 2.7849 2.6691 6.428 1.6377 9.8189-0.95017 3.1242-3.3135 5.6638-6.2302 6.6909-1.2986 0.45729-2.6079 0.61924-3.953 0.49017h-0.0019c-3.6087-0.34621-6.8024-2.8911-8.177-6.5138-1.2038-3.1724-0.88743-6.7998 0.84057-9.6339 1.0934-1.7938 2.6423-3.1836 4.4508-3.9902l0.50381-0.2245-0.0378-0.98426c-0.05291-1.9838-0.45014-2.7494-1.996-3.8603-1.5205-1.0926-3.1616-1.7522-8.3365-3.3464-3.3094-1.0194-5.1368-1.7976-6.9233-2.9508-3.1654-2.0431-5.1643-5.4527-5.5238-9.4232-0.0378-0.38237-0.05669-2.3242-0.05669-4.9035v-4.2677l-0.38362-0.27363c-0.49739-0.35528-1.2261-1.1064-1.6086-1.6575-0.56315-0.81214-0.98268-1.8461-1.1633-2.8622-0.10961-0.61175-0.10583-1.8252 0.00189-2.4921 0.3515-2.1517 1.6694-4.0378 3.5157-5.0374 0.83187-0.45018 1.6619-0.67136 2.6831-0.71452 1.1327-0.048 2.1248 0.18066 3.126 0.72045 0.66444 0.35792 1.0481 0.64944 1.5829 1.1988 1.0103 1.0376 1.6275 2.2373 1.9253 3.7441 0.13984 0.70579 0.13228 1.9864 0 2.7205-0.37039 1.8392-1.361 3.3995-2.8033 4.4213l-0.34016 0.24v4.1811c0 2.5331 0.0378 4.42 0.06047 4.7835 0.13228 1.3995 0.56428 2.1458 1.7775 3.0748 1.4294 1.0947 3.2655 1.8574 8.0001 3.3208 3.1941 0.98733 4.6681 1.5402 5.9683 2.2382l0.52573 0.28158v-41.488h-6.5159c3.3203-5.7893 6.4207-11.729 9.7916-17.484z" fill="#71a7cf" fill-rule="evenodd" style="paint-order:normal"/>
</svg>
