<?xml version="1.0" encoding="UTF-8"?>
<svg version="1.1" width="79" height="256" viewBox="0 0 78.789 256" xmlns="http://www.w3.org/2000/svg" xmlns:cc="http://creativecommons.org/ns#" xmlns:dc="http://purl.org/dc/elements/1.1/" xmlns:rdf="http://www.w3.org/1999/02/22-rdf-syntax-ns#">
<metadata>
<rdf:RDF>
<cc:Work rdf:about="">
<dc:format>image/svg+xml</dc:format>
<dc:type rdf:resource="http://purl.org/dc/dcmitype/StillImage"/>
</cc:Work>
</rdf:RDF>
</metadata>
<path d="m11.177 0v75.205h56.437v-75.205zm17.435 17.179h7.189v22.543h-7.189zm14.378 0h7.189v22.543h-7.189zm-42.99 60.925v155.75c0 12.268 7.2794 22.144 16.321 22.144h46.15c9.0414 0 16.319-9.8754 16.319-22.144v-155.75zm39.394 29.211c14.293-3e-4 25.881 9.948 25.882 22.219-0.0015 8.9492-6.2589 17.023-15.872 20.484l-0.24567 7.2047-2.1967 7.2066 2.4408 7.1555-2.9291 7.1555 2.9291 7.1555-2.4408 7.1556 3.9073 7.1555-2.931 7.1556 1.4646 7.1555-10.01 8.0374-10.01-6.252v-66.305c-9.6049-3.4587-15.859-11.523-15.87-20.465 3.78e-4 -12.27 11.587-22.218 25.88-22.219zm0 8.7894c-2.9662 2.6e-4 -5.37 2.6244-5.3703 5.8602 3.78e-4 3.2359 2.4042 5.858 5.3703 5.8583 2.9666 3e-4 5.3718-2.622 5.3718-5.8583 0-3.2363-2.4053-5.8606-5.3718-5.8602zm-3.3543 42.97v58.596l2.9291 1.7854v-60.382z" fill="#71a7cf" fill-rule="evenodd" style="paint-order:normal"/>
</svg>
