<?xml version="1.0" encoding="UTF-8"?>
<svg version="1.1" viewBox="0 0 222.54 256" xmlns="http://www.w3.org/2000/svg" xmlns:cc="http://creativecommons.org/ns#" xmlns:dc="http://purl.org/dc/elements/1.1/" xmlns:rdf="http://www.w3.org/1999/02/22-rdf-syntax-ns#">
<metadata>
<rdf:RDF>
<cc:Work rdf:about="">
<dc:format>image/svg+xml</dc:format>
<dc:type rdf:resource="http://purl.org/dc/dcmitype/StillImage"/>
</cc:Work>
</rdf:RDF>
</metadata>
<path d="m176.46 0.017571c-8.0631 0.21581-16.339 2.413-22.684 6.4201-2.6942 1.7016-7.2736 6.4297-7.0113 7.2385 0.0971 0.2982 0.71762 1.9437 1.3806 3.6555 1.7731 4.578 2.6372 9.1589 2.8726 15.228 0.3035 7.833-0.67763 14.372-3.2479 21.635-1.3745 3.8838-1.4524 3.5498 1.7174 7.2369 5.0945 5.926 14.058 10.337 23.214 11.424 7.8236 0.9289 17.65-1.2974 23.538-5.3343 6.6658-4.5702 11.239-12.596 13.459-23.623 0.88056-4.3732 0.88029-14.705 0-18.734-2.4161-11.056-7.5108-18.133-15.819-21.972-5.0049-2.3124-11.148-3.3431-17.419-3.1754zm-126.97 0.35452c-3.7252 0.0075591-7.6043 0.46741-11.522 1.4161-12.887 3.1205-19.734 9.0739-23.556 20.482-3.4041 10.161-2.6092 23.166 1.9768 32.342 4.8217 9.6474 13.777 16.074 25.466 18.278 4.2806 0.8067 11.813 0.51058 16.225-0.63802 8.9631-2.3336 15.2-7.2915 19.151-15.223 7.2546-14.565 6.604-33.826-1.5273-45.221-5.2536-7.3624-15.038-11.452-26.214-11.435zm64.506 0.041575c-3.3122-0.026457-6.6657 0.17915-8.9624 0.6316-10.059 1.9801-17.723 6.0201-21.625 11.398l-0.96506 1.3307 0.63636 1.2583c0.9312 1.8432 2.2808 6.0473 3.0143 9.3861 0.52562 2.3922 0.63606 4.3253 0.61546 10.688-0.02646 8.8221-0.43204 11.398-2.9322 18.75l-1.3855 4.076 1.1906 1.6207c2.909 3.9582 8.3277 8.2548 13.196 10.462 2.8635 1.2984 7.5988 2.6386 10.672 3.0224 7.0658 0.88263 14.552-0.16932 20.388-2.8661 8.9642-4.1418 14.411-11.698 17.305-24.007 0.67245-2.8603 0.89295-4.9246 1.0343-9.6777 0.21052-7.0885-0.29556-11.034-2.088-16.28-3.5887-10.505-10.286-16.459-21.384-19.012-2.1272-0.48934-5.3973-0.75356-8.7095-0.78146zm-100.49 68.559-1.8785 0.87001c-1.033 0.47788-2.2442 1.2077-2.6905 1.6224-3.4119 3.1702-6.6053 16.664-8.144 34.414-1.8628 21.489-0.38169 42.225 3.6136 50.597 1.6229 3.4004 4.195 5.3252 9.4038 7.0388 1.2846 0.42258 2.5665 0.99885 2.8484 1.2808 0.43087 0.4309 0.51553 2.202 0.51553 11.105 0.0076 30.074 1.4711 54.319 3.8408 63.728 1.6021 6.361 5.0031 10.306 11.514 13.357 2.5493 1.1946 6.7984 2.4375 9.6713 2.8274 2.1939 0.29783 7.837 0.22677 10.404-0.13077 5.9763-0.83123 12.05-3.4856 15.764-6.889 2.9083-2.6648 4.453-5.5889 5.3794-10.179 2.0194-10.005 3.135-30.243 3.1432-57.027 0.0031-10.719 0.12359-15.519 0.40112-16.128 0.30728-0.67439 1.0184-1.0724 3.1932-1.7899 3.4239-1.1297 6.2796-2.5497 7.5462-3.7522 4.018-3.8148 6.1186-16.558 6.1188-37.122 2.65e-4 -17.104-1.3663-31.454-3.9616-41.599-1.7696-6.9182-2.8847-8.8591-6.0061-10.443l-2.2088-1.1197-2.4955 2.5374c-5.8308 5.9261-14.324 9.9318-23.944 11.295-4.1282 0.58507-13.845 0.21694-17.694-0.67181-8.6788-2.0027-15.902-5.7644-21.69-11.294zm196.64 0.18709-1.7352 1.9462c-3.6489 4.0939-10.036 8.0349-16.315 10.066-5.2474 1.6973-8.1682 2.0904-15.426 2.0751-7.0603-0.01512-10.216-0.46348-15.355-2.1831-1.1347-0.37969-2.0864-0.66119-2.1153-0.6251-0.0264 0.03402 0.22829 1.4381 0.57185 3.1158 3.3704 16.458 4.3802 44.213 2.2104 60.794-1.4131 10.799-3.6999 16.951-7.3304 19.723-1.7094 1.3053-4.998 2.9486-7.2498 3.6233l-1.458 0.43661-0.0873 11.771c-0.15988 21.866 0.2366 34.38 1.479 46.65 1.1008 10.872 2.1046 15.096 4.4401 18.696 3.5317 5.4443 9.9782 8.8268 19.542 10.254 0.56965 0.085 2.9784 0.0952 5.352 0.0227 8.1269-0.24945 15.361-2.8863 20.047-7.3062 4.2018-3.9638 5.5164-7.8935 6.6715-19.953 1.1668-12.183 1.925-32.825 1.9332-52.336 3e-3 -12.614-0.35868-11.444 3.9729-12.874 4.111-1.3575 6.7141-2.9148 7.9733-4.7704 2.9827-4.3951 4.7839-15.14 5.1957-31.002 0.55884-21.527-2.4069-45.854-6.5426-53.671-0.99144-1.874-1.3366-2.2025-3.4381-3.2689zm-64.061 0.4108-2.7453 2.7453c-4.123 4.1192-8.8504 6.976-14.886 8.9963-5.5842 1.8691-8.5437 2.2939-15.825 2.278-6.89-0.01512-10.684-0.55298-15.45-2.1927-1.0916-0.37568-1.9832-0.574-1.9832-0.44141 0 0.13228 0.3103 1.8716 0.69116 3.8649 2.1241 11.113 2.9316 21.66 2.9193 38.149-0.0076 14.577-0.384 19.939-1.9075 27.408-2.1814 10.693-5.1176 14.522-13.269 17.296l-1.7271 0.58643-0.10507 17.229c-0.19276 31.366 1.481 51.632 4.8123 58.252 3.1468 6.2526 10.565 10.767 19.616 11.938 10.211 1.3206 21.217-1.7725 26.921-7.5656 3.3713-3.4241 4.6118-6.8154 5.6823-15.532 1.3714-11.167 1.9099-22.896 2.1556-46.952 0.15345-15.024 0.30841-20.019 0.63629-20.544 0.26116-0.41828 1.4455-1.0191 2.9822-1.5112 2.9237-0.93645 5.5017-2.1587 7.1289-3.3801 4.1804-3.1376 6.6451-17.091 6.6344-37.57-8e-3 -19.183-2.2504-37.861-5.5791-46.526-1.2908-3.3602-2.1029-4.3284-4.6624-5.5517z" fill="#71a7cf" fill-opacity=".99608" fill-rule="evenodd" style="paint-order:normal"/>
</svg>
