<?xml version="1.0" encoding="UTF-8"?>
<svg version="1.1" viewBox="0 0 102.88 256" xmlns="http://www.w3.org/2000/svg" xmlns:cc="http://creativecommons.org/ns#" xmlns:dc="http://purl.org/dc/elements/1.1/" xmlns:rdf="http://www.w3.org/1999/02/22-rdf-syntax-ns#">
<metadata>
<rdf:RDF>
<cc:Work rdf:about="">
<dc:format>image/svg+xml</dc:format>
<dc:type rdf:resource="http://purl.org/dc/dcmitype/StillImage"/>
</cc:Work>
</rdf:RDF>
</metadata>
<path d="m54.061 9.9636e-5c-12.029-0.022677-24.271 3.8271-31.022 10.096-12.708 11.801-15.236 40.66 1.2008 55.825 16.437 15.165 44.335 13.023 56.035 0 11.701-13.023 14.758-40.802 1.2011-55.825-6.3549-7.0421-16.802-10.077-27.416-10.096zm-21.362 23.348c5.8707 0.08126 11.752 2.3864 17.405 3.8622 0.9222 0.24151 1.6951 0.45604 2.6755 0 7.5371-1.9677 15.482-5.4082 23.264-3.0886 8.6264 2.5713 11.374 6.0525 12.264 9.8701 1.2661 5.4319-1.8531 13.298-6.7582 15.797-5.6394 2.8737-13.615 2.9001-18.911-0.58462-3.4798-2.2895-6.285-5.39-7.6928-9.3563-1.3485-3.3811-5.3907-3.1685-7.008 0-1.4079 3.9663-4.2112 7.0668-7.691 9.3563-5.2963 3.4848-13.272 3.4583-18.911 0.58462-4.9051-2.4992-8.0262-10.365-6.7601-15.797 0.8897-3.8176 3.6393-7.2988 12.266-9.8701 1.9457-0.57997 3.9016-0.80032 5.8583-0.77363zm0.09449 9.2087c-5.1039 0.06954-8.3864 2.4075-11.657 4.9409 5.915 5.7738 14.179 9.0006 21.437-2.8858-3.9326-1.5061-7.1059-2.0932-9.7795-2.0551zm37.293 0c-2.6733-0.0378-5.8466 0.54898-9.7795 2.0551 7.2578 11.886 15.522 8.6596 21.437 2.8858-3.2708-2.5335-6.5537-4.8712-11.658-4.9409zm-52.746 34.465c-3.9152 1.1653-6.8443 2.6395-8.3032 4.4508h0.00378c-9.1778 11.395-13.838 77.056-1.8308 88.939 2.1131 2.0908 5.9274 3.784 10.797 5.1102-0.37909 32.872 0.85266 65.004 4.6144 75.118 7.8236 21.038 50.939 19.913 57.968 0 3.3513-9.4942 4.577-41.888 4.3132-75.012 5.2358-1.3534 9.2421-3.0964 11.275-5.2165 10.788-11.248 7.3482-79.372-1.8285-88.939-1.4109-1.4705-4.1979-2.7575-7.9192-3.8425-0.61833 0.82375-1.2548 1.6184-1.9234 2.3622-13.426 14.94-45.437 17.397-64.297 0-1.0231-0.94386-1.9733-1.9398-2.8702-2.9705z" fill="#72a7cf" fill-opacity=".99608" fill-rule="evenodd" style="paint-order:normal"/>
</svg>
