<?xml version="1.0" encoding="UTF-8"?>
<svg version="1.1" viewBox="0 0 222.54 256" xmlns="http://www.w3.org/2000/svg" xmlns:cc="http://creativecommons.org/ns#" xmlns:dc="http://purl.org/dc/elements/1.1/" xmlns:rdf="http://www.w3.org/1999/02/22-rdf-syntax-ns#">
<metadata>
<rdf:RDF>
<cc:Work rdf:about="">
<dc:format>image/svg+xml</dc:format>
<dc:type rdf:resource="http://purl.org/dc/dcmitype/StillImage"/>
</cc:Work>
</rdf:RDF>
</metadata>
<path d="m176.46 0.017579c-8.063 0.21581-16.339 2.413-22.684 6.4202-2.6943 1.7016-7.2737 6.4297-7.0114 7.2386 0.0971 0.2982 0.71766 1.9436 1.3807 3.6555 1.773 4.578 2.637 9.1589 2.8725 15.228 0.30349 7.8331-0.6776 14.372-3.2479 21.635-1.3745 3.8838-1.4524 3.5498 1.7173 7.237 5.0945 5.926 14.058 10.337 23.214 11.424 7.8235 0.92897 17.65-1.2974 23.538-5.3342 6.6658-4.5702 11.239-12.597 13.459-23.623 0.88055-4.3732 0.88029-14.705 0-18.734-2.4161-11.056-7.5109-18.133-15.819-21.972-5.005-2.3125-11.148-3.3432-17.419-3.1754zm-126.97 0.38011c-3.744-0.0030614-7.6308 0.44844-11.521 1.3904-12.887 3.1204-19.734 9.0739-23.556 20.482-3.4042 10.161-2.6093 23.166 1.9768 32.342 4.8255 9.655 13.917 16.172 25.466 18.255 3.7007 0.6675 9.4069 0.67937 13.159 0.02646 8.8513-1.538 15.908-5.816 20.103-12.189l1.6707-2.5375-1.3275-3.0804c-2.629-6.0978-3.7393-11.776-3.7393-19.117 0-7.4157 1.338-14.062 3.989-19.8l1.2052-2.6067-1.2743-1.8511c-4.9643-7.2078-14.92-11.306-26.153-11.315zm64.508 0.015118c-3.3122-0.026457-6.6656 0.17915-8.9624 0.63156-15.84 3.1182-23.784 10.083-27.298 23.934-2.677 10.553-1.3319 22.335 3.5316 30.939 5.2475 9.2838 15.118 15.737 26.183 17.119 7.0659 0.8826 14.552-0.16932 20.388-2.8661 8.9643-4.1418 14.411-11.698 17.305-24.007 0.67241-2.8603 0.89287-4.9246 1.0343-9.6777 0.21052-7.0885-0.29556-11.034-2.088-16.28-3.5887-10.505-10.286-16.46-21.384-19.012-2.1272-0.4893-5.3973-0.75352-8.7095-0.78138zm-36.43 68.442-2.2651 1.1148c-3.3425 1.6455-4.6903 4.0451-6.6988 11.927-3.048 11.961-4.7455 29.9-4.3773 46.251 0.31521 13.989 1.7883 23.27 4.5802 28.85 1.4634 2.9244 4.9288 5.254 10.021 6.7343 1.0283 0.29896 2.0043 0.80428 2.1685 1.1229 0.16403 0.31861 0.38993 9.4345 0.50272 20.258 0.36132 34.731 1.8859 52.219 5.1118 58.629 3.1468 6.2526 10.565 10.767 19.617 11.938 10.211 1.3207 21.217-1.7725 26.921-7.5656 3.3714-3.4241 4.6119-6.8155 5.6823-15.532 1.3714-11.168 1.9099-22.896 2.1556-46.952 0.15345-15.024 0.30841-20.019 0.63629-20.544 0.26116-0.41824 1.4455-1.019 2.9822-1.5112 2.9238-0.93641 5.5016-2.1587 7.129-3.38 4.1805-3.1376 6.6452-17.091 6.6345-37.57-8e-3 -19.183-2.2504-37.861-5.5792-46.526-1.2909-3.3603-2.1029-4.3284-4.6624-5.5517l-2.0396-0.9747-2.7453 2.7453c-7.1102 7.1036-16.691 10.903-28.64 11.358-13.258 0.50525-25.268-3.7023-34.048-11.928zm-64.061 0.11754-1.8785 0.87001c-1.033 0.47788-2.2442 1.2077-2.6905 1.6224-3.412 3.1703-6.6054 16.664-8.1441 34.414-1.8628 21.489-0.38203 42.226 3.6137 50.598 1.6229 3.4004 4.1951 5.3252 9.4039 7.0388 1.2845 0.42259 2.5664 0.99885 2.8484 1.2808 0.43087 0.43094 0.51553 2.2021 0.51553 11.105 0.0076 30.074 1.4712 54.319 3.8408 63.728 1.6021 6.361 5.0032 10.306 11.514 13.358 2.5492 1.1946 6.7984 2.4375 9.6712 2.8274 2.194 0.29783 7.837 0.22678 10.404-0.13077 5.9763-0.83119 12.05-3.4856 15.764-6.8889 2.9083-2.6649 4.4529-5.5889 5.3794-10.179 2.122-10.513 3.2301-31.849 2.8984-55.821l-0.20334-14.706-2.3473-0.92152c-6.1567-2.4155-8.9796-5.4476-11.229-12.061-4.6198-13.581-4.6108-46.641 0.02268-69.684 0.64698-3.219 0.67616-3.6917 0.2143-3.5573-2.0843 0.6065-5.107 1.2446-7.5673 1.5966-4.121 0.58957-13.832 0.22299-17.694-0.6686-8.6789-2.0027-15.902-5.7644-21.69-11.294zm196.64 0.18709-1.7352 1.9461c-3.6489 4.0939-10.036 8.035-16.315 10.066-5.2475 1.6973-8.1683 2.0904-15.426 2.075-7.0604-0.01512-10.216-0.46345-15.355-2.183-1.1348-0.37969-2.0864-0.66127-2.1153-0.6251-0.0265 0.03401 0.22828 1.4381 0.57192 3.1158 3.3704 16.458 4.3802 44.213 2.2103 60.794-1.413 10.799-3.6998 16.951-7.3303 19.723-1.7095 1.3053-4.9981 2.9486-7.2499 3.6233l-1.4579 0.43658-0.0873 11.771c-0.15987 21.867 0.2366 34.38 1.479 46.65 1.1008 10.872 2.1046 15.096 4.4401 18.697 3.5318 5.4444 9.9782 8.8269 19.542 10.255 0.56965 0.085 2.9785 0.0953 5.352 0.0227 8.127-0.24945 15.361-2.8863 20.047-7.3062 4.2019-3.9638 5.5165-7.8936 6.6714-19.953 1.1669-12.184 1.9251-32.825 1.9333-52.336 3e-3 -12.614-0.35868-11.444 3.9729-12.874 4.111-1.3575 6.714-2.9148 7.9732-4.7704 2.9828-4.3951 4.7841-15.14 5.1958-31.002 0.55888-21.527-2.4068-45.854-6.5426-53.672-0.9914-1.874-1.3366-2.2025-3.438-3.2688z" fill="#71a7cf" fill-opacity=".99608" fill-rule="evenodd" style="paint-order:normal"/>
</svg>
