<?xml version="1.0" encoding="UTF-8"?>
<svg version="1.1" width="214" height="256" viewBox="0 0 213.4 256" xmlns="http://www.w3.org/2000/svg" xmlns:cc="http://creativecommons.org/ns#" xmlns:dc="http://purl.org/dc/elements/1.1/" xmlns:rdf="http://www.w3.org/1999/02/22-rdf-syntax-ns#">
<metadata>
<rdf:RDF>
<cc:Work rdf:about="">
<dc:format>image/svg+xml</dc:format>
<dc:type rdf:resource="http://purl.org/dc/dcmitype/StillImage"/>
</cc:Work>
</rdf:RDF>
</metadata>
<path d="m109.77 0.004881c-9.3468-0.14627-19.808 3.0056-25.839 8.0122-6.6446 5.5163-10.557 15.821-10.567 27.827-0.0076 5.7915 0.54614 9.3396 2.2301 14.377 4.2628 12.751 14.47 21.046 28.103 22.84 9.6373 1.2677 20.279-2.0701 26.335-8.2593 3.3291-3.4023 6.2969-8.9208 8.0493-14.971 4.2001-14.502 2.1008-30.496-5.2308-39.866-4.1526-5.3073-10.725-8.6319-19.16-9.6894-1.2736-0.1595-2.5859-0.24794-3.9212-0.26872zm-62.342 14.633c-3.89 3e-3 -7.9205 0.49448-11.906 1.5012-12.813 3.2365-19.507 9.7515-22.625 22.021-2.9009 11.413-0.43208 24.336 6.2578 32.755 5.0407 6.3431 13.892 11.01 22.854 12.049 3.4943 0.4052 5.0335 0.4086 8.3983 0.02268 3.3418-0.38283 7.3509-1.3345 9.4948-2.2548 1.4217-0.61024 1.4419-0.64301 2.4-3.8408 2.0055-6.6939 4.0154-9.4726 8.3937-11.608 1.4041-0.6847 3.1735-1.3152 3.932-1.4007 1.9929-0.22488 2.0525-0.97342 0.30728-3.8501-5.4958-9.0615-7.5311-21.431-5.4964-33.44l0.72737-4.2872-1.1058-0.93434c-5.1987-4.3938-13.074-6.7416-21.632-6.7335zm123.68 4.8509c-8.7497-0.08542-18.238 2.2634-24.299 6.2485l-2.2131 1.4564 0.19162 4.8215c0.22375 5.5906-0.20938 10.405-1.4316 15.899-1.2737 5.7269-2.8992 9.8437-6.1018 15.456-0.43416 0.76097-0.70364 1.4693-0.59921 1.5737 0.10431 0.10432 0.64596-0.0378 1.2031-0.31521 0.914-0.45596 1.1705-0.45279 2.6192 0.03401 4.7053 1.5811 7.4868 3.6565 9.0422 6.7443 1.0604 2.1049 2.4053 6.2035 3.0347 9.2508 0.29102 1.4098 0.65216 2.2396 1.1027 2.5343 1.1406 0.74623 6.5004 2.3649 9.1088 2.7505 1.3651 0.20183 2.8545 0.42123 3.3095 0.48805 3.0856 0.4529 8.5986-0.03024 13.073-1.1444 3.8984-0.9716 9.4907-3.8107 12.004-6.0941 11.104-10.087 14.136-33.007 6.1667-46.622-4.1471-7.0844-10.698-11.154-20.322-12.625-1.8894-0.28913-3.8695-0.43744-5.8886-0.45713zm-96.851 49.316-1.3328 0.59304c-3.1957 1.4205-4.9307 4.133-6.5836 10.295-5.843 21.782-6.453 61.133-1.1676 75.318 1.702 4.5676 4.2206 6.7497 9.8933 8.5728 3.1428 1.0101 2.8444-1.0381 3.0872 21.271 0.39545 36.344 1.8908 53.332 5.2617 59.78 2.7661 5.2912 8.9562 9.3578 16.681 10.957 3.4267 0.70964 11.739 0.4577 15.18-0.46019 7.635-2.0367 13.668-6.7124 15.712-12.176 2.5624-6.8485 4.2938-34.215 4.3057-68.054 2e-3 -5.6013 0.13493-9.4518 0.33978-9.8346 0.18482-0.34583 1.0412-0.84061 1.9026-1.0981 2.7501-0.82186 5.6431-2.1165 7.1582-3.2046 4.7122-3.384 6.9624-15.812 6.9481-38.379-0.0113-17.091-1.371-31.541-3.9459-41.913-1.6026-6.4549-2.925-8.7474-5.8794-10.193l-1.7714-0.86642-3.1196 3.1104c-5.4306 5.4175-11.586 8.5857-20.162 10.377-3.8906 0.81279-13.223 0.81105-17.299-3e-3 -8.7536-1.7485-16.371-5.6361-22.464-11.465zm-61.322 10.224-1.2386 0.51738c-2.401 1.0032-3.7195 2.1324-4.735 4.0555-3.7283 7.0608-6.4757 24.251-6.9111 43.25-0.3617 15.788 1.0272 27.605 4.0061 34.087 1.5766 3.4308 3.5482 4.9306 9.1118 6.928 1.3589 0.48786 2.6392 1.0264 2.8447 1.1969 0.26494 0.21996 0.43204 5.7263 0.57604 18.928 0.24907 22.842 0.94231 36.109 2.3907 45.758 1.1455 7.6312 2.2147 10.176 5.7744 13.745 3.5473 3.5563 7.7602 5.6183 13.822 6.7643 4.0004 0.75624 11.619 0.46892 15.68-0.5915 7.4838-1.9544 12.509-5.5072 15.127-10.695 2.8241-5.5951 4.426-28.673 4.1049-59.143-0.14929-14.18-0.22261-15.849-0.7011-16.014-2.8104-0.96548-6.2463-2.9327-7.9335-4.542-4.3516-4.1508-6.7344-13.076-7.6941-28.81-0.69653-11.42 0.29064-33.114 1.9042-41.829 0.19578-1.0569 0.16101-1.1109-0.58526-0.92357-0.4362 0.10923-2.2058 0.44527-3.9335 0.74597-3.9245 0.68296-14.384 0.48461-18.034-0.34129-8.4422-1.9102-15.717-5.6213-21.17-10.801zm188.56 4.0571-2.4046 2.3583c-6.7025 6.5751-16.027 10.218-27.389 10.698-4.9122 0.20787-9.5631-0.20976-13.902-1.2463-1.5083-0.36019-2.7908-0.60563-2.8494-0.54671-0.059 0.05896 0.10885 2.3326 0.37228 5.0532 0.94621 9.7708 1.3025 22.906 0.87103 32.155-0.85651 18.362-2.9865 27.646-7.3018 31.834-1.4901 1.4461-5.1012 3.4709-7.6678 4.298l-1.1907 0.38302-0.23357 17.448c-0.23925 17.851-0.0189 26.521 0.97916 38.297 1.2681 14.98 2.6346 19.575 7.0639 23.752 3.3733 3.1812 8.1247 5.3693 13.872 6.3875 4.037 0.71528 11.674 0.40203 15.714-0.64403 7.7484-2.0063 13.42-6.2637 15.402-11.561 2.2836-6.1032 3.5503-23.348 3.915-53.259 0.24114-19.784-0.0646-17.996 3.2525-18.942 3.3319-0.94953 6.5192-2.5997 7.8192-4.0462 1.9199-2.1363 3.422-6.8507 4.406-13.833 2.3338-16.558 1.0518-43.255-2.7813-57.916-1.6537-6.3251-2.851-8.2613-6.0339-9.7666z" fill="#71a7cf" fill-opacity=".99608" fill-rule="evenodd" style="paint-order:normal"/>
</svg>
