<?xml version="1.0" encoding="UTF-8"?>
<svg version="1.1" width="214" height="256" viewBox="0 0 213.17 256" xmlns="http://www.w3.org/2000/svg" xmlns:cc="http://creativecommons.org/ns#" xmlns:dc="http://purl.org/dc/elements/1.1/" xmlns:rdf="http://www.w3.org/1999/02/22-rdf-syntax-ns#">
<metadata>
<rdf:RDF>
<cc:Work rdf:about="">
<dc:format>image/svg+xml</dc:format>
<dc:type rdf:resource="http://purl.org/dc/dcmitype/StillImage"/>
</cc:Work>
</rdf:RDF>
</metadata>
<path d="m109.19 0.0032307c-14.282-0.16706-26.574 6.1555-31.501 16.42l-2.0618 4.2972 2.0355 3.2934c3.5885 5.8019 5.0492 11.107 5.4404 19.765 0.21279 4.7026 0.0076 9.9159-0.49731 12.811l-0.85504 4.8828 3.0827 2.6954c4.0789 3.5678 12.097 7.469 16.961 8.2521 5.4551 0.87829 6.1647 0.88116 11.389 0.04762 10.026-1.5989 17.786-7.1421 21.946-15.675 3.5601-7.3033 4.708-12.727 4.7278-22.367 0.0227-10.206-1.5763-16.308-5.9856-22.863-4.7837-7.1111-11.64-10.708-21.801-11.439-0.9682-0.069165-1.9292-0.10961-2.8813-0.12094zm-61.949 14.572c-7.6662 0.065007-16.1 2.1406-21.955 5.5721-8.7045 5.1011-13.517 15.172-13.455 28.158 0.04498 9.5684 2.8021 17.277 8.3373 23.314 5.2388 5.7133 12.81 9.71 20.519 10.831 5.3746 0.78172 5.4019 0.78142 10.927-0.01512 5.9578-0.85761 12.637-3.8302 16.551-7.366 3.5215-3.1815 7.4508-10.587 9.0374-17.032 1.669-6.7799 1.5787-17.373-0.19691-23.054-3.8136-12.203-11.484-18.472-24.621-20.124-1.6462-0.20712-3.3738-0.29972-5.143-0.28498zm123.8 4.7464c-8.0832 0.04649-18.736 2.7554-23.734 6.2646l-2.4507 1.721-0.065 8.5418c-0.0722 9.5933-1.6174 16.601-5.2484 23.794l-2.0944 4.15 2.6923 0.42913c5.8808 0.94038 9.8188 5.28 11.86 13.067 0.69558 2.6536 1.5083 5.1033 1.8063 5.4436 0.29783 0.34054 2.5701 1.1985 5.0485 1.9069 8.6765 2.48 19.704 1.4957 27.501-2.4553 10.541-5.3415 17.407-21.973 15.232-36.897-2.2868-15.69-11.206-24.135-27.266-25.817-1.026-0.10734-2.1279-0.15534-3.2826-0.14854zm-30.41 50.809c-0.83709 0.05631-1.7051 0.88989-3.9564 3.0827-3.8328 3.7333-11.491 7.8183-17.087 9.1149-10.865 2.5174-20.514 1.5916-31.408-3.013-0.94311-0.39863-0.84862 0.14551 0.50816 2.934 3.7229 7.6512 6.1712 26.334 6.187 47.198 0.02268 28.11-3.3346 38.879-13.139 42.16l-3.0749 1.0302 0.07143 20.578c0.07181 20.727 1.0502 36.785 2.7357 44.905 1.7939 8.6423 6.0584 13.455 14.546 16.419h-0.0076c4.0002 1.3967 5.7884 1.6052 11.83 1.3833 8.3046-0.30501 13.46-1.9793 17.967-5.837 4.1098-3.5178 5.7574-7.4339 6.9523-16.529 1.2405-9.4412 2.4723-36.914 2.4802-55.201l8e-3 -13.37 3.3817-1.4004c7.8861-3.2637 9.4122-5.3622 11.352-15.615 1.7798-9.4072 1.7867-41.927 0.0113-54.468-2.1594-15.262-4.0498-20.927-7.5968-22.761-0.77159-0.399-1.2622-0.64581-1.7644-0.6119zm-61.82 9.4929-3.2763 3.0471c-4.4248 4.1154-7.2298 5.74-13.953 8.0801-5.0878 1.7709-6.6796 1.9838-14.947 1.9937-6.9181 0.0076-10.321-0.31446-13.482-1.2765-6.0537-1.8428-13.042-5.537-16.879-8.9228-3.7614-3.3192-4.6558-3.5022-7.2234-1.4825-8.7935 6.917-12.458 63.526-5.1461 79.497 1.6522 3.6087 2.0762 3.9846 7.1181 6.3141l5.3614 2.477v14.391c0.0076 25.168 1.6311 48.326 3.9704 56.595 1.7551 6.2038 6.8017 10.754 14.888 13.423h3e-3c4.5253 1.4938 17.533 0.87205 22.525-1.0766 4.97-1.9398 10.058-6.3154 11.483-9.8771 2.5407-6.3498 4.0393-26.07 4.071-53.568 0.01134-10.374 0.25739-19.216 0.54527-19.649 0.28724-0.4326 1.8034-1.1928 3.3693-1.6885 4.7968-1.5185 7.5677-3.6066 8.9599-6.7541 5.6652-12.807 5.1079-55.435-0.96196-73.547-1.2434-3.7099-2.1201-5.1017-4.009-6.3622zm123.03 3.6528-3.422 3.202c-3.8858 3.6347-10.143 6.7867-16.876 8.5015-3.5664 0.90833-6.6696 1.0896-13.88 0.81018-5.1075-0.19805-10.014-0.59218-10.904-0.87681-1.5966-0.51069-1.6104-0.46307-1.0673 3.6621 0.92648 7.037 0.65292 41.963-0.3795 48.491-1.9143 12.105-4.8393 17.161-11.62 20.078l-3.4653 1.4902 8e-3 22.58c8e-3 29.814 1.3293 45.308 4.432 51.944 2.2635 4.8416 7.3822 8.4228 14.957 10.463h2e-3c7.2467 1.9509 16.076 1.1341 23.257-2.1502 7.8969-3.6116 10.341-7.5115 11.835-18.88 1.0953-8.3363 2.4279-36.939 2.443-52.445l8e-3 -9.4464 1.9581-0.77454c9.6923-3.8404 10.62-4.9229 12.752-14.854 1.0552-4.9148 1.2968-9.2555 1.2889-23.133-8e-3 -17.539-0.73331-25.723-3.2283-36.495-1.7263-7.4533-2.8642-9.6314-5.7704-11.039z" fill="#71a7cf" fill-opacity=".99608" fill-rule="evenodd" style="paint-order:normal"/>
</svg>
