<?xml version="1.0" encoding="UTF-8"?>
<svg version="1.1" width="103" height="256" viewBox="0 0 102.88 256" xmlns="http://www.w3.org/2000/svg" xmlns:cc="http://creativecommons.org/ns#" xmlns:dc="http://purl.org/dc/elements/1.1/" xmlns:rdf="http://www.w3.org/1999/02/22-rdf-syntax-ns#">
<metadata>
<rdf:RDF>
<cc:Work rdf:about="">
<dc:format>image/svg+xml</dc:format>
<dc:type rdf:resource="http://purl.org/dc/dcmitype/StillImage"/>
</cc:Work>
</rdf:RDF>
</metadata>
<path d="m54.059 9.9659e-5c-12.029-0.022677-24.272 3.8262-31.023 10.096-12.708 11.801-15.236 40.661 1.2004 55.826 16.437 15.165 44.336 13.023 56.036 0 11.701-13.023 14.758-40.804 1.2004-55.826-6.3549-7.0421-16.801-10.076-27.414-10.096zm-36.719 67.021c-3.9152 1.1653-6.8443 2.6394-8.3036 4.4507h0.00378c-9.1778 11.395-13.837 77.056-1.8297 88.939 2.1128 2.0908 5.9274 3.7843 10.797 5.1105-0.37871 32.872 0.85153 65.004 4.6129 75.119 7.8236 21.038 50.94 19.913 57.969 0 3.3513-9.4942 4.5774-41.888 4.3136-75.012 5.2358-1.3534 9.2417-3.0971 11.275-5.2173 10.788-11.248 7.347-79.372-1.83-88.939-1.4105-1.4705-4.1968-2.7563-7.9181-3.8413-0.61833 0.82375-1.2544 1.6182-1.923 2.3619-13.426 14.94-45.438 17.397-64.298 0-1.0231-0.94386-1.9718-1.9406-2.8687-2.9713z" fill="#72a7cf" fill-opacity=".99608" fill-rule="evenodd" style="paint-order:normal"/>
</svg>
