<?xml version="1.0" encoding="UTF-8"?>
<svg version="1.1" width="103" height="256" viewBox="0 0 102.88 256" xmlns="http://www.w3.org/2000/svg" xmlns:cc="http://creativecommons.org/ns#" xmlns:dc="http://purl.org/dc/elements/1.1/" xmlns:rdf="http://www.w3.org/1999/02/22-rdf-syntax-ns#">
<metadata>
<rdf:RDF>
<cc:Work rdf:about="">
<dc:format>image/svg+xml</dc:format>
<dc:type rdf:resource="http://purl.org/dc/dcmitype/StillImage"/>
</cc:Work>
</rdf:RDF>
</metadata>
<path d="m54.061 9.9686e-5c-12.029-0.022677-24.273 3.8251-31.023 10.095-12.708 11.801-15.236 40.662 1.2008 55.827 16.437 15.165 44.335 13.023 56.035 0 11.701-13.023 14.758-40.804 1.2008-55.827-6.3549-7.0421-16.8-10.075-27.413-10.095zm-36.72 67.022c-3.9152 1.1653-6.8443 2.6376-8.3032 4.4488h0.00378c-9.1778 11.395-13.838 77.058-1.8308 88.941 2.1131 2.0908 5.9274 3.784 10.797 5.1102-0.37909 32.872 0.85266 65.004 4.614 75.118 7.824 21.038 50.939 19.913 57.969 0 3.3513-9.4942 4.577-41.888 4.3132-75.012 5.2358-1.3534 9.2417-3.0964 11.275-5.2165 10.788-11.248 7.3482-79.374-1.8285-88.941-1.4109-1.4705-4.1979-2.7556-7.9192-3.8406-0.61833 0.82375-1.2548 1.6184-1.9234 2.3622-13.426 14.94-45.437 17.397-64.297 0-1.0231-0.94382-1.9733-1.9398-2.8702-2.9704zm40.384 19.124c0.03779-0.0038 0.06047 7.56e-4 0.09071 0.01134 0.15118 0.04384 2.0137 0.64222 4.1416 1.3307l3.8683 1.252-0.92938 3.6929c-0.51062 2.0317-0.92901 3.792-0.9309 3.9114-0.0023 0.13946 0.50532 0.54988 1.4192 1.1456 1.203 0.78444 2.036 1.4183 3.4072 2.5925 0.29858 0.25625 0.32504 0.24529 3.8623-2.0177 1.6448-1.0518 3.0573-1.9179 3.14-1.9252 0.08315-0.0076 1.2873 1.5459 2.677 3.4488l2.5255 3.4586-1.0216 0.86418c-0.56239 0.47513-1.8943 1.5893-2.9586 2.4764-1.0643 0.88705-1.9691 1.7318-2.01 1.876-0.04157 0.15156 0.06047 0.56647 0.24567 0.98426 0.38929 0.88003 1.1289 3.1612 1.3466 4.1535 0.08693 0.40029 0.22299 0.78108 0.29858 0.8445 0.07559 0.0635 1.6161 0.20485 3.4212 0.31521 1.8055 0.10999 3.5803 0.23282 3.9451 0.27175l0.66331 0.0711v8.6654l-0.66331 0.0748c-0.36661 0.0412-2.1124 0.16857-3.8838 0.28347-2.0572 0.13304-3.2799 0.26343-3.3842 0.36019-0.09071 0.0835-0.30236 0.71588-0.47811 1.4055-0.29102 1.1532-0.69128 2.3734-1.2597 3.8563-0.12472 0.32012-0.18898 0.67226-0.1474 0.78346 0.04157 0.11111 1.3871 1.2886 2.9881 2.6162 1.601 1.3276 2.9114 2.4646 2.9114 2.5256 0 0.09-4.0373 5.7917-4.7932 6.7697-0.20409 0.26608-0.23055 0.25323-3.4843-1.7972-1.8032-1.1363-3.374-2.0659-3.4881-2.0669-0.11339-1e-3 -0.68107 0.39836-1.262 0.88974-0.58054 0.49138-1.6645 1.2949-2.4072 1.7854-0.74306 0.49043-1.3795 0.9716-1.4177 1.0669-0.03779 0.0953 0.36661 1.8519 0.89575 3.9055 0.54652 2.1247 0.912 3.7793 0.8485 3.8386-0.18142 0.17084-7.8977 2.6784-8.0549 2.6181-0.07937-0.0302-0.76346-1.6122-1.5197-3.5138-0.75666-1.9016-1.4203-3.5177-1.4763-3.5906-0.13228-0.17197-6.3738-0.16139-6.5435 0.0113-0.06425 0.0673-0.72832 1.686-1.4725 3.5964s-1.3886 3.5108-1.4309 3.5571c-0.04157 0.0461-1.883-0.50079-4.0925-1.2166-2.2095-0.71573-4.0501-1.3333-4.0887-1.372-0.0378-0.0389 0.34016-1.7482 0.83868-3.7992 0.49965-2.051 0.87383-3.8312 0.83263-3.9547-0.04157-0.12397-0.44561-0.44149-0.89953-0.7067-0.94677-0.55294-3.1291-2.1757-3.5826-2.6634-0.1663-0.18104-0.42482-0.32504-0.5692-0.32277-0.14362 3e-3 -1.7106 0.93951-3.4821 2.0787-3.0115 1.9364-3.2345 2.0565-3.4273 1.8563-0.11339-0.11755-1.2843-1.6949-2.6003-3.5039l-2.3917-3.2894 2.9427-2.4567c1.663-1.3888 2.9764-2.5812 3.0217-2.7402 0.04913-0.17801-0.05669-0.61795-0.29858-1.1988-0.42066-1.0198-1.0503-2.9665-1.2854-3.9764-0.08315-0.36133-0.23055-0.72299-0.32882-0.80315-0.10961-0.0896-1.6471-0.23963-3.9919-0.38979-2.1003-0.13455-3.8275-0.25474-3.8426-0.26985 0-0.0151-0.06425-1.9686-0.11717-4.3406l-0.09071-4.313 0.36283-0.0692c0.20032-0.0386 1.8977-0.1663 3.7735-0.28346 1.8758-0.11679 3.546-0.27704 3.7107-0.35415 0.24945-0.11716 0.35528-0.37341 0.64554-1.5295 0.19276-0.76418 0.58356-2.0104 0.87005-2.7697 0.28724-0.75923 0.52195-1.5016 0.52195-1.6496 0-0.1973-0.79181-0.92417-2.9666-2.7244-1.6316-1.3505-2.9677-2.4914-2.9688-2.5354-0.0011-0.0578 4.7505-6.757 4.9863-7.0296 0-0.0189 1.5254 0.90251 3.3524 2.0512 1.827 1.1487 3.3959 2.0906 3.4862 2.0906 0.09071 0 0.43691-0.24378 0.76951-0.53938 0.9154-0.81275 1.9986-1.6227 3.2247-2.4134 0.60775-0.39201 1.104-0.79548 1.104-0.89567 0-0.10016-0.43049-1.8676-0.9566-3.9272-0.52573-2.0596-0.93808-3.754-0.9154-3.7658 0.09827-0.05065 8.01-2.6391 8.1124-2.6535 0.06047-0.0076 0.77367 1.6311 1.5825 3.6437l1.4725 3.6594 3.2145-0.01134 3.2168-0.0076 0.22299-0.42913c0.12472-0.23584 0.79786-1.8957 1.4982-3.687 1.0356-2.6501 1.2461-3.1523 1.4525-3.187zm-6.2895 12.823c-7.81-0.0032-14.662 4.2773-18.248 11.398-0.62211 1.2349-1.4899 3.9292-1.742 5.4016-0.74835 4.3728-0.07181 8.973 1.8856 12.831l0.64554 1.2717-0.49776 0.55903c-0.68183 0.76222-0.96642 1.4254-0.96869 2.2756-0.0038 1.3522 0.672 2.7198 1.8879 3.813 0.71924 0.64679 1.5349 0.97436 2.4193 0.97436 0.77405 0 1.1271-0.13757 2.1456-0.83459l0.8349-0.5709 0.57638 0.38974c2.2469 1.5163 5.5827 2.7553 8.4903 3.1536 1.3973 0.19162 5.099 0.062 6.5235-0.22829 6.1538-1.2537 11.458-5.2942 14.193-10.813 0.91767-1.8517 1.4313-3.3049 1.8482-5.2421 0.24567-1.1395 0.28346-1.6993 0.28346-3.9783 0-2.7591-0.14362-3.8533-0.77934-5.939l-0.22677-0.75193 0.41915-0.69687c0.8417-1.3951 0.83754-2.0603-0.0378-3.6024-1.1218-2.0042-1.457-2.1849-2.4094-1.3071-0.3137 0.288-0.58318 0.50185-0.60624 0.47441-0.0378-0.0265-0.2948-0.3922-0.61228-0.80905-0.31748-0.4168-0.96567-1.1703-1.4449-1.6752l-0.87194-0.91733 0.60246-0.59448c0.3326-0.32617 0.60208-0.68844 0.60208-0.80708 0-0.27288-1.1475-1.3032-2.0844-1.8701-1.0035-0.60703-1.8191-0.66395-2.8997-0.20447l-0.80315 0.34053-1.4332-0.56889c-2.6661-1.0618-4.794-1.4695-7.7027-1.4705zm11.211 2.559c0.4354-0.0113 0.83225 0.18293 1.4328 0.60435 0.42066 0.29518 0.76611 0.57022 0.76573 0.61217-3.78e-4 0.0419-1.1414 1.1-2.5353 2.3504l-2.5353 2.2736 0.06047 0.88388c0.1663 2.3913 1.6449 4.0259 3.7992 4.1988l0.81109 0.0646 2.4624-2.2382c1.3546-1.2313 2.5111-2.241 2.5689-2.2441 0.1474-8e-3 1.1732 1.9348 1.1754 2.2283 0 1.2148-4.6345 6.1748-7.2601 7.75-1.1097 0.66569-1.4332 0.73047-2.0867 0.42131-0.30992-0.1474-0.9052-0.5226-1.3206-0.83467-0.41575-0.31182-0.86551-0.56693-1.0001-0.56693-0.15118 0-1.5167 1.2547-3.5395 3.252-6.9846 6.8961-16.003 14.914-17.844 15.864-0.52309 0.26986-1.1131 0.26041-1.7443-0.0265-0.66368-0.30312-1.5209-1.2522-1.9192-2.122-0.46715-1.0201-0.37871-1.8367 0.28724-2.6555 1.9986-2.4565 13.307-12.72 18.85-17.108 0.88138-0.69773 1.6796-1.3746 1.7737-1.506 0.15118-0.21165 0.10583-0.35452-0.42331-1.2539-0.79446-1.3551-0.97134-1.9523-0.76006-2.567 0.58545-1.7028 4.8079-5.4928 7.7798-6.9843 0.50003-0.25096 0.86211-0.38653 1.2008-0.39564z" fill="#72a7cf" fill-opacity=".99608" fill-rule="evenodd" style="paint-order:normal"/>
</svg>
