<?xml version="1.0" encoding="UTF-8"?>
<svg version="1.1" viewBox="0 0 256 167.46" xmlns="http://www.w3.org/2000/svg" xmlns:cc="http://creativecommons.org/ns#" xmlns:dc="http://purl.org/dc/elements/1.1/" xmlns:rdf="http://www.w3.org/1999/02/22-rdf-syntax-ns#">
<metadata>
<rdf:RDF>
<cc:Work rdf:about="">
<dc:format>image/svg+xml</dc:format>
<dc:type rdf:resource="http://purl.org/dc/dcmitype/StillImage"/>
</cc:Work>
</rdf:RDF>
</metadata>
<path d="m218.66 1.8434e-4c-6.1818-0.030236-12.457 3.6606-14.091 9.9831-2.8966 10.022 6.8772 17.181 10.743 25.396 17.853 31.972 16.234 74.197-5.1488 104.1-7.1788 6.9337-8.8978 20.791 1.2824 25.853 10.139 5.5994 19.357-3.237 23.603-11.847 6.9339-10.427 11.998-21.979 15.675-33.905 3.4397-11.832 5.2112-24.067 5.2751-36.36-0.17385-28.799-10.115-57.656-28.384-79.955-2.5054-2.2157-5.7173-3.2535-8.9552-3.2699zm-181.32 0.36699c-3.2379 0.015118-6.45 1.0541-8.9556 3.2699-18.268 22.299-28.209 51.156-28.384 79.955 0.063874 12.294 1.8353 24.528 5.2751 36.36 3.6774 11.926 8.741 23.477 15.675 33.905 4.2458 8.6098 13.464 17.446 23.603 11.847 10.18-5.0623 8.4612-18.919 1.2825-25.853-21.383-29.908-23.002-72.134-5.149-104.11 3.8659-8.2145 13.641-15.374 10.744-25.396-1.6341-6.3224-7.9102-10.013-14.092-9.9818zm136.07 34.23c-7.8331 0.16328-15.663 6.9343-14.468 15.386 1.8414 8.8935 9.8993 15.222 10.789 24.599 2.9828 13.284-1.378 27.248-9.668 37.745-4.6276 9.5395 4.7376 22.154 15.305 19.822 9.8343-1.9856 13.842-12.556 17.905-20.554 3.7897-8.8695 5.7997-18.501 5.8095-28.149-0.23811-16.917-5.8764-34.651-18.173-46.626-2.2772-1.5963-4.8884-2.2765-7.4997-2.222zm-90.825 0.36699c-2.6109-0.05442-5.2226 0.62574-7.4997 2.222-12.296 11.976-17.934 29.708-18.172 46.625 0 9.6481 2.0194 19.281 5.8091 28.15 4.0626 7.9977 8.0719 18.568 17.906 20.554 10.568 2.3317 19.931-10.283 15.304-19.822-8.29-10.496-12.651-24.46-9.6684-37.745 0.88932-9.3768 8.9477-15.705 10.789-24.599 1.1962-8.4514-6.6346-15.222-14.468-15.386zm44.977 33.888c-2.4699-0.0189-4.944 0.63216-7.1478 2.1098-3.2292 1.8876-5.2558 4.9905-6.1346 8.4291-0.38363 1.211-0.59263 2.4927-0.58507 3.827 0 0.1663 4e-3 0.33298 0 0.50102-0.13985 3.1152 0.86589 6.0009 2.5841 8.3819 0.93279 1.4076 2.1222 2.6394 3.5656 3.6001 1.3017 0.92054 2.7602 1.6342 4.3344 2.0779 2.8974 0.89998 6.0605 0.91574 9.0334-0.27931 3.8918-1.3165 6.5382-4.2734 7.9087-7.7942 0.66141-1.5372 1.0583-3.2154 1.1373-4.9756v-0.5074c3.7e-4 -0.04573 0-0.09071 0-0.13644 0-0.02268-3e-3 -0.04498-3e-3 -0.06765 2e-3 -0.22186 0-0.44115 3e-3 -0.66542v-0.5023h1e-3c0.0378-3.6412-1.5526-6.8987-3.9825-9.3546-0.54387-0.56844-1.1456-1.0908-1.8051-1.5591-2.5871-1.9165-5.7642-3.0608-8.9518-3.085z" fill="#6ea7cf" fill-opacity=".99608" fill-rule="evenodd" style="paint-order:normal"/>
</svg>
