<?xml version="1.0" encoding="UTF-8"?>
<svg version="1.1" viewBox="0 0 256 218" xmlns="http://www.w3.org/2000/svg" xmlns:cc="http://creativecommons.org/ns#" xmlns:dc="http://purl.org/dc/elements/1.1/" xmlns:rdf="http://www.w3.org/1999/02/22-rdf-syntax-ns#">
<metadata>
<rdf:RDF>
<cc:Work rdf:about="">
<dc:format>image/svg+xml</dc:format>
<dc:type rdf:resource="http://purl.org/dc/dcmitype/StillImage"/>
</cc:Work>
</rdf:RDF>
</metadata>
<path d="m127.51 0c-44.123 0.26721-88.335 15.496-122.5 43.485-9.8755 11.167-4.4767 31.495 10.284 35.31 15.355 4.4383 26.323-10.537 38.908-16.46 48.985-27.352 113.68-24.873 159.5 7.8876 10.623 10.999 31.852 13.633 39.609-1.9639 8.5785-15.534-4.9594-29.657-18.15-36.162-15.976-10.623-33.674-18.382-51.945-24.016-18.128-5.2702-36.873-7.9835-55.707-8.0814zm0.33638 87.2c-25.919 0.36548-53.087 9.0021-71.435 27.841-9.7825 13.956 2.9039 36.099 20.168 33.656 13.626-2.8212 23.322-15.166 37.688-16.529 20.353-4.5701 41.746 2.112 57.828 14.813 14.616 7.0898 33.941-7.2582 30.369-23.449-3.0424-15.067-19.237-21.208-31.49-27.432-13.589-5.8061-28.347-8.8853-43.129-8.8999zm-0.90905 86.994c-16.057-0.0922-27.271 20.027-18.215 33.533 3.4589 5.9172 9.5787 9.209 16.06 9.9942 1.1355 0.18255 2.2991 0.2812 3.486 0.2812 3.0578 0 5.9672-0.63156 8.6083-1.7681 5.3942-2.0995 9.9262-6.1551 11.943-12.118 1.8308-4.5543 1.8058-9.4008 0.42686-13.84-1.2868-4.5636-4.0197-8.5185-7.6758-11.34-3.8268-3.1031-8.6401-4.9587-13.865-4.722-0.25739-0.0113-0.51376-0.0189-0.76857-0.0189z" fill="#6ea7cf" fill-opacity=".99608" fill-rule="evenodd" style="paint-order:normal"/>
</svg>
