<?xml version="1.0" encoding="UTF-8" standalone="no"?>
<svg xmlns="http://www.w3.org/2000/svg" width="256" height="246.123" viewBox="0 0 256 246">
  <path d="M23.828 0c-6.506 23.236-9.002 57.239 6.809 80.475 0 0-30.637 41.63-30.637 70.981 0 29.351 8.174 38.692 30.637 60.216 22.462 21.523 72.97 34.45 97.363 34.45s74.902-12.927 97.365-34.45C247.828 190.148 256 180.807 256 151.456c0-29.35-30.635-70.981-30.635-70.981 15.053-35.02 6.548-59.092 6.807-80.475-25.323 19.972-50.7 22.683-62.03 52.484-28.094-10.927-56.188-14.168-84.283 0C73.34 25.905 54.737 19.044 23.83 0zm59.648 100.125c14.865 0 26.915 13.241 26.914 29.575-.011 12.988-7.735 24.447-19.038 28.247 1.474-5.334 2.147-11.46 2.147-16.214 0-10.652-3.352-28.235-11.624-28.235s-11.623 17.583-11.622 28.235c0 4.304.559 9.732 1.756 14.681-9.417-4.873-15.433-15.276-15.447-26.714 0-16.334 12.05-29.575 26.914-29.575zm89.048 1.747c14.864 0 26.914 13.24 26.914 29.573-.002 13.246-8.02 24.875-19.625 28.462 1.887-5.738 2.734-12.827 2.734-18.174 0-10.652-3.352-28.235-11.624-28.235-8.273 0-11.625 17.583-11.624 28.235 0 4.905.721 11.265 2.295 16.715-9.713-4.743-15.976-15.324-15.984-27.003 0-16.333 12.05-29.573 26.914-29.573zm-90.65 27.737c4.89 0 6.871 10.39 6.871 16.685 0 3.834-.741 9.179-2.42 12.778-.946.122-1.897.19-2.849.2a24.623 24.623 0 0 1-6.346-.868c-1.472-3.57-2.123-8.507-2.124-12.11 0-6.294 1.98-16.685 6.869-16.685zm89.049 0c4.888 0 6.868 10.39 6.868 16.685 0 4.585-1.058 11.325-3.517 14.658a24.81 24.81 0 0 1-1.75.067c-1.786 0-3.567-.196-5.317-.584-2.202-3.48-3.153-9.787-3.153-14.14 0-6.295 1.98-16.686 6.869-16.686zm-61.097 31.844c4.624.164 10.884 3.368 15.392 3.368 6.995 0 18.206-7.71 20.984.18 2.002 5.69-6.805 9.152-10.282 13.643-2.336 3.02-7.107 4.635-7.107 4.635l-.218 13.93 12.097 16.086 14.869 19.723-11.691.101-3.175-4.21-15.477-19.464-15.473 19.465-3.175 4.21-11.694-.102 14.87-19.723 12.097-16.086-.219-13.93s-4.77-1.616-7.107-4.635c-3.477-4.49-12.284-7.953-10.282-13.642.868-2.466 2.56-3.409 4.69-3.539.292-.015.593-.019.9-.011zm-54.018 21.344l27.499 9.338 20.832 7.46v4.515l-20.832 7.46-27.5 9.339-.14-7.343 5.873-1.995 18.918-6.775h-24.79v-5.886h24.789l-18.917-6.775-5.873-1.993zm138.823 0l.14 7.345-5.873 1.993-18.916 6.775h24.79v5.886h-24.794l18.92 6.775 5.873 1.995-.14 7.343-27.5-9.338-20.832-7.46v-4.515l20.833-7.46z" fill="#c7dceb" fill-rule="evenodd"/>
</svg>
