<?xml version="1.0" encoding="UTF-8" standalone="no"?>
<svg xmlns="http://www.w3.org/2000/svg" width="256" height="256" viewBox="0 0 256 256">
  <path d="M128 0C105.125 0 80.705-.276 59.565 9.42S19.115 38.425 9.419 59.565C-.277 80.705 0 105.125 0 128.001c0 22.875-.278 47.295 9.418 68.435s29.006 40.451 50.146 50.147c21.14 9.696 45.56 9.416 68.435 9.416s47.295.28 68.435-9.416 40.45-29.007 50.146-50.147c9.696-21.14 9.418-45.56 9.418-68.435 0-22.876.278-47.296-9.418-68.436-9.696-21.14-29.006-40.45-50.146-50.146C175.295-.277 150.875 0 128 0zm-.002 6.862c21.153 0 44.163-.347 64.453 8.96 20.225 9.275 38.452 27.5 47.728 47.726 9.306 20.29 8.959 43.301 8.959 64.455 0 21.153.347 44.165-8.96 64.455-9.275 20.225-27.502 38.446-47.727 47.723-20.29 9.305-43.3 8.957-64.453 8.957-21.153 0-44.165.348-64.455-8.957-20.225-9.277-38.446-27.498-47.722-47.723-9.306-20.29-8.957-43.302-8.957-64.455 0-21.154-.349-44.166 8.957-64.455 9.276-20.225 27.497-38.45 47.722-47.727 20.29-9.306 43.302-8.959 64.455-8.959zm0 5.307c-21.197 0-43.394-.166-62.242 8.478-18.911 8.674-36.439 26.202-45.113 45.114C12 84.608 12.17 106.806 12.17 128.003c0 21.197-.17 43.395 8.474 62.242 8.674 18.912 26.202 36.44 45.113 45.113 18.848 8.645 41.045 8.473 62.242 8.473 21.197 0 43.394.171 62.242-8.473 18.912-8.674 36.443-26.201 45.117-45.113 8.644-18.847 8.474-41.045 8.474-62.242 0-21.197.17-43.395-8.474-62.242-8.674-18.912-26.205-36.44-45.117-45.114-18.848-8.644-41.045-8.478-62.242-8.478zm-79.187 33.01C72.308 59.655 86.45 52.87 95.967 73.075c21.357-10.77 42.713-8.306 64.07 0 8.613-22.654 27.904-12.714 47.154-27.896-.197 16.254 6.267 22.553-5.176 49.175 0 0 23.289 31.647 23.289 53.96 0 22.312-6.213 29.411-23.289 45.773-17.076 16.361-55.472 26.19-74.015 26.19s-56.938-9.829-74.013-26.19c-17.076-16.362-23.29-23.461-23.29-45.774 0-22.312 23.29-53.959 23.29-53.959C41.968 76.691 43.865 62.842 48.81 45.18zm45.343 64.113c-11.3 0-20.459 10.066-20.458 22.482.01 8.695 4.583 16.604 11.742 20.309-.91-3.763-1.336-7.89-1.336-11.162 0-8.098 2.547-21.463 8.836-21.463 6.288 0 8.836 13.365 8.836 21.463 0 3.613-.513 8.27-1.633 12.326 8.592-2.89 14.465-11.6 14.472-21.473 0-12.416-9.159-22.482-20.459-22.482zm67.693 1.328c-11.299 0-20.46 10.065-20.46 22.48.008 8.88 4.768 16.922 12.152 20.528-1.197-4.143-1.746-8.98-1.746-12.707 0-8.098 2.547-21.463 8.836-21.463 6.288 0 8.838 13.365 8.838 21.463 0 4.064-.644 9.454-2.079 13.816 8.822-2.727 14.917-11.567 14.918-21.636 0-12.416-9.16-22.48-20.459-22.481zm-68.91 21.084c-3.715 0-5.22 7.9-5.22 12.686 0 2.738.495 6.49 1.613 9.205 1.579.43 3.198.652 4.825.66a19.143 19.143 0 0 0 2.166-.152c1.276-2.737 1.84-6.799 1.84-9.713 0-4.785-1.507-12.686-5.223-12.686zm67.692 0c-3.716 0-5.221 7.899-5.221 12.684 0 3.31.723 8.105 2.397 10.75 1.33.295 2.685.445 4.042.445.444 0 .888-.023 1.33-.051 1.87-2.534 2.674-7.658 2.674-11.143 0-4.785-1.506-12.685-5.222-12.685zm-46.443 24.207c-.235-.011-.464 0-.686.011-1.618.1-2.905.815-3.564 2.69-1.522 4.325 5.172 6.957 7.814 10.37 1.776 2.296 5.404 3.524 5.404 3.524l.166 10.588-9.197 12.229-11.303 14.994 8.89.076 2.413-3.2 11.764-14.796 11.763 14.797 2.414 3.199 8.887-.076-11.303-14.994-9.195-12.229.166-10.588s3.626-1.228 5.402-3.523c2.643-3.414 9.339-6.046 7.817-10.371-2.112-5.999-10.634-.137-15.951-.137-3.428 0-8.186-2.438-11.702-2.563zM73.12 172.138l-.107 5.584 4.465 1.515 14.38 5.149H73.015v4.474H91.86l-14.381 5.15-4.465 1.518.107 5.582 20.905-7.1 15.837-5.671v-3.432l-15.837-5.67zm105.531 0l-20.904 7.1-15.836 5.67v3.43l15.836 5.673 20.904 7.1.107-5.583-4.464-1.517-14.383-5.15h18.847v-4.475h-18.845l14.38-5.149 4.465-1.515z" fill="#c7dceb" fill-rule="evenodd"/>
</svg>
