<?xml version="1.0" encoding="UTF-8" standalone="no"?>
<svg xmlns="http://www.w3.org/2000/svg" width="256" height="232.474" viewBox="0 0 256 233">
  <path d="M126.887 0c-15.87 0-28.858 12.985-28.858 28.856 0 8.453 3.707 16.062 9.55 21.35l-38.015 63.98-34.505 61.258a28.647 28.647 0 0 0-6.211-.684C12.977 174.76 0 187.745 0 203.616c0 15.87 12.977 28.858 28.848 28.858 12.784 0 23.69-8.43 27.45-20.003l70.589.813 72.804-.84c3.753 11.587 14.667 20.03 27.461 20.03 15.871 0 28.848-12.987 28.848-28.858 0-15.87-12.977-28.856-28.848-28.856-2.83 0-5.565.42-8.155 1.189l-34.787-61.763-38.017-63.983c5.838-5.288 9.541-12.895 9.541-21.347C155.734 12.985 142.757 0 126.887 0zm0 10.82a17.957 17.957 0 0 1 18.038 18.036 17.95 17.95 0 0 1-7.509 14.662l-1.154.708a18.016 18.016 0 0 1-6.813 2.467c-.05.007-.1.019-.151.023-.337.046-.677.08-1.017.108-.306.023-.614.038-.924.045-.158.003-.315.019-.473.019-.126 0-.252-.011-.378-.015a16.79 16.79 0 0 1-1.96-.148c-.129-.02-.256-.04-.385-.058a17.994 17.994 0 0 1-6.658-2.433l-1.03-.63a17.954 17.954 0 0 1-7.624-14.75 17.957 17.957 0 0 1 18.038-18.036zm-10.089 45.05a28.587 28.587 0 0 0 9.135 1.81c.315.015.63.026.946.026h.02c.24 0 .478-.015.716-.023a28.581 28.581 0 0 0 9.36-1.814l37.869 63.735 34.55 61.337c-6.25 4.912-10.45 12.32-11.024 20.698l-71.484.826-69.257-.8c-.614-9.077-5.469-17.037-12.593-21.899l33.892-60.162zm-87.95 129.71c2.145 0 4.187.387 6.09 1.062l.668.27a17.99 17.99 0 0 1 10.773 12.497c.017.066.035.13.05.198.07.31.122.625.176.94.04.237.078.475.109.716.034.255.067.51.09.768.039.458.064.92.069 1.387 0 .062.006.124.006.187 0 .15-.013.297-.017.447-.006.316-.024.63-.047.943-.035.4-.077.8-.138 1.199l-.174 1.135c-1.694 8.218-8.906 14.325-17.655 14.325-10.025 0-18.028-8.013-18.028-18.038 0-10.024 8.003-18.035 18.028-18.035zm198.304 0c10.025 0 18.028 8.011 18.028 18.036 0 10.024-8.003 18.038-18.028 18.038-8.728 0-15.925-6.079-17.642-14.267l-.187-1.225a17.767 17.767 0 0 1-.2-2.44c0-.035-.008-.07-.008-.106a18.917 18.917 0 0 1 .15-2.234c.032-.264.076-.523.12-.782a17.995 17.995 0 0 1 9.647-13.046l1.173-.592a18.139 18.139 0 0 1 6.945-1.37z" fill="#c7dceb" fill-rule="evenodd"/>
</svg>
