<?xml version="1.0" encoding="UTF-8" standalone="no"?>
<svg xmlns="http://www.w3.org/2000/svg" width="256" height="256" viewBox="0 0 256 256">
  <path d="M128 0C105.125 0 80.705-.276 59.565 9.42S19.115 38.425 9.419 59.565C-.277 80.705 0 105.125 0 128.001c0 22.875-.278 47.295 9.418 68.435s29.006 40.451 50.146 50.147c21.14 9.696 45.56 9.416 68.435 9.416s47.295.28 68.435-9.416 40.45-29.007 50.146-50.147c9.696-21.14 9.418-45.56 9.418-68.435 0-22.876.278-47.296-9.418-68.436-9.696-21.14-29.006-40.45-50.146-50.146C175.295-.277 150.875 0 128 0zm-.002 6.862c21.153 0 44.163-.347 64.453 8.96 20.225 9.275 38.452 27.5 47.728 47.726 9.306 20.29 8.959 43.301 8.959 64.455 0 21.153.347 44.165-8.96 64.455-9.275 20.225-27.502 38.446-47.727 47.723-20.29 9.305-43.3 8.957-64.453 8.957-21.153 0-44.165.348-64.455-8.957-20.225-9.277-38.446-27.498-47.722-47.723-9.306-20.29-8.957-43.302-8.957-64.455 0-21.154-.349-44.166 8.957-64.455 9.276-20.225 27.497-38.45 47.722-47.727 20.29-9.306 43.302-8.959 64.455-8.959zm0 5.307c-21.197 0-43.394-.166-62.242 8.478-18.911 8.674-36.439 26.202-45.113 45.114C12 84.608 12.17 106.806 12.17 128.003c0 21.197-.17 43.395 8.474 62.242 8.674 18.912 26.202 36.44 45.113 45.113 18.848 8.645 41.045 8.473 62.242 8.473 21.197 0 43.394.171 62.242-8.473 18.912-8.674 36.443-26.201 45.117-45.113 8.644-18.847 8.474-41.045 8.474-62.242 0-21.197.17-43.395-8.474-62.242-8.674-18.912-26.205-36.44-45.117-45.114-18.848-8.644-41.045-8.478-62.242-8.478zm-.855 9.12c12.23 0 22.23 10.009 22.23 22.24 0 6.513-2.855 12.374-7.354 16.448l29.297 49.309 26.808 47.596a21.91 21.91 0 0 1 6.286-.916c12.23 0 22.23 10.006 22.23 22.236s-10 22.238-22.23 22.238c-9.86 0-18.27-6.506-21.162-15.435l-56.105.648-54.397-.627c-2.898 8.919-11.302 15.414-21.154 15.414-12.23 0-22.23-10.008-22.23-22.238s10-22.236 22.23-22.236c1.643 0 3.243.19 4.787.527l26.59-47.207 29.295-49.307c-4.503-4.074-7.36-9.936-7.36-16.45 0-12.231 10.008-22.24 22.239-22.24zm0 8.337c-7.725 0-13.9 6.173-13.9 13.898 0 4.724 2.314 8.86 5.874 11.368l.795.486a13.785 13.785 0 0 0 6.938 2.029c.096 0 .194.011.29.011.122 0 .242-.011.364-.011.239-.012.477-.015.713-.034.262-.02.523-.048.783-.082a13.875 13.875 0 0 0 5.367-1.92l.89-.545a13.831 13.831 0 0 0 5.786-11.298 13.837 13.837 0 0 0-13.9-13.899zm7.773 34.715a21.979 21.979 0 0 1-7.211 1.398 8.975 8.975 0 0 1-.553.019h-.016c-.244 0-.486-.011-.728-.019a22.018 22.018 0 0 1-7.04-1.392l-29.183 49.11-26.118 46.362c5.49 3.747 9.232 9.882 9.705 16.877l53.37.617 55.088-.638c.442-6.456 3.678-12.165 8.494-15.95l-26.625-47.267zM51.594 164.29a13.83 13.83 0 0 0-13.892 13.898c0 7.725 6.167 13.9 13.892 13.9 6.743 0 12.3-4.705 13.606-11.038l.134-.875c.047-.307.08-.62.106-.924.018-.24.03-.488.035-.727.003-.116.013-.229.014-.341 0-.048-.006-.094-.006-.141-.004-.36-.024-.718-.053-1.068-.018-.2-.045-.4-.07-.592a13.495 13.495 0 0 0-.082-.553c-.043-.243-.082-.49-.137-.724l-.04-.149a13.866 13.866 0 0 0-8.302-9.63l-.514-.204a13.857 13.857 0 0 0-4.693-.818zm152.816.015l-.002.011a13.98 13.98 0 0 0-5.354 1.057l-.902.455a13.87 13.87 0 0 0-7.436 10.055c-.032.2-.066.403-.09.601a14.124 14.124 0 0 0-.117 1.723c0 .026.006.054.006.08a13.881 13.881 0 0 0 .155 1.88l.144.944a13.827 13.827 0 0 0 13.596 10.994 13.833 13.833 0 0 0 13.892-13.9 13.83 13.83 0 0 0-13.892-13.898z" fill="#c7dceb" fill-rule="evenodd"/>
</svg>
