<?xml version="1.0" encoding="UTF-8" standalone="no"?>
<svg xmlns="http://www.w3.org/2000/svg" width="256" height="256"  viewBox="0 0 256 256">
  <path d="M128 0C105.125 0 80.705-.276 59.565 9.42S19.115 38.425 9.419 59.565C-.277 80.705 0 105.125 0 128.001c0 22.875-.278 47.295 9.418 68.435s29.006 40.451 50.146 50.147c21.14 9.696 45.56 9.416 68.435 9.416s47.295.28 68.435-9.416 40.45-29.007 50.146-50.147c9.696-21.14 9.418-45.56 9.418-68.435 0-22.876.278-47.296-9.418-68.436-9.696-21.14-29.006-40.45-50.146-50.146C175.295-.277 150.875 0 128 0zm-.002 6.862c21.153 0 44.163-.347 64.453 8.96 20.225 9.275 38.452 27.5 47.728 47.726 9.306 20.29 8.959 43.301 8.959 64.455 0 21.153.347 44.165-8.96 64.455-9.275 20.225-27.502 38.446-47.727 47.722-20.29 9.306-43.3 8.958-64.453 8.958-21.153 0-44.165.348-64.455-8.958-20.225-9.276-38.446-27.497-47.722-47.722-9.306-20.29-8.957-43.302-8.957-64.455 0-21.154-.349-44.166 8.957-64.455 9.276-20.225 27.497-38.45 47.722-47.727 20.29-9.306 43.302-8.959 64.455-8.959zm0 5.307c-21.197 0-43.394-.166-62.242 8.478-18.911 8.674-36.439 26.202-45.113 45.114C12 84.608 12.17 106.806 12.17 128.003c0 21.196-.17 43.395 8.474 62.242 8.674 18.912 26.202 36.44 45.113 45.113 18.848 8.645 41.045 8.473 62.242 8.473 21.197 0 43.394.172 62.242-8.473 18.912-8.674 36.443-26.201 45.117-45.113 8.644-18.847 8.474-41.046 8.474-62.242 0-21.197.17-43.395-8.474-62.242-8.674-18.912-26.205-36.44-45.117-45.114-18.848-8.644-41.045-8.478-62.242-8.478zM66.034 32.612h137.163v178.244h-13.229v12.533H52.803V45.143h13.23zm4.177 4.035v8.496h119.757V206.82h9.051V36.647zM56.981 49.18v170.172h128.81V49.18zm20.123 13.128h33.21v11.07h-33.21v11.07h11.07V95.52h11.07V84.448h11.07v22.142h11.073V73.379h11.07v-11.07h11.07v11.07h-11.07v33.212h-11.07v33.211h-11.072v22.143h11.072v-11.07h11.07v-11.072h11.07v11.072h11.07v-11.072h11.073v-11.07h-33.213V117.66h11.07v-11.07h11.07V95.52h-11.07V84.447h11.07v-11.07h11.073v-11.07h11.07v11.07h-11.07v11.07h-11.072V95.52h22.142v22.141h-11.07v11.07h11.07v11.07h-11.07v11.073h-11.072v22.14h11.072v-11.07h11.07v11.07h-11.07v11.07h11.07v22.143h-11.07v-22.142h-11.072v11.07h-11.07v11.072h-11.071v-11.072h11.07v-11.07h-11.07v-11.07h11.07v-11.07h-22.14v44.282h-11.072V161.945h-11.07v-22.143h11.07V106.59h-22.14v11.07h11.07v11.07h-11.07v11.07H77.103v11.073h-11.07v-11.072h11.07v-11.07h11.07V117.66h-11.07v-11.07h11.07V95.52h-11.07V84.447h-11.07v-11.07h11.07zm66.423 110.707v11.07h11.07v-11.07zm22.143-55.354v-11.07h-11.072v11.07zm-99.636 44.283h22.14v11.07h11.07v11.07h-11.07v11.071h11.07v11.072h-11.07v-11.072h-11.07v11.072h-11.07v-11.072h11.07v-11.07h11.07v-11.07h-22.14z" fill="#c7dceb" fill-rule="evenodd"/>
</svg>
