<?xml version="1.0" encoding="UTF-8" standalone="no"?>
<svg xmlns="http://www.w3.org/2000/svg" width="256" height="256" viewBox="0 0 256 256">
  <path d="M128 0C105.125 0 80.705-.276 59.565 9.42S19.115 38.425 9.419 59.565C-.277 80.705 0 105.125 0 128.001c0 22.875-.278 47.295 9.418 68.435s29.006 40.451 50.146 50.147c21.14 9.696 45.56 9.416 68.435 9.416s47.295.28 68.435-9.416 40.45-29.007 50.146-50.147c9.696-21.14 9.418-45.56 9.418-68.435 0-22.876.278-47.296-9.418-68.436-9.696-21.14-29.006-40.45-50.146-50.146C175.295-.277 150.875 0 128 0zm-.002 6.862c21.153 0 44.163-.347 64.453 8.96 20.225 9.275 38.452 27.5 47.728 47.726 9.306 20.29 8.959 43.301 8.959 64.455 0 21.153.347 44.165-8.96 64.455-9.275 20.225-27.502 38.446-47.727 47.723-20.29 9.305-43.3 8.957-64.453 8.957-21.153 0-44.165.348-64.455-8.957-20.225-9.277-38.446-27.498-47.722-47.723-9.306-20.29-8.957-43.302-8.957-64.455 0-21.154-.349-44.166 8.957-64.455 9.276-20.225 27.497-38.45 47.722-47.727 20.29-9.306 43.302-8.959 64.455-8.959zm0 5.307c-21.197 0-43.394-.166-62.242 8.478-18.911 8.674-36.439 26.202-45.113 45.114C12 84.608 12.17 106.806 12.17 128.003c0 21.197-.17 43.395 8.474 62.242 8.674 18.912 26.202 36.44 45.113 45.113 18.848 8.645 41.045 8.473 62.242 8.473 21.197 0 43.394.171 62.242-8.473 18.912-8.674 36.443-26.201 45.117-45.113 8.644-18.847 8.474-41.045 8.474-62.242 0-21.197.17-43.395-8.474-62.242-8.674-18.912-26.205-36.44-45.117-45.114-18.848-8.644-41.045-8.478-62.242-8.478zm-68.574 41.03c1.6-.012 2.953 0 3.783.026l47.397.439c7.065.833 7.619 10.253 10.396 15.344 28.39.072 56.783 0 85.173.207 7.271-.817 11.193 4.042 9.526 6.717H114.56c-3.14 0-7.117.446-9.752 2.703-3.768 3.227-7.132 7.891-8.093 12.67H40.93c.022-10.448-.056-20.196.065-30.643.205-3.87 1.448-5.808 4.75-6.723 1.847-.513 8.878-.716 13.68-.742zm150.532 26.663c3.19.053 6.187.698 7.64 4.18.459 36.613.082 73.238.128 109.855.865 3.958-1.691 7.606-5.52 8.758-50.738.011-101.475.1-152.213.023-7.008-1.127-18.453 3.298-21.24-5.639l-.194-72.142C38.496 101.94 35.886 96.36 44 95.172c18.622-.5 37.261-.182 55.892-.27 1.53-5.534 5.78-15.03 13.29-14.982 29.707.192 56.025 0 91.121 0 1.758.09 3.741-.092 5.654-.06z" fill="#c7dceb" fill-rule="evenodd"/>
</svg>
