<?xml version="1.0" encoding="UTF-8" standalone="no"?>
<svg xmlns="http://www.w3.org/2000/svg" width="256" height="213.038" viewBox="0 0 256 213">
  <path d="M4.108 10.635c-.17 14.876-.06 29.753-.092 44.63h80.718c1.369-6.805 4.876-14.444 10.24-19.04 3.753-3.214 9.42-3.847 13.889-3.847h144.015c2.375-3.809-3.213-10.727-13.566-9.564-40.425-.296-80.853-.194-121.28-.297-3.954-7.248-4.742-20.66-14.803-21.846L35.739.044C31.009-.103 14.377.09 10.87 1.061 6.168 2.363 4.4 5.123 4.108 10.635zm102.79 27.422c-10.696-.068-14.745 14.354-16.924 22.234-26.529.124-55.072-.328-81.59.384-11.55 1.693-7.833 9.638-7.746 42.327l.274 101.825c3.97 12.726 20.267 6.423 30.245 8.028 72.248.11 144.497-.019 216.746-.034 5.45-1.64 9.088-6.836 7.857-12.471-.065-52.142.473-104.293-.182-156.427-3.307-7.932-12.251-5.526-18.928-5.866-49.975 0-79.452.273-121.752 0z" fill="#c7dceb" fill-rule="evenodd"/>
</svg>
