<?xml version="1.0" encoding="UTF-8" standalone="no"?>
<svg xmlns="http://www.w3.org/2000/svg" width="256" height="256" viewBox="0 0 256 256">
  <path d="M128 0C105.125 0 80.705-.276 59.565 9.42S19.115 38.425 9.419 59.565C-.277 80.705 0 105.125 0 128.001c0 22.875-.278 47.295 9.418 68.435s29.006 40.451 50.146 50.147c21.14 9.696 45.56 9.416 68.435 9.416s47.295.28 68.435-9.416 40.45-29.007 50.146-50.147c9.696-21.14 9.418-45.56 9.418-68.435 0-22.876.278-47.296-9.418-68.436-9.696-21.14-29.006-40.45-50.146-50.146C175.295-.277 150.875 0 128 0zm-.002 6.862c21.153 0 44.163-.347 64.453 8.96 20.225 9.275 38.452 27.5 47.728 47.726 9.306 20.29 8.959 43.301 8.959 64.455 0 21.153.347 44.165-8.96 64.455-9.275 20.225-27.502 38.446-47.727 47.723-20.29 9.305-43.3 8.957-64.453 8.957-21.153 0-44.165.348-64.455-8.957-20.225-9.277-38.446-27.498-47.722-47.723-9.306-20.29-8.957-43.302-8.957-64.455 0-21.154-.349-44.166 8.957-64.455 9.276-20.225 27.497-38.45 47.722-47.727 20.29-9.306 43.302-8.959 64.455-8.959zm0 5.307c-21.197 0-43.394-.166-62.242 8.478-18.911 8.674-36.439 26.202-45.113 45.114C12 84.608 12.17 106.806 12.17 128.003c0 21.197-.17 43.395 8.474 62.242 8.674 18.912 26.202 36.44 45.113 45.113 18.848 8.645 41.045 8.473 62.242 8.473 21.196 0 43.394.171 62.242-8.473 18.912-8.674 36.443-26.201 45.117-45.113 8.644-18.847 8.474-41.045 8.474-62.242 0-21.197.17-43.395-8.474-62.242-8.674-18.912-26.205-36.44-45.117-45.114-18.848-8.644-41.046-8.478-62.242-8.478zm2.033 8.664c13.362.21 25.22 12.947 24.33 26.601.563 13.74-10.03 25.928-23.761 26.436-12.6 1.309-24.07-8.796-26.14-21.086-3.412-14.165 6.67-30.266 21.388-31.601a21.106 21.106 0 0 1 4.183-.348zm8.42 57.697c.607-.011 1.18 0 1.713.03 24.871 2.106 20.507 26.364 16.363 35.584-6.133 13.558-16.255 45.384-13.6 66.948 2.658 21.563 12.163 7.224 29.055 22.59 16.893 15.365-41.084 33.87-59.804 31.234-23.79-3.614-16.762-27.293-12.815-36.184 6.052-13.58 15.959-45.81 12.998-66.912-2.961-21.102-10.071-6.689-27.94-21.562-17.313-14.409 35.22-31.495 54.03-31.729z" fill="#c7dceb" fill-rule="evenodd"/>
</svg>
