<?xml version="1.0" encoding="UTF-8" standalone="no"?>
<svg xmlns="http://www.w3.org/2000/svg" width="106.655" height="256" viewBox="0 0 107 256">
  <path d="M55.63.003a22.75 22.75 0 0 0-4.743.416C34.198 2.014 22.766 21.246 26.634 38.164c2.348 14.68 15.355 26.748 29.641 25.185 15.571-.606 27.582-15.166 26.944-31.575C84.227 15.465 70.78.254 55.629.004zm9.548 68.911c-21.329.28-80.897 20.687-61.267 37.897 20.263 17.764 28.325.548 31.683 25.752 3.357 25.204-7.877 63.697-14.74 79.917-4.475 10.619-12.442 38.902 14.533 43.218 21.227 3.148 86.967-18.954 67.812-37.306-19.154-18.351-29.932-1.225-32.945-26.98-3.012-25.754 8.466-63.768 15.42-79.96 4.699-11.012 9.649-39.986-18.553-42.501a26.645 26.645 0 0 0-1.943-.034z" fill="#c7dceb" fill-rule="evenodd"/>
</svg>
