<?xml version="1.0" encoding="UTF-8" standalone="no"?>
<svg xmlns="http://www.w3.org/2000/svg" width="256" height="256" viewBox="0 0 256 256">
  <path d="M128 0C105.125 0 80.705-.276 59.565 9.42S19.115 38.425 9.419 59.565C-.277 80.705 0 105.125 0 128.001c0 22.875-.278 47.295 9.418 68.435s29.006 40.451 50.146 50.147c21.14 9.696 45.56 9.416 68.435 9.416s47.295.28 68.435-9.416 40.45-29.007 50.146-50.147c9.696-21.14 9.418-45.56 9.418-68.435 0-22.876.278-47.296-9.418-68.436-9.696-21.14-29.006-40.45-50.146-50.146C175.295-.277 150.875 0 128 0zm-.002 6.862c21.153 0 44.163-.347 64.453 8.96 20.225 9.275 38.452 27.5 47.728 47.726 9.306 20.29 8.959 43.301 8.959 64.455 0 21.153.347 44.165-8.96 64.455-9.275 20.225-27.502 38.446-47.727 47.722-20.29 9.306-43.3 8.958-64.453 8.958-21.153 0-44.165.348-64.455-8.958-20.225-9.276-38.446-27.497-47.722-47.722-9.306-20.29-8.957-43.302-8.957-64.455 0-21.154-.349-44.166 8.957-64.455 9.276-20.225 27.497-38.45 47.722-47.727 20.29-9.306 43.302-8.959 64.455-8.959zm0 5.307c-21.197 0-43.394-.166-62.242 8.478-18.911 8.674-36.439 26.202-45.113 45.114C12 84.608 12.17 106.806 12.17 128.003c0 21.196-.17 43.395 8.474 62.242 8.674 18.912 26.202 36.44 45.113 45.113 18.848 8.645 41.045 8.473 62.242 8.473 21.197 0 43.394.172 62.242-8.473 18.912-8.674 36.443-26.201 45.117-45.113 8.644-18.847 8.474-41.046 8.474-62.242 0-21.197.17-43.395-8.474-62.242-8.674-18.912-26.205-36.44-45.117-45.114-18.848-8.644-41.045-8.478-62.242-8.478zm.031 4.748c23.504 0 42.668.257 56.03 9.396 13.361 9.14 20.72 27.1 20.708 62.121-.003 4.218-.63 10.355-1.232 16.6-.603 6.246-1.183 12.602-1.113 16.813.478 28.959-13.663 57.59-30.022 79.033-8.18 10.722-16.93 19.65-24.8 25.931-6.008 4.796-11.38 8.107-16.022 9.391-.496.823-1.013 1.53-1.58 2.025-.6.527-1.269.858-1.976.858-1.295 0-2.371-1.155-3.35-2.69-4.587-1.153-10.03-4.676-16.31-9.879-7.613-6.305-16.184-15.211-24.272-25.886-16.175-21.35-30.46-49.805-30.453-78.752.002-7.318-2.126-24.601-2.34-33.387-.83-33.76 6.526-51.737 20.084-61.201 13.559-9.465 33.137-10.373 56.648-10.373zm-.173 2.603c-30.513-.21-48.84 3.512-59.38 13.944-10.54 10.43-13.463 27.723-12.909 54.918v.011c.2 8.212 2.35 25.381 2.348 33.488-.001 3.435.217 6.874.623 10.303 5.385 6.093 15.766 11.25 26.544 13.34 7.746 1.502 15.61 1.322 22.014-1.018.756-.324 1.51-.66 2.27-1.04 1.632-.795 3.25-1.61 4.593-2.766a.437.437 0 0 1 .584.648c-.005 0-.009.011-.013.011h-.006c-.179.17-.351.33-.528.489-2.287 5.02-.25 7.006.418 9.744a.436.436 0 0 1-.715.43c-.08-.073-.039-.157-.115-.231l-.012.011c-.009-.037-.03-.085-.039-.123-1.641-1.646-2.46-3.494-2.508-5.17-.038-1.358.486-2.349.971-3.29-.739.425-1.47.636-2.207 1.007-.805.395-1.584.806-2.443 1.12-10.369 4.407-20.48 4.016-28.885 1.228-9.23-3.063-16.083-8.49-19.576-12.541 3.239 23.406 15.136 46.25 28.607 64.03 7.9 10.427 16.295 19.118 23.598 25.167 4.235 3.508 8.043 5.87 11.156 7.41-1.425-4.484-2.5-9.934-2.642-14.627-.106-3.46.996-8.407 2.115-12.521 1.085-3.994 2.129-6.979 2.193-7.164-.159-.18-1.811-2.033-3.285-4.477-.772-1.28-1.456-2.667-1.775-3.988-.32-1.322-.268-2.64.566-3.596.511-.586 1.216-.833 1.936-.86.72-.026 1.48.137 2.251.354 1.545.433 3.171 1.08 4.416 1.08 1.246 0 2.876-.647 4.42-1.08.773-.217 1.532-.38 2.252-.353.72.026 1.419.273 1.93.859.834.957.89 2.274.57 3.596-.32 1.321-1.01 2.708-1.781 3.988-1.475 2.446-3.125 4.305-3.281 4.482.067.192 1.109 3.17 2.193 7.159 1.119 4.114 2.223 9.06 2.117 12.521-.141 4.655-1.206 10.059-2.611 14.523 3.195-1.511 6.968-3.758 11.107-7.062 7.532-6.012 16.08-14.715 24.06-25.178 13.796-18.083 25.74-41.42 28.465-65.176-2.995 3.772-9.123 8.87-17.14 12.547a.436.436 0 0 1 .412.612c-3.476 7.65-6.58 14.747-11.281 20.007-4.7 5.261-11.022 8.643-20.752 8.83a.436.436 0 0 1-.008 0c-6.485.089-14.516.101-19.172-4.27-.544-.512-1.031-1.149-1.5-1.794-.468.646-.95 1.28-1.496 1.793-4.655 4.372-12.695 4.36-19.18 4.272-9.73-.188-16.058-3.57-20.759-8.83-4.69-5.248-7.784-12.328-11.25-19.958-.008-.018-.017-.03-.025-.05a.436.436 0 0 1 .765-.413c4.281 6.847 7.632 12.47 12.092 16.446 4.46 3.976 10.031 6.354 18.914 6.74 4.609.057 8.263-.762 11.287-3.77.928-.923 1.122-2.169 1.363-3.511.242-1.343.546-2.803 1.871-3.807.85-.644 2.03-.982 3.23-1.057 1.129-.07 2.252.148 3.19.612.938-.462 2.064-.682 3.19-.612 1.2.075 2.37.413 3.22 1.057 1.326 1.004 1.632 2.464 1.873 3.807.241 1.342.436 2.588 1.364 3.511 3.026 3.011 6.691 3.829 11.306 3.77 8.87-.388 14.438-2.768 18.895-6.74 4.448-3.965 7.802-9.573 12.066-16.395.01-.019.023-.03.033-.045-.792.355-1.31.894-2.136 1.21-9.826 3.752-21.98 4.298-34.111-3.796.468.934.989 1.894.95 3.223-.047 1.675-.865 3.524-2.507 5.17-.01.038-.03.085-.04.123l-.013-.011c-.076.074-.035.16-.115.232a.436.436 0 0 1-.72-.432c.668-2.737 2.71-4.723.423-9.744a26.746 26.746 0 0 1-.527-.488h-.004c-.005 0-.01-.011-.014-.011a.436.436 0 0 1 .578-.647c7.017 6.042 18.474 6.951 29.482 4.7 10.963-2.243 21.42-7.63 26.522-13.899.308-3.192.465-6.39.412-9.582-.077-4.654.523-11.028 1.127-17.287.604-6.259 1.212-12.419 1.215-16.195a.436.436 0 0 1 0-.012c.541-27.751-2.462-44.833-13.083-55.033-10.62-10.2-29.037-13.663-59.554-13.873zm43.804 62.373a.436.436 0 0 1 .045 0c8.071-.079 15.332 1.231 19.34 3.873.022.012.067.012.09.02l-.009.01c.018.016.055.016.073.027a.436.436 0 0 1-.418.758c-5.913-2.658-17.209-3.27-27.707-1.71-5.25.778-10.305 2.094-14.406 3.929-4.098 1.833-7.227 4.185-8.684 6.978l-.006.012c-.393.802-1.286 1.092-2.013 1.054-.366-.019-.73-.106-.985-.412a.894.894 0 0 1-.197-.586c.008-.213.088-.41.21-.603 2.687-4.59 7.992-7.875 14.292-10.047 6.277-2.165 13.558-3.218 20.322-3.293h.008a.436.436 0 0 1 .045-.011zm-83.685.573a.436.436 0 0 1 .103.019h.005c11.81.198 24.377 3.636 29.656 11.822.266.383.335.858.123 1.197-.212.34-.57.48-.932.527-.722.096-1.633-.178-2.072-.984-3.375-5.787-13.049-9.074-23.307-9.97-10.264-.898-21.09.586-26.517 3.847a.436.436 0 0 1-.508-.701c.017-.015.054-.027.07-.041l-.005-.011c.015-.012.048-.012.064-.02 3.612-3.126 10.506-5.063 18.31-5.57a62.704 62.704 0 0 1 5.01-.12zm95.868 1.779c.518.133 1.04.263 1.586.38-.36-.105-.726-.2-1.093-.296-.166-.026-.325-.058-.493-.084zM71.47 85.96c-.194.05-.378.103-.568.154-.426.161-.846.328-1.256.506.629-.21 1.227-.435 1.824-.66zm100.912 1.642c5.202-.015 10.149.445 14.193 1.153 3.956.692 6.95 1.61 8.644 2.617.016 0 .044 0 .059.011l-.008.012c.028.015.114.026.14.043a.436.436 0 0 1-.32.799c-6.973-1.542-18.005-2.19-28.158-.598-10.13 1.588-19.335 5.41-22.92 12.603a1.511 1.511 0 0 1-.67.805c-.297.17-.642.237-.99.24-.695.012-1.446-.227-2.146-.593s-1.344-.865-1.777-1.453c-.434-.589-.662-1.337-.352-2.026a.436.436 0 0 1 .018-.026c2.876-5.205 8.133-8.59 14.31-10.676 6.177-2.085 13.288-2.887 19.977-2.902zm-84.605.944a.436.436 0 0 1 .154.026h.008c11.534-.019 23.625 2.86 29.318 12.149a.436.436 0 0 1 .014.034c.353.689.218 1.465-.14 2.12-.36.656-.94 1.236-1.583 1.68-.644.445-1.353.76-2.039.803-.686.044-1.405-.273-1.705-.982l.02.043c-4.156-7.482-13.406-10.883-23.34-11.84-9.934-.957-20.506.537-27.07 2.69a.436.436 0 0 1-.405-.752c.026-.02.114-.04.141-.06l-.006-.018c.024-.012.066-.012.09-.02 1.55-1.196 4.323-2.385 8.053-3.41 3.834-1.052 8.561-1.905 13.582-2.27a71.894 71.894 0 0 1 4.908-.192zm49.359 18.49a.436.436 0 0 1 .445.48c-1.703 18.048 1.033 25.096 3.299 31.514a.436.436 0 0 1-.727.45c-.031-.035-.052-.132-.084-.167l-.011.012-.014-.051c-.855-.948-1.643-2.454-2.342-4.522-.732-2.165-1.36-4.854-1.781-7.836-.84-5.934-.856-13.032.791-19.453v-.026h.006c.006-.023.002-.046.008-.073a.436.436 0 0 1 .365-.32.436.436 0 0 1 .045 0zm-18.336.518h.002a.436.436 0 0 1 .41.328c.006.022 0 .043.006.07.002.01.006.018.008.026 1.647 6.421 1.63 13.515.791 19.45-.422 2.98-1.05 5.672-1.781 7.837-.698 2.065-1.48 3.562-2.334 4.51-.006.019-.014.049-.02.065l-.013-.011c-.03.034-.054.126-.084.16a.436.436 0 0 1-.719-.444c2.336-6.56 4.94-14.555 3.293-31.513a.436.436 0 0 1 .441-.483zm-32.226 2.359c5.967 0 12.48 1.545 18.36 5.166a.436.436 0 0 1-.017.754c-4.703 2.659-11.188 4.532-17.617 4.814-6.43.282-12.819-1.031-17.256-4.867a.436.436 0 0 1 0-.656c3.698-3.252 9.767-5.214 16.53-5.211zm81.929.034c6.85-.085 13.259 1.769 17.154 5.176a.436.436 0 0 1 0 .656c-4.437 3.835-10.91 5.235-17.385 4.996-6.474-.238-12.961-2.114-17.505-4.957a.436.436 0 0 1-.008-.732c5.304-3.468 11.7-5.064 17.744-5.139zm-31.738 3.594c-.033.306-.048.611-.076.918a91.145 91.145 0 0 0-.061 3.855c.037-1.57.087-3.17.137-4.773zm-17.59.527c.042 1.399.085 2.807.123 4.197a88.868 88.868 0 0 0-.05-3.316c-.029-.294-.042-.587-.073-.88zm74.314 21.772a52.135 52.135 0 0 1-6.88 4.652 46.956 46.956 0 0 0 5.132-3.035 61.39 61.39 0 0 0 1.748-1.617zm-131.04.244c.733.664 1.5 1.286 2.312 1.904.037.023.075.044.112.07-.807-.657-1.595-1.323-2.424-1.975zm58.687 12.375c.54 0 1.093.157 1.549.5.581.438.784 1.13.99 1.744.206.613.416 1.16.69 1.396.953.823 2.535 1.692 3.484 1.692.949 0 2.535-.869 3.488-1.692.274-.236.481-.783.687-1.396.207-.613.41-1.306.99-1.744.383-.288.846-.374 1.3-.416a.436.436 0 0 1 .008-.012.436.436 0 0 1 .242-.076c.325 0 .652.067.953.186.684.272 1.62.724 2.361 1.357.37.317.69.683.893 1.114.202.43.273.94.11 1.445-.15.458-.563.772-.96.799-.397.026-.753-.11-1.111-.252-.716-.284-1.464-.594-1.77-.521-.378.09-.775.35-1.203.662-.427.31-.884.668-1.441.88-.63.24-1.4.702-2.192 1.069-.759.352-1.557.603-2.353.443-.794.158-1.596-.092-2.354-.443-.792-.367-1.563-.828-2.193-1.068-.557-.213-1.014-.57-1.441-.881-.428-.311-.825-.573-1.203-.662-.306-.072-1.054.238-1.77.521-.358.143-.708.279-1.105.252-.397-.027-.817-.341-.965-.799a1.954 1.954 0 0 1 .111-1.445c.203-.43.522-.797.893-1.114.74-.633 1.676-1.085 2.361-1.357.301-.12.628-.183.951-.186zm-43.05 7.847a.436.436 0 0 1 .415.323s.844 3.17 2.381 6.857c1.537 3.687 3.796 7.875 6.463 9.871 5.03 3.766 12.787 5.009 19.803 5.493 6.428.443 18.357-2.175 20.226-2.598a.436.436 0 0 1 .45-.182s.11.023.195.044c.022 0 .035 0 .062-.012.07-.019.137-.026.137-.026a.436.436 0 0 1 .455.181c1.876.425 13.794 3.04 20.22 2.598 7.016-.484 14.773-1.727 19.803-5.492 2.667-1.997 4.928-6.187 6.465-9.873 1.537-3.687 2.379-6.858 2.379-6.858a.436.436 0 0 1 .855.143l-.013.084c-.004.076-.203 3.722-1.139 8.078-.945 4.4-2.597 9.468-5.678 12.129-5.532 4.778-14.756 5.613-22.595 6.375-6.938.674-19.998-1.423-20.947-1.577-.946.153-14.007 2.25-20.946 1.577-7.838-.762-17.068-1.597-22.601-6.375-3.081-2.661-4.732-7.728-5.678-12.13-.935-4.355-1.134-8.002-1.138-8.077l-.014-.084a.436.436 0 0 1 .4-.463.436.436 0 0 1 .04 0z" fill="#c7dceb" fill-rule="evenodd"/>
</svg>
