<?xml version="1.0" encoding="UTF-8" standalone="no"?>
<svg xmlns="http://www.w3.org/2000/svg" width="176.916" height="256" viewBox="0 0 177 256">
  <path d="M88.49 0C61.4 0 38.84 1.047 23.217 11.953 7.593 22.859-.884 43.574.073 82.475c.247 10.123 2.698 30.038 2.696 38.47-.008 33.356 16.452 66.144 35.09 90.745 9.32 12.3 19.197 22.562 27.969 29.828 7.237 5.994 13.509 10.055 18.794 11.384 1.128 1.769 2.369 3.098 3.86 3.098.816 0 1.585-.38 2.277-.986.653-.572 1.25-1.387 1.822-2.336 5.35-1.48 11.538-5.293 18.46-10.82 9.069-7.238 19.152-17.525 28.577-29.88 18.85-24.709 35.145-57.701 34.594-91.07-.08-4.852.588-12.176 1.283-19.373.694-7.196 1.418-14.267 1.421-19.127.015-40.355-8.466-61.05-23.863-71.58C137.657.295 115.573 0 88.491 0zm-.2 3c35.165.242 56.386 4.233 68.624 15.986C169.152 30.74 172.613 50.422 171.99 82.4a.502.502 0 0 0 0 .008c-.003 4.351-.704 11.448-1.4 18.66s-1.387 14.557-1.298 19.92c.06 3.677-.12 7.365-.475 11.043-5.878 7.224-17.928 13.43-30.56 16.014-12.685 2.595-25.887 1.545-33.973-5.416a.502.502 0 0 0-.667.747c.005.004.01.012.016.015h.006c.206.195.404.38.608.563 2.635 5.786.282 8.073-.489 11.228a.502.502 0 0 0 .83.496c.092-.084.046-.182.133-.267l.016.008c.01-.042.034-.1.045-.141 1.891-1.897 2.834-4.027 2.89-5.957.044-1.531-.558-2.637-1.098-3.714 13.98 9.326 27.986 8.697 39.308 4.373.952-.364 1.547-.984 2.46-1.392-.012.018-.024.03-.037.05-4.913 7.86-8.778 14.322-13.903 18.89-5.136 4.578-11.552 7.32-21.773 7.767-5.318.068-9.54-.873-13.027-4.343-1.07-1.064-1.295-2.498-1.573-4.045-.278-1.547-.63-3.23-2.157-4.388-.979-.742-2.328-1.13-3.712-1.216-1.297-.08-2.595.173-3.676.704-1.082-.534-2.375-.785-3.675-.704-1.383.086-2.742.474-3.721 1.216-1.528 1.157-1.88 2.841-2.157 4.388-.278 1.547-.501 2.981-1.57 4.045-3.485 3.466-7.696 4.409-13.007 4.343-10.235-.444-16.654-3.185-21.794-7.766-5.14-4.582-9-11.06-13.933-18.95a.502.502 0 0 0-.882.475c.01.023.02.038.03.06 3.993 8.791 7.558 16.948 12.962 22.995 5.416 6.062 12.71 9.96 23.921 10.175 7.473.101 16.736.116 22.1-4.922.63-.59 1.186-1.322 1.726-2.066.54.743 1.1 1.477 1.727 2.066 5.365 5.038 14.62 5.024 22.093 4.922a.502.502 0 0 0 .008 0c11.211-.216 18.497-4.113 23.913-10.175 5.417-6.061 8.993-14.239 12.998-23.055a.502.502 0 0 0-.474-.703c9.238-4.237 16.3-10.114 19.75-14.46-3.14 27.374-16.903 54.265-32.8 75.103-9.196 12.055-19.046 22.084-27.725 29.011-4.769 3.808-9.116 6.396-12.798 8.138 1.62-5.145 2.847-11.37 3.01-16.734.121-3.987-1.15-9.688-2.44-14.43-1.249-4.596-2.45-8.025-2.527-8.246.18-.204 2.082-2.348 3.78-5.167.89-1.474 1.685-3.07 2.054-4.594.368-1.523.302-3.04-.66-4.143-.588-.676-1.393-.96-2.223-.992-.83-.03-1.704.158-2.594.408-1.78.5-3.657 1.245-5.092 1.245-1.435 0-3.31-.746-5.09-1.245-.89-.25-1.765-.44-2.594-.408-.83.03-1.642.316-2.232.992-.961 1.102-1.02 2.62-.65 4.143.368 1.523 1.155 3.12 2.045 4.594 1.698 2.816 3.603 4.951 3.786 5.159-.075.214-1.277 3.654-2.528 8.255-1.289 4.741-2.558 10.442-2.437 14.43.165 5.407 1.403 11.685 3.045 16.852-3.587-1.775-7.976-4.495-12.857-8.537-8.415-6.97-18.087-16.986-27.19-29-15.523-20.489-29.233-46.812-32.965-73.783 4.025 4.67 11.922 10.924 22.56 14.453 9.684 3.213 21.334 3.664 33.282-1.416.99-.36 1.887-.835 2.815-1.29.85-.427 1.692-.672 2.543-1.162-.56 1.085-1.164 2.229-1.12 3.794.056 1.93 1 4.06 2.891 5.956.01.042.035.1.045.141l.014-.008c.087.085.04.183.133.267a.502.502 0 0 0 .824-.496c-.771-3.154-3.118-5.442-.483-11.227.204-.183.402-.368.608-.563h.008l.015-.015a.504.504 0 0 0-.674-.747c-1.547 1.332-3.41 2.271-5.292 3.186-.875.44-1.744.826-2.616 1.2-7.379 2.696-16.442 2.902-25.367 1.17-12.42-2.408-24.38-8.35-30.586-15.37-.467-3.95-.718-7.912-.717-11.87.002-9.342-2.475-29.126-2.706-38.588v-.008c-.638-31.336 2.73-51.263 14.874-63.282C32.013 7.047 53.132 2.757 88.291 3zm50.475 71.869v.002a.502.502 0 0 0-.05.008h-.009c-7.794.086-16.184 1.3-23.417 3.794-7.26 2.503-13.372 6.287-16.467 11.576-.141.222-.236.451-.245.696a1.03 1.03 0 0 0 .23.675c.292.352.712.453 1.133.474.838.042 1.866-.291 2.32-1.215l.007-.008c1.68-3.218 5.285-5.928 10.006-8.041 4.726-2.115 10.551-3.63 16.6-4.528 12.097-1.795 25.113-1.092 31.926 1.97a.502.502 0 0 0 .482-.872c-.02-.015-.063-.015-.083-.03l.008-.015c-.026-.011-.077-.011-.103-.023-4.619-3.045-12.984-4.553-22.285-4.462a.502.502 0 0 0-.053 0zm-96.43.662a72.43 72.43 0 0 0-5.772.14c-8.992.583-16.936 2.814-21.098 6.417-.018.012-.056.012-.074.023l.008.007c-.02.02-.063.027-.083.045a.502.502 0 0 0 .587.808c6.252-3.758 18.727-5.467 30.554-4.433 11.82 1.033 22.969 4.82 26.857 11.488.506.93 1.554 1.244 2.387 1.134.416-.056.83-.217 1.074-.608.245-.391.166-.938-.141-1.379C70.55 79.741 56.07 75.781 42.46 75.552h-.006a.502.502 0 0 0-.12-.022zm110.47 2.05c.193.03.377.065.568.097.423.11.844.22 1.259.342-.63-.136-1.23-.286-1.828-.44zM23.317 79.556c-.688.26-1.38.519-2.104.76.473-.205.958-.396 1.45-.582.218-.059.43-.122.654-.178zm116.279 1.894c-7.707.019-15.902.94-23.02 3.343s-13.174 6.305-16.488 12.302a.502.502 0 0 0-.022.03c-.357.794-.093 1.658.406 2.336.5.677 1.24 1.253 2.047 1.674.807.422 1.673.69 2.475.682.4-.004.798-.079 1.14-.274a1.74 1.74 0 0 0 .771-.928c4.131-8.289 14.739-12.693 26.412-14.523 11.699-1.834 24.41-1.088 32.445.688a.502.502 0 0 0 .37-.92c-.03-.019-.13-.034-.162-.05l.008-.008c-.018-.004-.048-.004-.067-.007-1.953-1.16-5.402-2.218-9.96-3.016-4.66-.816-10.36-1.343-16.355-1.328zm-97.49 1.088v.002a82.47 82.47 0 0 0-5.655.222c-5.785.421-11.233 1.403-15.651 2.615-4.299 1.18-7.493 2.55-9.279 3.93-.028.007-.076.011-.104.022l.008.023c-.03.023-.133.042-.163.067a.502.502 0 0 0 .467.867c7.564-2.48 19.745-4.201 31.192-3.098 11.447 1.102 22.106 5.021 26.894 13.643l-.023-.051c.346.817 1.174 1.184 1.965 1.133.79-.05 1.607-.413 2.349-.925.741-.512 1.41-1.18 1.823-1.936.413-.755.57-1.65.163-2.445a.502.502 0 0 0-.016-.038c-6.56-10.703-20.493-14.022-33.784-14h-.008a.502.502 0 0 0-.178-.03zm56.876 21.304a.502.502 0 0 0-.051.004.502.502 0 0 0-.422.37c-.006.027 0 .057-.008.083h-.007c-.002.012 0 .015 0 .03-1.898 7.4-1.88 15.58-.912 22.418.486 3.436 1.21 6.533 2.053 9.028.805 2.383 1.713 4.118 2.698 5.21.006.015.01.042.015.058l.014-.008c.036.04.06.155.096.192a.502.502 0 0 0 .837-.517c-2.61-7.396-5.763-15.518-3.8-36.314a.502.502 0 0 0-.513-.554zm-21.128.596a.502.502 0 0 0-.51.557c1.898 19.54-1.101 28.753-3.793 36.312a.502.502 0 0 0 .829.512c.035-.038.06-.147.096-.185l.015.008c.008-.019.014-.054.022-.074.983-1.093 1.886-2.817 2.69-5.196.844-2.495 1.567-5.598 2.053-9.034.967-6.838.986-15.01-.912-22.41l-.007-.03c-.007-.026-.001-.054-.008-.08a.502.502 0 0 0-.473-.379zm-37.135 2.72c-7.793-.003-14.784 2.257-19.045 6.004a.502.502 0 0 0 0 .755c5.113 4.42 12.474 5.934 19.882 5.61 7.409-.325 14.881-2.486 20.3-5.55a.502.502 0 0 0 .022-.868c-6.775-4.172-14.283-5.948-21.159-5.951zm94.408.04c-6.965.086-14.335 1.925-20.447 5.92a.502.502 0 0 0 .008.844c5.236 3.276 12.713 5.439 20.172 5.713 7.46.275 14.92-1.337 20.032-5.756a.502.502 0 0 0 0-.757c-4.489-3.926-11.871-6.063-19.765-5.965zm-36.573 4.14c-.057 1.847-.113 3.69-.156 5.5-.009-1.4.012-2.876.068-4.44.033-.354.05-.707.088-1.06zm-20.268.608c.036.339.052.677.084 1.016.045 1.328.064 2.602.059 3.821-.044-1.602-.094-3.225-.143-4.837zm85.631 25.086a70.671 70.671 0 0 1-2.014 1.865 54.1 54.1 0 0 1-5.913 3.498 60.072 60.072 0 0 0 7.927-5.363zm-150.996.283c.956.75 1.863 1.518 2.792 2.274l-.127-.08a40.571 40.571 0 0 1-2.665-2.194zm67.624 14.258a3.057 3.057 0 0 0-1.096.214c-.79.313-1.867.835-2.72 1.565-.427.365-.796.786-1.03 1.282-.233.496-.316 1.085-.127 1.667.171.527.654.887 1.112.92.457.03.862-.127 1.274-.29.825-.328 1.687-.684 2.04-.6.435.102.894.403 1.386.762.492.358 1.016.77 1.659 1.015.725.278 1.614.807 2.527 1.23.873.405 1.797.693 2.712.512.917.184 1.839-.107 2.714-.512.912-.423 1.8-.953 2.525-1.23.642-.245 1.168-.657 1.66-1.015.494-.359.951-.66 1.387-.763.352-.083 1.213.273 2.037.6.413.164.825.322 1.283.29.457-.03.932-.392 1.104-.92a2.255 2.255 0 0 0-.126-1.666c-.233-.496-.603-.917-1.03-1.282-.853-.73-1.93-1.251-2.719-1.565a3.045 3.045 0 0 0-1.098-.214.502.502 0 0 0-.28.089.502.502 0 0 0-.008.008c-.523.049-1.058.148-1.498.48-.67.505-.904 1.303-1.141 2.01-.238.707-.477 1.336-.793 1.608-1.098.948-2.923 1.949-4.017 1.949-1.094 0-2.918-1.001-4.016-1.95-.315-.272-.557-.9-.794-1.607s-.471-1.505-1.141-2.01a2.936 2.936 0 0 0-1.784-.576zm-49.651 9.048a.502.502 0 0 0-.461.535l.015.096c.005.088.234 4.288 1.312 9.308 1.09 5.071 2.993 10.91 6.543 13.976 6.376 5.506 17.01 6.467 26.043 7.345 7.995.777 23.046-1.64 24.136-1.815 1.093.176 16.143 2.592 24.137 1.815 9.032-.878 19.66-1.84 26.035-7.345 3.55-3.066 5.454-8.905 6.543-13.976 1.078-5.02 1.307-9.22 1.312-9.308l.016-.096a.502.502 0 0 0-.987-.165s-.97 3.652-2.74 7.9c-1.772 4.248-4.377 9.076-7.45 11.377-5.796 4.338-14.733 5.772-22.817 6.329-7.405.51-21.139-2.504-23.3-2.994a.502.502 0 0 0-.526-.208s-.077.011-.157.03c-.031.008-.047.008-.072.015-.099-.022-.224-.045-.224-.045a.502.502 0 0 0-.518.208c-2.153.488-15.9 3.505-23.307 2.994-8.085-.557-17.022-1.99-22.818-6.33-3.073-2.3-5.676-7.125-7.447-11.374-1.771-4.248-2.743-7.9-2.743-7.9a.502.502 0 0 0-.526-.37z" style="line-height:normal;font-variant-ligatures:normal;font-variant-position:normal;font-variant-caps:normal;font-variant-numeric:normal;font-variant-alternates:normal;font-feature-settings:normal;text-indent:0;text-align:start;text-decoration-line:none;text-decoration-style:solid;text-decoration-color:#000;text-transform:none;text-orientation:mixed;shape-padding:0;isolation:auto;mix-blend-mode:normal" color="#000" font-weight="400" font-family="sans-serif" white-space="normal" overflow="visible" fill="#c7dceb" fill-rule="evenodd"/>
</svg>
