<?xml version="1.0" encoding="UTF-8" standalone="no"?>
<svg xmlns="http://www.w3.org/2000/svg" width="256" height="256" viewBox="0 0 256 256">
  <path d="M128 0C105.125 0 80.705-.276 59.565 9.42S19.115 38.425 9.419 59.565C-.277 80.705 0 105.125 0 128.001c0 22.875-.278 47.295 9.418 68.435s29.006 40.451 50.146 50.147c21.14 9.696 45.56 9.416 68.435 9.416s47.295.28 68.435-9.416 40.45-29.007 50.146-50.147c9.696-21.14 9.418-45.56 9.418-68.435 0-22.876.278-47.296-9.418-68.436-9.696-21.14-29.006-40.45-50.146-50.146C175.295-.277 150.875 0 128 0zm-.002 6.862c21.153 0 44.163-.347 64.453 8.96 20.225 9.275 38.452 27.5 47.728 47.726 9.306 20.29 8.959 43.301 8.959 64.455 0 21.153.347 44.165-8.96 64.455-9.275 20.225-27.502 38.446-47.727 47.723-20.29 9.305-43.3 8.957-64.453 8.957-21.153 0-44.165.348-64.455-8.957-20.225-9.277-38.446-27.498-47.722-47.723-9.306-20.29-8.957-43.302-8.957-64.455 0-21.154-.349-44.166 8.957-64.455 9.276-20.225 27.497-38.45 47.722-47.727 20.29-9.306 43.302-8.959 64.455-8.959zm0 5.307c-21.197 0-43.394-.166-62.242 8.478-18.911 8.674-36.439 26.202-45.113 45.114C12 84.608 12.17 106.806 12.17 128.003c0 21.197-.17 43.395 8.474 62.242 8.674 18.912 26.202 36.44 45.113 45.113 18.848 8.645 41.045 8.473 62.242 8.473 21.197 0 43.394.171 62.242-8.473 18.912-8.674 36.443-26.201 45.117-45.113 8.644-18.847 8.474-41.045 8.474-62.242 0-21.197.17-43.395-8.474-62.242-8.674-18.912-26.205-36.44-45.117-45.114-18.848-8.644-41.045-8.478-62.242-8.478zm51.357 13.074a2.13 2.061 0 0 1 1.025.238l16.239 8.248a2.13 2.061 0 0 1 .103.053 2.13 2.061 0 0 1 .432.287l20.968 18.2a2.13 2.061 0 0 1 .082.08 2.13 2.061 0 0 1 .133.144 2.13 2.061 0 0 1 .18.24l10.246 14.75a2.13 2.061 0 0 1-.182 2.528L114.764 192.827a2.13 2.061 0 0 1-.028.03 2.13 2.062 0 0 1-.08.08 2.13 2.061 0 0 1-.05.042 2.13 2.062 0 0 1-.135.11 2.13 2.062 0 0 1-.176.118 2.13 2.062 0 0 1-.514.224l-64.038 22.852a2.13 2.061 0 0 1-2.803-2.433l16.55-64.178a2.13 2.062 0 0 1 .01-.039l.002-.011a2.13 2.061 0 0 1 .016-.047 2.13 2.062 0 0 1 .037-.125 2.13 2.062 0 0 1 .08-.19 2.13 2.062 0 0 1 .1-.183 2.13 2.062 0 0 1 .117-.174 2.13 2.061 0 0 1 .127-.153 2.13 2.062 0 0 1 .004 0 2.13 2.061 0 0 0 .002 0L177.802 25.93a2.13 2.061 0 0 1 1.553-.686zm.51 4.635L69.239 149.248l13.72 4.96L192.322 36.2zm16.031 8.637L86.58 156.474l17.799 15.449L213.695 53.966zm20.564 18.64L107.098 175.163l6.58 12.662L224.302 68.454zM67.057 152.86l-9.545 37.026c1.918.799 7.038 3.033 9.428 5.107 2.392 2.077 5.244 6.769 6.27 8.522l36.993-13.196-7.385-14.213-20.369-17.681z" fill="#c7dceb" fill-rule="evenodd"/>
</svg>
