<?xml version="1.0" encoding="UTF-8" standalone="no"?>
<svg xmlns="http://www.w3.org/2000/svg" width="236.22" height="256" viewBox="0 0 256 256">
  <path d="M194.78 11.819a2.76 2.76 0 0 0-.56-.384 2.76 2.76 0 0 0-.135-.07L173.04.318a2.76 2.76 0 0 0-3.34.6L22.176 165.389a2.76 2.76 0 0 0-.004.003 2.761 2.761 0 0 0-.003.003 2.76 2.76 0 0 0-.166.206 2.761 2.761 0 0 0-.152.232 2.761 2.761 0 0 0-.128.245 2.761 2.761 0 0 0-.103.255 2.761 2.761 0 0 0-.05.166 2.76 2.76 0 0 0-.019.062l-.003.015a2.761 2.761 0 0 0-.012.049L.083 252.57a2.76 2.76 0 0 0 3.634 3.26l83.001-30.602a2.761 2.761 0 0 0 .667-.302 2.761 2.761 0 0 0 .227-.157 2.761 2.761 0 0 0 .176-.148 2.76 2.76 0 0 0 .064-.056 2.761 2.761 0 0 0 .105-.107 2.76 2.76 0 0 0 .034-.038L235.514 59.95a2.76 2.76 0 0 0 .236-3.385l-13.28-19.753a2.76 2.76 0 0 0-.232-.322 2.76 2.76 0 0 0-.173-.192 2.76 2.76 0 0 0-.107-.106zm-1.63 5.954l23.069 20.69L74.53 196.43l-23.067-20.69zm-4.634-3.1L46.77 172.706l-17.782-6.64L172.372 6.205zm31.287 28.063l10.164 15.131L86.584 217.724l-8.528-16.955zM46.11 178.353l26.4 23.679 9.571 19.032-47.948 17.672c-1.329-2.347-5.025-8.632-8.126-11.413-3.097-2.779-9.735-5.768-12.22-6.839l12.372-49.583z" color="#000" font-weight="400" font-family="sans-serif" white-space="normal" overflow="visible" fill="#c7dceb" fill-rule="evenodd"/>
</svg>
