<?xml version="1.0" encoding="UTF-8" standalone="no"?>
<svg xmlns="http://www.w3.org/2000/svg" viewBox="0 0 256 256" width="256" height="256">
  <path d="M84.203.001C56.423.038 29.113 1.13 3.356 3.165-1.957 56.353-.757 125 5.51 161.603c20.631 1.426 41.784 2.69 63.043 3.33 10.645 35.62 23.397 69.875 34.221 91.067 51.098-11.424 105.099-24.691 153.226-45.587-3.277-37.297-26.157-102.268-45.45-152.142a1004.053 1004.053 0 0 0-39.698 9.331c-.502-21.98-1.652-44.31-2.975-64.437C140.235.98 111.983-.037 84.203 0zm-.643 5.678c25.374-.064 51.43 2.867 78.296 4.983 1.24 18.081 2.319 38.426 2.801 58.555-2.817.74-5.63 1.49-8.438 2.252.626-18.447.109-36.9-2.371-55.363-25.236-2.272-50.475-4.233-75.724-4.391-19.638-.123-39.283.846-58.939 3.61-7.143 38.232-1.36 76.539 1.242 114.827a929.897 929.897 0 0 0 39.096 2.13 802.38 802.38 0 0 0 7.447 27.28c-18.529-.607-37.057-1.707-55.586-2.935C5.454 123.403 4.32 58.94 9.346 10.662 33.49 8.8 58.185 5.742 83.56 5.679zM78.94 17.757c22.726.142 45.441 1.908 68.156 3.952 2.316 17.24 2.722 34.469 2.058 51.692a1087.453 1087.453 0 0 0-19.58 5.654c-26.557 7.94-52.347 16.754-76.372 26.03a618.267 618.267 0 0 0 4.768 21.01c-10.604-.391-20.98-.964-30.962-1.735-2.343-34.463-7.547-68.942-1.117-103.354 17.692-2.487 35.374-3.36 53.05-3.249zm128.097 49.399c17.642 45.232 39.144 106.235 41.823 140.177-45.608 19.54-93.658 31.294-141.961 42.235-15.634-30.087-36.05-91.414-45.72-139.018 22.532-8.65 45.834-18.688 70.083-25.97 24.25-7.28 49.446-11.804 75.775-17.424zm-6.027 7.484c-24.816 5.008-49.542 10.314-73.737 17.348-18.818 5.47-37.317 11.985-55.286 20.221 4.632 38.597 21.652 73.588 35.622 109.466a933.563 933.563 0 0 0 125.298-36.484c-7.123-37.872-15.49-75.382-31.897-110.55zm-4.776 7.28c14.768 31.655 22.298 65.416 28.71 99.504-37.41 13.698-77.13 25.17-112.778 32.84-12.575-32.294-27.89-63.788-32.06-98.528 16.174-7.413 32.823-13.28 49.761-18.203 21.778-6.33 44.03-11.105 66.367-15.612z" fill="#c7dceb" fill-rule="evenodd"/>
</svg>
