<?xml version="1.0" encoding="UTF-8" standalone="no"?>
<svg xmlns="http://www.w3.org/2000/svg" width="256" height="256" viewBox="0 0 256 256">
  <path d="M128 0C105.126 0 80.706-.276 59.566 9.42S19.115 38.425 9.42 59.565C-.277 80.705 0 105.125 0 128.001c0 22.875-.278 47.295 9.418 68.435s29.006 40.451 50.146 50.147c21.14 9.696 45.56 9.416 68.436 9.416 22.875 0 47.295.28 68.435-9.416s40.45-29.007 50.147-50.147c9.696-21.14 9.418-45.56 9.418-68.435 0-22.876.278-47.296-9.418-68.436-9.696-21.14-29.007-40.45-50.147-50.146C175.296-.277 150.876 0 128.001 0zM128 6.863c21.153 0 44.163-.347 64.453 8.96 20.225 9.275 38.452 27.5 47.728 47.726 9.306 20.29 8.96 43.301 8.96 64.455 0 21.153.346 44.165-8.96 64.455-9.276 20.225-27.503 38.446-47.728 47.723-20.29 9.305-43.3 8.957-64.453 8.957-21.154 0-44.166.349-64.455-8.957-20.225-9.277-38.447-27.498-47.723-47.723-9.306-20.29-8.957-43.302-8.957-64.455 0-21.154-.349-44.166 8.957-64.455 9.276-20.225 27.498-38.45 47.723-47.727 20.29-9.306 43.301-8.959 64.455-8.959zm0 5.307c-21.197 0-43.395-.166-62.242 8.478-18.912 8.674-36.44 26.202-45.114 45.114C12 84.608 12.17 106.806 12.17 128.003c0 21.197-.17 43.395 8.474 62.242 8.674 18.912 26.202 36.44 45.114 45.113 18.847 8.645 41.045 8.473 62.242 8.473 21.196 0 43.395.172 62.242-8.473 18.912-8.674 36.443-26.201 45.117-45.113 8.644-18.847 8.475-41.045 8.475-62.242 0-21.197.17-43.395-8.475-62.242-8.674-18.912-26.205-36.44-45.117-45.114-18.847-8.644-41.046-8.478-62.242-8.478zm-24.96 31.344c19.64-.027 39.611.691 59.153 2.236.936 14.229 1.75 30.014 2.104 45.553a710.227 710.227 0 0 1 28.064-6.596c13.64 35.258 29.814 81.19 32.131 107.557-34.023 14.772-72.2 24.15-108.322 32.226-7.653-14.982-16.668-39.197-24.194-64.379-15.029-.453-29.983-1.345-44.568-2.353-4.43-25.876-5.28-74.406-1.523-112.008 18.209-1.438 37.517-2.21 57.156-2.236zm-.454 4.013c-17.939.045-35.397 2.205-52.465 3.522-3.554 34.13-2.753 79.702 1.44 103.19 13.098.868 26.197 1.646 39.296 2.075a567.246 567.246 0 0 1-5.263-19.285 657.408 657.408 0 0 1-27.641-1.506c-1.84-27.068-5.927-54.15-.877-81.177 13.895-1.954 27.783-2.638 41.666-2.551 17.85.111 35.693 1.497 53.533 3.103 1.754 13.054 2.118 26.098 1.676 39.139a757.62 757.62 0 0 1 5.967-1.592c-.341-14.23-1.105-28.614-1.98-41.396-18.994-1.496-37.413-3.567-55.352-3.522zm-3.266 8.54c-12.496-.079-24.995.538-37.502 2.296-4.545 24.328-.867 48.701.79 73.065 7.056.544 14.391.95 21.888 1.226a437.195 437.195 0 0 1-3.371-14.853c16.984-6.557 35.217-12.787 53.992-18.4 4.585-1.371 9.2-2.706 13.84-3.999.47-12.175.184-24.355-1.453-36.543-16.058-1.445-32.118-2.692-48.184-2.793zm90.559 34.921c-18.614 3.974-36.428 7.171-53.57 12.319-17.144 5.147-33.616 12.243-49.546 18.359 6.837 33.653 21.27 77.007 32.323 98.277 34.148-7.735 68.117-16.044 100.36-29.857-1.895-23.995-17.096-67.12-29.567-99.098zm-4.262 5.291c11.599 24.863 17.515 51.381 22.55 78.155a659.985 659.985 0 0 1-88.58 25.79c-9.876-25.363-21.908-50.1-25.183-77.386 12.704-5.823 25.782-10.428 39.086-14.295 17.105-4.972 34.583-8.723 52.127-12.264zm-3.375 5.147c-15.791 3.186-31.523 6.561-46.918 11.037-11.974 3.48-23.745 7.628-35.18 12.869 2.948 24.56 13.775 46.825 22.664 69.654 25.202-5.421 53.282-13.532 79.729-23.217-4.533-24.098-9.855-47.965-20.295-70.343z" fill="#c7dceb" fill-rule="evenodd"/>
</svg>
