<?xml version="1.0" encoding="UTF-8" standalone="no"?>
<svg xmlns="http://www.w3.org/2000/svg" width="250.075" height="256" viewBox="0 0 250 256">
  <path d="M250.064 43.58l-15.74 12.132c-14.407-19.918-35.812-33.732-57.131-45.505C120.863-15.38 49.765 9.155 18.987 61.334c-33.37 52.87-21.664 126.222 26.55 166.22 45.84 40.398 122.385 35.378 160.794-.011 38.408-35.389 44.5-58.334 42.85-88.262-23.79 40.163-62.741 63.982-92.865 71.424-27.408 6.471-60.01 2.13-78.699-18.677-17.346-18.234-31.258-43.021-26.624-68.845 4.133-38.512 40.28-70.54 79.589-69.433 25.038.24 49.513 12.354 64.67 32.07l-17.178 13.238c24.13 8.678 46.978 17.356 71.108 26.034-.133-27.17 1.015-54.342.882-81.514z" fill="#c7dceb" fill-rule="evenodd"/>
</svg>
