<?xml version="1.0" encoding="UTF-8" standalone="no"?>
<svg xmlns="http://www.w3.org/2000/svg" width="256" height="256" viewBox="0 0 256 256">
  <path d="M128 0C105.126 0 80.706-.276 59.566 9.42S19.115 38.425 9.42 59.565C-.277 80.705 0 105.125 0 128.001c0 22.875-.278 47.295 9.418 68.435s29.006 40.451 50.146 50.147c21.14 9.696 45.56 9.416 68.436 9.416 22.875 0 47.295.28 68.435-9.416s40.45-29.007 50.147-50.147c9.696-21.14 9.418-45.56 9.418-68.435 0-22.876.278-47.296-9.418-68.436-9.696-21.14-29.007-40.45-50.147-50.146C175.296-.277 150.876 0 128.001 0zM128 6.863c21.153 0 44.163-.347 64.453 8.96 20.225 9.275 38.452 27.5 47.728 47.726 9.306 20.29 8.96 43.301 8.96 64.455 0 21.153.346 44.165-8.96 64.455-9.276 20.225-27.503 38.446-47.728 47.723-20.29 9.305-43.3 8.957-64.453 8.957-21.154 0-44.166.349-64.455-8.957-20.225-9.277-38.447-27.498-47.723-47.723-9.306-20.29-8.957-43.302-8.957-64.455 0-21.154-.349-44.166 8.957-64.455 9.276-20.225 27.498-38.45 47.723-47.727 20.29-9.306 43.301-8.959 64.455-8.959zm0 5.307c-21.197 0-43.395-.166-62.242 8.478-18.912 8.674-36.44 26.202-45.114 45.114C12 84.608 12.17 106.806 12.17 128.003c0 21.197-.17 43.395 8.474 62.242 8.674 18.912 26.202 36.44 45.114 45.113 18.847 8.645 41.045 8.473 62.242 8.473 21.196 0 43.395.172 62.242-8.473 18.912-8.674 36.443-26.201 45.117-45.113 8.644-18.847 8.475-41.045 8.475-62.242 0-21.197.17-43.395-8.475-62.242-8.674-18.912-26.205-36.44-45.117-45.114-18.847-8.644-41.046-8.478-62.242-8.478zm-3.084 4.945c14.613-.027 29.37 4.454 38.023 12.49 8.141 7.56 12.701 20.047 12.905 33.014.203 12.967-4.052 26.582-14.311 36.047-10.19 9.4-23.804 13.375-36.648 13.047-12.845-.328-25.056-4.9-32.536-13.225-7.378-8.212-11.79-20.608-12.439-33.344-.649-12.735 2.518-25.926 11.041-35.37 8.131-9.011 21.07-12.636 33.965-12.659zm.008 5.26c-11.897.022-23.354 3.484-30.067 10.922-7.31 8.1-10.278 19.902-9.683 31.576.594 11.674 4.803 23.1 11.09 30.098 6.185 6.884 17.094 11.176 28.756 11.474 11.661.298 23.936-3.338 32.943-11.648 8.937-8.246 12.805-20.336 12.621-32.094-.184-11.757-4.526-23.016-11.227-29.238-7.115-6.608-20.95-11.117-34.433-11.09zm49.055 78.207h.006a2.633 2.633 0 0 1 .75.103c5.515 1.642 9.876 3.638 12.486 6.875h.006a2.633 2.633 0 0 1 .43.764c3.325 4.439 5.925 10.982 7.955 18.961 2.126 8.36 3.582 18.11 4.138 27.904.557 9.794.212 19.618-1.334 28.149-1.546 8.53-4.214 15.84-8.92 20.496-3.275 3.24-8.442 5.407-14.699 7.197-.13.215-.249.396-.558 1.026-.853 1.735-2.392 5.251-4.91 12.023a2.633 2.633 0 0 1-.28.545c-3.703 5.541-10.495 9.015-18.494 11.246-8 2.23-17.33 3.164-26.473 2.998-9.142-.167-18.083-1.426-25.33-3.756s-13.09-5.614-15.222-10.976a2.633 2.633 0 0 1-.034-.096c-2.244-6.358-3.074-7.992-3.468-9.744-.198-.877-.15-1.78-.063-2.47.03-.233.062-.733.096-1.009-6.148-1.762-11.236-3.85-14.291-7.035-4.332-4.517-6.722-11.805-8.182-20.46-1.46-8.653-1.857-18.717-1.406-28.706.451-9.99 1.746-19.893 3.744-28.219 1.999-8.325 4.515-15.047 8.313-19.006 2.569-2.678 6.625-4.37 11.841-5.89a2.633 2.633 0 0 1 2.844.953c.8 1.066 1.61 2.076 2.443 3.004 8.405 9.352 23.073 15.08 38.715 15.478 15.642.4 32.116-4.476 44.24-15.66a48.108 48.108 0 0 0 3.674-3.795 2.633 2.633 0 0 1 1.983-.9zm.57 5.83c-.863.925-1.7 1.863-2.65 2.74-13.308 12.275-31.13 17.48-47.954 17.051-16.824-.43-32.793-6.431-42.492-17.225-.493-.548-.927-1.144-1.39-1.716-3.688 1.267-6.98 2.69-8.022 3.775-2.39 2.491-5.093 8.688-6.99 16.592-1.898 7.904-3.172 17.54-3.61 27.228-.437 9.69-.038 19.442 1.336 27.584 1.374 8.143 3.854 14.627 6.795 17.694 2.046 2.132 7.117 4.54 13.961 6.31a2.633 2.633 0 0 1 1.969 2.696c-.094 1.718-.244 2.764-.316 3.341-.073.578-.077.41-.02.662.112.499 1.031 2.759 3.252 9.043l.008.01c1.08 2.703 5.38 5.796 11.94 7.905 6.564 2.11 15.101 3.35 23.814 3.51 8.712.158 17.617-.765 24.955-2.811 7.283-2.031 12.867-5.229 15.451-9.018 2.39-6.382 3.97-10.114 4.922-12.05.494-1.006.842-1.603 1.135-2.036a4.81 4.81 0 0 1 .441-.57c.08-.087.165-.174.272-.266.106-.09.394-.277.394-.277a2.633 2.633 0 0 1 .64-.271c6.356-1.731 11.171-4.014 13.4-6.22 3.39-3.354 6-9.731 7.443-17.692 1.442-7.962 1.793-17.441 1.256-26.91-.538-9.47-1.956-18.94-3.983-26.907-2.026-7.967-4.761-14.46-7.387-17.719a2.633 2.633 0 0 1-.008-.01c-1.152-1.425-4.555-3.047-8.562-4.445z" fill="#c7dceb" fill-rule="evenodd"/>
</svg>
