<?xml version="1.0" encoding="UTF-8" standalone="no"?>
<svg xmlns="http://www.w3.org/2000/svg" width="234.994" height="256" viewBox="0 0 235 256">
  <path d="M115.435 0c-7.305.015-14.794 2.072-19.633 7.514-4.988 5.611-6.75 13.279-6.382 20.599.367 7.32 2.806 14.43 7.137 19.323 4.447 5.025 11.48 7.627 18.818 7.817 7.336.19 15.146-2.101 21.03-7.612 5.964-5.586 8.376-13.53 8.26-21.021-.115-7.493-2.646-14.726-7.5-19.301-5.161-4.866-13.452-7.336-21.73-7.319zm.007 6.133c6.941-.015 14.14 2.457 17.52 5.644 3.186 3.003 5.476 8.828 5.57 14.932.094 6.104-1.89 12.304-6.324 16.456-4.516 4.229-10.736 6.115-16.674 5.961-5.938-.153-11.427-2.419-14.382-5.757-3.072-3.47-5.3-9.463-5.606-15.566-.306-6.102 1.255-12.177 4.844-16.214 3.202-3.602 8.927-5.444 15.052-5.456zm26.484 39.763a3.067 3.067 0 0 0-2.324 1.072 24.68 24.68 0 0 1-1.863 1.963c-6.204 5.81-14.707 8.373-22.802 8.163-8.095-.21-15.619-3.264-19.776-7.96-.41-.463-.824-.98-1.238-1.539a3.067 3.067 0 0 0-3.336-1.124c-2.952.874-5.336 1.784-7.137 3.69-2.488 2.633-3.792 6.485-4.905 11.19-1.112 4.704-1.817 10.224-2.066 15.806-.248 5.583-.04 11.213.777 16.125.816 4.912 2.086 9.153 4.859 12.088 1.72 1.82 4.505 2.64 7.273 3.553-.027.44-.07.954.045 1.472.297 1.338.718 2.067 1.925 5.538a3.067 3.067 0 0 0 .046.113c1.47 3.753 5.114 5.636 9.257 6.988 4.142 1.351 9.118 2.056 14.208 2.15 5.09.094 10.275-.427 14.819-1.713 4.544-1.286 8.595-3.287 10.948-6.86a3.067 3.067 0 0 0 .317-.632c1.354-3.696 2.174-5.596 2.596-6.467.068-.141.05-.1.097-.19 3.069-.962 5.934-1.962 7.856-3.892 2.953-2.967 4.413-7.265 5.28-12.126.868-4.862 1.048-10.363.741-15.845-.307-5.483-1.106-10.932-2.288-15.648-1.025-4.09-2.45-7.256-4.202-9.938v-.007a3.067 3.067 0 0 0-.633-1.51c0-.001-.008.003-.008 0-1.804-2.27-4.438-3.382-7.576-4.33a3.067 3.067 0 0 0-.89-.13zm.687 6.784c1.23.568 2.747 1.208 2.966 1.48a3.067 3.067 0 0 0 .008.007c1.137 1.433 2.637 4.875 3.705 9.137 1.069 4.263 1.827 9.383 2.113 14.494.285 5.11.096 10.22-.655 14.428-.751 4.207-2.16 7.434-3.592 8.873-.825.83-3.226 2.088-6.534 3.003a3.067 3.067 0 0 0-.748.315s-.335.232-.452.333a3.33 3.33 0 0 0-.287.28c-.16.176-.274.33-.386.497-.222.334-.436.718-.724 1.313-.528 1.091-1.398 3.221-2.595 6.443-1.064 1.563-3.685 3.232-7.409 4.286-3.765 1.066-8.456 1.564-13.038 1.48-4.582-.086-9.08-.76-12.42-1.85-3.333-1.087-5.175-2.702-5.448-3.387l-.007-.008c-1.148-3.298-1.64-4.64-1.645-4.618.038-.298.122-.919.173-1.886a3.067 3.067 0 0 0-2.28-3.13c-3.57-.938-6.108-2.29-6.79-3.011-1.166-1.235-2.54-4.565-3.26-8.89-.718-4.325-.933-9.595-.7-14.833.233-5.238.91-10.455 1.909-14.675.997-4.22 2.532-7.477 3.395-8.39.155-.165 1.603-.729 2.64-1.2.007.007.015.018.022.03 5.65 6.382 14.713 9.775 24.206 10.021 9.493.246 19.574-2.727 27.147-9.818.248-.233.45-.484.686-.722zM39.053 64.89c-7.304.015-14.793 2.063-19.632 7.506-4.988 5.61-6.751 13.279-6.384 20.598.367 7.32 2.808 14.432 7.139 19.325 4.447 5.025 11.48 7.634 18.818 7.824 7.336.19 15.145-2.104 21.03-7.614 5.964-5.587 8.376-13.528 8.26-21.02-.116-7.492-2.646-14.725-7.5-19.3-5.162-4.866-13.452-7.336-21.73-7.32zm153.622 0c-7.304.015-14.785 2.063-19.624 7.506-4.988 5.61-6.752 13.279-6.384 20.598.367 7.32 2.808 14.432 7.139 19.325 4.447 5.025 11.48 7.634 18.817 7.824 7.337.19 15.138-2.104 21.022-7.614 5.965-5.587 8.385-13.528 8.269-21.02-.116-7.492-2.647-14.725-7.5-19.3-5.162-4.866-13.46-7.336-21.739-7.32zM39.061 71.023c6.942-.016 14.14 2.456 17.52 5.643 3.186 3.003 5.474 8.829 5.568 14.933.094 6.104-1.888 12.296-6.322 16.448-4.515 4.229-10.737 6.115-16.676 5.961-5.938-.154-11.425-2.41-14.38-5.75-3.071-3.47-5.301-9.462-5.607-15.565-.306-6.103 1.256-12.186 4.845-16.222 3.202-3.603 8.927-5.437 15.052-5.448zm153.63 0c6.942-.016 14.14 2.456 17.52 5.643 3.186 3.003 5.474 8.829 5.568 14.933.094 6.104-1.889 12.296-6.322 16.448-4.515 4.229-10.738 6.115-16.676 5.961-5.938-.154-11.425-2.41-14.38-5.75-3.072-3.47-5.301-9.462-5.608-15.565-.306-6.103 1.249-12.186 4.838-16.222 3.202-3.603 8.935-5.437 15.06-5.448zm-49.46 38.503c-.097.07-.217.16-.217.16l-.441.19c-.094.052-.192.1-.314.134l.314-.134c.215-.12.389-.268.658-.35zm-77.686 1.26a3.067 3.067 0 0 0-2.324 1.072 24.575 24.575 0 0 1-1.862 1.955c-6.204 5.809-14.708 8.38-22.803 8.17-8.094-.21-15.619-3.263-19.776-7.959-.41-.464-.816-.988-1.23-1.547a3.067 3.067 0 0 0-3.343-1.116c-2.952.874-5.336 1.775-7.137 3.681-2.489 2.634-3.793 6.485-4.905 11.19-1.113 4.704-1.818 10.232-2.067 15.815-.248 5.583-.04 11.205.777 16.117.817 4.911 2.086 9.16 4.86 12.096 1.72 1.82 4.504 2.64 7.272 3.553-.027.44-.07.954.046 1.471.296 1.339.717 2.068 1.924 5.538a3.067 3.067 0 0 0 .044.106c1.47 3.753 5.116 5.641 9.26 6.993 4.142 1.352 9.117 2.05 14.207 2.144 5.09.095 10.275-.418 14.82-1.704 4.543-1.287 8.595-3.287 10.947-6.86a3.067 3.067 0 0 0 .318-.633c1.353-3.695 2.174-5.598 2.595-6.468.068-.141.05-.099.098-.187 3.068-.963 5.932-1.963 7.854-3.893 2.952-2.967 4.414-7.265 5.282-12.126.868-4.862 1.045-10.363.739-15.845-.307-5.483-1.105-10.934-2.286-15.65-1.025-4.09-2.45-7.254-4.203-9.936v-.008a3.067 3.067 0 0 0-.632-1.509c-.001-.002-.008.002-.008 0-1.804-2.27-4.438-3.384-7.576-4.332a3.067 3.067 0 0 0-.89-.128zm153.714 0a3.067 3.067 0 0 0-2.324 1.072 24.597 24.597 0 0 1-1.865 1.955c-6.204 5.809-14.7 8.38-22.794 8.17-8.095-.21-15.627-3.263-19.784-7.959-.41-.464-.816-.988-1.23-1.547a3.067 3.067 0 0 0-3.342-1.116c-2.952.874-5.338 1.775-7.139 3.681-2.488 2.634-3.79 6.485-4.903 11.19-1.112 4.704-1.82 10.232-2.068 15.815s-.04 11.205.777 16.117c.816 4.911 2.086 9.16 4.859 12.096 1.72 1.82 4.51 2.64 7.275 3.553-.027.44-.07.954.045 1.471.297 1.339.716 2.068 1.923 5.538a3.067 3.067 0 0 0 .045.106c1.47 3.753 5.115 5.641 9.258 6.993 4.142 1.352 9.118 2.05 14.208 2.144 5.09.095 10.275-.418 14.819-1.704 4.543-1.287 8.595-3.287 10.948-6.86a3.067 3.067 0 0 0 .317-.633c1.354-3.695 2.174-5.598 2.595-6.468.07-.143.059-.098.106-.187 3.066-.962 5.928-1.964 7.848-3.893 2.953-2.967 4.414-7.265 5.282-12.126.868-4.862 1.046-10.363.739-15.845-.307-5.483-1.104-10.934-2.286-15.65-1.025-4.09-2.45-7.254-4.202-9.936v-.008a3.067 3.067 0 0 0-.635-1.509c-.001-.002-.008.002-.008 0-1.804-2.27-4.436-3.384-7.574-4.332a3.067 3.067 0 0 0-.885-.128zM66.232 117.57c1.23.567 2.745 1.207 2.964 1.479a3.067 3.067 0 0 0 .008.008c1.137 1.433 2.637 4.874 3.705 9.137 1.068 4.263 1.827 9.384 2.112 14.494.287 5.11.095 10.22-.656 14.428-.752 4.207-2.16 7.432-3.592 8.871-.825.83-3.226 2.083-6.534 2.997a3.067 3.067 0 0 0-.747.325s-.336.222-.453.324a3.21 3.21 0 0 0-.285.287c-.16.177-.274.33-.385.498-.223.333-.437.718-.725 1.313-.529 1.092-1.396 3.215-2.595 6.442-1.064 1.564-3.685 3.233-7.409 4.287-3.765 1.065-8.456 1.564-13.038 1.479-4.582-.085-9.082-.76-12.421-1.849-3.334-1.088-5.174-2.702-5.446-3.388l-.008-.008c-1.148-3.297-1.64-4.64-1.645-4.617.038-.298.122-.927.174-1.895a3.067 3.067 0 0 0-2.28-3.13c-3.57-.937-6.109-2.282-6.79-3.002-1.167-1.236-2.54-4.566-3.26-8.89-.719-4.325-.935-9.603-.702-14.841.233-5.238.912-10.455 1.91-14.675.998-4.22 2.53-7.47 3.394-8.383.155-.164 1.603-.736 2.641-1.208a.236.236 0 0 1 .023.03c5.65 6.383 14.71 9.782 24.204 10.028 9.492.246 19.575-2.727 27.148-9.818.249-.233.45-.485.687-.723zm153.714 0c1.236.57 2.766 1.217 2.98 1.487 1.137 1.433 2.627 4.874 3.695 9.137 1.068 4.263 1.829 9.384 2.114 14.494.286 5.11.095 10.22-.656 14.428-.751 4.207-2.16 7.432-3.592 8.871-.825.83-3.218 2.083-6.526 2.997a3.067 3.067 0 0 0-.755.323s-.336.224-.453.326a4.07 4.07 0 0 0-.673.785c-.222.333-.434.718-.722 1.313-.529 1.092-1.398 3.215-2.598 6.442-1.063 1.564-3.684 3.232-7.408 4.287-3.765 1.065-8.456 1.564-13.038 1.479-4.582-.085-9.08-.76-12.42-1.849-3.333-1.088-5.175-2.702-5.448-3.388a.104.104 0 0 0-.008-.008c-1.148-3.297-1.64-4.64-1.645-4.617.038-.298.122-.927.174-1.895a3.067 3.067 0 0 0-2.278-3.13c-3.57-.937-6.11-2.282-6.791-3.002-1.167-1.236-2.541-4.566-3.26-8.89-.72-4.325-.934-9.603-.701-14.841.233-5.238.91-10.455 1.908-14.675.998-4.22 2.533-7.47 3.396-8.383.156-.164 1.603-.736 2.641-1.208.008.008.016.019.023.03 5.65 6.383 14.713 9.782 24.206 10.028 9.493.246 19.576-2.725 27.149-9.816.248-.233.45-.487.686-.725zm-104.512 13.234c-7.304.015-14.794 2.073-19.632 7.516-4.988 5.61-6.75 13.278-6.382 20.598.367 7.32 2.806 14.43 7.137 19.323 4.447 5.025 11.48 7.628 18.817 7.818 7.337.19 15.146-2.104 21.03-7.614 5.965-5.587 8.376-13.528 8.26-21.02-.115-7.492-2.646-14.725-7.5-19.3-5.16-4.866-13.451-7.338-21.73-7.321zm.008 6.134c6.941-.015 14.14 2.457 17.52 5.644 3.186 3.003 5.476 8.829 5.57 14.933.094 6.104-1.89 12.303-6.324 16.456-4.516 4.228-10.736 6.115-16.674 5.961-5.938-.154-11.427-2.419-14.382-5.758-3.072-3.47-5.3-9.462-5.606-15.565-.306-6.103 1.255-12.178 4.844-16.215 3.202-3.602 8.927-5.444 15.052-5.456zM66.85 174.416l-.22.158-.426.183c-.098.056-.2.107-.328.142l.328-.142c.209-.119.382-.262.646-.341zm153.714 0c-.096.067-.22.158-.22.158l-.429.185c-.096.055-.199.105-.325.14l.325-.14c.21-.119.384-.264.649-.343zm-78.639 2.286a3.067 3.067 0 0 0-2.323 1.072 24.68 24.68 0 0 1-1.863 1.962c-6.204 5.81-14.708 8.373-22.802 8.163-8.095-.21-15.62-3.263-19.776-7.96-.41-.463-.825-.979-1.238-1.538a3.067 3.067 0 0 0-3.336-1.124c-2.952.873-5.336 1.783-7.137 3.69-2.489 2.633-3.792 6.484-4.905 11.189-1.113 4.704-1.818 10.224-2.066 15.807-.249 5.583-.04 11.213.776 16.124.817 4.912 2.086 9.153 4.86 12.088 1.72 1.821 4.505 2.64 7.272 3.554-.026.44-.069.953.046 1.471.297 1.339.718 2.068 1.924 5.538a3.067 3.067 0 0 0 .046.114c1.47 3.752 5.115 5.633 9.257 6.985 4.143 1.352 9.118 2.058 14.208 2.152 5.09.094 10.276-.426 14.82-1.713 4.543-1.286 8.595-3.286 10.947-6.86a3.067 3.067 0 0 0 .318-.632c1.354-3.695 2.174-5.596 2.595-6.466.069-.142.05-.101.098-.19 3.069-.962 5.934-1.962 7.856-3.893 2.953-2.966 4.412-7.264 5.28-12.126.868-4.861 1.048-10.362.74-15.845-.306-5.482-1.106-10.934-2.287-15.65-1.025-4.09-2.45-7.253-4.202-9.935v-.008a3.067 3.067 0 0 0-.633-1.51c-.001-.001-.008.003-.008 0-1.804-2.27-4.439-3.382-7.576-4.33a3.067 3.067 0 0 0-.89-.13zm.687 6.783c1.23.568 2.748 1.208 2.967 1.48a3.067 3.067 0 0 0 .008.008c1.137 1.433 2.637 4.874 3.705 9.137 1.068 4.263 1.826 9.383 2.112 14.494.286 5.11.097 10.22-.655 14.427-.75 4.208-2.159 7.433-3.591 8.872-.825.83-3.227 2.09-6.534 3.005a3.067 3.067 0 0 0-.749.315s-.334.232-.451.334a3.273 3.273 0 0 0-.288.28c-.159.175-.274.33-.385.496-.222.334-.436.719-.725 1.314-.528 1.09-1.397 3.22-2.595 6.442-1.063 1.564-3.685 3.232-7.408 4.286-3.765 1.066-8.456 1.565-13.039 1.48-4.582-.085-9.08-.76-12.419-1.849-3.334-1.088-5.176-2.703-5.448-3.388l-.008-.008c-1.148-3.297-1.64-4.64-1.645-4.617.038-.299.122-.92.174-1.887a3.067 3.067 0 0 0-2.28-3.13c-3.57-.937-6.108-2.29-6.79-3.01-1.166-1.236-2.54-4.566-3.26-8.89-.718-4.325-.933-9.595-.7-14.833.233-5.239.91-10.456 1.909-14.676.998-4.22 2.532-7.477 3.395-8.39.155-.164 1.603-.728 2.64-1.2a.236.236 0 0 1 .022.03c5.65 6.382 14.713 9.774 24.206 10.02 9.493.245 19.574-2.725 27.147-9.816.248-.233.45-.487.686-.725zm.62 56.847c-.099.069-.219.157-.219.157l-.435.188a1.365 1.365 0 0 1-.32.137l.32-.137c.213-.12.386-.265.653-.346z" style="line-height:normal;font-variant-ligatures:normal;font-variant-position:normal;font-variant-caps:normal;font-variant-numeric:normal;font-variant-alternates:normal;font-feature-settings:normal;text-indent:0;text-align:start;text-decoration-line:none;text-decoration-style:solid;text-decoration-color:#000;text-transform:none;text-orientation:mixed;shape-padding:0;isolation:auto;mix-blend-mode:normal" color="#000" font-weight="400" font-family="sans-serif" white-space="normal" overflow="visible" fill="#c7dceb" fill-rule="evenodd"/>
</svg>
