<?xml version="1.0" encoding="UTF-8" standalone="no"?>
<svg xmlns="http://www.w3.org/2000/svg" width="166.215" height="256" viewBox="0 0 166 256">
  <path d="M79.548 0C64.664.028 49.726 4.211 40.34 14.612c-9.839 10.902-13.493 26.13-12.744 40.83.748 14.701 5.841 29.01 14.358 38.49 8.634 9.61 22.73 14.887 37.556 15.265 14.827.379 30.543-4.21 42.305-15.06 11.842-10.927 16.754-26.642 16.52-41.61-.236-14.97-5.5-29.382-14.898-38.109C113.448 5.142 96.416-.03 79.547 0zm.007 6.072c15.564-.028 31.533 5.175 39.747 12.802 7.734 7.182 12.747 20.177 12.96 33.75.212 13.571-4.253 27.529-14.569 37.047-10.397 9.592-24.566 13.79-38.027 13.446-13.461-.343-26.055-5.298-33.195-13.245-7.257-8.077-12.115-21.266-12.801-34.742-.687-13.476 2.74-27.1 11.179-36.45 7.748-8.586 20.974-12.582 34.706-12.608zm56.624 90.276a3.04 3.04 0 0 0-2.287 1.041 55.546 55.546 0 0 1-4.24 4.38c-13.996 12.911-33.014 18.538-51.07 18.077-18.056-.46-34.987-7.07-44.689-17.867a50.878 50.878 0 0 1-2.82-3.468 3.04 3.04 0 0 0-3.282-1.1c-6.021 1.755-10.704 3.707-13.67 6.798-4.384 4.57-7.287 12.33-9.594 21.941C2.22 135.76.724 147.193.203 158.724c-.52 11.53-.063 23.146 1.623 33.136 1.686 9.989 4.445 18.402 9.446 23.616 3.526 3.676 9.399 6.088 16.495 8.122-.038.319-.077.896-.11 1.166-.1.796-.155 1.838.073 2.849.455 2.023 1.412 3.91 4.002 11.248a3.04 3.04 0 0 0 .038.111c2.461 6.19 9.207 9.98 17.572 12.67 8.365 2.688 18.687 4.144 29.24 4.336 10.553.193 21.323-.887 30.557-3.462 9.234-2.575 17.075-6.586 21.35-12.982a3.04 3.04 0 0 0 .322-.63c2.907-7.816 4.682-11.874 5.667-13.877.357-.727.495-.935.645-1.183 7.222-2.067 13.186-4.567 16.966-8.308 5.432-5.376 8.514-13.814 10.299-23.66 1.784-9.847 2.181-21.188 1.54-32.493-.643-11.305-2.324-22.56-4.78-32.21-2.342-9.21-5.344-16.764-9.182-21.887a3.04 3.04 0 0 0-.495-.883h-.008c-3.012-3.736-8.045-6.04-14.412-7.934a3.04 3.04 0 0 0-.866-.12zm.659 6.732c4.625 1.613 8.555 3.485 9.885 5.13a3.04 3.04 0 0 0 .008.006c3.03 3.763 6.187 11.257 8.526 20.453 2.34 9.196 3.977 20.127 4.598 31.058.621 10.931.215 21.874-1.45 31.064-1.665 9.19-4.68 16.55-8.593 20.423-2.572 2.545-8.13 5.181-15.465 7.179a3.04 3.04 0 0 0-.74.314s-.333.216-.455.32a3.562 3.562 0 0 0-.315.308 5.56 5.56 0 0 0-.508.658c-.338.5-.74 1.188-1.31 2.349-1.1 2.236-2.925 6.542-5.683 13.91-2.983 4.373-9.428 8.065-17.835 10.41-8.47 2.361-18.75 3.427-28.806 3.244-10.058-.183-19.912-1.616-27.49-4.052-7.57-2.434-12.536-6.004-13.782-9.124-.001-.002-.008-.004-.008-.008-2.564-7.254-3.624-9.863-3.753-10.439-.066-.29-.062-.097.022-.763.084-.667.258-1.876.367-3.859a3.04 3.04 0 0 0-2.274-3.11c-7.9-2.042-13.754-4.823-16.116-7.285-3.395-3.54-6.257-11.024-7.843-20.423-1.586-9.4-2.046-20.658-1.541-31.842.505-11.184 1.975-22.306 4.165-31.43 2.19-9.124 5.31-16.277 8.069-19.153 1.202-1.253 5.003-2.896 9.26-4.359.535.661 1.037 1.35 1.606 1.983 11.196 12.459 29.629 19.387 49.05 19.883 19.42.495 39.993-5.513 55.353-19.682 1.098-1.013 2.063-2.095 3.06-3.163z" style="shape-padding:0;isolation:auto;mix-blend-mode:normal" color="#000" font-weight="400" font-family="sans-serif" white-space="normal" overflow="visible" fill="#c7dceb" fill-rule="evenodd"/>
</svg>
