<?xml version="1.0" encoding="UTF-8" standalone="no"?>
<svg xmlns="http://www.w3.org/2000/svg" width="256" height="256" viewBox="0 0 256 256">
  <path d="M128 0C105.126 0 80.706-.276 59.566 9.42S19.115 38.425 9.42 59.565C-.277 80.705 0 105.125 0 128.001c0 22.875-.278 47.295 9.418 68.435s29.006 40.451 50.146 50.147c21.14 9.696 45.56 9.416 68.436 9.416 22.875 0 47.295.28 68.435-9.416s40.45-29.007 50.147-50.147c9.696-21.14 9.418-45.56 9.418-68.435 0-22.876.278-47.296-9.418-68.436-9.696-21.14-29.007-40.45-50.147-50.146C175.296-.277 150.876 0 128.001 0zM128 6.863c21.153 0 44.163-.347 64.453 8.96 20.225 9.275 38.452 27.5 47.728 47.726 9.306 20.29 8.96 43.301 8.96 64.455 0 21.153.346 44.165-8.96 64.455-9.276 20.225-27.503 38.446-47.728 47.723-20.29 9.305-43.3 8.957-64.453 8.957-21.154 0-44.166.348-64.455-8.957-20.225-9.277-38.447-27.498-47.723-47.723-9.306-20.29-8.957-43.302-8.957-64.455 0-21.154-.349-44.166 8.957-64.455 9.276-20.225 27.498-38.45 47.723-47.727 20.29-9.306 43.301-8.959 64.455-8.959zm0 5.307c-21.197 0-43.395-.166-62.242 8.478-18.912 8.674-36.44 26.202-45.114 45.114C12 84.608 12.17 106.806 12.17 128.003c0 21.197-.17 43.395 8.474 62.242 8.674 18.912 26.202 36.44 45.114 45.113 18.847 8.645 41.045 8.473 62.242 8.473 21.197 0 43.395.171 62.242-8.473 18.912-8.674 36.443-26.201 45.117-45.113 8.645-18.847 8.475-41.045 8.475-62.242 0-21.197.17-43.395-8.475-62.242-8.674-18.912-26.205-36.44-45.117-45.114-18.847-8.644-41.045-8.478-62.242-8.478zm-1.81 3.394c7.271-.015 14.555 2.156 19.09 6.43 4.263 4.02 6.486 10.372 6.587 16.953.102 6.581-2.016 13.56-7.256 18.467-5.168 4.84-12.03 6.853-18.474 6.686-6.445-.168-12.623-2.454-16.53-6.868-3.804-4.298-5.947-10.542-6.27-16.972-.322-6.43 1.227-13.165 5.608-18.094 4.25-4.781 10.828-6.59 17.244-6.602zm.007 5.387c-5.38.011-10.41 1.629-13.222 4.793-3.153 3.546-4.523 8.883-4.254 14.244.269 5.361 2.225 10.623 4.924 13.672 2.595 2.933 7.418 4.924 12.634 5.059 5.217.135 10.68-1.522 14.647-5.237 3.894-3.647 5.637-9.095 5.554-14.457-.082-5.361-2.094-10.477-4.892-13.115-2.97-2.8-9.293-4.97-15.39-4.959zm23.264 34.93a2.694 2.694 0 0 1 .781.113c2.757.833 5.072 1.809 6.656 3.803 0 .002.008-.002.008 0a2.694 2.694 0 0 1 .555 1.326v.008c1.54 2.355 2.791 5.135 3.692 8.728 1.037 4.142 1.74 8.93 2.01 13.746.269 4.816.111 9.648-.651 13.918-.763 4.27-2.045 8.047-4.639 10.653-1.688 1.695-4.205 2.574-6.9 3.42-.042.078-.027.041-.086.165-.37.765-1.09 2.434-2.28 5.68a2.694 2.694 0 0 1-.279.557c-2.066 3.138-5.625 4.895-9.617 6.025-3.991 1.13-8.546 1.587-13.017 1.504-4.471-.083-8.842-.701-12.48-1.889-3.64-1.187-6.84-2.84-8.132-6.136a2.694 2.694 0 0 1-.04-.1c-1.06-3.048-1.43-3.69-1.69-4.865-.1-.455-.064-.907-.041-1.293-2.432-.802-4.878-1.522-6.39-3.121-2.435-2.578-3.55-6.305-4.267-10.62-.716-4.314-.9-9.26-.681-14.163.218-4.904.837-9.752 1.814-13.885.977-4.133 2.123-7.515 4.309-9.828 1.582-1.674 3.676-2.475 6.27-3.242a2.694 2.694 0 0 1 2.929.988c.363.491.727.944 1.088 1.352 3.651 4.125 10.26 6.808 17.37 6.992 7.111.184 14.58-2.067 20.03-7.17a21.716 21.716 0 0 0 1.637-1.725 2.694 2.694 0 0 1 2.04-.941zm.603 5.959v.002c-.207.21-.385.43-.603.635-6.652 6.228-15.507 8.839-23.846 8.623-8.338-.216-16.3-3.197-21.263-8.803-.008-.012-.012-.02-.02-.027-.91.415-2.182.91-2.318 1.053-.758.802-2.106 3.664-2.982 7.371-.877 3.707-1.471 8.29-1.676 12.89-.205 4.602-.015 9.231.615 13.03.632 3.799 1.839 6.724 2.864 7.809.598.633 2.828 1.821 5.964 2.644a2.694 2.694 0 0 1 2.002 2.75c-.045.85-.118 1.396-.152 1.658.004-.018.437 1.158 1.445 4.055l.008.008c.24.602 1.857 2.021 4.786 2.977 2.933.957 6.885 1.548 10.91 1.623 4.025.074 8.146-.363 11.453-1.3 3.27-.925 5.573-2.391 6.508-3.765 1.052-2.83 1.815-4.7 2.279-5.658.253-.523.441-.861.637-1.154a3.65 3.65 0 0 1 .338-.436 3.04 3.04 0 0 1 .254-.246 7.45 7.45 0 0 1 .394-.293 2.694 2.694 0 0 1 .658-.277c2.906-.804 5.015-1.909 5.74-2.637 1.259-1.264 2.495-4.1 3.155-7.795.66-3.696.827-8.185.576-12.674-.251-4.489-.917-8.988-1.856-12.732-.938-3.745-2.257-6.767-3.255-8.026a2.694 2.694 0 0 1-.008-.007c-.193-.239-1.525-.8-2.606-1.3zM59.096 72.563c7.272-.015 14.554 2.156 19.088 6.43 4.264 4.02 6.486 10.372 6.588 16.953.102 6.582-2.016 13.558-7.256 18.465-5.168 4.84-12.028 6.855-18.473 6.688-6.444-.168-12.624-2.46-16.53-6.873-3.805-4.298-5.948-10.545-6.27-16.975-.323-6.43 1.226-13.165 5.607-18.094 4.25-4.78 10.83-6.582 17.246-6.594zm134.944 0c7.272-.015 14.561 2.156 19.095 6.43 4.264 4.02 6.487 10.372 6.588 16.953.102 6.582-2.024 13.558-7.263 18.465-5.169 4.84-12.023 6.855-18.467 6.688-6.445-.168-12.623-2.46-16.53-6.873-3.804-4.298-5.946-10.545-6.27-16.975-.322-6.43 1.227-13.165 5.608-18.094 4.25-4.78 10.823-6.582 17.239-6.594zM59.102 77.95c-5.38.011-10.41 1.623-13.223 4.787-3.152 3.546-4.525 8.89-4.255 14.25.269 5.361 2.227 10.623 4.925 13.672 2.596 2.933 7.417 4.916 12.633 5.05 5.216.136 10.68-1.521 14.647-5.235 3.894-3.648 5.637-9.086 5.554-14.448-.082-5.362-2.092-10.479-4.89-13.117-2.97-2.8-9.294-4.97-15.39-4.959zm134.951 0c-5.38.011-10.415 1.623-13.228 4.787-3.153 3.546-4.52 8.89-4.25 14.25.269 5.361 2.227 10.623 4.926 13.672 2.595 2.933 7.414 4.916 12.63 5.05 5.217.136 10.683-1.521 14.649-5.235 3.894-3.648 5.637-9.086 5.555-14.448-.083-5.362-2.093-10.479-4.891-13.117-2.97-2.8-9.293-4.97-15.39-4.959zm-43.447 33.822c-.237.072-.39.201-.578.307l.389-.166s.103-.08.189-.14zm-68.24 1.108a2.694 2.694 0 0 1 .783.11c2.756.834 5.07 1.813 6.654 3.808 0 .002.008-.002.008 0a2.694 2.694 0 0 1 .555 1.324v.008c1.54 2.355 2.79 5.135 3.69 8.728 1.039 4.142 1.74 8.93 2.009 13.746.27 4.816.114 9.648-.649 13.918-.762 4.27-2.046 8.047-4.64 10.653-1.688 1.696-4.203 2.574-6.899 3.42-.041.077-.026.04-.086.164-.37.764-1.09 2.435-2.279 5.681a2.694 2.694 0 0 1-.28.557c-2.065 3.138-5.625 4.895-9.616 6.025-3.992 1.13-8.547 1.581-13.018 1.498-4.471-.083-8.841-.697-12.48-1.885-3.64-1.187-6.842-2.846-8.133-6.142a2.694 2.694 0 0 1-.04-.092c-1.059-3.048-1.428-3.69-1.689-4.865-.1-.455-.063-.907-.04-1.293-2.432-.802-4.878-1.522-6.39-3.121-2.435-2.578-3.55-6.31-4.267-10.625-.716-4.315-.9-9.252-.682-14.156.218-4.905.838-9.76 1.815-13.893.977-4.133 2.122-7.517 4.308-9.83 1.582-1.674 3.677-2.465 6.27-3.233a2.694 2.694 0 0 1 2.937.979c.364.491.72.952 1.08 1.36 3.652 4.124 10.261 6.807 17.372 6.992 7.11.184 14.58-2.075 20.029-7.178a21.61 21.61 0 0 0 1.637-1.717 2.694 2.694 0 0 1 2.04-.941zm135.025 0h.004a2.694 2.694 0 0 1 .777.11c2.757.834 5.068 1.813 6.653 3.808 0 .002.008-.002.008 0a2.694 2.694 0 0 1 .556 1.324v.008c1.54 2.355 2.791 5.135 3.692 8.728 1.038 4.142 1.738 8.93 2.008 13.746.27 4.816.113 9.648-.649 13.918s-2.044 8.047-4.638 10.653c-1.687 1.694-4.202 2.575-6.895 3.42-.041.078-.03.038-.092.164-.37.764-1.092 2.435-2.281 5.681a2.694 2.694 0 0 1-.277.557c-2.067 3.138-5.626 4.895-9.618 6.025-3.991 1.13-8.546 1.581-13.017 1.498-4.471-.083-8.842-.697-12.48-1.885-3.64-1.187-6.842-2.846-8.133-6.142a2.694 2.694 0 0 1-.04-.092c-1.06-3.048-1.428-3.69-1.689-4.865-.1-.455-.061-.907-.039-1.293-2.429-.802-4.88-1.523-6.39-3.121-2.436-2.578-3.55-6.31-4.268-10.625-.716-4.315-.902-9.252-.684-14.156.219-4.905.84-9.76 1.817-13.893.977-4.133 2.122-7.517 4.308-9.83 1.582-1.674 3.677-2.465 6.27-3.233a2.694 2.694 0 0 1 2.936.979c.363.491.72.952 1.08 1.36 3.651 4.124 10.268 6.807 17.379 6.992 7.11.184 14.573-2.075 20.023-7.178a21.62 21.62 0 0 0 1.639-1.717 2.694 2.694 0 0 1 2.04-.941zm-134.424 5.959c-.208.21-.385.43-.603.635-6.652 6.228-15.51 8.84-23.848 8.625-8.338-.216-16.299-3.203-21.262-8.81-.007-.01-.01-.018-.018-.026-.912.415-2.184.917-2.32 1.06-.759.803-2.105 3.66-2.981 7.366-.877 3.707-1.475 8.29-1.68 12.89-.204 4.602-.015 9.237.617 13.036.632 3.799 1.84 6.726 2.865 7.81.599.634 2.827 1.814 5.963 2.637a2.694 2.694 0 0 1 2.002 2.75c-.045.85-.118 1.402-.152 1.664.004-.019.437 1.16 1.445 4.057l.008.008c.24.602 1.855 2.019 4.783 2.975 2.933.957 6.887 1.55 10.912 1.625 4.025.074 8.146-.365 11.453-1.301 3.271-.926 5.574-2.39 6.508-3.764 1.054-2.835 1.815-4.701 2.28-5.66a9.44 9.44 0 0 1 .636-1.154 3.648 3.648 0 0 1 .59-.69 5.65 5.65 0 0 1 .397-.283 2.694 2.694 0 0 1 .656-.285c2.905-.804 5.015-1.905 5.74-2.633 1.259-1.264 2.495-4.097 3.155-7.793.66-3.696.829-8.185.578-12.674-.252-4.489-.918-8.986-1.856-12.73-.938-3.745-2.257-6.77-3.256-8.028a2.694 2.694 0 0 1-.007-.008c-.193-.238-1.523-.8-2.604-1.299zm135.026 0c-.208.21-.385.432-.604.637-6.652 6.228-15.509 8.838-23.847 8.623-8.339-.216-16.301-3.203-21.264-8.81-.008-.01-.011-.018-.019-.026-.912.415-2.184.917-2.32 1.06-.758.803-2.106 3.657-2.983 7.364-.876 3.707-1.473 8.292-1.677 12.893-.205 4.601-.016 9.236.615 13.035.631 3.799 1.84 6.724 2.865 7.809.598.633 2.828 1.815 5.965 2.638a2.694 2.694 0 0 1 2.002 2.75c-.046.85-.12 1.402-.154 1.664.004-.019.436 1.158 1.445 4.055l.008.008c.24.602 1.857 2.02 4.785 2.976 2.933.958 6.885 1.549 10.91 1.624 4.025.074 8.146-.363 11.453-1.3 3.271-.925 5.574-2.392 6.508-3.765 1.054-2.835 1.817-4.7 2.281-5.658.253-.523.44-.862.635-1.154a3.646 3.646 0 0 1 .592-.69c.103-.09.398-.285.398-.285a2.694 2.694 0 0 1 .663-.286c2.905-.803 5.007-1.902 5.732-2.63 1.258-1.265 2.494-4.098 3.154-7.794.66-3.695.83-8.184.578-12.673-.25-4.49-.919-8.988-1.857-12.733-.938-3.744-2.247-6.767-3.246-8.025-.188-.237-1.531-.806-2.617-1.307zm-91.803 11.625c7.272-.015 14.554 2.156 19.088 6.43 4.263 4.019 6.486 10.373 6.588 16.955.101 6.58-2.016 13.555-7.256 18.462-5.168 4.84-12.028 6.857-18.473 6.69-6.445-.167-12.622-2.453-16.53-6.867-3.803-4.298-5.946-10.545-6.269-16.975-.322-6.43 1.224-13.165 5.606-18.094 4.25-4.78 10.83-6.59 17.246-6.601zm.008 5.388c-5.38.012-10.41 1.63-13.223 4.793-3.152 3.546-4.525 8.882-4.256 14.243.27 5.36 2.228 10.625 4.926 13.673 2.596 2.933 7.417 4.922 12.633 5.057 5.216.135 10.68-1.522 14.647-5.236 3.894-3.648 5.637-9.093 5.554-14.455-.083-5.362-2.094-10.48-4.892-13.118-2.97-2.8-9.292-4.968-15.389-4.957zm-42.686 32.92c-.232.07-.384.197-.568.301l.377-.162s.108-.08.191-.139zm135.026 0c-.233.07-.386.199-.57.303l.376-.164.194-.139zm-69.078 2.008a2.694 2.694 0 0 1 .781.115c2.756.833 5.071 1.809 6.656 3.803 0 .002.008-.002.008 0a2.694 2.694 0 0 1 .555 1.326v.008c1.54 2.356 2.79 5.133 3.691 8.727 1.038 4.142 1.74 8.932 2.01 13.748.27 4.816.112 9.648-.65 13.918-.763 4.27-2.045 8.046-4.639 10.652-1.688 1.696-4.205 2.573-6.9 3.418-.042.078-.027.044-.086.168-.37.764-1.09 2.434-2.28 5.68a2.694 2.694 0 0 1-.279.554c-2.066 3.139-5.626 4.896-9.617 6.026-3.991 1.13-8.546 1.588-13.018 1.506-4.47-.083-8.841-.704-12.48-1.89-3.639-1.189-6.84-2.842-8.13-6.138a2.694 2.694 0 0 1-.042-.1c-1.06-3.048-1.43-3.687-1.69-4.863-.1-.455-.063-.907-.04-1.293-2.432-.802-4.878-1.522-6.39-3.12-2.436-2.58-3.55-6.306-4.268-10.62-.716-4.315-.9-9.26-.682-14.164.219-4.905.838-9.753 1.815-13.885.977-4.133 2.122-7.517 4.309-9.83 1.581-1.674 3.676-2.473 6.27-3.24a2.694 2.694 0 0 1 2.929.988c.363.491.727.944 1.088 1.351 3.651 4.125 10.26 6.808 17.37 6.992 7.111.184 14.582-2.068 20.032-7.171a21.633 21.633 0 0 0 1.635-1.723 2.694 2.694 0 0 1 2.04-.943zm.603 5.96v.001c-.208.21-.385.432-.603.637-6.652 6.229-15.507 8.837-23.846 8.62-8.339-.215-16.3-3.194-21.264-8.8-.008-.011-.011-.019-.019-.026-.91.414-2.182.908-2.318 1.052-.758.803-2.108 3.665-2.984 7.372-.877 3.707-1.471 8.289-1.676 12.89-.205 4.601-.015 9.23.615 13.03.632 3.798 1.838 6.723 2.863 7.808.599.633 2.829 1.822 5.965 2.645a2.694 2.694 0 0 1 2.002 2.75c-.045.85-.118 1.396-.152 1.658.004-.02.437 1.158 1.445 4.054l.008.008c.24.602 1.857 2.021 4.785 2.977 2.933.957 6.885 1.549 10.91 1.623 4.025.075 8.146-.362 11.454-1.299 3.27-.926 5.573-2.392 6.507-3.765 1.053-2.83 1.816-4.7 2.28-5.659.253-.522.441-.861.636-1.154.098-.147.199-.28.338-.435.07-.078.152-.157.254-.247.103-.089.397-.292.397-.292a2.694 2.694 0 0 1 .656-.278c2.906-.803 5.015-1.91 5.74-2.639 1.259-1.264 2.495-4.099 3.155-7.794.66-3.696.827-8.183.576-12.672-.252-4.49-.917-8.988-1.856-12.733-.938-3.744-2.257-6.766-3.256-8.025a2.694 2.694 0 0 1-.008-.008c-.192-.239-1.524-.802-2.605-1.3zm.545 49.935c-.234.07-.387.197-.574.302l.383-.164s.105-.078.191-.138z" fill="#c7dceb" fill-rule="evenodd"/>
</svg>
