<?xml version="1.0" encoding="UTF-8" standalone="no"?>
<svg xmlns="http://www.w3.org/2000/svg" width="256" height="189.306"  viewBox="0 0 256 190">
  <path d="M123.495 0L96.046.24l13.45 18.082 5.56 7.087v163.897h16.876V25.41l5.562-7.088L150.944.24zM50.521 30.025V46.9h52.263V30.025zm94.165 4.667l-.742 77.306.742 77.308 56.028-37.88L256 111.998l-55.286-39.426zM26.131 53.759v16.876h76.653V53.759zm26.133 23.735V94.37h50.52V77.494zM0 101.228v16.876h102.784v-16.876zm34.842 23.734v16.875h67.942v-16.875zM15.68 148.697v16.874h87.104v-16.874zm19.162 23.734v16.875h67.942v-16.875z" fill="#c7dceb" fill-rule="evenodd"/>
</svg>
