<?xml version="1.0" encoding="UTF-8" standalone="no"?>
<svg xmlns="http://www.w3.org/2000/svg" width="256" height="256" viewBox="0 0 256 256">
  <path d="M127.931 0c-6.022 0-12.05.214-15.265.644C100.04 2.332 88.6 5.43 77.445 10.178 40.696 25.818 13.115 58.282 3.59 97.105.668 109.02-.199 117.109.037 130.298c.173 9.699.511 13.401 1.908 20.882 9.79 52.432 50.805 93.23 103.262 102.717 4.718.854 12.7 1.775 16.91 1.953 5.314.224 7.566.205 12.764-.11 12.319-.744 23.194-2.847 34.333-6.64 14.274-4.861 27.035-11.867 39.11-21.473 5.109-4.064 15.376-14.326 19.453-19.443 15.216-19.095 24.497-41.26 27.47-65.603 1.065-8.732.993-21.697-.17-30.722-4.26-33.025-20.985-62.978-46.752-83.723C189.66 13.109 168.082 4.006 143.17.648c-3.198-.43-9.216-.647-15.239-.648zm-2.167 6.344l.085 31.733.06 23.499a12.947 12.942 0 0 0-8.731 8.041c-8.98-.434-20.607-1.794-30.707-3.646-4.007-.735-14.22-2.9-15.637-3.315-.494-.145-.432-.615.602-4.539C75.11 44.171 79.88 30.09 85.299 17.204l1.566-3.721 3.674-1.188c10.318-3.334 22.096-5.46 32.405-5.846zm8.124.097l2.734.22c10.536.852 22.395 3.274 30.366 6.202l2.1.771 1.327 3.15c3.86 9.159 7.885 20.23 10.562 29.05a325.74 325.74 0 0 1 2.383 8.342 12.947 12.942 0 0 0-6.572 10.878c-3.3.677-6.813 1.362-9.247 1.767-6.813 1.132-15.355 2.14-22.444 2.645-1.106.079-2.382.143-3.611.202a12.947 12.942 0 0 0-7.598-7.702v-23.84zm44.259 10.343c.05 0 2.83 1.503 6.18 3.34 9.953 5.454 17.086 10.462 25.177 17.68 3.796 3.388 11.981 12.073 12.18 12.924.141.61-11.48 5.057-20.883 8.046a12.947 12.942 0 0 0-9.816-6.219c-2.478-8.362-5.835-17.981-9.501-27.177-1.885-4.727-3.386-8.594-3.337-8.594zm-100.702.476c.086.087-1.14 3.387-2.725 7.333-4.714 11.737-8.325 22.271-11.008 32.127-.496 1.823-.987 3.414-1.09 3.533-.241.278-8.962-2.353-17.1-5.158-8.395-2.893-11.272-4.022-11.272-4.423 0-.184 1.747-2.266 3.882-4.628 6.434-7.118 14.331-13.873 22.779-19.48 4.3-2.855 16.255-9.582 16.534-9.304zm147.787 37.97c.29 0 4.771 6.664 7.24 10.767 6.159 10.24 10.981 22.129 13.784 33.977 1.618 6.84 2.482 12.799 3.181 21.956l.196 2.57H201.86v-3.786c0-11.611-2.023-29.164-5.041-44.467a12.947 12.942 0 0 0 5.845-10.813 12.947 12.942 0 0 0-.077-1.288c6.032-2.093 13.18-4.856 18.6-7.216 2.15-.936 3.971-1.7 4.046-1.7zm-194.35.117c5.481 2.357 17.022 6.722 22.669 8.573 5.855 1.919 7.366 2.533 7.378 2.996.007.32-.43 2.572-.972 5.003-3.145 14.132-5.242 30.5-5.819 45.256a12.947 12.942 0 0 0-8.965 7.325H6.562v-1.74c0-2.316.55-8.174 1.188-12.677 2.54-17.94 9.902-36.48 20.55-51.746 1.21-1.735 2.372-3.08 2.583-2.99zm98.463 11.076a7.638 7.635 0 0 1 7.637 7.636 7.638 7.635 0 0 1-7.637 7.634 7.638 7.635 0 0 1-7.639-7.634 7.638 7.635 0 0 1 7.64-7.636zm-60.353 2.522c.11-.11 2.708.41 5.772 1.155 14.31 3.477 26.241 5.269 41.816 6.24a12.947 12.942 0 0 0 9.35 10.194v28.625a12.947 12.942 0 0 0-9.778 9.341H68.78a12.947 12.942 0 0 0-6.011-6.275c.495-12.094 1.427-22.17 3.011-32.503.963-6.276 2.915-16.48 3.212-16.777zm109.109 2.19a12.947 12.942 0 0 0 10.763 7.198c2.387 13.354 3.772 26.255 4.25 39.785l.226 6.382h-52.169a12.947 12.942 0 0 0-7.283-8.534V86.162a12.947 12.942 0 0 0 8.17-9.854c.222-.011.405-.026.616-.034 10.59-.513 23.028-2.328 35.427-5.136zM128 120.366a7.638 7.635 0 0 1 7.639 7.636 7.638 7.635 0 0 1-7.64 7.633 7.638 7.635 0 0 1-7.636-7.633 7.638 7.635 0 0 1 7.637-7.636zm-71.022 1.785a7.638 7.635 0 0 1 7.64 7.636 7.638 7.635 0 0 1-7.64 7.633 7.638 7.635 0 0 1-7.637-7.633 7.638 7.635 0 0 1 7.637-7.636zm192.395 10.299l-.232 3.896c-1.203 20.332-8.518 41.805-20.156 59.163l.002.002c-1.07 1.595-1.979 2.888-2.02 2.873-.04-.015-1.714-.771-3.72-1.684-5.894-2.681-14.69-6.13-21.161-8.298-3.316-1.11-6.137-2.113-6.27-2.229-.132-.115.342-3.189 1.055-6.83 2.823-14.419 4.402-28.378 5.08-44.899l.074-1.823 23.674-.085zm-219.084.084l14.066.053a12.947 12.942 0 0 0 9.987 9.866c.807 13.02 2.047 22.883 4.351 35.057a12.947 12.942 0 0 0-6.698 11.318 12.947 12.942 0 0 0 .016.45c-5.94 2.014-13.263 4.778-18.743 7.111-2.182.929-4.123 1.687-4.312 1.686-.65-.004-6.925-10.194-9.77-15.865-5.218-10.399-9.458-23.487-11.287-34.84-.831-5.162-1.687-14.334-1.37-14.67.131-.139 10.822-.213 23.76-.166zm39.31.087H116.652a12.947 12.942 0 0 0 9.143 7.783l.055 13.812.084 21.596-2.736.186c-1.506.102-4.679.272-7.05.377-9.28.416-21.301 1.978-31.997 4.16a395.112 395.112 0 0 0-8.055 1.748 12.947 12.942 0 0 0-9.065-6.21c-2.005-11.454-3.455-24.136-3.989-34.863a12.947 12.942 0 0 0 6.559-8.589zm71.06 0h52.414l-.093 4.143c-.267 11.993-1.869 26.857-4.409 40.932-.56 3.099-1.118 5.725-1.242 5.837-.124.111-1.866-.224-3.872-.743-12.602-3.264-30.082-5.932-42.11-6.427-2.554-.105-5.277-.267-6.054-.361l-1.412-.172.087-21.604.059-14.672a12.947 12.942 0 0 0 6.633-6.933zm-17.064 50.211h2.335v66.619l-.913-.049c-14.034-.732-25.645-2.866-37.219-6.84l-1.824-.626-1.927-4.942c-2.685-6.89-7.473-21.266-9.662-29.014a392.31 392.31 0 0 1-2.246-8.405 12.947 12.942 0 0 0 5.752-10.747 12.947 12.942 0 0 0-.012-.357c1.934-.425 4.046-.894 5.278-1.143 11.699-2.367 30.844-4.496 40.438-4.496zm10.293 0l2.569.004c9.238.011 25.984 1.923 37.88 4.323 11.012 2.221 11.788 2.432 11.665 3.16-.329 1.947-3.643 14.736-5.189 20.023-2.906 9.934-9.023 27.669-10.636 30.84-.41.805-3.27 1.871-11.587 4.316-4.033 1.185-14.903 3.068-19.895 3.446-1.46.11-3.138.277-3.73.37l-1.077.167v-33.324zm60.353 9.019l4.641 1.47c7.204 2.282 11.882 3.94 18.814 6.662 5.688 2.233 6.34 2.566 5.947 3.036-10.906 13.043-22.065 22.66-34.714 29.919-4.36 2.501-9.617 5.317-9.617 5.15 0-.076 1.284-3.554 2.854-7.728 4.622-12.286 8.678-25.13 11.725-37.136zm-140.694 3.095a12.947 12.942 0 0 0 10.723 6.79c2.36 8.457 5.42 17.76 9.14 27.715 1.712 4.586 3.116 8.426 3.116 8.534 0 .418-.67.09-6.047-2.951-11.69-6.614-18.673-11.752-27.233-20.042-3.413-3.306-11.36-12.191-11.105-12.417.201-.178 8.15-3.155 13.05-4.888 2.038-.72 5.271-1.768 8.356-2.741z" fill="#c7dceb" fill-rule="evenodd"/>
</svg>
