<?xml version="1.0" encoding="UTF-8" standalone="no"?>
<svg xmlns="http://www.w3.org/2000/svg" width="256" height="256" viewBox="0 0 256 256">
  <path d="M128 0C105.125 0 80.705-.276 59.565 9.42S19.115 38.425 9.419 59.565C-.277 80.705 0 105.125 0 128.001c0 22.875-.278 47.295 9.418 68.435s29.006 40.451 50.146 50.147c21.14 9.696 45.56 9.416 68.435 9.416s47.295.28 68.435-9.416 40.45-29.007 50.146-50.147c9.696-21.14 9.418-45.56 9.418-68.435 0-22.876.278-47.296-9.418-68.436-9.696-21.14-29.006-40.45-50.146-50.146C175.295-.277 150.875 0 128 0zm-.002 6.862c21.153 0 44.163-.347 64.453 8.96 20.225 9.275 38.452 27.5 47.728 47.726 9.306 20.29 8.959 43.301 8.959 64.455 0 21.153.347 44.165-8.96 64.455-9.275 20.225-27.502 38.446-47.727 47.723-20.29 9.305-43.3 8.957-64.453 8.957-21.153 0-44.165.348-64.455-8.957-20.225-9.277-38.446-27.498-47.722-47.723-9.306-20.29-8.957-43.302-8.957-64.455 0-21.154-.349-44.166 8.957-64.455 9.276-20.225 27.497-38.45 47.722-47.727 20.29-9.306 43.302-8.959 64.455-8.959zm0 5.307c-21.197 0-43.394-.166-62.242 8.478-18.911 8.674-36.439 26.202-45.113 45.114C12 84.608 12.17 106.806 12.17 128.003c0 21.197-.17 43.395 8.474 62.242 8.674 18.912 26.202 36.44 45.113 45.113 18.848 8.645 41.045 8.473 62.242 8.473 21.197 0 43.394.171 62.242-8.473 18.912-8.674 36.443-26.201 45.117-45.113 8.644-18.847 8.474-41.045 8.474-62.242 0-21.197.17-43.395-8.474-62.242-8.674-18.912-26.205-36.44-45.117-45.114-18.848-8.644-41.045-8.478-62.242-8.478zm-.051 15.824c4.704 0 9.403.17 11.9.506 19.456 2.623 36.308 9.736 50.885 21.477 20.123 16.208 33.187 39.61 36.513 65.414.91 7.05.966 17.18.133 24.003-2.321 19.02-9.57 36.337-21.453 51.256-3.184 3.998-11.204 12.017-15.193 15.192-9.432 7.505-19.397 12.979-30.545 16.777-8.699 2.964-17.192 4.606-26.812 5.188-4.06.245-5.818.26-9.97.085-3.286-.138-9.521-.858-13.206-1.525-40.967-7.413-72.998-39.288-80.644-80.254-1.09-5.845-1.357-8.739-1.492-16.316-.184-10.305.494-16.625 2.777-25.934 7.438-30.332 28.978-55.697 57.677-67.918 8.713-3.71 17.648-6.13 27.508-7.45 2.512-.335 7.218-.502 11.922-.501zm-1.693 4.955l-2.201.082c-8.052.303-17.25 1.963-25.309 4.569l-2.869.927-1.223 2.908c-4.232 10.07-7.958 21.07-10.828 31.965-.807 3.066-.854 3.434-.469 3.547 1.108.324 9.082 2.016 12.211 2.59 7.888 1.447 16.97 2.511 23.983 2.85a10.112 10.112 0 0 1 6.818-6.284l-.047-18.359zm6.345.076V76.407a10.112 10.112 0 0 1 5.934 6.017c.96-.046 1.956-.096 2.82-.158 5.537-.395 12.207-1.182 17.527-2.066 1.902-.316 4.646-.852 7.223-1.381a10.112 10.112 0 0 1 5.133-8.498 254.29 254.29 0 0 0-1.861-6.518c-2.09-6.89-5.234-15.54-8.248-22.697l-1.038-2.46-1.64-.604c-6.225-2.288-15.487-4.18-23.715-4.846zm34.565 8.082c-.039 0 1.135 3.022 2.607 6.715 2.863 7.184 5.484 14.699 7.42 21.232a10.112 10.112 0 0 1 7.666 4.86c7.343-2.335 16.419-5.812 16.308-6.287-.154-.665-6.547-7.45-9.511-10.096-6.32-5.64-11.89-9.555-19.662-13.817-2.617-1.434-4.79-2.607-4.828-2.607zm-78.646.371c-.218-.217-9.554 5.04-12.912 7.27-6.598 4.381-12.766 9.66-17.791 15.22-1.668 1.846-3.032 3.472-3.032 3.616 0 .313 2.247 1.194 8.803 3.455 6.356 2.191 13.168 4.248 13.356 4.031.08-.093.463-1.336.851-2.76 2.096-7.7 4.916-15.931 8.598-25.101 1.237-3.083 2.194-5.663 2.127-5.73zm115.419 29.666c-.059 0-1.481.6-3.16 1.33-4.234 1.844-9.815 4.002-14.526 5.637a10.112 10.112 0 0 1 .059 1.006 10.112 10.112 0 0 1-4.564 8.45c2.357 11.955 3.937 25.669 3.937 34.741v2.96h37.31l-.152-2.01c-.546-7.155-1.22-11.81-2.484-17.155-2.19-9.257-5.955-18.544-10.766-26.545-1.927-3.206-5.427-8.414-5.654-8.414zm-151.782.092c-.165-.071-1.073.982-2.018 2.338-8.315 11.927-14.065 26.41-16.049 40.428-.498 3.518-.927 8.097-.927 9.906v1.36h30.154a10.112 10.112 0 0 1 7.002-5.723c.45-11.53 2.088-24.318 4.544-35.36.423-1.9.764-3.66.758-3.91-.009-.362-1.188-.84-5.761-2.34-4.41-1.445-13.423-4.858-17.703-6.699zm76.896 8.654a5.965 5.965 0 0 0-5.965 5.967 5.965 5.965 0 0 0 5.965 5.963 5.965 5.965 0 0 0 5.964-5.963 5.965 5.965 0 0 0-5.964-5.967zM81.916 81.86c-.232.232-1.756 8.204-2.508 13.107-1.237 8.073-1.964 15.948-2.351 25.397a10.112 10.112 0 0 1 4.693 4.902h36.998a10.112 10.112 0 0 1 7.635-7.299V95.602a10.112 10.112 0 0 1-7.301-7.964c-12.164-.76-21.483-2.159-32.658-4.875-2.394-.582-4.422-.989-4.508-.903zm85.212 1.71c-9.683 2.193-19.396 3.612-27.667 4.013l-.483.03a10.112 10.112 0 0 1-6.38 7.701V118.6a10.112 10.112 0 0 1 5.689 6.668H179.029l-.176-4.986a217.88 217.88 0 0 0-3.318-31.086 10.112 10.112 0 0 1-8.407-5.623zM128 122.035a5.965 5.965 0 0 0-5.963 5.965 5.965 5.965 0 0 0 5.963 5.965 5.965 5.965 0 0 0 5.966-5.965 5.965 5.965 0 0 0-5.966-5.965zm-55.467 1.394a5.965 5.965 0 0 0-5.963 5.965 5.965 5.965 0 0 0 5.963 5.965 5.965 5.965 0 0 0 5.967-5.965 5.965 5.965 0 0 0-5.967-5.965zm150.257 8.045l-18.488.068-18.49.066-.059 1.424c-.529 12.909-1.762 23.815-3.967 35.08-.556 2.845-.925 5.248-.822 5.338.104.09 2.307.873 4.897 1.74 5.054 1.694 11.922 4.39 16.525 6.485 1.567.713 2.876 1.303 2.906 1.314.03.012.741-.998 1.576-2.244 9.09-13.562 14.802-30.339 15.74-46.224zm-171.1.066c-10.104-.037-18.453.023-18.555.13-.248.262.42 7.43 1.068 11.462 1.429 8.871 4.74 19.096 8.815 27.221 2.222 4.431 7.123 12.393 7.63 12.396.149.001 1.664-.592 3.368-1.318 4.28-1.823 10-3.981 14.638-5.555a10.112 10.112 0 0 1-.011-.351 10.112 10.112 0 0 1 5.23-8.844c-1.8-9.512-2.768-17.218-3.398-27.39a10.112 10.112 0 0 1-7.8-7.71zm30.7.068a10.112 10.112 0 0 1-5.12 6.711c.416 8.382 1.549 18.29 3.115 27.239a10.112 10.112 0 0 1 7.078 4.851c1.998-.453 4.318-.962 6.29-1.365 8.354-1.704 17.742-2.926 24.991-3.25a307.69 307.69 0 0 0 5.506-.295l2.136-.144-.066-16.873-.043-10.791a10.112 10.112 0 0 1-7.14-6.082h-17.485zm55.498 0a10.112 10.112 0 0 1-5.181 5.418l-.045 11.463-.069 16.88 1.104.134c.606.073 2.732.2 4.726.281 9.394.387 23.047 2.472 32.889 5.022 1.566.406 2.926.667 3.023.58.097-.087.534-2.137.97-4.559 1.985-10.997 3.235-22.612 3.444-31.982l.072-3.236h-23.048zm-13.33 39.231c-7.492 0-22.445 1.664-31.581 3.514-.962.194-2.611.56-4.122.892a10.112 10.112 0 0 1 .012.28 10.112 10.112 0 0 1-4.494 8.396c.578 2.247 1.199 4.596 1.756 6.566 1.71 6.054 5.447 17.287 7.544 22.67l1.506 3.862 1.424.488c9.039 3.105 18.107 4.771 29.066 5.344l.713.039V170.84h-1.822zm8.041 0v52.074l.84-.13c.463-.072 1.775-.204 2.914-.29 3.899-.295 12.388-1.767 15.537-2.693 6.496-1.91 8.729-2.741 9.049-3.371 1.26-2.477 6.037-16.334 8.307-24.096 1.207-4.13 3.796-14.123 4.052-15.644.096-.569-.51-.733-9.109-2.47-9.291-1.874-22.37-3.365-29.584-3.376zm47.135 7.047l-.273 1.072c-2.38 9.38-5.548 19.417-9.157 29.016-1.226 3.261-2.23 5.978-2.23 6.037 0 .13 4.107-2.07 7.512-4.024 9.878-5.671 18.591-13.184 27.109-23.375.307-.367-.2-.628-4.643-2.373-5.414-2.127-9.067-3.42-14.693-5.205zm-109.88 2.418c-2.41.76-4.934 1.58-6.526 2.142-3.826 1.354-10.034 3.68-10.191 3.819-.2.176 6.006 7.119 8.672 9.7 6.685 6.478 12.14 10.492 21.27 15.66 4.198 2.376 4.722 2.632 4.722 2.306 0-.085-1.098-3.085-2.436-6.668-2.904-7.778-5.294-15.047-7.136-21.655a10.112 10.112 0 0 1-8.375-5.304z" fill="#c7dceb" fill-rule="evenodd"/>
</svg>
