<?xml version="1.0" encoding="UTF-8" standalone="no"?>
<svg xmlns="http://www.w3.org/2000/svg" width="256" height="218.002" viewBox="0 0 256 218">
  <path d="M127.508 0C83.385.267 39.173 15.496 5.01 43.485-4.866 54.653.533 74.981 15.294 78.795c15.354 4.439 26.322-10.536 38.908-16.46 48.985-27.351 113.678-24.872 159.5 7.889 10.623 10.998 31.852 13.633 39.608-1.964 8.579-15.534-4.96-29.657-18.15-36.162-15.976-10.623-33.674-18.383-51.945-24.017A203.306 203.306 0 0 0 127.508 0zm.336 87.2c-25.918.365-53.087 9.002-71.434 27.84-9.783 13.956 2.903 36.1 20.168 33.657 13.625-2.822 23.322-15.167 37.688-16.53 20.353-4.57 41.747 2.113 57.828 14.814 14.616 7.09 33.941-7.259 30.369-23.45-3.042-15.066-19.237-21.207-31.49-27.432-13.589-5.806-28.347-8.885-43.129-8.9zm-.909 86.994c-16.056-.093-27.27 20.026-18.215 33.532 3.46 5.917 9.579 9.21 16.06 9.994 1.135.183 2.299.282 3.486.282 3.058 0 5.967-.632 8.608-1.768 5.394-2.1 9.926-6.156 11.943-12.118 1.831-4.555 1.806-9.401.427-13.84a21.818 21.818 0 0 0-7.676-11.34c-3.826-3.103-8.64-4.959-13.864-4.722a17.54 17.54 0 0 0-.769-.019z" fill="#c7dceb" fill-rule="evenodd"/>
</svg>
