<?xml version="1.0" encoding="UTF-8" standalone="no"?>
<svg xmlns="http://www.w3.org/2000/svg" width="256" height="256" viewBox="0 0 256 256">
  <path d="M128 0C105.125 0 80.705-.276 59.565 9.42S19.115 38.425 9.419 59.565C-.277 80.705 0 105.125 0 128.001c0 22.875-.278 47.295 9.418 68.435s29.006 40.451 50.146 50.147c21.14 9.696 45.56 9.416 68.435 9.416s47.295.28 68.435-9.416 40.45-29.007 50.146-50.147c9.696-21.14 9.418-45.56 9.418-68.435 0-22.876.278-47.296-9.418-68.436-9.696-21.14-29.006-40.45-50.146-50.146C175.295-.277 150.875 0 128 0zm-.002 6.862c21.153 0 44.163-.347 64.453 8.96 20.225 9.275 38.452 27.5 47.728 47.726 9.306 20.29 8.959 43.301 8.959 64.455 0 21.153.347 44.165-8.96 64.455-9.275 20.225-27.502 38.446-47.727 47.723-20.29 9.305-43.3 8.957-64.453 8.957-21.153 0-44.165.348-64.455-8.957-20.225-9.277-38.446-27.498-47.722-47.723-9.306-20.29-8.957-43.302-8.957-64.455 0-21.154-.349-44.166 8.957-64.455 9.276-20.225 27.497-38.45 47.722-47.727 20.29-9.306 43.302-8.959 64.455-8.959zm0 5.307c-21.197 0-43.394-.166-62.242 8.478-18.911 8.674-36.439 26.202-45.113 45.114C12 84.608 12.17 106.806 12.17 128.003c0 21.197-.17 43.395 8.474 62.242 8.674 18.912 26.202 36.44 45.113 45.113 18.848 8.645 41.045 8.473 62.242 8.473 21.196 0 43.394.171 62.242-8.473 18.912-8.674 36.443-26.201 45.117-45.113 8.644-18.847 8.474-41.045 8.474-62.242 0-21.197.17-43.395-8.474-62.242-8.674-18.912-26.205-36.44-45.117-45.114-18.848-8.644-41.046-8.478-62.242-8.478zm-.393 36.457a162.984 162.984 0 0 1 44.654 6.478c14.646 4.516 28.833 10.737 41.639 19.252 10.573 5.215 21.425 16.535 14.549 28.987-6.218 12.502-23.235 10.39-31.75 1.574-36.73-26.26-88.586-28.247-127.851-6.322-10.088 4.747-18.881 16.75-31.19 13.193-11.83-3.058-16.157-19.353-8.241-28.305 27.384-22.435 62.822-34.643 98.19-34.857zm.272 69.898c11.849.012 23.677 2.48 34.57 7.135 9.822 4.99 22.803 9.911 25.242 21.988 2.863 12.979-12.628 24.48-24.344 18.797-12.89-10.18-30.038-15.536-46.353-11.873-11.516 1.092-19.289 10.987-30.21 13.248-13.84 1.959-24.008-15.79-16.167-26.976 14.708-15.101 36.486-22.026 57.262-22.319zm-.73 69.735c.204 0 .41 0 .617.015 4.187-.19 8.045 1.298 11.113 3.785a17.489 17.489 0 0 1 6.152 9.09c1.105 3.558 1.126 7.443-.342 11.094-1.616 4.78-5.248 8.031-9.572 9.714a17.414 17.414 0 0 1-6.9 1.416c-.952 0-1.885-.077-2.795-.224-5.195-.63-10.1-3.269-12.873-8.012-7.259-10.826 1.729-26.953 14.6-26.879z" fill="#c7dceb" fill-rule="evenodd"/>
</svg>
